G04 #@! TF.GenerationSoftware,KiCad,Pcbnew,(6.0.0-rc1-dev-1425-g4c184f07a)*
G04 #@! TF.CreationDate,2018-12-24T15:04:36+01:00
G04 #@! TF.ProjectId,led_pixel_stm32f030_cree,6c65645f-7069-4786-956c-5f73746d3332,1.1*
G04 #@! TF.SameCoordinates,Original*
G04 #@! TF.FileFunction,Soldermask,Top*
G04 #@! TF.FilePolarity,Negative*
%FSLAX46Y46*%
G04 Gerber Fmt 4.6, Leading zero omitted, Abs format (unit mm)*
G04 Created by KiCad (PCBNEW (6.0.0-rc1-dev-1425-g4c184f07a)) date 24.12.2018 15:04:36*
%MOMM*%
%LPD*%
G04 APERTURE LIST*
%ADD10C,0.100000*%
G04 APERTURE END LIST*
D10*
G36*
X174780000Y-124164000D02*
G01*
X172680000Y-124164000D01*
X172680000Y-122064000D01*
X174780000Y-122064000D01*
X174780000Y-124164000D01*
X174780000Y-124164000D01*
G37*
G36*
X127320000Y-124164000D02*
G01*
X125220000Y-124164000D01*
X125220000Y-122064000D01*
X127320000Y-122064000D01*
X127320000Y-124164000D01*
X127320000Y-124164000D01*
G37*
G36*
X146144000Y-123129000D02*
G01*
X142807000Y-123129000D01*
X142807000Y-121829000D01*
X146144000Y-121829000D01*
X146144000Y-123129000D01*
X146144000Y-123129000D01*
G37*
G36*
X148344000Y-123129000D02*
G01*
X146744000Y-123129000D01*
X146744000Y-121829000D01*
X148344000Y-121829000D01*
X148344000Y-123129000D01*
X148344000Y-123129000D01*
G37*
G36*
X142207000Y-123129000D02*
G01*
X140607000Y-123129000D01*
X140607000Y-121829000D01*
X142207000Y-121829000D01*
X142207000Y-123129000D01*
X142207000Y-123129000D01*
G37*
G36*
X130673000Y-123054000D02*
G01*
X129073000Y-123054000D01*
X129073000Y-121904000D01*
X130673000Y-121904000D01*
X130673000Y-123054000D01*
X130673000Y-123054000D01*
G37*
G36*
X132573000Y-122079896D02*
G01*
X132575402Y-122104282D01*
X132582515Y-122127731D01*
X132594066Y-122149342D01*
X132609612Y-122168284D01*
X132628554Y-122183830D01*
X132650165Y-122195381D01*
X132673614Y-122202494D01*
X132698000Y-122204896D01*
X132722386Y-122202494D01*
X132745835Y-122195381D01*
X132767446Y-122183830D01*
X132794626Y-122159196D01*
X132826526Y-122120326D01*
X132903394Y-122057241D01*
X132991087Y-122010369D01*
X133086241Y-121981504D01*
X133160403Y-121974200D01*
X134073597Y-121974200D01*
X134147759Y-121981504D01*
X134242913Y-122010369D01*
X134330606Y-122057241D01*
X134407474Y-122120326D01*
X134470559Y-122197194D01*
X134517431Y-122284887D01*
X134546296Y-122380041D01*
X134556042Y-122479000D01*
X134546296Y-122577959D01*
X134517431Y-122673113D01*
X134470559Y-122760806D01*
X134407474Y-122837674D01*
X134330606Y-122900759D01*
X134242913Y-122947631D01*
X134147759Y-122976496D01*
X134073597Y-122983800D01*
X133160403Y-122983800D01*
X133086241Y-122976496D01*
X132991087Y-122947631D01*
X132903394Y-122900759D01*
X132826526Y-122837674D01*
X132794626Y-122798804D01*
X132777298Y-122781477D01*
X132756924Y-122767863D01*
X132734285Y-122758486D01*
X132710251Y-122753706D01*
X132685747Y-122753706D01*
X132661713Y-122758487D01*
X132639075Y-122767864D01*
X132618700Y-122781478D01*
X132601373Y-122798806D01*
X132587759Y-122819180D01*
X132578382Y-122841819D01*
X132573000Y-122878104D01*
X132573000Y-123054000D01*
X130973000Y-123054000D01*
X130973000Y-121904000D01*
X132573000Y-121904000D01*
X132573000Y-122079896D01*
X132573000Y-122079896D01*
G37*
G36*
X139735759Y-121981504D02*
G01*
X139830913Y-122010369D01*
X139918606Y-122057241D01*
X139995474Y-122120326D01*
X140058559Y-122197194D01*
X140105431Y-122284887D01*
X140134296Y-122380041D01*
X140144042Y-122479000D01*
X140134296Y-122577959D01*
X140105431Y-122673113D01*
X140058559Y-122760806D01*
X139995474Y-122837674D01*
X139918606Y-122900759D01*
X139830913Y-122947631D01*
X139735759Y-122976496D01*
X139661597Y-122983800D01*
X138748403Y-122983800D01*
X138674241Y-122976496D01*
X138579087Y-122947631D01*
X138491394Y-122900759D01*
X138414526Y-122837674D01*
X138351441Y-122760806D01*
X138304569Y-122673113D01*
X138275704Y-122577959D01*
X138265958Y-122479000D01*
X138275704Y-122380041D01*
X138304569Y-122284887D01*
X138351441Y-122197194D01*
X138414526Y-122120326D01*
X138491394Y-122057241D01*
X138579087Y-122010369D01*
X138674241Y-121981504D01*
X138748403Y-121974200D01*
X139661597Y-121974200D01*
X139735759Y-121981504D01*
X139735759Y-121981504D01*
G37*
G36*
X170543000Y-122409000D02*
G01*
X165643000Y-122409000D01*
X165643000Y-120009000D01*
X170543000Y-120009000D01*
X170543000Y-122409000D01*
X170543000Y-122409000D01*
G37*
G36*
X162043000Y-122409000D02*
G01*
X157143000Y-122409000D01*
X157143000Y-120009000D01*
X162043000Y-120009000D01*
X162043000Y-122409000D01*
X162043000Y-122409000D01*
G37*
G36*
X172038000Y-122070000D02*
G01*
X170888000Y-122070000D01*
X170888000Y-120470000D01*
X172038000Y-120470000D01*
X172038000Y-122070000D01*
X172038000Y-122070000D01*
G37*
G36*
X156798000Y-122070000D02*
G01*
X155648000Y-122070000D01*
X155648000Y-120470000D01*
X156798000Y-120470000D01*
X156798000Y-122070000D01*
X156798000Y-122070000D01*
G37*
G36*
X139735759Y-120711504D02*
G01*
X139830913Y-120740369D01*
X139918606Y-120787241D01*
X139995474Y-120850326D01*
X140058559Y-120927194D01*
X140105431Y-121014887D01*
X140134296Y-121110041D01*
X140144042Y-121209000D01*
X140134296Y-121307959D01*
X140105431Y-121403113D01*
X140058559Y-121490806D01*
X139995474Y-121567674D01*
X139918606Y-121630759D01*
X139830913Y-121677631D01*
X139735759Y-121706496D01*
X139661597Y-121713800D01*
X138748403Y-121713800D01*
X138674241Y-121706496D01*
X138579087Y-121677631D01*
X138491394Y-121630759D01*
X138414526Y-121567674D01*
X138351441Y-121490806D01*
X138304569Y-121403113D01*
X138275704Y-121307959D01*
X138265958Y-121209000D01*
X138275704Y-121110041D01*
X138304569Y-121014887D01*
X138351441Y-120927194D01*
X138414526Y-120850326D01*
X138491394Y-120787241D01*
X138579087Y-120740369D01*
X138674241Y-120711504D01*
X138748403Y-120704200D01*
X139661597Y-120704200D01*
X139735759Y-120711504D01*
X139735759Y-120711504D01*
G37*
G36*
X134147759Y-120711504D02*
G01*
X134242913Y-120740369D01*
X134330606Y-120787241D01*
X134407474Y-120850326D01*
X134470559Y-120927194D01*
X134517431Y-121014887D01*
X134546296Y-121110041D01*
X134556042Y-121209000D01*
X134546296Y-121307959D01*
X134517431Y-121403113D01*
X134470559Y-121490806D01*
X134407474Y-121567674D01*
X134330606Y-121630759D01*
X134242913Y-121677631D01*
X134147759Y-121706496D01*
X134073597Y-121713800D01*
X133160403Y-121713800D01*
X133086241Y-121706496D01*
X132991087Y-121677631D01*
X132903394Y-121630759D01*
X132826526Y-121567674D01*
X132763441Y-121490806D01*
X132716569Y-121403113D01*
X132687704Y-121307959D01*
X132677958Y-121209000D01*
X132687704Y-121110041D01*
X132716569Y-121014887D01*
X132763441Y-120927194D01*
X132826526Y-120850326D01*
X132903394Y-120787241D01*
X132991087Y-120740369D01*
X133086241Y-120711504D01*
X133160403Y-120704200D01*
X134073597Y-120704200D01*
X134147759Y-120711504D01*
X134147759Y-120711504D01*
G37*
G36*
X173858707Y-119531597D02*
G01*
X173935836Y-119539193D01*
X174067787Y-119579220D01*
X174133763Y-119599233D01*
X174316172Y-119696733D01*
X174476054Y-119827946D01*
X174607267Y-119987828D01*
X174704767Y-120170237D01*
X174724780Y-120236213D01*
X174764807Y-120368164D01*
X174785080Y-120574000D01*
X174764807Y-120779836D01*
X174745646Y-120843000D01*
X174704767Y-120977763D01*
X174607267Y-121160172D01*
X174476054Y-121320054D01*
X174316172Y-121451267D01*
X174133763Y-121548767D01*
X174071434Y-121567674D01*
X173935836Y-121608807D01*
X173858707Y-121616403D01*
X173781580Y-121624000D01*
X173678420Y-121624000D01*
X173601293Y-121616403D01*
X173524164Y-121608807D01*
X173388566Y-121567674D01*
X173326237Y-121548767D01*
X173143828Y-121451267D01*
X172983946Y-121320054D01*
X172852733Y-121160172D01*
X172755233Y-120977763D01*
X172714354Y-120843000D01*
X172695193Y-120779836D01*
X172674920Y-120574000D01*
X172695193Y-120368164D01*
X172735220Y-120236213D01*
X172755233Y-120170237D01*
X172852733Y-119987828D01*
X172983946Y-119827946D01*
X173143828Y-119696733D01*
X173326237Y-119599233D01*
X173392213Y-119579220D01*
X173524164Y-119539193D01*
X173601293Y-119531597D01*
X173678420Y-119524000D01*
X173781580Y-119524000D01*
X173858707Y-119531597D01*
X173858707Y-119531597D01*
G37*
G36*
X126398707Y-119531597D02*
G01*
X126475836Y-119539193D01*
X126607787Y-119579220D01*
X126673763Y-119599233D01*
X126856172Y-119696733D01*
X127016054Y-119827946D01*
X127147267Y-119987828D01*
X127244767Y-120170237D01*
X127264780Y-120236213D01*
X127304807Y-120368164D01*
X127325080Y-120574000D01*
X127304807Y-120779836D01*
X127285646Y-120843000D01*
X127244767Y-120977763D01*
X127147267Y-121160172D01*
X127016054Y-121320054D01*
X126856172Y-121451267D01*
X126673763Y-121548767D01*
X126611434Y-121567674D01*
X126475836Y-121608807D01*
X126398707Y-121616403D01*
X126321580Y-121624000D01*
X126218420Y-121624000D01*
X126141293Y-121616403D01*
X126064164Y-121608807D01*
X125928566Y-121567674D01*
X125866237Y-121548767D01*
X125683828Y-121451267D01*
X125523946Y-121320054D01*
X125392733Y-121160172D01*
X125295233Y-120977763D01*
X125254354Y-120843000D01*
X125235193Y-120779836D01*
X125214920Y-120574000D01*
X125235193Y-120368164D01*
X125275220Y-120236213D01*
X125295233Y-120170237D01*
X125392733Y-119987828D01*
X125523946Y-119827946D01*
X125683828Y-119696733D01*
X125866237Y-119599233D01*
X125932213Y-119579220D01*
X126064164Y-119539193D01*
X126141293Y-119531597D01*
X126218420Y-119524000D01*
X126321580Y-119524000D01*
X126398707Y-119531597D01*
X126398707Y-119531597D01*
G37*
G36*
X144407000Y-120843000D02*
G01*
X142807000Y-120843000D01*
X142807000Y-119543000D01*
X144407000Y-119543000D01*
X144407000Y-120843000D01*
X144407000Y-120843000D01*
G37*
G36*
X142207000Y-120843000D02*
G01*
X140607000Y-120843000D01*
X140607000Y-119543000D01*
X142207000Y-119543000D01*
X142207000Y-120843000D01*
X142207000Y-120843000D01*
G37*
G36*
X131834000Y-120716000D02*
G01*
X130234000Y-120716000D01*
X130234000Y-117892000D01*
X131834000Y-117892000D01*
X131834000Y-120716000D01*
X131834000Y-120716000D01*
G37*
G36*
X129634000Y-120716000D02*
G01*
X128034000Y-120716000D01*
X128034000Y-117892000D01*
X129634000Y-117892000D01*
X129634000Y-120716000D01*
X129634000Y-120716000D01*
G37*
G36*
X134147759Y-119441504D02*
G01*
X134242913Y-119470369D01*
X134330606Y-119517241D01*
X134407474Y-119580326D01*
X134470559Y-119657194D01*
X134517431Y-119744887D01*
X134546296Y-119840041D01*
X134556042Y-119939000D01*
X134546296Y-120037959D01*
X134517431Y-120133113D01*
X134470559Y-120220806D01*
X134407474Y-120297674D01*
X134330606Y-120360759D01*
X134242913Y-120407631D01*
X134147759Y-120436496D01*
X134073597Y-120443800D01*
X133160403Y-120443800D01*
X133086241Y-120436496D01*
X132991087Y-120407631D01*
X132903394Y-120360759D01*
X132826526Y-120297674D01*
X132763441Y-120220806D01*
X132716569Y-120133113D01*
X132687704Y-120037959D01*
X132677958Y-119939000D01*
X132687704Y-119840041D01*
X132716569Y-119744887D01*
X132763441Y-119657194D01*
X132826526Y-119580326D01*
X132903394Y-119517241D01*
X132991087Y-119470369D01*
X133086241Y-119441504D01*
X133160403Y-119434200D01*
X134073597Y-119434200D01*
X134147759Y-119441504D01*
X134147759Y-119441504D01*
G37*
G36*
X139735759Y-119441504D02*
G01*
X139830913Y-119470369D01*
X139918606Y-119517241D01*
X139995474Y-119580326D01*
X140058559Y-119657194D01*
X140105431Y-119744887D01*
X140134296Y-119840041D01*
X140144042Y-119939000D01*
X140134296Y-120037959D01*
X140105431Y-120133113D01*
X140058559Y-120220806D01*
X139995474Y-120297674D01*
X139918606Y-120360759D01*
X139830913Y-120407631D01*
X139735759Y-120436496D01*
X139661597Y-120443800D01*
X138748403Y-120443800D01*
X138674241Y-120436496D01*
X138579087Y-120407631D01*
X138491394Y-120360759D01*
X138414526Y-120297674D01*
X138351441Y-120220806D01*
X138304569Y-120133113D01*
X138275704Y-120037959D01*
X138265958Y-119939000D01*
X138275704Y-119840041D01*
X138304569Y-119744887D01*
X138351441Y-119657194D01*
X138414526Y-119580326D01*
X138491394Y-119517241D01*
X138579087Y-119470369D01*
X138674241Y-119441504D01*
X138748403Y-119434200D01*
X139661597Y-119434200D01*
X139735759Y-119441504D01*
X139735759Y-119441504D01*
G37*
G36*
X156798000Y-120170000D02*
G01*
X155648000Y-120170000D01*
X155648000Y-118570000D01*
X156798000Y-118570000D01*
X156798000Y-120170000D01*
X156798000Y-120170000D01*
G37*
G36*
X172038000Y-120170000D02*
G01*
X170888000Y-120170000D01*
X170888000Y-118570000D01*
X172038000Y-118570000D01*
X172038000Y-120170000D01*
X172038000Y-120170000D01*
G37*
G36*
X152319040Y-116475737D02*
G01*
X152550719Y-116521820D01*
X152803228Y-116626413D01*
X153030480Y-116778258D01*
X153223742Y-116971520D01*
X153375587Y-117198772D01*
X153480180Y-117451281D01*
X153533500Y-117719343D01*
X153533500Y-117992657D01*
X153480180Y-118260719D01*
X153375587Y-118513228D01*
X153223742Y-118740480D01*
X153030480Y-118933742D01*
X152803228Y-119085587D01*
X152550719Y-119190180D01*
X152320803Y-119235912D01*
X152282658Y-119243500D01*
X152009342Y-119243500D01*
X151971197Y-119235912D01*
X151741281Y-119190180D01*
X151488772Y-119085587D01*
X151261520Y-118933742D01*
X151068258Y-118740480D01*
X150916413Y-118513228D01*
X150811820Y-118260719D01*
X150758500Y-117992657D01*
X150758500Y-117719343D01*
X150811820Y-117451281D01*
X150916413Y-117198772D01*
X151068258Y-116971520D01*
X151261520Y-116778258D01*
X151488772Y-116626413D01*
X151741281Y-116521820D01*
X151972960Y-116475737D01*
X152009342Y-116468500D01*
X152282658Y-116468500D01*
X152319040Y-116475737D01*
X152319040Y-116475737D01*
G37*
G36*
X146605803Y-111396088D02*
G01*
X146835719Y-111441820D01*
X147088228Y-111546413D01*
X147315480Y-111698258D01*
X147508742Y-111891520D01*
X147660587Y-112118772D01*
X147765180Y-112371281D01*
X147797225Y-112532386D01*
X147814653Y-112620000D01*
X147818500Y-112639343D01*
X147818500Y-112912657D01*
X147765180Y-113180719D01*
X147660587Y-113433228D01*
X147508742Y-113660480D01*
X147315480Y-113853742D01*
X147243861Y-113901596D01*
X147224923Y-113917138D01*
X147209378Y-113936080D01*
X147197827Y-113957691D01*
X147190714Y-113981140D01*
X147188312Y-114005527D01*
X147190714Y-114029913D01*
X147197827Y-114053362D01*
X147209379Y-114074973D01*
X147224924Y-114093915D01*
X147243866Y-114109460D01*
X147265463Y-114121004D01*
X147347223Y-114154870D01*
X147444462Y-114219843D01*
X147527157Y-114302538D01*
X147592130Y-114399777D01*
X147592132Y-114399782D01*
X147597066Y-114407166D01*
X147612612Y-114426109D01*
X147631554Y-114441654D01*
X147653165Y-114453205D01*
X147676614Y-114460318D01*
X147701000Y-114462720D01*
X147725387Y-114460318D01*
X147748836Y-114453205D01*
X147770446Y-114441654D01*
X147789389Y-114426108D01*
X147804934Y-114407166D01*
X147809868Y-114399782D01*
X147809870Y-114399777D01*
X147874843Y-114302538D01*
X147957538Y-114219843D01*
X148054777Y-114154870D01*
X148162824Y-114110115D01*
X148277526Y-114087300D01*
X148394474Y-114087300D01*
X148509176Y-114110115D01*
X148617223Y-114154870D01*
X148714462Y-114219843D01*
X148797157Y-114302538D01*
X148862130Y-114399777D01*
X148862132Y-114399782D01*
X148867066Y-114407166D01*
X148882612Y-114426109D01*
X148901554Y-114441654D01*
X148923165Y-114453205D01*
X148946614Y-114460318D01*
X148971000Y-114462720D01*
X148995387Y-114460318D01*
X149018836Y-114453205D01*
X149040446Y-114441654D01*
X149059389Y-114426108D01*
X149074934Y-114407166D01*
X149079868Y-114399782D01*
X149079870Y-114399777D01*
X149144843Y-114302538D01*
X149227538Y-114219843D01*
X149324777Y-114154870D01*
X149432824Y-114110115D01*
X149547526Y-114087300D01*
X149664474Y-114087300D01*
X149779176Y-114110115D01*
X149887223Y-114154870D01*
X149984462Y-114219843D01*
X150067157Y-114302538D01*
X150132130Y-114399777D01*
X150132132Y-114399782D01*
X150137066Y-114407166D01*
X150152612Y-114426109D01*
X150171554Y-114441654D01*
X150193165Y-114453205D01*
X150216614Y-114460318D01*
X150241000Y-114462720D01*
X150265387Y-114460318D01*
X150288836Y-114453205D01*
X150310446Y-114441654D01*
X150329389Y-114426108D01*
X150344934Y-114407166D01*
X150349868Y-114399782D01*
X150349870Y-114399777D01*
X150414843Y-114302538D01*
X150497538Y-114219843D01*
X150594777Y-114154870D01*
X150702824Y-114110115D01*
X150817526Y-114087300D01*
X150934474Y-114087300D01*
X151049176Y-114110115D01*
X151157223Y-114154870D01*
X151254462Y-114219843D01*
X151337157Y-114302538D01*
X151402130Y-114399777D01*
X151446885Y-114507824D01*
X151468548Y-114616733D01*
X151469700Y-114622526D01*
X151469700Y-114707220D01*
X151472102Y-114731606D01*
X151479215Y-114755055D01*
X151490766Y-114776666D01*
X151506312Y-114795608D01*
X151525254Y-114811154D01*
X151546865Y-114822705D01*
X151570314Y-114829818D01*
X151594700Y-114832220D01*
X151619086Y-114829818D01*
X151642535Y-114822705D01*
X151664146Y-114811154D01*
X151683088Y-114795608D01*
X151702769Y-114775927D01*
X151757325Y-114739474D01*
X151816652Y-114699833D01*
X151943189Y-114647420D01*
X152032742Y-114629607D01*
X152077518Y-114620700D01*
X152214482Y-114620700D01*
X152259258Y-114629607D01*
X152348811Y-114647420D01*
X152475348Y-114699833D01*
X152534675Y-114739474D01*
X152589231Y-114775927D01*
X152686073Y-114872769D01*
X152686075Y-114872772D01*
X152762167Y-114986652D01*
X152814580Y-115113189D01*
X152820342Y-115142157D01*
X152841300Y-115247518D01*
X152841300Y-115384482D01*
X152837340Y-115404388D01*
X152814580Y-115518811D01*
X152762167Y-115645348D01*
X152725761Y-115699834D01*
X152686073Y-115759231D01*
X152589231Y-115856073D01*
X152589228Y-115856075D01*
X152475348Y-115932167D01*
X152348811Y-115984580D01*
X152262990Y-116001651D01*
X152214482Y-116011300D01*
X152077518Y-116011300D01*
X152029010Y-116001651D01*
X151943189Y-115984580D01*
X151816652Y-115932167D01*
X151702772Y-115856075D01*
X151702769Y-115856073D01*
X151683088Y-115836392D01*
X151664146Y-115820846D01*
X151642535Y-115809295D01*
X151619086Y-115802182D01*
X151594700Y-115799780D01*
X151570314Y-115802182D01*
X151546865Y-115809295D01*
X151525254Y-115820846D01*
X151506312Y-115836392D01*
X151490766Y-115855334D01*
X151479215Y-115876945D01*
X151472102Y-115900394D01*
X151469700Y-115924780D01*
X151469700Y-116009474D01*
X151446885Y-116124176D01*
X151402130Y-116232223D01*
X151337157Y-116329462D01*
X151254462Y-116412157D01*
X151157223Y-116477130D01*
X151049176Y-116521885D01*
X150934474Y-116544700D01*
X150817526Y-116544700D01*
X150702824Y-116521885D01*
X150594777Y-116477130D01*
X150497538Y-116412157D01*
X150414843Y-116329462D01*
X150349870Y-116232223D01*
X150349868Y-116232218D01*
X150344934Y-116224834D01*
X150329388Y-116205891D01*
X150310446Y-116190346D01*
X150288835Y-116178795D01*
X150265386Y-116171682D01*
X150241000Y-116169280D01*
X150216613Y-116171682D01*
X150193164Y-116178795D01*
X150171554Y-116190346D01*
X150152611Y-116205892D01*
X150137066Y-116224834D01*
X150132132Y-116232218D01*
X150132130Y-116232223D01*
X150067157Y-116329462D01*
X149984462Y-116412157D01*
X149887223Y-116477130D01*
X149779176Y-116521885D01*
X149664474Y-116544700D01*
X149547526Y-116544700D01*
X149432824Y-116521885D01*
X149324777Y-116477130D01*
X149227538Y-116412157D01*
X149144843Y-116329462D01*
X149079870Y-116232223D01*
X149079868Y-116232218D01*
X149074934Y-116224834D01*
X149059388Y-116205891D01*
X149040446Y-116190346D01*
X149018835Y-116178795D01*
X148995386Y-116171682D01*
X148971000Y-116169280D01*
X148946613Y-116171682D01*
X148923164Y-116178795D01*
X148901554Y-116190346D01*
X148882611Y-116205892D01*
X148867066Y-116224834D01*
X148862132Y-116232218D01*
X148862130Y-116232223D01*
X148797157Y-116329462D01*
X148714462Y-116412157D01*
X148617223Y-116477130D01*
X148509176Y-116521885D01*
X148394474Y-116544700D01*
X148277526Y-116544700D01*
X148162824Y-116521885D01*
X148054777Y-116477130D01*
X147957538Y-116412157D01*
X147874843Y-116329462D01*
X147809870Y-116232223D01*
X147809868Y-116232218D01*
X147804934Y-116224834D01*
X147789388Y-116205891D01*
X147770446Y-116190346D01*
X147748835Y-116178795D01*
X147725386Y-116171682D01*
X147701000Y-116169280D01*
X147676613Y-116171682D01*
X147653164Y-116178795D01*
X147631554Y-116190346D01*
X147612611Y-116205892D01*
X147597066Y-116224834D01*
X147592132Y-116232218D01*
X147592130Y-116232223D01*
X147527157Y-116329462D01*
X147444462Y-116412157D01*
X147347223Y-116477130D01*
X147265463Y-116510996D01*
X147243866Y-116522540D01*
X147224924Y-116538085D01*
X147209379Y-116557027D01*
X147197827Y-116578638D01*
X147190714Y-116602087D01*
X147188312Y-116626473D01*
X147190714Y-116650860D01*
X147197827Y-116674309D01*
X147209378Y-116695920D01*
X147224923Y-116714862D01*
X147243861Y-116730404D01*
X147315480Y-116778258D01*
X147508742Y-116971520D01*
X147660587Y-117198772D01*
X147765180Y-117451281D01*
X147818500Y-117719343D01*
X147818500Y-117992657D01*
X147765180Y-118260719D01*
X147660587Y-118513228D01*
X147508742Y-118740480D01*
X147315480Y-118933742D01*
X147088228Y-119085587D01*
X146835719Y-119190180D01*
X146605803Y-119235912D01*
X146567658Y-119243500D01*
X146294342Y-119243500D01*
X146256197Y-119235912D01*
X146026281Y-119190180D01*
X145773772Y-119085587D01*
X145546520Y-118933742D01*
X145353258Y-118740480D01*
X145201413Y-118513228D01*
X145096820Y-118260719D01*
X145043500Y-117992657D01*
X145043500Y-117719343D01*
X145096820Y-117451281D01*
X145201413Y-117198772D01*
X145353258Y-116971520D01*
X145546520Y-116778258D01*
X145618139Y-116730404D01*
X145637077Y-116714862D01*
X145652622Y-116695920D01*
X145664173Y-116674309D01*
X145671286Y-116650860D01*
X145673688Y-116626473D01*
X145671286Y-116602087D01*
X145664173Y-116578638D01*
X145652621Y-116557027D01*
X145637076Y-116538085D01*
X145618134Y-116522540D01*
X145596537Y-116510996D01*
X145514777Y-116477130D01*
X145417538Y-116412157D01*
X145417112Y-116411731D01*
X145398176Y-116396190D01*
X145376565Y-116384639D01*
X145353116Y-116377526D01*
X145328730Y-116375124D01*
X145304344Y-116377526D01*
X145280895Y-116384639D01*
X145259284Y-116396190D01*
X145240342Y-116411736D01*
X145224796Y-116430678D01*
X145213245Y-116452289D01*
X145206132Y-116475737D01*
X145194580Y-116533811D01*
X145142167Y-116660348D01*
X145105742Y-116714862D01*
X145066073Y-116774231D01*
X144969231Y-116871073D01*
X144969228Y-116871075D01*
X144855348Y-116947167D01*
X144728811Y-116999580D01*
X144639258Y-117017393D01*
X144594482Y-117026300D01*
X144457518Y-117026300D01*
X144412742Y-117017393D01*
X144323189Y-116999580D01*
X144196652Y-116947167D01*
X144082772Y-116871075D01*
X144082769Y-116871073D01*
X143985927Y-116774231D01*
X143946258Y-116714862D01*
X143909833Y-116660348D01*
X143857420Y-116533811D01*
X143830700Y-116399481D01*
X143830700Y-116343500D01*
X146273112Y-116343500D01*
X146275514Y-116367886D01*
X146282627Y-116391335D01*
X146294178Y-116412946D01*
X146309723Y-116431888D01*
X146328665Y-116447433D01*
X146350276Y-116458985D01*
X146373725Y-116466098D01*
X146398112Y-116468500D01*
X146463888Y-116468500D01*
X146488274Y-116466098D01*
X146511723Y-116458985D01*
X146533334Y-116447434D01*
X146552276Y-116431888D01*
X146567822Y-116412946D01*
X146579373Y-116391335D01*
X146586486Y-116367886D01*
X146588888Y-116343500D01*
X146586486Y-116319114D01*
X146579373Y-116295665D01*
X146567825Y-116274061D01*
X146539870Y-116232223D01*
X146539869Y-116232220D01*
X146534933Y-116224833D01*
X146519388Y-116205891D01*
X146500446Y-116190346D01*
X146478835Y-116178795D01*
X146455386Y-116171682D01*
X146431000Y-116169280D01*
X146406613Y-116171682D01*
X146383164Y-116178795D01*
X146361553Y-116190347D01*
X146342611Y-116205892D01*
X146327067Y-116224833D01*
X146322131Y-116232220D01*
X146322130Y-116232223D01*
X146294175Y-116274061D01*
X146282627Y-116295664D01*
X146275514Y-116319113D01*
X146273112Y-116343500D01*
X143830700Y-116343500D01*
X143830700Y-116262519D01*
X143835169Y-116240054D01*
X143848769Y-116171682D01*
X143857420Y-116128189D01*
X143909833Y-116001652D01*
X143985925Y-115887772D01*
X143985927Y-115887769D01*
X144082769Y-115790927D01*
X144130210Y-115759228D01*
X144196652Y-115714833D01*
X144323189Y-115662420D01*
X144413842Y-115644388D01*
X144457518Y-115635700D01*
X144594482Y-115635700D01*
X144638158Y-115644388D01*
X144728811Y-115662420D01*
X144855348Y-115714833D01*
X144921790Y-115759228D01*
X144969231Y-115790927D01*
X145015126Y-115836822D01*
X145034068Y-115852368D01*
X145055679Y-115863919D01*
X145079128Y-115871032D01*
X145103514Y-115873434D01*
X145127900Y-115871032D01*
X145151349Y-115863919D01*
X145172960Y-115852368D01*
X145191902Y-115836822D01*
X145207448Y-115817880D01*
X145218999Y-115796269D01*
X145223165Y-115782536D01*
X145225113Y-115777832D01*
X145225115Y-115777824D01*
X145269870Y-115669777D01*
X145334843Y-115572538D01*
X145417538Y-115489843D01*
X145514777Y-115424870D01*
X145514782Y-115424868D01*
X145522166Y-115419934D01*
X145541109Y-115404388D01*
X145556654Y-115385446D01*
X145568205Y-115363835D01*
X145575318Y-115340386D01*
X145577720Y-115316000D01*
X146014280Y-115316000D01*
X146016682Y-115340387D01*
X146023795Y-115363836D01*
X146035346Y-115385446D01*
X146050892Y-115404389D01*
X146069834Y-115419934D01*
X146077218Y-115424868D01*
X146077223Y-115424870D01*
X146174462Y-115489843D01*
X146257157Y-115572538D01*
X146322130Y-115669777D01*
X146322132Y-115669782D01*
X146327066Y-115677166D01*
X146342612Y-115696109D01*
X146361554Y-115711654D01*
X146383165Y-115723205D01*
X146406614Y-115730318D01*
X146431000Y-115732720D01*
X146455387Y-115730318D01*
X146478836Y-115723205D01*
X146500446Y-115711654D01*
X146519389Y-115696108D01*
X146534934Y-115677166D01*
X146539868Y-115669782D01*
X146539870Y-115669777D01*
X146604843Y-115572538D01*
X146687538Y-115489843D01*
X146784777Y-115424870D01*
X146784782Y-115424868D01*
X146792166Y-115419934D01*
X146811109Y-115404388D01*
X146826654Y-115385446D01*
X146838205Y-115363835D01*
X146845318Y-115340386D01*
X146847720Y-115316000D01*
X147284280Y-115316000D01*
X147286682Y-115340387D01*
X147293795Y-115363836D01*
X147305346Y-115385446D01*
X147320892Y-115404389D01*
X147339834Y-115419934D01*
X147347218Y-115424868D01*
X147347223Y-115424870D01*
X147444462Y-115489843D01*
X147527157Y-115572538D01*
X147592130Y-115669777D01*
X147592132Y-115669782D01*
X147597066Y-115677166D01*
X147612612Y-115696109D01*
X147631554Y-115711654D01*
X147653165Y-115723205D01*
X147676614Y-115730318D01*
X147701000Y-115732720D01*
X147725387Y-115730318D01*
X147748836Y-115723205D01*
X147770446Y-115711654D01*
X147789389Y-115696108D01*
X147804934Y-115677166D01*
X147809868Y-115669782D01*
X147809870Y-115669777D01*
X147874843Y-115572538D01*
X147957538Y-115489843D01*
X148054777Y-115424870D01*
X148054782Y-115424868D01*
X148062166Y-115419934D01*
X148081109Y-115404388D01*
X148096654Y-115385446D01*
X148108205Y-115363835D01*
X148115318Y-115340386D01*
X148117720Y-115316000D01*
X148554280Y-115316000D01*
X148556682Y-115340387D01*
X148563795Y-115363836D01*
X148575346Y-115385446D01*
X148590892Y-115404389D01*
X148609834Y-115419934D01*
X148617218Y-115424868D01*
X148617223Y-115424870D01*
X148714462Y-115489843D01*
X148797157Y-115572538D01*
X148862130Y-115669777D01*
X148862132Y-115669782D01*
X148867066Y-115677166D01*
X148882612Y-115696109D01*
X148901554Y-115711654D01*
X148923165Y-115723205D01*
X148946614Y-115730318D01*
X148971000Y-115732720D01*
X148995387Y-115730318D01*
X149018836Y-115723205D01*
X149040446Y-115711654D01*
X149059389Y-115696108D01*
X149074934Y-115677166D01*
X149079868Y-115669782D01*
X149079870Y-115669777D01*
X149144843Y-115572538D01*
X149227538Y-115489843D01*
X149324777Y-115424870D01*
X149324782Y-115424868D01*
X149332166Y-115419934D01*
X149351109Y-115404388D01*
X149366654Y-115385446D01*
X149378205Y-115363835D01*
X149385318Y-115340386D01*
X149387720Y-115316000D01*
X149824280Y-115316000D01*
X149826682Y-115340387D01*
X149833795Y-115363836D01*
X149845346Y-115385446D01*
X149860892Y-115404389D01*
X149879834Y-115419934D01*
X149887218Y-115424868D01*
X149887223Y-115424870D01*
X149984462Y-115489843D01*
X150067157Y-115572538D01*
X150132130Y-115669777D01*
X150132132Y-115669782D01*
X150137066Y-115677166D01*
X150152612Y-115696109D01*
X150171554Y-115711654D01*
X150193165Y-115723205D01*
X150216614Y-115730318D01*
X150241000Y-115732720D01*
X150265387Y-115730318D01*
X150288836Y-115723205D01*
X150310446Y-115711654D01*
X150329389Y-115696108D01*
X150344934Y-115677166D01*
X150349868Y-115669782D01*
X150349870Y-115669777D01*
X150414843Y-115572538D01*
X150497538Y-115489843D01*
X150594777Y-115424870D01*
X150594782Y-115424868D01*
X150602166Y-115419934D01*
X150621109Y-115404388D01*
X150636654Y-115385446D01*
X150648205Y-115363835D01*
X150655318Y-115340386D01*
X150657720Y-115316000D01*
X151094280Y-115316000D01*
X151096682Y-115340387D01*
X151103795Y-115363836D01*
X151115346Y-115385447D01*
X151130892Y-115404389D01*
X151149833Y-115419934D01*
X151157216Y-115424867D01*
X151157223Y-115424870D01*
X151254462Y-115489843D01*
X151254469Y-115489850D01*
X151256253Y-115491042D01*
X151277864Y-115502593D01*
X151301313Y-115509706D01*
X151325700Y-115512108D01*
X151350086Y-115509706D01*
X151373535Y-115502593D01*
X151395146Y-115491042D01*
X151414088Y-115475497D01*
X151429634Y-115456555D01*
X151441185Y-115434944D01*
X151448298Y-115411495D01*
X151450700Y-115387108D01*
X151450700Y-115244892D01*
X151448298Y-115220506D01*
X151441185Y-115197057D01*
X151429634Y-115175446D01*
X151414088Y-115156504D01*
X151395146Y-115140958D01*
X151373535Y-115129407D01*
X151350086Y-115122294D01*
X151325700Y-115119892D01*
X151301314Y-115122294D01*
X151277865Y-115129407D01*
X151256253Y-115140958D01*
X151254469Y-115142150D01*
X151254462Y-115142157D01*
X151157223Y-115207130D01*
X151157216Y-115207133D01*
X151149833Y-115212066D01*
X151130891Y-115227612D01*
X151115346Y-115246554D01*
X151103795Y-115268165D01*
X151096682Y-115291614D01*
X151094280Y-115316000D01*
X150657720Y-115316000D01*
X150655318Y-115291613D01*
X150648205Y-115268164D01*
X150636654Y-115246554D01*
X150621108Y-115227611D01*
X150602166Y-115212066D01*
X150594782Y-115207132D01*
X150594777Y-115207130D01*
X150497538Y-115142157D01*
X150414843Y-115059462D01*
X150349870Y-114962223D01*
X150349868Y-114962218D01*
X150344934Y-114954834D01*
X150329388Y-114935891D01*
X150310446Y-114920346D01*
X150288835Y-114908795D01*
X150265386Y-114901682D01*
X150241000Y-114899280D01*
X150216613Y-114901682D01*
X150193164Y-114908795D01*
X150171554Y-114920346D01*
X150152611Y-114935892D01*
X150137066Y-114954834D01*
X150132132Y-114962218D01*
X150132130Y-114962223D01*
X150067157Y-115059462D01*
X149984462Y-115142157D01*
X149887223Y-115207130D01*
X149887218Y-115207132D01*
X149879834Y-115212066D01*
X149860891Y-115227612D01*
X149845346Y-115246554D01*
X149833795Y-115268165D01*
X149826682Y-115291614D01*
X149824280Y-115316000D01*
X149387720Y-115316000D01*
X149385318Y-115291613D01*
X149378205Y-115268164D01*
X149366654Y-115246554D01*
X149351108Y-115227611D01*
X149332166Y-115212066D01*
X149324782Y-115207132D01*
X149324777Y-115207130D01*
X149227538Y-115142157D01*
X149144843Y-115059462D01*
X149079870Y-114962223D01*
X149079868Y-114962218D01*
X149074934Y-114954834D01*
X149059388Y-114935891D01*
X149040446Y-114920346D01*
X149018835Y-114908795D01*
X148995386Y-114901682D01*
X148971000Y-114899280D01*
X148946613Y-114901682D01*
X148923164Y-114908795D01*
X148901554Y-114920346D01*
X148882611Y-114935892D01*
X148867066Y-114954834D01*
X148862132Y-114962218D01*
X148862130Y-114962223D01*
X148797157Y-115059462D01*
X148714462Y-115142157D01*
X148617223Y-115207130D01*
X148617218Y-115207132D01*
X148609834Y-115212066D01*
X148590891Y-115227612D01*
X148575346Y-115246554D01*
X148563795Y-115268165D01*
X148556682Y-115291614D01*
X148554280Y-115316000D01*
X148117720Y-115316000D01*
X148115318Y-115291613D01*
X148108205Y-115268164D01*
X148096654Y-115246554D01*
X148081108Y-115227611D01*
X148062166Y-115212066D01*
X148054782Y-115207132D01*
X148054777Y-115207130D01*
X147957538Y-115142157D01*
X147874843Y-115059462D01*
X147809870Y-114962223D01*
X147809868Y-114962218D01*
X147804934Y-114954834D01*
X147789388Y-114935891D01*
X147770446Y-114920346D01*
X147748835Y-114908795D01*
X147725386Y-114901682D01*
X147701000Y-114899280D01*
X147676613Y-114901682D01*
X147653164Y-114908795D01*
X147631554Y-114920346D01*
X147612611Y-114935892D01*
X147597066Y-114954834D01*
X147592132Y-114962218D01*
X147592130Y-114962223D01*
X147527157Y-115059462D01*
X147444462Y-115142157D01*
X147347223Y-115207130D01*
X147347218Y-115207132D01*
X147339834Y-115212066D01*
X147320891Y-115227612D01*
X147305346Y-115246554D01*
X147293795Y-115268165D01*
X147286682Y-115291614D01*
X147284280Y-115316000D01*
X146847720Y-115316000D01*
X146845318Y-115291613D01*
X146838205Y-115268164D01*
X146826654Y-115246554D01*
X146811108Y-115227611D01*
X146792166Y-115212066D01*
X146784782Y-115207132D01*
X146784777Y-115207130D01*
X146687538Y-115142157D01*
X146604843Y-115059462D01*
X146539870Y-114962223D01*
X146539868Y-114962218D01*
X146534934Y-114954834D01*
X146519388Y-114935891D01*
X146500446Y-114920346D01*
X146478835Y-114908795D01*
X146455386Y-114901682D01*
X146431000Y-114899280D01*
X146406613Y-114901682D01*
X146383164Y-114908795D01*
X146361554Y-114920346D01*
X146342611Y-114935892D01*
X146327066Y-114954834D01*
X146322132Y-114962218D01*
X146322130Y-114962223D01*
X146257157Y-115059462D01*
X146174462Y-115142157D01*
X146077223Y-115207130D01*
X146077218Y-115207132D01*
X146069834Y-115212066D01*
X146050891Y-115227612D01*
X146035346Y-115246554D01*
X146023795Y-115268165D01*
X146016682Y-115291614D01*
X146014280Y-115316000D01*
X145577720Y-115316000D01*
X145575318Y-115291613D01*
X145568205Y-115268164D01*
X145556654Y-115246554D01*
X145541108Y-115227611D01*
X145522166Y-115212066D01*
X145514782Y-115207132D01*
X145514777Y-115207130D01*
X145417538Y-115142157D01*
X145334843Y-115059462D01*
X145269870Y-114962223D01*
X145225115Y-114854176D01*
X145225114Y-114854172D01*
X145223165Y-114849466D01*
X145219002Y-114835739D01*
X145207453Y-114814127D01*
X145191908Y-114795184D01*
X145172967Y-114779637D01*
X145151357Y-114768084D01*
X145127909Y-114760970D01*
X145103523Y-114758566D01*
X145079136Y-114760966D01*
X145055687Y-114768078D01*
X145034075Y-114779627D01*
X145015126Y-114795178D01*
X144969231Y-114841073D01*
X144969228Y-114841075D01*
X144855348Y-114917167D01*
X144728811Y-114969580D01*
X144642990Y-114986651D01*
X144594482Y-114996300D01*
X144457518Y-114996300D01*
X144409010Y-114986651D01*
X144323189Y-114969580D01*
X144196652Y-114917167D01*
X144082772Y-114841075D01*
X144082769Y-114841073D01*
X143985927Y-114744231D01*
X143909834Y-114630349D01*
X143909833Y-114630348D01*
X143857420Y-114503811D01*
X143830700Y-114369481D01*
X143830700Y-114288500D01*
X146273112Y-114288500D01*
X146275514Y-114312886D01*
X146282627Y-114336335D01*
X146294175Y-114357939D01*
X146322130Y-114399777D01*
X146322131Y-114399780D01*
X146327067Y-114407167D01*
X146342612Y-114426109D01*
X146361554Y-114441654D01*
X146383165Y-114453205D01*
X146406614Y-114460318D01*
X146431000Y-114462720D01*
X146455387Y-114460318D01*
X146478836Y-114453205D01*
X146500447Y-114441653D01*
X146519389Y-114426108D01*
X146534933Y-114407167D01*
X146539869Y-114399780D01*
X146539870Y-114399777D01*
X146567825Y-114357939D01*
X146579373Y-114336336D01*
X146586486Y-114312887D01*
X146588888Y-114288500D01*
X146586486Y-114264114D01*
X146579373Y-114240665D01*
X146567822Y-114219054D01*
X146552277Y-114200112D01*
X146533335Y-114184567D01*
X146511724Y-114173015D01*
X146488275Y-114165902D01*
X146463888Y-114163500D01*
X146398112Y-114163500D01*
X146373726Y-114165902D01*
X146350277Y-114173015D01*
X146328666Y-114184566D01*
X146309724Y-114200112D01*
X146294178Y-114219054D01*
X146282627Y-114240665D01*
X146275514Y-114264114D01*
X146273112Y-114288500D01*
X143830700Y-114288500D01*
X143830700Y-114232519D01*
X143857420Y-114098189D01*
X143909833Y-113971652D01*
X143985925Y-113857772D01*
X143985927Y-113857769D01*
X144082769Y-113760927D01*
X144084303Y-113759902D01*
X144196652Y-113684833D01*
X144323189Y-113632420D01*
X144412742Y-113614607D01*
X144457518Y-113605700D01*
X144594482Y-113605700D01*
X144639258Y-113614607D01*
X144728811Y-113632420D01*
X144855348Y-113684833D01*
X144967697Y-113759902D01*
X144969231Y-113760927D01*
X145066073Y-113857769D01*
X145066075Y-113857772D01*
X145142167Y-113971652D01*
X145194580Y-114098189D01*
X145194580Y-114098190D01*
X145206132Y-114156263D01*
X145213245Y-114179712D01*
X145224797Y-114201323D01*
X145240342Y-114220265D01*
X145259284Y-114235810D01*
X145280895Y-114247361D01*
X145304345Y-114254474D01*
X145328731Y-114256876D01*
X145353117Y-114254474D01*
X145376566Y-114247361D01*
X145398177Y-114235809D01*
X145417112Y-114220269D01*
X145417538Y-114219843D01*
X145514777Y-114154870D01*
X145596537Y-114121004D01*
X145618134Y-114109460D01*
X145637076Y-114093915D01*
X145652621Y-114074973D01*
X145664173Y-114053362D01*
X145671286Y-114029913D01*
X145673688Y-114005527D01*
X145671286Y-113981140D01*
X145664173Y-113957691D01*
X145652622Y-113936080D01*
X145637077Y-113917138D01*
X145618139Y-113901596D01*
X145546520Y-113853742D01*
X145353258Y-113660480D01*
X145201413Y-113433228D01*
X145096820Y-113180719D01*
X145043500Y-112912657D01*
X145043500Y-112639343D01*
X145047348Y-112620000D01*
X145064775Y-112532386D01*
X145096820Y-112371281D01*
X145201413Y-112118772D01*
X145353258Y-111891520D01*
X145546520Y-111698258D01*
X145773772Y-111546413D01*
X146026281Y-111441820D01*
X146256197Y-111396088D01*
X146294342Y-111388500D01*
X146567658Y-111388500D01*
X146605803Y-111396088D01*
X146605803Y-111396088D01*
G37*
G36*
X139735759Y-118171504D02*
G01*
X139830913Y-118200369D01*
X139918606Y-118247241D01*
X139995474Y-118310326D01*
X140058559Y-118387194D01*
X140105431Y-118474887D01*
X140134296Y-118570041D01*
X140144042Y-118669000D01*
X140134296Y-118767959D01*
X140105431Y-118863113D01*
X140058559Y-118950806D01*
X139995474Y-119027674D01*
X139918606Y-119090759D01*
X139830913Y-119137631D01*
X139735759Y-119166496D01*
X139661597Y-119173800D01*
X138748403Y-119173800D01*
X138674241Y-119166496D01*
X138579087Y-119137631D01*
X138491394Y-119090759D01*
X138414526Y-119027674D01*
X138351441Y-118950806D01*
X138304569Y-118863113D01*
X138275704Y-118767959D01*
X138265958Y-118669000D01*
X138275704Y-118570041D01*
X138304569Y-118474887D01*
X138351441Y-118387194D01*
X138414526Y-118310326D01*
X138491394Y-118247241D01*
X138579087Y-118200369D01*
X138674241Y-118171504D01*
X138748403Y-118164200D01*
X139661597Y-118164200D01*
X139735759Y-118171504D01*
X139735759Y-118171504D01*
G37*
G36*
X134147759Y-118171504D02*
G01*
X134242913Y-118200369D01*
X134330606Y-118247241D01*
X134407474Y-118310326D01*
X134470559Y-118387194D01*
X134517431Y-118474887D01*
X134546296Y-118570041D01*
X134556042Y-118669000D01*
X134546296Y-118767959D01*
X134517431Y-118863113D01*
X134470559Y-118950806D01*
X134407474Y-119027674D01*
X134330606Y-119090759D01*
X134242913Y-119137631D01*
X134147759Y-119166496D01*
X134073597Y-119173800D01*
X133160403Y-119173800D01*
X133086241Y-119166496D01*
X132991087Y-119137631D01*
X132903394Y-119090759D01*
X132826526Y-119027674D01*
X132763441Y-118950806D01*
X132716569Y-118863113D01*
X132687704Y-118767959D01*
X132677958Y-118669000D01*
X132687704Y-118570041D01*
X132716569Y-118474887D01*
X132763441Y-118387194D01*
X132826526Y-118310326D01*
X132903394Y-118247241D01*
X132991087Y-118200369D01*
X133086241Y-118171504D01*
X133160403Y-118164200D01*
X134073597Y-118164200D01*
X134147759Y-118171504D01*
X134147759Y-118171504D01*
G37*
G36*
X173858707Y-116991596D02*
G01*
X173935836Y-116999193D01*
X174067787Y-117039220D01*
X174133763Y-117059233D01*
X174316172Y-117156733D01*
X174476054Y-117287946D01*
X174607267Y-117447828D01*
X174704767Y-117630237D01*
X174704767Y-117630238D01*
X174764807Y-117828164D01*
X174785080Y-118034000D01*
X174764807Y-118239836D01*
X174758472Y-118260719D01*
X174704767Y-118437763D01*
X174607267Y-118620172D01*
X174476054Y-118780054D01*
X174316172Y-118911267D01*
X174133763Y-119008767D01*
X174071434Y-119027674D01*
X173935836Y-119068807D01*
X173858707Y-119076404D01*
X173781580Y-119084000D01*
X173678420Y-119084000D01*
X173601293Y-119076404D01*
X173524164Y-119068807D01*
X173388566Y-119027674D01*
X173326237Y-119008767D01*
X173143828Y-118911267D01*
X172983946Y-118780054D01*
X172852733Y-118620172D01*
X172755233Y-118437763D01*
X172701528Y-118260719D01*
X172695193Y-118239836D01*
X172674920Y-118034000D01*
X172695193Y-117828164D01*
X172755233Y-117630238D01*
X172755233Y-117630237D01*
X172852733Y-117447828D01*
X172983946Y-117287946D01*
X173143828Y-117156733D01*
X173326237Y-117059233D01*
X173392213Y-117039220D01*
X173524164Y-116999193D01*
X173601293Y-116991596D01*
X173678420Y-116984000D01*
X173781580Y-116984000D01*
X173858707Y-116991596D01*
X173858707Y-116991596D01*
G37*
G36*
X126398707Y-116991596D02*
G01*
X126475836Y-116999193D01*
X126607787Y-117039220D01*
X126673763Y-117059233D01*
X126856172Y-117156733D01*
X127016054Y-117287946D01*
X127147267Y-117447828D01*
X127244767Y-117630237D01*
X127244767Y-117630238D01*
X127304807Y-117828164D01*
X127325080Y-118034000D01*
X127304807Y-118239836D01*
X127298472Y-118260719D01*
X127244767Y-118437763D01*
X127147267Y-118620172D01*
X127016054Y-118780054D01*
X126856172Y-118911267D01*
X126673763Y-119008767D01*
X126611434Y-119027674D01*
X126475836Y-119068807D01*
X126398707Y-119076404D01*
X126321580Y-119084000D01*
X126218420Y-119084000D01*
X126141293Y-119076404D01*
X126064164Y-119068807D01*
X125928566Y-119027674D01*
X125866237Y-119008767D01*
X125683828Y-118911267D01*
X125523946Y-118780054D01*
X125392733Y-118620172D01*
X125295233Y-118437763D01*
X125241528Y-118260719D01*
X125235193Y-118239836D01*
X125214920Y-118034000D01*
X125235193Y-117828164D01*
X125295233Y-117630238D01*
X125295233Y-117630237D01*
X125392733Y-117447828D01*
X125523946Y-117287946D01*
X125683828Y-117156733D01*
X125866237Y-117059233D01*
X125932213Y-117039220D01*
X126064164Y-116999193D01*
X126141293Y-116991596D01*
X126218420Y-116984000D01*
X126321580Y-116984000D01*
X126398707Y-116991596D01*
X126398707Y-116991596D01*
G37*
G36*
X167902000Y-118430000D02*
G01*
X166302000Y-118430000D01*
X166302000Y-117130000D01*
X167902000Y-117130000D01*
X167902000Y-118430000D01*
X167902000Y-118430000D01*
G37*
G36*
X165702000Y-118430000D02*
G01*
X164102000Y-118430000D01*
X164102000Y-117130000D01*
X165702000Y-117130000D01*
X165702000Y-118430000D01*
X165702000Y-118430000D01*
G37*
G36*
X135858000Y-117220000D02*
G01*
X133458000Y-117220000D01*
X133458000Y-116956000D01*
X133455598Y-116931614D01*
X133448485Y-116908165D01*
X133436934Y-116886554D01*
X133421388Y-116867612D01*
X133402446Y-116852066D01*
X133380835Y-116840515D01*
X133357386Y-116833402D01*
X133333000Y-116831000D01*
X131608000Y-116831000D01*
X131608000Y-115681000D01*
X133333000Y-115681000D01*
X133357386Y-115678598D01*
X133380835Y-115671485D01*
X133402446Y-115659934D01*
X133421388Y-115644388D01*
X133436934Y-115625446D01*
X133448485Y-115603835D01*
X133455598Y-115580386D01*
X133458000Y-115556000D01*
X133458000Y-115432000D01*
X133455598Y-115407614D01*
X133448485Y-115384165D01*
X133436934Y-115362554D01*
X133421388Y-115343612D01*
X133402446Y-115328066D01*
X133387355Y-115320000D01*
X135858000Y-115320000D01*
X135858000Y-117220000D01*
X135858000Y-117220000D01*
G37*
G36*
X162314000Y-116906000D02*
G01*
X160714000Y-116906000D01*
X160714000Y-115606000D01*
X162314000Y-115606000D01*
X162314000Y-116906000D01*
X162314000Y-116906000D01*
G37*
G36*
X160114000Y-116906000D02*
G01*
X158514000Y-116906000D01*
X158514000Y-115606000D01*
X160114000Y-115606000D01*
X160114000Y-116906000D01*
X160114000Y-116906000D01*
G37*
G36*
X167754500Y-116831000D02*
G01*
X166154500Y-116831000D01*
X166154500Y-115681000D01*
X167754500Y-115681000D01*
X167754500Y-116831000D01*
X167754500Y-116831000D01*
G37*
G36*
X165854500Y-116831000D02*
G01*
X164254500Y-116831000D01*
X164254500Y-115681000D01*
X165854500Y-115681000D01*
X165854500Y-116831000D01*
X165854500Y-116831000D01*
G37*
G36*
X131308000Y-116831000D02*
G01*
X129708000Y-116831000D01*
X129708000Y-115681000D01*
X131308000Y-115681000D01*
X131308000Y-116831000D01*
X131308000Y-116831000D01*
G37*
G36*
X126398707Y-114451596D02*
G01*
X126475836Y-114459193D01*
X126607787Y-114499220D01*
X126673763Y-114519233D01*
X126856172Y-114616733D01*
X127016054Y-114747946D01*
X127147267Y-114907828D01*
X127244767Y-115090237D01*
X127254491Y-115122294D01*
X127304807Y-115288164D01*
X127325080Y-115494000D01*
X127304807Y-115699836D01*
X127277175Y-115790927D01*
X127244767Y-115897763D01*
X127147267Y-116080172D01*
X127016054Y-116240054D01*
X126856172Y-116371267D01*
X126673763Y-116468767D01*
X126646193Y-116477130D01*
X126475836Y-116528807D01*
X126425039Y-116533810D01*
X126321580Y-116544000D01*
X126218420Y-116544000D01*
X126114961Y-116533810D01*
X126064164Y-116528807D01*
X125893807Y-116477130D01*
X125866237Y-116468767D01*
X125683828Y-116371267D01*
X125523946Y-116240054D01*
X125392733Y-116080172D01*
X125295233Y-115897763D01*
X125262825Y-115790927D01*
X125235193Y-115699836D01*
X125214920Y-115494000D01*
X125235193Y-115288164D01*
X125285509Y-115122294D01*
X125295233Y-115090237D01*
X125392733Y-114907828D01*
X125523946Y-114747946D01*
X125683828Y-114616733D01*
X125866237Y-114519233D01*
X125932213Y-114499220D01*
X126064164Y-114459193D01*
X126141293Y-114451596D01*
X126218420Y-114444000D01*
X126321580Y-114444000D01*
X126398707Y-114451596D01*
X126398707Y-114451596D01*
G37*
G36*
X173858707Y-114451596D02*
G01*
X173935836Y-114459193D01*
X174067787Y-114499220D01*
X174133763Y-114519233D01*
X174316172Y-114616733D01*
X174476054Y-114747946D01*
X174607267Y-114907828D01*
X174704767Y-115090237D01*
X174714491Y-115122294D01*
X174764807Y-115288164D01*
X174785080Y-115494000D01*
X174764807Y-115699836D01*
X174737175Y-115790927D01*
X174704767Y-115897763D01*
X174607267Y-116080172D01*
X174476054Y-116240054D01*
X174316172Y-116371267D01*
X174133763Y-116468767D01*
X174106193Y-116477130D01*
X173935836Y-116528807D01*
X173885039Y-116533810D01*
X173781580Y-116544000D01*
X173678420Y-116544000D01*
X173574961Y-116533810D01*
X173524164Y-116528807D01*
X173353807Y-116477130D01*
X173326237Y-116468767D01*
X173143828Y-116371267D01*
X172983946Y-116240054D01*
X172852733Y-116080172D01*
X172755233Y-115897763D01*
X172722825Y-115790927D01*
X172695193Y-115699836D01*
X172674920Y-115494000D01*
X172695193Y-115288164D01*
X172745509Y-115122294D01*
X172755233Y-115090237D01*
X172852733Y-114907828D01*
X172983946Y-114747946D01*
X173143828Y-114616733D01*
X173326237Y-114519233D01*
X173392213Y-114499220D01*
X173524164Y-114459193D01*
X173601293Y-114451596D01*
X173678420Y-114444000D01*
X173781580Y-114444000D01*
X173858707Y-114451596D01*
X173858707Y-114451596D01*
G37*
G36*
X142158000Y-116070000D02*
G01*
X139758000Y-116070000D01*
X139758000Y-111870000D01*
X142158000Y-111870000D01*
X142158000Y-116070000D01*
X142158000Y-116070000D01*
G37*
G36*
X131308000Y-115307000D02*
G01*
X129708000Y-115307000D01*
X129708000Y-114157000D01*
X131308000Y-114157000D01*
X131308000Y-115307000D01*
X131308000Y-115307000D01*
G37*
G36*
X133263554Y-112641066D02*
G01*
X133244612Y-112656612D01*
X133229066Y-112675554D01*
X133217515Y-112697165D01*
X133210402Y-112720614D01*
X133208000Y-112745000D01*
X133208000Y-112895000D01*
X133210402Y-112919386D01*
X133217515Y-112942835D01*
X133229066Y-112964446D01*
X133244612Y-112983388D01*
X133263554Y-112998934D01*
X133285165Y-113010485D01*
X133308614Y-113017598D01*
X133333000Y-113020000D01*
X135858000Y-113020000D01*
X135858000Y-114920000D01*
X133333000Y-114920000D01*
X133308614Y-114922402D01*
X133285165Y-114929515D01*
X133263554Y-114941066D01*
X133244612Y-114956612D01*
X133229066Y-114975554D01*
X133217515Y-114997165D01*
X133210402Y-115020614D01*
X133208000Y-115045000D01*
X133208000Y-115195000D01*
X133210402Y-115219386D01*
X133217515Y-115242835D01*
X133229066Y-115264446D01*
X133244612Y-115283388D01*
X133263554Y-115298934D01*
X133278645Y-115307000D01*
X131608000Y-115307000D01*
X131608000Y-114157000D01*
X133333000Y-114157000D01*
X133357386Y-114154598D01*
X133380835Y-114147485D01*
X133402446Y-114135934D01*
X133421388Y-114120388D01*
X133436934Y-114101446D01*
X133448485Y-114079835D01*
X133455598Y-114056386D01*
X133458000Y-114032000D01*
X133458000Y-113908000D01*
X133455598Y-113883614D01*
X133448485Y-113860165D01*
X133436934Y-113838554D01*
X133421388Y-113819612D01*
X133402446Y-113804066D01*
X133380835Y-113792515D01*
X133357386Y-113785402D01*
X133333000Y-113783000D01*
X131608000Y-113783000D01*
X131608000Y-112633000D01*
X133278645Y-112633000D01*
X133263554Y-112641066D01*
X133263554Y-112641066D01*
G37*
G36*
X168209000Y-115178000D02*
G01*
X161509000Y-115178000D01*
X161509000Y-113328000D01*
X168209000Y-113328000D01*
X168209000Y-115178000D01*
X168209000Y-115178000D01*
G37*
G36*
X152320803Y-111396088D02*
G01*
X152550719Y-111441820D01*
X152803228Y-111546413D01*
X153030480Y-111698258D01*
X153223742Y-111891520D01*
X153375587Y-112118772D01*
X153480180Y-112371281D01*
X153512225Y-112532386D01*
X153529653Y-112620000D01*
X153533500Y-112639343D01*
X153533500Y-112912657D01*
X153480180Y-113180719D01*
X153375587Y-113433228D01*
X153223742Y-113660480D01*
X153030480Y-113853742D01*
X152803228Y-114005587D01*
X152550719Y-114110180D01*
X152320803Y-114155912D01*
X152282658Y-114163500D01*
X152009342Y-114163500D01*
X151971197Y-114155912D01*
X151741281Y-114110180D01*
X151488772Y-114005587D01*
X151261520Y-113853742D01*
X151068258Y-113660480D01*
X150916413Y-113433228D01*
X150811820Y-113180719D01*
X150758500Y-112912657D01*
X150758500Y-112639343D01*
X150762348Y-112620000D01*
X150779775Y-112532386D01*
X150811820Y-112371281D01*
X150916413Y-112118772D01*
X151068258Y-111891520D01*
X151261520Y-111698258D01*
X151488772Y-111546413D01*
X151741281Y-111441820D01*
X151971197Y-111396088D01*
X152009342Y-111388500D01*
X152282658Y-111388500D01*
X152320803Y-111396088D01*
X152320803Y-111396088D01*
G37*
G36*
X126398707Y-111911596D02*
G01*
X126475836Y-111919193D01*
X126607787Y-111959220D01*
X126673763Y-111979233D01*
X126856172Y-112076733D01*
X127016054Y-112207946D01*
X127147267Y-112367828D01*
X127244767Y-112550237D01*
X127258766Y-112596388D01*
X127304807Y-112748164D01*
X127325080Y-112954000D01*
X127304807Y-113159836D01*
X127298472Y-113180719D01*
X127244767Y-113357763D01*
X127147267Y-113540172D01*
X127016054Y-113700054D01*
X126856172Y-113831267D01*
X126673763Y-113928767D01*
X126607787Y-113948780D01*
X126475836Y-113988807D01*
X126398707Y-113996403D01*
X126321580Y-114004000D01*
X126218420Y-114004000D01*
X126141293Y-113996403D01*
X126064164Y-113988807D01*
X125932213Y-113948780D01*
X125866237Y-113928767D01*
X125683828Y-113831267D01*
X125523946Y-113700054D01*
X125392733Y-113540172D01*
X125295233Y-113357763D01*
X125241528Y-113180719D01*
X125235193Y-113159836D01*
X125214920Y-112954000D01*
X125235193Y-112748164D01*
X125281234Y-112596388D01*
X125295233Y-112550237D01*
X125392733Y-112367828D01*
X125523946Y-112207946D01*
X125683828Y-112076733D01*
X125866237Y-111979233D01*
X125932213Y-111959220D01*
X126064164Y-111919193D01*
X126141293Y-111911596D01*
X126218420Y-111904000D01*
X126321580Y-111904000D01*
X126398707Y-111911596D01*
X126398707Y-111911596D01*
G37*
G36*
X173858707Y-111911596D02*
G01*
X173935836Y-111919193D01*
X174067787Y-111959220D01*
X174133763Y-111979233D01*
X174316172Y-112076733D01*
X174476054Y-112207946D01*
X174607267Y-112367828D01*
X174704767Y-112550237D01*
X174718766Y-112596388D01*
X174764807Y-112748164D01*
X174785080Y-112954000D01*
X174764807Y-113159836D01*
X174758472Y-113180719D01*
X174704767Y-113357763D01*
X174607267Y-113540172D01*
X174476054Y-113700054D01*
X174316172Y-113831267D01*
X174133763Y-113928767D01*
X174067787Y-113948780D01*
X173935836Y-113988807D01*
X173858707Y-113996403D01*
X173781580Y-114004000D01*
X173678420Y-114004000D01*
X173601293Y-113996403D01*
X173524164Y-113988807D01*
X173392213Y-113948780D01*
X173326237Y-113928767D01*
X173143828Y-113831267D01*
X172983946Y-113700054D01*
X172852733Y-113540172D01*
X172755233Y-113357763D01*
X172701528Y-113180719D01*
X172695193Y-113159836D01*
X172674920Y-112954000D01*
X172695193Y-112748164D01*
X172741234Y-112596388D01*
X172755233Y-112550237D01*
X172852733Y-112367828D01*
X172983946Y-112207946D01*
X173143828Y-112076733D01*
X173326237Y-111979233D01*
X173392213Y-111959220D01*
X173524164Y-111919193D01*
X173601293Y-111911596D01*
X173678420Y-111904000D01*
X173781580Y-111904000D01*
X173858707Y-111911596D01*
X173858707Y-111911596D01*
G37*
G36*
X131308000Y-113783000D02*
G01*
X129708000Y-113783000D01*
X129708000Y-112633000D01*
X131308000Y-112633000D01*
X131308000Y-113783000D01*
X131308000Y-113783000D01*
G37*
G36*
X135858000Y-112620000D02*
G01*
X133387355Y-112620000D01*
X133402446Y-112611934D01*
X133421388Y-112596388D01*
X133436934Y-112577446D01*
X133448485Y-112555835D01*
X133455598Y-112532386D01*
X133458000Y-112508000D01*
X133458000Y-112384000D01*
X133455598Y-112359614D01*
X133448485Y-112336165D01*
X133436934Y-112314554D01*
X133421388Y-112295612D01*
X133402446Y-112280066D01*
X133380835Y-112268515D01*
X133357386Y-112261402D01*
X133333000Y-112259000D01*
X131608000Y-112259000D01*
X131608000Y-111109000D01*
X133333000Y-111109000D01*
X133357386Y-111106598D01*
X133380835Y-111099485D01*
X133402446Y-111087934D01*
X133421388Y-111072388D01*
X133436934Y-111053446D01*
X133448485Y-111031835D01*
X133455598Y-111008386D01*
X133458000Y-110984000D01*
X133458000Y-110720000D01*
X135858000Y-110720000D01*
X135858000Y-112620000D01*
X135858000Y-112620000D01*
G37*
G36*
X131308000Y-112259000D02*
G01*
X129708000Y-112259000D01*
X129708000Y-111109000D01*
X131308000Y-111109000D01*
X131308000Y-112259000D01*
X131308000Y-112259000D01*
G37*
G36*
X173858707Y-109371597D02*
G01*
X173935836Y-109379193D01*
X174067787Y-109419220D01*
X174133763Y-109439233D01*
X174316172Y-109536733D01*
X174476054Y-109667946D01*
X174607267Y-109827828D01*
X174704767Y-110010237D01*
X174704767Y-110010238D01*
X174764807Y-110208164D01*
X174785080Y-110414000D01*
X174764807Y-110619836D01*
X174734423Y-110720000D01*
X174704767Y-110817763D01*
X174607267Y-111000172D01*
X174476054Y-111160054D01*
X174316172Y-111291267D01*
X174133763Y-111388767D01*
X174067787Y-111408780D01*
X173935836Y-111448807D01*
X173858707Y-111456404D01*
X173781580Y-111464000D01*
X173678420Y-111464000D01*
X173601293Y-111456404D01*
X173524164Y-111448807D01*
X173392213Y-111408780D01*
X173326237Y-111388767D01*
X173143828Y-111291267D01*
X172983946Y-111160054D01*
X172852733Y-111000172D01*
X172755233Y-110817763D01*
X172725577Y-110720000D01*
X172695193Y-110619836D01*
X172674920Y-110414000D01*
X172695193Y-110208164D01*
X172755233Y-110010238D01*
X172755233Y-110010237D01*
X172852733Y-109827828D01*
X172983946Y-109667946D01*
X173143828Y-109536733D01*
X173326237Y-109439233D01*
X173392213Y-109419220D01*
X173524164Y-109379193D01*
X173601293Y-109371597D01*
X173678420Y-109364000D01*
X173781580Y-109364000D01*
X173858707Y-109371597D01*
X173858707Y-109371597D01*
G37*
G36*
X126398707Y-109371597D02*
G01*
X126475836Y-109379193D01*
X126607787Y-109419220D01*
X126673763Y-109439233D01*
X126856172Y-109536733D01*
X127016054Y-109667946D01*
X127147267Y-109827828D01*
X127244767Y-110010237D01*
X127244767Y-110010238D01*
X127304807Y-110208164D01*
X127325080Y-110414000D01*
X127304807Y-110619836D01*
X127274423Y-110720000D01*
X127244767Y-110817763D01*
X127147267Y-111000172D01*
X127016054Y-111160054D01*
X126856172Y-111291267D01*
X126673763Y-111388767D01*
X126607787Y-111408780D01*
X126475836Y-111448807D01*
X126398707Y-111456404D01*
X126321580Y-111464000D01*
X126218420Y-111464000D01*
X126141293Y-111456404D01*
X126064164Y-111448807D01*
X125932213Y-111408780D01*
X125866237Y-111388767D01*
X125683828Y-111291267D01*
X125523946Y-111160054D01*
X125392733Y-111000172D01*
X125295233Y-110817763D01*
X125265577Y-110720000D01*
X125235193Y-110619836D01*
X125214920Y-110414000D01*
X125235193Y-110208164D01*
X125295233Y-110010238D01*
X125295233Y-110010237D01*
X125392733Y-109827828D01*
X125523946Y-109667946D01*
X125683828Y-109536733D01*
X125866237Y-109439233D01*
X125932213Y-109419220D01*
X126064164Y-109379193D01*
X126141293Y-109371597D01*
X126218420Y-109364000D01*
X126321580Y-109364000D01*
X126398707Y-109371597D01*
X126398707Y-109371597D01*
G37*
G36*
X165661200Y-107303000D02*
G01*
X165663602Y-107327386D01*
X165670715Y-107350835D01*
X165682266Y-107372446D01*
X165697812Y-107391388D01*
X165716754Y-107406934D01*
X165738365Y-107418485D01*
X165761814Y-107425598D01*
X165786200Y-107428000D01*
X165836200Y-107428000D01*
X165860586Y-107425598D01*
X165884035Y-107418485D01*
X165905646Y-107406934D01*
X165924588Y-107391388D01*
X165940134Y-107372446D01*
X165951685Y-107350835D01*
X165958798Y-107327386D01*
X165961200Y-107303000D01*
X165961200Y-106028800D01*
X167561200Y-106028800D01*
X167561200Y-107303000D01*
X167563602Y-107327386D01*
X167570715Y-107350835D01*
X167582266Y-107372446D01*
X167597812Y-107391388D01*
X167616754Y-107406934D01*
X167638365Y-107418485D01*
X167661814Y-107425598D01*
X167686200Y-107428000D01*
X168209000Y-107428000D01*
X168209000Y-109278000D01*
X161509000Y-109278000D01*
X161509000Y-107428000D01*
X163936200Y-107428000D01*
X163960586Y-107425598D01*
X163984035Y-107418485D01*
X164005646Y-107406934D01*
X164024588Y-107391388D01*
X164040134Y-107372446D01*
X164051685Y-107350835D01*
X164058798Y-107327386D01*
X164061200Y-107303000D01*
X164061200Y-106028800D01*
X165661200Y-106028800D01*
X165661200Y-107303000D01*
X165661200Y-107303000D01*
G37*
G36*
X126398707Y-106831596D02*
G01*
X126475836Y-106839193D01*
X126607787Y-106879220D01*
X126673763Y-106899233D01*
X126856172Y-106996733D01*
X127016054Y-107127946D01*
X127147267Y-107287828D01*
X127244767Y-107470237D01*
X127244767Y-107470238D01*
X127304807Y-107668164D01*
X127325080Y-107874000D01*
X127304807Y-108079836D01*
X127264780Y-108211787D01*
X127244767Y-108277763D01*
X127147267Y-108460172D01*
X127016054Y-108620054D01*
X126856172Y-108751267D01*
X126673763Y-108848767D01*
X126607787Y-108868780D01*
X126475836Y-108908807D01*
X126398707Y-108916404D01*
X126321580Y-108924000D01*
X126218420Y-108924000D01*
X126141293Y-108916404D01*
X126064164Y-108908807D01*
X125932213Y-108868780D01*
X125866237Y-108848767D01*
X125683828Y-108751267D01*
X125523946Y-108620054D01*
X125392733Y-108460172D01*
X125295233Y-108277763D01*
X125275220Y-108211787D01*
X125235193Y-108079836D01*
X125214920Y-107874000D01*
X125235193Y-107668164D01*
X125295233Y-107470238D01*
X125295233Y-107470237D01*
X125392733Y-107287828D01*
X125523946Y-107127946D01*
X125683828Y-106996733D01*
X125866237Y-106899233D01*
X125932213Y-106879220D01*
X126064164Y-106839193D01*
X126141293Y-106831596D01*
X126218420Y-106824000D01*
X126321580Y-106824000D01*
X126398707Y-106831596D01*
X126398707Y-106831596D01*
G37*
G36*
X173858707Y-106831596D02*
G01*
X173935836Y-106839193D01*
X174067787Y-106879220D01*
X174133763Y-106899233D01*
X174316172Y-106996733D01*
X174476054Y-107127946D01*
X174607267Y-107287828D01*
X174704767Y-107470237D01*
X174704767Y-107470238D01*
X174764807Y-107668164D01*
X174785080Y-107874000D01*
X174764807Y-108079836D01*
X174724780Y-108211787D01*
X174704767Y-108277763D01*
X174607267Y-108460172D01*
X174476054Y-108620054D01*
X174316172Y-108751267D01*
X174133763Y-108848767D01*
X174067787Y-108868780D01*
X173935836Y-108908807D01*
X173858707Y-108916404D01*
X173781580Y-108924000D01*
X173678420Y-108924000D01*
X173601293Y-108916404D01*
X173524164Y-108908807D01*
X173392213Y-108868780D01*
X173326237Y-108848767D01*
X173143828Y-108751267D01*
X172983946Y-108620054D01*
X172852733Y-108460172D01*
X172755233Y-108277763D01*
X172735220Y-108211787D01*
X172695193Y-108079836D01*
X172674920Y-107874000D01*
X172695193Y-107668164D01*
X172755233Y-107470238D01*
X172755233Y-107470237D01*
X172852733Y-107287828D01*
X172983946Y-107127946D01*
X173143828Y-106996733D01*
X173326237Y-106899233D01*
X173392213Y-106879220D01*
X173524164Y-106839193D01*
X173601293Y-106831596D01*
X173678420Y-106824000D01*
X173781580Y-106824000D01*
X173858707Y-106831596D01*
X173858707Y-106831596D01*
G37*
G36*
X133313012Y-107120588D02*
G01*
X133331954Y-107136134D01*
X133353565Y-107147685D01*
X133377014Y-107154798D01*
X133401400Y-107157200D01*
X134816400Y-107157200D01*
X134816400Y-108357200D01*
X133401400Y-108357200D01*
X133377014Y-108359602D01*
X133353565Y-108366715D01*
X133331954Y-108378266D01*
X133313012Y-108393812D01*
X133297466Y-108412754D01*
X133285915Y-108434365D01*
X133278802Y-108457814D01*
X133276400Y-108482200D01*
X133276400Y-108707200D01*
X131976400Y-108707200D01*
X131976400Y-107107200D01*
X133302024Y-107107200D01*
X133313012Y-107120588D01*
X133313012Y-107120588D01*
G37*
G36*
X136816400Y-107407200D02*
G01*
X135516400Y-107407200D01*
X135516400Y-106207200D01*
X136816400Y-106207200D01*
X136816400Y-107407200D01*
X136816400Y-107407200D01*
G37*
G36*
X133276400Y-105132200D02*
G01*
X133278802Y-105156586D01*
X133285915Y-105180035D01*
X133297466Y-105201646D01*
X133313012Y-105220588D01*
X133331954Y-105236134D01*
X133353565Y-105247685D01*
X133377014Y-105254798D01*
X133401400Y-105257200D01*
X134816400Y-105257200D01*
X134816400Y-106457200D01*
X133401400Y-106457200D01*
X133377014Y-106459602D01*
X133353565Y-106466715D01*
X133331954Y-106478266D01*
X133313012Y-106493812D01*
X133302024Y-106507200D01*
X131960917Y-106507200D01*
X131955334Y-106496754D01*
X131939788Y-106477812D01*
X131920846Y-106462266D01*
X131899235Y-106450715D01*
X131875786Y-106443602D01*
X131851400Y-106441200D01*
X130132400Y-106441200D01*
X130132400Y-105141200D01*
X131851400Y-105141200D01*
X131875786Y-105138798D01*
X131899235Y-105131685D01*
X131920846Y-105120134D01*
X131939788Y-105104588D01*
X131955334Y-105085646D01*
X131966885Y-105064035D01*
X131973998Y-105040586D01*
X131976400Y-105016200D01*
X131976400Y-104907200D01*
X133276400Y-104907200D01*
X133276400Y-105132200D01*
X133276400Y-105132200D01*
G37*
G36*
X129532400Y-106441200D02*
G01*
X127932400Y-106441200D01*
X127932400Y-105141200D01*
X129532400Y-105141200D01*
X129532400Y-106441200D01*
X129532400Y-106441200D01*
G37*
G36*
X173858707Y-104291596D02*
G01*
X173935836Y-104299193D01*
X174067787Y-104339220D01*
X174133763Y-104359233D01*
X174316172Y-104456733D01*
X174476054Y-104587946D01*
X174607267Y-104747828D01*
X174704767Y-104930237D01*
X174704767Y-104930238D01*
X174764807Y-105128164D01*
X174785080Y-105334000D01*
X174764807Y-105539836D01*
X174724780Y-105671787D01*
X174704767Y-105737763D01*
X174607267Y-105920172D01*
X174476054Y-106080054D01*
X174316172Y-106211267D01*
X174133763Y-106308767D01*
X174067787Y-106328780D01*
X173935836Y-106368807D01*
X173858707Y-106376404D01*
X173781580Y-106384000D01*
X173678420Y-106384000D01*
X173601293Y-106376404D01*
X173524164Y-106368807D01*
X173392213Y-106328780D01*
X173326237Y-106308767D01*
X173143828Y-106211267D01*
X172983946Y-106080054D01*
X172852733Y-105920172D01*
X172755233Y-105737763D01*
X172735220Y-105671787D01*
X172695193Y-105539836D01*
X172674920Y-105334000D01*
X172695193Y-105128164D01*
X172755233Y-104930238D01*
X172755233Y-104930237D01*
X172852733Y-104747828D01*
X172983946Y-104587946D01*
X173143828Y-104456733D01*
X173326237Y-104359233D01*
X173392213Y-104339220D01*
X173524164Y-104299193D01*
X173601293Y-104291596D01*
X173678420Y-104284000D01*
X173781580Y-104284000D01*
X173858707Y-104291596D01*
X173858707Y-104291596D01*
G37*
G36*
X126398707Y-104291596D02*
G01*
X126475836Y-104299193D01*
X126607787Y-104339220D01*
X126673763Y-104359233D01*
X126856172Y-104456733D01*
X127016054Y-104587946D01*
X127147267Y-104747828D01*
X127244767Y-104930237D01*
X127244767Y-104930238D01*
X127304807Y-105128164D01*
X127325080Y-105334000D01*
X127304807Y-105539836D01*
X127264780Y-105671787D01*
X127244767Y-105737763D01*
X127147267Y-105920172D01*
X127016054Y-106080054D01*
X126856172Y-106211267D01*
X126673763Y-106308767D01*
X126607787Y-106328780D01*
X126475836Y-106368807D01*
X126398707Y-106376404D01*
X126321580Y-106384000D01*
X126218420Y-106384000D01*
X126141293Y-106376404D01*
X126064164Y-106368807D01*
X125932213Y-106328780D01*
X125866237Y-106308767D01*
X125683828Y-106211267D01*
X125523946Y-106080054D01*
X125392733Y-105920172D01*
X125295233Y-105737763D01*
X125275220Y-105671787D01*
X125235193Y-105539836D01*
X125214920Y-105334000D01*
X125235193Y-105128164D01*
X125295233Y-104930238D01*
X125295233Y-104930237D01*
X125392733Y-104747828D01*
X125523946Y-104587946D01*
X125683828Y-104456733D01*
X125866237Y-104359233D01*
X125932213Y-104339220D01*
X126064164Y-104299193D01*
X126141293Y-104291596D01*
X126218420Y-104284000D01*
X126321580Y-104284000D01*
X126398707Y-104291596D01*
X126398707Y-104291596D01*
G37*
G36*
X129991743Y-96730660D02*
G01*
X130610503Y-96986958D01*
X131167377Y-97359050D01*
X131640950Y-97832623D01*
X132013042Y-98389497D01*
X132269340Y-99008257D01*
X132400000Y-99665128D01*
X132400000Y-100334872D01*
X132269340Y-100991743D01*
X132013042Y-101610503D01*
X131640950Y-102167377D01*
X131167377Y-102640950D01*
X130610503Y-103013042D01*
X129991743Y-103269340D01*
X129334872Y-103400000D01*
X128665128Y-103400000D01*
X128008257Y-103269340D01*
X127389497Y-103013042D01*
X126832623Y-102640950D01*
X126359050Y-102167377D01*
X125986958Y-101610503D01*
X125730660Y-100991743D01*
X125600000Y-100334872D01*
X125600000Y-99665128D01*
X125730660Y-99008257D01*
X125986958Y-98389497D01*
X126359050Y-97832623D01*
X126832623Y-97359050D01*
X127389497Y-96986958D01*
X128008257Y-96730660D01*
X128665128Y-96600000D01*
X129334872Y-96600000D01*
X129991743Y-96730660D01*
X129991743Y-96730660D01*
G37*
G36*
X171991743Y-96730660D02*
G01*
X172610503Y-96986958D01*
X173167377Y-97359050D01*
X173640950Y-97832623D01*
X174013042Y-98389497D01*
X174269340Y-99008257D01*
X174400000Y-99665128D01*
X174400000Y-100334872D01*
X174269340Y-100991743D01*
X174013042Y-101610503D01*
X173640950Y-102167377D01*
X173167377Y-102640950D01*
X172610503Y-103013042D01*
X171991743Y-103269340D01*
X171334872Y-103400000D01*
X170665128Y-103400000D01*
X170008257Y-103269340D01*
X169389497Y-103013042D01*
X168832623Y-102640950D01*
X168359050Y-102167377D01*
X167986958Y-101610503D01*
X167730660Y-100991743D01*
X167600000Y-100334872D01*
X167600000Y-99665128D01*
X167730660Y-99008257D01*
X167986958Y-98389497D01*
X168359050Y-97832623D01*
X168832623Y-97359050D01*
X169389497Y-96986958D01*
X170008257Y-96730660D01*
X170665128Y-96600000D01*
X171334872Y-96600000D01*
X171991743Y-96730660D01*
X171991743Y-96730660D01*
G37*
G36*
X148387165Y-97400485D02*
G01*
X148410614Y-97407598D01*
X148435000Y-97410000D01*
X151565000Y-97410000D01*
X151589386Y-97407598D01*
X151612835Y-97400485D01*
X151613742Y-97400000D01*
X153090000Y-97400000D01*
X153090000Y-102590000D01*
X146910000Y-102590000D01*
X146910000Y-97400000D01*
X148386258Y-97400000D01*
X148387165Y-97400485D01*
X148387165Y-97400485D01*
G37*
G36*
X139246000Y-98882000D02*
G01*
X134846000Y-98882000D01*
X134846000Y-96482000D01*
X139246000Y-96482000D01*
X139246000Y-98882000D01*
X139246000Y-98882000D01*
G37*
G36*
X164138000Y-98374000D02*
G01*
X159738000Y-98374000D01*
X159738000Y-95974000D01*
X164138000Y-95974000D01*
X164138000Y-98374000D01*
X164138000Y-98374000D01*
G37*
G36*
X128118000Y-95342000D02*
G01*
X125718000Y-95342000D01*
X125718000Y-90942000D01*
X128118000Y-90942000D01*
X128118000Y-95342000D01*
X128118000Y-95342000D01*
G37*
G36*
X132118000Y-95342000D02*
G01*
X129718000Y-95342000D01*
X129718000Y-90942000D01*
X132118000Y-90942000D01*
X132118000Y-95342000D01*
X132118000Y-95342000D01*
G37*
G36*
X139246000Y-94882000D02*
G01*
X134846000Y-94882000D01*
X134846000Y-92482000D01*
X139246000Y-92482000D01*
X139246000Y-94882000D01*
X139246000Y-94882000D01*
G37*
G36*
X168242000Y-82359000D02*
G01*
X168244402Y-82383386D01*
X168251515Y-82406835D01*
X168263066Y-82428446D01*
X168278612Y-82447388D01*
X168297554Y-82462934D01*
X168319165Y-82474485D01*
X168342614Y-82481598D01*
X168367000Y-82484000D01*
X168717000Y-82484000D01*
X168741386Y-82481598D01*
X168764835Y-82474485D01*
X168786446Y-82462934D01*
X168805388Y-82447388D01*
X168820934Y-82428446D01*
X168832485Y-82406835D01*
X168839598Y-82383386D01*
X168842000Y-82359000D01*
X168842000Y-80633000D01*
X170742000Y-80633000D01*
X170742000Y-82359000D01*
X170744402Y-82383386D01*
X170751515Y-82406835D01*
X170763066Y-82428446D01*
X170778612Y-82447388D01*
X170797554Y-82462934D01*
X170819165Y-82474485D01*
X170842614Y-82481598D01*
X170867000Y-82484000D01*
X171862000Y-82484000D01*
X171862000Y-85384000D01*
X170955934Y-85384000D01*
X170931548Y-85386402D01*
X170908099Y-85393515D01*
X170886488Y-85405066D01*
X170867546Y-85420612D01*
X170852000Y-85439554D01*
X170840449Y-85461165D01*
X170833336Y-85484614D01*
X170830934Y-85509000D01*
X170833336Y-85533386D01*
X170840449Y-85556835D01*
X170851925Y-85578333D01*
X170881808Y-85623157D01*
X170885262Y-85628338D01*
X170900788Y-85647297D01*
X170919714Y-85662862D01*
X170941313Y-85674435D01*
X170964755Y-85681573D01*
X170989268Y-85684000D01*
X171012000Y-85684000D01*
X171012000Y-85780598D01*
X171014402Y-85804984D01*
X171021515Y-85828433D01*
X171032994Y-85849936D01*
X171185703Y-86079000D01*
X171137000Y-86079000D01*
X171112614Y-86081402D01*
X171089165Y-86088515D01*
X171067554Y-86100066D01*
X171048612Y-86115612D01*
X171033066Y-86134554D01*
X171021515Y-86156165D01*
X171014402Y-86179614D01*
X171012000Y-86204000D01*
X171012000Y-86364000D01*
X171014402Y-86388386D01*
X171021515Y-86411835D01*
X171033066Y-86433446D01*
X171048612Y-86452388D01*
X171067554Y-86467934D01*
X171089165Y-86479485D01*
X171112614Y-86486598D01*
X171137000Y-86489000D01*
X171185703Y-86489000D01*
X171032994Y-86718064D01*
X171021465Y-86739687D01*
X171014376Y-86763144D01*
X171012000Y-86787402D01*
X171012000Y-86884000D01*
X170989268Y-86884000D01*
X170964882Y-86886402D01*
X170941433Y-86893515D01*
X170919822Y-86905066D01*
X170900880Y-86920612D01*
X170885262Y-86939662D01*
X170851926Y-86989667D01*
X170840400Y-87011284D01*
X170833311Y-87034741D01*
X170830934Y-87059130D01*
X170833361Y-87083513D01*
X170840499Y-87106955D01*
X170852072Y-87128554D01*
X170867637Y-87147480D01*
X170886596Y-87163006D01*
X170908218Y-87174534D01*
X170931675Y-87181623D01*
X170955934Y-87184000D01*
X171862000Y-87184000D01*
X171862000Y-90182000D01*
X171864402Y-90206386D01*
X171869000Y-90221544D01*
X171869000Y-94707000D01*
X169469000Y-94707000D01*
X169469000Y-90209000D01*
X169466598Y-90184614D01*
X169459485Y-90161165D01*
X169447934Y-90139554D01*
X169432388Y-90120612D01*
X169413446Y-90105066D01*
X169391835Y-90093515D01*
X169368386Y-90086402D01*
X169344000Y-90084000D01*
X167994000Y-90084000D01*
X167969614Y-90086402D01*
X167946165Y-90093515D01*
X167924554Y-90105066D01*
X167905612Y-90120612D01*
X167890066Y-90139554D01*
X167878515Y-90161165D01*
X167871402Y-90184614D01*
X167869000Y-90209000D01*
X167869000Y-94707000D01*
X165469000Y-94707000D01*
X165469000Y-90307000D01*
X167637000Y-90307000D01*
X167661386Y-90304598D01*
X167684835Y-90297485D01*
X167706446Y-90285934D01*
X167725388Y-90270388D01*
X167740934Y-90251446D01*
X167752485Y-90229835D01*
X167759598Y-90206386D01*
X167762000Y-90182000D01*
X167762000Y-87184000D01*
X168668066Y-87184000D01*
X168692452Y-87181598D01*
X168715901Y-87174485D01*
X168737512Y-87162934D01*
X168756454Y-87147388D01*
X168772000Y-87128446D01*
X168783551Y-87106835D01*
X168790664Y-87083386D01*
X168793066Y-87059000D01*
X168790664Y-87034614D01*
X168783551Y-87011165D01*
X168772075Y-86989667D01*
X168738738Y-86939662D01*
X168723212Y-86920703D01*
X168704286Y-86905138D01*
X168682687Y-86893565D01*
X168659245Y-86886427D01*
X168634732Y-86884000D01*
X168612000Y-86884000D01*
X168612000Y-86787402D01*
X168609598Y-86763016D01*
X168602485Y-86739567D01*
X168591006Y-86718064D01*
X168438297Y-86489000D01*
X168487000Y-86489000D01*
X168511386Y-86486598D01*
X168534835Y-86479485D01*
X168556446Y-86467934D01*
X168575388Y-86452388D01*
X168590934Y-86433446D01*
X168602485Y-86411835D01*
X168609598Y-86388386D01*
X168612000Y-86364000D01*
X168612000Y-86204000D01*
X168609598Y-86179614D01*
X168602485Y-86156165D01*
X168590934Y-86134554D01*
X168575388Y-86115612D01*
X168556446Y-86100066D01*
X168534835Y-86088515D01*
X168511386Y-86081402D01*
X168487000Y-86079000D01*
X168438297Y-86079000D01*
X168591006Y-85849936D01*
X168602535Y-85828313D01*
X168609624Y-85804856D01*
X168612000Y-85780598D01*
X168612000Y-85684000D01*
X168634732Y-85684000D01*
X168659118Y-85681598D01*
X168682567Y-85674485D01*
X168704178Y-85662934D01*
X168723120Y-85647388D01*
X168738738Y-85628338D01*
X168742192Y-85623157D01*
X168772074Y-85578333D01*
X168783600Y-85556716D01*
X168790689Y-85533259D01*
X168793066Y-85508870D01*
X168790639Y-85484487D01*
X168783501Y-85461045D01*
X168771928Y-85439446D01*
X168756363Y-85420520D01*
X168737404Y-85404994D01*
X168715782Y-85393466D01*
X168692325Y-85386377D01*
X168668066Y-85384000D01*
X167762000Y-85384000D01*
X167762000Y-82408000D01*
X167759598Y-82383614D01*
X167752485Y-82360165D01*
X167740934Y-82338554D01*
X167725388Y-82319612D01*
X167706446Y-82304066D01*
X167684835Y-82292515D01*
X167661386Y-82285402D01*
X167637000Y-82283000D01*
X166342000Y-82283000D01*
X166342000Y-80633000D01*
X168242000Y-80633000D01*
X168242000Y-82359000D01*
X168242000Y-82359000D01*
G37*
G36*
X164138000Y-94374000D02*
G01*
X159738000Y-94374000D01*
X159738000Y-91974000D01*
X164138000Y-91974000D01*
X164138000Y-94374000D01*
X164138000Y-94374000D01*
G37*
G36*
X146586000Y-90724000D02*
G01*
X145286000Y-90724000D01*
X145286000Y-89124000D01*
X146586000Y-89124000D01*
X146586000Y-90724000D01*
X146586000Y-90724000D01*
G37*
G36*
X174018000Y-90724000D02*
G01*
X172718000Y-90724000D01*
X172718000Y-89124000D01*
X174018000Y-89124000D01*
X174018000Y-90724000D01*
X174018000Y-90724000D01*
G37*
G36*
X162842000Y-90724000D02*
G01*
X161542000Y-90724000D01*
X161542000Y-89124000D01*
X162842000Y-89124000D01*
X162842000Y-90724000D01*
X162842000Y-90724000D01*
G37*
G36*
X135410000Y-90724000D02*
G01*
X134110000Y-90724000D01*
X134110000Y-89124000D01*
X135410000Y-89124000D01*
X135410000Y-90724000D01*
X135410000Y-90724000D01*
G37*
G36*
X140810000Y-82359000D02*
G01*
X140812402Y-82383386D01*
X140819515Y-82406835D01*
X140831066Y-82428446D01*
X140846612Y-82447388D01*
X140865554Y-82462934D01*
X140887165Y-82474485D01*
X140910614Y-82481598D01*
X140935000Y-82484000D01*
X141285000Y-82484000D01*
X141309386Y-82481598D01*
X141332835Y-82474485D01*
X141354446Y-82462934D01*
X141373388Y-82447388D01*
X141388934Y-82428446D01*
X141400485Y-82406835D01*
X141407598Y-82383386D01*
X141410000Y-82359000D01*
X141410000Y-80633000D01*
X143310000Y-80633000D01*
X143310000Y-82359000D01*
X143312402Y-82383386D01*
X143319515Y-82406835D01*
X143331066Y-82428446D01*
X143346612Y-82447388D01*
X143365554Y-82462934D01*
X143387165Y-82474485D01*
X143410614Y-82481598D01*
X143435000Y-82484000D01*
X144430000Y-82484000D01*
X144430000Y-85384000D01*
X143523934Y-85384000D01*
X143499548Y-85386402D01*
X143476099Y-85393515D01*
X143454488Y-85405066D01*
X143435546Y-85420612D01*
X143420000Y-85439554D01*
X143408449Y-85461165D01*
X143401336Y-85484614D01*
X143398934Y-85509000D01*
X143401336Y-85533386D01*
X143408449Y-85556835D01*
X143419925Y-85578333D01*
X143449808Y-85623157D01*
X143453262Y-85628338D01*
X143468788Y-85647297D01*
X143487714Y-85662862D01*
X143509313Y-85674435D01*
X143532755Y-85681573D01*
X143557268Y-85684000D01*
X143580000Y-85684000D01*
X143580000Y-85780598D01*
X143582402Y-85804984D01*
X143589515Y-85828433D01*
X143600994Y-85849936D01*
X143753703Y-86079000D01*
X143705000Y-86079000D01*
X143680614Y-86081402D01*
X143657165Y-86088515D01*
X143635554Y-86100066D01*
X143616612Y-86115612D01*
X143601066Y-86134554D01*
X143589515Y-86156165D01*
X143582402Y-86179614D01*
X143580000Y-86204000D01*
X143580000Y-86364000D01*
X143582402Y-86388386D01*
X143589515Y-86411835D01*
X143601066Y-86433446D01*
X143616612Y-86452388D01*
X143635554Y-86467934D01*
X143657165Y-86479485D01*
X143680614Y-86486598D01*
X143705000Y-86489000D01*
X143753703Y-86489000D01*
X143600994Y-86718064D01*
X143589465Y-86739687D01*
X143582376Y-86763144D01*
X143580000Y-86787402D01*
X143580000Y-86884000D01*
X143557268Y-86884000D01*
X143532882Y-86886402D01*
X143509433Y-86893515D01*
X143487822Y-86905066D01*
X143468880Y-86920612D01*
X143453262Y-86939662D01*
X143419926Y-86989667D01*
X143408400Y-87011284D01*
X143401311Y-87034741D01*
X143398934Y-87059130D01*
X143401361Y-87083513D01*
X143408499Y-87106955D01*
X143420072Y-87128554D01*
X143435637Y-87147480D01*
X143454596Y-87163006D01*
X143476218Y-87174534D01*
X143499675Y-87181623D01*
X143523934Y-87184000D01*
X144430000Y-87184000D01*
X144430000Y-90084000D01*
X140330000Y-90084000D01*
X140330000Y-87184000D01*
X141236066Y-87184000D01*
X141260452Y-87181598D01*
X141283901Y-87174485D01*
X141305512Y-87162934D01*
X141324454Y-87147388D01*
X141340000Y-87128446D01*
X141351551Y-87106835D01*
X141358664Y-87083386D01*
X141361066Y-87059000D01*
X141358664Y-87034614D01*
X141351551Y-87011165D01*
X141340075Y-86989667D01*
X141306738Y-86939662D01*
X141291212Y-86920703D01*
X141272286Y-86905138D01*
X141250687Y-86893565D01*
X141227245Y-86886427D01*
X141202732Y-86884000D01*
X141180000Y-86884000D01*
X141180000Y-86787402D01*
X141177598Y-86763016D01*
X141170485Y-86739567D01*
X141159006Y-86718064D01*
X141006297Y-86489000D01*
X141055000Y-86489000D01*
X141079386Y-86486598D01*
X141102835Y-86479485D01*
X141124446Y-86467934D01*
X141143388Y-86452388D01*
X141158934Y-86433446D01*
X141170485Y-86411835D01*
X141177598Y-86388386D01*
X141180000Y-86364000D01*
X141180000Y-86204000D01*
X141177598Y-86179614D01*
X141170485Y-86156165D01*
X141158934Y-86134554D01*
X141143388Y-86115612D01*
X141124446Y-86100066D01*
X141102835Y-86088515D01*
X141079386Y-86081402D01*
X141055000Y-86079000D01*
X141006297Y-86079000D01*
X141159006Y-85849936D01*
X141170535Y-85828313D01*
X141177624Y-85804856D01*
X141180000Y-85780598D01*
X141180000Y-85684000D01*
X141202732Y-85684000D01*
X141227118Y-85681598D01*
X141250567Y-85674485D01*
X141272178Y-85662934D01*
X141291120Y-85647388D01*
X141306738Y-85628338D01*
X141310192Y-85623157D01*
X141340074Y-85578333D01*
X141351600Y-85556716D01*
X141358689Y-85533259D01*
X141361066Y-85508870D01*
X141358639Y-85484487D01*
X141351501Y-85461045D01*
X141339928Y-85439446D01*
X141324363Y-85420520D01*
X141305404Y-85404994D01*
X141283782Y-85393466D01*
X141260325Y-85386377D01*
X141236066Y-85384000D01*
X140330000Y-85384000D01*
X140330000Y-82408000D01*
X140327598Y-82383614D01*
X140320485Y-82360165D01*
X140308934Y-82338554D01*
X140293388Y-82319612D01*
X140274446Y-82304066D01*
X140252835Y-82292515D01*
X140229386Y-82285402D01*
X140205000Y-82283000D01*
X138910000Y-82283000D01*
X138910000Y-80633000D01*
X140810000Y-80633000D01*
X140810000Y-82359000D01*
X140810000Y-82359000D01*
G37*
G36*
X157066000Y-82359000D02*
G01*
X157068402Y-82383386D01*
X157075515Y-82406835D01*
X157087066Y-82428446D01*
X157102612Y-82447388D01*
X157121554Y-82462934D01*
X157143165Y-82474485D01*
X157166614Y-82481598D01*
X157191000Y-82484000D01*
X157541000Y-82484000D01*
X157565386Y-82481598D01*
X157588835Y-82474485D01*
X157610446Y-82462934D01*
X157629388Y-82447388D01*
X157644934Y-82428446D01*
X157656485Y-82406835D01*
X157663598Y-82383386D01*
X157666000Y-82359000D01*
X157666000Y-80633000D01*
X159566000Y-80633000D01*
X159566000Y-82359000D01*
X159568402Y-82383386D01*
X159575515Y-82406835D01*
X159587066Y-82428446D01*
X159602612Y-82447388D01*
X159621554Y-82462934D01*
X159643165Y-82474485D01*
X159666614Y-82481598D01*
X159691000Y-82484000D01*
X160686000Y-82484000D01*
X160686000Y-85384000D01*
X159779934Y-85384000D01*
X159755548Y-85386402D01*
X159732099Y-85393515D01*
X159710488Y-85405066D01*
X159691546Y-85420612D01*
X159676000Y-85439554D01*
X159664449Y-85461165D01*
X159657336Y-85484614D01*
X159654934Y-85509000D01*
X159657336Y-85533386D01*
X159664449Y-85556835D01*
X159675925Y-85578333D01*
X159705808Y-85623157D01*
X159709262Y-85628338D01*
X159724788Y-85647297D01*
X159743714Y-85662862D01*
X159765313Y-85674435D01*
X159788755Y-85681573D01*
X159813268Y-85684000D01*
X159836000Y-85684000D01*
X159836000Y-85780598D01*
X159838402Y-85804984D01*
X159845515Y-85828433D01*
X159856994Y-85849936D01*
X160009703Y-86079000D01*
X159961000Y-86079000D01*
X159936614Y-86081402D01*
X159913165Y-86088515D01*
X159891554Y-86100066D01*
X159872612Y-86115612D01*
X159857066Y-86134554D01*
X159845515Y-86156165D01*
X159838402Y-86179614D01*
X159836000Y-86204000D01*
X159836000Y-86364000D01*
X159838402Y-86388386D01*
X159845515Y-86411835D01*
X159857066Y-86433446D01*
X159872612Y-86452388D01*
X159891554Y-86467934D01*
X159913165Y-86479485D01*
X159936614Y-86486598D01*
X159961000Y-86489000D01*
X160009703Y-86489000D01*
X159856994Y-86718064D01*
X159845465Y-86739687D01*
X159838376Y-86763144D01*
X159836000Y-86787402D01*
X159836000Y-86884000D01*
X159813268Y-86884000D01*
X159788882Y-86886402D01*
X159765433Y-86893515D01*
X159743822Y-86905066D01*
X159724880Y-86920612D01*
X159709262Y-86939662D01*
X159675926Y-86989667D01*
X159664400Y-87011284D01*
X159657311Y-87034741D01*
X159654934Y-87059130D01*
X159657361Y-87083513D01*
X159664499Y-87106955D01*
X159676072Y-87128554D01*
X159691637Y-87147480D01*
X159710596Y-87163006D01*
X159732218Y-87174534D01*
X159755675Y-87181623D01*
X159779934Y-87184000D01*
X160686000Y-87184000D01*
X160686000Y-90084000D01*
X156586000Y-90084000D01*
X156586000Y-87184000D01*
X157492066Y-87184000D01*
X157516452Y-87181598D01*
X157539901Y-87174485D01*
X157561512Y-87162934D01*
X157580454Y-87147388D01*
X157596000Y-87128446D01*
X157607551Y-87106835D01*
X157614664Y-87083386D01*
X157617066Y-87059000D01*
X157614664Y-87034614D01*
X157607551Y-87011165D01*
X157596075Y-86989667D01*
X157562738Y-86939662D01*
X157547212Y-86920703D01*
X157528286Y-86905138D01*
X157506687Y-86893565D01*
X157483245Y-86886427D01*
X157458732Y-86884000D01*
X157436000Y-86884000D01*
X157436000Y-86787402D01*
X157433598Y-86763016D01*
X157426485Y-86739567D01*
X157415006Y-86718064D01*
X157262297Y-86489000D01*
X157311000Y-86489000D01*
X157335386Y-86486598D01*
X157358835Y-86479485D01*
X157380446Y-86467934D01*
X157399388Y-86452388D01*
X157414934Y-86433446D01*
X157426485Y-86411835D01*
X157433598Y-86388386D01*
X157436000Y-86364000D01*
X157436000Y-86204000D01*
X157433598Y-86179614D01*
X157426485Y-86156165D01*
X157414934Y-86134554D01*
X157399388Y-86115612D01*
X157380446Y-86100066D01*
X157358835Y-86088515D01*
X157335386Y-86081402D01*
X157311000Y-86079000D01*
X157262297Y-86079000D01*
X157415006Y-85849936D01*
X157426535Y-85828313D01*
X157433624Y-85804856D01*
X157436000Y-85780598D01*
X157436000Y-85684000D01*
X157458732Y-85684000D01*
X157483118Y-85681598D01*
X157506567Y-85674485D01*
X157528178Y-85662934D01*
X157547120Y-85647388D01*
X157562738Y-85628338D01*
X157566192Y-85623157D01*
X157596074Y-85578333D01*
X157607600Y-85556716D01*
X157614689Y-85533259D01*
X157617066Y-85508870D01*
X157614639Y-85484487D01*
X157607501Y-85461045D01*
X157595928Y-85439446D01*
X157580363Y-85420520D01*
X157561404Y-85404994D01*
X157539782Y-85393466D01*
X157516325Y-85386377D01*
X157492066Y-85384000D01*
X156586000Y-85384000D01*
X156586000Y-82408000D01*
X156583598Y-82383614D01*
X156576485Y-82360165D01*
X156564934Y-82338554D01*
X156549388Y-82319612D01*
X156530446Y-82304066D01*
X156508835Y-82292515D01*
X156485386Y-82285402D01*
X156461000Y-82283000D01*
X155166000Y-82283000D01*
X155166000Y-80633000D01*
X157066000Y-80633000D01*
X157066000Y-82359000D01*
X157066000Y-82359000D01*
G37*
G36*
X129634000Y-82359000D02*
G01*
X129636402Y-82383386D01*
X129643515Y-82406835D01*
X129655066Y-82428446D01*
X129670612Y-82447388D01*
X129689554Y-82462934D01*
X129711165Y-82474485D01*
X129734614Y-82481598D01*
X129759000Y-82484000D01*
X130109000Y-82484000D01*
X130133386Y-82481598D01*
X130156835Y-82474485D01*
X130178446Y-82462934D01*
X130197388Y-82447388D01*
X130212934Y-82428446D01*
X130224485Y-82406835D01*
X130231598Y-82383386D01*
X130234000Y-82359000D01*
X130234000Y-80633000D01*
X132134000Y-80633000D01*
X132134000Y-82359000D01*
X132136402Y-82383386D01*
X132143515Y-82406835D01*
X132155066Y-82428446D01*
X132170612Y-82447388D01*
X132189554Y-82462934D01*
X132211165Y-82474485D01*
X132234614Y-82481598D01*
X132259000Y-82484000D01*
X133254000Y-82484000D01*
X133254000Y-85384000D01*
X132347934Y-85384000D01*
X132323548Y-85386402D01*
X132300099Y-85393515D01*
X132278488Y-85405066D01*
X132259546Y-85420612D01*
X132244000Y-85439554D01*
X132232449Y-85461165D01*
X132225336Y-85484614D01*
X132222934Y-85509000D01*
X132225336Y-85533386D01*
X132232449Y-85556835D01*
X132243925Y-85578333D01*
X132273808Y-85623157D01*
X132277262Y-85628338D01*
X132292788Y-85647297D01*
X132311714Y-85662862D01*
X132333313Y-85674435D01*
X132356755Y-85681573D01*
X132381268Y-85684000D01*
X132404000Y-85684000D01*
X132404000Y-85780598D01*
X132406402Y-85804984D01*
X132413515Y-85828433D01*
X132424994Y-85849936D01*
X132577703Y-86079000D01*
X132529000Y-86079000D01*
X132504614Y-86081402D01*
X132481165Y-86088515D01*
X132459554Y-86100066D01*
X132440612Y-86115612D01*
X132425066Y-86134554D01*
X132413515Y-86156165D01*
X132406402Y-86179614D01*
X132404000Y-86204000D01*
X132404000Y-86364000D01*
X132406402Y-86388386D01*
X132413515Y-86411835D01*
X132425066Y-86433446D01*
X132440612Y-86452388D01*
X132459554Y-86467934D01*
X132481165Y-86479485D01*
X132504614Y-86486598D01*
X132529000Y-86489000D01*
X132577703Y-86489000D01*
X132424994Y-86718064D01*
X132413465Y-86739687D01*
X132406376Y-86763144D01*
X132404000Y-86787402D01*
X132404000Y-86884000D01*
X132381268Y-86884000D01*
X132356882Y-86886402D01*
X132333433Y-86893515D01*
X132311822Y-86905066D01*
X132292880Y-86920612D01*
X132277262Y-86939662D01*
X132243926Y-86989667D01*
X132232400Y-87011284D01*
X132225311Y-87034741D01*
X132222934Y-87059130D01*
X132225361Y-87083513D01*
X132232499Y-87106955D01*
X132244072Y-87128554D01*
X132259637Y-87147480D01*
X132278596Y-87163006D01*
X132300218Y-87174534D01*
X132323675Y-87181623D01*
X132347934Y-87184000D01*
X133254000Y-87184000D01*
X133254000Y-90084000D01*
X129154000Y-90084000D01*
X129154000Y-87184000D01*
X130060066Y-87184000D01*
X130084452Y-87181598D01*
X130107901Y-87174485D01*
X130129512Y-87162934D01*
X130148454Y-87147388D01*
X130164000Y-87128446D01*
X130175551Y-87106835D01*
X130182664Y-87083386D01*
X130185066Y-87059000D01*
X130182664Y-87034614D01*
X130175551Y-87011165D01*
X130164075Y-86989667D01*
X130130738Y-86939662D01*
X130115212Y-86920703D01*
X130096286Y-86905138D01*
X130074687Y-86893565D01*
X130051245Y-86886427D01*
X130026732Y-86884000D01*
X130004000Y-86884000D01*
X130004000Y-86787402D01*
X130001598Y-86763016D01*
X129994485Y-86739567D01*
X129983006Y-86718064D01*
X129830297Y-86489000D01*
X129879000Y-86489000D01*
X129903386Y-86486598D01*
X129926835Y-86479485D01*
X129948446Y-86467934D01*
X129967388Y-86452388D01*
X129982934Y-86433446D01*
X129994485Y-86411835D01*
X130001598Y-86388386D01*
X130004000Y-86364000D01*
X130004000Y-86204000D01*
X130001598Y-86179614D01*
X129994485Y-86156165D01*
X129982934Y-86134554D01*
X129967388Y-86115612D01*
X129948446Y-86100066D01*
X129926835Y-86088515D01*
X129903386Y-86081402D01*
X129879000Y-86079000D01*
X129830297Y-86079000D01*
X129983006Y-85849936D01*
X129994535Y-85828313D01*
X130001624Y-85804856D01*
X130004000Y-85780598D01*
X130004000Y-85684000D01*
X130026732Y-85684000D01*
X130051118Y-85681598D01*
X130074567Y-85674485D01*
X130096178Y-85662934D01*
X130115120Y-85647388D01*
X130130738Y-85628338D01*
X130134192Y-85623157D01*
X130164074Y-85578333D01*
X130175600Y-85556716D01*
X130182689Y-85533259D01*
X130185066Y-85508870D01*
X130182639Y-85484487D01*
X130175501Y-85461045D01*
X130163928Y-85439446D01*
X130148363Y-85420520D01*
X130129404Y-85404994D01*
X130107782Y-85393466D01*
X130084325Y-85386377D01*
X130060066Y-85384000D01*
X129154000Y-85384000D01*
X129154000Y-82408000D01*
X129151598Y-82383614D01*
X129144485Y-82360165D01*
X129132934Y-82338554D01*
X129117388Y-82319612D01*
X129098446Y-82304066D01*
X129076835Y-82292515D01*
X129053386Y-82285402D01*
X129029000Y-82283000D01*
X127734000Y-82283000D01*
X127734000Y-80633000D01*
X129634000Y-80633000D01*
X129634000Y-82359000D01*
X129634000Y-82359000D01*
G37*
G36*
X139162000Y-89734000D02*
G01*
X136962000Y-89734000D01*
X136962000Y-86834000D01*
X139162000Y-86834000D01*
X139162000Y-89734000D01*
X139162000Y-89734000D01*
G37*
G36*
X166594000Y-89734000D02*
G01*
X164394000Y-89734000D01*
X164394000Y-86834000D01*
X166594000Y-86834000D01*
X166594000Y-89734000D01*
X166594000Y-89734000D01*
G37*
G36*
X127986000Y-89734000D02*
G01*
X125786000Y-89734000D01*
X125786000Y-86834000D01*
X127986000Y-86834000D01*
X127986000Y-89734000D01*
X127986000Y-89734000D01*
G37*
G36*
X155418000Y-89708600D02*
G01*
X153218000Y-89708600D01*
X153218000Y-86808600D01*
X155418000Y-86808600D01*
X155418000Y-89708600D01*
X155418000Y-89708600D01*
G37*
G36*
X135410000Y-88524000D02*
G01*
X134110000Y-88524000D01*
X134110000Y-86924000D01*
X135410000Y-86924000D01*
X135410000Y-88524000D01*
X135410000Y-88524000D01*
G37*
G36*
X146586000Y-88524000D02*
G01*
X145286000Y-88524000D01*
X145286000Y-86924000D01*
X146586000Y-86924000D01*
X146586000Y-88524000D01*
X146586000Y-88524000D01*
G37*
G36*
X162842000Y-88524000D02*
G01*
X161542000Y-88524000D01*
X161542000Y-86924000D01*
X162842000Y-86924000D01*
X162842000Y-88524000D01*
X162842000Y-88524000D01*
G37*
G36*
X174018000Y-88524000D02*
G01*
X172718000Y-88524000D01*
X172718000Y-86924000D01*
X174018000Y-86924000D01*
X174018000Y-88524000D01*
X174018000Y-88524000D01*
G37*
G36*
X147240000Y-86436000D02*
G01*
X145140000Y-86436000D01*
X145140000Y-84036000D01*
X147240000Y-84036000D01*
X147240000Y-86436000D01*
X147240000Y-86436000D01*
G37*
G36*
X174672000Y-86436000D02*
G01*
X172572000Y-86436000D01*
X172572000Y-84036000D01*
X174672000Y-84036000D01*
X174672000Y-86436000D01*
X174672000Y-86436000D01*
G37*
G36*
X163496000Y-86436000D02*
G01*
X161396000Y-86436000D01*
X161396000Y-84036000D01*
X163496000Y-84036000D01*
X163496000Y-86436000D01*
X163496000Y-86436000D01*
G37*
G36*
X136064000Y-86436000D02*
G01*
X133964000Y-86436000D01*
X133964000Y-84036000D01*
X136064000Y-84036000D01*
X136064000Y-86436000D01*
X136064000Y-86436000D01*
G37*
G36*
X127986000Y-85734000D02*
G01*
X125786000Y-85734000D01*
X125786000Y-82834000D01*
X127986000Y-82834000D01*
X127986000Y-85734000D01*
X127986000Y-85734000D01*
G37*
G36*
X139162000Y-85734000D02*
G01*
X136962000Y-85734000D01*
X136962000Y-82834000D01*
X139162000Y-82834000D01*
X139162000Y-85734000D01*
X139162000Y-85734000D01*
G37*
G36*
X166594000Y-85734000D02*
G01*
X164394000Y-85734000D01*
X164394000Y-82834000D01*
X166594000Y-82834000D01*
X166594000Y-85734000D01*
X166594000Y-85734000D01*
G37*
G36*
X155418000Y-85708600D02*
G01*
X153218000Y-85708600D01*
X153218000Y-82808600D01*
X155418000Y-82808600D01*
X155418000Y-85708600D01*
X155418000Y-85708600D01*
G37*
G36*
X151083418Y-81969444D02*
G01*
X151223281Y-81983219D01*
X151447596Y-82051265D01*
X151654327Y-82161764D01*
X151835528Y-82310472D01*
X151984236Y-82491673D01*
X152094735Y-82698404D01*
X152162781Y-82922719D01*
X152185757Y-83156000D01*
X152162781Y-83389281D01*
X152094735Y-83613596D01*
X151984236Y-83820327D01*
X151835528Y-84001528D01*
X151654327Y-84150236D01*
X151447596Y-84260735D01*
X151223281Y-84328781D01*
X151083418Y-84342556D01*
X151048453Y-84346000D01*
X148951547Y-84346000D01*
X148916582Y-84342556D01*
X148776719Y-84328781D01*
X148552404Y-84260735D01*
X148345673Y-84150236D01*
X148164472Y-84001528D01*
X148015764Y-83820327D01*
X147905265Y-83613596D01*
X147837219Y-83389281D01*
X147814243Y-83156000D01*
X147837219Y-82922719D01*
X147905265Y-82698404D01*
X148015764Y-82491673D01*
X148164472Y-82310472D01*
X148345673Y-82161764D01*
X148552404Y-82051265D01*
X148776719Y-81983219D01*
X148916582Y-81969444D01*
X148951547Y-81966000D01*
X151048453Y-81966000D01*
X151083418Y-81969444D01*
X151083418Y-81969444D01*
G37*
G36*
X174310000Y-79911000D02*
G01*
X174312402Y-79935386D01*
X174319515Y-79958835D01*
X174331066Y-79980446D01*
X174346612Y-79999388D01*
X174365554Y-80014934D01*
X174387165Y-80026485D01*
X174410614Y-80033598D01*
X174435000Y-80036000D01*
X174672000Y-80036000D01*
X174672000Y-82436000D01*
X172572000Y-82436000D01*
X172572000Y-79973000D01*
X172569598Y-79948614D01*
X172562485Y-79925165D01*
X172550934Y-79903554D01*
X172535388Y-79884612D01*
X172516446Y-79869066D01*
X172494835Y-79857515D01*
X172471386Y-79850402D01*
X172447000Y-79848000D01*
X171410000Y-79848000D01*
X171410000Y-78448000D01*
X174310000Y-78448000D01*
X174310000Y-79911000D01*
X174310000Y-79911000D01*
G37*
G36*
X146878000Y-79911000D02*
G01*
X146880402Y-79935386D01*
X146887515Y-79958835D01*
X146899066Y-79980446D01*
X146914612Y-79999388D01*
X146933554Y-80014934D01*
X146955165Y-80026485D01*
X146978614Y-80033598D01*
X147003000Y-80036000D01*
X147240000Y-80036000D01*
X147240000Y-82436000D01*
X145140000Y-82436000D01*
X145140000Y-79973000D01*
X145137598Y-79948614D01*
X145130485Y-79925165D01*
X145118934Y-79903554D01*
X145103388Y-79884612D01*
X145084446Y-79869066D01*
X145062835Y-79857515D01*
X145039386Y-79850402D01*
X145015000Y-79848000D01*
X143978000Y-79848000D01*
X143978000Y-78448000D01*
X146878000Y-78448000D01*
X146878000Y-79911000D01*
X146878000Y-79911000D01*
G37*
G36*
X137734000Y-79848000D02*
G01*
X136189000Y-79848000D01*
X136164614Y-79850402D01*
X136141165Y-79857515D01*
X136119554Y-79869066D01*
X136100612Y-79884612D01*
X136085066Y-79903554D01*
X136073515Y-79925165D01*
X136066402Y-79948614D01*
X136064000Y-79973000D01*
X136064000Y-82436000D01*
X133964000Y-82436000D01*
X133964000Y-80036000D01*
X134709000Y-80036000D01*
X134733386Y-80033598D01*
X134756835Y-80026485D01*
X134778446Y-80014934D01*
X134797388Y-79999388D01*
X134812934Y-79980446D01*
X134824485Y-79958835D01*
X134831598Y-79935386D01*
X134834000Y-79911000D01*
X134834000Y-78448000D01*
X137734000Y-78448000D01*
X137734000Y-79848000D01*
X137734000Y-79848000D01*
G37*
G36*
X165166000Y-79848000D02*
G01*
X163621000Y-79848000D01*
X163596614Y-79850402D01*
X163573165Y-79857515D01*
X163551554Y-79869066D01*
X163532612Y-79884612D01*
X163517066Y-79903554D01*
X163505515Y-79925165D01*
X163498402Y-79948614D01*
X163496000Y-79973000D01*
X163496000Y-82436000D01*
X161396000Y-82436000D01*
X161396000Y-80036000D01*
X162141000Y-80036000D01*
X162165386Y-80033598D01*
X162188835Y-80026485D01*
X162210446Y-80014934D01*
X162229388Y-79999388D01*
X162244934Y-79980446D01*
X162256485Y-79958835D01*
X162263598Y-79935386D01*
X162266000Y-79911000D01*
X162266000Y-78448000D01*
X165166000Y-78448000D01*
X165166000Y-79848000D01*
X165166000Y-79848000D01*
G37*
G36*
X169738000Y-79848000D02*
G01*
X166838000Y-79848000D01*
X166838000Y-78448000D01*
X169738000Y-78448000D01*
X169738000Y-79848000D01*
X169738000Y-79848000D01*
G37*
G36*
X156022000Y-79848000D02*
G01*
X153122000Y-79848000D01*
X153122000Y-78448000D01*
X156022000Y-78448000D01*
X156022000Y-79848000D01*
X156022000Y-79848000D01*
G37*
G36*
X160594000Y-79848000D02*
G01*
X157694000Y-79848000D01*
X157694000Y-78448000D01*
X160594000Y-78448000D01*
X160594000Y-79848000D01*
X160594000Y-79848000D01*
G37*
G36*
X142306000Y-79848000D02*
G01*
X139406000Y-79848000D01*
X139406000Y-78448000D01*
X142306000Y-78448000D01*
X142306000Y-79848000D01*
X142306000Y-79848000D01*
G37*
G36*
X133162000Y-79848000D02*
G01*
X130262000Y-79848000D01*
X130262000Y-78448000D01*
X133162000Y-78448000D01*
X133162000Y-79848000D01*
X133162000Y-79848000D01*
G37*
G36*
X128590000Y-79848000D02*
G01*
X125690000Y-79848000D01*
X125690000Y-78448000D01*
X128590000Y-78448000D01*
X128590000Y-79848000D01*
X128590000Y-79848000D01*
G37*
G36*
X152180000Y-79346000D02*
G01*
X147820000Y-79346000D01*
X147820000Y-76966000D01*
X152180000Y-76966000D01*
X152180000Y-79346000D01*
X152180000Y-79346000D01*
G37*
G36*
X165166000Y-76848000D02*
G01*
X162266000Y-76848000D01*
X162266000Y-75448000D01*
X165166000Y-75448000D01*
X165166000Y-76848000D01*
X165166000Y-76848000D01*
G37*
G36*
X160594000Y-76848000D02*
G01*
X157694000Y-76848000D01*
X157694000Y-75448000D01*
X160594000Y-75448000D01*
X160594000Y-76848000D01*
X160594000Y-76848000D01*
G37*
G36*
X156022000Y-76848000D02*
G01*
X153122000Y-76848000D01*
X153122000Y-75448000D01*
X156022000Y-75448000D01*
X156022000Y-76848000D01*
X156022000Y-76848000D01*
G37*
G36*
X146878000Y-76848000D02*
G01*
X143978000Y-76848000D01*
X143978000Y-75448000D01*
X146878000Y-75448000D01*
X146878000Y-76848000D01*
X146878000Y-76848000D01*
G37*
G36*
X142306000Y-76848000D02*
G01*
X139406000Y-76848000D01*
X139406000Y-75448000D01*
X142306000Y-75448000D01*
X142306000Y-76848000D01*
X142306000Y-76848000D01*
G37*
G36*
X137734000Y-76848000D02*
G01*
X134834000Y-76848000D01*
X134834000Y-75448000D01*
X137734000Y-75448000D01*
X137734000Y-76848000D01*
X137734000Y-76848000D01*
G37*
G36*
X133162000Y-76848000D02*
G01*
X130262000Y-76848000D01*
X130262000Y-75448000D01*
X133162000Y-75448000D01*
X133162000Y-76848000D01*
X133162000Y-76848000D01*
G37*
G36*
X128590000Y-76848000D02*
G01*
X125690000Y-76848000D01*
X125690000Y-75448000D01*
X128590000Y-75448000D01*
X128590000Y-76848000D01*
X128590000Y-76848000D01*
G37*
G36*
X174310000Y-76848000D02*
G01*
X171410000Y-76848000D01*
X171410000Y-75448000D01*
X174310000Y-75448000D01*
X174310000Y-76848000D01*
X174310000Y-76848000D01*
G37*
G36*
X169738000Y-76848000D02*
G01*
X166838000Y-76848000D01*
X166838000Y-75448000D01*
X169738000Y-75448000D01*
X169738000Y-76848000D01*
X169738000Y-76848000D01*
G37*
M02*
