G04 #@! TF.GenerationSoftware,KiCad,Pcbnew,(6.0.0-rc1-dev-1425-g4c184f07a)*
G04 #@! TF.CreationDate,2018-12-24T15:04:36+01:00
G04 #@! TF.ProjectId,led_pixel_stm32f030_cree,6c65645f-7069-4786-956c-5f73746d3332,1.1*
G04 #@! TF.SameCoordinates,Original*
G04 #@! TF.FileFunction,Legend,Top*
G04 #@! TF.FilePolarity,Positive*
%FSLAX46Y46*%
G04 Gerber Fmt 4.6, Leading zero omitted, Abs format (unit mm)*
G04 Created by KiCad (PCBNEW (6.0.0-rc1-dev-1425-g4c184f07a)) date 24.12.2018 15:04:36*
%MOMM*%
%LPD*%
G04 APERTURE LIST*
%ADD10C,0.150000*%
%ADD11C,0.120000*%
G04 APERTURE END LIST*
D10*
X131168000Y-91142000D02*
X131168000Y-95142000D01*
X126668000Y-91142000D02*
X131168000Y-91142000D01*
X126668000Y-95142000D02*
X126668000Y-91142000D01*
X131168000Y-95142000D02*
X126668000Y-95142000D01*
D11*
X135926400Y-108387200D02*
X134466400Y-108387200D01*
X135926400Y-105227200D02*
X133766400Y-105227200D01*
X135926400Y-105227200D02*
X135926400Y-106157200D01*
X135926400Y-108387200D02*
X135926400Y-107457200D01*
X130473000Y-121879000D02*
X131173000Y-121879000D01*
X131173000Y-123079000D02*
X130473000Y-123079000D01*
X165461200Y-106003800D02*
X166161200Y-106003800D01*
X166161200Y-107203800D02*
X165461200Y-107203800D01*
X166354500Y-116856000D02*
X165654500Y-116856000D01*
X165654500Y-115656000D02*
X166354500Y-115656000D01*
X156823000Y-119970000D02*
X156823000Y-120670000D01*
X155623000Y-120670000D02*
X155623000Y-119970000D01*
X170863000Y-120670000D02*
X170863000Y-119970000D01*
X172063000Y-119970000D02*
X172063000Y-120670000D01*
X131808000Y-115332000D02*
X131108000Y-115332000D01*
X131108000Y-114132000D02*
X131808000Y-114132000D01*
X131108000Y-115656000D02*
X131808000Y-115656000D01*
X131808000Y-116856000D02*
X131108000Y-116856000D01*
X131108000Y-112608000D02*
X131808000Y-112608000D01*
X131808000Y-113808000D02*
X131108000Y-113808000D01*
X131808000Y-112284000D02*
X131108000Y-112284000D01*
X131108000Y-111084000D02*
X131808000Y-111084000D01*
X168042000Y-82308000D02*
X169042000Y-82308000D01*
X169042000Y-80608000D02*
X168042000Y-80608000D01*
X140610000Y-82308000D02*
X141610000Y-82308000D01*
X141610000Y-80608000D02*
X140610000Y-80608000D01*
X157866000Y-80608000D02*
X156866000Y-80608000D01*
X156866000Y-82308000D02*
X157866000Y-82308000D01*
X129434000Y-82308000D02*
X130434000Y-82308000D01*
X130434000Y-80608000D02*
X129434000Y-80608000D01*
X167144000Y-82884000D02*
X163844000Y-82884000D01*
X163844000Y-82884000D02*
X163844000Y-88284000D01*
X167144000Y-82884000D02*
X167144000Y-88284000D01*
X139712000Y-82884000D02*
X139712000Y-88284000D01*
X136412000Y-82884000D02*
X136412000Y-88284000D01*
X139712000Y-82884000D02*
X136412000Y-82884000D01*
X155968000Y-82858600D02*
X155968000Y-88258600D01*
X152668000Y-82858600D02*
X152668000Y-88258600D01*
X155968000Y-82858600D02*
X152668000Y-82858600D01*
X128536000Y-82884000D02*
X125236000Y-82884000D01*
X125236000Y-82884000D02*
X125236000Y-88284000D01*
X128536000Y-82884000D02*
X128536000Y-88284000D01*
D10*
X170919000Y-94507000D02*
X166419000Y-94507000D01*
X166419000Y-94507000D02*
X166419000Y-90507000D01*
X166419000Y-90507000D02*
X170919000Y-90507000D01*
X170919000Y-90507000D02*
X170919000Y-94507000D01*
X139046000Y-97932000D02*
X135046000Y-97932000D01*
X139046000Y-93432000D02*
X139046000Y-97932000D01*
X135046000Y-93432000D02*
X139046000Y-93432000D01*
X135046000Y-97932000D02*
X135046000Y-93432000D01*
X159938000Y-97424000D02*
X159938000Y-92924000D01*
X159938000Y-92924000D02*
X163938000Y-92924000D01*
X163938000Y-92924000D02*
X163938000Y-97424000D01*
X163938000Y-97424000D02*
X159938000Y-97424000D01*
D11*
X160914000Y-116936000D02*
X159914000Y-116936000D01*
X159914000Y-115576000D02*
X160914000Y-115576000D01*
X143007000Y-120873000D02*
X142007000Y-120873000D01*
X142007000Y-119513000D02*
X143007000Y-119513000D01*
X129332400Y-105111200D02*
X130332400Y-105111200D01*
X130332400Y-106471200D02*
X129332400Y-106471200D01*
X131946400Y-107307200D02*
X131946400Y-106307200D01*
X133306400Y-106307200D02*
X133306400Y-107307200D01*
X142007000Y-121799000D02*
X143007000Y-121799000D01*
X143007000Y-123159000D02*
X142007000Y-123159000D01*
X130434000Y-120746000D02*
X129434000Y-120746000D01*
X129434000Y-119386000D02*
X130434000Y-119386000D01*
X146944000Y-123159000D02*
X145944000Y-123159000D01*
X145944000Y-121799000D02*
X146944000Y-121799000D01*
X130434000Y-119222000D02*
X129434000Y-119222000D01*
X129434000Y-117862000D02*
X130434000Y-117862000D01*
X174692000Y-82236000D02*
X174692000Y-84236000D01*
X172552000Y-84236000D02*
X172552000Y-82236000D01*
X145120000Y-84236000D02*
X145120000Y-82236000D01*
X147260000Y-82236000D02*
X147260000Y-84236000D01*
X161376000Y-84236000D02*
X161376000Y-82236000D01*
X163516000Y-82236000D02*
X163516000Y-84236000D01*
X136084000Y-82236000D02*
X136084000Y-84236000D01*
X133944000Y-84236000D02*
X133944000Y-82236000D01*
X172688000Y-89324000D02*
X172688000Y-88324000D01*
X174048000Y-88324000D02*
X174048000Y-89324000D01*
X145256000Y-89324000D02*
X145256000Y-88324000D01*
X146616000Y-88324000D02*
X146616000Y-89324000D01*
X162872000Y-88324000D02*
X162872000Y-89324000D01*
X161512000Y-89324000D02*
X161512000Y-88324000D01*
X135440000Y-88324000D02*
X135440000Y-89324000D01*
X134080000Y-89324000D02*
X134080000Y-88324000D01*
D10*
X161409000Y-115053000D02*
X161409000Y-109078000D01*
X168309000Y-113528000D02*
X168309000Y-109078000D01*
X138316000Y-118034000D02*
X134506000Y-118034000D01*
X138316000Y-123114000D02*
X134506000Y-123114000D01*
X138316000Y-123114000D02*
X138316000Y-118034000D01*
X134506000Y-123114000D02*
X134506000Y-118034000D01*
X137808000Y-123114000D02*
X137808000Y-118034000D01*
X137300000Y-122479000D02*
G75*
G03X137300000Y-122479000I-127000J0D01*
G01*
D11*
X133708000Y-110560000D02*
X139718000Y-110560000D01*
X135958000Y-117380000D02*
X139718000Y-117380000D01*
X139718000Y-110560000D02*
X139718000Y-111820000D01*
X139718000Y-117380000D02*
X139718000Y-116120000D01*
X172212000Y-84984000D02*
X172212000Y-87584000D01*
X167412000Y-88884000D02*
X167412000Y-84984000D01*
X144780000Y-84984000D02*
X144780000Y-87584000D01*
X139980000Y-88884000D02*
X139980000Y-84984000D01*
X161036000Y-84984000D02*
X161036000Y-87584000D01*
X156236000Y-88884000D02*
X156236000Y-84984000D01*
X133604000Y-84984000D02*
X133604000Y-87584000D01*
X128804000Y-88884000D02*
X128804000Y-84984000D01*
X157143000Y-123759000D02*
X169743000Y-123759000D01*
X157143000Y-118659000D02*
X157143000Y-123759000D01*
X169743000Y-118659000D02*
X157143000Y-118659000D01*
X166502000Y-118460000D02*
X165502000Y-118460000D01*
X165502000Y-117100000D02*
X166502000Y-117100000D01*
X125660000Y-76648000D02*
X125660000Y-78648000D01*
X128620000Y-78648000D02*
X128620000Y-76648000D01*
X133192000Y-78648000D02*
X133192000Y-76648000D01*
X130232000Y-76648000D02*
X130232000Y-78648000D01*
X137764000Y-78648000D02*
X137764000Y-76648000D01*
X134804000Y-76648000D02*
X134804000Y-78648000D01*
X142336000Y-78648000D02*
X142336000Y-76648000D01*
X139376000Y-76648000D02*
X139376000Y-78648000D01*
X146908000Y-78648000D02*
X146908000Y-76648000D01*
X143948000Y-76648000D02*
X143948000Y-78648000D01*
X153092000Y-76648000D02*
X153092000Y-78648000D01*
X156052000Y-78648000D02*
X156052000Y-76648000D01*
X157664000Y-76648000D02*
X157664000Y-78648000D01*
X160624000Y-78648000D02*
X160624000Y-76648000D01*
X162236000Y-76648000D02*
X162236000Y-78648000D01*
X165196000Y-78648000D02*
X165196000Y-76648000D01*
X166808000Y-76648000D02*
X166808000Y-78648000D01*
X169768000Y-78648000D02*
X169768000Y-76648000D01*
X174340000Y-78648000D02*
X174340000Y-76648000D01*
X171380000Y-76648000D02*
X171380000Y-78648000D01*
M02*
