G04 #@! TF.GenerationSoftware,KiCad,Pcbnew,(2017-05-12 revision b823d0b78)-makepkg*
G04 #@! TF.CreationDate,2017-05-13T14:29:27+02:00*
G04 #@! TF.ProjectId,led_pixel_stm32f030,6C65645F706978656C5F73746D333266,1.0*
G04 #@! TF.FileFunction,Legend,Top*
G04 #@! TF.FilePolarity,Positive*
%FSLAX46Y46*%
G04 Gerber Fmt 4.6, Leading zero omitted, Abs format (unit mm)*
G04 Created by KiCad (PCBNEW (2017-05-12 revision b823d0b78)-makepkg) date 05/13/17 14:29:27*
%MOMM*%
%LPD*%
G01*
G04 APERTURE LIST*
%ADD10C,0.100000*%
%ADD11C,0.150000*%
%ADD12C,0.120000*%
G04 APERTURE END LIST*
D10*
D11*
X131168000Y-91142000D02*
X131168000Y-95142000D01*
X126668000Y-91142000D02*
X131168000Y-91142000D01*
X126668000Y-95142000D02*
X126668000Y-91142000D01*
X131168000Y-95142000D02*
X126668000Y-95142000D01*
D12*
X135926400Y-108387200D02*
X134466400Y-108387200D01*
X135926400Y-105227200D02*
X133766400Y-105227200D01*
X135926400Y-105227200D02*
X135926400Y-106157200D01*
X135926400Y-108387200D02*
X135926400Y-107457200D01*
X130473000Y-121879000D02*
X131173000Y-121879000D01*
X131173000Y-123079000D02*
X130473000Y-123079000D01*
X165461200Y-106003800D02*
X166161200Y-106003800D01*
X166161200Y-107203800D02*
X165461200Y-107203800D01*
X166354500Y-116856000D02*
X165654500Y-116856000D01*
X165654500Y-115656000D02*
X166354500Y-115656000D01*
X156823000Y-119970000D02*
X156823000Y-120670000D01*
X155623000Y-120670000D02*
X155623000Y-119970000D01*
X170863000Y-120670000D02*
X170863000Y-119970000D01*
X172063000Y-119970000D02*
X172063000Y-120670000D01*
X131808000Y-115332000D02*
X131108000Y-115332000D01*
X131108000Y-114132000D02*
X131808000Y-114132000D01*
X131108000Y-115656000D02*
X131808000Y-115656000D01*
X131808000Y-116856000D02*
X131108000Y-116856000D01*
X131108000Y-112608000D02*
X131808000Y-112608000D01*
X131808000Y-113808000D02*
X131108000Y-113808000D01*
X131808000Y-112284000D02*
X131108000Y-112284000D01*
X131108000Y-111084000D02*
X131808000Y-111084000D01*
X168042000Y-82308000D02*
X169042000Y-82308000D01*
X169042000Y-80608000D02*
X168042000Y-80608000D01*
X140610000Y-82308000D02*
X141610000Y-82308000D01*
X141610000Y-80608000D02*
X140610000Y-80608000D01*
X157866000Y-80608000D02*
X156866000Y-80608000D01*
X156866000Y-82308000D02*
X157866000Y-82308000D01*
X129434000Y-82308000D02*
X130434000Y-82308000D01*
X130434000Y-80608000D02*
X129434000Y-80608000D01*
X167144000Y-82884000D02*
X163844000Y-82884000D01*
X163844000Y-82884000D02*
X163844000Y-88284000D01*
X167144000Y-82884000D02*
X167144000Y-88284000D01*
X139712000Y-82884000D02*
X139712000Y-88284000D01*
X136412000Y-82884000D02*
X136412000Y-88284000D01*
X139712000Y-82884000D02*
X136412000Y-82884000D01*
X155968000Y-82858600D02*
X155968000Y-88258600D01*
X152668000Y-82858600D02*
X152668000Y-88258600D01*
X155968000Y-82858600D02*
X152668000Y-82858600D01*
X128536000Y-82884000D02*
X125236000Y-82884000D01*
X125236000Y-82884000D02*
X125236000Y-88284000D01*
X128536000Y-82884000D02*
X128536000Y-88284000D01*
D11*
X154000000Y-100000000D02*
G75*
G03X154000000Y-100000000I-4000000J0D01*
G01*
X170919000Y-94507000D02*
X166419000Y-94507000D01*
X166419000Y-94507000D02*
X166419000Y-90507000D01*
X166419000Y-90507000D02*
X170919000Y-90507000D01*
X170919000Y-90507000D02*
X170919000Y-94507000D01*
X139046000Y-97932000D02*
X135046000Y-97932000D01*
X139046000Y-93432000D02*
X139046000Y-97932000D01*
X135046000Y-93432000D02*
X139046000Y-93432000D01*
X135046000Y-97932000D02*
X135046000Y-93432000D01*
X159938000Y-97424000D02*
X159938000Y-92924000D01*
X159938000Y-92924000D02*
X163938000Y-92924000D01*
X163938000Y-92924000D02*
X163938000Y-97424000D01*
X163938000Y-97424000D02*
X159938000Y-97424000D01*
D12*
X160914000Y-116936000D02*
X159914000Y-116936000D01*
X159914000Y-115576000D02*
X160914000Y-115576000D01*
X143007000Y-120873000D02*
X142007000Y-120873000D01*
X142007000Y-119513000D02*
X143007000Y-119513000D01*
X129332400Y-105111200D02*
X130332400Y-105111200D01*
X130332400Y-106471200D02*
X129332400Y-106471200D01*
X131946400Y-107307200D02*
X131946400Y-106307200D01*
X133306400Y-106307200D02*
X133306400Y-107307200D01*
X142007000Y-121799000D02*
X143007000Y-121799000D01*
X143007000Y-123159000D02*
X142007000Y-123159000D01*
X130434000Y-120746000D02*
X129434000Y-120746000D01*
X129434000Y-119386000D02*
X130434000Y-119386000D01*
X146944000Y-123159000D02*
X145944000Y-123159000D01*
X145944000Y-121799000D02*
X146944000Y-121799000D01*
X130434000Y-119222000D02*
X129434000Y-119222000D01*
X129434000Y-117862000D02*
X130434000Y-117862000D01*
X174692000Y-82236000D02*
X174692000Y-84236000D01*
X172552000Y-84236000D02*
X172552000Y-82236000D01*
X145120000Y-84236000D02*
X145120000Y-82236000D01*
X147260000Y-82236000D02*
X147260000Y-84236000D01*
X161376000Y-84236000D02*
X161376000Y-82236000D01*
X163516000Y-82236000D02*
X163516000Y-84236000D01*
X136084000Y-82236000D02*
X136084000Y-84236000D01*
X133944000Y-84236000D02*
X133944000Y-82236000D01*
X172688000Y-89324000D02*
X172688000Y-88324000D01*
X174048000Y-88324000D02*
X174048000Y-89324000D01*
X145256000Y-89324000D02*
X145256000Y-88324000D01*
X146616000Y-88324000D02*
X146616000Y-89324000D01*
X162872000Y-88324000D02*
X162872000Y-89324000D01*
X161512000Y-89324000D02*
X161512000Y-88324000D01*
X135440000Y-88324000D02*
X135440000Y-89324000D01*
X134080000Y-89324000D02*
X134080000Y-88324000D01*
D11*
X161409000Y-115053000D02*
X161409000Y-109078000D01*
X168309000Y-113528000D02*
X168309000Y-109078000D01*
X138316000Y-118034000D02*
X134506000Y-118034000D01*
X138316000Y-123114000D02*
X134506000Y-123114000D01*
X138316000Y-123114000D02*
X138316000Y-118034000D01*
X134506000Y-123114000D02*
X134506000Y-118034000D01*
X137808000Y-123114000D02*
X137808000Y-118034000D01*
X137300000Y-122479000D02*
G75*
G03X137300000Y-122479000I-127000J0D01*
G01*
D12*
X133708000Y-110560000D02*
X139718000Y-110560000D01*
X135958000Y-117380000D02*
X139718000Y-117380000D01*
X139718000Y-110560000D02*
X139718000Y-111820000D01*
X139718000Y-117380000D02*
X139718000Y-116120000D01*
X172212000Y-84984000D02*
X172212000Y-87584000D01*
X167412000Y-88884000D02*
X167412000Y-84984000D01*
X144780000Y-84984000D02*
X144780000Y-87584000D01*
X139980000Y-88884000D02*
X139980000Y-84984000D01*
X161036000Y-84984000D02*
X161036000Y-87584000D01*
X156236000Y-88884000D02*
X156236000Y-84984000D01*
X133604000Y-84984000D02*
X133604000Y-87584000D01*
X128804000Y-88884000D02*
X128804000Y-84984000D01*
X157143000Y-123759000D02*
X169743000Y-123759000D01*
X157143000Y-118659000D02*
X157143000Y-123759000D01*
X169743000Y-118659000D02*
X157143000Y-118659000D01*
X166502000Y-118460000D02*
X165502000Y-118460000D01*
X165502000Y-117100000D02*
X166502000Y-117100000D01*
X125660000Y-76648000D02*
X125660000Y-78648000D01*
X128620000Y-78648000D02*
X128620000Y-76648000D01*
X133192000Y-78648000D02*
X133192000Y-76648000D01*
X130232000Y-76648000D02*
X130232000Y-78648000D01*
X137764000Y-78648000D02*
X137764000Y-76648000D01*
X134804000Y-76648000D02*
X134804000Y-78648000D01*
X142336000Y-78648000D02*
X142336000Y-76648000D01*
X139376000Y-76648000D02*
X139376000Y-78648000D01*
X146908000Y-78648000D02*
X146908000Y-76648000D01*
X143948000Y-76648000D02*
X143948000Y-78648000D01*
X153092000Y-76648000D02*
X153092000Y-78648000D01*
X156052000Y-78648000D02*
X156052000Y-76648000D01*
X157664000Y-76648000D02*
X157664000Y-78648000D01*
X160624000Y-78648000D02*
X160624000Y-76648000D01*
X162236000Y-76648000D02*
X162236000Y-78648000D01*
X165196000Y-78648000D02*
X165196000Y-76648000D01*
X166808000Y-76648000D02*
X166808000Y-78648000D01*
X169768000Y-78648000D02*
X169768000Y-76648000D01*
X174340000Y-78648000D02*
X174340000Y-76648000D01*
X171380000Y-76648000D02*
X171380000Y-78648000D01*
D11*
X147896714Y-110898142D02*
X147849095Y-110945761D01*
X147706238Y-110993380D01*
X147611000Y-110993380D01*
X147468142Y-110945761D01*
X147372904Y-110850523D01*
X147325285Y-110755285D01*
X147277666Y-110564809D01*
X147277666Y-110421952D01*
X147325285Y-110231476D01*
X147372904Y-110136238D01*
X147468142Y-110041000D01*
X147611000Y-109993380D01*
X147706238Y-109993380D01*
X147849095Y-110041000D01*
X147896714Y-110088619D01*
X148515761Y-109993380D02*
X148706238Y-109993380D01*
X148801476Y-110041000D01*
X148896714Y-110136238D01*
X148944333Y-110326714D01*
X148944333Y-110660047D01*
X148896714Y-110850523D01*
X148801476Y-110945761D01*
X148706238Y-110993380D01*
X148515761Y-110993380D01*
X148420523Y-110945761D01*
X148325285Y-110850523D01*
X148277666Y-110660047D01*
X148277666Y-110326714D01*
X148325285Y-110136238D01*
X148420523Y-110041000D01*
X148515761Y-109993380D01*
X149372904Y-110993380D02*
X149372904Y-109993380D01*
X149944333Y-110993380D01*
X149944333Y-109993380D01*
X150944333Y-110993380D02*
X150372904Y-110993380D01*
X150658619Y-110993380D02*
X150658619Y-109993380D01*
X150563380Y-110136238D01*
X150468142Y-110231476D01*
X150372904Y-110279095D01*
X128751333Y-93594380D02*
X128275142Y-93594380D01*
X128275142Y-92594380D01*
X129513238Y-92927714D02*
X129513238Y-93594380D01*
X129275142Y-92546761D02*
X129037047Y-93261047D01*
X129656095Y-93261047D01*
X134664761Y-107278619D02*
X134569523Y-107231000D01*
X134474285Y-107135761D01*
X134331428Y-106992904D01*
X134236190Y-106945285D01*
X134140952Y-106945285D01*
X134188571Y-107183380D02*
X134093333Y-107135761D01*
X133998095Y-107040523D01*
X133950476Y-106850047D01*
X133950476Y-106516714D01*
X133998095Y-106326238D01*
X134093333Y-106231000D01*
X134188571Y-106183380D01*
X134379047Y-106183380D01*
X134474285Y-106231000D01*
X134569523Y-106326238D01*
X134617142Y-106516714D01*
X134617142Y-106850047D01*
X134569523Y-107040523D01*
X134474285Y-107135761D01*
X134379047Y-107183380D01*
X134188571Y-107183380D01*
X135569523Y-107183380D02*
X134998095Y-107183380D01*
X135283809Y-107183380D02*
X135283809Y-106183380D01*
X135188571Y-106326238D01*
X135093333Y-106421476D01*
X134998095Y-106469095D01*
X131799333Y-122836142D02*
X131751714Y-122883761D01*
X131608857Y-122931380D01*
X131513619Y-122931380D01*
X131370761Y-122883761D01*
X131275523Y-122788523D01*
X131227904Y-122693285D01*
X131180285Y-122502809D01*
X131180285Y-122359952D01*
X131227904Y-122169476D01*
X131275523Y-122074238D01*
X131370761Y-121979000D01*
X131513619Y-121931380D01*
X131608857Y-121931380D01*
X131751714Y-121979000D01*
X131799333Y-122026619D01*
X132704095Y-121931380D02*
X132227904Y-121931380D01*
X132180285Y-122407571D01*
X132227904Y-122359952D01*
X132323142Y-122312333D01*
X132561238Y-122312333D01*
X132656476Y-122359952D01*
X132704095Y-122407571D01*
X132751714Y-122502809D01*
X132751714Y-122740904D01*
X132704095Y-122836142D01*
X132656476Y-122883761D01*
X132561238Y-122931380D01*
X132323142Y-122931380D01*
X132227904Y-122883761D01*
X132180285Y-122836142D01*
X166851333Y-106961142D02*
X166803714Y-107008761D01*
X166660857Y-107056380D01*
X166565619Y-107056380D01*
X166422761Y-107008761D01*
X166327523Y-106913523D01*
X166279904Y-106818285D01*
X166232285Y-106627809D01*
X166232285Y-106484952D01*
X166279904Y-106294476D01*
X166327523Y-106199238D01*
X166422761Y-106104000D01*
X166565619Y-106056380D01*
X166660857Y-106056380D01*
X166803714Y-106104000D01*
X166851333Y-106151619D01*
X167803714Y-107056380D02*
X167232285Y-107056380D01*
X167518000Y-107056380D02*
X167518000Y-106056380D01*
X167422761Y-106199238D01*
X167327523Y-106294476D01*
X167232285Y-106342095D01*
X167105333Y-116613142D02*
X167057714Y-116660761D01*
X166914857Y-116708380D01*
X166819619Y-116708380D01*
X166676761Y-116660761D01*
X166581523Y-116565523D01*
X166533904Y-116470285D01*
X166486285Y-116279809D01*
X166486285Y-116136952D01*
X166533904Y-115946476D01*
X166581523Y-115851238D01*
X166676761Y-115756000D01*
X166819619Y-115708380D01*
X166914857Y-115708380D01*
X167057714Y-115756000D01*
X167105333Y-115803619D01*
X167486285Y-115803619D02*
X167533904Y-115756000D01*
X167629142Y-115708380D01*
X167867238Y-115708380D01*
X167962476Y-115756000D01*
X168010095Y-115803619D01*
X168057714Y-115898857D01*
X168057714Y-115994095D01*
X168010095Y-116136952D01*
X167438666Y-116708380D01*
X168057714Y-116708380D01*
X156580142Y-119089666D02*
X156627761Y-119137285D01*
X156675380Y-119280142D01*
X156675380Y-119375380D01*
X156627761Y-119518238D01*
X156532523Y-119613476D01*
X156437285Y-119661095D01*
X156246809Y-119708714D01*
X156103952Y-119708714D01*
X155913476Y-119661095D01*
X155818238Y-119613476D01*
X155723000Y-119518238D01*
X155675380Y-119375380D01*
X155675380Y-119280142D01*
X155723000Y-119137285D01*
X155770619Y-119089666D01*
X155675380Y-118756333D02*
X155675380Y-118137285D01*
X156056333Y-118470619D01*
X156056333Y-118327761D01*
X156103952Y-118232523D01*
X156151571Y-118184904D01*
X156246809Y-118137285D01*
X156484904Y-118137285D01*
X156580142Y-118184904D01*
X156627761Y-118232523D01*
X156675380Y-118327761D01*
X156675380Y-118613476D01*
X156627761Y-118708714D01*
X156580142Y-118756333D01*
X171820142Y-119343666D02*
X171867761Y-119391285D01*
X171915380Y-119534142D01*
X171915380Y-119629380D01*
X171867761Y-119772238D01*
X171772523Y-119867476D01*
X171677285Y-119915095D01*
X171486809Y-119962714D01*
X171343952Y-119962714D01*
X171153476Y-119915095D01*
X171058238Y-119867476D01*
X170963000Y-119772238D01*
X170915380Y-119629380D01*
X170915380Y-119534142D01*
X170963000Y-119391285D01*
X171010619Y-119343666D01*
X171248714Y-118486523D02*
X171915380Y-118486523D01*
X170867761Y-118724619D02*
X171582047Y-118962714D01*
X171582047Y-118343666D01*
X129894333Y-115089142D02*
X129846714Y-115136761D01*
X129703857Y-115184380D01*
X129608619Y-115184380D01*
X129465761Y-115136761D01*
X129370523Y-115041523D01*
X129322904Y-114946285D01*
X129275285Y-114755809D01*
X129275285Y-114612952D01*
X129322904Y-114422476D01*
X129370523Y-114327238D01*
X129465761Y-114232000D01*
X129608619Y-114184380D01*
X129703857Y-114184380D01*
X129846714Y-114232000D01*
X129894333Y-114279619D01*
X130751476Y-114184380D02*
X130561000Y-114184380D01*
X130465761Y-114232000D01*
X130418142Y-114279619D01*
X130322904Y-114422476D01*
X130275285Y-114612952D01*
X130275285Y-114993904D01*
X130322904Y-115089142D01*
X130370523Y-115136761D01*
X130465761Y-115184380D01*
X130656238Y-115184380D01*
X130751476Y-115136761D01*
X130799095Y-115089142D01*
X130846714Y-114993904D01*
X130846714Y-114755809D01*
X130799095Y-114660571D01*
X130751476Y-114612952D01*
X130656238Y-114565333D01*
X130465761Y-114565333D01*
X130370523Y-114612952D01*
X130322904Y-114660571D01*
X130275285Y-114755809D01*
X129894333Y-116613142D02*
X129846714Y-116660761D01*
X129703857Y-116708380D01*
X129608619Y-116708380D01*
X129465761Y-116660761D01*
X129370523Y-116565523D01*
X129322904Y-116470285D01*
X129275285Y-116279809D01*
X129275285Y-116136952D01*
X129322904Y-115946476D01*
X129370523Y-115851238D01*
X129465761Y-115756000D01*
X129608619Y-115708380D01*
X129703857Y-115708380D01*
X129846714Y-115756000D01*
X129894333Y-115803619D01*
X130227666Y-115708380D02*
X130894333Y-115708380D01*
X130465761Y-116708380D01*
X129894333Y-113565142D02*
X129846714Y-113612761D01*
X129703857Y-113660380D01*
X129608619Y-113660380D01*
X129465761Y-113612761D01*
X129370523Y-113517523D01*
X129322904Y-113422285D01*
X129275285Y-113231809D01*
X129275285Y-113088952D01*
X129322904Y-112898476D01*
X129370523Y-112803238D01*
X129465761Y-112708000D01*
X129608619Y-112660380D01*
X129703857Y-112660380D01*
X129846714Y-112708000D01*
X129894333Y-112755619D01*
X130465761Y-113088952D02*
X130370523Y-113041333D01*
X130322904Y-112993714D01*
X130275285Y-112898476D01*
X130275285Y-112850857D01*
X130322904Y-112755619D01*
X130370523Y-112708000D01*
X130465761Y-112660380D01*
X130656238Y-112660380D01*
X130751476Y-112708000D01*
X130799095Y-112755619D01*
X130846714Y-112850857D01*
X130846714Y-112898476D01*
X130799095Y-112993714D01*
X130751476Y-113041333D01*
X130656238Y-113088952D01*
X130465761Y-113088952D01*
X130370523Y-113136571D01*
X130322904Y-113184190D01*
X130275285Y-113279428D01*
X130275285Y-113469904D01*
X130322904Y-113565142D01*
X130370523Y-113612761D01*
X130465761Y-113660380D01*
X130656238Y-113660380D01*
X130751476Y-113612761D01*
X130799095Y-113565142D01*
X130846714Y-113469904D01*
X130846714Y-113279428D01*
X130799095Y-113184190D01*
X130751476Y-113136571D01*
X130656238Y-113088952D01*
X129894333Y-112041142D02*
X129846714Y-112088761D01*
X129703857Y-112136380D01*
X129608619Y-112136380D01*
X129465761Y-112088761D01*
X129370523Y-111993523D01*
X129322904Y-111898285D01*
X129275285Y-111707809D01*
X129275285Y-111564952D01*
X129322904Y-111374476D01*
X129370523Y-111279238D01*
X129465761Y-111184000D01*
X129608619Y-111136380D01*
X129703857Y-111136380D01*
X129846714Y-111184000D01*
X129894333Y-111231619D01*
X130370523Y-112136380D02*
X130561000Y-112136380D01*
X130656238Y-112088761D01*
X130703857Y-112041142D01*
X130799095Y-111898285D01*
X130846714Y-111707809D01*
X130846714Y-111326857D01*
X130799095Y-111231619D01*
X130751476Y-111184000D01*
X130656238Y-111136380D01*
X130465761Y-111136380D01*
X130370523Y-111184000D01*
X130322904Y-111231619D01*
X130275285Y-111326857D01*
X130275285Y-111564952D01*
X130322904Y-111660190D01*
X130370523Y-111707809D01*
X130465761Y-111755428D01*
X130656238Y-111755428D01*
X130751476Y-111707809D01*
X130799095Y-111660190D01*
X130846714Y-111564952D01*
X167772142Y-81815142D02*
X167724523Y-81862761D01*
X167581666Y-81910380D01*
X167486428Y-81910380D01*
X167343571Y-81862761D01*
X167248333Y-81767523D01*
X167200714Y-81672285D01*
X167153095Y-81481809D01*
X167153095Y-81338952D01*
X167200714Y-81148476D01*
X167248333Y-81053238D01*
X167343571Y-80958000D01*
X167486428Y-80910380D01*
X167581666Y-80910380D01*
X167724523Y-80958000D01*
X167772142Y-81005619D01*
X168724523Y-81910380D02*
X168153095Y-81910380D01*
X168438809Y-81910380D02*
X168438809Y-80910380D01*
X168343571Y-81053238D01*
X168248333Y-81148476D01*
X168153095Y-81196095D01*
X169343571Y-80910380D02*
X169438809Y-80910380D01*
X169534047Y-80958000D01*
X169581666Y-81005619D01*
X169629285Y-81100857D01*
X169676904Y-81291333D01*
X169676904Y-81529428D01*
X169629285Y-81719904D01*
X169581666Y-81815142D01*
X169534047Y-81862761D01*
X169438809Y-81910380D01*
X169343571Y-81910380D01*
X169248333Y-81862761D01*
X169200714Y-81815142D01*
X169153095Y-81719904D01*
X169105476Y-81529428D01*
X169105476Y-81291333D01*
X169153095Y-81100857D01*
X169200714Y-81005619D01*
X169248333Y-80958000D01*
X169343571Y-80910380D01*
X140467142Y-81815142D02*
X140419523Y-81862761D01*
X140276666Y-81910380D01*
X140181428Y-81910380D01*
X140038571Y-81862761D01*
X139943333Y-81767523D01*
X139895714Y-81672285D01*
X139848095Y-81481809D01*
X139848095Y-81338952D01*
X139895714Y-81148476D01*
X139943333Y-81053238D01*
X140038571Y-80958000D01*
X140181428Y-80910380D01*
X140276666Y-80910380D01*
X140419523Y-80958000D01*
X140467142Y-81005619D01*
X141419523Y-81910380D02*
X140848095Y-81910380D01*
X141133809Y-81910380D02*
X141133809Y-80910380D01*
X141038571Y-81053238D01*
X140943333Y-81148476D01*
X140848095Y-81196095D01*
X142371904Y-81910380D02*
X141800476Y-81910380D01*
X142086190Y-81910380D02*
X142086190Y-80910380D01*
X141990952Y-81053238D01*
X141895714Y-81148476D01*
X141800476Y-81196095D01*
X156723142Y-81815142D02*
X156675523Y-81862761D01*
X156532666Y-81910380D01*
X156437428Y-81910380D01*
X156294571Y-81862761D01*
X156199333Y-81767523D01*
X156151714Y-81672285D01*
X156104095Y-81481809D01*
X156104095Y-81338952D01*
X156151714Y-81148476D01*
X156199333Y-81053238D01*
X156294571Y-80958000D01*
X156437428Y-80910380D01*
X156532666Y-80910380D01*
X156675523Y-80958000D01*
X156723142Y-81005619D01*
X157675523Y-81910380D02*
X157104095Y-81910380D01*
X157389809Y-81910380D02*
X157389809Y-80910380D01*
X157294571Y-81053238D01*
X157199333Y-81148476D01*
X157104095Y-81196095D01*
X158056476Y-81005619D02*
X158104095Y-80958000D01*
X158199333Y-80910380D01*
X158437428Y-80910380D01*
X158532666Y-80958000D01*
X158580285Y-81005619D01*
X158627904Y-81100857D01*
X158627904Y-81196095D01*
X158580285Y-81338952D01*
X158008857Y-81910380D01*
X158627904Y-81910380D01*
X129291142Y-81815142D02*
X129243523Y-81862761D01*
X129100666Y-81910380D01*
X129005428Y-81910380D01*
X128862571Y-81862761D01*
X128767333Y-81767523D01*
X128719714Y-81672285D01*
X128672095Y-81481809D01*
X128672095Y-81338952D01*
X128719714Y-81148476D01*
X128767333Y-81053238D01*
X128862571Y-80958000D01*
X129005428Y-80910380D01*
X129100666Y-80910380D01*
X129243523Y-80958000D01*
X129291142Y-81005619D01*
X130243523Y-81910380D02*
X129672095Y-81910380D01*
X129957809Y-81910380D02*
X129957809Y-80910380D01*
X129862571Y-81053238D01*
X129767333Y-81148476D01*
X129672095Y-81196095D01*
X130576857Y-80910380D02*
X131195904Y-80910380D01*
X130862571Y-81291333D01*
X131005428Y-81291333D01*
X131100666Y-81338952D01*
X131148285Y-81386571D01*
X131195904Y-81481809D01*
X131195904Y-81719904D01*
X131148285Y-81815142D01*
X131100666Y-81862761D01*
X131005428Y-81910380D01*
X130719714Y-81910380D01*
X130624476Y-81862761D01*
X130576857Y-81815142D01*
X164755904Y-84704380D02*
X164755904Y-83704380D01*
X164994000Y-83704380D01*
X165136857Y-83752000D01*
X165232095Y-83847238D01*
X165279714Y-83942476D01*
X165327333Y-84132952D01*
X165327333Y-84275809D01*
X165279714Y-84466285D01*
X165232095Y-84561523D01*
X165136857Y-84656761D01*
X164994000Y-84704380D01*
X164755904Y-84704380D01*
X166279714Y-84704380D02*
X165708285Y-84704380D01*
X165994000Y-84704380D02*
X165994000Y-83704380D01*
X165898761Y-83847238D01*
X165803523Y-83942476D01*
X165708285Y-83990095D01*
X137323904Y-84831380D02*
X137323904Y-83831380D01*
X137562000Y-83831380D01*
X137704857Y-83879000D01*
X137800095Y-83974238D01*
X137847714Y-84069476D01*
X137895333Y-84259952D01*
X137895333Y-84402809D01*
X137847714Y-84593285D01*
X137800095Y-84688523D01*
X137704857Y-84783761D01*
X137562000Y-84831380D01*
X137323904Y-84831380D01*
X138276285Y-83926619D02*
X138323904Y-83879000D01*
X138419142Y-83831380D01*
X138657238Y-83831380D01*
X138752476Y-83879000D01*
X138800095Y-83926619D01*
X138847714Y-84021857D01*
X138847714Y-84117095D01*
X138800095Y-84259952D01*
X138228666Y-84831380D01*
X138847714Y-84831380D01*
X153579904Y-84704380D02*
X153579904Y-83704380D01*
X153818000Y-83704380D01*
X153960857Y-83752000D01*
X154056095Y-83847238D01*
X154103714Y-83942476D01*
X154151333Y-84132952D01*
X154151333Y-84275809D01*
X154103714Y-84466285D01*
X154056095Y-84561523D01*
X153960857Y-84656761D01*
X153818000Y-84704380D01*
X153579904Y-84704380D01*
X154484666Y-83704380D02*
X155103714Y-83704380D01*
X154770380Y-84085333D01*
X154913238Y-84085333D01*
X155008476Y-84132952D01*
X155056095Y-84180571D01*
X155103714Y-84275809D01*
X155103714Y-84513904D01*
X155056095Y-84609142D01*
X155008476Y-84656761D01*
X154913238Y-84704380D01*
X154627523Y-84704380D01*
X154532285Y-84656761D01*
X154484666Y-84609142D01*
X126147904Y-84831380D02*
X126147904Y-83831380D01*
X126386000Y-83831380D01*
X126528857Y-83879000D01*
X126624095Y-83974238D01*
X126671714Y-84069476D01*
X126719333Y-84259952D01*
X126719333Y-84402809D01*
X126671714Y-84593285D01*
X126624095Y-84688523D01*
X126528857Y-84783761D01*
X126386000Y-84831380D01*
X126147904Y-84831380D01*
X127576476Y-84164714D02*
X127576476Y-84831380D01*
X127338380Y-83783761D02*
X127100285Y-84498047D01*
X127719333Y-84498047D01*
X149261904Y-100452380D02*
X149261904Y-99452380D01*
X149500000Y-99452380D01*
X149642857Y-99500000D01*
X149738095Y-99595238D01*
X149785714Y-99690476D01*
X149833333Y-99880952D01*
X149833333Y-100023809D01*
X149785714Y-100214285D01*
X149738095Y-100309523D01*
X149642857Y-100404761D01*
X149500000Y-100452380D01*
X149261904Y-100452380D01*
X150738095Y-99452380D02*
X150261904Y-99452380D01*
X150214285Y-99928571D01*
X150261904Y-99880952D01*
X150357142Y-99833333D01*
X150595238Y-99833333D01*
X150690476Y-99880952D01*
X150738095Y-99928571D01*
X150785714Y-100023809D01*
X150785714Y-100261904D01*
X150738095Y-100357142D01*
X150690476Y-100404761D01*
X150595238Y-100452380D01*
X150357142Y-100452380D01*
X150261904Y-100404761D01*
X150214285Y-100357142D01*
X168502333Y-93086380D02*
X168026142Y-93086380D01*
X168026142Y-92086380D01*
X169359476Y-93086380D02*
X168788047Y-93086380D01*
X169073761Y-93086380D02*
X169073761Y-92086380D01*
X168978523Y-92229238D01*
X168883285Y-92324476D01*
X168788047Y-92372095D01*
X136879333Y-96134380D02*
X136403142Y-96134380D01*
X136403142Y-95134380D01*
X137165047Y-95229619D02*
X137212666Y-95182000D01*
X137307904Y-95134380D01*
X137546000Y-95134380D01*
X137641238Y-95182000D01*
X137688857Y-95229619D01*
X137736476Y-95324857D01*
X137736476Y-95420095D01*
X137688857Y-95562952D01*
X137117428Y-96134380D01*
X137736476Y-96134380D01*
X161771333Y-95626380D02*
X161295142Y-95626380D01*
X161295142Y-94626380D01*
X162009428Y-94626380D02*
X162628476Y-94626380D01*
X162295142Y-95007333D01*
X162438000Y-95007333D01*
X162533238Y-95054952D01*
X162580857Y-95102571D01*
X162628476Y-95197809D01*
X162628476Y-95435904D01*
X162580857Y-95531142D01*
X162533238Y-95578761D01*
X162438000Y-95626380D01*
X162152285Y-95626380D01*
X162057047Y-95578761D01*
X162009428Y-95531142D01*
X160247333Y-116708380D02*
X159914000Y-116232190D01*
X159675904Y-116708380D02*
X159675904Y-115708380D01*
X160056857Y-115708380D01*
X160152095Y-115756000D01*
X160199714Y-115803619D01*
X160247333Y-115898857D01*
X160247333Y-116041714D01*
X160199714Y-116136952D01*
X160152095Y-116184571D01*
X160056857Y-116232190D01*
X159675904Y-116232190D01*
X161199714Y-116708380D02*
X160628285Y-116708380D01*
X160914000Y-116708380D02*
X160914000Y-115708380D01*
X160818761Y-115851238D01*
X160723523Y-115946476D01*
X160628285Y-115994095D01*
X143864333Y-120645380D02*
X143531000Y-120169190D01*
X143292904Y-120645380D02*
X143292904Y-119645380D01*
X143673857Y-119645380D01*
X143769095Y-119693000D01*
X143816714Y-119740619D01*
X143864333Y-119835857D01*
X143864333Y-119978714D01*
X143816714Y-120073952D01*
X143769095Y-120121571D01*
X143673857Y-120169190D01*
X143292904Y-120169190D01*
X144197666Y-119645380D02*
X144816714Y-119645380D01*
X144483380Y-120026333D01*
X144626238Y-120026333D01*
X144721476Y-120073952D01*
X144769095Y-120121571D01*
X144816714Y-120216809D01*
X144816714Y-120454904D01*
X144769095Y-120550142D01*
X144721476Y-120597761D01*
X144626238Y-120645380D01*
X144340523Y-120645380D01*
X144245285Y-120597761D01*
X144197666Y-120550142D01*
X129665733Y-106294380D02*
X129332400Y-105818190D01*
X129094304Y-106294380D02*
X129094304Y-105294380D01*
X129475257Y-105294380D01*
X129570495Y-105342000D01*
X129618114Y-105389619D01*
X129665733Y-105484857D01*
X129665733Y-105627714D01*
X129618114Y-105722952D01*
X129570495Y-105770571D01*
X129475257Y-105818190D01*
X129094304Y-105818190D01*
X130522876Y-105627714D02*
X130522876Y-106294380D01*
X130284780Y-105246761D02*
X130046685Y-105961047D01*
X130665733Y-105961047D01*
X133180380Y-107024666D02*
X132704190Y-107358000D01*
X133180380Y-107596095D02*
X132180380Y-107596095D01*
X132180380Y-107215142D01*
X132228000Y-107119904D01*
X132275619Y-107072285D01*
X132370857Y-107024666D01*
X132513714Y-107024666D01*
X132608952Y-107072285D01*
X132656571Y-107119904D01*
X132704190Y-107215142D01*
X132704190Y-107596095D01*
X132180380Y-106119904D02*
X132180380Y-106596095D01*
X132656571Y-106643714D01*
X132608952Y-106596095D01*
X132561333Y-106500857D01*
X132561333Y-106262761D01*
X132608952Y-106167523D01*
X132656571Y-106119904D01*
X132751809Y-106072285D01*
X132989904Y-106072285D01*
X133085142Y-106119904D01*
X133132761Y-106167523D01*
X133180380Y-106262761D01*
X133180380Y-106500857D01*
X133132761Y-106596095D01*
X133085142Y-106643714D01*
X143864333Y-122931380D02*
X143531000Y-122455190D01*
X143292904Y-122931380D02*
X143292904Y-121931380D01*
X143673857Y-121931380D01*
X143769095Y-121979000D01*
X143816714Y-122026619D01*
X143864333Y-122121857D01*
X143864333Y-122264714D01*
X143816714Y-122359952D01*
X143769095Y-122407571D01*
X143673857Y-122455190D01*
X143292904Y-122455190D01*
X144721476Y-121931380D02*
X144531000Y-121931380D01*
X144435761Y-121979000D01*
X144388142Y-122026619D01*
X144292904Y-122169476D01*
X144245285Y-122359952D01*
X144245285Y-122740904D01*
X144292904Y-122836142D01*
X144340523Y-122883761D01*
X144435761Y-122931380D01*
X144626238Y-122931380D01*
X144721476Y-122883761D01*
X144769095Y-122836142D01*
X144816714Y-122740904D01*
X144816714Y-122502809D01*
X144769095Y-122407571D01*
X144721476Y-122359952D01*
X144626238Y-122312333D01*
X144435761Y-122312333D01*
X144340523Y-122359952D01*
X144292904Y-122407571D01*
X144245285Y-122502809D01*
X131291333Y-120518380D02*
X130958000Y-120042190D01*
X130719904Y-120518380D02*
X130719904Y-119518380D01*
X131100857Y-119518380D01*
X131196095Y-119566000D01*
X131243714Y-119613619D01*
X131291333Y-119708857D01*
X131291333Y-119851714D01*
X131243714Y-119946952D01*
X131196095Y-119994571D01*
X131100857Y-120042190D01*
X130719904Y-120042190D01*
X131624666Y-119518380D02*
X132291333Y-119518380D01*
X131862761Y-120518380D01*
X147801333Y-122931380D02*
X147468000Y-122455190D01*
X147229904Y-122931380D02*
X147229904Y-121931380D01*
X147610857Y-121931380D01*
X147706095Y-121979000D01*
X147753714Y-122026619D01*
X147801333Y-122121857D01*
X147801333Y-122264714D01*
X147753714Y-122359952D01*
X147706095Y-122407571D01*
X147610857Y-122455190D01*
X147229904Y-122455190D01*
X148372761Y-122359952D02*
X148277523Y-122312333D01*
X148229904Y-122264714D01*
X148182285Y-122169476D01*
X148182285Y-122121857D01*
X148229904Y-122026619D01*
X148277523Y-121979000D01*
X148372761Y-121931380D01*
X148563238Y-121931380D01*
X148658476Y-121979000D01*
X148706095Y-122026619D01*
X148753714Y-122121857D01*
X148753714Y-122169476D01*
X148706095Y-122264714D01*
X148658476Y-122312333D01*
X148563238Y-122359952D01*
X148372761Y-122359952D01*
X148277523Y-122407571D01*
X148229904Y-122455190D01*
X148182285Y-122550428D01*
X148182285Y-122740904D01*
X148229904Y-122836142D01*
X148277523Y-122883761D01*
X148372761Y-122931380D01*
X148563238Y-122931380D01*
X148658476Y-122883761D01*
X148706095Y-122836142D01*
X148753714Y-122740904D01*
X148753714Y-122550428D01*
X148706095Y-122455190D01*
X148658476Y-122407571D01*
X148563238Y-122359952D01*
X131291333Y-118994380D02*
X130958000Y-118518190D01*
X130719904Y-118994380D02*
X130719904Y-117994380D01*
X131100857Y-117994380D01*
X131196095Y-118042000D01*
X131243714Y-118089619D01*
X131291333Y-118184857D01*
X131291333Y-118327714D01*
X131243714Y-118422952D01*
X131196095Y-118470571D01*
X131100857Y-118518190D01*
X130719904Y-118518190D01*
X131767523Y-118994380D02*
X131958000Y-118994380D01*
X132053238Y-118946761D01*
X132100857Y-118899142D01*
X132196095Y-118756285D01*
X132243714Y-118565809D01*
X132243714Y-118184857D01*
X132196095Y-118089619D01*
X132148476Y-118042000D01*
X132053238Y-117994380D01*
X131862761Y-117994380D01*
X131767523Y-118042000D01*
X131719904Y-118089619D01*
X131672285Y-118184857D01*
X131672285Y-118422952D01*
X131719904Y-118518190D01*
X131767523Y-118565809D01*
X131862761Y-118613428D01*
X132053238Y-118613428D01*
X132148476Y-118565809D01*
X132196095Y-118518190D01*
X132243714Y-118422952D01*
X172598142Y-81783380D02*
X172264809Y-81307190D01*
X172026714Y-81783380D02*
X172026714Y-80783380D01*
X172407666Y-80783380D01*
X172502904Y-80831000D01*
X172550523Y-80878619D01*
X172598142Y-80973857D01*
X172598142Y-81116714D01*
X172550523Y-81211952D01*
X172502904Y-81259571D01*
X172407666Y-81307190D01*
X172026714Y-81307190D01*
X173550523Y-81783380D02*
X172979095Y-81783380D01*
X173264809Y-81783380D02*
X173264809Y-80783380D01*
X173169571Y-80926238D01*
X173074333Y-81021476D01*
X172979095Y-81069095D01*
X174169571Y-80783380D02*
X174264809Y-80783380D01*
X174360047Y-80831000D01*
X174407666Y-80878619D01*
X174455285Y-80973857D01*
X174502904Y-81164333D01*
X174502904Y-81402428D01*
X174455285Y-81592904D01*
X174407666Y-81688142D01*
X174360047Y-81735761D01*
X174264809Y-81783380D01*
X174169571Y-81783380D01*
X174074333Y-81735761D01*
X174026714Y-81688142D01*
X173979095Y-81592904D01*
X173931476Y-81402428D01*
X173931476Y-81164333D01*
X173979095Y-80973857D01*
X174026714Y-80878619D01*
X174074333Y-80831000D01*
X174169571Y-80783380D01*
X145547142Y-81656380D02*
X145213809Y-81180190D01*
X144975714Y-81656380D02*
X144975714Y-80656380D01*
X145356666Y-80656380D01*
X145451904Y-80704000D01*
X145499523Y-80751619D01*
X145547142Y-80846857D01*
X145547142Y-80989714D01*
X145499523Y-81084952D01*
X145451904Y-81132571D01*
X145356666Y-81180190D01*
X144975714Y-81180190D01*
X146499523Y-81656380D02*
X145928095Y-81656380D01*
X146213809Y-81656380D02*
X146213809Y-80656380D01*
X146118571Y-80799238D01*
X146023333Y-80894476D01*
X145928095Y-80942095D01*
X147451904Y-81656380D02*
X146880476Y-81656380D01*
X147166190Y-81656380D02*
X147166190Y-80656380D01*
X147070952Y-80799238D01*
X146975714Y-80894476D01*
X146880476Y-80942095D01*
X161803142Y-81656380D02*
X161469809Y-81180190D01*
X161231714Y-81656380D02*
X161231714Y-80656380D01*
X161612666Y-80656380D01*
X161707904Y-80704000D01*
X161755523Y-80751619D01*
X161803142Y-80846857D01*
X161803142Y-80989714D01*
X161755523Y-81084952D01*
X161707904Y-81132571D01*
X161612666Y-81180190D01*
X161231714Y-81180190D01*
X162755523Y-81656380D02*
X162184095Y-81656380D01*
X162469809Y-81656380D02*
X162469809Y-80656380D01*
X162374571Y-80799238D01*
X162279333Y-80894476D01*
X162184095Y-80942095D01*
X163136476Y-80751619D02*
X163184095Y-80704000D01*
X163279333Y-80656380D01*
X163517428Y-80656380D01*
X163612666Y-80704000D01*
X163660285Y-80751619D01*
X163707904Y-80846857D01*
X163707904Y-80942095D01*
X163660285Y-81084952D01*
X163088857Y-81656380D01*
X163707904Y-81656380D01*
X134371142Y-81910380D02*
X134037809Y-81434190D01*
X133799714Y-81910380D02*
X133799714Y-80910380D01*
X134180666Y-80910380D01*
X134275904Y-80958000D01*
X134323523Y-81005619D01*
X134371142Y-81100857D01*
X134371142Y-81243714D01*
X134323523Y-81338952D01*
X134275904Y-81386571D01*
X134180666Y-81434190D01*
X133799714Y-81434190D01*
X135323523Y-81910380D02*
X134752095Y-81910380D01*
X135037809Y-81910380D02*
X135037809Y-80910380D01*
X134942571Y-81053238D01*
X134847333Y-81148476D01*
X134752095Y-81196095D01*
X135656857Y-80910380D02*
X136275904Y-80910380D01*
X135942571Y-81291333D01*
X136085428Y-81291333D01*
X136180666Y-81338952D01*
X136228285Y-81386571D01*
X136275904Y-81481809D01*
X136275904Y-81719904D01*
X136228285Y-81815142D01*
X136180666Y-81862761D01*
X136085428Y-81910380D01*
X135799714Y-81910380D01*
X135704476Y-81862761D01*
X135656857Y-81815142D01*
X173820380Y-89466857D02*
X173344190Y-89800190D01*
X173820380Y-90038285D02*
X172820380Y-90038285D01*
X172820380Y-89657333D01*
X172868000Y-89562095D01*
X172915619Y-89514476D01*
X173010857Y-89466857D01*
X173153714Y-89466857D01*
X173248952Y-89514476D01*
X173296571Y-89562095D01*
X173344190Y-89657333D01*
X173344190Y-90038285D01*
X173820380Y-88514476D02*
X173820380Y-89085904D01*
X173820380Y-88800190D02*
X172820380Y-88800190D01*
X172963238Y-88895428D01*
X173058476Y-88990666D01*
X173106095Y-89085904D01*
X173153714Y-87657333D02*
X173820380Y-87657333D01*
X172772761Y-87895428D02*
X173487047Y-88133523D01*
X173487047Y-87514476D01*
X146388380Y-89466857D02*
X145912190Y-89800190D01*
X146388380Y-90038285D02*
X145388380Y-90038285D01*
X145388380Y-89657333D01*
X145436000Y-89562095D01*
X145483619Y-89514476D01*
X145578857Y-89466857D01*
X145721714Y-89466857D01*
X145816952Y-89514476D01*
X145864571Y-89562095D01*
X145912190Y-89657333D01*
X145912190Y-90038285D01*
X146388380Y-88514476D02*
X146388380Y-89085904D01*
X146388380Y-88800190D02*
X145388380Y-88800190D01*
X145531238Y-88895428D01*
X145626476Y-88990666D01*
X145674095Y-89085904D01*
X145388380Y-87609714D02*
X145388380Y-88085904D01*
X145864571Y-88133523D01*
X145816952Y-88085904D01*
X145769333Y-87990666D01*
X145769333Y-87752571D01*
X145816952Y-87657333D01*
X145864571Y-87609714D01*
X145959809Y-87562095D01*
X146197904Y-87562095D01*
X146293142Y-87609714D01*
X146340761Y-87657333D01*
X146388380Y-87752571D01*
X146388380Y-87990666D01*
X146340761Y-88085904D01*
X146293142Y-88133523D01*
X162644380Y-89466857D02*
X162168190Y-89800190D01*
X162644380Y-90038285D02*
X161644380Y-90038285D01*
X161644380Y-89657333D01*
X161692000Y-89562095D01*
X161739619Y-89514476D01*
X161834857Y-89466857D01*
X161977714Y-89466857D01*
X162072952Y-89514476D01*
X162120571Y-89562095D01*
X162168190Y-89657333D01*
X162168190Y-90038285D01*
X162644380Y-88514476D02*
X162644380Y-89085904D01*
X162644380Y-88800190D02*
X161644380Y-88800190D01*
X161787238Y-88895428D01*
X161882476Y-88990666D01*
X161930095Y-89085904D01*
X161644380Y-87657333D02*
X161644380Y-87847809D01*
X161692000Y-87943047D01*
X161739619Y-87990666D01*
X161882476Y-88085904D01*
X162072952Y-88133523D01*
X162453904Y-88133523D01*
X162549142Y-88085904D01*
X162596761Y-88038285D01*
X162644380Y-87943047D01*
X162644380Y-87752571D01*
X162596761Y-87657333D01*
X162549142Y-87609714D01*
X162453904Y-87562095D01*
X162215809Y-87562095D01*
X162120571Y-87609714D01*
X162072952Y-87657333D01*
X162025333Y-87752571D01*
X162025333Y-87943047D01*
X162072952Y-88038285D01*
X162120571Y-88085904D01*
X162215809Y-88133523D01*
X135212380Y-89466857D02*
X134736190Y-89800190D01*
X135212380Y-90038285D02*
X134212380Y-90038285D01*
X134212380Y-89657333D01*
X134260000Y-89562095D01*
X134307619Y-89514476D01*
X134402857Y-89466857D01*
X134545714Y-89466857D01*
X134640952Y-89514476D01*
X134688571Y-89562095D01*
X134736190Y-89657333D01*
X134736190Y-90038285D01*
X135212380Y-88514476D02*
X135212380Y-89085904D01*
X135212380Y-88800190D02*
X134212380Y-88800190D01*
X134355238Y-88895428D01*
X134450476Y-88990666D01*
X134498095Y-89085904D01*
X134212380Y-88181142D02*
X134212380Y-87514476D01*
X135212380Y-87943047D01*
X160011380Y-112064904D02*
X160820904Y-112064904D01*
X160916142Y-112017285D01*
X160963761Y-111969666D01*
X161011380Y-111874428D01*
X161011380Y-111683952D01*
X160963761Y-111588714D01*
X160916142Y-111541095D01*
X160820904Y-111493476D01*
X160011380Y-111493476D01*
X161011380Y-110493476D02*
X161011380Y-111064904D01*
X161011380Y-110779190D02*
X160011380Y-110779190D01*
X160154238Y-110874428D01*
X160249476Y-110969666D01*
X160297095Y-111064904D01*
X135863380Y-121335904D02*
X136672904Y-121335904D01*
X136768142Y-121288285D01*
X136815761Y-121240666D01*
X136863380Y-121145428D01*
X136863380Y-120954952D01*
X136815761Y-120859714D01*
X136768142Y-120812095D01*
X136672904Y-120764476D01*
X135863380Y-120764476D01*
X135958619Y-120335904D02*
X135911000Y-120288285D01*
X135863380Y-120193047D01*
X135863380Y-119954952D01*
X135911000Y-119859714D01*
X135958619Y-119812095D01*
X136053857Y-119764476D01*
X136149095Y-119764476D01*
X136291952Y-119812095D01*
X136863380Y-120383523D01*
X136863380Y-119764476D01*
X137046095Y-113549380D02*
X137046095Y-114358904D01*
X137093714Y-114454142D01*
X137141333Y-114501761D01*
X137236571Y-114549380D01*
X137427047Y-114549380D01*
X137522285Y-114501761D01*
X137569904Y-114454142D01*
X137617523Y-114358904D01*
X137617523Y-113549380D01*
X137998476Y-113549380D02*
X138617523Y-113549380D01*
X138284190Y-113930333D01*
X138427047Y-113930333D01*
X138522285Y-113977952D01*
X138569904Y-114025571D01*
X138617523Y-114120809D01*
X138617523Y-114358904D01*
X138569904Y-114454142D01*
X138522285Y-114501761D01*
X138427047Y-114549380D01*
X138141333Y-114549380D01*
X138046095Y-114501761D01*
X137998476Y-114454142D01*
X169050095Y-83450380D02*
X169050095Y-84259904D01*
X169097714Y-84355142D01*
X169145333Y-84402761D01*
X169240571Y-84450380D01*
X169431047Y-84450380D01*
X169526285Y-84402761D01*
X169573904Y-84355142D01*
X169621523Y-84259904D01*
X169621523Y-83450380D01*
X170526285Y-83783714D02*
X170526285Y-84450380D01*
X170288190Y-83402761D02*
X170050095Y-84117047D01*
X170669142Y-84117047D01*
X141618095Y-83323380D02*
X141618095Y-84132904D01*
X141665714Y-84228142D01*
X141713333Y-84275761D01*
X141808571Y-84323380D01*
X141999047Y-84323380D01*
X142094285Y-84275761D01*
X142141904Y-84228142D01*
X142189523Y-84132904D01*
X142189523Y-83323380D01*
X143141904Y-83323380D02*
X142665714Y-83323380D01*
X142618095Y-83799571D01*
X142665714Y-83751952D01*
X142760952Y-83704333D01*
X142999047Y-83704333D01*
X143094285Y-83751952D01*
X143141904Y-83799571D01*
X143189523Y-83894809D01*
X143189523Y-84132904D01*
X143141904Y-84228142D01*
X143094285Y-84275761D01*
X142999047Y-84323380D01*
X142760952Y-84323380D01*
X142665714Y-84275761D01*
X142618095Y-84228142D01*
X157874095Y-83450380D02*
X157874095Y-84259904D01*
X157921714Y-84355142D01*
X157969333Y-84402761D01*
X158064571Y-84450380D01*
X158255047Y-84450380D01*
X158350285Y-84402761D01*
X158397904Y-84355142D01*
X158445523Y-84259904D01*
X158445523Y-83450380D01*
X159350285Y-83450380D02*
X159159809Y-83450380D01*
X159064571Y-83498000D01*
X159016952Y-83545619D01*
X158921714Y-83688476D01*
X158874095Y-83878952D01*
X158874095Y-84259904D01*
X158921714Y-84355142D01*
X158969333Y-84402761D01*
X159064571Y-84450380D01*
X159255047Y-84450380D01*
X159350285Y-84402761D01*
X159397904Y-84355142D01*
X159445523Y-84259904D01*
X159445523Y-84021809D01*
X159397904Y-83926571D01*
X159350285Y-83878952D01*
X159255047Y-83831333D01*
X159064571Y-83831333D01*
X158969333Y-83878952D01*
X158921714Y-83926571D01*
X158874095Y-84021809D01*
X130442095Y-83450380D02*
X130442095Y-84259904D01*
X130489714Y-84355142D01*
X130537333Y-84402761D01*
X130632571Y-84450380D01*
X130823047Y-84450380D01*
X130918285Y-84402761D01*
X130965904Y-84355142D01*
X131013523Y-84259904D01*
X131013523Y-83450380D01*
X131394476Y-83450380D02*
X132061142Y-83450380D01*
X131632571Y-84450380D01*
X163239809Y-121058190D02*
X163239809Y-121534380D01*
X162906476Y-120534380D02*
X163239809Y-121058190D01*
X163573142Y-120534380D01*
X164430285Y-121534380D02*
X163858857Y-121534380D01*
X164144571Y-121534380D02*
X164144571Y-120534380D01*
X164049333Y-120677238D01*
X163954095Y-120772476D01*
X163858857Y-120820095D01*
X165835333Y-118232380D02*
X165502000Y-117756190D01*
X165263904Y-118232380D02*
X165263904Y-117232380D01*
X165644857Y-117232380D01*
X165740095Y-117280000D01*
X165787714Y-117327619D01*
X165835333Y-117422857D01*
X165835333Y-117565714D01*
X165787714Y-117660952D01*
X165740095Y-117708571D01*
X165644857Y-117756190D01*
X165263904Y-117756190D01*
X166216285Y-117327619D02*
X166263904Y-117280000D01*
X166359142Y-117232380D01*
X166597238Y-117232380D01*
X166692476Y-117280000D01*
X166740095Y-117327619D01*
X166787714Y-117422857D01*
X166787714Y-117518095D01*
X166740095Y-117660952D01*
X166168666Y-118232380D01*
X166787714Y-118232380D01*
X126497142Y-78005142D02*
X126449523Y-78052761D01*
X126306666Y-78100380D01*
X126211428Y-78100380D01*
X126068571Y-78052761D01*
X125973333Y-77957523D01*
X125925714Y-77862285D01*
X125878095Y-77671809D01*
X125878095Y-77528952D01*
X125925714Y-77338476D01*
X125973333Y-77243238D01*
X126068571Y-77148000D01*
X126211428Y-77100380D01*
X126306666Y-77100380D01*
X126449523Y-77148000D01*
X126497142Y-77195619D01*
X127449523Y-78100380D02*
X126878095Y-78100380D01*
X127163809Y-78100380D02*
X127163809Y-77100380D01*
X127068571Y-77243238D01*
X126973333Y-77338476D01*
X126878095Y-77386095D01*
X128306666Y-77433714D02*
X128306666Y-78100380D01*
X128068571Y-77052761D02*
X127830476Y-77767047D01*
X128449523Y-77767047D01*
X131069142Y-78005142D02*
X131021523Y-78052761D01*
X130878666Y-78100380D01*
X130783428Y-78100380D01*
X130640571Y-78052761D01*
X130545333Y-77957523D01*
X130497714Y-77862285D01*
X130450095Y-77671809D01*
X130450095Y-77528952D01*
X130497714Y-77338476D01*
X130545333Y-77243238D01*
X130640571Y-77148000D01*
X130783428Y-77100380D01*
X130878666Y-77100380D01*
X131021523Y-77148000D01*
X131069142Y-77195619D01*
X132021523Y-78100380D02*
X131450095Y-78100380D01*
X131735809Y-78100380D02*
X131735809Y-77100380D01*
X131640571Y-77243238D01*
X131545333Y-77338476D01*
X131450095Y-77386095D01*
X132926285Y-77100380D02*
X132450095Y-77100380D01*
X132402476Y-77576571D01*
X132450095Y-77528952D01*
X132545333Y-77481333D01*
X132783428Y-77481333D01*
X132878666Y-77528952D01*
X132926285Y-77576571D01*
X132973904Y-77671809D01*
X132973904Y-77909904D01*
X132926285Y-78005142D01*
X132878666Y-78052761D01*
X132783428Y-78100380D01*
X132545333Y-78100380D01*
X132450095Y-78052761D01*
X132402476Y-78005142D01*
X135641142Y-78005142D02*
X135593523Y-78052761D01*
X135450666Y-78100380D01*
X135355428Y-78100380D01*
X135212571Y-78052761D01*
X135117333Y-77957523D01*
X135069714Y-77862285D01*
X135022095Y-77671809D01*
X135022095Y-77528952D01*
X135069714Y-77338476D01*
X135117333Y-77243238D01*
X135212571Y-77148000D01*
X135355428Y-77100380D01*
X135450666Y-77100380D01*
X135593523Y-77148000D01*
X135641142Y-77195619D01*
X136593523Y-78100380D02*
X136022095Y-78100380D01*
X136307809Y-78100380D02*
X136307809Y-77100380D01*
X136212571Y-77243238D01*
X136117333Y-77338476D01*
X136022095Y-77386095D01*
X137450666Y-77100380D02*
X137260190Y-77100380D01*
X137164952Y-77148000D01*
X137117333Y-77195619D01*
X137022095Y-77338476D01*
X136974476Y-77528952D01*
X136974476Y-77909904D01*
X137022095Y-78005142D01*
X137069714Y-78052761D01*
X137164952Y-78100380D01*
X137355428Y-78100380D01*
X137450666Y-78052761D01*
X137498285Y-78005142D01*
X137545904Y-77909904D01*
X137545904Y-77671809D01*
X137498285Y-77576571D01*
X137450666Y-77528952D01*
X137355428Y-77481333D01*
X137164952Y-77481333D01*
X137069714Y-77528952D01*
X137022095Y-77576571D01*
X136974476Y-77671809D01*
X140213142Y-78005142D02*
X140165523Y-78052761D01*
X140022666Y-78100380D01*
X139927428Y-78100380D01*
X139784571Y-78052761D01*
X139689333Y-77957523D01*
X139641714Y-77862285D01*
X139594095Y-77671809D01*
X139594095Y-77528952D01*
X139641714Y-77338476D01*
X139689333Y-77243238D01*
X139784571Y-77148000D01*
X139927428Y-77100380D01*
X140022666Y-77100380D01*
X140165523Y-77148000D01*
X140213142Y-77195619D01*
X141165523Y-78100380D02*
X140594095Y-78100380D01*
X140879809Y-78100380D02*
X140879809Y-77100380D01*
X140784571Y-77243238D01*
X140689333Y-77338476D01*
X140594095Y-77386095D01*
X141498857Y-77100380D02*
X142165523Y-77100380D01*
X141736952Y-78100380D01*
X144785142Y-78005142D02*
X144737523Y-78052761D01*
X144594666Y-78100380D01*
X144499428Y-78100380D01*
X144356571Y-78052761D01*
X144261333Y-77957523D01*
X144213714Y-77862285D01*
X144166095Y-77671809D01*
X144166095Y-77528952D01*
X144213714Y-77338476D01*
X144261333Y-77243238D01*
X144356571Y-77148000D01*
X144499428Y-77100380D01*
X144594666Y-77100380D01*
X144737523Y-77148000D01*
X144785142Y-77195619D01*
X145737523Y-78100380D02*
X145166095Y-78100380D01*
X145451809Y-78100380D02*
X145451809Y-77100380D01*
X145356571Y-77243238D01*
X145261333Y-77338476D01*
X145166095Y-77386095D01*
X146308952Y-77528952D02*
X146213714Y-77481333D01*
X146166095Y-77433714D01*
X146118476Y-77338476D01*
X146118476Y-77290857D01*
X146166095Y-77195619D01*
X146213714Y-77148000D01*
X146308952Y-77100380D01*
X146499428Y-77100380D01*
X146594666Y-77148000D01*
X146642285Y-77195619D01*
X146689904Y-77290857D01*
X146689904Y-77338476D01*
X146642285Y-77433714D01*
X146594666Y-77481333D01*
X146499428Y-77528952D01*
X146308952Y-77528952D01*
X146213714Y-77576571D01*
X146166095Y-77624190D01*
X146118476Y-77719428D01*
X146118476Y-77909904D01*
X146166095Y-78005142D01*
X146213714Y-78052761D01*
X146308952Y-78100380D01*
X146499428Y-78100380D01*
X146594666Y-78052761D01*
X146642285Y-78005142D01*
X146689904Y-77909904D01*
X146689904Y-77719428D01*
X146642285Y-77624190D01*
X146594666Y-77576571D01*
X146499428Y-77528952D01*
X153929142Y-78005142D02*
X153881523Y-78052761D01*
X153738666Y-78100380D01*
X153643428Y-78100380D01*
X153500571Y-78052761D01*
X153405333Y-77957523D01*
X153357714Y-77862285D01*
X153310095Y-77671809D01*
X153310095Y-77528952D01*
X153357714Y-77338476D01*
X153405333Y-77243238D01*
X153500571Y-77148000D01*
X153643428Y-77100380D01*
X153738666Y-77100380D01*
X153881523Y-77148000D01*
X153929142Y-77195619D01*
X154881523Y-78100380D02*
X154310095Y-78100380D01*
X154595809Y-78100380D02*
X154595809Y-77100380D01*
X154500571Y-77243238D01*
X154405333Y-77338476D01*
X154310095Y-77386095D01*
X155357714Y-78100380D02*
X155548190Y-78100380D01*
X155643428Y-78052761D01*
X155691047Y-78005142D01*
X155786285Y-77862285D01*
X155833904Y-77671809D01*
X155833904Y-77290857D01*
X155786285Y-77195619D01*
X155738666Y-77148000D01*
X155643428Y-77100380D01*
X155452952Y-77100380D01*
X155357714Y-77148000D01*
X155310095Y-77195619D01*
X155262476Y-77290857D01*
X155262476Y-77528952D01*
X155310095Y-77624190D01*
X155357714Y-77671809D01*
X155452952Y-77719428D01*
X155643428Y-77719428D01*
X155738666Y-77671809D01*
X155786285Y-77624190D01*
X155833904Y-77528952D01*
X158501142Y-78005142D02*
X158453523Y-78052761D01*
X158310666Y-78100380D01*
X158215428Y-78100380D01*
X158072571Y-78052761D01*
X157977333Y-77957523D01*
X157929714Y-77862285D01*
X157882095Y-77671809D01*
X157882095Y-77528952D01*
X157929714Y-77338476D01*
X157977333Y-77243238D01*
X158072571Y-77148000D01*
X158215428Y-77100380D01*
X158310666Y-77100380D01*
X158453523Y-77148000D01*
X158501142Y-77195619D01*
X158882095Y-77195619D02*
X158929714Y-77148000D01*
X159024952Y-77100380D01*
X159263047Y-77100380D01*
X159358285Y-77148000D01*
X159405904Y-77195619D01*
X159453523Y-77290857D01*
X159453523Y-77386095D01*
X159405904Y-77528952D01*
X158834476Y-78100380D01*
X159453523Y-78100380D01*
X160072571Y-77100380D02*
X160167809Y-77100380D01*
X160263047Y-77148000D01*
X160310666Y-77195619D01*
X160358285Y-77290857D01*
X160405904Y-77481333D01*
X160405904Y-77719428D01*
X160358285Y-77909904D01*
X160310666Y-78005142D01*
X160263047Y-78052761D01*
X160167809Y-78100380D01*
X160072571Y-78100380D01*
X159977333Y-78052761D01*
X159929714Y-78005142D01*
X159882095Y-77909904D01*
X159834476Y-77719428D01*
X159834476Y-77481333D01*
X159882095Y-77290857D01*
X159929714Y-77195619D01*
X159977333Y-77148000D01*
X160072571Y-77100380D01*
X163073142Y-78005142D02*
X163025523Y-78052761D01*
X162882666Y-78100380D01*
X162787428Y-78100380D01*
X162644571Y-78052761D01*
X162549333Y-77957523D01*
X162501714Y-77862285D01*
X162454095Y-77671809D01*
X162454095Y-77528952D01*
X162501714Y-77338476D01*
X162549333Y-77243238D01*
X162644571Y-77148000D01*
X162787428Y-77100380D01*
X162882666Y-77100380D01*
X163025523Y-77148000D01*
X163073142Y-77195619D01*
X163454095Y-77195619D02*
X163501714Y-77148000D01*
X163596952Y-77100380D01*
X163835047Y-77100380D01*
X163930285Y-77148000D01*
X163977904Y-77195619D01*
X164025523Y-77290857D01*
X164025523Y-77386095D01*
X163977904Y-77528952D01*
X163406476Y-78100380D01*
X164025523Y-78100380D01*
X164977904Y-78100380D02*
X164406476Y-78100380D01*
X164692190Y-78100380D02*
X164692190Y-77100380D01*
X164596952Y-77243238D01*
X164501714Y-77338476D01*
X164406476Y-77386095D01*
X167645142Y-78005142D02*
X167597523Y-78052761D01*
X167454666Y-78100380D01*
X167359428Y-78100380D01*
X167216571Y-78052761D01*
X167121333Y-77957523D01*
X167073714Y-77862285D01*
X167026095Y-77671809D01*
X167026095Y-77528952D01*
X167073714Y-77338476D01*
X167121333Y-77243238D01*
X167216571Y-77148000D01*
X167359428Y-77100380D01*
X167454666Y-77100380D01*
X167597523Y-77148000D01*
X167645142Y-77195619D01*
X168026095Y-77195619D02*
X168073714Y-77148000D01*
X168168952Y-77100380D01*
X168407047Y-77100380D01*
X168502285Y-77148000D01*
X168549904Y-77195619D01*
X168597523Y-77290857D01*
X168597523Y-77386095D01*
X168549904Y-77528952D01*
X167978476Y-78100380D01*
X168597523Y-78100380D01*
X168978476Y-77195619D02*
X169026095Y-77148000D01*
X169121333Y-77100380D01*
X169359428Y-77100380D01*
X169454666Y-77148000D01*
X169502285Y-77195619D01*
X169549904Y-77290857D01*
X169549904Y-77386095D01*
X169502285Y-77528952D01*
X168930857Y-78100380D01*
X169549904Y-78100380D01*
X172217142Y-78005142D02*
X172169523Y-78052761D01*
X172026666Y-78100380D01*
X171931428Y-78100380D01*
X171788571Y-78052761D01*
X171693333Y-77957523D01*
X171645714Y-77862285D01*
X171598095Y-77671809D01*
X171598095Y-77528952D01*
X171645714Y-77338476D01*
X171693333Y-77243238D01*
X171788571Y-77148000D01*
X171931428Y-77100380D01*
X172026666Y-77100380D01*
X172169523Y-77148000D01*
X172217142Y-77195619D01*
X172598095Y-77195619D02*
X172645714Y-77148000D01*
X172740952Y-77100380D01*
X172979047Y-77100380D01*
X173074285Y-77148000D01*
X173121904Y-77195619D01*
X173169523Y-77290857D01*
X173169523Y-77386095D01*
X173121904Y-77528952D01*
X172550476Y-78100380D01*
X173169523Y-78100380D01*
X173502857Y-77100380D02*
X174121904Y-77100380D01*
X173788571Y-77481333D01*
X173931428Y-77481333D01*
X174026666Y-77528952D01*
X174074285Y-77576571D01*
X174121904Y-77671809D01*
X174121904Y-77909904D01*
X174074285Y-78005142D01*
X174026666Y-78052761D01*
X173931428Y-78100380D01*
X173645714Y-78100380D01*
X173550476Y-78052761D01*
X173502857Y-78005142D01*
X128190476Y-100452380D02*
X128190476Y-99452380D01*
X128523809Y-100166666D01*
X128857142Y-99452380D01*
X128857142Y-100452380D01*
X129857142Y-100452380D02*
X129285714Y-100452380D01*
X129571428Y-100452380D02*
X129571428Y-99452380D01*
X129476190Y-99595238D01*
X129380952Y-99690476D01*
X129285714Y-99738095D01*
X170145476Y-100452380D02*
X170145476Y-99452380D01*
X170478809Y-100166666D01*
X170812142Y-99452380D01*
X170812142Y-100452380D01*
X171240714Y-99547619D02*
X171288333Y-99500000D01*
X171383571Y-99452380D01*
X171621666Y-99452380D01*
X171716904Y-99500000D01*
X171764523Y-99547619D01*
X171812142Y-99642857D01*
X171812142Y-99738095D01*
X171764523Y-99880952D01*
X171193095Y-100452380D01*
X171812142Y-100452380D01*
M02*
