G04 #@! TF.GenerationSoftware,KiCad,Pcbnew,(2017-05-12 revision b823d0b78)-makepkg*
G04 #@! TF.CreationDate,2017-06-18T22:17:58+02:00*
G04 #@! TF.ProjectId,led_pixel_stm32f030,6C65645F706978656C5F73746D333266,1.1*
G04 #@! TF.FileFunction,Legend,Bot*
G04 #@! TF.FilePolarity,Positive*
%FSLAX46Y46*%
G04 Gerber Fmt 4.6, Leading zero omitted, Abs format (unit mm)*
G04 Created by KiCad (PCBNEW (2017-05-12 revision b823d0b78)-makepkg) date 06/18/17 22:17:58*
%MOMM*%
%LPD*%
G01*
G04 APERTURE LIST*
%ADD10C,0.100000*%
%ADD11C,0.300000*%
%ADD12C,0.010000*%
%ADD13C,0.120000*%
%ADD14C,0.150000*%
G04 APERTURE END LIST*
D10*
D11*
X171268000Y-113632571D02*
X171268000Y-112132571D01*
X171268000Y-113561142D02*
X171410857Y-113632571D01*
X171696571Y-113632571D01*
X171839428Y-113561142D01*
X171910857Y-113489714D01*
X171982285Y-113346857D01*
X171982285Y-112918285D01*
X171910857Y-112775428D01*
X171839428Y-112704000D01*
X171696571Y-112632571D01*
X171410857Y-112632571D01*
X171268000Y-112704000D01*
X169910857Y-113632571D02*
X169910857Y-112846857D01*
X169982285Y-112704000D01*
X170125142Y-112632571D01*
X170410857Y-112632571D01*
X170553714Y-112704000D01*
X169910857Y-113561142D02*
X170053714Y-113632571D01*
X170410857Y-113632571D01*
X170553714Y-113561142D01*
X170625142Y-113418285D01*
X170625142Y-113275428D01*
X170553714Y-113132571D01*
X170410857Y-113061142D01*
X170053714Y-113061142D01*
X169910857Y-112989714D01*
X169196571Y-113632571D02*
X169196571Y-112632571D01*
X169196571Y-112132571D02*
X169268000Y-112204000D01*
X169196571Y-112275428D01*
X169125142Y-112204000D01*
X169196571Y-112132571D01*
X169196571Y-112275428D01*
X168553714Y-113561142D02*
X168410857Y-113632571D01*
X168125142Y-113632571D01*
X167982285Y-113561142D01*
X167910857Y-113418285D01*
X167910857Y-113346857D01*
X167982285Y-113204000D01*
X168125142Y-113132571D01*
X168339428Y-113132571D01*
X168482285Y-113061142D01*
X168553714Y-112918285D01*
X168553714Y-112846857D01*
X168482285Y-112704000D01*
X168339428Y-112632571D01*
X168125142Y-112632571D01*
X167982285Y-112704000D01*
X167410857Y-112632571D02*
X167053714Y-113632571D01*
X166696571Y-112632571D02*
X167053714Y-113632571D01*
X167196571Y-113989714D01*
X167268000Y-114061142D01*
X167410857Y-114132571D01*
X164768000Y-113632571D02*
X164910857Y-113561142D01*
X164982285Y-113489714D01*
X165053714Y-113346857D01*
X165053714Y-112918285D01*
X164982285Y-112775428D01*
X164910857Y-112704000D01*
X164768000Y-112632571D01*
X164553714Y-112632571D01*
X164410857Y-112704000D01*
X164339428Y-112775428D01*
X164268000Y-112918285D01*
X164268000Y-113346857D01*
X164339428Y-113489714D01*
X164410857Y-113561142D01*
X164553714Y-113632571D01*
X164768000Y-113632571D01*
X162982285Y-112632571D02*
X162982285Y-113632571D01*
X163625142Y-112632571D02*
X163625142Y-113418285D01*
X163553714Y-113561142D01*
X163410857Y-113632571D01*
X163196571Y-113632571D01*
X163053714Y-113561142D01*
X162982285Y-113489714D01*
X162482285Y-112632571D02*
X161910857Y-112632571D01*
X162268000Y-112132571D02*
X162268000Y-113418285D01*
X162196571Y-113561142D01*
X162053714Y-113632571D01*
X161910857Y-113632571D01*
X172121571Y-123221142D02*
X170978714Y-123221142D01*
X171550142Y-123792571D02*
X171550142Y-122649714D01*
X169550142Y-122292571D02*
X170264428Y-122292571D01*
X170335857Y-123006857D01*
X170264428Y-122935428D01*
X170121571Y-122864000D01*
X169764428Y-122864000D01*
X169621571Y-122935428D01*
X169550142Y-123006857D01*
X169478714Y-123149714D01*
X169478714Y-123506857D01*
X169550142Y-123649714D01*
X169621571Y-123721142D01*
X169764428Y-123792571D01*
X170121571Y-123792571D01*
X170264428Y-123721142D01*
X170335857Y-123649714D01*
X169050142Y-122292571D02*
X168550142Y-123792571D01*
X168050142Y-122292571D01*
X171149000Y-121252571D02*
X171649000Y-120538285D01*
X172006142Y-121252571D02*
X172006142Y-119752571D01*
X171434714Y-119752571D01*
X171291857Y-119824000D01*
X171220428Y-119895428D01*
X171149000Y-120038285D01*
X171149000Y-120252571D01*
X171220428Y-120395428D01*
X171291857Y-120466857D01*
X171434714Y-120538285D01*
X172006142Y-120538285D01*
X170577571Y-121181142D02*
X170363285Y-121252571D01*
X170006142Y-121252571D01*
X169863285Y-121181142D01*
X169791857Y-121109714D01*
X169720428Y-120966857D01*
X169720428Y-120824000D01*
X169791857Y-120681142D01*
X169863285Y-120609714D01*
X170006142Y-120538285D01*
X170291857Y-120466857D01*
X170434714Y-120395428D01*
X170506142Y-120324000D01*
X170577571Y-120181142D01*
X170577571Y-120038285D01*
X170506142Y-119895428D01*
X170434714Y-119824000D01*
X170291857Y-119752571D01*
X169934714Y-119752571D01*
X169720428Y-119824000D01*
X168434714Y-120252571D02*
X168434714Y-121252571D01*
X168791857Y-119681142D02*
X169149000Y-120752571D01*
X168220428Y-120752571D01*
X167434714Y-120395428D02*
X167577571Y-120324000D01*
X167649000Y-120252571D01*
X167720428Y-120109714D01*
X167720428Y-120038285D01*
X167649000Y-119895428D01*
X167577571Y-119824000D01*
X167434714Y-119752571D01*
X167149000Y-119752571D01*
X167006142Y-119824000D01*
X166934714Y-119895428D01*
X166863285Y-120038285D01*
X166863285Y-120109714D01*
X166934714Y-120252571D01*
X167006142Y-120324000D01*
X167149000Y-120395428D01*
X167434714Y-120395428D01*
X167577571Y-120466857D01*
X167649000Y-120538285D01*
X167720428Y-120681142D01*
X167720428Y-120966857D01*
X167649000Y-121109714D01*
X167577571Y-121181142D01*
X167434714Y-121252571D01*
X167149000Y-121252571D01*
X167006142Y-121181142D01*
X166934714Y-121109714D01*
X166863285Y-120966857D01*
X166863285Y-120681142D01*
X166934714Y-120538285D01*
X167006142Y-120466857D01*
X167149000Y-120395428D01*
X165506142Y-119752571D02*
X166220428Y-119752571D01*
X166291857Y-120466857D01*
X166220428Y-120395428D01*
X166077571Y-120324000D01*
X165720428Y-120324000D01*
X165577571Y-120395428D01*
X165506142Y-120466857D01*
X165434714Y-120609714D01*
X165434714Y-120966857D01*
X165506142Y-121109714D01*
X165577571Y-121181142D01*
X165720428Y-121252571D01*
X166077571Y-121252571D01*
X166220428Y-121181142D01*
X166291857Y-121109714D01*
X165149000Y-121395428D02*
X164006142Y-121395428D01*
X163649000Y-121252571D02*
X163649000Y-119752571D01*
X162791857Y-121252571D01*
X162791857Y-119752571D01*
X171113285Y-118712571D02*
X171613285Y-117998285D01*
X171970428Y-118712571D02*
X171970428Y-117212571D01*
X171399000Y-117212571D01*
X171256142Y-117284000D01*
X171184714Y-117355428D01*
X171113285Y-117498285D01*
X171113285Y-117712571D01*
X171184714Y-117855428D01*
X171256142Y-117926857D01*
X171399000Y-117998285D01*
X171970428Y-117998285D01*
X170541857Y-118641142D02*
X170327571Y-118712571D01*
X169970428Y-118712571D01*
X169827571Y-118641142D01*
X169756142Y-118569714D01*
X169684714Y-118426857D01*
X169684714Y-118284000D01*
X169756142Y-118141142D01*
X169827571Y-118069714D01*
X169970428Y-117998285D01*
X170256142Y-117926857D01*
X170399000Y-117855428D01*
X170470428Y-117784000D01*
X170541857Y-117641142D01*
X170541857Y-117498285D01*
X170470428Y-117355428D01*
X170399000Y-117284000D01*
X170256142Y-117212571D01*
X169899000Y-117212571D01*
X169684714Y-117284000D01*
X168399000Y-117712571D02*
X168399000Y-118712571D01*
X168756142Y-117141142D02*
X169113285Y-118212571D01*
X168184714Y-118212571D01*
X167399000Y-117855428D02*
X167541857Y-117784000D01*
X167613285Y-117712571D01*
X167684714Y-117569714D01*
X167684714Y-117498285D01*
X167613285Y-117355428D01*
X167541857Y-117284000D01*
X167399000Y-117212571D01*
X167113285Y-117212571D01*
X166970428Y-117284000D01*
X166899000Y-117355428D01*
X166827571Y-117498285D01*
X166827571Y-117569714D01*
X166899000Y-117712571D01*
X166970428Y-117784000D01*
X167113285Y-117855428D01*
X167399000Y-117855428D01*
X167541857Y-117926857D01*
X167613285Y-117998285D01*
X167684714Y-118141142D01*
X167684714Y-118426857D01*
X167613285Y-118569714D01*
X167541857Y-118641142D01*
X167399000Y-118712571D01*
X167113285Y-118712571D01*
X166970428Y-118641142D01*
X166899000Y-118569714D01*
X166827571Y-118426857D01*
X166827571Y-118141142D01*
X166899000Y-117998285D01*
X166970428Y-117926857D01*
X167113285Y-117855428D01*
X165470428Y-117212571D02*
X166184714Y-117212571D01*
X166256142Y-117926857D01*
X166184714Y-117855428D01*
X166041857Y-117784000D01*
X165684714Y-117784000D01*
X165541857Y-117855428D01*
X165470428Y-117926857D01*
X165399000Y-118069714D01*
X165399000Y-118426857D01*
X165470428Y-118569714D01*
X165541857Y-118641142D01*
X165684714Y-118712571D01*
X166041857Y-118712571D01*
X166184714Y-118641142D01*
X166256142Y-118569714D01*
X165113285Y-118855428D02*
X163970428Y-118855428D01*
X163613285Y-118712571D02*
X163613285Y-117212571D01*
X163041857Y-117212571D01*
X162899000Y-117284000D01*
X162827571Y-117355428D01*
X162756142Y-117498285D01*
X162756142Y-117712571D01*
X162827571Y-117855428D01*
X162899000Y-117926857D01*
X163041857Y-117998285D01*
X163613285Y-117998285D01*
X171208857Y-114744000D02*
X171351714Y-114672571D01*
X171566000Y-114672571D01*
X171780285Y-114744000D01*
X171923142Y-114886857D01*
X171994571Y-115029714D01*
X172066000Y-115315428D01*
X172066000Y-115529714D01*
X171994571Y-115815428D01*
X171923142Y-115958285D01*
X171780285Y-116101142D01*
X171566000Y-116172571D01*
X171423142Y-116172571D01*
X171208857Y-116101142D01*
X171137428Y-116029714D01*
X171137428Y-115529714D01*
X171423142Y-115529714D01*
X170494571Y-116172571D02*
X170494571Y-114672571D01*
X169637428Y-116172571D01*
X169637428Y-114672571D01*
X168923142Y-116172571D02*
X168923142Y-114672571D01*
X168566000Y-114672571D01*
X168351714Y-114744000D01*
X168208857Y-114886857D01*
X168137428Y-115029714D01*
X168066000Y-115315428D01*
X168066000Y-115529714D01*
X168137428Y-115815428D01*
X168208857Y-115958285D01*
X168351714Y-116101142D01*
X168566000Y-116172571D01*
X168923142Y-116172571D01*
X137752000Y-113632571D02*
X137752000Y-112132571D01*
X137752000Y-113561142D02*
X137894857Y-113632571D01*
X138180571Y-113632571D01*
X138323428Y-113561142D01*
X138394857Y-113489714D01*
X138466285Y-113346857D01*
X138466285Y-112918285D01*
X138394857Y-112775428D01*
X138323428Y-112704000D01*
X138180571Y-112632571D01*
X137894857Y-112632571D01*
X137752000Y-112704000D01*
X136394857Y-113632571D02*
X136394857Y-112846857D01*
X136466285Y-112704000D01*
X136609142Y-112632571D01*
X136894857Y-112632571D01*
X137037714Y-112704000D01*
X136394857Y-113561142D02*
X136537714Y-113632571D01*
X136894857Y-113632571D01*
X137037714Y-113561142D01*
X137109142Y-113418285D01*
X137109142Y-113275428D01*
X137037714Y-113132571D01*
X136894857Y-113061142D01*
X136537714Y-113061142D01*
X136394857Y-112989714D01*
X135680571Y-113632571D02*
X135680571Y-112632571D01*
X135680571Y-112132571D02*
X135752000Y-112204000D01*
X135680571Y-112275428D01*
X135609142Y-112204000D01*
X135680571Y-112132571D01*
X135680571Y-112275428D01*
X135037714Y-113561142D02*
X134894857Y-113632571D01*
X134609142Y-113632571D01*
X134466285Y-113561142D01*
X134394857Y-113418285D01*
X134394857Y-113346857D01*
X134466285Y-113204000D01*
X134609142Y-113132571D01*
X134823428Y-113132571D01*
X134966285Y-113061142D01*
X135037714Y-112918285D01*
X135037714Y-112846857D01*
X134966285Y-112704000D01*
X134823428Y-112632571D01*
X134609142Y-112632571D01*
X134466285Y-112704000D01*
X133894857Y-112632571D02*
X133537714Y-113632571D01*
X133180571Y-112632571D02*
X133537714Y-113632571D01*
X133680571Y-113989714D01*
X133752000Y-114061142D01*
X133894857Y-114132571D01*
X131466285Y-113632571D02*
X131466285Y-112632571D01*
X131466285Y-112132571D02*
X131537714Y-112204000D01*
X131466285Y-112275428D01*
X131394857Y-112204000D01*
X131466285Y-112132571D01*
X131466285Y-112275428D01*
X130752000Y-112632571D02*
X130752000Y-113632571D01*
X130752000Y-112775428D02*
X130680571Y-112704000D01*
X130537714Y-112632571D01*
X130323428Y-112632571D01*
X130180571Y-112704000D01*
X130109142Y-112846857D01*
X130109142Y-113632571D01*
X171252142Y-111092571D02*
X171252142Y-109592571D01*
X171252142Y-111021142D02*
X171395000Y-111092571D01*
X171680714Y-111092571D01*
X171823571Y-111021142D01*
X171895000Y-110949714D01*
X171966428Y-110806857D01*
X171966428Y-110378285D01*
X171895000Y-110235428D01*
X171823571Y-110164000D01*
X171680714Y-110092571D01*
X171395000Y-110092571D01*
X171252142Y-110164000D01*
X169895000Y-111092571D02*
X169895000Y-110306857D01*
X169966428Y-110164000D01*
X170109285Y-110092571D01*
X170395000Y-110092571D01*
X170537857Y-110164000D01*
X169895000Y-111021142D02*
X170037857Y-111092571D01*
X170395000Y-111092571D01*
X170537857Y-111021142D01*
X170609285Y-110878285D01*
X170609285Y-110735428D01*
X170537857Y-110592571D01*
X170395000Y-110521142D01*
X170037857Y-110521142D01*
X169895000Y-110449714D01*
X169180714Y-111092571D02*
X169180714Y-110092571D01*
X169180714Y-109592571D02*
X169252142Y-109664000D01*
X169180714Y-109735428D01*
X169109285Y-109664000D01*
X169180714Y-109592571D01*
X169180714Y-109735428D01*
X168537857Y-111021142D02*
X168395000Y-111092571D01*
X168109285Y-111092571D01*
X167966428Y-111021142D01*
X167895000Y-110878285D01*
X167895000Y-110806857D01*
X167966428Y-110664000D01*
X168109285Y-110592571D01*
X168323571Y-110592571D01*
X168466428Y-110521142D01*
X168537857Y-110378285D01*
X168537857Y-110306857D01*
X168466428Y-110164000D01*
X168323571Y-110092571D01*
X168109285Y-110092571D01*
X167966428Y-110164000D01*
X167395000Y-110092571D02*
X167037857Y-111092571D01*
X166680714Y-110092571D02*
X167037857Y-111092571D01*
X167180714Y-111449714D01*
X167252142Y-111521142D01*
X167395000Y-111592571D01*
X164323571Y-111021142D02*
X164466428Y-111092571D01*
X164752142Y-111092571D01*
X164895000Y-111021142D01*
X164966428Y-110949714D01*
X165037857Y-110806857D01*
X165037857Y-110378285D01*
X164966428Y-110235428D01*
X164895000Y-110164000D01*
X164752142Y-110092571D01*
X164466428Y-110092571D01*
X164323571Y-110164000D01*
X163466428Y-111092571D02*
X163609285Y-111021142D01*
X163680714Y-110878285D01*
X163680714Y-109592571D01*
X162895000Y-111092571D02*
X162895000Y-109592571D01*
X162752142Y-110521142D02*
X162323571Y-111092571D01*
X162323571Y-110092571D02*
X162895000Y-110664000D01*
X171307714Y-108552571D02*
X171307714Y-107052571D01*
X171307714Y-108481142D02*
X171450571Y-108552571D01*
X171736285Y-108552571D01*
X171879142Y-108481142D01*
X171950571Y-108409714D01*
X172022000Y-108266857D01*
X172022000Y-107838285D01*
X171950571Y-107695428D01*
X171879142Y-107624000D01*
X171736285Y-107552571D01*
X171450571Y-107552571D01*
X171307714Y-107624000D01*
X169950571Y-108552571D02*
X169950571Y-107766857D01*
X170022000Y-107624000D01*
X170164857Y-107552571D01*
X170450571Y-107552571D01*
X170593428Y-107624000D01*
X169950571Y-108481142D02*
X170093428Y-108552571D01*
X170450571Y-108552571D01*
X170593428Y-108481142D01*
X170664857Y-108338285D01*
X170664857Y-108195428D01*
X170593428Y-108052571D01*
X170450571Y-107981142D01*
X170093428Y-107981142D01*
X169950571Y-107909714D01*
X169236285Y-108552571D02*
X169236285Y-107552571D01*
X169236285Y-107052571D02*
X169307714Y-107124000D01*
X169236285Y-107195428D01*
X169164857Y-107124000D01*
X169236285Y-107052571D01*
X169236285Y-107195428D01*
X168593428Y-108481142D02*
X168450571Y-108552571D01*
X168164857Y-108552571D01*
X168022000Y-108481142D01*
X167950571Y-108338285D01*
X167950571Y-108266857D01*
X168022000Y-108124000D01*
X168164857Y-108052571D01*
X168379142Y-108052571D01*
X168522000Y-107981142D01*
X168593428Y-107838285D01*
X168593428Y-107766857D01*
X168522000Y-107624000D01*
X168379142Y-107552571D01*
X168164857Y-107552571D01*
X168022000Y-107624000D01*
X167450571Y-107552571D02*
X167093428Y-108552571D01*
X166736285Y-107552571D02*
X167093428Y-108552571D01*
X167236285Y-108909714D01*
X167307714Y-108981142D01*
X167450571Y-109052571D01*
X165022000Y-108552571D02*
X165022000Y-107552571D01*
X165022000Y-107838285D02*
X164950571Y-107695428D01*
X164879142Y-107624000D01*
X164736285Y-107552571D01*
X164593428Y-107552571D01*
X164307714Y-107552571D02*
X163736285Y-107552571D01*
X164093428Y-107052571D02*
X164093428Y-108338285D01*
X164022000Y-108481142D01*
X163879142Y-108552571D01*
X163736285Y-108552571D01*
X163236285Y-107552571D02*
X163236285Y-108552571D01*
X163236285Y-107695428D02*
X163164857Y-107624000D01*
X163022000Y-107552571D01*
X162807714Y-107552571D01*
X162664857Y-107624000D01*
X162593428Y-107766857D01*
X162593428Y-108552571D01*
X171859571Y-106012571D02*
X171859571Y-105012571D01*
X171859571Y-105298285D02*
X171788142Y-105155428D01*
X171716714Y-105084000D01*
X171573857Y-105012571D01*
X171431000Y-105012571D01*
X170359571Y-105941142D02*
X170502428Y-106012571D01*
X170788142Y-106012571D01*
X170931000Y-105941142D01*
X171002428Y-105798285D01*
X171002428Y-105226857D01*
X170931000Y-105084000D01*
X170788142Y-105012571D01*
X170502428Y-105012571D01*
X170359571Y-105084000D01*
X170288142Y-105226857D01*
X170288142Y-105369714D01*
X171002428Y-105512571D01*
X169716714Y-105941142D02*
X169573857Y-106012571D01*
X169288142Y-106012571D01*
X169145285Y-105941142D01*
X169073857Y-105798285D01*
X169073857Y-105726857D01*
X169145285Y-105584000D01*
X169288142Y-105512571D01*
X169502428Y-105512571D01*
X169645285Y-105441142D01*
X169716714Y-105298285D01*
X169716714Y-105226857D01*
X169645285Y-105084000D01*
X169502428Y-105012571D01*
X169288142Y-105012571D01*
X169145285Y-105084000D01*
X167859571Y-105941142D02*
X168002428Y-106012571D01*
X168288142Y-106012571D01*
X168431000Y-105941142D01*
X168502428Y-105798285D01*
X168502428Y-105226857D01*
X168431000Y-105084000D01*
X168288142Y-105012571D01*
X168002428Y-105012571D01*
X167859571Y-105084000D01*
X167788142Y-105226857D01*
X167788142Y-105369714D01*
X168502428Y-105512571D01*
X167359571Y-105012571D02*
X166788142Y-105012571D01*
X167145285Y-104512571D02*
X167145285Y-105798285D01*
X167073857Y-105941142D01*
X166931000Y-106012571D01*
X166788142Y-106012571D01*
D12*
G36*
X172071251Y-81596036D02*
X172027456Y-81612972D01*
X171960707Y-81646601D01*
X171864863Y-81699334D01*
X171857401Y-81703525D01*
X171769129Y-81754001D01*
X171694637Y-81798223D01*
X171641240Y-81831731D01*
X171616254Y-81850064D01*
X171615555Y-81850962D01*
X171621591Y-81876414D01*
X171649277Y-81933255D01*
X171696812Y-82018389D01*
X171762389Y-82128717D01*
X171844203Y-82261144D01*
X171940452Y-82412571D01*
X171964406Y-82449707D01*
X172026817Y-82552757D01*
X172072263Y-82641432D01*
X172096754Y-82707714D01*
X172099267Y-82720807D01*
X172098152Y-82778443D01*
X172085657Y-82869865D01*
X172063340Y-82989208D01*
X172032760Y-83130609D01*
X171995472Y-83288203D01*
X171953035Y-83456126D01*
X171907006Y-83628514D01*
X171858943Y-83799501D01*
X171810403Y-83963224D01*
X171762943Y-84113818D01*
X171718122Y-84245420D01*
X171677497Y-84352163D01*
X171649177Y-84415494D01*
X171615817Y-84482957D01*
X171584318Y-84547511D01*
X171582613Y-84551045D01*
X171530502Y-84616250D01*
X171454446Y-84660156D01*
X171365908Y-84681197D01*
X171276352Y-84677807D01*
X171197242Y-84648423D01*
X171152736Y-84609736D01*
X171088644Y-84503636D01*
X171041678Y-84371405D01*
X171015910Y-84226527D01*
X171012259Y-84144394D01*
X171026961Y-83991105D01*
X171070110Y-83864166D01*
X171144028Y-83757418D01*
X171167079Y-83733657D01*
X171235675Y-83667009D01*
X171240386Y-83195916D01*
X171245097Y-82724822D01*
X171125054Y-82543106D01*
X171068723Y-82460856D01*
X171014472Y-82386865D01*
X170970041Y-82331448D01*
X170950944Y-82311056D01*
X170896876Y-82260723D01*
X170823650Y-82300158D01*
X170777367Y-82328415D01*
X170752043Y-82350354D01*
X170750424Y-82354299D01*
X170733116Y-82371023D01*
X170703503Y-82383476D01*
X170674886Y-82394700D01*
X170631066Y-82416024D01*
X170568282Y-82449529D01*
X170482772Y-82497296D01*
X170370774Y-82561407D01*
X170228527Y-82643944D01*
X170151227Y-82689065D01*
X170060298Y-82743111D01*
X170000661Y-82781604D01*
X169967039Y-82809044D01*
X169954156Y-82829934D01*
X169956735Y-82848775D01*
X169958885Y-82853152D01*
X169979803Y-82880714D01*
X170024560Y-82932416D01*
X170087943Y-83002475D01*
X170164738Y-83085107D01*
X170231156Y-83155156D01*
X170384210Y-83321414D01*
X170503944Y-83465519D01*
X170591427Y-83588921D01*
X170647726Y-83693068D01*
X170666716Y-83745954D01*
X170674560Y-83792250D01*
X170682662Y-83871221D01*
X170690309Y-83973846D01*
X170696788Y-84091103D01*
X170699837Y-84165248D01*
X170704092Y-84293427D01*
X170705964Y-84387138D01*
X170704901Y-84453583D01*
X170700354Y-84499961D01*
X170691773Y-84533474D01*
X170678606Y-84561321D01*
X170668265Y-84578324D01*
X170608544Y-84643862D01*
X170531589Y-84689532D01*
X170450620Y-84709450D01*
X170389942Y-84702244D01*
X170335001Y-84671066D01*
X170266133Y-84615230D01*
X170192995Y-84544474D01*
X170125248Y-84468537D01*
X170072550Y-84397159D01*
X170053147Y-84362668D01*
X170024081Y-84315441D01*
X169971217Y-84243506D01*
X169899384Y-84152485D01*
X169813412Y-84048000D01*
X169718132Y-83935675D01*
X169618373Y-83821130D01*
X169518966Y-83709990D01*
X169424741Y-83607875D01*
X169340527Y-83520408D01*
X169274409Y-83456198D01*
X169201001Y-83392057D01*
X169139247Y-83344763D01*
X169095934Y-83319235D01*
X169081555Y-83316429D01*
X169059521Y-83327752D01*
X169004562Y-83358144D01*
X168919848Y-83405780D01*
X168808552Y-83468835D01*
X168673844Y-83545485D01*
X168518897Y-83633905D01*
X168346881Y-83732270D01*
X168160968Y-83838756D01*
X167964330Y-83951537D01*
X167760137Y-84068789D01*
X167551561Y-84188687D01*
X167341775Y-84309407D01*
X167133948Y-84429123D01*
X166931253Y-84546011D01*
X166736860Y-84658246D01*
X166553942Y-84764004D01*
X166385670Y-84861460D01*
X166235215Y-84948788D01*
X166105749Y-85024165D01*
X166000443Y-85085765D01*
X165922468Y-85131764D01*
X165874996Y-85160337D01*
X165861237Y-85169304D01*
X165879769Y-85171076D01*
X165938067Y-85172799D01*
X166034191Y-85174464D01*
X166166201Y-85176063D01*
X166332154Y-85177587D01*
X166530111Y-85179029D01*
X166758130Y-85180380D01*
X167014271Y-85181632D01*
X167296592Y-85182776D01*
X167603153Y-85183804D01*
X167932013Y-85184708D01*
X168281231Y-85185479D01*
X168648865Y-85186109D01*
X169032976Y-85186590D01*
X169431623Y-85186914D01*
X169842863Y-85187072D01*
X170015420Y-85187087D01*
X174189414Y-85187087D01*
X173891732Y-84670954D01*
X173828714Y-84561665D01*
X173747594Y-84420940D01*
X173651084Y-84253486D01*
X173541897Y-84064012D01*
X173422745Y-83857223D01*
X173296340Y-83637828D01*
X173165395Y-83410533D01*
X173032621Y-83180046D01*
X172900731Y-82951073D01*
X172867376Y-82893163D01*
X172745753Y-82682232D01*
X172629772Y-82481535D01*
X172521175Y-82294059D01*
X172421706Y-82122792D01*
X172333108Y-81970723D01*
X172257122Y-81840838D01*
X172195493Y-81736125D01*
X172149963Y-81659573D01*
X172122275Y-81614169D01*
X172114528Y-81602609D01*
X172098228Y-81593385D01*
X172071251Y-81596036D01*
X172071251Y-81596036D01*
G37*
X172071251Y-81596036D02*
X172027456Y-81612972D01*
X171960707Y-81646601D01*
X171864863Y-81699334D01*
X171857401Y-81703525D01*
X171769129Y-81754001D01*
X171694637Y-81798223D01*
X171641240Y-81831731D01*
X171616254Y-81850064D01*
X171615555Y-81850962D01*
X171621591Y-81876414D01*
X171649277Y-81933255D01*
X171696812Y-82018389D01*
X171762389Y-82128717D01*
X171844203Y-82261144D01*
X171940452Y-82412571D01*
X171964406Y-82449707D01*
X172026817Y-82552757D01*
X172072263Y-82641432D01*
X172096754Y-82707714D01*
X172099267Y-82720807D01*
X172098152Y-82778443D01*
X172085657Y-82869865D01*
X172063340Y-82989208D01*
X172032760Y-83130609D01*
X171995472Y-83288203D01*
X171953035Y-83456126D01*
X171907006Y-83628514D01*
X171858943Y-83799501D01*
X171810403Y-83963224D01*
X171762943Y-84113818D01*
X171718122Y-84245420D01*
X171677497Y-84352163D01*
X171649177Y-84415494D01*
X171615817Y-84482957D01*
X171584318Y-84547511D01*
X171582613Y-84551045D01*
X171530502Y-84616250D01*
X171454446Y-84660156D01*
X171365908Y-84681197D01*
X171276352Y-84677807D01*
X171197242Y-84648423D01*
X171152736Y-84609736D01*
X171088644Y-84503636D01*
X171041678Y-84371405D01*
X171015910Y-84226527D01*
X171012259Y-84144394D01*
X171026961Y-83991105D01*
X171070110Y-83864166D01*
X171144028Y-83757418D01*
X171167079Y-83733657D01*
X171235675Y-83667009D01*
X171240386Y-83195916D01*
X171245097Y-82724822D01*
X171125054Y-82543106D01*
X171068723Y-82460856D01*
X171014472Y-82386865D01*
X170970041Y-82331448D01*
X170950944Y-82311056D01*
X170896876Y-82260723D01*
X170823650Y-82300158D01*
X170777367Y-82328415D01*
X170752043Y-82350354D01*
X170750424Y-82354299D01*
X170733116Y-82371023D01*
X170703503Y-82383476D01*
X170674886Y-82394700D01*
X170631066Y-82416024D01*
X170568282Y-82449529D01*
X170482772Y-82497296D01*
X170370774Y-82561407D01*
X170228527Y-82643944D01*
X170151227Y-82689065D01*
X170060298Y-82743111D01*
X170000661Y-82781604D01*
X169967039Y-82809044D01*
X169954156Y-82829934D01*
X169956735Y-82848775D01*
X169958885Y-82853152D01*
X169979803Y-82880714D01*
X170024560Y-82932416D01*
X170087943Y-83002475D01*
X170164738Y-83085107D01*
X170231156Y-83155156D01*
X170384210Y-83321414D01*
X170503944Y-83465519D01*
X170591427Y-83588921D01*
X170647726Y-83693068D01*
X170666716Y-83745954D01*
X170674560Y-83792250D01*
X170682662Y-83871221D01*
X170690309Y-83973846D01*
X170696788Y-84091103D01*
X170699837Y-84165248D01*
X170704092Y-84293427D01*
X170705964Y-84387138D01*
X170704901Y-84453583D01*
X170700354Y-84499961D01*
X170691773Y-84533474D01*
X170678606Y-84561321D01*
X170668265Y-84578324D01*
X170608544Y-84643862D01*
X170531589Y-84689532D01*
X170450620Y-84709450D01*
X170389942Y-84702244D01*
X170335001Y-84671066D01*
X170266133Y-84615230D01*
X170192995Y-84544474D01*
X170125248Y-84468537D01*
X170072550Y-84397159D01*
X170053147Y-84362668D01*
X170024081Y-84315441D01*
X169971217Y-84243506D01*
X169899384Y-84152485D01*
X169813412Y-84048000D01*
X169718132Y-83935675D01*
X169618373Y-83821130D01*
X169518966Y-83709990D01*
X169424741Y-83607875D01*
X169340527Y-83520408D01*
X169274409Y-83456198D01*
X169201001Y-83392057D01*
X169139247Y-83344763D01*
X169095934Y-83319235D01*
X169081555Y-83316429D01*
X169059521Y-83327752D01*
X169004562Y-83358144D01*
X168919848Y-83405780D01*
X168808552Y-83468835D01*
X168673844Y-83545485D01*
X168518897Y-83633905D01*
X168346881Y-83732270D01*
X168160968Y-83838756D01*
X167964330Y-83951537D01*
X167760137Y-84068789D01*
X167551561Y-84188687D01*
X167341775Y-84309407D01*
X167133948Y-84429123D01*
X166931253Y-84546011D01*
X166736860Y-84658246D01*
X166553942Y-84764004D01*
X166385670Y-84861460D01*
X166235215Y-84948788D01*
X166105749Y-85024165D01*
X166000443Y-85085765D01*
X165922468Y-85131764D01*
X165874996Y-85160337D01*
X165861237Y-85169304D01*
X165879769Y-85171076D01*
X165938067Y-85172799D01*
X166034191Y-85174464D01*
X166166201Y-85176063D01*
X166332154Y-85177587D01*
X166530111Y-85179029D01*
X166758130Y-85180380D01*
X167014271Y-85181632D01*
X167296592Y-85182776D01*
X167603153Y-85183804D01*
X167932013Y-85184708D01*
X168281231Y-85185479D01*
X168648865Y-85186109D01*
X169032976Y-85186590D01*
X169431623Y-85186914D01*
X169842863Y-85187072D01*
X170015420Y-85187087D01*
X174189414Y-85187087D01*
X173891732Y-84670954D01*
X173828714Y-84561665D01*
X173747594Y-84420940D01*
X173651084Y-84253486D01*
X173541897Y-84064012D01*
X173422745Y-83857223D01*
X173296340Y-83637828D01*
X173165395Y-83410533D01*
X173032621Y-83180046D01*
X172900731Y-82951073D01*
X172867376Y-82893163D01*
X172745753Y-82682232D01*
X172629772Y-82481535D01*
X172521175Y-82294059D01*
X172421706Y-82122792D01*
X172333108Y-81970723D01*
X172257122Y-81840838D01*
X172195493Y-81736125D01*
X172149963Y-81659573D01*
X172122275Y-81614169D01*
X172114528Y-81602609D01*
X172098228Y-81593385D01*
X172071251Y-81596036D01*
G36*
X167135854Y-81519908D02*
X167120531Y-81545590D01*
X167086089Y-81604469D01*
X167034231Y-81693602D01*
X166966660Y-81810049D01*
X166885079Y-81950867D01*
X166791191Y-82113114D01*
X166686701Y-82293849D01*
X166573310Y-82490130D01*
X166452722Y-82699016D01*
X166328687Y-82914017D01*
X166202013Y-83133649D01*
X166080392Y-83344495D01*
X165965588Y-83543499D01*
X165859362Y-83727607D01*
X165763477Y-83893765D01*
X165679698Y-84038917D01*
X165609786Y-84160009D01*
X165555504Y-84253988D01*
X165518615Y-84317797D01*
X165501269Y-84347719D01*
X165472993Y-84398271D01*
X165457618Y-84429914D01*
X165456776Y-84435420D01*
X165475512Y-84425082D01*
X165527614Y-84395407D01*
X165610360Y-84347968D01*
X165721025Y-84284333D01*
X165856886Y-84206074D01*
X166015219Y-84114759D01*
X166193302Y-84011960D01*
X166388410Y-83899247D01*
X166597820Y-83778189D01*
X166818809Y-83650357D01*
X166902887Y-83601702D01*
X167127830Y-83471567D01*
X167342476Y-83347497D01*
X167544068Y-83231077D01*
X167729852Y-83123893D01*
X167897072Y-83027531D01*
X168042973Y-82943578D01*
X168164799Y-82873620D01*
X168259796Y-82819243D01*
X168325208Y-82782034D01*
X168358280Y-82763578D01*
X168361738Y-82761830D01*
X168351661Y-82746005D01*
X168316593Y-82703692D01*
X168260115Y-82638790D01*
X168185807Y-82555196D01*
X168097248Y-82456809D01*
X167998020Y-82347525D01*
X167891702Y-82231244D01*
X167781875Y-82111862D01*
X167672118Y-81993277D01*
X167566012Y-81879388D01*
X167467138Y-81774092D01*
X167379074Y-81681287D01*
X167305401Y-81604870D01*
X167249700Y-81548740D01*
X167230597Y-81530335D01*
X167167292Y-81470872D01*
X167135854Y-81519908D01*
X167135854Y-81519908D01*
G37*
X167135854Y-81519908D02*
X167120531Y-81545590D01*
X167086089Y-81604469D01*
X167034231Y-81693602D01*
X166966660Y-81810049D01*
X166885079Y-81950867D01*
X166791191Y-82113114D01*
X166686701Y-82293849D01*
X166573310Y-82490130D01*
X166452722Y-82699016D01*
X166328687Y-82914017D01*
X166202013Y-83133649D01*
X166080392Y-83344495D01*
X165965588Y-83543499D01*
X165859362Y-83727607D01*
X165763477Y-83893765D01*
X165679698Y-84038917D01*
X165609786Y-84160009D01*
X165555504Y-84253988D01*
X165518615Y-84317797D01*
X165501269Y-84347719D01*
X165472993Y-84398271D01*
X165457618Y-84429914D01*
X165456776Y-84435420D01*
X165475512Y-84425082D01*
X165527614Y-84395407D01*
X165610360Y-84347968D01*
X165721025Y-84284333D01*
X165856886Y-84206074D01*
X166015219Y-84114759D01*
X166193302Y-84011960D01*
X166388410Y-83899247D01*
X166597820Y-83778189D01*
X166818809Y-83650357D01*
X166902887Y-83601702D01*
X167127830Y-83471567D01*
X167342476Y-83347497D01*
X167544068Y-83231077D01*
X167729852Y-83123893D01*
X167897072Y-83027531D01*
X168042973Y-82943578D01*
X168164799Y-82873620D01*
X168259796Y-82819243D01*
X168325208Y-82782034D01*
X168358280Y-82763578D01*
X168361738Y-82761830D01*
X168351661Y-82746005D01*
X168316593Y-82703692D01*
X168260115Y-82638790D01*
X168185807Y-82555196D01*
X168097248Y-82456809D01*
X167998020Y-82347525D01*
X167891702Y-82231244D01*
X167781875Y-82111862D01*
X167672118Y-81993277D01*
X167566012Y-81879388D01*
X167467138Y-81774092D01*
X167379074Y-81681287D01*
X167305401Y-81604870D01*
X167249700Y-81548740D01*
X167230597Y-81530335D01*
X167167292Y-81470872D01*
X167135854Y-81519908D01*
G36*
X169591122Y-77280166D02*
X169560124Y-77330538D01*
X169512366Y-77410341D01*
X169449806Y-77516180D01*
X169374403Y-77644659D01*
X169288115Y-77792384D01*
X169192899Y-77955958D01*
X169090715Y-78131987D01*
X168983519Y-78317075D01*
X168873271Y-78507827D01*
X168761929Y-78700847D01*
X168651450Y-78892741D01*
X168543793Y-79080111D01*
X168440916Y-79259565D01*
X168344777Y-79427705D01*
X168257335Y-79581137D01*
X168180547Y-79716465D01*
X168116372Y-79830294D01*
X168066767Y-79919229D01*
X168033691Y-79979874D01*
X168019103Y-80008833D01*
X168018569Y-80010644D01*
X168036679Y-80035217D01*
X168087020Y-80072807D01*
X168163605Y-80119722D01*
X168260448Y-80172274D01*
X168361833Y-80222213D01*
X168499785Y-80282769D01*
X168644858Y-80337179D01*
X168802050Y-80386651D01*
X168976357Y-80432395D01*
X169172778Y-80475620D01*
X169396311Y-80517534D01*
X169651952Y-80559347D01*
X169916394Y-80598284D01*
X170146148Y-80632828D01*
X170339083Y-80667026D01*
X170500036Y-80702577D01*
X170633845Y-80741182D01*
X170745350Y-80784539D01*
X170839386Y-80834348D01*
X170920794Y-80892309D01*
X170994410Y-80960120D01*
X171018149Y-80985312D01*
X171069603Y-81043958D01*
X171107666Y-81091815D01*
X171125323Y-81119958D01*
X171125794Y-81122265D01*
X171131972Y-81136416D01*
X171153410Y-81136575D01*
X171194467Y-81120861D01*
X171259499Y-81087391D01*
X171352863Y-81034281D01*
X171417748Y-80996088D01*
X171514499Y-80936385D01*
X171589688Y-80885263D01*
X171638261Y-80846399D01*
X171655165Y-80823472D01*
X171655155Y-80823305D01*
X171644672Y-80801456D01*
X171615069Y-80746739D01*
X171568062Y-80662136D01*
X171505371Y-80550629D01*
X171428714Y-80415201D01*
X171339809Y-80258833D01*
X171240374Y-80084507D01*
X171132128Y-79895206D01*
X171016789Y-79693911D01*
X170896076Y-79483605D01*
X170771706Y-79267271D01*
X170645399Y-79047889D01*
X170518873Y-78828442D01*
X170393845Y-78611912D01*
X170272035Y-78401281D01*
X170155161Y-78199532D01*
X170044940Y-78009647D01*
X169943092Y-77834606D01*
X169851335Y-77677394D01*
X169771387Y-77540991D01*
X169704966Y-77428380D01*
X169653791Y-77342543D01*
X169619580Y-77286462D01*
X169604052Y-77263119D01*
X169603402Y-77262621D01*
X169591122Y-77280166D01*
X169591122Y-77280166D01*
G37*
X169591122Y-77280166D02*
X169560124Y-77330538D01*
X169512366Y-77410341D01*
X169449806Y-77516180D01*
X169374403Y-77644659D01*
X169288115Y-77792384D01*
X169192899Y-77955958D01*
X169090715Y-78131987D01*
X168983519Y-78317075D01*
X168873271Y-78507827D01*
X168761929Y-78700847D01*
X168651450Y-78892741D01*
X168543793Y-79080111D01*
X168440916Y-79259565D01*
X168344777Y-79427705D01*
X168257335Y-79581137D01*
X168180547Y-79716465D01*
X168116372Y-79830294D01*
X168066767Y-79919229D01*
X168033691Y-79979874D01*
X168019103Y-80008833D01*
X168018569Y-80010644D01*
X168036679Y-80035217D01*
X168087020Y-80072807D01*
X168163605Y-80119722D01*
X168260448Y-80172274D01*
X168361833Y-80222213D01*
X168499785Y-80282769D01*
X168644858Y-80337179D01*
X168802050Y-80386651D01*
X168976357Y-80432395D01*
X169172778Y-80475620D01*
X169396311Y-80517534D01*
X169651952Y-80559347D01*
X169916394Y-80598284D01*
X170146148Y-80632828D01*
X170339083Y-80667026D01*
X170500036Y-80702577D01*
X170633845Y-80741182D01*
X170745350Y-80784539D01*
X170839386Y-80834348D01*
X170920794Y-80892309D01*
X170994410Y-80960120D01*
X171018149Y-80985312D01*
X171069603Y-81043958D01*
X171107666Y-81091815D01*
X171125323Y-81119958D01*
X171125794Y-81122265D01*
X171131972Y-81136416D01*
X171153410Y-81136575D01*
X171194467Y-81120861D01*
X171259499Y-81087391D01*
X171352863Y-81034281D01*
X171417748Y-80996088D01*
X171514499Y-80936385D01*
X171589688Y-80885263D01*
X171638261Y-80846399D01*
X171655165Y-80823472D01*
X171655155Y-80823305D01*
X171644672Y-80801456D01*
X171615069Y-80746739D01*
X171568062Y-80662136D01*
X171505371Y-80550629D01*
X171428714Y-80415201D01*
X171339809Y-80258833D01*
X171240374Y-80084507D01*
X171132128Y-79895206D01*
X171016789Y-79693911D01*
X170896076Y-79483605D01*
X170771706Y-79267271D01*
X170645399Y-79047889D01*
X170518873Y-78828442D01*
X170393845Y-78611912D01*
X170272035Y-78401281D01*
X170155161Y-78199532D01*
X170044940Y-78009647D01*
X169943092Y-77834606D01*
X169851335Y-77677394D01*
X169771387Y-77540991D01*
X169704966Y-77428380D01*
X169653791Y-77342543D01*
X169619580Y-77286462D01*
X169604052Y-77263119D01*
X169603402Y-77262621D01*
X169591122Y-77280166D01*
G36*
X127424178Y-84729822D02*
X130944971Y-84729822D01*
X130944971Y-83862198D01*
X127424178Y-83862198D01*
X127424178Y-84729822D01*
X127424178Y-84729822D01*
G37*
X127424178Y-84729822D02*
X130944971Y-84729822D01*
X130944971Y-83862198D01*
X127424178Y-83862198D01*
X127424178Y-84729822D01*
G36*
X127047570Y-78776848D02*
X127048189Y-78863931D01*
X127499914Y-79322891D01*
X127951639Y-79781852D01*
X127951968Y-79992471D01*
X127952297Y-80203089D01*
X128227390Y-80203089D01*
X128234478Y-80256530D01*
X128237162Y-80280888D01*
X128241687Y-80326759D01*
X128247809Y-80391405D01*
X128255288Y-80472091D01*
X128263881Y-80566081D01*
X128273346Y-80670637D01*
X128283442Y-80783025D01*
X128293926Y-80900507D01*
X128304556Y-81020348D01*
X128315091Y-81139811D01*
X128325287Y-81256159D01*
X128334905Y-81366657D01*
X128343700Y-81468569D01*
X128351432Y-81559158D01*
X128357858Y-81635687D01*
X128362737Y-81695421D01*
X128365825Y-81735624D01*
X128366883Y-81753559D01*
X128366882Y-81753644D01*
X128359173Y-81768035D01*
X128336019Y-81797748D01*
X128297105Y-81843131D01*
X128242116Y-81904529D01*
X128170736Y-81982288D01*
X128082651Y-82076754D01*
X127977546Y-82188272D01*
X127855105Y-82317188D01*
X127820690Y-82353287D01*
X127274863Y-82925416D01*
X127363119Y-83013436D01*
X127434515Y-82935758D01*
X127460634Y-82907686D01*
X127501434Y-82864274D01*
X127554223Y-82808366D01*
X127616309Y-82742808D01*
X127685000Y-82670441D01*
X127757604Y-82594112D01*
X127801040Y-82548524D01*
X127882584Y-82463119D01*
X127948496Y-82394710D01*
X128000456Y-82342053D01*
X128040145Y-82303905D01*
X128069243Y-82279020D01*
X128089431Y-82266156D01*
X128102390Y-82264068D01*
X128109800Y-82271513D01*
X128113342Y-82287246D01*
X128114697Y-82310023D01*
X128114879Y-82316239D01*
X128124297Y-82359061D01*
X128147503Y-82410819D01*
X128179864Y-82463328D01*
X128216748Y-82508403D01*
X128231507Y-82522328D01*
X128307233Y-82571047D01*
X128395692Y-82598306D01*
X128473900Y-82604773D01*
X128562532Y-82592576D01*
X128644388Y-82556813D01*
X128716836Y-82498722D01*
X128730203Y-82484262D01*
X128779082Y-82428733D01*
X129624674Y-82428733D01*
X129624674Y-82604773D01*
X129851010Y-82604773D01*
X129851010Y-82522531D01*
X129853850Y-82466386D01*
X129863393Y-82427416D01*
X129874991Y-82406219D01*
X129883277Y-82391052D01*
X129890373Y-82369062D01*
X129896748Y-82336987D01*
X129902872Y-82291569D01*
X129909216Y-82229548D01*
X129916250Y-82147662D01*
X129921066Y-82086746D01*
X129943161Y-81801343D01*
X130485565Y-82350805D01*
X130583637Y-82450228D01*
X130677784Y-82545815D01*
X130766285Y-82635810D01*
X130847420Y-82718457D01*
X130919469Y-82792001D01*
X130980712Y-82854684D01*
X131029427Y-82904752D01*
X131063896Y-82940448D01*
X131082379Y-82959995D01*
X131112743Y-82990944D01*
X131138071Y-83012530D01*
X131151695Y-83019723D01*
X131169095Y-83011297D01*
X131194460Y-82990245D01*
X131203058Y-82981671D01*
X131239514Y-82943620D01*
X131038802Y-82739658D01*
X130987596Y-82687699D01*
X130921569Y-82620820D01*
X130843618Y-82541950D01*
X130756638Y-82454014D01*
X130663526Y-82359941D01*
X130567179Y-82262658D01*
X130470492Y-82165093D01*
X130401134Y-82095145D01*
X130295703Y-81988550D01*
X130207129Y-81898307D01*
X130134281Y-81823192D01*
X130076023Y-81761986D01*
X130031225Y-81713466D01*
X130009021Y-81688129D01*
X129830724Y-81688129D01*
X129808401Y-81973555D01*
X129801669Y-82057219D01*
X129795157Y-82133727D01*
X129789234Y-82199081D01*
X129784268Y-82249281D01*
X129780629Y-82280329D01*
X129779458Y-82287273D01*
X129772838Y-82315565D01*
X128823364Y-82315565D01*
X128817026Y-82236606D01*
X128797890Y-82143315D01*
X128757846Y-82060791D01*
X128699418Y-81992038D01*
X128625129Y-81940063D01*
X128541748Y-81908863D01*
X128514698Y-81894228D01*
X128501156Y-81862819D01*
X128500872Y-81861434D01*
X128499247Y-81848174D01*
X128501256Y-81834595D01*
X128508858Y-81818181D01*
X128524016Y-81796411D01*
X128548688Y-81766767D01*
X128584836Y-81726732D01*
X128634420Y-81673785D01*
X128699401Y-81605409D01*
X128703599Y-81601005D01*
X128773493Y-81527611D01*
X128847800Y-81449437D01*
X128921414Y-81371864D01*
X128989229Y-81300275D01*
X129046140Y-81240051D01*
X129058832Y-81226587D01*
X129107487Y-81175820D01*
X129150709Y-81132375D01*
X129185395Y-81099241D01*
X129208444Y-81079405D01*
X129216182Y-81075046D01*
X129227722Y-81084170D01*
X129254710Y-81109200D01*
X129295021Y-81148052D01*
X129346529Y-81198643D01*
X129407109Y-81258888D01*
X129474636Y-81326704D01*
X129529826Y-81382565D01*
X129830724Y-81688129D01*
X130009021Y-81688129D01*
X129998751Y-81676411D01*
X129977471Y-81649599D01*
X129966251Y-81631808D01*
X129963754Y-81623570D01*
X129964700Y-81605590D01*
X129967573Y-81564892D01*
X129972187Y-81503819D01*
X129978358Y-81424713D01*
X129985898Y-81329914D01*
X129994621Y-81221767D01*
X130004343Y-81102612D01*
X130014876Y-80974791D01*
X130023365Y-80872635D01*
X130071396Y-80296674D01*
X129947805Y-80296674D01*
X129947273Y-80309104D01*
X129944769Y-80344110D01*
X129940496Y-80399215D01*
X129934653Y-80471943D01*
X129927443Y-80559814D01*
X129919066Y-80660351D01*
X129909723Y-80771077D01*
X129900758Y-80876205D01*
X129890602Y-80995483D01*
X129881142Y-81108080D01*
X129872596Y-81211305D01*
X129865179Y-81302473D01*
X129859108Y-81378895D01*
X129854601Y-81437883D01*
X129851873Y-81476749D01*
X129851116Y-81491844D01*
X129849935Y-81501238D01*
X129845256Y-81504966D01*
X129835276Y-81501471D01*
X129818190Y-81489199D01*
X129792196Y-81466594D01*
X129755490Y-81432100D01*
X129706267Y-81384162D01*
X129642726Y-81321224D01*
X129575305Y-81253968D01*
X129299601Y-80978477D01*
X129301533Y-80976406D01*
X129119290Y-80976406D01*
X129110984Y-80987780D01*
X129087733Y-81014563D01*
X129051865Y-81054292D01*
X129005713Y-81104507D01*
X128951606Y-81162746D01*
X128891874Y-81226547D01*
X128828848Y-81293449D01*
X128764858Y-81360990D01*
X128702236Y-81426710D01*
X128643310Y-81488146D01*
X128590412Y-81542837D01*
X128545872Y-81588322D01*
X128512020Y-81622138D01*
X128491188Y-81641826D01*
X128485506Y-81645837D01*
X128483634Y-81632891D01*
X128479746Y-81597134D01*
X128474057Y-81540804D01*
X128466781Y-81466140D01*
X128458131Y-81375380D01*
X128448322Y-81270762D01*
X128437566Y-81154526D01*
X128426079Y-81028908D01*
X128416907Y-80927618D01*
X128405174Y-80796279D01*
X128394335Y-80672552D01*
X128384570Y-80558681D01*
X128376063Y-80456911D01*
X128368995Y-80369487D01*
X128363549Y-80298653D01*
X128359908Y-80246653D01*
X128358253Y-80215732D01*
X128358442Y-80207703D01*
X128368334Y-80214854D01*
X128393524Y-80237841D01*
X128431810Y-80274439D01*
X128480989Y-80322422D01*
X128538861Y-80379566D01*
X128603222Y-80443647D01*
X128671871Y-80512438D01*
X128742605Y-80583716D01*
X128813222Y-80655255D01*
X128881520Y-80724830D01*
X128945296Y-80790217D01*
X129002350Y-80849191D01*
X129050478Y-80899527D01*
X129087478Y-80938999D01*
X129111148Y-80965383D01*
X129119290Y-80976406D01*
X129301533Y-80976406D01*
X129402409Y-80868295D01*
X129454768Y-80812377D01*
X129513535Y-80749948D01*
X129576385Y-80683443D01*
X129640995Y-80615298D01*
X129705042Y-80547948D01*
X129766203Y-80483828D01*
X129822153Y-80425372D01*
X129870570Y-80375018D01*
X129909130Y-80335198D01*
X129935509Y-80308350D01*
X129947384Y-80296908D01*
X129947805Y-80296674D01*
X130071396Y-80296674D01*
X130083401Y-80152726D01*
X130683938Y-79521158D01*
X131284475Y-78889589D01*
X131284034Y-78801315D01*
X131283592Y-78713040D01*
X131186583Y-78816666D01*
X131132291Y-78874463D01*
X131068192Y-78942368D01*
X130996016Y-79018572D01*
X130917492Y-79101269D01*
X130834349Y-79188653D01*
X130748319Y-79278915D01*
X130661130Y-79370250D01*
X130574513Y-79460849D01*
X130490197Y-79548907D01*
X130409912Y-79632615D01*
X130335387Y-79710167D01*
X130268354Y-79779757D01*
X130210541Y-79839576D01*
X130163679Y-79887818D01*
X130129496Y-79922676D01*
X130109724Y-79942343D01*
X130105390Y-79946116D01*
X130105092Y-79932992D01*
X130106731Y-79899389D01*
X130110023Y-79849880D01*
X130114682Y-79789037D01*
X130116682Y-79764732D01*
X130131577Y-79586951D01*
X130014955Y-79586951D01*
X130008934Y-79615243D01*
X130005863Y-79637618D01*
X130001548Y-79679717D01*
X129996488Y-79736178D01*
X129991181Y-79801635D01*
X129989344Y-79825862D01*
X129983927Y-79895421D01*
X129978459Y-79960018D01*
X129973488Y-80013548D01*
X129969561Y-80049910D01*
X129968675Y-80056509D01*
X129965334Y-80070056D01*
X129958101Y-80085914D01*
X129945440Y-80105861D01*
X129925811Y-80131673D01*
X129897678Y-80165129D01*
X129859502Y-80208007D01*
X129809746Y-80262083D01*
X129746871Y-80329136D01*
X129669341Y-80410943D01*
X129590251Y-80493950D01*
X129511564Y-80576094D01*
X129438112Y-80652169D01*
X129371724Y-80720325D01*
X129314227Y-80778712D01*
X129267451Y-80825481D01*
X129233224Y-80858782D01*
X129213373Y-80876767D01*
X129209140Y-80879442D01*
X129198003Y-80869741D01*
X129171971Y-80844441D01*
X129133570Y-80806082D01*
X129085328Y-80757200D01*
X129029770Y-80700334D01*
X128989592Y-80658906D01*
X128779831Y-80442000D01*
X129398337Y-80442000D01*
X129398337Y-80203089D01*
X128643881Y-80203089D01*
X128643881Y-80309542D01*
X128505565Y-80171654D01*
X128407447Y-80073840D01*
X128216357Y-80073840D01*
X128214529Y-80089270D01*
X128205277Y-80097867D01*
X128182950Y-80101613D01*
X128141895Y-80102489D01*
X128134624Y-80102495D01*
X128052891Y-80102495D01*
X128052891Y-79883172D01*
X128134624Y-79964179D01*
X128180730Y-80013428D01*
X128208306Y-80051159D01*
X128216357Y-80073840D01*
X128407447Y-80073840D01*
X128367248Y-80033766D01*
X128367248Y-79910952D01*
X128366863Y-79854450D01*
X128365100Y-79818505D01*
X128361050Y-79798530D01*
X128353801Y-79789937D01*
X128342870Y-79788139D01*
X128330712Y-79785498D01*
X128321727Y-79774912D01*
X128314826Y-79752381D01*
X128308924Y-79713909D01*
X128302935Y-79655498D01*
X128301013Y-79634104D01*
X128296852Y-79586951D01*
X130014955Y-79586951D01*
X130131577Y-79586951D01*
X130291109Y-79586951D01*
X130291109Y-79473782D01*
X130223314Y-79473782D01*
X130183662Y-79472696D01*
X130162116Y-79467454D01*
X130159480Y-79464334D01*
X130020616Y-79464334D01*
X130013308Y-79471462D01*
X129987993Y-79473662D01*
X129970908Y-79473782D01*
X129913881Y-79473782D01*
X129701221Y-79473782D01*
X128286698Y-79473782D01*
X128334542Y-79424786D01*
X128408850Y-79364324D01*
X128500816Y-79317691D01*
X128611998Y-79284249D01*
X128722471Y-79265753D01*
X128794773Y-79257122D01*
X128794773Y-79348040D01*
X129373188Y-79348040D01*
X129373188Y-79244893D01*
X129458065Y-79253496D01*
X129517368Y-79260756D01*
X129580551Y-79270379D01*
X129618386Y-79277252D01*
X129693832Y-79292407D01*
X129697526Y-79383095D01*
X129701221Y-79473782D01*
X129913881Y-79473782D01*
X129913881Y-79423485D01*
X129915544Y-79391976D01*
X129919697Y-79374463D01*
X129921371Y-79373188D01*
X129939987Y-79381254D01*
X129967183Y-79400820D01*
X129994448Y-79424944D01*
X130013267Y-79446682D01*
X130014943Y-79449508D01*
X130020616Y-79464334D01*
X130159480Y-79464334D01*
X130151662Y-79455081D01*
X130147442Y-79441604D01*
X130130219Y-79406627D01*
X130097138Y-79364579D01*
X130053893Y-79321356D01*
X130006174Y-79282854D01*
X129974830Y-79262801D01*
X129939123Y-79240851D01*
X129920819Y-79222411D01*
X129914388Y-79200668D01*
X129913894Y-79187718D01*
X129913894Y-79184575D01*
X129272594Y-79184575D01*
X129272594Y-79247446D01*
X128895367Y-79247446D01*
X128895367Y-79184575D01*
X129272594Y-79184575D01*
X129913894Y-79184575D01*
X129913881Y-79146852D01*
X129808048Y-79146852D01*
X129759355Y-79148029D01*
X129721405Y-79151165D01*
X129700308Y-79155671D01*
X129698023Y-79157495D01*
X129684641Y-79160295D01*
X129652074Y-79159148D01*
X129605916Y-79154393D01*
X129574376Y-79150003D01*
X129517188Y-79141378D01*
X129464886Y-79133591D01*
X129425582Y-79127847D01*
X129414055Y-79126215D01*
X129383937Y-79116888D01*
X129373188Y-79102272D01*
X129369920Y-79096320D01*
X129358230Y-79091778D01*
X129335288Y-79088470D01*
X129298265Y-79086215D01*
X129244332Y-79084834D01*
X129170660Y-79084150D01*
X129083980Y-79083980D01*
X128991471Y-79084077D01*
X128921094Y-79084530D01*
X128869836Y-79085590D01*
X128834680Y-79087503D01*
X128812611Y-79090519D01*
X128800615Y-79094885D01*
X128795676Y-79100849D01*
X128794773Y-79107784D01*
X128787079Y-79129795D01*
X128761879Y-79142321D01*
X128715991Y-79146788D01*
X128707736Y-79146852D01*
X128630027Y-79154868D01*
X128541767Y-79176936D01*
X128450915Y-79210084D01*
X128365430Y-79251339D01*
X128293274Y-79297731D01*
X128283928Y-79305082D01*
X128253467Y-79328998D01*
X128235428Y-79338576D01*
X128222831Y-79335480D01*
X128209900Y-79322704D01*
X128171707Y-79297678D01*
X128122002Y-79288071D01*
X128068476Y-79293067D01*
X128018822Y-79311851D01*
X127980733Y-79343606D01*
X127977975Y-79347297D01*
X127949474Y-79406575D01*
X127944172Y-79467934D01*
X127961482Y-79526427D01*
X128000820Y-79577104D01*
X128005630Y-79581289D01*
X128033560Y-79601167D01*
X128061898Y-79609921D01*
X128101737Y-79610553D01*
X128111689Y-79609992D01*
X128150668Y-79608562D01*
X128170746Y-79611839D01*
X128178015Y-79621728D01*
X128178760Y-79630961D01*
X128180284Y-79657744D01*
X128184065Y-79698025D01*
X128186782Y-79722124D01*
X128190723Y-79760401D01*
X128189084Y-79779996D01*
X128179579Y-79787158D01*
X128162649Y-79788139D01*
X128152608Y-79784901D01*
X128136410Y-79774420D01*
X128112855Y-79755548D01*
X128080743Y-79727135D01*
X128038872Y-79688035D01*
X127986043Y-79637097D01*
X127921055Y-79573173D01*
X127842709Y-79495114D01*
X127749803Y-79401772D01*
X127641137Y-79291998D01*
X127588769Y-79238952D01*
X127046951Y-78689767D01*
X127047570Y-78776848D01*
X127047570Y-78776848D01*
G37*
X127047570Y-78776848D02*
X127048189Y-78863931D01*
X127499914Y-79322891D01*
X127951639Y-79781852D01*
X127951968Y-79992471D01*
X127952297Y-80203089D01*
X128227390Y-80203089D01*
X128234478Y-80256530D01*
X128237162Y-80280888D01*
X128241687Y-80326759D01*
X128247809Y-80391405D01*
X128255288Y-80472091D01*
X128263881Y-80566081D01*
X128273346Y-80670637D01*
X128283442Y-80783025D01*
X128293926Y-80900507D01*
X128304556Y-81020348D01*
X128315091Y-81139811D01*
X128325287Y-81256159D01*
X128334905Y-81366657D01*
X128343700Y-81468569D01*
X128351432Y-81559158D01*
X128357858Y-81635687D01*
X128362737Y-81695421D01*
X128365825Y-81735624D01*
X128366883Y-81753559D01*
X128366882Y-81753644D01*
X128359173Y-81768035D01*
X128336019Y-81797748D01*
X128297105Y-81843131D01*
X128242116Y-81904529D01*
X128170736Y-81982288D01*
X128082651Y-82076754D01*
X127977546Y-82188272D01*
X127855105Y-82317188D01*
X127820690Y-82353287D01*
X127274863Y-82925416D01*
X127363119Y-83013436D01*
X127434515Y-82935758D01*
X127460634Y-82907686D01*
X127501434Y-82864274D01*
X127554223Y-82808366D01*
X127616309Y-82742808D01*
X127685000Y-82670441D01*
X127757604Y-82594112D01*
X127801040Y-82548524D01*
X127882584Y-82463119D01*
X127948496Y-82394710D01*
X128000456Y-82342053D01*
X128040145Y-82303905D01*
X128069243Y-82279020D01*
X128089431Y-82266156D01*
X128102390Y-82264068D01*
X128109800Y-82271513D01*
X128113342Y-82287246D01*
X128114697Y-82310023D01*
X128114879Y-82316239D01*
X128124297Y-82359061D01*
X128147503Y-82410819D01*
X128179864Y-82463328D01*
X128216748Y-82508403D01*
X128231507Y-82522328D01*
X128307233Y-82571047D01*
X128395692Y-82598306D01*
X128473900Y-82604773D01*
X128562532Y-82592576D01*
X128644388Y-82556813D01*
X128716836Y-82498722D01*
X128730203Y-82484262D01*
X128779082Y-82428733D01*
X129624674Y-82428733D01*
X129624674Y-82604773D01*
X129851010Y-82604773D01*
X129851010Y-82522531D01*
X129853850Y-82466386D01*
X129863393Y-82427416D01*
X129874991Y-82406219D01*
X129883277Y-82391052D01*
X129890373Y-82369062D01*
X129896748Y-82336987D01*
X129902872Y-82291569D01*
X129909216Y-82229548D01*
X129916250Y-82147662D01*
X129921066Y-82086746D01*
X129943161Y-81801343D01*
X130485565Y-82350805D01*
X130583637Y-82450228D01*
X130677784Y-82545815D01*
X130766285Y-82635810D01*
X130847420Y-82718457D01*
X130919469Y-82792001D01*
X130980712Y-82854684D01*
X131029427Y-82904752D01*
X131063896Y-82940448D01*
X131082379Y-82959995D01*
X131112743Y-82990944D01*
X131138071Y-83012530D01*
X131151695Y-83019723D01*
X131169095Y-83011297D01*
X131194460Y-82990245D01*
X131203058Y-82981671D01*
X131239514Y-82943620D01*
X131038802Y-82739658D01*
X130987596Y-82687699D01*
X130921569Y-82620820D01*
X130843618Y-82541950D01*
X130756638Y-82454014D01*
X130663526Y-82359941D01*
X130567179Y-82262658D01*
X130470492Y-82165093D01*
X130401134Y-82095145D01*
X130295703Y-81988550D01*
X130207129Y-81898307D01*
X130134281Y-81823192D01*
X130076023Y-81761986D01*
X130031225Y-81713466D01*
X130009021Y-81688129D01*
X129830724Y-81688129D01*
X129808401Y-81973555D01*
X129801669Y-82057219D01*
X129795157Y-82133727D01*
X129789234Y-82199081D01*
X129784268Y-82249281D01*
X129780629Y-82280329D01*
X129779458Y-82287273D01*
X129772838Y-82315565D01*
X128823364Y-82315565D01*
X128817026Y-82236606D01*
X128797890Y-82143315D01*
X128757846Y-82060791D01*
X128699418Y-81992038D01*
X128625129Y-81940063D01*
X128541748Y-81908863D01*
X128514698Y-81894228D01*
X128501156Y-81862819D01*
X128500872Y-81861434D01*
X128499247Y-81848174D01*
X128501256Y-81834595D01*
X128508858Y-81818181D01*
X128524016Y-81796411D01*
X128548688Y-81766767D01*
X128584836Y-81726732D01*
X128634420Y-81673785D01*
X128699401Y-81605409D01*
X128703599Y-81601005D01*
X128773493Y-81527611D01*
X128847800Y-81449437D01*
X128921414Y-81371864D01*
X128989229Y-81300275D01*
X129046140Y-81240051D01*
X129058832Y-81226587D01*
X129107487Y-81175820D01*
X129150709Y-81132375D01*
X129185395Y-81099241D01*
X129208444Y-81079405D01*
X129216182Y-81075046D01*
X129227722Y-81084170D01*
X129254710Y-81109200D01*
X129295021Y-81148052D01*
X129346529Y-81198643D01*
X129407109Y-81258888D01*
X129474636Y-81326704D01*
X129529826Y-81382565D01*
X129830724Y-81688129D01*
X130009021Y-81688129D01*
X129998751Y-81676411D01*
X129977471Y-81649599D01*
X129966251Y-81631808D01*
X129963754Y-81623570D01*
X129964700Y-81605590D01*
X129967573Y-81564892D01*
X129972187Y-81503819D01*
X129978358Y-81424713D01*
X129985898Y-81329914D01*
X129994621Y-81221767D01*
X130004343Y-81102612D01*
X130014876Y-80974791D01*
X130023365Y-80872635D01*
X130071396Y-80296674D01*
X129947805Y-80296674D01*
X129947273Y-80309104D01*
X129944769Y-80344110D01*
X129940496Y-80399215D01*
X129934653Y-80471943D01*
X129927443Y-80559814D01*
X129919066Y-80660351D01*
X129909723Y-80771077D01*
X129900758Y-80876205D01*
X129890602Y-80995483D01*
X129881142Y-81108080D01*
X129872596Y-81211305D01*
X129865179Y-81302473D01*
X129859108Y-81378895D01*
X129854601Y-81437883D01*
X129851873Y-81476749D01*
X129851116Y-81491844D01*
X129849935Y-81501238D01*
X129845256Y-81504966D01*
X129835276Y-81501471D01*
X129818190Y-81489199D01*
X129792196Y-81466594D01*
X129755490Y-81432100D01*
X129706267Y-81384162D01*
X129642726Y-81321224D01*
X129575305Y-81253968D01*
X129299601Y-80978477D01*
X129301533Y-80976406D01*
X129119290Y-80976406D01*
X129110984Y-80987780D01*
X129087733Y-81014563D01*
X129051865Y-81054292D01*
X129005713Y-81104507D01*
X128951606Y-81162746D01*
X128891874Y-81226547D01*
X128828848Y-81293449D01*
X128764858Y-81360990D01*
X128702236Y-81426710D01*
X128643310Y-81488146D01*
X128590412Y-81542837D01*
X128545872Y-81588322D01*
X128512020Y-81622138D01*
X128491188Y-81641826D01*
X128485506Y-81645837D01*
X128483634Y-81632891D01*
X128479746Y-81597134D01*
X128474057Y-81540804D01*
X128466781Y-81466140D01*
X128458131Y-81375380D01*
X128448322Y-81270762D01*
X128437566Y-81154526D01*
X128426079Y-81028908D01*
X128416907Y-80927618D01*
X128405174Y-80796279D01*
X128394335Y-80672552D01*
X128384570Y-80558681D01*
X128376063Y-80456911D01*
X128368995Y-80369487D01*
X128363549Y-80298653D01*
X128359908Y-80246653D01*
X128358253Y-80215732D01*
X128358442Y-80207703D01*
X128368334Y-80214854D01*
X128393524Y-80237841D01*
X128431810Y-80274439D01*
X128480989Y-80322422D01*
X128538861Y-80379566D01*
X128603222Y-80443647D01*
X128671871Y-80512438D01*
X128742605Y-80583716D01*
X128813222Y-80655255D01*
X128881520Y-80724830D01*
X128945296Y-80790217D01*
X129002350Y-80849191D01*
X129050478Y-80899527D01*
X129087478Y-80938999D01*
X129111148Y-80965383D01*
X129119290Y-80976406D01*
X129301533Y-80976406D01*
X129402409Y-80868295D01*
X129454768Y-80812377D01*
X129513535Y-80749948D01*
X129576385Y-80683443D01*
X129640995Y-80615298D01*
X129705042Y-80547948D01*
X129766203Y-80483828D01*
X129822153Y-80425372D01*
X129870570Y-80375018D01*
X129909130Y-80335198D01*
X129935509Y-80308350D01*
X129947384Y-80296908D01*
X129947805Y-80296674D01*
X130071396Y-80296674D01*
X130083401Y-80152726D01*
X130683938Y-79521158D01*
X131284475Y-78889589D01*
X131284034Y-78801315D01*
X131283592Y-78713040D01*
X131186583Y-78816666D01*
X131132291Y-78874463D01*
X131068192Y-78942368D01*
X130996016Y-79018572D01*
X130917492Y-79101269D01*
X130834349Y-79188653D01*
X130748319Y-79278915D01*
X130661130Y-79370250D01*
X130574513Y-79460849D01*
X130490197Y-79548907D01*
X130409912Y-79632615D01*
X130335387Y-79710167D01*
X130268354Y-79779757D01*
X130210541Y-79839576D01*
X130163679Y-79887818D01*
X130129496Y-79922676D01*
X130109724Y-79942343D01*
X130105390Y-79946116D01*
X130105092Y-79932992D01*
X130106731Y-79899389D01*
X130110023Y-79849880D01*
X130114682Y-79789037D01*
X130116682Y-79764732D01*
X130131577Y-79586951D01*
X130014955Y-79586951D01*
X130008934Y-79615243D01*
X130005863Y-79637618D01*
X130001548Y-79679717D01*
X129996488Y-79736178D01*
X129991181Y-79801635D01*
X129989344Y-79825862D01*
X129983927Y-79895421D01*
X129978459Y-79960018D01*
X129973488Y-80013548D01*
X129969561Y-80049910D01*
X129968675Y-80056509D01*
X129965334Y-80070056D01*
X129958101Y-80085914D01*
X129945440Y-80105861D01*
X129925811Y-80131673D01*
X129897678Y-80165129D01*
X129859502Y-80208007D01*
X129809746Y-80262083D01*
X129746871Y-80329136D01*
X129669341Y-80410943D01*
X129590251Y-80493950D01*
X129511564Y-80576094D01*
X129438112Y-80652169D01*
X129371724Y-80720325D01*
X129314227Y-80778712D01*
X129267451Y-80825481D01*
X129233224Y-80858782D01*
X129213373Y-80876767D01*
X129209140Y-80879442D01*
X129198003Y-80869741D01*
X129171971Y-80844441D01*
X129133570Y-80806082D01*
X129085328Y-80757200D01*
X129029770Y-80700334D01*
X128989592Y-80658906D01*
X128779831Y-80442000D01*
X129398337Y-80442000D01*
X129398337Y-80203089D01*
X128643881Y-80203089D01*
X128643881Y-80309542D01*
X128505565Y-80171654D01*
X128407447Y-80073840D01*
X128216357Y-80073840D01*
X128214529Y-80089270D01*
X128205277Y-80097867D01*
X128182950Y-80101613D01*
X128141895Y-80102489D01*
X128134624Y-80102495D01*
X128052891Y-80102495D01*
X128052891Y-79883172D01*
X128134624Y-79964179D01*
X128180730Y-80013428D01*
X128208306Y-80051159D01*
X128216357Y-80073840D01*
X128407447Y-80073840D01*
X128367248Y-80033766D01*
X128367248Y-79910952D01*
X128366863Y-79854450D01*
X128365100Y-79818505D01*
X128361050Y-79798530D01*
X128353801Y-79789937D01*
X128342870Y-79788139D01*
X128330712Y-79785498D01*
X128321727Y-79774912D01*
X128314826Y-79752381D01*
X128308924Y-79713909D01*
X128302935Y-79655498D01*
X128301013Y-79634104D01*
X128296852Y-79586951D01*
X130014955Y-79586951D01*
X130131577Y-79586951D01*
X130291109Y-79586951D01*
X130291109Y-79473782D01*
X130223314Y-79473782D01*
X130183662Y-79472696D01*
X130162116Y-79467454D01*
X130159480Y-79464334D01*
X130020616Y-79464334D01*
X130013308Y-79471462D01*
X129987993Y-79473662D01*
X129970908Y-79473782D01*
X129913881Y-79473782D01*
X129701221Y-79473782D01*
X128286698Y-79473782D01*
X128334542Y-79424786D01*
X128408850Y-79364324D01*
X128500816Y-79317691D01*
X128611998Y-79284249D01*
X128722471Y-79265753D01*
X128794773Y-79257122D01*
X128794773Y-79348040D01*
X129373188Y-79348040D01*
X129373188Y-79244893D01*
X129458065Y-79253496D01*
X129517368Y-79260756D01*
X129580551Y-79270379D01*
X129618386Y-79277252D01*
X129693832Y-79292407D01*
X129697526Y-79383095D01*
X129701221Y-79473782D01*
X129913881Y-79473782D01*
X129913881Y-79423485D01*
X129915544Y-79391976D01*
X129919697Y-79374463D01*
X129921371Y-79373188D01*
X129939987Y-79381254D01*
X129967183Y-79400820D01*
X129994448Y-79424944D01*
X130013267Y-79446682D01*
X130014943Y-79449508D01*
X130020616Y-79464334D01*
X130159480Y-79464334D01*
X130151662Y-79455081D01*
X130147442Y-79441604D01*
X130130219Y-79406627D01*
X130097138Y-79364579D01*
X130053893Y-79321356D01*
X130006174Y-79282854D01*
X129974830Y-79262801D01*
X129939123Y-79240851D01*
X129920819Y-79222411D01*
X129914388Y-79200668D01*
X129913894Y-79187718D01*
X129913894Y-79184575D01*
X129272594Y-79184575D01*
X129272594Y-79247446D01*
X128895367Y-79247446D01*
X128895367Y-79184575D01*
X129272594Y-79184575D01*
X129913894Y-79184575D01*
X129913881Y-79146852D01*
X129808048Y-79146852D01*
X129759355Y-79148029D01*
X129721405Y-79151165D01*
X129700308Y-79155671D01*
X129698023Y-79157495D01*
X129684641Y-79160295D01*
X129652074Y-79159148D01*
X129605916Y-79154393D01*
X129574376Y-79150003D01*
X129517188Y-79141378D01*
X129464886Y-79133591D01*
X129425582Y-79127847D01*
X129414055Y-79126215D01*
X129383937Y-79116888D01*
X129373188Y-79102272D01*
X129369920Y-79096320D01*
X129358230Y-79091778D01*
X129335288Y-79088470D01*
X129298265Y-79086215D01*
X129244332Y-79084834D01*
X129170660Y-79084150D01*
X129083980Y-79083980D01*
X128991471Y-79084077D01*
X128921094Y-79084530D01*
X128869836Y-79085590D01*
X128834680Y-79087503D01*
X128812611Y-79090519D01*
X128800615Y-79094885D01*
X128795676Y-79100849D01*
X128794773Y-79107784D01*
X128787079Y-79129795D01*
X128761879Y-79142321D01*
X128715991Y-79146788D01*
X128707736Y-79146852D01*
X128630027Y-79154868D01*
X128541767Y-79176936D01*
X128450915Y-79210084D01*
X128365430Y-79251339D01*
X128293274Y-79297731D01*
X128283928Y-79305082D01*
X128253467Y-79328998D01*
X128235428Y-79338576D01*
X128222831Y-79335480D01*
X128209900Y-79322704D01*
X128171707Y-79297678D01*
X128122002Y-79288071D01*
X128068476Y-79293067D01*
X128018822Y-79311851D01*
X127980733Y-79343606D01*
X127977975Y-79347297D01*
X127949474Y-79406575D01*
X127944172Y-79467934D01*
X127961482Y-79526427D01*
X128000820Y-79577104D01*
X128005630Y-79581289D01*
X128033560Y-79601167D01*
X128061898Y-79609921D01*
X128101737Y-79610553D01*
X128111689Y-79609992D01*
X128150668Y-79608562D01*
X128170746Y-79611839D01*
X128178015Y-79621728D01*
X128178760Y-79630961D01*
X128180284Y-79657744D01*
X128184065Y-79698025D01*
X128186782Y-79722124D01*
X128190723Y-79760401D01*
X128189084Y-79779996D01*
X128179579Y-79787158D01*
X128162649Y-79788139D01*
X128152608Y-79784901D01*
X128136410Y-79774420D01*
X128112855Y-79755548D01*
X128080743Y-79727135D01*
X128038872Y-79688035D01*
X127986043Y-79637097D01*
X127921055Y-79573173D01*
X127842709Y-79495114D01*
X127749803Y-79401772D01*
X127641137Y-79291998D01*
X127588769Y-79238952D01*
X127046951Y-78689767D01*
X127047570Y-78776848D01*
G36*
X138340637Y-114171699D02*
X138318845Y-114178976D01*
X138300414Y-114195420D01*
X138285065Y-114224197D01*
X138272519Y-114268474D01*
X138262495Y-114331418D01*
X138254717Y-114416194D01*
X138248904Y-114525971D01*
X138244777Y-114663914D01*
X138242057Y-114833191D01*
X138240465Y-115036968D01*
X138239723Y-115278411D01*
X138239550Y-115560687D01*
X138239668Y-115886964D01*
X138239797Y-116260407D01*
X138239800Y-116319500D01*
X138239878Y-116694884D01*
X138240151Y-117022711D01*
X138240682Y-117306221D01*
X138241531Y-117548658D01*
X138242760Y-117753261D01*
X138244431Y-117923274D01*
X138246605Y-118061939D01*
X138249343Y-118172496D01*
X138252708Y-118258188D01*
X138256759Y-118322257D01*
X138261559Y-118367944D01*
X138267169Y-118398492D01*
X138273651Y-118417141D01*
X138279715Y-118425885D01*
X138290791Y-118432992D01*
X138310999Y-118439213D01*
X138343510Y-118444606D01*
X138391497Y-118449229D01*
X138458133Y-118453140D01*
X138546590Y-118456396D01*
X138660040Y-118459056D01*
X138801656Y-118461175D01*
X138974610Y-118462813D01*
X139182076Y-118464028D01*
X139427224Y-118464876D01*
X139713229Y-118465415D01*
X140043261Y-118465703D01*
X140420495Y-118465798D01*
X140475001Y-118465800D01*
X140858824Y-118465726D01*
X141195020Y-118465467D01*
X141486761Y-118464965D01*
X141737219Y-118464162D01*
X141949568Y-118463000D01*
X142126979Y-118461422D01*
X142272625Y-118459371D01*
X142389678Y-118456787D01*
X142481312Y-118453615D01*
X142550697Y-118449795D01*
X142601008Y-118445271D01*
X142635416Y-118439985D01*
X142657093Y-118433879D01*
X142669213Y-118426895D01*
X142670286Y-118425885D01*
X142677535Y-118414627D01*
X142683862Y-118394152D01*
X142689328Y-118361219D01*
X142693994Y-118312586D01*
X142697922Y-118245011D01*
X142701174Y-118155252D01*
X142703810Y-118040068D01*
X142705893Y-117896217D01*
X142707483Y-117720456D01*
X142708642Y-117509544D01*
X142709432Y-117260239D01*
X142709914Y-116969300D01*
X142710149Y-116633484D01*
X142710200Y-116319500D01*
X142710123Y-115944115D01*
X142709850Y-115616288D01*
X142709319Y-115332778D01*
X142708470Y-115090341D01*
X142707241Y-114885738D01*
X142706052Y-114764729D01*
X142430801Y-114764729D01*
X142420363Y-114789638D01*
X142394056Y-114843844D01*
X142380001Y-114871699D01*
X142369068Y-114894774D01*
X142359826Y-114920420D01*
X142352133Y-114952859D01*
X142345848Y-114996308D01*
X142340828Y-115054988D01*
X142336932Y-115133117D01*
X142334017Y-115234917D01*
X142331943Y-115364605D01*
X142330566Y-115526401D01*
X142329746Y-115724525D01*
X142329341Y-115963197D01*
X142329209Y-116246635D01*
X142329201Y-116383290D01*
X142329561Y-116646726D01*
X142330598Y-116895037D01*
X142332244Y-117123556D01*
X142334432Y-117327618D01*
X142337097Y-117502558D01*
X142340170Y-117643711D01*
X142343585Y-117746410D01*
X142347276Y-117805991D01*
X142349776Y-117819370D01*
X142374200Y-117859136D01*
X142400032Y-117913350D01*
X142429711Y-117983200D01*
X141903206Y-117982811D01*
X141748033Y-117981849D01*
X141613650Y-117979381D01*
X141507001Y-117975674D01*
X141435030Y-117970992D01*
X141404681Y-117965600D01*
X141404906Y-117963761D01*
X141434855Y-117929826D01*
X141470668Y-117871626D01*
X141474756Y-117863811D01*
X141489682Y-117826521D01*
X141500693Y-117776267D01*
X141508331Y-117705556D01*
X141513134Y-117606898D01*
X141515644Y-117472800D01*
X141516399Y-117295772D01*
X141516400Y-117285961D01*
X141515167Y-117108347D01*
X141511604Y-116965876D01*
X141505922Y-116862727D01*
X141498328Y-116803078D01*
X141491586Y-116789400D01*
X141462086Y-116808770D01*
X141424359Y-116855744D01*
X141422085Y-116859250D01*
X141381507Y-116916268D01*
X141347301Y-116954500D01*
X141316853Y-116991632D01*
X141276917Y-117053966D01*
X141263329Y-117077833D01*
X141221180Y-117144930D01*
X141158473Y-117233720D01*
X141087408Y-117327064D01*
X141073458Y-117344533D01*
X140965339Y-117487344D01*
X140874862Y-117623967D01*
X140806611Y-117746349D01*
X140765169Y-117846440D01*
X140754400Y-117904923D01*
X140754400Y-117983200D01*
X139627945Y-117983200D01*
X139640071Y-117969488D01*
X139484400Y-117969488D01*
X139460301Y-117973757D01*
X139393204Y-117977485D01*
X139290911Y-117980448D01*
X139161222Y-117982426D01*
X139011939Y-117983196D01*
X139001800Y-117983200D01*
X138825033Y-117982408D01*
X138693899Y-117979806D01*
X138603253Y-117975056D01*
X138547950Y-117967818D01*
X138522844Y-117957752D01*
X138520008Y-117951450D01*
X138534962Y-117907554D01*
X138558108Y-117870395D01*
X138567302Y-117851692D01*
X138574898Y-117819195D01*
X138581041Y-117768498D01*
X138585873Y-117695196D01*
X138589536Y-117594883D01*
X138592174Y-117463154D01*
X138593930Y-117295604D01*
X138594947Y-117087827D01*
X138595367Y-116835418D01*
X138595400Y-116721045D01*
X138595400Y-115621000D01*
X139460305Y-115621000D01*
X139421553Y-115695938D01*
X139411522Y-115721815D01*
X139403333Y-115760092D01*
X139396808Y-115815607D01*
X139391774Y-115893197D01*
X139388053Y-115997700D01*
X139385471Y-116133954D01*
X139383852Y-116306797D01*
X139383021Y-116521067D01*
X139382800Y-116763750D01*
X139382914Y-117015440D01*
X139383415Y-117221511D01*
X139384545Y-117387147D01*
X139386545Y-117517527D01*
X139389655Y-117617835D01*
X139394117Y-117693251D01*
X139400171Y-117748957D01*
X139408059Y-117790135D01*
X139418021Y-117821967D01*
X139430299Y-117849635D01*
X139433600Y-117856200D01*
X139464510Y-117919636D01*
X139482520Y-117962110D01*
X139484400Y-117969488D01*
X139640071Y-117969488D01*
X139689523Y-117913570D01*
X139733445Y-117864266D01*
X139761627Y-117833290D01*
X139763800Y-117831020D01*
X139821555Y-117767905D01*
X139893037Y-117683689D01*
X139968103Y-117591065D01*
X140036609Y-117502725D01*
X140088412Y-117431361D01*
X140108624Y-117399547D01*
X140148845Y-117335584D01*
X140212338Y-117244299D01*
X140290196Y-117137680D01*
X140373513Y-117027715D01*
X140453383Y-116926390D01*
X140515727Y-116851607D01*
X140576171Y-116774548D01*
X140632841Y-116690943D01*
X140637022Y-116684050D01*
X140764363Y-116485936D01*
X140860006Y-116355356D01*
X140929964Y-116264212D01*
X140848532Y-116176760D01*
X140778340Y-116097661D01*
X140688285Y-115990892D01*
X140588943Y-115869451D01*
X140490893Y-115746339D01*
X140404711Y-115634555D01*
X140375849Y-115595815D01*
X140071059Y-115215892D01*
X139831721Y-114958787D01*
X139632941Y-114757400D01*
X140178253Y-114757400D01*
X140363450Y-114757523D01*
X140504002Y-114758861D01*
X140606063Y-114762867D01*
X140675788Y-114770993D01*
X140719331Y-114784691D01*
X140742847Y-114805416D01*
X140752489Y-114834618D01*
X140754414Y-114873751D01*
X140754400Y-114893390D01*
X140769988Y-114946842D01*
X140809059Y-115014121D01*
X140826701Y-115037362D01*
X140885348Y-115114668D01*
X140948110Y-115205586D01*
X140970198Y-115240000D01*
X141013448Y-115306764D01*
X141047088Y-115353931D01*
X141058761Y-115367000D01*
X141088555Y-115396339D01*
X141137755Y-115452018D01*
X141197478Y-115523108D01*
X141258838Y-115598681D01*
X141312953Y-115667808D01*
X141350937Y-115719561D01*
X141364000Y-115742483D01*
X141380818Y-115771974D01*
X141422854Y-115819717D01*
X141440201Y-115836900D01*
X141516401Y-115909904D01*
X141516400Y-115490088D01*
X141514807Y-115307302D01*
X141509105Y-115164476D01*
X141497907Y-115050840D01*
X141479828Y-114955629D01*
X141453482Y-114868075D01*
X141427836Y-114801850D01*
X141424606Y-114786771D01*
X141433351Y-114775538D01*
X141460295Y-114767591D01*
X141511662Y-114762367D01*
X141593676Y-114759303D01*
X141712561Y-114757838D01*
X141874540Y-114757410D01*
X141920083Y-114757400D01*
X142074917Y-114757746D01*
X142210878Y-114758712D01*
X142320383Y-114760190D01*
X142395849Y-114762071D01*
X142429692Y-114764245D01*
X142430801Y-114764729D01*
X142706052Y-114764729D01*
X142705570Y-114715725D01*
X142703396Y-114577060D01*
X142700658Y-114466503D01*
X142697293Y-114380811D01*
X142693242Y-114316742D01*
X142688442Y-114271055D01*
X142682832Y-114240507D01*
X142676350Y-114221858D01*
X142670286Y-114213114D01*
X142657822Y-114204934D01*
X142635563Y-114197938D01*
X142599809Y-114192034D01*
X142546859Y-114187133D01*
X142473012Y-114183144D01*
X142374569Y-114179978D01*
X142247827Y-114177544D01*
X142089087Y-114175752D01*
X141894647Y-114174511D01*
X141660807Y-114173733D01*
X141383865Y-114173326D01*
X141060122Y-114173200D01*
X139433600Y-114173200D01*
X139433600Y-114269418D01*
X139413521Y-114385335D01*
X139360475Y-114504000D01*
X139285246Y-114604991D01*
X139232994Y-114649244D01*
X139119454Y-114696370D01*
X138988500Y-114706636D01*
X138854372Y-114682918D01*
X138731310Y-114628089D01*
X138633552Y-114545023D01*
X138618200Y-114525147D01*
X138571194Y-114424428D01*
X138549561Y-114308877D01*
X138538310Y-114173199D01*
X138428970Y-114173200D01*
X138395420Y-114171977D01*
X138366069Y-114170421D01*
X138340637Y-114171699D01*
X138340637Y-114171699D01*
G37*
X138340637Y-114171699D02*
X138318845Y-114178976D01*
X138300414Y-114195420D01*
X138285065Y-114224197D01*
X138272519Y-114268474D01*
X138262495Y-114331418D01*
X138254717Y-114416194D01*
X138248904Y-114525971D01*
X138244777Y-114663914D01*
X138242057Y-114833191D01*
X138240465Y-115036968D01*
X138239723Y-115278411D01*
X138239550Y-115560687D01*
X138239668Y-115886964D01*
X138239797Y-116260407D01*
X138239800Y-116319500D01*
X138239878Y-116694884D01*
X138240151Y-117022711D01*
X138240682Y-117306221D01*
X138241531Y-117548658D01*
X138242760Y-117753261D01*
X138244431Y-117923274D01*
X138246605Y-118061939D01*
X138249343Y-118172496D01*
X138252708Y-118258188D01*
X138256759Y-118322257D01*
X138261559Y-118367944D01*
X138267169Y-118398492D01*
X138273651Y-118417141D01*
X138279715Y-118425885D01*
X138290791Y-118432992D01*
X138310999Y-118439213D01*
X138343510Y-118444606D01*
X138391497Y-118449229D01*
X138458133Y-118453140D01*
X138546590Y-118456396D01*
X138660040Y-118459056D01*
X138801656Y-118461175D01*
X138974610Y-118462813D01*
X139182076Y-118464028D01*
X139427224Y-118464876D01*
X139713229Y-118465415D01*
X140043261Y-118465703D01*
X140420495Y-118465798D01*
X140475001Y-118465800D01*
X140858824Y-118465726D01*
X141195020Y-118465467D01*
X141486761Y-118464965D01*
X141737219Y-118464162D01*
X141949568Y-118463000D01*
X142126979Y-118461422D01*
X142272625Y-118459371D01*
X142389678Y-118456787D01*
X142481312Y-118453615D01*
X142550697Y-118449795D01*
X142601008Y-118445271D01*
X142635416Y-118439985D01*
X142657093Y-118433879D01*
X142669213Y-118426895D01*
X142670286Y-118425885D01*
X142677535Y-118414627D01*
X142683862Y-118394152D01*
X142689328Y-118361219D01*
X142693994Y-118312586D01*
X142697922Y-118245011D01*
X142701174Y-118155252D01*
X142703810Y-118040068D01*
X142705893Y-117896217D01*
X142707483Y-117720456D01*
X142708642Y-117509544D01*
X142709432Y-117260239D01*
X142709914Y-116969300D01*
X142710149Y-116633484D01*
X142710200Y-116319500D01*
X142710123Y-115944115D01*
X142709850Y-115616288D01*
X142709319Y-115332778D01*
X142708470Y-115090341D01*
X142707241Y-114885738D01*
X142706052Y-114764729D01*
X142430801Y-114764729D01*
X142420363Y-114789638D01*
X142394056Y-114843844D01*
X142380001Y-114871699D01*
X142369068Y-114894774D01*
X142359826Y-114920420D01*
X142352133Y-114952859D01*
X142345848Y-114996308D01*
X142340828Y-115054988D01*
X142336932Y-115133117D01*
X142334017Y-115234917D01*
X142331943Y-115364605D01*
X142330566Y-115526401D01*
X142329746Y-115724525D01*
X142329341Y-115963197D01*
X142329209Y-116246635D01*
X142329201Y-116383290D01*
X142329561Y-116646726D01*
X142330598Y-116895037D01*
X142332244Y-117123556D01*
X142334432Y-117327618D01*
X142337097Y-117502558D01*
X142340170Y-117643711D01*
X142343585Y-117746410D01*
X142347276Y-117805991D01*
X142349776Y-117819370D01*
X142374200Y-117859136D01*
X142400032Y-117913350D01*
X142429711Y-117983200D01*
X141903206Y-117982811D01*
X141748033Y-117981849D01*
X141613650Y-117979381D01*
X141507001Y-117975674D01*
X141435030Y-117970992D01*
X141404681Y-117965600D01*
X141404906Y-117963761D01*
X141434855Y-117929826D01*
X141470668Y-117871626D01*
X141474756Y-117863811D01*
X141489682Y-117826521D01*
X141500693Y-117776267D01*
X141508331Y-117705556D01*
X141513134Y-117606898D01*
X141515644Y-117472800D01*
X141516399Y-117295772D01*
X141516400Y-117285961D01*
X141515167Y-117108347D01*
X141511604Y-116965876D01*
X141505922Y-116862727D01*
X141498328Y-116803078D01*
X141491586Y-116789400D01*
X141462086Y-116808770D01*
X141424359Y-116855744D01*
X141422085Y-116859250D01*
X141381507Y-116916268D01*
X141347301Y-116954500D01*
X141316853Y-116991632D01*
X141276917Y-117053966D01*
X141263329Y-117077833D01*
X141221180Y-117144930D01*
X141158473Y-117233720D01*
X141087408Y-117327064D01*
X141073458Y-117344533D01*
X140965339Y-117487344D01*
X140874862Y-117623967D01*
X140806611Y-117746349D01*
X140765169Y-117846440D01*
X140754400Y-117904923D01*
X140754400Y-117983200D01*
X139627945Y-117983200D01*
X139640071Y-117969488D01*
X139484400Y-117969488D01*
X139460301Y-117973757D01*
X139393204Y-117977485D01*
X139290911Y-117980448D01*
X139161222Y-117982426D01*
X139011939Y-117983196D01*
X139001800Y-117983200D01*
X138825033Y-117982408D01*
X138693899Y-117979806D01*
X138603253Y-117975056D01*
X138547950Y-117967818D01*
X138522844Y-117957752D01*
X138520008Y-117951450D01*
X138534962Y-117907554D01*
X138558108Y-117870395D01*
X138567302Y-117851692D01*
X138574898Y-117819195D01*
X138581041Y-117768498D01*
X138585873Y-117695196D01*
X138589536Y-117594883D01*
X138592174Y-117463154D01*
X138593930Y-117295604D01*
X138594947Y-117087827D01*
X138595367Y-116835418D01*
X138595400Y-116721045D01*
X138595400Y-115621000D01*
X139460305Y-115621000D01*
X139421553Y-115695938D01*
X139411522Y-115721815D01*
X139403333Y-115760092D01*
X139396808Y-115815607D01*
X139391774Y-115893197D01*
X139388053Y-115997700D01*
X139385471Y-116133954D01*
X139383852Y-116306797D01*
X139383021Y-116521067D01*
X139382800Y-116763750D01*
X139382914Y-117015440D01*
X139383415Y-117221511D01*
X139384545Y-117387147D01*
X139386545Y-117517527D01*
X139389655Y-117617835D01*
X139394117Y-117693251D01*
X139400171Y-117748957D01*
X139408059Y-117790135D01*
X139418021Y-117821967D01*
X139430299Y-117849635D01*
X139433600Y-117856200D01*
X139464510Y-117919636D01*
X139482520Y-117962110D01*
X139484400Y-117969488D01*
X139640071Y-117969488D01*
X139689523Y-117913570D01*
X139733445Y-117864266D01*
X139761627Y-117833290D01*
X139763800Y-117831020D01*
X139821555Y-117767905D01*
X139893037Y-117683689D01*
X139968103Y-117591065D01*
X140036609Y-117502725D01*
X140088412Y-117431361D01*
X140108624Y-117399547D01*
X140148845Y-117335584D01*
X140212338Y-117244299D01*
X140290196Y-117137680D01*
X140373513Y-117027715D01*
X140453383Y-116926390D01*
X140515727Y-116851607D01*
X140576171Y-116774548D01*
X140632841Y-116690943D01*
X140637022Y-116684050D01*
X140764363Y-116485936D01*
X140860006Y-116355356D01*
X140929964Y-116264212D01*
X140848532Y-116176760D01*
X140778340Y-116097661D01*
X140688285Y-115990892D01*
X140588943Y-115869451D01*
X140490893Y-115746339D01*
X140404711Y-115634555D01*
X140375849Y-115595815D01*
X140071059Y-115215892D01*
X139831721Y-114958787D01*
X139632941Y-114757400D01*
X140178253Y-114757400D01*
X140363450Y-114757523D01*
X140504002Y-114758861D01*
X140606063Y-114762867D01*
X140675788Y-114770993D01*
X140719331Y-114784691D01*
X140742847Y-114805416D01*
X140752489Y-114834618D01*
X140754414Y-114873751D01*
X140754400Y-114893390D01*
X140769988Y-114946842D01*
X140809059Y-115014121D01*
X140826701Y-115037362D01*
X140885348Y-115114668D01*
X140948110Y-115205586D01*
X140970198Y-115240000D01*
X141013448Y-115306764D01*
X141047088Y-115353931D01*
X141058761Y-115367000D01*
X141088555Y-115396339D01*
X141137755Y-115452018D01*
X141197478Y-115523108D01*
X141258838Y-115598681D01*
X141312953Y-115667808D01*
X141350937Y-115719561D01*
X141364000Y-115742483D01*
X141380818Y-115771974D01*
X141422854Y-115819717D01*
X141440201Y-115836900D01*
X141516401Y-115909904D01*
X141516400Y-115490088D01*
X141514807Y-115307302D01*
X141509105Y-115164476D01*
X141497907Y-115050840D01*
X141479828Y-114955629D01*
X141453482Y-114868075D01*
X141427836Y-114801850D01*
X141424606Y-114786771D01*
X141433351Y-114775538D01*
X141460295Y-114767591D01*
X141511662Y-114762367D01*
X141593676Y-114759303D01*
X141712561Y-114757838D01*
X141874540Y-114757410D01*
X141920083Y-114757400D01*
X142074917Y-114757746D01*
X142210878Y-114758712D01*
X142320383Y-114760190D01*
X142395849Y-114762071D01*
X142429692Y-114764245D01*
X142430801Y-114764729D01*
X142706052Y-114764729D01*
X142705570Y-114715725D01*
X142703396Y-114577060D01*
X142700658Y-114466503D01*
X142697293Y-114380811D01*
X142693242Y-114316742D01*
X142688442Y-114271055D01*
X142682832Y-114240507D01*
X142676350Y-114221858D01*
X142670286Y-114213114D01*
X142657822Y-114204934D01*
X142635563Y-114197938D01*
X142599809Y-114192034D01*
X142546859Y-114187133D01*
X142473012Y-114183144D01*
X142374569Y-114179978D01*
X142247827Y-114177544D01*
X142089087Y-114175752D01*
X141894647Y-114174511D01*
X141660807Y-114173733D01*
X141383865Y-114173326D01*
X141060122Y-114173200D01*
X139433600Y-114173200D01*
X139433600Y-114269418D01*
X139413521Y-114385335D01*
X139360475Y-114504000D01*
X139285246Y-114604991D01*
X139232994Y-114649244D01*
X139119454Y-114696370D01*
X138988500Y-114706636D01*
X138854372Y-114682918D01*
X138731310Y-114628089D01*
X138633552Y-114545023D01*
X138618200Y-114525147D01*
X138571194Y-114424428D01*
X138549561Y-114308877D01*
X138538310Y-114173199D01*
X138428970Y-114173200D01*
X138395420Y-114171977D01*
X138366069Y-114170421D01*
X138340637Y-114171699D01*
G36*
X136247324Y-114735341D02*
X136206089Y-114745143D01*
X136135121Y-114767829D01*
X136039827Y-114803963D01*
X135932479Y-114848187D01*
X135825347Y-114895147D01*
X135730702Y-114939487D01*
X135660815Y-114975851D01*
X135629936Y-114996598D01*
X135639626Y-115019582D01*
X135671964Y-115074508D01*
X135720536Y-115151651D01*
X135778926Y-115241288D01*
X135840719Y-115333695D01*
X135899498Y-115419151D01*
X135948848Y-115487930D01*
X135981323Y-115529159D01*
X136009764Y-115526624D01*
X136061919Y-115496335D01*
X136105593Y-115462312D01*
X136250702Y-115370226D01*
X136415513Y-115324559D01*
X136573902Y-115323284D01*
X136744602Y-115363902D01*
X136888741Y-115447127D01*
X137005755Y-115571925D01*
X137095081Y-115737260D01*
X137156157Y-115942097D01*
X137188419Y-116185401D01*
X137191574Y-116459200D01*
X137170133Y-116706826D01*
X137125016Y-116912741D01*
X137054370Y-117081105D01*
X136956343Y-117216080D01*
X136829083Y-117321826D01*
X136799421Y-117340151D01*
X136722227Y-117380415D01*
X136650762Y-117401876D01*
X136562973Y-117409676D01*
X136499900Y-117410009D01*
X136340183Y-117394354D01*
X136201453Y-117346392D01*
X136067375Y-117259613D01*
X136017154Y-117217663D01*
X135962908Y-117173162D01*
X135926586Y-117149225D01*
X135918945Y-117147969D01*
X135896784Y-117181288D01*
X135857502Y-117245333D01*
X135806770Y-117330348D01*
X135750257Y-117426575D01*
X135693634Y-117524257D01*
X135642569Y-117613636D01*
X135602735Y-117684956D01*
X135579799Y-117728460D01*
X135576547Y-117737180D01*
X135601782Y-117750554D01*
X135659656Y-117781253D01*
X135737938Y-117822786D01*
X135742543Y-117825230D01*
X135904853Y-117905612D01*
X136047788Y-117960928D01*
X136189728Y-117995986D01*
X136349053Y-118015593D01*
X136499900Y-118023340D01*
X136692715Y-118024569D01*
X136844750Y-118015113D01*
X136935564Y-117999565D01*
X137167799Y-117914718D01*
X137380841Y-117785718D01*
X137570634Y-117616906D01*
X137733122Y-117412623D01*
X137864248Y-117177209D01*
X137959956Y-116915005D01*
X137964452Y-116898632D01*
X138000750Y-116712026D01*
X138019655Y-116497920D01*
X138021177Y-116274257D01*
X138005331Y-116058982D01*
X137972128Y-115870040D01*
X137963703Y-115838044D01*
X137861939Y-115564435D01*
X137719268Y-115318468D01*
X137538196Y-115103653D01*
X137321230Y-114923495D01*
X137300000Y-114909082D01*
X137122356Y-114816504D01*
X136914302Y-114750748D01*
X136689802Y-114713907D01*
X136462822Y-114708073D01*
X136247324Y-114735341D01*
X136247324Y-114735341D01*
G37*
X136247324Y-114735341D02*
X136206089Y-114745143D01*
X136135121Y-114767829D01*
X136039827Y-114803963D01*
X135932479Y-114848187D01*
X135825347Y-114895147D01*
X135730702Y-114939487D01*
X135660815Y-114975851D01*
X135629936Y-114996598D01*
X135639626Y-115019582D01*
X135671964Y-115074508D01*
X135720536Y-115151651D01*
X135778926Y-115241288D01*
X135840719Y-115333695D01*
X135899498Y-115419151D01*
X135948848Y-115487930D01*
X135981323Y-115529159D01*
X136009764Y-115526624D01*
X136061919Y-115496335D01*
X136105593Y-115462312D01*
X136250702Y-115370226D01*
X136415513Y-115324559D01*
X136573902Y-115323284D01*
X136744602Y-115363902D01*
X136888741Y-115447127D01*
X137005755Y-115571925D01*
X137095081Y-115737260D01*
X137156157Y-115942097D01*
X137188419Y-116185401D01*
X137191574Y-116459200D01*
X137170133Y-116706826D01*
X137125016Y-116912741D01*
X137054370Y-117081105D01*
X136956343Y-117216080D01*
X136829083Y-117321826D01*
X136799421Y-117340151D01*
X136722227Y-117380415D01*
X136650762Y-117401876D01*
X136562973Y-117409676D01*
X136499900Y-117410009D01*
X136340183Y-117394354D01*
X136201453Y-117346392D01*
X136067375Y-117259613D01*
X136017154Y-117217663D01*
X135962908Y-117173162D01*
X135926586Y-117149225D01*
X135918945Y-117147969D01*
X135896784Y-117181288D01*
X135857502Y-117245333D01*
X135806770Y-117330348D01*
X135750257Y-117426575D01*
X135693634Y-117524257D01*
X135642569Y-117613636D01*
X135602735Y-117684956D01*
X135579799Y-117728460D01*
X135576547Y-117737180D01*
X135601782Y-117750554D01*
X135659656Y-117781253D01*
X135737938Y-117822786D01*
X135742543Y-117825230D01*
X135904853Y-117905612D01*
X136047788Y-117960928D01*
X136189728Y-117995986D01*
X136349053Y-118015593D01*
X136499900Y-118023340D01*
X136692715Y-118024569D01*
X136844750Y-118015113D01*
X136935564Y-117999565D01*
X137167799Y-117914718D01*
X137380841Y-117785718D01*
X137570634Y-117616906D01*
X137733122Y-117412623D01*
X137864248Y-117177209D01*
X137959956Y-116915005D01*
X137964452Y-116898632D01*
X138000750Y-116712026D01*
X138019655Y-116497920D01*
X138021177Y-116274257D01*
X138005331Y-116058982D01*
X137972128Y-115870040D01*
X137963703Y-115838044D01*
X137861939Y-115564435D01*
X137719268Y-115318468D01*
X137538196Y-115103653D01*
X137321230Y-114923495D01*
X137300000Y-114909082D01*
X137122356Y-114816504D01*
X136914302Y-114750748D01*
X136689802Y-114713907D01*
X136462822Y-114708073D01*
X136247324Y-114735341D01*
G36*
X134164380Y-115581359D02*
X133988424Y-115621264D01*
X133869487Y-115665895D01*
X133776902Y-115721778D01*
X133694221Y-115795360D01*
X133641083Y-115850188D01*
X133597604Y-115901829D01*
X133562709Y-115955992D01*
X133535324Y-116018387D01*
X133514376Y-116094723D01*
X133498791Y-116190710D01*
X133487496Y-116312058D01*
X133479415Y-116464475D01*
X133473477Y-116653670D01*
X133468606Y-116885355D01*
X133466451Y-117006477D01*
X133462193Y-117238434D01*
X133458070Y-117425051D01*
X133453724Y-117571785D01*
X133448797Y-117684095D01*
X133442932Y-117767437D01*
X133435769Y-117827269D01*
X133426951Y-117869049D01*
X133416120Y-117898234D01*
X133406865Y-117914527D01*
X133361829Y-117983200D01*
X134172582Y-117983200D01*
X134188500Y-117829698D01*
X134287898Y-117897483D01*
X134444054Y-117976254D01*
X134624908Y-118022178D01*
X134814705Y-118033137D01*
X134997691Y-118007011D01*
X135031166Y-117997436D01*
X135217571Y-117915112D01*
X135368480Y-117797585D01*
X135481348Y-117648321D01*
X135553625Y-117470786D01*
X135582765Y-117268443D01*
X135583212Y-117246600D01*
X135582548Y-117217545D01*
X134854293Y-117217545D01*
X134850037Y-117306884D01*
X134839910Y-117337502D01*
X134777221Y-117418089D01*
X134682277Y-117472481D01*
X134568673Y-117496352D01*
X134450004Y-117485378D01*
X134412404Y-117473508D01*
X134325217Y-117431968D01*
X134269576Y-117379366D01*
X134239106Y-117304280D01*
X134227434Y-117195289D01*
X134226600Y-117140572D01*
X134226600Y-116941800D01*
X134392516Y-116941800D01*
X134556253Y-116956824D01*
X134694872Y-116999733D01*
X134790324Y-117060555D01*
X134832931Y-117127298D01*
X134854293Y-117217545D01*
X135582548Y-117217545D01*
X135580597Y-117132273D01*
X135566949Y-117044974D01*
X135537450Y-116961311D01*
X135514118Y-116911215D01*
X135409777Y-116754636D01*
X135265396Y-116628758D01*
X135081631Y-116533878D01*
X134859138Y-116470291D01*
X134598574Y-116438295D01*
X134458206Y-116434241D01*
X134219912Y-116433800D01*
X134233804Y-116330228D01*
X134269738Y-116216960D01*
X134341656Y-116138507D01*
X134448276Y-116095163D01*
X134588313Y-116087223D01*
X134760484Y-116114980D01*
X134937491Y-116169144D01*
X135021949Y-116196413D01*
X135086942Y-116211373D01*
X135118805Y-116210908D01*
X135119138Y-116210589D01*
X135136724Y-116178872D01*
X135166820Y-116112912D01*
X135204098Y-116025745D01*
X135243227Y-115930404D01*
X135278878Y-115839925D01*
X135305720Y-115767340D01*
X135318425Y-115725685D01*
X135318800Y-115722302D01*
X135297010Y-115703617D01*
X135253553Y-115697200D01*
X135201969Y-115691037D01*
X135115150Y-115674424D01*
X135006897Y-115650175D01*
X134929703Y-115631173D01*
X134663904Y-115580360D01*
X134405224Y-115563718D01*
X134164380Y-115581359D01*
X134164380Y-115581359D01*
G37*
X134164380Y-115581359D02*
X133988424Y-115621264D01*
X133869487Y-115665895D01*
X133776902Y-115721778D01*
X133694221Y-115795360D01*
X133641083Y-115850188D01*
X133597604Y-115901829D01*
X133562709Y-115955992D01*
X133535324Y-116018387D01*
X133514376Y-116094723D01*
X133498791Y-116190710D01*
X133487496Y-116312058D01*
X133479415Y-116464475D01*
X133473477Y-116653670D01*
X133468606Y-116885355D01*
X133466451Y-117006477D01*
X133462193Y-117238434D01*
X133458070Y-117425051D01*
X133453724Y-117571785D01*
X133448797Y-117684095D01*
X133442932Y-117767437D01*
X133435769Y-117827269D01*
X133426951Y-117869049D01*
X133416120Y-117898234D01*
X133406865Y-117914527D01*
X133361829Y-117983200D01*
X134172582Y-117983200D01*
X134188500Y-117829698D01*
X134287898Y-117897483D01*
X134444054Y-117976254D01*
X134624908Y-118022178D01*
X134814705Y-118033137D01*
X134997691Y-118007011D01*
X135031166Y-117997436D01*
X135217571Y-117915112D01*
X135368480Y-117797585D01*
X135481348Y-117648321D01*
X135553625Y-117470786D01*
X135582765Y-117268443D01*
X135583212Y-117246600D01*
X135582548Y-117217545D01*
X134854293Y-117217545D01*
X134850037Y-117306884D01*
X134839910Y-117337502D01*
X134777221Y-117418089D01*
X134682277Y-117472481D01*
X134568673Y-117496352D01*
X134450004Y-117485378D01*
X134412404Y-117473508D01*
X134325217Y-117431968D01*
X134269576Y-117379366D01*
X134239106Y-117304280D01*
X134227434Y-117195289D01*
X134226600Y-117140572D01*
X134226600Y-116941800D01*
X134392516Y-116941800D01*
X134556253Y-116956824D01*
X134694872Y-116999733D01*
X134790324Y-117060555D01*
X134832931Y-117127298D01*
X134854293Y-117217545D01*
X135582548Y-117217545D01*
X135580597Y-117132273D01*
X135566949Y-117044974D01*
X135537450Y-116961311D01*
X135514118Y-116911215D01*
X135409777Y-116754636D01*
X135265396Y-116628758D01*
X135081631Y-116533878D01*
X134859138Y-116470291D01*
X134598574Y-116438295D01*
X134458206Y-116434241D01*
X134219912Y-116433800D01*
X134233804Y-116330228D01*
X134269738Y-116216960D01*
X134341656Y-116138507D01*
X134448276Y-116095163D01*
X134588313Y-116087223D01*
X134760484Y-116114980D01*
X134937491Y-116169144D01*
X135021949Y-116196413D01*
X135086942Y-116211373D01*
X135118805Y-116210908D01*
X135119138Y-116210589D01*
X135136724Y-116178872D01*
X135166820Y-116112912D01*
X135204098Y-116025745D01*
X135243227Y-115930404D01*
X135278878Y-115839925D01*
X135305720Y-115767340D01*
X135318425Y-115725685D01*
X135318800Y-115722302D01*
X135297010Y-115703617D01*
X135253553Y-115697200D01*
X135201969Y-115691037D01*
X135115150Y-115674424D01*
X135006897Y-115650175D01*
X134929703Y-115631173D01*
X134663904Y-115580360D01*
X134405224Y-115563718D01*
X134164380Y-115581359D01*
G36*
X130944536Y-116186150D02*
X130942994Y-116516052D01*
X130941434Y-116798981D01*
X130939739Y-117038761D01*
X130937792Y-117239219D01*
X130935477Y-117404181D01*
X130932678Y-117537472D01*
X130929276Y-117642918D01*
X130925156Y-117724345D01*
X130920201Y-117785580D01*
X130914293Y-117830447D01*
X130907317Y-117862774D01*
X130899155Y-117886385D01*
X130892198Y-117900650D01*
X130847096Y-117983200D01*
X131661200Y-117983200D01*
X131661200Y-117907000D01*
X131664559Y-117853452D01*
X131672649Y-117830804D01*
X131672773Y-117830800D01*
X131698891Y-117843784D01*
X131751274Y-117876537D01*
X131778097Y-117894421D01*
X131910397Y-117961647D01*
X132070063Y-118008589D01*
X132238978Y-118032338D01*
X132399023Y-118029984D01*
X132499400Y-118010247D01*
X132683462Y-117928939D01*
X132848590Y-117807200D01*
X132983483Y-117654510D01*
X133044845Y-117552694D01*
X133112269Y-117395029D01*
X133156145Y-117228951D01*
X133179286Y-117040403D01*
X133184759Y-116853913D01*
X133183998Y-116840200D01*
X132383864Y-116840200D01*
X132379366Y-117015895D01*
X132365751Y-117149414D01*
X132340523Y-117248949D01*
X132301188Y-117322691D01*
X132245249Y-117378831D01*
X132212984Y-117401170D01*
X132106579Y-117439164D01*
X131980856Y-117436176D01*
X131845797Y-117392728D01*
X131821501Y-117380773D01*
X131724700Y-117330557D01*
X131717858Y-116781487D01*
X131711015Y-116232416D01*
X131778109Y-116188454D01*
X131841640Y-116161707D01*
X131931332Y-116141044D01*
X131989367Y-116134065D01*
X132077745Y-116130970D01*
X132136709Y-116141095D01*
X132187015Y-116169683D01*
X132213073Y-116190568D01*
X132280417Y-116264167D01*
X132329336Y-116359737D01*
X132361659Y-116484234D01*
X132379213Y-116644611D01*
X132383864Y-116840200D01*
X133183998Y-116840200D01*
X133168325Y-116557965D01*
X133120458Y-116298134D01*
X133041829Y-116075509D01*
X132933111Y-115891180D01*
X132794975Y-115746237D01*
X132628094Y-115641768D01*
X132433140Y-115578864D01*
X132393830Y-115571835D01*
X132278297Y-115563575D01*
X132150937Y-115570429D01*
X132024339Y-115589852D01*
X131911088Y-115619299D01*
X131823772Y-115656225D01*
X131775738Y-115696815D01*
X131754873Y-115721282D01*
X131738830Y-115716192D01*
X131727075Y-115677657D01*
X131719076Y-115601788D01*
X131714298Y-115484701D01*
X131712207Y-115322506D01*
X131712000Y-115232670D01*
X131712523Y-115058573D01*
X131714531Y-114927217D01*
X131718689Y-114830550D01*
X131725657Y-114760519D01*
X131736099Y-114709073D01*
X131750678Y-114668158D01*
X131760062Y-114648470D01*
X131808124Y-114554200D01*
X130951772Y-114554200D01*
X130944536Y-116186150D01*
X130944536Y-116186150D01*
G37*
X130944536Y-116186150D02*
X130942994Y-116516052D01*
X130941434Y-116798981D01*
X130939739Y-117038761D01*
X130937792Y-117239219D01*
X130935477Y-117404181D01*
X130932678Y-117537472D01*
X130929276Y-117642918D01*
X130925156Y-117724345D01*
X130920201Y-117785580D01*
X130914293Y-117830447D01*
X130907317Y-117862774D01*
X130899155Y-117886385D01*
X130892198Y-117900650D01*
X130847096Y-117983200D01*
X131661200Y-117983200D01*
X131661200Y-117907000D01*
X131664559Y-117853452D01*
X131672649Y-117830804D01*
X131672773Y-117830800D01*
X131698891Y-117843784D01*
X131751274Y-117876537D01*
X131778097Y-117894421D01*
X131910397Y-117961647D01*
X132070063Y-118008589D01*
X132238978Y-118032338D01*
X132399023Y-118029984D01*
X132499400Y-118010247D01*
X132683462Y-117928939D01*
X132848590Y-117807200D01*
X132983483Y-117654510D01*
X133044845Y-117552694D01*
X133112269Y-117395029D01*
X133156145Y-117228951D01*
X133179286Y-117040403D01*
X133184759Y-116853913D01*
X133183998Y-116840200D01*
X132383864Y-116840200D01*
X132379366Y-117015895D01*
X132365751Y-117149414D01*
X132340523Y-117248949D01*
X132301188Y-117322691D01*
X132245249Y-117378831D01*
X132212984Y-117401170D01*
X132106579Y-117439164D01*
X131980856Y-117436176D01*
X131845797Y-117392728D01*
X131821501Y-117380773D01*
X131724700Y-117330557D01*
X131717858Y-116781487D01*
X131711015Y-116232416D01*
X131778109Y-116188454D01*
X131841640Y-116161707D01*
X131931332Y-116141044D01*
X131989367Y-116134065D01*
X132077745Y-116130970D01*
X132136709Y-116141095D01*
X132187015Y-116169683D01*
X132213073Y-116190568D01*
X132280417Y-116264167D01*
X132329336Y-116359737D01*
X132361659Y-116484234D01*
X132379213Y-116644611D01*
X132383864Y-116840200D01*
X133183998Y-116840200D01*
X133168325Y-116557965D01*
X133120458Y-116298134D01*
X133041829Y-116075509D01*
X132933111Y-115891180D01*
X132794975Y-115746237D01*
X132628094Y-115641768D01*
X132433140Y-115578864D01*
X132393830Y-115571835D01*
X132278297Y-115563575D01*
X132150937Y-115570429D01*
X132024339Y-115589852D01*
X131911088Y-115619299D01*
X131823772Y-115656225D01*
X131775738Y-115696815D01*
X131754873Y-115721282D01*
X131738830Y-115716192D01*
X131727075Y-115677657D01*
X131719076Y-115601788D01*
X131714298Y-115484701D01*
X131712207Y-115322506D01*
X131712000Y-115232670D01*
X131712523Y-115058573D01*
X131714531Y-114927217D01*
X131718689Y-114830550D01*
X131725657Y-114760519D01*
X131736099Y-114709073D01*
X131750678Y-114668158D01*
X131760062Y-114648470D01*
X131808124Y-114554200D01*
X130951772Y-114554200D01*
X130944536Y-116186150D01*
D13*
X143700000Y-86356000D02*
X143700000Y-75506000D01*
X148800000Y-86356000D02*
X143700000Y-86356000D01*
X148500000Y-85856000D02*
X148800000Y-86356000D01*
X153900000Y-85856000D02*
X148500000Y-85856000D01*
X153650000Y-86356000D02*
X153900000Y-85856000D01*
X153700000Y-86356000D02*
X153650000Y-86356000D01*
X155600000Y-86356000D02*
X153700000Y-86356000D01*
X155350000Y-85856000D02*
X155600000Y-86356000D01*
X156300000Y-85856000D02*
X155350000Y-85856000D01*
X156300000Y-75506000D02*
X156300000Y-85856000D01*
X143700000Y-75506000D02*
X156300000Y-75506000D01*
X124940000Y-124444000D02*
X126270000Y-124444000D01*
X124940000Y-123114000D02*
X124940000Y-124444000D01*
X127600000Y-121844000D02*
X124940000Y-121844000D01*
X127600000Y-104004000D02*
X127600000Y-121844000D01*
X124940000Y-104004000D02*
X127600000Y-104004000D01*
X124940000Y-121844000D02*
X124940000Y-104004000D01*
X172400000Y-121844000D02*
X172400000Y-104004000D01*
X172400000Y-104004000D02*
X175060000Y-104004000D01*
X175060000Y-104004000D02*
X175060000Y-121844000D01*
X175060000Y-121844000D02*
X172400000Y-121844000D01*
X172400000Y-123114000D02*
X172400000Y-124444000D01*
X172400000Y-124444000D02*
X173730000Y-124444000D01*
D14*
X142086380Y-77822666D02*
X142800666Y-77822666D01*
X142943523Y-77775047D01*
X143038761Y-77679809D01*
X143086380Y-77536952D01*
X143086380Y-77441714D01*
X143086380Y-78822666D02*
X143086380Y-78251238D01*
X143086380Y-78536952D02*
X142086380Y-78536952D01*
X142229238Y-78441714D01*
X142324476Y-78346476D01*
X142372095Y-78251238D01*
X127219333Y-102500380D02*
X127219333Y-103214666D01*
X127266952Y-103357523D01*
X127362190Y-103452761D01*
X127505047Y-103500380D01*
X127600285Y-103500380D01*
X126790761Y-102595619D02*
X126743142Y-102548000D01*
X126647904Y-102500380D01*
X126409809Y-102500380D01*
X126314571Y-102548000D01*
X126266952Y-102595619D01*
X126219333Y-102690857D01*
X126219333Y-102786095D01*
X126266952Y-102928952D01*
X126838380Y-103500380D01*
X126219333Y-103500380D01*
X173447333Y-102500380D02*
X173447333Y-103214666D01*
X173494952Y-103357523D01*
X173590190Y-103452761D01*
X173733047Y-103500380D01*
X173828285Y-103500380D01*
X173066380Y-102500380D02*
X172447333Y-102500380D01*
X172780666Y-102881333D01*
X172637809Y-102881333D01*
X172542571Y-102928952D01*
X172494952Y-102976571D01*
X172447333Y-103071809D01*
X172447333Y-103309904D01*
X172494952Y-103405142D01*
X172542571Y-103452761D01*
X172637809Y-103500380D01*
X172923523Y-103500380D01*
X173018761Y-103452761D01*
X173066380Y-103405142D01*
M02*
