M48
;DRILL file {KiCad (2017-05-08 revision d4e41c4f9)-makepkg} date 05/10/17 16:59:03
;FORMAT={-:-/ absolute / inch / decimal}
FMAT,2
INCH,TZ
T1C0.016
T2C0.020
T3C0.039
T4C0.052
T5C0.126
T6C0.039
T7C0.094
%
G90
G05
M72
T1
X5.0905Y-4.397
X5.0905Y-4.457
X5.0905Y-4.517
X5.0905Y-4.577
X5.1135Y-4.781
X5.17Y-4.248
X5.2055Y-4.057
X5.2405Y-4.057
X5.2755Y-4.057
X5.305Y-3.593
X5.3105Y-4.057
X5.316Y-4.672
X5.3455Y-4.057
X5.3805Y-4.057
X5.409Y-3.593
X5.4155Y-4.057
X5.4505Y-4.057
X5.4855Y-4.057
X5.5105Y-4.082
X5.5355Y-4.107
X5.5605Y-4.132
X5.5855Y-4.157
X5.607Y-4.253
X5.6105Y-4.182
X5.6605Y-4.213
X5.6915Y-4.3497
X5.6955Y-4.213
X5.7305Y-4.213
X5.7655Y-4.213
X5.8005Y-4.213
X5.8355Y-4.213
X5.8415Y-4.684
X5.8555Y-4.822
X5.868Y-4.466
X5.8705Y-4.213
X5.8925Y-4.805
X5.9055Y-4.213
X5.9185Y-4.7257
X5.9185Y-4.6838
X5.9405Y-4.213
X5.9755Y-4.213
X6.0105Y-4.212
X6.0455Y-4.212
X6.0705Y-4.187
X6.0817Y-4.4201
X6.0955Y-4.162
X6.1195Y-4.292
X6.1305Y-4.162
X6.1595Y-4.478
X6.1655Y-4.162
X6.1955Y-4.6495
X6.2005Y-4.162
X6.218Y-4.392
X6.2355Y-4.162
X6.2556Y-3.9
X6.2705Y-4.162
X6.273Y-4.6295
X6.295Y-3.9
X6.3005Y-4.142
X6.312Y-4.4627
X6.3255Y-4.117
X6.3293Y-4.2708
X6.3505Y-4.092
X6.3755Y-4.067
X6.399Y-4.201
X6.4083Y-3.5983
X6.4381Y-4.196
X6.4632Y-3.97
X6.4655Y-4.3185
X6.47Y-3.556
X6.478Y-4.447
X6.511Y-4.156
X6.5155Y-4.3185
X6.5205Y-4.062
X6.5605Y-4.062
X6.5715Y-4.374
X6.613Y-4.197
X6.623Y-4.577
X6.73Y-4.208
X6.73Y-4.3182
X6.7505Y-4.647
X6.8255Y-3.665
X6.826Y-3.596
T2
X4.9843Y-3.937
X5.0119Y-3.8702
X5.0119Y-4.0038
X5.0787Y-3.8425
X5.0787Y-4.0315
X5.1456Y-3.8702
X5.1456Y-4.0038
X5.1732Y-3.937
X6.6378Y-3.937
X6.6655Y-3.8702
X6.6655Y-4.0038
X6.7323Y-3.8425
X6.7323Y-4.0315
X6.7991Y-3.8702
X6.7991Y-4.0038
X6.8268Y-3.937
X4.9655Y-3.047
X5.0055Y-3.047
X5.0455Y-3.047
X5.0955Y-2.997
X5.1055Y-3.397
X5.1655Y-3.397
X5.2255Y-3.397
X5.2755Y-2.997
X5.3705Y-4.397
X5.4555Y-2.997
X5.463Y-3.982
X5.5105Y-3.867
X5.5455Y-3.397
X5.6055Y-3.397
X5.6355Y-2.997
X5.65Y-3.631
X5.65Y-3.776
X5.6655Y-3.397
X5.7655Y-3.857
X5.7655Y-3.897
X5.7655Y-3.937
X5.7655Y-3.977
X5.7655Y-4.017
X5.8005Y-3.837
X5.8005Y-3.877
X5.8005Y-3.917
X5.8005Y-3.957
X5.8005Y-3.997
X5.8005Y-4.037
X5.8055Y-2.998
X5.8355Y-3.817
X5.8355Y-3.857
X5.8355Y-3.897
X5.8355Y-3.937
X5.8355Y-3.977
X5.8355Y-4.017
X5.8355Y-4.057
X5.8455Y-2.998
X5.8705Y-3.797
X5.8705Y-3.837
X5.8705Y-3.877
X5.8705Y-3.917
X5.8705Y-3.957
X5.8705Y-3.997
X5.8705Y-4.037
X5.8705Y-4.077
X5.8855Y-2.998
X5.9055Y-3.777
X5.9055Y-3.817
X5.9055Y-3.857
X5.9055Y-3.897
X5.9055Y-3.937
X5.9055Y-3.977
X5.9055Y-4.017
X5.9055Y-4.057
X5.9055Y-4.097
X5.9255Y-2.998
X5.9405Y-3.797
X5.9405Y-3.837
X5.9405Y-3.877
X5.9405Y-3.917
X5.9405Y-3.957
X5.9405Y-3.997
X5.9405Y-4.037
X5.9405Y-4.077
X5.9655Y-2.998
X5.9755Y-3.817
X5.9755Y-3.857
X5.9755Y-3.897
X5.9755Y-3.937
X5.9755Y-3.977
X5.9755Y-4.017
X5.9755Y-4.057
X6.0055Y-2.998
X6.0105Y-3.837
X6.0105Y-3.877
X6.0105Y-3.917
X6.0105Y-3.957
X6.0105Y-3.997
X6.0105Y-4.037
X6.0455Y-3.857
X6.0455Y-3.897
X6.0455Y-3.937
X6.0455Y-3.977
X6.0455Y-4.017
X6.1755Y-2.997
X6.1855Y-3.397
X6.2455Y-3.397
X6.272Y-3.972
X6.3055Y-3.397
X6.3555Y-2.997
X6.3845Y-3.9769
X6.5355Y-2.997
X6.6255Y-3.397
X6.6855Y-3.397
X6.7155Y-2.997
X6.7455Y-3.397
X6.7655Y-3.047
X6.8055Y-3.047
X6.8455Y-3.047
T3
X4.9713Y-4.147
X4.9713Y-4.247
X4.9713Y-4.347
X4.9713Y-4.447
X4.9713Y-4.547
X4.9713Y-4.647
X4.9713Y-4.747
X4.9713Y-4.847
X6.8398Y-4.147
X6.8398Y-4.247
X6.8398Y-4.347
X6.8398Y-4.447
X6.8398Y-4.547
X6.8398Y-4.647
X6.8398Y-4.747
X6.8398Y-4.847
T4
X5.9055Y-3.077
X5.9055Y-3.2739
T5
X5.0787Y-3.937
X6.7323Y-3.937
T6
X5.69Y-4.5
X5.69Y-4.58
X5.99Y-4.54
T7
X5.765Y-4.44
X5.765Y-4.64
X5.99Y-4.44
X5.99Y-4.64
T0
M30
