G04 #@! TF.GenerationSoftware,KiCad,Pcbnew,(2017-05-12 revision b823d0b78)-makepkg*
G04 #@! TF.CreationDate,2017-05-13T14:29:26+02:00*
G04 #@! TF.ProjectId,led_pixel_stm32f030,6C65645F706978656C5F73746D333266,1.0*
G04 #@! TF.FileFunction,Paste,Top*
G04 #@! TF.FilePolarity,Positive*
%FSLAX46Y46*%
G04 Gerber Fmt 4.6, Leading zero omitted, Abs format (unit mm)*
G04 Created by KiCad (PCBNEW (2017-05-12 revision b823d0b78)-makepkg) date 05/13/17 14:29:26*
%MOMM*%
%LPD*%
G01*
G04 APERTURE LIST*
%ADD10C,0.100000*%
%ADD11R,2.000000X4.000000*%
%ADD12R,0.900000X0.800000*%
%ADD13R,1.200000X0.750000*%
%ADD14R,0.750000X1.200000*%
%ADD15R,1.500000X1.250000*%
%ADD16R,1.800000X2.500000*%
%ADD17R,3.000000X1.000000*%
%ADD18R,4.000000X2.000000*%
%ADD19R,1.200000X0.900000*%
%ADD20R,0.900000X1.200000*%
%ADD21R,1.700000X2.000000*%
%ADD22R,0.450000X1.450000*%
%ADD23O,1.473200X0.609600*%
%ADD24R,2.000000X1.500000*%
%ADD25R,2.000000X3.800000*%
%ADD26C,0.750000*%
%ADD27R,0.700000X2.500000*%
%ADD28R,1.000000X2.500000*%
%ADD29R,2.000000X0.800000*%
%ADD30R,4.500000X2.000000*%
%ADD31R,2.500000X1.000000*%
G04 APERTURE END LIST*
D10*
D11*
X130918000Y-93142000D03*
X126918000Y-93142000D03*
D12*
X136166400Y-106807200D03*
X134166400Y-107757200D03*
X134166400Y-105857200D03*
D13*
X129873000Y-122479000D03*
X131773000Y-122479000D03*
X164861200Y-106603800D03*
X166761200Y-106603800D03*
X166954500Y-116256000D03*
X165054500Y-116256000D03*
D14*
X156223000Y-119370000D03*
X156223000Y-121270000D03*
X171463000Y-121270000D03*
X171463000Y-119370000D03*
D13*
X132408000Y-114732000D03*
X130508000Y-114732000D03*
X130508000Y-116256000D03*
X132408000Y-116256000D03*
X130508000Y-113208000D03*
X132408000Y-113208000D03*
X132408000Y-111684000D03*
X130508000Y-111684000D03*
D15*
X169792000Y-81458000D03*
X167292000Y-81458000D03*
X142360000Y-81458000D03*
X139860000Y-81458000D03*
X156116000Y-81458000D03*
X158616000Y-81458000D03*
X131184000Y-81458000D03*
X128684000Y-81458000D03*
D16*
X165494000Y-84284000D03*
X165494000Y-88284000D03*
X138062000Y-88284000D03*
X138062000Y-84284000D03*
X154318000Y-88258600D03*
X154318000Y-84258600D03*
X126886000Y-84284000D03*
X126886000Y-88284000D03*
D17*
X156500000Y-99100000D03*
X143500000Y-99100000D03*
X156500000Y-97300000D03*
X156500000Y-100900000D03*
X156500000Y-102700000D03*
X143500000Y-102700000D03*
X143500000Y-100900000D03*
X143500000Y-97300000D03*
D11*
X166669000Y-92507000D03*
X170669000Y-92507000D03*
D18*
X137046000Y-97682000D03*
X137046000Y-93682000D03*
X161938000Y-93174000D03*
X161938000Y-97174000D03*
D19*
X159314000Y-116256000D03*
X161514000Y-116256000D03*
X141407000Y-120193000D03*
X143607000Y-120193000D03*
X130932400Y-105791200D03*
X128732400Y-105791200D03*
D20*
X132626400Y-105707200D03*
X132626400Y-107907200D03*
D19*
X143607000Y-122479000D03*
X141407000Y-122479000D03*
X128834000Y-120066000D03*
X131034000Y-120066000D03*
X145344000Y-122479000D03*
X147544000Y-122479000D03*
X128834000Y-118542000D03*
X131034000Y-118542000D03*
D21*
X173622000Y-85236000D03*
X173622000Y-81236000D03*
X146190000Y-81236000D03*
X146190000Y-85236000D03*
X162446000Y-81236000D03*
X162446000Y-85236000D03*
X135014000Y-85236000D03*
X135014000Y-81236000D03*
D20*
X173368000Y-87724000D03*
X173368000Y-89924000D03*
X145936000Y-87724000D03*
X145936000Y-89924000D03*
X162192000Y-89924000D03*
X162192000Y-87724000D03*
X134760000Y-89924000D03*
X134760000Y-87724000D03*
D22*
X161934000Y-108353000D03*
X162584000Y-108353000D03*
X163234000Y-108353000D03*
X163884000Y-108353000D03*
X164534000Y-108353000D03*
X165184000Y-108353000D03*
X165834000Y-108353000D03*
X166484000Y-108353000D03*
X167134000Y-108353000D03*
X167784000Y-108353000D03*
X167784000Y-114253000D03*
X167134000Y-114253000D03*
X166484000Y-114253000D03*
X165834000Y-114253000D03*
X165184000Y-114253000D03*
X164534000Y-114253000D03*
X163884000Y-114253000D03*
X163234000Y-114253000D03*
X162584000Y-114253000D03*
X161934000Y-114253000D03*
D23*
X133617000Y-122479000D03*
X133617000Y-121209000D03*
X133617000Y-119939000D03*
X133617000Y-118669000D03*
X139205000Y-118669000D03*
X139205000Y-119939000D03*
X139205000Y-121209000D03*
X139205000Y-122479000D03*
D24*
X134658000Y-111670000D03*
X134658000Y-116270000D03*
X134658000Y-113970000D03*
D25*
X140958000Y-113970000D03*
D26*
X169812000Y-85504000D03*
D10*
G36*
X168812000Y-85879000D02*
X169312000Y-85129000D01*
X170312000Y-85129000D01*
X170812000Y-85879000D01*
X168812000Y-85879000D01*
X168812000Y-85879000D01*
G37*
D27*
X168312000Y-83934000D03*
X171312000Y-83934000D03*
X168312000Y-88634000D03*
D28*
X169812000Y-88634000D03*
D27*
X171312000Y-88634000D03*
D28*
X169812000Y-83934000D03*
D26*
X169812000Y-87064000D03*
D10*
G36*
X170812000Y-86689000D02*
X170312000Y-87439000D01*
X169312000Y-87439000D01*
X168812000Y-86689000D01*
X170812000Y-86689000D01*
X170812000Y-86689000D01*
G37*
D29*
X169812000Y-86284000D03*
D26*
X142380000Y-85504000D03*
D10*
G36*
X141380000Y-85879000D02*
X141880000Y-85129000D01*
X142880000Y-85129000D01*
X143380000Y-85879000D01*
X141380000Y-85879000D01*
X141380000Y-85879000D01*
G37*
D27*
X140880000Y-83934000D03*
X143880000Y-83934000D03*
X140880000Y-88634000D03*
D28*
X142380000Y-88634000D03*
D27*
X143880000Y-88634000D03*
D28*
X142380000Y-83934000D03*
D26*
X142380000Y-87064000D03*
D10*
G36*
X143380000Y-86689000D02*
X142880000Y-87439000D01*
X141880000Y-87439000D01*
X141380000Y-86689000D01*
X143380000Y-86689000D01*
X143380000Y-86689000D01*
G37*
D29*
X142380000Y-86284000D03*
D26*
X158636000Y-85504000D03*
D10*
G36*
X157636000Y-85879000D02*
X158136000Y-85129000D01*
X159136000Y-85129000D01*
X159636000Y-85879000D01*
X157636000Y-85879000D01*
X157636000Y-85879000D01*
G37*
D27*
X157136000Y-83934000D03*
X160136000Y-83934000D03*
X157136000Y-88634000D03*
D28*
X158636000Y-88634000D03*
D27*
X160136000Y-88634000D03*
D28*
X158636000Y-83934000D03*
D26*
X158636000Y-87064000D03*
D10*
G36*
X159636000Y-86689000D02*
X159136000Y-87439000D01*
X158136000Y-87439000D01*
X157636000Y-86689000D01*
X159636000Y-86689000D01*
X159636000Y-86689000D01*
G37*
D29*
X158636000Y-86284000D03*
D26*
X131204000Y-85504000D03*
D10*
G36*
X130204000Y-85879000D02*
X130704000Y-85129000D01*
X131704000Y-85129000D01*
X132204000Y-85879000D01*
X130204000Y-85879000D01*
X130204000Y-85879000D01*
G37*
D27*
X129704000Y-83934000D03*
X132704000Y-83934000D03*
X129704000Y-88634000D03*
D28*
X131204000Y-88634000D03*
D27*
X132704000Y-88634000D03*
D28*
X131204000Y-83934000D03*
D26*
X131204000Y-87064000D03*
D10*
G36*
X132204000Y-86689000D02*
X131704000Y-87439000D01*
X130704000Y-87439000D01*
X130204000Y-86689000D01*
X132204000Y-86689000D01*
X132204000Y-86689000D01*
G37*
D29*
X131204000Y-86284000D03*
D30*
X168093000Y-121209000D03*
X159593000Y-121209000D03*
D19*
X164902000Y-117780000D03*
X167102000Y-117780000D03*
D31*
X127140000Y-79148000D03*
X127140000Y-76148000D03*
X131712000Y-76148000D03*
X131712000Y-79148000D03*
X136284000Y-76148000D03*
X136284000Y-79148000D03*
X140856000Y-76148000D03*
X140856000Y-79148000D03*
X145428000Y-76148000D03*
X145428000Y-79148000D03*
X154572000Y-79148000D03*
X154572000Y-76148000D03*
X159144000Y-79148000D03*
X159144000Y-76148000D03*
X163716000Y-79148000D03*
X163716000Y-76148000D03*
X168288000Y-79148000D03*
X168288000Y-76148000D03*
X172860000Y-76148000D03*
X172860000Y-79148000D03*
M02*
