G04 #@! TF.GenerationSoftware,KiCad,Pcbnew,(2017-05-12 revision b823d0b78)-makepkg*
G04 #@! TF.CreationDate,2017-06-18T22:17:59+02:00*
G04 #@! TF.ProjectId,led_pixel_stm32f030,6C65645F706978656C5F73746D333266,1.1*
G04 #@! TF.FileFunction,Soldermask,Top*
G04 #@! TF.FilePolarity,Negative*
%FSLAX46Y46*%
G04 Gerber Fmt 4.6, Leading zero omitted, Abs format (unit mm)*
G04 Created by KiCad (PCBNEW (2017-05-12 revision b823d0b78)-makepkg) date 06/18/17 22:17:59*
%MOMM*%
%LPD*%
G01*
G04 APERTURE LIST*
%ADD10C,0.100000*%
%ADD11C,2.420524*%
%ADD12R,3.400000X1.400000*%
%ADD13C,7.400000*%
%ADD14C,2.775000*%
%ADD15C,1.390600*%
%ADD16C,1.187400*%
%ADD17R,2.400000X4.400000*%
%ADD18R,1.300000X1.200000*%
%ADD19R,1.600000X1.150000*%
%ADD20R,1.150000X1.600000*%
%ADD21R,1.900000X1.650000*%
%ADD22R,2.200000X2.900000*%
%ADD23O,4.360000X2.380000*%
%ADD24R,4.360000X2.380000*%
%ADD25R,4.400000X2.400000*%
%ADD26R,1.600000X1.300000*%
%ADD27R,1.300000X1.600000*%
%ADD28R,2.100000X2.400000*%
%ADD29R,0.850000X1.850000*%
%ADD30O,1.873200X1.009600*%
%ADD31R,2.400000X1.900000*%
%ADD32R,2.400000X4.200000*%
%ADD33C,1.150000*%
%ADD34R,1.100000X2.900000*%
%ADD35R,1.400000X2.900000*%
%ADD36R,2.400000X1.200000*%
%ADD37R,4.900000X2.400000*%
%ADD38O,2.100000X2.100000*%
%ADD39R,2.100000X2.100000*%
%ADD40R,2.900000X1.400000*%
%ADD41C,6.800000*%
%ADD42C,1.000000*%
G04 APERTURE END LIST*
D10*
D11*
X150000000Y-104625000D03*
D10*
G36*
X155345530Y-103300000D02*
X150057308Y-105950000D01*
X149942692Y-105950000D01*
X144654470Y-103300000D01*
X155345530Y-103300000D01*
X155345530Y-103300000D01*
G37*
D11*
X150000000Y-95375000D03*
D10*
G36*
X144654470Y-96700000D02*
X149942692Y-94050000D01*
X150057308Y-94050000D01*
X155345530Y-96700000D01*
X144654470Y-96700000D01*
X144654470Y-96700000D01*
G37*
D12*
X156500000Y-99100000D03*
X143500000Y-99100000D03*
D13*
X150000000Y-100000000D03*
D10*
G36*
X145300000Y-103700000D02*
X145300000Y-96300000D01*
X154700000Y-96300000D01*
X154700000Y-103700000D01*
X145300000Y-103700000D01*
X145300000Y-103700000D01*
G37*
D12*
X156500000Y-97300000D03*
X156500000Y-100900000D03*
X156500000Y-102700000D03*
X143500000Y-102700000D03*
X143500000Y-100900000D03*
X143500000Y-97300000D03*
D14*
X146431000Y-117856000D03*
X146431000Y-112776000D03*
X152146000Y-112776000D03*
D15*
X144526000Y-114301000D03*
X144526000Y-116331000D03*
X152146000Y-115316000D03*
D14*
X152146000Y-117856000D03*
D16*
X147066000Y-114681000D03*
X145796000Y-114681000D03*
X145796000Y-115951000D03*
X147066000Y-115951000D03*
X150876000Y-114681000D03*
X150876000Y-115951000D03*
X149606000Y-114681000D03*
X149606000Y-115951000D03*
X148336000Y-115951000D03*
X148336000Y-114681000D03*
D17*
X130918000Y-93142000D03*
X126918000Y-93142000D03*
D18*
X136166400Y-106807200D03*
X134166400Y-107757200D03*
X134166400Y-105857200D03*
D19*
X129873000Y-122479000D03*
X131773000Y-122479000D03*
X164861200Y-106603800D03*
X166761200Y-106603800D03*
X166954500Y-116256000D03*
X165054500Y-116256000D03*
D20*
X156223000Y-119370000D03*
X156223000Y-121270000D03*
X171463000Y-121270000D03*
X171463000Y-119370000D03*
D19*
X132408000Y-114732000D03*
X130508000Y-114732000D03*
X130508000Y-116256000D03*
X132408000Y-116256000D03*
X130508000Y-113208000D03*
X132408000Y-113208000D03*
X132408000Y-111684000D03*
X130508000Y-111684000D03*
D21*
X169792000Y-81458000D03*
X167292000Y-81458000D03*
X142360000Y-81458000D03*
X139860000Y-81458000D03*
X156116000Y-81458000D03*
X158616000Y-81458000D03*
X131184000Y-81458000D03*
X128684000Y-81458000D03*
D22*
X165494000Y-84284000D03*
X165494000Y-88284000D03*
X138062000Y-88284000D03*
X138062000Y-84284000D03*
X154318000Y-88258600D03*
X154318000Y-84258600D03*
X126886000Y-84284000D03*
X126886000Y-88284000D03*
D23*
X150000000Y-83156000D03*
D24*
X150000000Y-78156000D03*
D17*
X166669000Y-92507000D03*
X170669000Y-92507000D03*
D25*
X137046000Y-97682000D03*
X137046000Y-93682000D03*
X161938000Y-93174000D03*
X161938000Y-97174000D03*
D26*
X159314000Y-116256000D03*
X161514000Y-116256000D03*
X141407000Y-120193000D03*
X143607000Y-120193000D03*
X130932400Y-105791200D03*
X128732400Y-105791200D03*
D27*
X132626400Y-105707200D03*
X132626400Y-107907200D03*
D26*
X143607000Y-122479000D03*
X141407000Y-122479000D03*
X128834000Y-120066000D03*
X131034000Y-120066000D03*
X145344000Y-122479000D03*
X147544000Y-122479000D03*
X128834000Y-118542000D03*
X131034000Y-118542000D03*
D28*
X173622000Y-85236000D03*
X173622000Y-81236000D03*
X146190000Y-81236000D03*
X146190000Y-85236000D03*
X162446000Y-81236000D03*
X162446000Y-85236000D03*
X135014000Y-85236000D03*
X135014000Y-81236000D03*
D27*
X173368000Y-87724000D03*
X173368000Y-89924000D03*
X145936000Y-87724000D03*
X145936000Y-89924000D03*
X162192000Y-89924000D03*
X162192000Y-87724000D03*
X134760000Y-89924000D03*
X134760000Y-87724000D03*
D29*
X161934000Y-108353000D03*
X162584000Y-108353000D03*
X163234000Y-108353000D03*
X163884000Y-108353000D03*
X164534000Y-108353000D03*
X165184000Y-108353000D03*
X165834000Y-108353000D03*
X166484000Y-108353000D03*
X167134000Y-108353000D03*
X167784000Y-108353000D03*
X167784000Y-114253000D03*
X167134000Y-114253000D03*
X166484000Y-114253000D03*
X165834000Y-114253000D03*
X165184000Y-114253000D03*
X164534000Y-114253000D03*
X163884000Y-114253000D03*
X163234000Y-114253000D03*
X162584000Y-114253000D03*
X161934000Y-114253000D03*
D30*
X133617000Y-122479000D03*
X133617000Y-121209000D03*
X133617000Y-119939000D03*
X133617000Y-118669000D03*
X139205000Y-118669000D03*
X139205000Y-119939000D03*
X139205000Y-121209000D03*
X139205000Y-122479000D03*
D31*
X134658000Y-111670000D03*
X134658000Y-116270000D03*
X134658000Y-113970000D03*
D32*
X140958000Y-113970000D03*
D33*
X169812000Y-85504000D03*
D10*
G36*
X168438297Y-86079000D02*
X169204963Y-84929000D01*
X170419037Y-84929000D01*
X171185703Y-86079000D01*
X168438297Y-86079000D01*
X168438297Y-86079000D01*
G37*
D34*
X168312000Y-83934000D03*
X171312000Y-83934000D03*
X168312000Y-88634000D03*
D35*
X169812000Y-88634000D03*
D34*
X171312000Y-88634000D03*
D35*
X169812000Y-83934000D03*
D33*
X169812000Y-87064000D03*
D10*
G36*
X171185703Y-86489000D02*
X170419037Y-87639000D01*
X169204963Y-87639000D01*
X168438297Y-86489000D01*
X171185703Y-86489000D01*
X171185703Y-86489000D01*
G37*
D36*
X169812000Y-86284000D03*
D33*
X142380000Y-85504000D03*
D10*
G36*
X141006297Y-86079000D02*
X141772963Y-84929000D01*
X142987037Y-84929000D01*
X143753703Y-86079000D01*
X141006297Y-86079000D01*
X141006297Y-86079000D01*
G37*
D34*
X140880000Y-83934000D03*
X143880000Y-83934000D03*
X140880000Y-88634000D03*
D35*
X142380000Y-88634000D03*
D34*
X143880000Y-88634000D03*
D35*
X142380000Y-83934000D03*
D33*
X142380000Y-87064000D03*
D10*
G36*
X143753703Y-86489000D02*
X142987037Y-87639000D01*
X141772963Y-87639000D01*
X141006297Y-86489000D01*
X143753703Y-86489000D01*
X143753703Y-86489000D01*
G37*
D36*
X142380000Y-86284000D03*
D33*
X158636000Y-85504000D03*
D10*
G36*
X157262297Y-86079000D02*
X158028963Y-84929000D01*
X159243037Y-84929000D01*
X160009703Y-86079000D01*
X157262297Y-86079000D01*
X157262297Y-86079000D01*
G37*
D34*
X157136000Y-83934000D03*
X160136000Y-83934000D03*
X157136000Y-88634000D03*
D35*
X158636000Y-88634000D03*
D34*
X160136000Y-88634000D03*
D35*
X158636000Y-83934000D03*
D33*
X158636000Y-87064000D03*
D10*
G36*
X160009703Y-86489000D02*
X159243037Y-87639000D01*
X158028963Y-87639000D01*
X157262297Y-86489000D01*
X160009703Y-86489000D01*
X160009703Y-86489000D01*
G37*
D36*
X158636000Y-86284000D03*
D33*
X131204000Y-85504000D03*
D10*
G36*
X129830297Y-86079000D02*
X130596963Y-84929000D01*
X131811037Y-84929000D01*
X132577703Y-86079000D01*
X129830297Y-86079000D01*
X129830297Y-86079000D01*
G37*
D34*
X129704000Y-83934000D03*
X132704000Y-83934000D03*
X129704000Y-88634000D03*
D35*
X131204000Y-88634000D03*
D34*
X132704000Y-88634000D03*
D35*
X131204000Y-83934000D03*
D33*
X131204000Y-87064000D03*
D10*
G36*
X132577703Y-86489000D02*
X131811037Y-87639000D01*
X130596963Y-87639000D01*
X129830297Y-86489000D01*
X132577703Y-86489000D01*
X132577703Y-86489000D01*
G37*
D36*
X131204000Y-86284000D03*
D37*
X168093000Y-121209000D03*
X159593000Y-121209000D03*
D26*
X164902000Y-117780000D03*
X167102000Y-117780000D03*
D38*
X126270000Y-105334000D03*
X126270000Y-107874000D03*
X126270000Y-110414000D03*
X126270000Y-112954000D03*
X126270000Y-115494000D03*
X126270000Y-118034000D03*
X126270000Y-120574000D03*
D39*
X126270000Y-123114000D03*
X173730000Y-123114000D03*
D38*
X173730000Y-120574000D03*
X173730000Y-118034000D03*
X173730000Y-115494000D03*
X173730000Y-112954000D03*
X173730000Y-110414000D03*
X173730000Y-107874000D03*
X173730000Y-105334000D03*
D40*
X127140000Y-79148000D03*
X127140000Y-76148000D03*
X131712000Y-76148000D03*
X131712000Y-79148000D03*
X136284000Y-76148000D03*
X136284000Y-79148000D03*
X140856000Y-76148000D03*
X140856000Y-79148000D03*
X145428000Y-76148000D03*
X145428000Y-79148000D03*
X154572000Y-79148000D03*
X154572000Y-76148000D03*
X159144000Y-79148000D03*
X159144000Y-76148000D03*
X163716000Y-79148000D03*
X163716000Y-76148000D03*
X168288000Y-79148000D03*
X168288000Y-76148000D03*
X172860000Y-76148000D03*
X172860000Y-79148000D03*
D41*
X129000000Y-100000000D03*
D42*
X131400000Y-100000000D03*
X130697056Y-101697056D03*
X129000000Y-102400000D03*
X127302944Y-101697056D03*
X126600000Y-100000000D03*
X127302944Y-98302944D03*
X129000000Y-97600000D03*
X130697056Y-98302944D03*
X172697056Y-98302944D03*
X171000000Y-97600000D03*
X169302944Y-98302944D03*
X168600000Y-100000000D03*
X169302944Y-101697056D03*
X171000000Y-102400000D03*
X172697056Y-101697056D03*
X173400000Y-100000000D03*
D41*
X171000000Y-100000000D03*
M02*
