%FSLAX45Y45*%
G04 Gerber Fmt 4.5, Leading zero omitted, Abs format (unit mm)*
G04 Created by KiCad (PCBNEW (2017-05-08 revision d4e41c4f9)-makepkg) date 05/10/17 16:59:04*
%MOMM*%
%LPD*%
G01*
G04 APERTURE LIST*
%ADD10C,0.127000*%
%ADD11C,0.200000*%
%ADD12C,0.300000*%
G04 APERTURE END LIST*
D10*
D11*
X12500000Y-12500000D02*
X12500000Y-7500000D01*
X17500000Y-12500000D02*
X12500000Y-12500000D01*
X17500000Y-7500000D02*
X17500000Y-12500000D01*
X12500000Y-7500000D02*
X17500000Y-7500000D01*
D11*
X12909900Y-11148400D02*
X12949900Y-11188400D01*
X12949900Y-11148400D02*
X12909900Y-11188400D01*
X12909900Y-11300800D02*
X12949900Y-11340800D01*
X12949900Y-11300800D02*
X12909900Y-11340800D01*
X12909900Y-11453200D02*
X12949900Y-11493200D01*
X12949900Y-11453200D02*
X12909900Y-11493200D01*
X12909900Y-11605600D02*
X12949900Y-11645600D01*
X12949900Y-11605600D02*
X12909900Y-11645600D01*
X12968320Y-12123760D02*
X13008320Y-12163760D01*
X13008320Y-12123760D02*
X12968320Y-12163760D01*
X13111800Y-10769920D02*
X13151800Y-10809920D01*
X13151800Y-10769920D02*
X13111800Y-10809920D01*
X13202000Y-10284800D02*
X13242000Y-10324800D01*
X13242000Y-10284800D02*
X13202000Y-10324800D01*
X13290900Y-10284800D02*
X13330900Y-10324800D01*
X13330900Y-10284800D02*
X13290900Y-10324800D01*
X13379800Y-10284800D02*
X13419800Y-10324800D01*
X13419800Y-10284800D02*
X13379800Y-10324800D01*
X13454700Y-9106220D02*
X13494700Y-9146220D01*
X13494700Y-9106220D02*
X13454700Y-9146220D01*
X13468700Y-10284800D02*
X13508700Y-10324800D01*
X13508700Y-10284800D02*
X13468700Y-10324800D01*
X13482640Y-11846880D02*
X13522640Y-11886880D01*
X13522640Y-11846880D02*
X13482640Y-11886880D01*
X13557600Y-10284800D02*
X13597600Y-10324800D01*
X13597600Y-10284800D02*
X13557600Y-10324800D01*
X13646500Y-10284800D02*
X13686500Y-10324800D01*
X13686500Y-10284800D02*
X13646500Y-10324800D01*
X13718860Y-9106220D02*
X13758860Y-9146220D01*
X13758860Y-9106220D02*
X13718860Y-9146220D01*
X13735400Y-10284800D02*
X13775400Y-10324800D01*
X13775400Y-10284800D02*
X13735400Y-10324800D01*
X13824300Y-10284800D02*
X13864300Y-10324800D01*
X13864300Y-10284800D02*
X13824300Y-10324800D01*
X13913200Y-10284800D02*
X13953200Y-10324800D01*
X13953200Y-10284800D02*
X13913200Y-10324800D01*
X13976700Y-10348300D02*
X14016700Y-10388300D01*
X14016700Y-10348300D02*
X13976700Y-10388300D01*
X14040200Y-10411800D02*
X14080200Y-10451800D01*
X14080200Y-10411800D02*
X14040200Y-10451800D01*
X14103700Y-10475300D02*
X14143700Y-10515300D01*
X14143700Y-10475300D02*
X14103700Y-10515300D01*
X14167200Y-10538800D02*
X14207200Y-10578800D01*
X14207200Y-10538800D02*
X14167200Y-10578800D01*
X14221780Y-10782620D02*
X14261780Y-10822620D01*
X14261780Y-10782620D02*
X14221780Y-10822620D01*
X14230700Y-10602300D02*
X14270700Y-10642300D01*
X14270700Y-10602300D02*
X14230700Y-10642300D01*
X14357694Y-10681081D02*
X14397694Y-10721081D01*
X14397694Y-10681081D02*
X14357694Y-10721081D01*
X14436482Y-11028224D02*
X14476482Y-11068224D01*
X14476482Y-11028224D02*
X14436482Y-11068224D01*
X14446600Y-10681081D02*
X14486600Y-10721081D01*
X14486600Y-10681081D02*
X14446600Y-10721081D01*
X14535500Y-10681081D02*
X14575500Y-10721081D01*
X14575500Y-10681081D02*
X14535500Y-10721081D01*
X14624400Y-10681081D02*
X14664400Y-10721081D01*
X14664400Y-10681081D02*
X14624400Y-10721081D01*
X14713300Y-10681081D02*
X14753300Y-10721081D01*
X14753300Y-10681081D02*
X14713300Y-10721081D01*
X14802200Y-10681081D02*
X14842200Y-10721081D01*
X14842200Y-10681081D02*
X14802200Y-10721081D01*
X14817300Y-11877360D02*
X14857300Y-11917360D01*
X14857300Y-11877360D02*
X14817300Y-11917360D01*
X14853000Y-12227900D02*
X14893000Y-12267900D01*
X14893000Y-12227900D02*
X14853000Y-12267900D01*
X14884720Y-11323640D02*
X14924720Y-11363640D01*
X14924720Y-11323640D02*
X14884720Y-11363640D01*
X14891100Y-10681081D02*
X14931100Y-10721081D01*
X14931100Y-10681081D02*
X14891100Y-10721081D01*
X14946980Y-12184720D02*
X14986980Y-12224720D01*
X14986980Y-12184720D02*
X14946980Y-12224720D01*
X14980000Y-10681081D02*
X15020000Y-10721081D01*
X15020000Y-10681081D02*
X14980000Y-10721081D01*
X15012884Y-11983263D02*
X15052884Y-12023263D01*
X15052884Y-11983263D02*
X15012884Y-12023263D01*
X15013100Y-11876895D02*
X15053100Y-11916895D01*
X15053100Y-11876895D02*
X15013100Y-11916895D01*
X15068900Y-10681081D02*
X15108900Y-10721081D01*
X15108900Y-10681081D02*
X15068900Y-10721081D01*
X15157800Y-10681081D02*
X15197800Y-10721081D01*
X15197800Y-10681081D02*
X15157800Y-10721081D01*
X15246717Y-10678568D02*
X15286717Y-10718568D01*
X15286717Y-10678568D02*
X15246717Y-10718568D01*
X15335600Y-10678500D02*
X15375600Y-10718500D01*
X15375600Y-10678500D02*
X15335600Y-10718500D01*
X15399100Y-10615000D02*
X15439100Y-10655000D01*
X15439100Y-10615000D02*
X15399100Y-10655000D01*
X15427392Y-11207173D02*
X15467392Y-11247173D01*
X15467392Y-11207173D02*
X15427392Y-11247173D01*
X15462600Y-10551500D02*
X15502600Y-10591500D01*
X15502600Y-10551500D02*
X15462600Y-10591500D01*
X15523560Y-10881700D02*
X15563560Y-10921700D01*
X15563560Y-10881700D02*
X15523560Y-10921700D01*
X15551500Y-10551500D02*
X15591500Y-10591500D01*
X15591500Y-10551500D02*
X15551500Y-10591500D01*
X15625160Y-11354140D02*
X15665160Y-11394140D01*
X15665160Y-11354140D02*
X15625160Y-11394140D01*
X15640400Y-10551500D02*
X15680400Y-10591500D01*
X15680400Y-10551500D02*
X15640400Y-10591500D01*
X15716600Y-11789750D02*
X15756600Y-11829750D01*
X15756600Y-11789750D02*
X15716600Y-11829750D01*
X15729300Y-10551500D02*
X15769300Y-10591500D01*
X15769300Y-10551500D02*
X15729300Y-10591500D01*
X15773766Y-11135585D02*
X15813766Y-11175585D01*
X15813766Y-11135585D02*
X15773766Y-11175585D01*
X15818200Y-10551500D02*
X15858200Y-10591500D01*
X15858200Y-10551500D02*
X15818200Y-10591500D01*
X15869299Y-9885999D02*
X15909299Y-9925999D01*
X15909299Y-9885999D02*
X15869299Y-9925999D01*
X15907100Y-10551500D02*
X15947100Y-10591500D01*
X15947100Y-10551500D02*
X15907100Y-10591500D01*
X15913450Y-11738950D02*
X15953450Y-11778950D01*
X15953450Y-11738950D02*
X15913450Y-11778950D01*
X15969300Y-9886000D02*
X16009300Y-9926000D01*
X16009300Y-9886000D02*
X15969300Y-9926000D01*
X15983300Y-10500700D02*
X16023300Y-10540700D01*
X16023300Y-10500700D02*
X15983300Y-10540700D01*
X16012391Y-11315197D02*
X16052391Y-11355197D01*
X16052391Y-11315197D02*
X16012391Y-11355197D01*
X16046800Y-10437200D02*
X16086800Y-10477200D01*
X16086800Y-10437200D02*
X16046800Y-10477200D01*
X16056427Y-10827708D02*
X16096427Y-10867708D01*
X16096427Y-10827708D02*
X16056427Y-10867708D01*
X16110300Y-10373700D02*
X16150300Y-10413700D01*
X16150300Y-10373700D02*
X16110300Y-10413700D01*
X16173800Y-10310200D02*
X16213800Y-10350200D01*
X16213800Y-10310200D02*
X16173800Y-10350200D01*
X16233491Y-10650644D02*
X16273491Y-10690644D01*
X16273491Y-10650644D02*
X16233491Y-10690644D01*
X16257016Y-9119599D02*
X16297016Y-9159599D01*
X16297016Y-9119599D02*
X16257016Y-9159599D01*
X16332670Y-10637840D02*
X16372670Y-10677840D01*
X16372670Y-10637840D02*
X16332670Y-10677840D01*
X16396644Y-10063800D02*
X16436644Y-10103800D01*
X16436644Y-10063800D02*
X16396644Y-10103800D01*
X16402400Y-10948899D02*
X16442400Y-10988899D01*
X16442400Y-10948899D02*
X16402400Y-10988899D01*
X16413800Y-9012240D02*
X16453800Y-9052240D01*
X16453800Y-9012240D02*
X16413800Y-9052240D01*
X16434149Y-11275401D02*
X16474149Y-11315401D01*
X16474149Y-11275401D02*
X16434149Y-11315401D01*
X16517940Y-10536240D02*
X16557940Y-10576240D01*
X16557940Y-10536240D02*
X16517940Y-10576240D01*
X16529400Y-10948899D02*
X16569400Y-10988899D01*
X16569400Y-10948899D02*
X16529400Y-10988899D01*
X16542100Y-10297500D02*
X16582100Y-10337500D01*
X16582100Y-10297500D02*
X16542100Y-10337500D01*
X16643700Y-10297500D02*
X16683700Y-10337500D01*
X16683700Y-10297500D02*
X16643700Y-10337500D01*
X16671640Y-11089980D02*
X16711640Y-11129980D01*
X16711640Y-11089980D02*
X16671640Y-11129980D01*
X16777020Y-10640380D02*
X16817020Y-10680380D01*
X16817020Y-10640380D02*
X16777020Y-10680380D01*
X16802450Y-11605600D02*
X16842450Y-11645600D01*
X16842450Y-11605600D02*
X16802450Y-11645600D01*
X17074199Y-10668320D02*
X17114199Y-10708320D01*
X17114199Y-10668320D02*
X17074199Y-10708320D01*
X17074200Y-10948325D02*
X17114200Y-10988325D01*
X17114200Y-10948325D02*
X17074200Y-10988325D01*
X17126300Y-11783400D02*
X17166300Y-11823400D01*
X17166300Y-11783400D02*
X17126300Y-11823400D01*
X17316800Y-9289120D02*
X17356800Y-9329120D01*
X17356800Y-9289120D02*
X17316800Y-9329120D01*
X17318040Y-9113840D02*
X17358040Y-9153840D01*
X17358040Y-9113840D02*
X17318040Y-9153840D01*
X12685000Y-10000000D02*
G75*
G03X12685000Y-10000000I-25000J0D01*
G01*
X12755294Y-9830294D02*
G75*
G03X12755294Y-9830294I-25000J0D01*
G01*
X12755294Y-10169706D02*
G75*
G03X12755294Y-10169706I-25000J0D01*
G01*
X12925000Y-9760000D02*
G75*
G03X12925000Y-9760000I-25000J0D01*
G01*
X12925000Y-10240000D02*
G75*
G03X12925000Y-10240000I-25000J0D01*
G01*
X13094706Y-9830294D02*
G75*
G03X13094706Y-9830294I-25000J0D01*
G01*
X13094706Y-10169706D02*
G75*
G03X13094706Y-10169706I-25000J0D01*
G01*
X13165000Y-10000000D02*
G75*
G03X13165000Y-10000000I-25000J0D01*
G01*
X16885000Y-10000000D02*
G75*
G03X16885000Y-10000000I-25000J0D01*
G01*
X16955294Y-9830294D02*
G75*
G03X16955294Y-9830294I-25000J0D01*
G01*
X16955294Y-10169706D02*
G75*
G03X16955294Y-10169706I-25000J0D01*
G01*
X17125000Y-9760000D02*
G75*
G03X17125000Y-9760000I-25000J0D01*
G01*
X17125000Y-10240000D02*
G75*
G03X17125000Y-10240000I-25000J0D01*
G01*
X17294706Y-9830294D02*
G75*
G03X17294706Y-9830294I-25000J0D01*
G01*
X17294706Y-10169706D02*
G75*
G03X17294706Y-10169706I-25000J0D01*
G01*
X17365000Y-10000000D02*
G75*
G03X17365000Y-10000000I-25000J0D01*
G01*
X12637400Y-7739400D02*
G75*
G03X12637400Y-7739400I-25000J0D01*
G01*
X12739000Y-7739400D02*
G75*
G03X12739000Y-7739400I-25000J0D01*
G01*
X12840600Y-7739400D02*
G75*
G03X12840600Y-7739400I-25000J0D01*
G01*
X12967600Y-7612400D02*
G75*
G03X12967600Y-7612400I-25000J0D01*
G01*
X12993000Y-8628400D02*
G75*
G03X12993000Y-8628400I-25000J0D01*
G01*
X13145400Y-8628400D02*
G75*
G03X13145400Y-8628400I-25000J0D01*
G01*
X13297800Y-8628400D02*
G75*
G03X13297800Y-8628400I-25000J0D01*
G01*
X13424800Y-7612400D02*
G75*
G03X13424800Y-7612400I-25000J0D01*
G01*
X13666100Y-11168400D02*
G75*
G03X13666100Y-11168400I-25000J0D01*
G01*
X13882000Y-7612400D02*
G75*
G03X13882000Y-7612400I-25000J0D01*
G01*
X13901020Y-10114280D02*
G75*
G03X13901020Y-10114280I-25000J0D01*
G01*
X14021700Y-9822200D02*
G75*
G03X14021700Y-9822200I-25000J0D01*
G01*
X14110600Y-8628400D02*
G75*
G03X14110600Y-8628400I-25000J0D01*
G01*
X14263000Y-8628400D02*
G75*
G03X14263000Y-8628400I-25000J0D01*
G01*
X14339200Y-7612400D02*
G75*
G03X14339200Y-7612400I-25000J0D01*
G01*
X14376000Y-9222740D02*
G75*
G03X14376000Y-9222740I-25000J0D01*
G01*
X14376000Y-9591040D02*
G75*
G03X14376000Y-9591040I-25000J0D01*
G01*
X14415400Y-8628400D02*
G75*
G03X14415400Y-8628400I-25000J0D01*
G01*
X14669400Y-9796800D02*
G75*
G03X14669400Y-9796800I-25000J0D01*
G01*
X14669400Y-9898400D02*
G75*
G03X14669400Y-9898400I-25000J0D01*
G01*
X14669400Y-10000000D02*
G75*
G03X14669400Y-10000000I-25000J0D01*
G01*
X14669400Y-10101600D02*
G75*
G03X14669400Y-10101600I-25000J0D01*
G01*
X14669400Y-10203200D02*
G75*
G03X14669400Y-10203200I-25000J0D01*
G01*
X14758300Y-9746000D02*
G75*
G03X14758300Y-9746000I-25000J0D01*
G01*
X14758300Y-9847600D02*
G75*
G03X14758300Y-9847600I-25000J0D01*
G01*
X14758300Y-9949200D02*
G75*
G03X14758300Y-9949200I-25000J0D01*
G01*
X14758300Y-10050800D02*
G75*
G03X14758300Y-10050800I-25000J0D01*
G01*
X14758300Y-10152400D02*
G75*
G03X14758300Y-10152400I-25000J0D01*
G01*
X14758300Y-10254000D02*
G75*
G03X14758300Y-10254000I-25000J0D01*
G01*
X14771000Y-7614800D02*
G75*
G03X14771000Y-7614800I-25000J0D01*
G01*
X14847200Y-9695200D02*
G75*
G03X14847200Y-9695200I-25000J0D01*
G01*
X14847200Y-9796800D02*
G75*
G03X14847200Y-9796800I-25000J0D01*
G01*
X14847200Y-9898400D02*
G75*
G03X14847200Y-9898400I-25000J0D01*
G01*
X14847200Y-10000000D02*
G75*
G03X14847200Y-10000000I-25000J0D01*
G01*
X14847200Y-10101600D02*
G75*
G03X14847200Y-10101600I-25000J0D01*
G01*
X14847200Y-10203200D02*
G75*
G03X14847200Y-10203200I-25000J0D01*
G01*
X14847200Y-10304800D02*
G75*
G03X14847200Y-10304800I-25000J0D01*
G01*
X14872600Y-7614800D02*
G75*
G03X14872600Y-7614800I-25000J0D01*
G01*
X14936100Y-9644400D02*
G75*
G03X14936100Y-9644400I-25000J0D01*
G01*
X14936100Y-9746000D02*
G75*
G03X14936100Y-9746000I-25000J0D01*
G01*
X14936100Y-9847600D02*
G75*
G03X14936100Y-9847600I-25000J0D01*
G01*
X14936100Y-9949200D02*
G75*
G03X14936100Y-9949200I-25000J0D01*
G01*
X14936100Y-10050800D02*
G75*
G03X14936100Y-10050800I-25000J0D01*
G01*
X14936100Y-10152400D02*
G75*
G03X14936100Y-10152400I-25000J0D01*
G01*
X14936100Y-10254000D02*
G75*
G03X14936100Y-10254000I-25000J0D01*
G01*
X14936100Y-10355600D02*
G75*
G03X14936100Y-10355600I-25000J0D01*
G01*
X14974200Y-7614800D02*
G75*
G03X14974200Y-7614800I-25000J0D01*
G01*
X15025000Y-9593600D02*
G75*
G03X15025000Y-9593600I-25000J0D01*
G01*
X15025000Y-9695200D02*
G75*
G03X15025000Y-9695200I-25000J0D01*
G01*
X15025000Y-9796800D02*
G75*
G03X15025000Y-9796800I-25000J0D01*
G01*
X15025000Y-9898400D02*
G75*
G03X15025000Y-9898400I-25000J0D01*
G01*
X15025000Y-10000000D02*
G75*
G03X15025000Y-10000000I-25000J0D01*
G01*
X15025000Y-10101600D02*
G75*
G03X15025000Y-10101600I-25000J0D01*
G01*
X15025000Y-10203200D02*
G75*
G03X15025000Y-10203200I-25000J0D01*
G01*
X15025000Y-10304800D02*
G75*
G03X15025000Y-10304800I-25000J0D01*
G01*
X15025000Y-10406400D02*
G75*
G03X15025000Y-10406400I-25000J0D01*
G01*
X15075800Y-7614800D02*
G75*
G03X15075800Y-7614800I-25000J0D01*
G01*
X15113900Y-9644400D02*
G75*
G03X15113900Y-9644400I-25000J0D01*
G01*
X15113900Y-9746000D02*
G75*
G03X15113900Y-9746000I-25000J0D01*
G01*
X15113900Y-9847600D02*
G75*
G03X15113900Y-9847600I-25000J0D01*
G01*
X15113900Y-9949200D02*
G75*
G03X15113900Y-9949200I-25000J0D01*
G01*
X15113900Y-10050800D02*
G75*
G03X15113900Y-10050800I-25000J0D01*
G01*
X15113900Y-10152400D02*
G75*
G03X15113900Y-10152400I-25000J0D01*
G01*
X15113900Y-10254001D02*
G75*
G03X15113900Y-10254001I-25000J0D01*
G01*
X15113900Y-10355600D02*
G75*
G03X15113900Y-10355600I-25000J0D01*
G01*
X15177400Y-7614800D02*
G75*
G03X15177400Y-7614800I-25000J0D01*
G01*
X15202800Y-9695200D02*
G75*
G03X15202800Y-9695200I-25000J0D01*
G01*
X15202800Y-9796800D02*
G75*
G03X15202800Y-9796800I-25000J0D01*
G01*
X15202800Y-9898400D02*
G75*
G03X15202800Y-9898400I-25000J0D01*
G01*
X15202800Y-10000000D02*
G75*
G03X15202800Y-10000000I-25000J0D01*
G01*
X15202800Y-10101600D02*
G75*
G03X15202800Y-10101600I-25000J0D01*
G01*
X15202800Y-10203200D02*
G75*
G03X15202800Y-10203200I-25000J0D01*
G01*
X15202800Y-10304800D02*
G75*
G03X15202800Y-10304800I-25000J0D01*
G01*
X15279000Y-7614800D02*
G75*
G03X15279000Y-7614800I-25000J0D01*
G01*
X15291700Y-9746000D02*
G75*
G03X15291700Y-9746000I-25000J0D01*
G01*
X15291700Y-9847600D02*
G75*
G03X15291700Y-9847600I-25000J0D01*
G01*
X15291700Y-9949200D02*
G75*
G03X15291700Y-9949200I-25000J0D01*
G01*
X15291700Y-10050800D02*
G75*
G03X15291700Y-10050800I-25000J0D01*
G01*
X15291700Y-10152400D02*
G75*
G03X15291700Y-10152400I-25000J0D01*
G01*
X15291700Y-10254000D02*
G75*
G03X15291700Y-10254000I-25000J0D01*
G01*
X15380600Y-9796800D02*
G75*
G03X15380600Y-9796800I-25000J0D01*
G01*
X15380600Y-9898400D02*
G75*
G03X15380600Y-9898400I-25000J0D01*
G01*
X15380600Y-10000000D02*
G75*
G03X15380600Y-10000000I-25000J0D01*
G01*
X15380600Y-10101600D02*
G75*
G03X15380600Y-10101600I-25000J0D01*
G01*
X15380600Y-10203200D02*
G75*
G03X15380600Y-10203200I-25000J0D01*
G01*
X15710800Y-7612400D02*
G75*
G03X15710800Y-7612400I-25000J0D01*
G01*
X15736200Y-8628400D02*
G75*
G03X15736200Y-8628400I-25000J0D01*
G01*
X15888600Y-8628400D02*
G75*
G03X15888600Y-8628400I-25000J0D01*
G01*
X15955880Y-10088880D02*
G75*
G03X15955880Y-10088880I-25000J0D01*
G01*
X16041000Y-8628400D02*
G75*
G03X16041000Y-8628400I-25000J0D01*
G01*
X16168000Y-7612400D02*
G75*
G03X16168000Y-7612400I-25000J0D01*
G01*
X16241642Y-10101307D02*
G75*
G03X16241642Y-10101307I-25000J0D01*
G01*
X16625200Y-7612400D02*
G75*
G03X16625200Y-7612400I-25000J0D01*
G01*
X16853800Y-8628400D02*
G75*
G03X16853800Y-8628400I-25000J0D01*
G01*
X17006200Y-8628400D02*
G75*
G03X17006200Y-8628400I-25000J0D01*
G01*
X17082400Y-7612400D02*
G75*
G03X17082400Y-7612400I-25000J0D01*
G01*
X17158600Y-8628400D02*
G75*
G03X17158600Y-8628400I-25000J0D01*
G01*
X17209400Y-7739400D02*
G75*
G03X17209400Y-7739400I-25000J0D01*
G01*
X17311000Y-7739400D02*
G75*
G03X17311000Y-7739400I-25000J0D01*
G01*
X17412600Y-7739400D02*
G75*
G03X17412600Y-7739400I-25000J0D01*
G01*
X12627000Y-10483400D02*
X12627000Y-10583400D01*
X12577000Y-10533400D02*
X12677000Y-10533400D01*
X12627000Y-10737400D02*
X12627000Y-10837400D01*
X12577000Y-10787400D02*
X12677000Y-10787400D01*
X12627000Y-10991400D02*
X12627000Y-11091400D01*
X12577000Y-11041400D02*
X12677000Y-11041400D01*
X12627000Y-11245400D02*
X12627000Y-11345400D01*
X12577000Y-11295400D02*
X12677000Y-11295400D01*
X12627000Y-11499400D02*
X12627000Y-11599400D01*
X12577000Y-11549400D02*
X12677000Y-11549400D01*
X12627000Y-11753400D02*
X12627000Y-11853400D01*
X12577000Y-11803400D02*
X12677000Y-11803400D01*
X12627000Y-12007400D02*
X12627000Y-12107400D01*
X12577000Y-12057400D02*
X12677000Y-12057400D01*
X12627000Y-12261400D02*
X12627000Y-12361400D01*
X12577000Y-12311400D02*
X12677000Y-12311400D01*
X17373000Y-10483400D02*
X17373000Y-10583400D01*
X17323000Y-10533400D02*
X17423000Y-10533400D01*
X17373000Y-10737400D02*
X17373000Y-10837400D01*
X17323000Y-10787400D02*
X17423000Y-10787400D01*
X17373000Y-10991400D02*
X17373000Y-11091400D01*
X17323000Y-11041400D02*
X17423000Y-11041400D01*
X17373000Y-11245400D02*
X17373000Y-11345400D01*
X17323000Y-11295400D02*
X17423000Y-11295400D01*
X17373000Y-11499400D02*
X17373000Y-11599400D01*
X17323000Y-11549400D02*
X17423000Y-11549400D01*
X17373000Y-11753400D02*
X17373000Y-11853400D01*
X17323000Y-11803400D02*
X17423000Y-11803400D01*
X17373000Y-12007400D02*
X17373000Y-12107400D01*
X17323000Y-12057400D02*
X17423000Y-12057400D01*
X17373000Y-12261400D02*
X17373000Y-12361400D01*
X17323000Y-12311400D02*
X17423000Y-12311400D01*
X15046669Y-7862269D02*
X15046669Y-7768930D01*
X14953330Y-7768930D01*
X14953330Y-7862269D01*
X15046669Y-7862269D01*
X15046669Y-8362269D02*
X15046669Y-8268930D01*
X14953330Y-8268930D01*
X14953330Y-8362269D01*
X15046669Y-8362269D01*
X12900000Y-10160000D02*
X13060000Y-10000000D01*
X12900000Y-9840000D01*
X12740000Y-10000000D01*
X12900000Y-10160000D01*
X17100000Y-10160000D02*
X17260000Y-10000000D01*
X17100000Y-9840000D01*
X16940000Y-10000000D01*
X17100000Y-10160000D01*
X14403070Y-11380570D02*
X14502130Y-11479630D01*
X14502130Y-11380570D02*
X14403070Y-11479630D01*
X14502130Y-11430100D02*
G75*
G03X14502130Y-11430100I-49530J0D01*
G01*
X14403070Y-11583570D02*
X14502130Y-11682630D01*
X14502130Y-11583570D02*
X14403070Y-11682630D01*
X14502130Y-11633100D02*
G75*
G03X14502130Y-11633100I-49530J0D01*
G01*
X15165070Y-11482070D02*
X15264130Y-11581130D01*
X15264130Y-11482070D02*
X15165070Y-11581130D01*
X15264130Y-11531600D02*
G75*
G03X15264130Y-11531600I-49530J0D01*
G01*
X14524350Y-11158850D02*
X14761850Y-11396350D01*
X14761850Y-11158850D02*
X14524350Y-11396350D01*
X14643100Y-11158850D02*
X14643100Y-11396350D01*
X14524350Y-11277600D02*
X14761850Y-11277600D01*
X14524350Y-11666850D02*
X14761850Y-11904350D01*
X14761850Y-11666850D02*
X14524350Y-11904350D01*
X14643100Y-11666850D02*
X14643100Y-11904350D01*
X14524350Y-11785600D02*
X14761850Y-11785600D01*
X15095850Y-11158850D02*
X15333350Y-11396350D01*
X15333350Y-11158850D02*
X15095850Y-11396350D01*
X15214600Y-11158850D02*
X15214600Y-11396350D01*
X15095850Y-11277600D02*
X15333350Y-11277600D01*
X15095850Y-11666850D02*
X15333350Y-11904350D01*
X15333350Y-11666850D02*
X15095850Y-11904350D01*
X15214600Y-11666850D02*
X15214600Y-11904350D01*
X15095850Y-11785600D02*
X15333350Y-11785600D01*
D12*
X12776428Y-12975714D02*
X12776428Y-12675714D01*
X12847857Y-12675714D01*
X12890714Y-12690000D01*
X12919286Y-12718571D01*
X12933571Y-12747143D01*
X12947857Y-12804286D01*
X12947857Y-12847143D01*
X12933571Y-12904286D01*
X12919286Y-12932857D01*
X12890714Y-12961429D01*
X12847857Y-12975714D01*
X12776428Y-12975714D01*
X13076428Y-12975714D02*
X13076428Y-12775714D01*
X13076428Y-12832857D02*
X13090714Y-12804286D01*
X13105000Y-12790000D01*
X13133571Y-12775714D01*
X13162143Y-12775714D01*
X13262143Y-12975714D02*
X13262143Y-12775714D01*
X13262143Y-12675714D02*
X13247857Y-12690000D01*
X13262143Y-12704286D01*
X13276428Y-12690000D01*
X13262143Y-12675714D01*
X13262143Y-12704286D01*
X13447857Y-12975714D02*
X13419286Y-12961429D01*
X13405000Y-12932857D01*
X13405000Y-12675714D01*
X13605000Y-12975714D02*
X13576428Y-12961429D01*
X13562143Y-12932857D01*
X13562143Y-12675714D01*
X13947857Y-12975714D02*
X13947857Y-12675714D01*
X14047857Y-12890000D01*
X14147857Y-12675714D01*
X14147857Y-12975714D01*
X14419286Y-12975714D02*
X14419286Y-12818571D01*
X14405000Y-12790000D01*
X14376428Y-12775714D01*
X14319286Y-12775714D01*
X14290714Y-12790000D01*
X14419286Y-12961429D02*
X14390714Y-12975714D01*
X14319286Y-12975714D01*
X14290714Y-12961429D01*
X14276428Y-12932857D01*
X14276428Y-12904286D01*
X14290714Y-12875714D01*
X14319286Y-12861429D01*
X14390714Y-12861429D01*
X14419286Y-12847143D01*
X14562143Y-12775714D02*
X14562143Y-13075714D01*
X14562143Y-12790000D02*
X14590714Y-12775714D01*
X14647857Y-12775714D01*
X14676428Y-12790000D01*
X14690714Y-12804286D01*
X14705000Y-12832857D01*
X14705000Y-12918571D01*
X14690714Y-12947143D01*
X14676428Y-12961429D01*
X14647857Y-12975714D01*
X14590714Y-12975714D01*
X14562143Y-12961429D01*
X14833571Y-12947143D02*
X14847857Y-12961429D01*
X14833571Y-12975714D01*
X14819286Y-12961429D01*
X14833571Y-12947143D01*
X14833571Y-12975714D01*
X14833571Y-12790000D02*
X14847857Y-12804286D01*
X14833571Y-12818571D01*
X14819286Y-12804286D01*
X14833571Y-12790000D01*
X14833571Y-12818571D01*
X12450000Y-13450000D02*
X12490000Y-13490000D01*
X12490000Y-13450000D02*
X12450000Y-13490000D01*
X12833571Y-13305714D02*
X12862143Y-13305714D01*
X12890714Y-13320000D01*
X12905000Y-13334286D01*
X12919286Y-13362857D01*
X12933571Y-13420000D01*
X12933571Y-13491429D01*
X12919286Y-13548571D01*
X12905000Y-13577143D01*
X12890714Y-13591429D01*
X12862143Y-13605714D01*
X12833571Y-13605714D01*
X12805000Y-13591429D01*
X12790714Y-13577143D01*
X12776428Y-13548571D01*
X12762143Y-13491429D01*
X12762143Y-13420000D01*
X12776428Y-13362857D01*
X12790714Y-13334286D01*
X12805000Y-13320000D01*
X12833571Y-13305714D01*
X13062143Y-13577143D02*
X13076428Y-13591429D01*
X13062143Y-13605714D01*
X13047857Y-13591429D01*
X13062143Y-13577143D01*
X13062143Y-13605714D01*
X13333571Y-13405714D02*
X13333571Y-13605714D01*
X13262143Y-13291429D02*
X13190714Y-13505714D01*
X13376428Y-13505714D01*
X13547857Y-13305714D02*
X13576428Y-13305714D01*
X13605000Y-13320000D01*
X13619286Y-13334286D01*
X13633571Y-13362857D01*
X13647857Y-13420000D01*
X13647857Y-13491429D01*
X13633571Y-13548571D01*
X13619286Y-13577143D01*
X13605000Y-13591429D01*
X13576428Y-13605714D01*
X13547857Y-13605714D01*
X13519286Y-13591429D01*
X13505000Y-13577143D01*
X13490714Y-13548571D01*
X13476428Y-13491429D01*
X13476428Y-13420000D01*
X13490714Y-13362857D01*
X13505000Y-13334286D01*
X13519286Y-13320000D01*
X13547857Y-13305714D01*
X13776428Y-13605714D02*
X13776428Y-13405714D01*
X13776428Y-13434286D02*
X13790714Y-13420000D01*
X13819286Y-13405714D01*
X13862143Y-13405714D01*
X13890714Y-13420000D01*
X13905000Y-13448571D01*
X13905000Y-13605714D01*
X13905000Y-13448571D02*
X13919286Y-13420000D01*
X13947857Y-13405714D01*
X13990714Y-13405714D01*
X14019286Y-13420000D01*
X14033571Y-13448571D01*
X14033571Y-13605714D01*
X14176428Y-13605714D02*
X14176428Y-13405714D01*
X14176428Y-13434286D02*
X14190714Y-13420000D01*
X14219286Y-13405714D01*
X14262143Y-13405714D01*
X14290714Y-13420000D01*
X14305000Y-13448571D01*
X14305000Y-13605714D01*
X14305000Y-13448571D02*
X14319286Y-13420000D01*
X14347857Y-13405714D01*
X14390714Y-13405714D01*
X14419286Y-13420000D01*
X14433571Y-13448571D01*
X14433571Y-13605714D01*
X15019286Y-13291429D02*
X14762143Y-13677143D01*
X15405000Y-13305714D02*
X15433571Y-13305714D01*
X15462143Y-13320000D01*
X15476428Y-13334286D01*
X15490714Y-13362857D01*
X15505000Y-13420000D01*
X15505000Y-13491429D01*
X15490714Y-13548571D01*
X15476428Y-13577143D01*
X15462143Y-13591429D01*
X15433571Y-13605714D01*
X15405000Y-13605714D01*
X15376428Y-13591429D01*
X15362143Y-13577143D01*
X15347857Y-13548571D01*
X15333571Y-13491429D01*
X15333571Y-13420000D01*
X15347857Y-13362857D01*
X15362143Y-13334286D01*
X15376428Y-13320000D01*
X15405000Y-13305714D01*
X15633571Y-13577143D02*
X15647857Y-13591429D01*
X15633571Y-13605714D01*
X15619286Y-13591429D01*
X15633571Y-13577143D01*
X15633571Y-13605714D01*
X15833571Y-13305714D02*
X15862143Y-13305714D01*
X15890714Y-13320000D01*
X15905000Y-13334286D01*
X15919286Y-13362857D01*
X15933571Y-13420000D01*
X15933571Y-13491429D01*
X15919286Y-13548571D01*
X15905000Y-13577143D01*
X15890714Y-13591429D01*
X15862143Y-13605714D01*
X15833571Y-13605714D01*
X15805000Y-13591429D01*
X15790714Y-13577143D01*
X15776428Y-13548571D01*
X15762143Y-13491429D01*
X15762143Y-13420000D01*
X15776428Y-13362857D01*
X15790714Y-13334286D01*
X15805000Y-13320000D01*
X15833571Y-13305714D01*
X16219286Y-13605714D02*
X16047857Y-13605714D01*
X16133571Y-13605714D02*
X16133571Y-13305714D01*
X16105000Y-13348571D01*
X16076428Y-13377143D01*
X16047857Y-13391429D01*
X16476428Y-13305714D02*
X16419286Y-13305714D01*
X16390714Y-13320000D01*
X16376428Y-13334286D01*
X16347857Y-13377143D01*
X16333571Y-13434286D01*
X16333571Y-13548571D01*
X16347857Y-13577143D01*
X16362143Y-13591429D01*
X16390714Y-13605714D01*
X16447857Y-13605714D01*
X16476428Y-13591429D01*
X16490714Y-13577143D01*
X16505000Y-13548571D01*
X16505000Y-13477143D01*
X16490714Y-13448571D01*
X16476428Y-13434286D01*
X16447857Y-13420000D01*
X16390714Y-13420000D01*
X16362143Y-13434286D01*
X16347857Y-13448571D01*
X16333571Y-13477143D01*
X16619286Y-13305714D02*
X16619286Y-13362857D01*
X16733571Y-13305714D02*
X16733571Y-13362857D01*
X17176428Y-13720000D02*
X17162143Y-13705714D01*
X17133571Y-13662857D01*
X17119286Y-13634286D01*
X17105000Y-13591429D01*
X17090714Y-13520000D01*
X17090714Y-13462857D01*
X17105000Y-13391429D01*
X17119286Y-13348571D01*
X17133571Y-13320000D01*
X17162143Y-13277143D01*
X17176428Y-13262857D01*
X17333571Y-13434286D02*
X17305000Y-13420000D01*
X17290714Y-13405714D01*
X17276428Y-13377143D01*
X17276428Y-13362857D01*
X17290714Y-13334286D01*
X17305000Y-13320000D01*
X17333571Y-13305714D01*
X17390714Y-13305714D01*
X17419286Y-13320000D01*
X17433571Y-13334286D01*
X17447857Y-13362857D01*
X17447857Y-13377143D01*
X17433571Y-13405714D01*
X17419286Y-13420000D01*
X17390714Y-13434286D01*
X17333571Y-13434286D01*
X17305000Y-13448571D01*
X17290714Y-13462857D01*
X17276428Y-13491429D01*
X17276428Y-13548571D01*
X17290714Y-13577143D01*
X17305000Y-13591429D01*
X17333571Y-13605714D01*
X17390714Y-13605714D01*
X17419286Y-13591429D01*
X17433571Y-13577143D01*
X17447857Y-13548571D01*
X17447857Y-13491429D01*
X17433571Y-13462857D01*
X17419286Y-13448571D01*
X17390714Y-13434286D01*
X17547857Y-13305714D02*
X17733571Y-13305714D01*
X17633571Y-13420000D01*
X17676428Y-13420000D01*
X17705000Y-13434286D01*
X17719286Y-13448571D01*
X17733571Y-13477143D01*
X17733571Y-13548571D01*
X17719286Y-13577143D01*
X17705000Y-13591429D01*
X17676428Y-13605714D01*
X17590714Y-13605714D01*
X17562143Y-13591429D01*
X17547857Y-13577143D01*
X18090714Y-13605714D02*
X18090714Y-13305714D01*
X18219286Y-13605714D02*
X18219286Y-13448571D01*
X18205000Y-13420000D01*
X18176428Y-13405714D01*
X18133571Y-13405714D01*
X18105000Y-13420000D01*
X18090714Y-13434286D01*
X18405000Y-13605714D02*
X18376428Y-13591429D01*
X18362143Y-13577143D01*
X18347857Y-13548571D01*
X18347857Y-13462857D01*
X18362143Y-13434286D01*
X18376428Y-13420000D01*
X18405000Y-13405714D01*
X18447857Y-13405714D01*
X18476428Y-13420000D01*
X18490714Y-13434286D01*
X18505000Y-13462857D01*
X18505000Y-13548571D01*
X18490714Y-13577143D01*
X18476428Y-13591429D01*
X18447857Y-13605714D01*
X18405000Y-13605714D01*
X18676428Y-13605714D02*
X18647857Y-13591429D01*
X18633571Y-13562857D01*
X18633571Y-13305714D01*
X18905000Y-13591429D02*
X18876428Y-13605714D01*
X18819286Y-13605714D01*
X18790714Y-13591429D01*
X18776428Y-13562857D01*
X18776428Y-13448571D01*
X18790714Y-13420000D01*
X18819286Y-13405714D01*
X18876428Y-13405714D01*
X18905000Y-13420000D01*
X18919286Y-13448571D01*
X18919286Y-13477143D01*
X18776428Y-13505714D01*
X19033571Y-13591429D02*
X19062143Y-13605714D01*
X19119286Y-13605714D01*
X19147857Y-13591429D01*
X19162143Y-13562857D01*
X19162143Y-13548571D01*
X19147857Y-13520000D01*
X19119286Y-13505714D01*
X19076428Y-13505714D01*
X19047857Y-13491429D01*
X19033571Y-13462857D01*
X19033571Y-13448571D01*
X19047857Y-13420000D01*
X19076428Y-13405714D01*
X19119286Y-13405714D01*
X19147857Y-13420000D01*
X19262143Y-13720000D02*
X19276428Y-13705714D01*
X19305000Y-13662857D01*
X19319286Y-13634286D01*
X19333571Y-13591429D01*
X19347857Y-13520000D01*
X19347857Y-13462857D01*
X19333571Y-13391429D01*
X19319286Y-13348571D01*
X19305000Y-13320000D01*
X19276428Y-13277143D01*
X19262143Y-13262857D01*
X12490000Y-13866000D02*
G75*
G03X12490000Y-13866000I-25000J0D01*
G01*
X12833571Y-13701714D02*
X12862143Y-13701714D01*
X12890714Y-13716000D01*
X12905000Y-13730286D01*
X12919286Y-13758857D01*
X12933571Y-13816000D01*
X12933571Y-13887429D01*
X12919286Y-13944571D01*
X12905000Y-13973143D01*
X12890714Y-13987429D01*
X12862143Y-14001714D01*
X12833571Y-14001714D01*
X12805000Y-13987429D01*
X12790714Y-13973143D01*
X12776428Y-13944571D01*
X12762143Y-13887429D01*
X12762143Y-13816000D01*
X12776428Y-13758857D01*
X12790714Y-13730286D01*
X12805000Y-13716000D01*
X12833571Y-13701714D01*
X13062143Y-13973143D02*
X13076428Y-13987429D01*
X13062143Y-14001714D01*
X13047857Y-13987429D01*
X13062143Y-13973143D01*
X13062143Y-14001714D01*
X13347857Y-13701714D02*
X13205000Y-13701714D01*
X13190714Y-13844571D01*
X13205000Y-13830286D01*
X13233571Y-13816000D01*
X13305000Y-13816000D01*
X13333571Y-13830286D01*
X13347857Y-13844571D01*
X13362143Y-13873143D01*
X13362143Y-13944571D01*
X13347857Y-13973143D01*
X13333571Y-13987429D01*
X13305000Y-14001714D01*
X13233571Y-14001714D01*
X13205000Y-13987429D01*
X13190714Y-13973143D01*
X13547857Y-13701714D02*
X13576428Y-13701714D01*
X13605000Y-13716000D01*
X13619286Y-13730286D01*
X13633571Y-13758857D01*
X13647857Y-13816000D01*
X13647857Y-13887429D01*
X13633571Y-13944571D01*
X13619286Y-13973143D01*
X13605000Y-13987429D01*
X13576428Y-14001714D01*
X13547857Y-14001714D01*
X13519286Y-13987429D01*
X13505000Y-13973143D01*
X13490714Y-13944571D01*
X13476428Y-13887429D01*
X13476428Y-13816000D01*
X13490714Y-13758857D01*
X13505000Y-13730286D01*
X13519286Y-13716000D01*
X13547857Y-13701714D01*
X13776428Y-14001714D02*
X13776428Y-13801714D01*
X13776428Y-13830286D02*
X13790714Y-13816000D01*
X13819286Y-13801714D01*
X13862143Y-13801714D01*
X13890714Y-13816000D01*
X13905000Y-13844571D01*
X13905000Y-14001714D01*
X13905000Y-13844571D02*
X13919286Y-13816000D01*
X13947857Y-13801714D01*
X13990714Y-13801714D01*
X14019286Y-13816000D01*
X14033571Y-13844571D01*
X14033571Y-14001714D01*
X14176428Y-14001714D02*
X14176428Y-13801714D01*
X14176428Y-13830286D02*
X14190714Y-13816000D01*
X14219286Y-13801714D01*
X14262143Y-13801714D01*
X14290714Y-13816000D01*
X14305000Y-13844571D01*
X14305000Y-14001714D01*
X14305000Y-13844571D02*
X14319286Y-13816000D01*
X14347857Y-13801714D01*
X14390714Y-13801714D01*
X14419286Y-13816000D01*
X14433571Y-13844571D01*
X14433571Y-14001714D01*
X15019286Y-13687429D02*
X14762143Y-14073143D01*
X15405000Y-13701714D02*
X15433571Y-13701714D01*
X15462143Y-13716000D01*
X15476428Y-13730286D01*
X15490714Y-13758857D01*
X15505000Y-13816000D01*
X15505000Y-13887429D01*
X15490714Y-13944571D01*
X15476428Y-13973143D01*
X15462143Y-13987429D01*
X15433571Y-14001714D01*
X15405000Y-14001714D01*
X15376428Y-13987429D01*
X15362143Y-13973143D01*
X15347857Y-13944571D01*
X15333571Y-13887429D01*
X15333571Y-13816000D01*
X15347857Y-13758857D01*
X15362143Y-13730286D01*
X15376428Y-13716000D01*
X15405000Y-13701714D01*
X15633571Y-13973143D02*
X15647857Y-13987429D01*
X15633571Y-14001714D01*
X15619286Y-13987429D01*
X15633571Y-13973143D01*
X15633571Y-14001714D01*
X15833571Y-13701714D02*
X15862143Y-13701714D01*
X15890714Y-13716000D01*
X15905000Y-13730286D01*
X15919286Y-13758857D01*
X15933571Y-13816000D01*
X15933571Y-13887429D01*
X15919286Y-13944571D01*
X15905000Y-13973143D01*
X15890714Y-13987429D01*
X15862143Y-14001714D01*
X15833571Y-14001714D01*
X15805000Y-13987429D01*
X15790714Y-13973143D01*
X15776428Y-13944571D01*
X15762143Y-13887429D01*
X15762143Y-13816000D01*
X15776428Y-13758857D01*
X15790714Y-13730286D01*
X15805000Y-13716000D01*
X15833571Y-13701714D01*
X16047857Y-13730286D02*
X16062143Y-13716000D01*
X16090714Y-13701714D01*
X16162143Y-13701714D01*
X16190714Y-13716000D01*
X16205000Y-13730286D01*
X16219286Y-13758857D01*
X16219286Y-13787429D01*
X16205000Y-13830286D01*
X16033571Y-14001714D01*
X16219286Y-14001714D01*
X16405000Y-13701714D02*
X16433571Y-13701714D01*
X16462143Y-13716000D01*
X16476428Y-13730286D01*
X16490714Y-13758857D01*
X16505000Y-13816000D01*
X16505000Y-13887429D01*
X16490714Y-13944571D01*
X16476428Y-13973143D01*
X16462143Y-13987429D01*
X16433571Y-14001714D01*
X16405000Y-14001714D01*
X16376428Y-13987429D01*
X16362143Y-13973143D01*
X16347857Y-13944571D01*
X16333571Y-13887429D01*
X16333571Y-13816000D01*
X16347857Y-13758857D01*
X16362143Y-13730286D01*
X16376428Y-13716000D01*
X16405000Y-13701714D01*
X16619286Y-13701714D02*
X16619286Y-13758857D01*
X16733571Y-13701714D02*
X16733571Y-13758857D01*
X17176428Y-14116000D02*
X17162143Y-14101714D01*
X17133571Y-14058857D01*
X17119286Y-14030286D01*
X17105000Y-13987429D01*
X17090714Y-13916000D01*
X17090714Y-13858857D01*
X17105000Y-13787429D01*
X17119286Y-13744571D01*
X17133571Y-13716000D01*
X17162143Y-13673143D01*
X17176428Y-13658857D01*
X17447857Y-14001714D02*
X17276428Y-14001714D01*
X17362143Y-14001714D02*
X17362143Y-13701714D01*
X17333571Y-13744571D01*
X17305000Y-13773143D01*
X17276428Y-13787429D01*
X17733571Y-14001714D02*
X17562143Y-14001714D01*
X17647857Y-14001714D02*
X17647857Y-13701714D01*
X17619286Y-13744571D01*
X17590714Y-13773143D01*
X17562143Y-13787429D01*
X17990714Y-13701714D02*
X17933571Y-13701714D01*
X17905000Y-13716000D01*
X17890714Y-13730286D01*
X17862143Y-13773143D01*
X17847857Y-13830286D01*
X17847857Y-13944571D01*
X17862143Y-13973143D01*
X17876428Y-13987429D01*
X17905000Y-14001714D01*
X17962143Y-14001714D01*
X17990714Y-13987429D01*
X18005000Y-13973143D01*
X18019286Y-13944571D01*
X18019286Y-13873143D01*
X18005000Y-13844571D01*
X17990714Y-13830286D01*
X17962143Y-13816000D01*
X17905000Y-13816000D01*
X17876428Y-13830286D01*
X17862143Y-13844571D01*
X17847857Y-13873143D01*
X18376428Y-14001714D02*
X18376428Y-13701714D01*
X18505000Y-14001714D02*
X18505000Y-13844571D01*
X18490714Y-13816000D01*
X18462143Y-13801714D01*
X18419286Y-13801714D01*
X18390714Y-13816000D01*
X18376428Y-13830286D01*
X18690714Y-14001714D02*
X18662143Y-13987429D01*
X18647857Y-13973143D01*
X18633571Y-13944571D01*
X18633571Y-13858857D01*
X18647857Y-13830286D01*
X18662143Y-13816000D01*
X18690714Y-13801714D01*
X18733571Y-13801714D01*
X18762143Y-13816000D01*
X18776428Y-13830286D01*
X18790714Y-13858857D01*
X18790714Y-13944571D01*
X18776428Y-13973143D01*
X18762143Y-13987429D01*
X18733571Y-14001714D01*
X18690714Y-14001714D01*
X18962143Y-14001714D02*
X18933571Y-13987429D01*
X18919286Y-13958857D01*
X18919286Y-13701714D01*
X19190714Y-13987429D02*
X19162143Y-14001714D01*
X19105000Y-14001714D01*
X19076428Y-13987429D01*
X19062143Y-13958857D01*
X19062143Y-13844571D01*
X19076428Y-13816000D01*
X19105000Y-13801714D01*
X19162143Y-13801714D01*
X19190714Y-13816000D01*
X19205000Y-13844571D01*
X19205000Y-13873143D01*
X19062143Y-13901714D01*
X19319286Y-13987429D02*
X19347857Y-14001714D01*
X19405000Y-14001714D01*
X19433571Y-13987429D01*
X19447857Y-13958857D01*
X19447857Y-13944571D01*
X19433571Y-13916000D01*
X19405000Y-13901714D01*
X19362143Y-13901714D01*
X19333571Y-13887429D01*
X19319286Y-13858857D01*
X19319286Y-13844571D01*
X19333571Y-13816000D01*
X19362143Y-13801714D01*
X19405000Y-13801714D01*
X19433571Y-13816000D01*
X19547857Y-14116000D02*
X19562143Y-14101714D01*
X19590714Y-14058857D01*
X19605000Y-14030286D01*
X19619286Y-13987429D01*
X19633571Y-13916000D01*
X19633571Y-13858857D01*
X19619286Y-13787429D01*
X19605000Y-13744571D01*
X19590714Y-13716000D01*
X19562143Y-13673143D01*
X19547857Y-13658857D01*
X12440000Y-14212000D02*
X12440000Y-14312000D01*
X12390000Y-14262000D02*
X12490000Y-14262000D01*
X12933571Y-14397714D02*
X12762143Y-14397714D01*
X12847857Y-14397714D02*
X12847857Y-14097714D01*
X12819286Y-14140571D01*
X12790714Y-14169143D01*
X12762143Y-14183429D01*
X13062143Y-14369143D02*
X13076428Y-14383429D01*
X13062143Y-14397714D01*
X13047857Y-14383429D01*
X13062143Y-14369143D01*
X13062143Y-14397714D01*
X13262143Y-14097714D02*
X13290714Y-14097714D01*
X13319286Y-14112000D01*
X13333571Y-14126286D01*
X13347857Y-14154857D01*
X13362143Y-14212000D01*
X13362143Y-14283429D01*
X13347857Y-14340571D01*
X13333571Y-14369143D01*
X13319286Y-14383429D01*
X13290714Y-14397714D01*
X13262143Y-14397714D01*
X13233571Y-14383429D01*
X13219286Y-14369143D01*
X13205000Y-14340571D01*
X13190714Y-14283429D01*
X13190714Y-14212000D01*
X13205000Y-14154857D01*
X13219286Y-14126286D01*
X13233571Y-14112000D01*
X13262143Y-14097714D01*
X13547857Y-14097714D02*
X13576428Y-14097714D01*
X13605000Y-14112000D01*
X13619286Y-14126286D01*
X13633571Y-14154857D01*
X13647857Y-14212000D01*
X13647857Y-14283429D01*
X13633571Y-14340571D01*
X13619286Y-14369143D01*
X13605000Y-14383429D01*
X13576428Y-14397714D01*
X13547857Y-14397714D01*
X13519286Y-14383429D01*
X13505000Y-14369143D01*
X13490714Y-14340571D01*
X13476428Y-14283429D01*
X13476428Y-14212000D01*
X13490714Y-14154857D01*
X13505000Y-14126286D01*
X13519286Y-14112000D01*
X13547857Y-14097714D01*
X13776428Y-14397714D02*
X13776428Y-14197714D01*
X13776428Y-14226286D02*
X13790714Y-14212000D01*
X13819286Y-14197714D01*
X13862143Y-14197714D01*
X13890714Y-14212000D01*
X13905000Y-14240571D01*
X13905000Y-14397714D01*
X13905000Y-14240571D02*
X13919286Y-14212000D01*
X13947857Y-14197714D01*
X13990714Y-14197714D01*
X14019286Y-14212000D01*
X14033571Y-14240571D01*
X14033571Y-14397714D01*
X14176428Y-14397714D02*
X14176428Y-14197714D01*
X14176428Y-14226286D02*
X14190714Y-14212000D01*
X14219286Y-14197714D01*
X14262143Y-14197714D01*
X14290714Y-14212000D01*
X14305000Y-14240571D01*
X14305000Y-14397714D01*
X14305000Y-14240571D02*
X14319286Y-14212000D01*
X14347857Y-14197714D01*
X14390714Y-14197714D01*
X14419286Y-14212000D01*
X14433571Y-14240571D01*
X14433571Y-14397714D01*
X15019286Y-14083429D02*
X14762143Y-14469143D01*
X15405000Y-14097714D02*
X15433571Y-14097714D01*
X15462143Y-14112000D01*
X15476428Y-14126286D01*
X15490714Y-14154857D01*
X15505000Y-14212000D01*
X15505000Y-14283429D01*
X15490714Y-14340571D01*
X15476428Y-14369143D01*
X15462143Y-14383429D01*
X15433571Y-14397714D01*
X15405000Y-14397714D01*
X15376428Y-14383429D01*
X15362143Y-14369143D01*
X15347857Y-14340571D01*
X15333571Y-14283429D01*
X15333571Y-14212000D01*
X15347857Y-14154857D01*
X15362143Y-14126286D01*
X15376428Y-14112000D01*
X15405000Y-14097714D01*
X15633571Y-14369143D02*
X15647857Y-14383429D01*
X15633571Y-14397714D01*
X15619286Y-14383429D01*
X15633571Y-14369143D01*
X15633571Y-14397714D01*
X15833571Y-14097714D02*
X15862143Y-14097714D01*
X15890714Y-14112000D01*
X15905000Y-14126286D01*
X15919286Y-14154857D01*
X15933571Y-14212000D01*
X15933571Y-14283429D01*
X15919286Y-14340571D01*
X15905000Y-14369143D01*
X15890714Y-14383429D01*
X15862143Y-14397714D01*
X15833571Y-14397714D01*
X15805000Y-14383429D01*
X15790714Y-14369143D01*
X15776428Y-14340571D01*
X15762143Y-14283429D01*
X15762143Y-14212000D01*
X15776428Y-14154857D01*
X15790714Y-14126286D01*
X15805000Y-14112000D01*
X15833571Y-14097714D01*
X16033571Y-14097714D02*
X16219286Y-14097714D01*
X16119286Y-14212000D01*
X16162143Y-14212000D01*
X16190714Y-14226286D01*
X16205000Y-14240571D01*
X16219286Y-14269143D01*
X16219286Y-14340571D01*
X16205000Y-14369143D01*
X16190714Y-14383429D01*
X16162143Y-14397714D01*
X16076428Y-14397714D01*
X16047857Y-14383429D01*
X16033571Y-14369143D01*
X16362143Y-14397714D02*
X16419286Y-14397714D01*
X16447857Y-14383429D01*
X16462143Y-14369143D01*
X16490714Y-14326286D01*
X16505000Y-14269143D01*
X16505000Y-14154857D01*
X16490714Y-14126286D01*
X16476428Y-14112000D01*
X16447857Y-14097714D01*
X16390714Y-14097714D01*
X16362143Y-14112000D01*
X16347857Y-14126286D01*
X16333571Y-14154857D01*
X16333571Y-14226286D01*
X16347857Y-14254857D01*
X16362143Y-14269143D01*
X16390714Y-14283429D01*
X16447857Y-14283429D01*
X16476428Y-14269143D01*
X16490714Y-14254857D01*
X16505000Y-14226286D01*
X16619286Y-14097714D02*
X16619286Y-14154857D01*
X16733571Y-14097714D02*
X16733571Y-14154857D01*
X17176428Y-14512000D02*
X17162143Y-14497714D01*
X17133571Y-14454857D01*
X17119286Y-14426286D01*
X17105000Y-14383429D01*
X17090714Y-14312000D01*
X17090714Y-14254857D01*
X17105000Y-14183429D01*
X17119286Y-14140571D01*
X17133571Y-14112000D01*
X17162143Y-14069143D01*
X17176428Y-14054857D01*
X17447857Y-14397714D02*
X17276428Y-14397714D01*
X17362143Y-14397714D02*
X17362143Y-14097714D01*
X17333571Y-14140571D01*
X17305000Y-14169143D01*
X17276428Y-14183429D01*
X17705000Y-14097714D02*
X17647857Y-14097714D01*
X17619286Y-14112000D01*
X17605000Y-14126286D01*
X17576428Y-14169143D01*
X17562143Y-14226286D01*
X17562143Y-14340571D01*
X17576428Y-14369143D01*
X17590714Y-14383429D01*
X17619286Y-14397714D01*
X17676428Y-14397714D01*
X17705000Y-14383429D01*
X17719286Y-14369143D01*
X17733571Y-14340571D01*
X17733571Y-14269143D01*
X17719286Y-14240571D01*
X17705000Y-14226286D01*
X17676428Y-14212000D01*
X17619286Y-14212000D01*
X17590714Y-14226286D01*
X17576428Y-14240571D01*
X17562143Y-14269143D01*
X18090714Y-14397714D02*
X18090714Y-14097714D01*
X18219286Y-14397714D02*
X18219286Y-14240571D01*
X18205000Y-14212000D01*
X18176428Y-14197714D01*
X18133571Y-14197714D01*
X18105000Y-14212000D01*
X18090714Y-14226286D01*
X18405000Y-14397714D02*
X18376428Y-14383429D01*
X18362143Y-14369143D01*
X18347857Y-14340571D01*
X18347857Y-14254857D01*
X18362143Y-14226286D01*
X18376428Y-14212000D01*
X18405000Y-14197714D01*
X18447857Y-14197714D01*
X18476428Y-14212000D01*
X18490714Y-14226286D01*
X18505000Y-14254857D01*
X18505000Y-14340571D01*
X18490714Y-14369143D01*
X18476428Y-14383429D01*
X18447857Y-14397714D01*
X18405000Y-14397714D01*
X18676428Y-14397714D02*
X18647857Y-14383429D01*
X18633571Y-14354857D01*
X18633571Y-14097714D01*
X18905000Y-14383429D02*
X18876428Y-14397714D01*
X18819286Y-14397714D01*
X18790714Y-14383429D01*
X18776428Y-14354857D01*
X18776428Y-14240571D01*
X18790714Y-14212000D01*
X18819286Y-14197714D01*
X18876428Y-14197714D01*
X18905000Y-14212000D01*
X18919286Y-14240571D01*
X18919286Y-14269143D01*
X18776428Y-14297714D01*
X19033571Y-14383429D02*
X19062143Y-14397714D01*
X19119286Y-14397714D01*
X19147857Y-14383429D01*
X19162143Y-14354857D01*
X19162143Y-14340571D01*
X19147857Y-14312000D01*
X19119286Y-14297714D01*
X19076428Y-14297714D01*
X19047857Y-14283429D01*
X19033571Y-14254857D01*
X19033571Y-14240571D01*
X19047857Y-14212000D01*
X19076428Y-14197714D01*
X19119286Y-14197714D01*
X19147857Y-14212000D01*
X19262143Y-14512000D02*
X19276428Y-14497714D01*
X19305000Y-14454857D01*
X19319286Y-14426286D01*
X19333571Y-14383429D01*
X19347857Y-14312000D01*
X19347857Y-14254857D01*
X19333571Y-14183429D01*
X19319286Y-14140571D01*
X19305000Y-14112000D01*
X19276428Y-14069143D01*
X19262143Y-14054857D01*
X12470669Y-14704670D02*
X12470669Y-14611331D01*
X12377330Y-14611331D01*
X12377330Y-14704670D01*
X12470669Y-14704670D01*
X12933571Y-14793714D02*
X12762143Y-14793714D01*
X12847857Y-14793714D02*
X12847857Y-14493714D01*
X12819286Y-14536571D01*
X12790714Y-14565143D01*
X12762143Y-14579429D01*
X13062143Y-14765143D02*
X13076428Y-14779429D01*
X13062143Y-14793714D01*
X13047857Y-14779429D01*
X13062143Y-14765143D01*
X13062143Y-14793714D01*
X13176428Y-14493714D02*
X13362143Y-14493714D01*
X13262143Y-14608000D01*
X13305000Y-14608000D01*
X13333571Y-14622286D01*
X13347857Y-14636571D01*
X13362143Y-14665143D01*
X13362143Y-14736571D01*
X13347857Y-14765143D01*
X13333571Y-14779429D01*
X13305000Y-14793714D01*
X13219286Y-14793714D01*
X13190714Y-14779429D01*
X13176428Y-14765143D01*
X13476428Y-14522286D02*
X13490714Y-14508000D01*
X13519286Y-14493714D01*
X13590714Y-14493714D01*
X13619286Y-14508000D01*
X13633571Y-14522286D01*
X13647857Y-14550857D01*
X13647857Y-14579429D01*
X13633571Y-14622286D01*
X13462143Y-14793714D01*
X13647857Y-14793714D01*
X13776428Y-14793714D02*
X13776428Y-14593714D01*
X13776428Y-14622286D02*
X13790714Y-14608000D01*
X13819286Y-14593714D01*
X13862143Y-14593714D01*
X13890714Y-14608000D01*
X13905000Y-14636571D01*
X13905000Y-14793714D01*
X13905000Y-14636571D02*
X13919286Y-14608000D01*
X13947857Y-14593714D01*
X13990714Y-14593714D01*
X14019286Y-14608000D01*
X14033571Y-14636571D01*
X14033571Y-14793714D01*
X14176428Y-14793714D02*
X14176428Y-14593714D01*
X14176428Y-14622286D02*
X14190714Y-14608000D01*
X14219286Y-14593714D01*
X14262143Y-14593714D01*
X14290714Y-14608000D01*
X14305000Y-14636571D01*
X14305000Y-14793714D01*
X14305000Y-14636571D02*
X14319286Y-14608000D01*
X14347857Y-14593714D01*
X14390714Y-14593714D01*
X14419286Y-14608000D01*
X14433571Y-14636571D01*
X14433571Y-14793714D01*
X15019286Y-14479429D02*
X14762143Y-14865143D01*
X15405000Y-14493714D02*
X15433571Y-14493714D01*
X15462143Y-14508000D01*
X15476428Y-14522286D01*
X15490714Y-14550857D01*
X15505000Y-14608000D01*
X15505000Y-14679429D01*
X15490714Y-14736571D01*
X15476428Y-14765143D01*
X15462143Y-14779429D01*
X15433571Y-14793714D01*
X15405000Y-14793714D01*
X15376428Y-14779429D01*
X15362143Y-14765143D01*
X15347857Y-14736571D01*
X15333571Y-14679429D01*
X15333571Y-14608000D01*
X15347857Y-14550857D01*
X15362143Y-14522286D01*
X15376428Y-14508000D01*
X15405000Y-14493714D01*
X15633571Y-14765143D02*
X15647857Y-14779429D01*
X15633571Y-14793714D01*
X15619286Y-14779429D01*
X15633571Y-14765143D01*
X15633571Y-14793714D01*
X15833571Y-14493714D02*
X15862143Y-14493714D01*
X15890714Y-14508000D01*
X15905000Y-14522286D01*
X15919286Y-14550857D01*
X15933571Y-14608000D01*
X15933571Y-14679429D01*
X15919286Y-14736571D01*
X15905000Y-14765143D01*
X15890714Y-14779429D01*
X15862143Y-14793714D01*
X15833571Y-14793714D01*
X15805000Y-14779429D01*
X15790714Y-14765143D01*
X15776428Y-14736571D01*
X15762143Y-14679429D01*
X15762143Y-14608000D01*
X15776428Y-14550857D01*
X15790714Y-14522286D01*
X15805000Y-14508000D01*
X15833571Y-14493714D01*
X16205000Y-14493714D02*
X16062143Y-14493714D01*
X16047857Y-14636571D01*
X16062143Y-14622286D01*
X16090714Y-14608000D01*
X16162143Y-14608000D01*
X16190714Y-14622286D01*
X16205000Y-14636571D01*
X16219286Y-14665143D01*
X16219286Y-14736571D01*
X16205000Y-14765143D01*
X16190714Y-14779429D01*
X16162143Y-14793714D01*
X16090714Y-14793714D01*
X16062143Y-14779429D01*
X16047857Y-14765143D01*
X16333571Y-14522286D02*
X16347857Y-14508000D01*
X16376428Y-14493714D01*
X16447857Y-14493714D01*
X16476428Y-14508000D01*
X16490714Y-14522286D01*
X16505000Y-14550857D01*
X16505000Y-14579429D01*
X16490714Y-14622286D01*
X16319286Y-14793714D01*
X16505000Y-14793714D01*
X16619286Y-14493714D02*
X16619286Y-14550857D01*
X16733571Y-14493714D02*
X16733571Y-14550857D01*
X17176428Y-14908000D02*
X17162143Y-14893714D01*
X17133571Y-14850857D01*
X17119286Y-14822286D01*
X17105000Y-14779429D01*
X17090714Y-14708000D01*
X17090714Y-14650857D01*
X17105000Y-14579429D01*
X17119286Y-14536571D01*
X17133571Y-14508000D01*
X17162143Y-14465143D01*
X17176428Y-14450857D01*
X17276428Y-14522286D02*
X17290714Y-14508000D01*
X17319286Y-14493714D01*
X17390714Y-14493714D01*
X17419286Y-14508000D01*
X17433571Y-14522286D01*
X17447857Y-14550857D01*
X17447857Y-14579429D01*
X17433571Y-14622286D01*
X17262143Y-14793714D01*
X17447857Y-14793714D01*
X17805000Y-14793714D02*
X17805000Y-14493714D01*
X17933571Y-14793714D02*
X17933571Y-14636571D01*
X17919286Y-14608000D01*
X17890714Y-14593714D01*
X17847857Y-14593714D01*
X17819286Y-14608000D01*
X17805000Y-14622286D01*
X18119286Y-14793714D02*
X18090714Y-14779429D01*
X18076428Y-14765143D01*
X18062143Y-14736571D01*
X18062143Y-14650857D01*
X18076428Y-14622286D01*
X18090714Y-14608000D01*
X18119286Y-14593714D01*
X18162143Y-14593714D01*
X18190714Y-14608000D01*
X18205000Y-14622286D01*
X18219286Y-14650857D01*
X18219286Y-14736571D01*
X18205000Y-14765143D01*
X18190714Y-14779429D01*
X18162143Y-14793714D01*
X18119286Y-14793714D01*
X18390714Y-14793714D02*
X18362143Y-14779429D01*
X18347857Y-14750857D01*
X18347857Y-14493714D01*
X18619286Y-14779429D02*
X18590714Y-14793714D01*
X18533571Y-14793714D01*
X18505000Y-14779429D01*
X18490714Y-14750857D01*
X18490714Y-14636571D01*
X18505000Y-14608000D01*
X18533571Y-14593714D01*
X18590714Y-14593714D01*
X18619286Y-14608000D01*
X18633571Y-14636571D01*
X18633571Y-14665143D01*
X18490714Y-14693714D01*
X18747857Y-14779429D02*
X18776428Y-14793714D01*
X18833571Y-14793714D01*
X18862143Y-14779429D01*
X18876428Y-14750857D01*
X18876428Y-14736571D01*
X18862143Y-14708000D01*
X18833571Y-14693714D01*
X18790714Y-14693714D01*
X18762143Y-14679429D01*
X18747857Y-14650857D01*
X18747857Y-14636571D01*
X18762143Y-14608000D01*
X18790714Y-14593714D01*
X18833571Y-14593714D01*
X18862143Y-14608000D01*
X18976428Y-14908000D02*
X18990714Y-14893714D01*
X19019286Y-14850857D01*
X19033571Y-14822286D01*
X19047857Y-14779429D01*
X19062143Y-14708000D01*
X19062143Y-14650857D01*
X19047857Y-14579429D01*
X19033571Y-14536571D01*
X19019286Y-14508000D01*
X18990714Y-14465143D01*
X18976428Y-14450857D01*
X12330000Y-15214000D02*
X12490000Y-15054000D01*
X12330000Y-14894000D01*
X12170000Y-15054000D01*
X12330000Y-15214000D01*
X12747857Y-14889714D02*
X12933571Y-14889714D01*
X12833571Y-15004000D01*
X12876428Y-15004000D01*
X12905000Y-15018286D01*
X12919286Y-15032571D01*
X12933571Y-15061143D01*
X12933571Y-15132571D01*
X12919286Y-15161143D01*
X12905000Y-15175429D01*
X12876428Y-15189714D01*
X12790714Y-15189714D01*
X12762143Y-15175429D01*
X12747857Y-15161143D01*
X13062143Y-15161143D02*
X13076428Y-15175429D01*
X13062143Y-15189714D01*
X13047857Y-15175429D01*
X13062143Y-15161143D01*
X13062143Y-15189714D01*
X13190714Y-14918286D02*
X13205000Y-14904000D01*
X13233571Y-14889714D01*
X13305000Y-14889714D01*
X13333571Y-14904000D01*
X13347857Y-14918286D01*
X13362143Y-14946857D01*
X13362143Y-14975429D01*
X13347857Y-15018286D01*
X13176428Y-15189714D01*
X13362143Y-15189714D01*
X13547857Y-14889714D02*
X13576428Y-14889714D01*
X13605000Y-14904000D01*
X13619286Y-14918286D01*
X13633571Y-14946857D01*
X13647857Y-15004000D01*
X13647857Y-15075429D01*
X13633571Y-15132571D01*
X13619286Y-15161143D01*
X13605000Y-15175429D01*
X13576428Y-15189714D01*
X13547857Y-15189714D01*
X13519286Y-15175429D01*
X13505000Y-15161143D01*
X13490714Y-15132571D01*
X13476428Y-15075429D01*
X13476428Y-15004000D01*
X13490714Y-14946857D01*
X13505000Y-14918286D01*
X13519286Y-14904000D01*
X13547857Y-14889714D01*
X13776428Y-15189714D02*
X13776428Y-14989714D01*
X13776428Y-15018286D02*
X13790714Y-15004000D01*
X13819286Y-14989714D01*
X13862143Y-14989714D01*
X13890714Y-15004000D01*
X13905000Y-15032571D01*
X13905000Y-15189714D01*
X13905000Y-15032571D02*
X13919286Y-15004000D01*
X13947857Y-14989714D01*
X13990714Y-14989714D01*
X14019286Y-15004000D01*
X14033571Y-15032571D01*
X14033571Y-15189714D01*
X14176428Y-15189714D02*
X14176428Y-14989714D01*
X14176428Y-15018286D02*
X14190714Y-15004000D01*
X14219286Y-14989714D01*
X14262143Y-14989714D01*
X14290714Y-15004000D01*
X14305000Y-15032571D01*
X14305000Y-15189714D01*
X14305000Y-15032571D02*
X14319286Y-15004000D01*
X14347857Y-14989714D01*
X14390714Y-14989714D01*
X14419286Y-15004000D01*
X14433571Y-15032571D01*
X14433571Y-15189714D01*
X15019286Y-14875429D02*
X14762143Y-15261143D01*
X15405000Y-14889714D02*
X15433571Y-14889714D01*
X15462143Y-14904000D01*
X15476428Y-14918286D01*
X15490714Y-14946857D01*
X15505000Y-15004000D01*
X15505000Y-15075429D01*
X15490714Y-15132571D01*
X15476428Y-15161143D01*
X15462143Y-15175429D01*
X15433571Y-15189714D01*
X15405000Y-15189714D01*
X15376428Y-15175429D01*
X15362143Y-15161143D01*
X15347857Y-15132571D01*
X15333571Y-15075429D01*
X15333571Y-15004000D01*
X15347857Y-14946857D01*
X15362143Y-14918286D01*
X15376428Y-14904000D01*
X15405000Y-14889714D01*
X15633571Y-15161143D02*
X15647857Y-15175429D01*
X15633571Y-15189714D01*
X15619286Y-15175429D01*
X15633571Y-15161143D01*
X15633571Y-15189714D01*
X15933571Y-15189714D02*
X15762143Y-15189714D01*
X15847857Y-15189714D02*
X15847857Y-14889714D01*
X15819286Y-14932571D01*
X15790714Y-14961143D01*
X15762143Y-14975429D01*
X16047857Y-14918286D02*
X16062143Y-14904000D01*
X16090714Y-14889714D01*
X16162143Y-14889714D01*
X16190714Y-14904000D01*
X16205000Y-14918286D01*
X16219286Y-14946857D01*
X16219286Y-14975429D01*
X16205000Y-15018286D01*
X16033571Y-15189714D01*
X16219286Y-15189714D01*
X16476428Y-14889714D02*
X16419286Y-14889714D01*
X16390714Y-14904000D01*
X16376428Y-14918286D01*
X16347857Y-14961143D01*
X16333571Y-15018286D01*
X16333571Y-15132571D01*
X16347857Y-15161143D01*
X16362143Y-15175429D01*
X16390714Y-15189714D01*
X16447857Y-15189714D01*
X16476428Y-15175429D01*
X16490714Y-15161143D01*
X16505000Y-15132571D01*
X16505000Y-15061143D01*
X16490714Y-15032571D01*
X16476428Y-15018286D01*
X16447857Y-15004000D01*
X16390714Y-15004000D01*
X16362143Y-15018286D01*
X16347857Y-15032571D01*
X16333571Y-15061143D01*
X16619286Y-14889714D02*
X16619286Y-14946857D01*
X16733571Y-14889714D02*
X16733571Y-14946857D01*
X17176428Y-15304000D02*
X17162143Y-15289714D01*
X17133571Y-15246857D01*
X17119286Y-15218286D01*
X17105000Y-15175429D01*
X17090714Y-15104000D01*
X17090714Y-15046857D01*
X17105000Y-14975429D01*
X17119286Y-14932571D01*
X17133571Y-14904000D01*
X17162143Y-14861143D01*
X17176428Y-14846857D01*
X17276428Y-14918286D02*
X17290714Y-14904000D01*
X17319286Y-14889714D01*
X17390714Y-14889714D01*
X17419286Y-14904000D01*
X17433571Y-14918286D01*
X17447857Y-14946857D01*
X17447857Y-14975429D01*
X17433571Y-15018286D01*
X17262143Y-15189714D01*
X17447857Y-15189714D01*
X17805000Y-15189714D02*
X17805000Y-14889714D01*
X17933571Y-15189714D02*
X17933571Y-15032571D01*
X17919286Y-15004000D01*
X17890714Y-14989714D01*
X17847857Y-14989714D01*
X17819286Y-15004000D01*
X17805000Y-15018286D01*
X18119286Y-15189714D02*
X18090714Y-15175429D01*
X18076428Y-15161143D01*
X18062143Y-15132571D01*
X18062143Y-15046857D01*
X18076428Y-15018286D01*
X18090714Y-15004000D01*
X18119286Y-14989714D01*
X18162143Y-14989714D01*
X18190714Y-15004000D01*
X18205000Y-15018286D01*
X18219286Y-15046857D01*
X18219286Y-15132571D01*
X18205000Y-15161143D01*
X18190714Y-15175429D01*
X18162143Y-15189714D01*
X18119286Y-15189714D01*
X18390714Y-15189714D02*
X18362143Y-15175429D01*
X18347857Y-15146857D01*
X18347857Y-14889714D01*
X18619286Y-15175429D02*
X18590714Y-15189714D01*
X18533571Y-15189714D01*
X18505000Y-15175429D01*
X18490714Y-15146857D01*
X18490714Y-15032571D01*
X18505000Y-15004000D01*
X18533571Y-14989714D01*
X18590714Y-14989714D01*
X18619286Y-15004000D01*
X18633571Y-15032571D01*
X18633571Y-15061143D01*
X18490714Y-15089714D01*
X18747857Y-15175429D02*
X18776428Y-15189714D01*
X18833571Y-15189714D01*
X18862143Y-15175429D01*
X18876428Y-15146857D01*
X18876428Y-15132571D01*
X18862143Y-15104000D01*
X18833571Y-15089714D01*
X18790714Y-15089714D01*
X18762143Y-15075429D01*
X18747857Y-15046857D01*
X18747857Y-15032571D01*
X18762143Y-15004000D01*
X18790714Y-14989714D01*
X18833571Y-14989714D01*
X18862143Y-15004000D01*
X18976428Y-15304000D02*
X18990714Y-15289714D01*
X19019286Y-15246857D01*
X19033571Y-15218286D01*
X19047857Y-15175429D01*
X19062143Y-15104000D01*
X19062143Y-15046857D01*
X19047857Y-14975429D01*
X19033571Y-14932571D01*
X19019286Y-14904000D01*
X18990714Y-14861143D01*
X18976428Y-14846857D01*
X12390940Y-15454470D02*
X12490000Y-15553530D01*
X12490000Y-15454470D02*
X12390940Y-15553530D01*
X12490000Y-15504000D02*
G75*
G03X12490000Y-15504000I-49530J0D01*
G01*
X12833571Y-15339714D02*
X12862143Y-15339714D01*
X12890714Y-15354000D01*
X12905000Y-15368286D01*
X12919286Y-15396857D01*
X12933571Y-15454000D01*
X12933571Y-15525429D01*
X12919286Y-15582571D01*
X12905000Y-15611143D01*
X12890714Y-15625429D01*
X12862143Y-15639714D01*
X12833571Y-15639714D01*
X12805000Y-15625429D01*
X12790714Y-15611143D01*
X12776428Y-15582571D01*
X12762143Y-15525429D01*
X12762143Y-15454000D01*
X12776428Y-15396857D01*
X12790714Y-15368286D01*
X12805000Y-15354000D01*
X12833571Y-15339714D01*
X13062143Y-15611143D02*
X13076428Y-15625429D01*
X13062143Y-15639714D01*
X13047857Y-15625429D01*
X13062143Y-15611143D01*
X13062143Y-15639714D01*
X13219286Y-15639714D02*
X13276428Y-15639714D01*
X13305000Y-15625429D01*
X13319286Y-15611143D01*
X13347857Y-15568286D01*
X13362143Y-15511143D01*
X13362143Y-15396857D01*
X13347857Y-15368286D01*
X13333571Y-15354000D01*
X13305000Y-15339714D01*
X13247857Y-15339714D01*
X13219286Y-15354000D01*
X13205000Y-15368286D01*
X13190714Y-15396857D01*
X13190714Y-15468286D01*
X13205000Y-15496857D01*
X13219286Y-15511143D01*
X13247857Y-15525429D01*
X13305000Y-15525429D01*
X13333571Y-15511143D01*
X13347857Y-15496857D01*
X13362143Y-15468286D01*
X13505000Y-15639714D02*
X13562143Y-15639714D01*
X13590714Y-15625429D01*
X13605000Y-15611143D01*
X13633571Y-15568286D01*
X13647857Y-15511143D01*
X13647857Y-15396857D01*
X13633571Y-15368286D01*
X13619286Y-15354000D01*
X13590714Y-15339714D01*
X13533571Y-15339714D01*
X13505000Y-15354000D01*
X13490714Y-15368286D01*
X13476428Y-15396857D01*
X13476428Y-15468286D01*
X13490714Y-15496857D01*
X13505000Y-15511143D01*
X13533571Y-15525429D01*
X13590714Y-15525429D01*
X13619286Y-15511143D01*
X13633571Y-15496857D01*
X13647857Y-15468286D01*
X13776428Y-15639714D02*
X13776428Y-15439714D01*
X13776428Y-15468286D02*
X13790714Y-15454000D01*
X13819286Y-15439714D01*
X13862143Y-15439714D01*
X13890714Y-15454000D01*
X13905000Y-15482571D01*
X13905000Y-15639714D01*
X13905000Y-15482571D02*
X13919286Y-15454000D01*
X13947857Y-15439714D01*
X13990714Y-15439714D01*
X14019286Y-15454000D01*
X14033571Y-15482571D01*
X14033571Y-15639714D01*
X14176428Y-15639714D02*
X14176428Y-15439714D01*
X14176428Y-15468286D02*
X14190714Y-15454000D01*
X14219286Y-15439714D01*
X14262143Y-15439714D01*
X14290714Y-15454000D01*
X14305000Y-15482571D01*
X14305000Y-15639714D01*
X14305000Y-15482571D02*
X14319286Y-15454000D01*
X14347857Y-15439714D01*
X14390714Y-15439714D01*
X14419286Y-15454000D01*
X14433571Y-15482571D01*
X14433571Y-15639714D01*
X15019286Y-15325429D02*
X14762143Y-15711143D01*
X15405000Y-15339714D02*
X15433571Y-15339714D01*
X15462143Y-15354000D01*
X15476428Y-15368286D01*
X15490714Y-15396857D01*
X15505000Y-15454000D01*
X15505000Y-15525429D01*
X15490714Y-15582571D01*
X15476428Y-15611143D01*
X15462143Y-15625429D01*
X15433571Y-15639714D01*
X15405000Y-15639714D01*
X15376428Y-15625429D01*
X15362143Y-15611143D01*
X15347857Y-15582571D01*
X15333571Y-15525429D01*
X15333571Y-15454000D01*
X15347857Y-15396857D01*
X15362143Y-15368286D01*
X15376428Y-15354000D01*
X15405000Y-15339714D01*
X15633571Y-15611143D02*
X15647857Y-15625429D01*
X15633571Y-15639714D01*
X15619286Y-15625429D01*
X15633571Y-15611143D01*
X15633571Y-15639714D01*
X15833571Y-15339714D02*
X15862143Y-15339714D01*
X15890714Y-15354000D01*
X15905000Y-15368286D01*
X15919286Y-15396857D01*
X15933571Y-15454000D01*
X15933571Y-15525429D01*
X15919286Y-15582571D01*
X15905000Y-15611143D01*
X15890714Y-15625429D01*
X15862143Y-15639714D01*
X15833571Y-15639714D01*
X15805000Y-15625429D01*
X15790714Y-15611143D01*
X15776428Y-15582571D01*
X15762143Y-15525429D01*
X15762143Y-15454000D01*
X15776428Y-15396857D01*
X15790714Y-15368286D01*
X15805000Y-15354000D01*
X15833571Y-15339714D01*
X16033571Y-15339714D02*
X16219286Y-15339714D01*
X16119286Y-15454000D01*
X16162143Y-15454000D01*
X16190714Y-15468286D01*
X16205000Y-15482571D01*
X16219286Y-15511143D01*
X16219286Y-15582571D01*
X16205000Y-15611143D01*
X16190714Y-15625429D01*
X16162143Y-15639714D01*
X16076428Y-15639714D01*
X16047857Y-15625429D01*
X16033571Y-15611143D01*
X16362143Y-15639714D02*
X16419286Y-15639714D01*
X16447857Y-15625429D01*
X16462143Y-15611143D01*
X16490714Y-15568286D01*
X16505000Y-15511143D01*
X16505000Y-15396857D01*
X16490714Y-15368286D01*
X16476428Y-15354000D01*
X16447857Y-15339714D01*
X16390714Y-15339714D01*
X16362143Y-15354000D01*
X16347857Y-15368286D01*
X16333571Y-15396857D01*
X16333571Y-15468286D01*
X16347857Y-15496857D01*
X16362143Y-15511143D01*
X16390714Y-15525429D01*
X16447857Y-15525429D01*
X16476428Y-15511143D01*
X16490714Y-15496857D01*
X16505000Y-15468286D01*
X16619286Y-15339714D02*
X16619286Y-15396857D01*
X16733571Y-15339714D02*
X16733571Y-15396857D01*
X17176428Y-15754000D02*
X17162143Y-15739714D01*
X17133571Y-15696857D01*
X17119286Y-15668286D01*
X17105000Y-15625429D01*
X17090714Y-15554000D01*
X17090714Y-15496857D01*
X17105000Y-15425429D01*
X17119286Y-15382571D01*
X17133571Y-15354000D01*
X17162143Y-15311143D01*
X17176428Y-15296857D01*
X17262143Y-15339714D02*
X17447857Y-15339714D01*
X17347857Y-15454000D01*
X17390714Y-15454000D01*
X17419286Y-15468286D01*
X17433571Y-15482571D01*
X17447857Y-15511143D01*
X17447857Y-15582571D01*
X17433571Y-15611143D01*
X17419286Y-15625429D01*
X17390714Y-15639714D01*
X17305000Y-15639714D01*
X17276428Y-15625429D01*
X17262143Y-15611143D01*
X17805000Y-15639714D02*
X17805000Y-15339714D01*
X17933571Y-15639714D02*
X17933571Y-15482571D01*
X17919286Y-15454000D01*
X17890714Y-15439714D01*
X17847857Y-15439714D01*
X17819286Y-15454000D01*
X17805000Y-15468286D01*
X18119286Y-15639714D02*
X18090714Y-15625429D01*
X18076428Y-15611143D01*
X18062143Y-15582571D01*
X18062143Y-15496857D01*
X18076428Y-15468286D01*
X18090714Y-15454000D01*
X18119286Y-15439714D01*
X18162143Y-15439714D01*
X18190714Y-15454000D01*
X18205000Y-15468286D01*
X18219286Y-15496857D01*
X18219286Y-15582571D01*
X18205000Y-15611143D01*
X18190714Y-15625429D01*
X18162143Y-15639714D01*
X18119286Y-15639714D01*
X18390714Y-15639714D02*
X18362143Y-15625429D01*
X18347857Y-15596857D01*
X18347857Y-15339714D01*
X18619286Y-15625429D02*
X18590714Y-15639714D01*
X18533571Y-15639714D01*
X18505000Y-15625429D01*
X18490714Y-15596857D01*
X18490714Y-15482571D01*
X18505000Y-15454000D01*
X18533571Y-15439714D01*
X18590714Y-15439714D01*
X18619286Y-15454000D01*
X18633571Y-15482571D01*
X18633571Y-15511143D01*
X18490714Y-15539714D01*
X18747857Y-15625429D02*
X18776428Y-15639714D01*
X18833571Y-15639714D01*
X18862143Y-15625429D01*
X18876428Y-15596857D01*
X18876428Y-15582571D01*
X18862143Y-15554000D01*
X18833571Y-15539714D01*
X18790714Y-15539714D01*
X18762143Y-15525429D01*
X18747857Y-15496857D01*
X18747857Y-15482571D01*
X18762143Y-15454000D01*
X18790714Y-15439714D01*
X18833571Y-15439714D01*
X18862143Y-15454000D01*
X18976428Y-15754000D02*
X18990714Y-15739714D01*
X19019286Y-15696857D01*
X19033571Y-15668286D01*
X19047857Y-15625429D01*
X19062143Y-15554000D01*
X19062143Y-15496857D01*
X19047857Y-15425429D01*
X19033571Y-15382571D01*
X19019286Y-15354000D01*
X18990714Y-15311143D01*
X18976428Y-15296857D01*
X19519286Y-15754000D02*
X19505000Y-15739714D01*
X19476428Y-15696857D01*
X19462143Y-15668286D01*
X19447857Y-15625429D01*
X19433571Y-15554000D01*
X19433571Y-15496857D01*
X19447857Y-15425429D01*
X19462143Y-15382571D01*
X19476428Y-15354000D01*
X19505000Y-15311143D01*
X19519286Y-15296857D01*
X19633571Y-15439714D02*
X19633571Y-15639714D01*
X19633571Y-15468286D02*
X19647857Y-15454000D01*
X19676428Y-15439714D01*
X19719286Y-15439714D01*
X19747857Y-15454000D01*
X19762143Y-15482571D01*
X19762143Y-15639714D01*
X19947857Y-15639714D02*
X19919286Y-15625429D01*
X19905000Y-15611143D01*
X19890714Y-15582571D01*
X19890714Y-15496857D01*
X19905000Y-15468286D01*
X19919286Y-15454000D01*
X19947857Y-15439714D01*
X19990714Y-15439714D01*
X20019286Y-15454000D01*
X20033571Y-15468286D01*
X20047857Y-15496857D01*
X20047857Y-15582571D01*
X20033571Y-15611143D01*
X20019286Y-15625429D01*
X19990714Y-15639714D01*
X19947857Y-15639714D01*
X20133571Y-15439714D02*
X20247857Y-15439714D01*
X20176428Y-15339714D02*
X20176428Y-15596857D01*
X20190714Y-15625429D01*
X20219286Y-15639714D01*
X20247857Y-15639714D01*
X20576428Y-15439714D02*
X20576428Y-15739714D01*
X20576428Y-15454000D02*
X20605000Y-15439714D01*
X20662143Y-15439714D01*
X20690714Y-15454000D01*
X20705000Y-15468286D01*
X20719286Y-15496857D01*
X20719286Y-15582571D01*
X20705000Y-15611143D01*
X20690714Y-15625429D01*
X20662143Y-15639714D01*
X20605000Y-15639714D01*
X20576428Y-15625429D01*
X20890714Y-15639714D02*
X20862143Y-15625429D01*
X20847857Y-15596857D01*
X20847857Y-15339714D01*
X21133571Y-15639714D02*
X21133571Y-15482571D01*
X21119286Y-15454000D01*
X21090714Y-15439714D01*
X21033571Y-15439714D01*
X21005000Y-15454000D01*
X21133571Y-15625429D02*
X21105000Y-15639714D01*
X21033571Y-15639714D01*
X21005000Y-15625429D01*
X20990714Y-15596857D01*
X20990714Y-15568286D01*
X21005000Y-15539714D01*
X21033571Y-15525429D01*
X21105000Y-15525429D01*
X21133571Y-15511143D01*
X21233571Y-15439714D02*
X21347857Y-15439714D01*
X21276428Y-15339714D02*
X21276428Y-15596857D01*
X21290714Y-15625429D01*
X21319286Y-15639714D01*
X21347857Y-15639714D01*
X21562143Y-15625429D02*
X21533571Y-15639714D01*
X21476428Y-15639714D01*
X21447857Y-15625429D01*
X21433571Y-15596857D01*
X21433571Y-15482571D01*
X21447857Y-15454000D01*
X21476428Y-15439714D01*
X21533571Y-15439714D01*
X21562143Y-15454000D01*
X21576428Y-15482571D01*
X21576428Y-15511143D01*
X21433571Y-15539714D01*
X21833571Y-15639714D02*
X21833571Y-15339714D01*
X21833571Y-15625429D02*
X21805000Y-15639714D01*
X21747857Y-15639714D01*
X21719286Y-15625429D01*
X21705000Y-15611143D01*
X21690714Y-15582571D01*
X21690714Y-15496857D01*
X21705000Y-15468286D01*
X21719286Y-15454000D01*
X21747857Y-15439714D01*
X21805000Y-15439714D01*
X21833571Y-15454000D01*
X21947857Y-15754000D02*
X21962143Y-15739714D01*
X21990714Y-15696857D01*
X22005000Y-15668286D01*
X22019286Y-15625429D01*
X22033571Y-15554000D01*
X22033571Y-15496857D01*
X22019286Y-15425429D01*
X22005000Y-15382571D01*
X21990714Y-15354000D01*
X21962143Y-15311143D01*
X21947857Y-15296857D01*
X12252500Y-15781250D02*
X12490000Y-16018750D01*
X12490000Y-15781250D02*
X12252500Y-16018750D01*
X12371250Y-15781250D02*
X12371250Y-16018750D01*
X12252500Y-15900000D02*
X12490000Y-15900000D01*
X12762143Y-15764286D02*
X12776428Y-15750000D01*
X12805000Y-15735714D01*
X12876428Y-15735714D01*
X12905000Y-15750000D01*
X12919286Y-15764286D01*
X12933571Y-15792857D01*
X12933571Y-15821429D01*
X12919286Y-15864286D01*
X12747857Y-16035714D01*
X12933571Y-16035714D01*
X13062143Y-16007143D02*
X13076428Y-16021429D01*
X13062143Y-16035714D01*
X13047857Y-16021429D01*
X13062143Y-16007143D01*
X13062143Y-16035714D01*
X13176428Y-15735714D02*
X13362143Y-15735714D01*
X13262143Y-15850000D01*
X13305000Y-15850000D01*
X13333571Y-15864286D01*
X13347857Y-15878571D01*
X13362143Y-15907143D01*
X13362143Y-15978571D01*
X13347857Y-16007143D01*
X13333571Y-16021429D01*
X13305000Y-16035714D01*
X13219286Y-16035714D01*
X13190714Y-16021429D01*
X13176428Y-16007143D01*
X13533571Y-15864286D02*
X13505000Y-15850000D01*
X13490714Y-15835714D01*
X13476428Y-15807143D01*
X13476428Y-15792857D01*
X13490714Y-15764286D01*
X13505000Y-15750000D01*
X13533571Y-15735714D01*
X13590714Y-15735714D01*
X13619286Y-15750000D01*
X13633571Y-15764286D01*
X13647857Y-15792857D01*
X13647857Y-15807143D01*
X13633571Y-15835714D01*
X13619286Y-15850000D01*
X13590714Y-15864286D01*
X13533571Y-15864286D01*
X13505000Y-15878571D01*
X13490714Y-15892857D01*
X13476428Y-15921429D01*
X13476428Y-15978571D01*
X13490714Y-16007143D01*
X13505000Y-16021429D01*
X13533571Y-16035714D01*
X13590714Y-16035714D01*
X13619286Y-16021429D01*
X13633571Y-16007143D01*
X13647857Y-15978571D01*
X13647857Y-15921429D01*
X13633571Y-15892857D01*
X13619286Y-15878571D01*
X13590714Y-15864286D01*
X13776428Y-16035714D02*
X13776428Y-15835714D01*
X13776428Y-15864286D02*
X13790714Y-15850000D01*
X13819286Y-15835714D01*
X13862143Y-15835714D01*
X13890714Y-15850000D01*
X13905000Y-15878571D01*
X13905000Y-16035714D01*
X13905000Y-15878571D02*
X13919286Y-15850000D01*
X13947857Y-15835714D01*
X13990714Y-15835714D01*
X14019286Y-15850000D01*
X14033571Y-15878571D01*
X14033571Y-16035714D01*
X14176428Y-16035714D02*
X14176428Y-15835714D01*
X14176428Y-15864286D02*
X14190714Y-15850000D01*
X14219286Y-15835714D01*
X14262143Y-15835714D01*
X14290714Y-15850000D01*
X14305000Y-15878571D01*
X14305000Y-16035714D01*
X14305000Y-15878571D02*
X14319286Y-15850000D01*
X14347857Y-15835714D01*
X14390714Y-15835714D01*
X14419286Y-15850000D01*
X14433571Y-15878571D01*
X14433571Y-16035714D01*
X15019286Y-15721429D02*
X14762143Y-16107143D01*
X15405000Y-15735714D02*
X15433571Y-15735714D01*
X15462143Y-15750000D01*
X15476428Y-15764286D01*
X15490714Y-15792857D01*
X15505000Y-15850000D01*
X15505000Y-15921429D01*
X15490714Y-15978571D01*
X15476428Y-16007143D01*
X15462143Y-16021429D01*
X15433571Y-16035714D01*
X15405000Y-16035714D01*
X15376428Y-16021429D01*
X15362143Y-16007143D01*
X15347857Y-15978571D01*
X15333571Y-15921429D01*
X15333571Y-15850000D01*
X15347857Y-15792857D01*
X15362143Y-15764286D01*
X15376428Y-15750000D01*
X15405000Y-15735714D01*
X15633571Y-16007143D02*
X15647857Y-16021429D01*
X15633571Y-16035714D01*
X15619286Y-16021429D01*
X15633571Y-16007143D01*
X15633571Y-16035714D01*
X15833571Y-15735714D02*
X15862143Y-15735714D01*
X15890714Y-15750000D01*
X15905000Y-15764286D01*
X15919286Y-15792857D01*
X15933571Y-15850000D01*
X15933571Y-15921429D01*
X15919286Y-15978571D01*
X15905000Y-16007143D01*
X15890714Y-16021429D01*
X15862143Y-16035714D01*
X15833571Y-16035714D01*
X15805000Y-16021429D01*
X15790714Y-16007143D01*
X15776428Y-15978571D01*
X15762143Y-15921429D01*
X15762143Y-15850000D01*
X15776428Y-15792857D01*
X15790714Y-15764286D01*
X15805000Y-15750000D01*
X15833571Y-15735714D01*
X16076428Y-16035714D02*
X16133571Y-16035714D01*
X16162143Y-16021429D01*
X16176428Y-16007143D01*
X16205000Y-15964286D01*
X16219286Y-15907143D01*
X16219286Y-15792857D01*
X16205000Y-15764286D01*
X16190714Y-15750000D01*
X16162143Y-15735714D01*
X16105000Y-15735714D01*
X16076428Y-15750000D01*
X16062143Y-15764286D01*
X16047857Y-15792857D01*
X16047857Y-15864286D01*
X16062143Y-15892857D01*
X16076428Y-15907143D01*
X16105000Y-15921429D01*
X16162143Y-15921429D01*
X16190714Y-15907143D01*
X16205000Y-15892857D01*
X16219286Y-15864286D01*
X16476428Y-15835714D02*
X16476428Y-16035714D01*
X16405000Y-15721429D02*
X16333571Y-15935714D01*
X16519286Y-15935714D01*
X16619286Y-15735714D02*
X16619286Y-15792857D01*
X16733571Y-15735714D02*
X16733571Y-15792857D01*
X17176428Y-16150000D02*
X17162143Y-16135714D01*
X17133571Y-16092857D01*
X17119286Y-16064286D01*
X17105000Y-16021429D01*
X17090714Y-15950000D01*
X17090714Y-15892857D01*
X17105000Y-15821429D01*
X17119286Y-15778571D01*
X17133571Y-15750000D01*
X17162143Y-15707143D01*
X17176428Y-15692857D01*
X17419286Y-15835714D02*
X17419286Y-16035714D01*
X17347857Y-15721429D02*
X17276428Y-15935714D01*
X17462143Y-15935714D01*
X17805000Y-16035714D02*
X17805000Y-15735714D01*
X17933571Y-16035714D02*
X17933571Y-15878571D01*
X17919286Y-15850000D01*
X17890714Y-15835714D01*
X17847857Y-15835714D01*
X17819286Y-15850000D01*
X17805000Y-15864286D01*
X18119286Y-16035714D02*
X18090714Y-16021429D01*
X18076428Y-16007143D01*
X18062143Y-15978571D01*
X18062143Y-15892857D01*
X18076428Y-15864286D01*
X18090714Y-15850000D01*
X18119286Y-15835714D01*
X18162143Y-15835714D01*
X18190714Y-15850000D01*
X18205000Y-15864286D01*
X18219286Y-15892857D01*
X18219286Y-15978571D01*
X18205000Y-16007143D01*
X18190714Y-16021429D01*
X18162143Y-16035714D01*
X18119286Y-16035714D01*
X18390714Y-16035714D02*
X18362143Y-16021429D01*
X18347857Y-15992857D01*
X18347857Y-15735714D01*
X18619286Y-16021429D02*
X18590714Y-16035714D01*
X18533571Y-16035714D01*
X18505000Y-16021429D01*
X18490714Y-15992857D01*
X18490714Y-15878571D01*
X18505000Y-15850000D01*
X18533571Y-15835714D01*
X18590714Y-15835714D01*
X18619286Y-15850000D01*
X18633571Y-15878571D01*
X18633571Y-15907143D01*
X18490714Y-15935714D01*
X18747857Y-16021429D02*
X18776428Y-16035714D01*
X18833571Y-16035714D01*
X18862143Y-16021429D01*
X18876428Y-15992857D01*
X18876428Y-15978571D01*
X18862143Y-15950000D01*
X18833571Y-15935714D01*
X18790714Y-15935714D01*
X18762143Y-15921429D01*
X18747857Y-15892857D01*
X18747857Y-15878571D01*
X18762143Y-15850000D01*
X18790714Y-15835714D01*
X18833571Y-15835714D01*
X18862143Y-15850000D01*
X18976428Y-16150000D02*
X18990714Y-16135714D01*
X19019286Y-16092857D01*
X19033571Y-16064286D01*
X19047857Y-16021429D01*
X19062143Y-15950000D01*
X19062143Y-15892857D01*
X19047857Y-15821429D01*
X19033571Y-15778571D01*
X19019286Y-15750000D01*
X18990714Y-15707143D01*
X18976428Y-15692857D01*
X19519286Y-16150000D02*
X19505000Y-16135714D01*
X19476428Y-16092857D01*
X19462143Y-16064286D01*
X19447857Y-16021429D01*
X19433571Y-15950000D01*
X19433571Y-15892857D01*
X19447857Y-15821429D01*
X19462143Y-15778571D01*
X19476428Y-15750000D01*
X19505000Y-15707143D01*
X19519286Y-15692857D01*
X19633571Y-15835714D02*
X19633571Y-16035714D01*
X19633571Y-15864286D02*
X19647857Y-15850000D01*
X19676428Y-15835714D01*
X19719286Y-15835714D01*
X19747857Y-15850000D01*
X19762143Y-15878571D01*
X19762143Y-16035714D01*
X19947857Y-16035714D02*
X19919286Y-16021429D01*
X19905000Y-16007143D01*
X19890714Y-15978571D01*
X19890714Y-15892857D01*
X19905000Y-15864286D01*
X19919286Y-15850000D01*
X19947857Y-15835714D01*
X19990714Y-15835714D01*
X20019286Y-15850000D01*
X20033571Y-15864286D01*
X20047857Y-15892857D01*
X20047857Y-15978571D01*
X20033571Y-16007143D01*
X20019286Y-16021429D01*
X19990714Y-16035714D01*
X19947857Y-16035714D01*
X20133571Y-15835714D02*
X20247857Y-15835714D01*
X20176428Y-15735714D02*
X20176428Y-15992857D01*
X20190714Y-16021429D01*
X20219286Y-16035714D01*
X20247857Y-16035714D01*
X20576428Y-15835714D02*
X20576428Y-16135714D01*
X20576428Y-15850000D02*
X20605000Y-15835714D01*
X20662143Y-15835714D01*
X20690714Y-15850000D01*
X20705000Y-15864286D01*
X20719286Y-15892857D01*
X20719286Y-15978571D01*
X20705000Y-16007143D01*
X20690714Y-16021429D01*
X20662143Y-16035714D01*
X20605000Y-16035714D01*
X20576428Y-16021429D01*
X20890714Y-16035714D02*
X20862143Y-16021429D01*
X20847857Y-15992857D01*
X20847857Y-15735714D01*
X21133571Y-16035714D02*
X21133571Y-15878571D01*
X21119286Y-15850000D01*
X21090714Y-15835714D01*
X21033571Y-15835714D01*
X21005000Y-15850000D01*
X21133571Y-16021429D02*
X21105000Y-16035714D01*
X21033571Y-16035714D01*
X21005000Y-16021429D01*
X20990714Y-15992857D01*
X20990714Y-15964286D01*
X21005000Y-15935714D01*
X21033571Y-15921429D01*
X21105000Y-15921429D01*
X21133571Y-15907143D01*
X21233571Y-15835714D02*
X21347857Y-15835714D01*
X21276428Y-15735714D02*
X21276428Y-15992857D01*
X21290714Y-16021429D01*
X21319286Y-16035714D01*
X21347857Y-16035714D01*
X21562143Y-16021429D02*
X21533571Y-16035714D01*
X21476428Y-16035714D01*
X21447857Y-16021429D01*
X21433571Y-15992857D01*
X21433571Y-15878571D01*
X21447857Y-15850000D01*
X21476428Y-15835714D01*
X21533571Y-15835714D01*
X21562143Y-15850000D01*
X21576428Y-15878571D01*
X21576428Y-15907143D01*
X21433571Y-15935714D01*
X21833571Y-16035714D02*
X21833571Y-15735714D01*
X21833571Y-16021429D02*
X21805000Y-16035714D01*
X21747857Y-16035714D01*
X21719286Y-16021429D01*
X21705000Y-16007143D01*
X21690714Y-15978571D01*
X21690714Y-15892857D01*
X21705000Y-15864286D01*
X21719286Y-15850000D01*
X21747857Y-15835714D01*
X21805000Y-15835714D01*
X21833571Y-15850000D01*
X21947857Y-16150000D02*
X21962143Y-16135714D01*
X21990714Y-16092857D01*
X22005000Y-16064286D01*
X22019286Y-16021429D01*
X22033571Y-15950000D01*
X22033571Y-15892857D01*
X22019286Y-15821429D01*
X22005000Y-15778571D01*
X21990714Y-15750000D01*
X21962143Y-15707143D01*
X21947857Y-15692857D01*
M02*
