M48
;DRILL file {KiCad (2017-05-08 revision d4e41c4f9)-makepkg} date 05/10/17 17:16:49
;FORMAT={-:-/ absolute / inch / decimal}
FMAT,2
INCH,TZ
T1C0.016
T2C0.024
T3C0.040
T4C0.035
T5C0.039
T6C0.094
T7C0.126
%
G90
G05
M72
T1
X5.0155Y-3.9433
X5.0155Y-3.9783
X5.0405Y-3.9183
X5.0555Y-2.6083
X5.0555Y-2.9583
X5.0655Y-3.8933
X5.0655Y-3.9633
X5.0655Y-4.0333
X5.0905Y-2.6083
X5.0905Y-2.9583
X5.0905Y-3.8683
X5.1155Y-3.8083
X5.1155Y-3.8433
X5.1255Y-3.7733
X5.1505Y-3.7483
X5.1855Y-3.7483
X5.1975Y-3.0253
X5.2205Y-3.7483
X5.2555Y-3.7483
X5.2905Y-3.7483
X5.3255Y-3.7483
X5.3305Y-3.0783
X5.3605Y-3.7483
X5.3855Y-3.7233
X5.4105Y-3.6283
X5.4105Y-3.6633
X5.4105Y-3.6983
X5.4355Y-3.5483
X5.4589Y-3.7674
X5.4605Y-3.5233
X5.477Y-3.6983
X5.4855Y-3.4983
X5.5105Y-2.9533
X5.5105Y-3.4733
X5.5105Y-3.6603
X5.5355Y-3.8783
X5.5355Y-3.1583
X5.5355Y-3.4483
X5.5555Y-2.9983
X5.5571Y-2.9325
X5.5605Y-3.4233
X5.5705Y-3.7983
X5.5955Y-3.4233
X5.6055Y-2.6783
X5.6155Y-2.5883
X5.6255Y-3.7733
X5.6305Y-3.4233
X5.6628Y-2.5883
X5.6655Y-3.4233
X5.6705Y-3.3083
X5.7005Y-3.4233
X5.7205Y-2.9083
X5.7355Y-3.4233
X5.7405Y-3.3033
X5.7405Y-3.1833
X5.7605Y-3.3983
X5.7705Y-3.0883
X5.7855Y-3.1483
X5.7855Y-3.3733
X5.7855Y-3.5433
X5.8005Y-3.5183
X5.8005Y-3.5683
X5.8105Y-3.3483
X5.8155Y-3.4933
X5.8155Y-3.5433
X5.8155Y-3.5933
X5.8255Y-2.9333
X5.8305Y-3.4683
X5.8305Y-3.5183
X5.8305Y-3.5683
X5.8305Y-3.6183
X5.8455Y-3.3483
X5.8455Y-3.4433
X5.8455Y-3.4933
X5.8455Y-3.5433
X5.8455Y-3.5933
X5.8455Y-3.6433
X5.8605Y-3.4683
X5.8605Y-3.5183
X5.8605Y-3.5683
X5.8605Y-3.6183
X5.8655Y-3.1083
X5.8755Y-3.4433
X5.8755Y-3.4933
X5.8755Y-3.5433
X5.8755Y-3.5933
X5.8755Y-3.6433
X5.8805Y-3.3483
X5.8905Y-3.4683
X5.8905Y-3.5183
X5.8905Y-3.5683
X5.8905Y-3.6183
X5.9055Y-3.4433
X5.9055Y-3.4933
X5.9055Y-3.5433
X5.9055Y-3.5933
X5.9055Y-3.6433
X5.9155Y-3.3483
X5.9205Y-3.4683
X5.9205Y-3.5183
X5.9205Y-3.5683
X5.9205Y-3.6183
X5.9355Y-3.4433
X5.9355Y-3.4933
X5.9355Y-3.5433
X5.9355Y-3.5933
X5.9355Y-3.6433
X5.9505Y-3.3483
X5.9505Y-3.4683
X5.9505Y-3.5183
X5.9505Y-3.5683
X5.9505Y-3.6183
X5.9655Y-3.4433
X5.9655Y-3.4933
X5.9655Y-3.5433
X5.9655Y-3.5933
X5.9655Y-3.6433
X5.9755Y-2.8033
X5.9805Y-3.4683
X5.9805Y-3.5183
X5.9805Y-3.5683
X5.9805Y-3.6183
X5.9855Y-3.3483
X5.9955Y-3.4933
X5.9955Y-3.5433
X5.9955Y-3.5933
X6.0105Y-3.3733
X6.0105Y-3.5183
X6.0105Y-3.5683
X6.0205Y-3.0633
X6.0255Y-3.5433
X6.0355Y-3.3983
X6.0605Y-3.4233
X6.0805Y-2.9583
X6.0955Y-3.4233
X6.1305Y-3.4233
X6.1415Y-2.9673
X6.1415Y-3.1713
X6.1655Y-3.4233
X6.1895Y-2.9673
X6.2005Y-3.4233
X6.2255Y-3.3533
X6.2355Y-2.9833
X6.2355Y-3.1683
X6.2355Y-3.4228
X6.2755Y-2.896
X6.2796Y-3.4492
X6.2855Y-2.8033
X6.3555Y-2.9833
X6.3605Y-3.6933
X6.3608Y-2.8735
X6.3855Y-3.7183
X6.3905Y-2.7783
X6.4105Y-3.7433
X6.4355Y-3.7683
X6.4355Y-3.8033
X6.4355Y-3.8383
X6.4355Y-3.8733
X6.4355Y-3.9083
X6.4355Y-3.9433
X6.4355Y-3.9783
X6.4355Y-4.0133
X6.4355Y-4.0483
X6.4355Y-4.0833
X6.4355Y-4.1183
X6.4355Y-4.1533
X6.4355Y-4.1883
X6.4355Y-4.2233
X6.4355Y-4.2583
X6.4355Y-4.2933
X6.4355Y-4.3283
X6.4355Y-4.3633
X6.4605Y-4.3883
X6.4605Y-4.4233
X6.4605Y-4.4583
X6.4605Y-4.4933
X6.531Y-2.9233
X6.5355Y-3.0533
X6.5455Y-4.0333
X6.5855Y-3.0533
X6.5955Y-2.9233
X6.6655Y-4.1933
X6.7105Y-3.0733
X6.7405Y-4.0233
T2
X5.0055Y-3.0833
X5.0055Y-3.1333
X5.0055Y-3.1833
X5.0055Y-3.2333
X5.0555Y-3.0833
X5.0555Y-3.1333
X5.0555Y-3.1833
X5.0555Y-3.2333
X5.1055Y-3.0833
X5.1055Y-3.1333
X5.1055Y-3.1833
X5.1055Y-3.2333
X5.1455Y-4.1833
X5.1555Y-3.0833
X5.1555Y-3.1333
X5.1555Y-3.1833
X5.1555Y-3.2333
X5.2055Y-3.0833
X5.2055Y-3.1333
X5.2055Y-3.1833
X5.2055Y-3.2333
X5.2055Y-4.1833
X5.2655Y-4.1833
X5.6055Y-4.1833
X5.6655Y-4.1833
X5.7255Y-4.1833
X6.0855Y-4.1833
X6.1455Y-4.1833
X6.2055Y-4.1833
T3
X5.4255Y-2.6333
X5.5255Y-2.6333
X6.8055Y-3.7433
X6.8055Y-3.8433
X6.8055Y-3.9433
X6.6028Y-2.6476
X6.7028Y-2.6476
X6.8028Y-2.6476
X6.8055Y-4.1033
X6.8055Y-4.2033
X6.8055Y-4.3033
X6.8055Y-4.4033
T4
X5.099Y-2.6967
X5.099Y-2.8699
T5
X5.4355Y-3.0883
X5.7355Y-3.0483
X5.7355Y-3.1283
T6
X5.4355Y-2.9883
X5.4355Y-3.1883
X5.6605Y-2.9883
X5.6605Y-3.1883
T7
X5.4528Y-3.3858
X6.2992Y-3.8583
T0
M30
