G04 #@! TF.GenerationSoftware,KiCad,Pcbnew,(2017-05-12 revision b823d0b78)-makepkg*
G04 #@! TF.CreationDate,2017-05-13T14:15:10+02:00*
G04 #@! TF.ProjectId,led_pixel,6C65645F706978656C2E6B696361645F,1.0*
G04 #@! TF.FileFunction,Legend,Top*
G04 #@! TF.FilePolarity,Positive*
%FSLAX46Y46*%
G04 Gerber Fmt 4.6, Leading zero omitted, Abs format (unit mm)*
G04 Created by KiCad (PCBNEW (2017-05-12 revision b823d0b78)-makepkg) date 05/13/17 14:15:10*
%MOMM*%
%LPD*%
G01*
G04 APERTURE LIST*
%ADD10C,0.100000*%
%ADD11C,0.150000*%
%ADD12C,0.120000*%
G04 APERTURE END LIST*
D10*
D11*
X154000000Y-90000000D02*
G75*
G03X154000000Y-90000000I-4000000J0D01*
G01*
D12*
X147850000Y-70300000D02*
X163825000Y-70300000D01*
X163825000Y-70300000D02*
X163825000Y-65200000D01*
X163825000Y-65200000D02*
X147850000Y-65200000D01*
D11*
X139042000Y-97144000D02*
X139042000Y-101144000D01*
X134542000Y-97144000D02*
X139042000Y-97144000D01*
X134542000Y-101144000D02*
X134542000Y-97144000D01*
X139042000Y-101144000D02*
X134542000Y-101144000D01*
X147170000Y-97144000D02*
X147170000Y-101144000D01*
X142670000Y-97144000D02*
X147170000Y-97144000D01*
X142670000Y-101144000D02*
X142670000Y-97144000D01*
X147170000Y-101144000D02*
X142670000Y-101144000D01*
X150798000Y-101144000D02*
X150798000Y-97144000D01*
X155298000Y-101144000D02*
X150798000Y-101144000D01*
X155298000Y-97144000D02*
X155298000Y-101144000D01*
X150798000Y-97144000D02*
X155298000Y-97144000D01*
X153460000Y-70604000D02*
X154160000Y-70604000D01*
X154160000Y-71804000D02*
X153460000Y-71804000D01*
X150100000Y-71804000D02*
X149400000Y-71804000D01*
X149400000Y-70604000D02*
X150100000Y-70604000D01*
X147618000Y-83304000D02*
X148318000Y-83304000D01*
X148318000Y-84504000D02*
X147618000Y-84504000D01*
X144315000Y-86028000D02*
X143615000Y-86028000D01*
X143615000Y-84828000D02*
X144315000Y-84828000D01*
X155492000Y-84574000D02*
X156192000Y-84574000D01*
X156192000Y-85774000D02*
X155492000Y-85774000D01*
X157270000Y-70604000D02*
X157970000Y-70604000D01*
X157970000Y-71804000D02*
X157270000Y-71804000D01*
X126894000Y-97454000D02*
X127894000Y-97454000D01*
X127894000Y-95754000D02*
X126894000Y-95754000D01*
X127894000Y-93468000D02*
X126894000Y-93468000D01*
X126894000Y-95168000D02*
X127894000Y-95168000D01*
X131616000Y-93210000D02*
X132316000Y-93210000D01*
X132316000Y-94410000D02*
X131616000Y-94410000D01*
X135106000Y-91682000D02*
X135106000Y-92382000D01*
X133906000Y-92382000D02*
X133906000Y-91682000D01*
X157104000Y-110994000D02*
X156104000Y-110994000D01*
X156104000Y-112694000D02*
X157104000Y-112694000D01*
X143912000Y-112694000D02*
X144912000Y-112694000D01*
X144912000Y-110994000D02*
X143912000Y-110994000D01*
X133228000Y-110994000D02*
X132228000Y-110994000D01*
X132228000Y-112694000D02*
X133228000Y-112694000D01*
X158988000Y-74183000D02*
X158988000Y-72758000D01*
X159213000Y-81433000D02*
X159213000Y-81108000D01*
X151963000Y-81433000D02*
X151963000Y-81108000D01*
X151963000Y-74183000D02*
X151963000Y-74508000D01*
X159213000Y-74183000D02*
X159213000Y-74508000D01*
X151963000Y-74183000D02*
X152288000Y-74183000D01*
X151963000Y-81433000D02*
X152288000Y-81433000D01*
X159213000Y-81433000D02*
X158888000Y-81433000D01*
X159213000Y-74183000D02*
X158988000Y-74183000D01*
X133263940Y-66845360D02*
X124064060Y-66845360D01*
X133263940Y-74546640D02*
X133263940Y-66845360D01*
X124064060Y-74546640D02*
X133263940Y-74546640D01*
X124064060Y-66845360D02*
X124064060Y-74546640D01*
X125064820Y-66845360D02*
X125064820Y-74546640D01*
X146055000Y-71879000D02*
X145055000Y-71879000D01*
X145055000Y-70529000D02*
X146055000Y-70529000D01*
X135689000Y-67402000D02*
X135689000Y-68402000D01*
X134339000Y-68402000D02*
X134339000Y-67402000D01*
X147468000Y-81451000D02*
X148468000Y-81451000D01*
X148468000Y-82801000D02*
X147468000Y-82801000D01*
X140864000Y-69894000D02*
X141864000Y-69894000D01*
X141864000Y-71244000D02*
X140864000Y-71244000D01*
X141864000Y-73022000D02*
X140864000Y-73022000D01*
X140864000Y-71672000D02*
X141864000Y-71672000D01*
X172000000Y-70675000D02*
X171000000Y-70675000D01*
X171000000Y-69325000D02*
X172000000Y-69325000D01*
X166750000Y-69325000D02*
X167750000Y-69325000D01*
X167750000Y-70675000D02*
X166750000Y-70675000D01*
X153107000Y-109828000D02*
X153107000Y-111828000D01*
X150957000Y-111828000D02*
X150957000Y-109828000D01*
X141423000Y-109828000D02*
X141423000Y-111828000D01*
X139273000Y-111828000D02*
X139273000Y-109828000D01*
X127589000Y-111828000D02*
X127589000Y-109828000D01*
X129739000Y-109828000D02*
X129739000Y-111828000D01*
X166756000Y-109979000D02*
X165756000Y-109979000D01*
X165756000Y-108629000D02*
X166756000Y-108629000D01*
X165756000Y-106089000D02*
X166756000Y-106089000D01*
X166756000Y-107439000D02*
X165756000Y-107439000D01*
X133109000Y-77597000D02*
X133109000Y-79375000D01*
X126251000Y-77470000D02*
X133109000Y-77470000D01*
X126251000Y-85471000D02*
X126251000Y-77597000D01*
X133109000Y-85471000D02*
X126251000Y-85471000D01*
X133109000Y-79375000D02*
X133109000Y-85471000D01*
X128283000Y-88646000D02*
X128283000Y-85471000D01*
X126505000Y-88646000D02*
X128283000Y-88646000D01*
X126505000Y-85471000D02*
X126505000Y-88646000D01*
X132855000Y-88646000D02*
X132855000Y-85471000D01*
X131077000Y-88646000D02*
X132855000Y-88646000D01*
X131077000Y-85471000D02*
X131077000Y-88646000D01*
X168704000Y-104574000D02*
X168704000Y-103874000D01*
X169904000Y-103874000D02*
X169904000Y-104574000D01*
X136538000Y-68156000D02*
X136538000Y-65616000D01*
X139078000Y-68156000D02*
X136538000Y-68156000D01*
X141898000Y-68436000D02*
X141898000Y-65336000D01*
X140348000Y-68436000D02*
X141898000Y-68436000D01*
X139078000Y-65616000D02*
X139078000Y-68156000D01*
X136538000Y-65616000D02*
X139078000Y-65616000D01*
X141898000Y-65336000D02*
X140348000Y-65336000D01*
X171590000Y-96350000D02*
X174130000Y-96350000D01*
X171590000Y-101430000D02*
X171590000Y-96350000D01*
X174130000Y-101430000D02*
X171590000Y-101430000D01*
X174130000Y-96350000D02*
X174130000Y-101430000D01*
X171310000Y-93530000D02*
X171310000Y-95080000D01*
X174410000Y-93530000D02*
X171310000Y-93530000D01*
X174410000Y-95080000D02*
X174410000Y-93530000D01*
X167710000Y-65700000D02*
X166160000Y-65700000D01*
X166160000Y-65700000D02*
X166160000Y-68800000D01*
X166160000Y-68800000D02*
X167710000Y-68800000D01*
X168980000Y-65980000D02*
X174060000Y-65980000D01*
X174060000Y-65980000D02*
X174060000Y-68520000D01*
X174060000Y-68520000D02*
X168980000Y-68520000D01*
X168980000Y-68520000D02*
X168980000Y-65980000D01*
X171310000Y-113394000D02*
X174410000Y-113394000D01*
X171310000Y-111844000D02*
X171310000Y-113394000D01*
X174130000Y-110574000D02*
X171590000Y-110574000D01*
X171590000Y-102954000D02*
X174130000Y-102954000D01*
X174410000Y-113394000D02*
X174410000Y-111844000D01*
X174130000Y-110574000D02*
X174130000Y-102954000D01*
X171590000Y-110574000D02*
X171590000Y-102954000D01*
X152707000Y-104232000D02*
X152707000Y-105232000D01*
X151357000Y-105232000D02*
X151357000Y-104232000D01*
X141023000Y-104232000D02*
X141023000Y-105232000D01*
X139673000Y-105232000D02*
X139673000Y-104232000D01*
X127989000Y-105232000D02*
X127989000Y-104232000D01*
X129339000Y-104232000D02*
X129339000Y-105232000D01*
D12*
X153696000Y-107556000D02*
X153696000Y-104956000D01*
X158496000Y-103656000D02*
X158496000Y-107556000D01*
X146304000Y-103656000D02*
X146304000Y-107556000D01*
X141504000Y-107556000D02*
X141504000Y-104956000D01*
D11*
X165621000Y-96223000D02*
X165621000Y-100033000D01*
X170701000Y-96223000D02*
X170701000Y-100033000D01*
X170701000Y-96223000D02*
X165621000Y-96223000D01*
X170701000Y-100033000D02*
X165621000Y-100033000D01*
X170701000Y-96731000D02*
X165621000Y-96731000D01*
X170193000Y-97366000D02*
G75*
G03X170193000Y-97366000I-127000J0D01*
G01*
D12*
X134620000Y-103656000D02*
X134620000Y-107556000D01*
X129820000Y-107556000D02*
X129820000Y-104956000D01*
X170888000Y-91772000D02*
X172308000Y-91772000D01*
X170888000Y-71652000D02*
X165688000Y-71652000D01*
X165688000Y-92092000D02*
X165688000Y-91772000D01*
X170888000Y-92092000D02*
X165688000Y-92092000D01*
X170888000Y-91772000D02*
X170888000Y-92092000D01*
X136014000Y-74478000D02*
X136014000Y-70178000D01*
X136014000Y-70178000D02*
X134014000Y-70178000D01*
X134014000Y-70178000D02*
X134014000Y-74478000D01*
X136427000Y-68527000D02*
X136427000Y-72827000D01*
X138427000Y-68527000D02*
X136427000Y-68527000D01*
X138427000Y-72827000D02*
X138427000Y-68527000D01*
X126280000Y-89366000D02*
X131680000Y-89366000D01*
X126280000Y-92666000D02*
X131680000Y-92666000D01*
X126280000Y-89366000D02*
X126280000Y-92666000D01*
X159018000Y-109656000D02*
X162318000Y-109656000D01*
X162318000Y-109656000D02*
X162318000Y-104256000D01*
X159018000Y-109656000D02*
X159018000Y-104256000D01*
X146826000Y-109656000D02*
X146826000Y-104256000D01*
X150126000Y-109656000D02*
X150126000Y-104256000D01*
X146826000Y-109656000D02*
X150126000Y-109656000D01*
X160824000Y-111210000D02*
X166224000Y-111210000D01*
X160824000Y-114510000D02*
X166224000Y-114510000D01*
X160824000Y-111210000D02*
X160824000Y-114510000D01*
X135142000Y-109656000D02*
X138442000Y-109656000D01*
X138442000Y-109656000D02*
X138442000Y-104256000D01*
X135142000Y-109656000D02*
X135142000Y-104256000D01*
X147251000Y-74260000D02*
X147251000Y-75260000D01*
X145891000Y-75260000D02*
X145891000Y-74260000D01*
D11*
X135879142Y-83530666D02*
X135926761Y-83578285D01*
X135974380Y-83721142D01*
X135974380Y-83816380D01*
X135926761Y-83959238D01*
X135831523Y-84054476D01*
X135736285Y-84102095D01*
X135545809Y-84149714D01*
X135402952Y-84149714D01*
X135212476Y-84102095D01*
X135117238Y-84054476D01*
X135022000Y-83959238D01*
X134974380Y-83816380D01*
X134974380Y-83721142D01*
X135022000Y-83578285D01*
X135069619Y-83530666D01*
X134974380Y-82911619D02*
X134974380Y-82721142D01*
X135022000Y-82625904D01*
X135117238Y-82530666D01*
X135307714Y-82483047D01*
X135641047Y-82483047D01*
X135831523Y-82530666D01*
X135926761Y-82625904D01*
X135974380Y-82721142D01*
X135974380Y-82911619D01*
X135926761Y-83006857D01*
X135831523Y-83102095D01*
X135641047Y-83149714D01*
X135307714Y-83149714D01*
X135117238Y-83102095D01*
X135022000Y-83006857D01*
X134974380Y-82911619D01*
X135974380Y-82054476D02*
X134974380Y-82054476D01*
X135974380Y-81483047D01*
X134974380Y-81483047D01*
X135974380Y-80483047D02*
X135974380Y-81054476D01*
X135974380Y-80768761D02*
X134974380Y-80768761D01*
X135117238Y-80864000D01*
X135212476Y-80959238D01*
X135260095Y-81054476D01*
X134974380Y-79864000D02*
X134974380Y-79768761D01*
X135022000Y-79673523D01*
X135069619Y-79625904D01*
X135164857Y-79578285D01*
X135355333Y-79530666D01*
X135593428Y-79530666D01*
X135783904Y-79578285D01*
X135879142Y-79625904D01*
X135926761Y-79673523D01*
X135974380Y-79768761D01*
X135974380Y-79864000D01*
X135926761Y-79959238D01*
X135879142Y-80006857D01*
X135783904Y-80054476D01*
X135593428Y-80102095D01*
X135355333Y-80102095D01*
X135164857Y-80054476D01*
X135069619Y-80006857D01*
X135022000Y-79959238D01*
X134974380Y-79864000D01*
X135974380Y-78578285D02*
X135974380Y-79149714D01*
X135974380Y-78864000D02*
X134974380Y-78864000D01*
X135117238Y-78959238D01*
X135212476Y-79054476D01*
X135260095Y-79149714D01*
X142708704Y-93855980D02*
X142708704Y-92855980D01*
X142946800Y-92855980D01*
X143089657Y-92903600D01*
X143184895Y-92998838D01*
X143232514Y-93094076D01*
X143280133Y-93284552D01*
X143280133Y-93427409D01*
X143232514Y-93617885D01*
X143184895Y-93713123D01*
X143089657Y-93808361D01*
X142946800Y-93855980D01*
X142708704Y-93855980D01*
X144137276Y-92855980D02*
X143946800Y-92855980D01*
X143851561Y-92903600D01*
X143803942Y-92951219D01*
X143708704Y-93094076D01*
X143661085Y-93284552D01*
X143661085Y-93665504D01*
X143708704Y-93760742D01*
X143756323Y-93808361D01*
X143851561Y-93855980D01*
X144042038Y-93855980D01*
X144137276Y-93808361D01*
X144184895Y-93760742D01*
X144232514Y-93665504D01*
X144232514Y-93427409D01*
X144184895Y-93332171D01*
X144137276Y-93284552D01*
X144042038Y-93236933D01*
X143851561Y-93236933D01*
X143756323Y-93284552D01*
X143708704Y-93332171D01*
X143661085Y-93427409D01*
X164509809Y-65782690D02*
X164509809Y-66258880D01*
X164176476Y-65258880D02*
X164509809Y-65782690D01*
X164843142Y-65258880D01*
X165700285Y-66258880D02*
X165128857Y-66258880D01*
X165414571Y-66258880D02*
X165414571Y-65258880D01*
X165319333Y-65401738D01*
X165224095Y-65496976D01*
X165128857Y-65544595D01*
X136625333Y-96548380D02*
X136149142Y-96548380D01*
X136149142Y-95548380D01*
X136863428Y-95548380D02*
X137482476Y-95548380D01*
X137149142Y-95929333D01*
X137292000Y-95929333D01*
X137387238Y-95976952D01*
X137434857Y-96024571D01*
X137482476Y-96119809D01*
X137482476Y-96357904D01*
X137434857Y-96453142D01*
X137387238Y-96500761D01*
X137292000Y-96548380D01*
X137006285Y-96548380D01*
X136911047Y-96500761D01*
X136863428Y-96453142D01*
X144753333Y-96548380D02*
X144277142Y-96548380D01*
X144277142Y-95548380D01*
X145039047Y-95643619D02*
X145086666Y-95596000D01*
X145181904Y-95548380D01*
X145420000Y-95548380D01*
X145515238Y-95596000D01*
X145562857Y-95643619D01*
X145610476Y-95738857D01*
X145610476Y-95834095D01*
X145562857Y-95976952D01*
X144991428Y-96548380D01*
X145610476Y-96548380D01*
X152881333Y-96421380D02*
X152405142Y-96421380D01*
X152405142Y-95421380D01*
X153738476Y-96421380D02*
X153167047Y-96421380D01*
X153452761Y-96421380D02*
X153452761Y-95421380D01*
X153357523Y-95564238D01*
X153262285Y-95659476D01*
X153167047Y-95707095D01*
X151230333Y-73021642D02*
X151182714Y-73069261D01*
X151039857Y-73116880D01*
X150944619Y-73116880D01*
X150801761Y-73069261D01*
X150706523Y-72974023D01*
X150658904Y-72878785D01*
X150611285Y-72688309D01*
X150611285Y-72545452D01*
X150658904Y-72354976D01*
X150706523Y-72259738D01*
X150801761Y-72164500D01*
X150944619Y-72116880D01*
X151039857Y-72116880D01*
X151182714Y-72164500D01*
X151230333Y-72212119D01*
X152182714Y-73116880D02*
X151611285Y-73116880D01*
X151897000Y-73116880D02*
X151897000Y-72116880D01*
X151801761Y-72259738D01*
X151706523Y-72354976D01*
X151611285Y-72402595D01*
X149071333Y-72958142D02*
X149023714Y-73005761D01*
X148880857Y-73053380D01*
X148785619Y-73053380D01*
X148642761Y-73005761D01*
X148547523Y-72910523D01*
X148499904Y-72815285D01*
X148452285Y-72624809D01*
X148452285Y-72481952D01*
X148499904Y-72291476D01*
X148547523Y-72196238D01*
X148642761Y-72101000D01*
X148785619Y-72053380D01*
X148880857Y-72053380D01*
X149023714Y-72101000D01*
X149071333Y-72148619D01*
X149452285Y-72148619D02*
X149499904Y-72101000D01*
X149595142Y-72053380D01*
X149833238Y-72053380D01*
X149928476Y-72101000D01*
X149976095Y-72148619D01*
X150023714Y-72243857D01*
X150023714Y-72339095D01*
X149976095Y-72481952D01*
X149404666Y-73053380D01*
X150023714Y-73053380D01*
X150646133Y-84261142D02*
X150598514Y-84308761D01*
X150455657Y-84356380D01*
X150360419Y-84356380D01*
X150217561Y-84308761D01*
X150122323Y-84213523D01*
X150074704Y-84118285D01*
X150027085Y-83927809D01*
X150027085Y-83784952D01*
X150074704Y-83594476D01*
X150122323Y-83499238D01*
X150217561Y-83404000D01*
X150360419Y-83356380D01*
X150455657Y-83356380D01*
X150598514Y-83404000D01*
X150646133Y-83451619D01*
X150979466Y-83356380D02*
X151598514Y-83356380D01*
X151265180Y-83737333D01*
X151408038Y-83737333D01*
X151503276Y-83784952D01*
X151550895Y-83832571D01*
X151598514Y-83927809D01*
X151598514Y-84165904D01*
X151550895Y-84261142D01*
X151503276Y-84308761D01*
X151408038Y-84356380D01*
X151122323Y-84356380D01*
X151027085Y-84308761D01*
X150979466Y-84261142D01*
X143798333Y-83885142D02*
X143750714Y-83932761D01*
X143607857Y-83980380D01*
X143512619Y-83980380D01*
X143369761Y-83932761D01*
X143274523Y-83837523D01*
X143226904Y-83742285D01*
X143179285Y-83551809D01*
X143179285Y-83408952D01*
X143226904Y-83218476D01*
X143274523Y-83123238D01*
X143369761Y-83028000D01*
X143512619Y-82980380D01*
X143607857Y-82980380D01*
X143750714Y-83028000D01*
X143798333Y-83075619D01*
X144655476Y-83313714D02*
X144655476Y-83980380D01*
X144417380Y-82932761D02*
X144179285Y-83647047D01*
X144798333Y-83647047D01*
X155675333Y-84210342D02*
X155627714Y-84257961D01*
X155484857Y-84305580D01*
X155389619Y-84305580D01*
X155246761Y-84257961D01*
X155151523Y-84162723D01*
X155103904Y-84067485D01*
X155056285Y-83877009D01*
X155056285Y-83734152D01*
X155103904Y-83543676D01*
X155151523Y-83448438D01*
X155246761Y-83353200D01*
X155389619Y-83305580D01*
X155484857Y-83305580D01*
X155627714Y-83353200D01*
X155675333Y-83400819D01*
X156580095Y-83305580D02*
X156103904Y-83305580D01*
X156056285Y-83781771D01*
X156103904Y-83734152D01*
X156199142Y-83686533D01*
X156437238Y-83686533D01*
X156532476Y-83734152D01*
X156580095Y-83781771D01*
X156627714Y-83877009D01*
X156627714Y-84115104D01*
X156580095Y-84210342D01*
X156532476Y-84257961D01*
X156437238Y-84305580D01*
X156199142Y-84305580D01*
X156103904Y-84257961D01*
X156056285Y-84210342D01*
X160247333Y-71561142D02*
X160199714Y-71608761D01*
X160056857Y-71656380D01*
X159961619Y-71656380D01*
X159818761Y-71608761D01*
X159723523Y-71513523D01*
X159675904Y-71418285D01*
X159628285Y-71227809D01*
X159628285Y-71084952D01*
X159675904Y-70894476D01*
X159723523Y-70799238D01*
X159818761Y-70704000D01*
X159961619Y-70656380D01*
X160056857Y-70656380D01*
X160199714Y-70704000D01*
X160247333Y-70751619D01*
X161104476Y-70656380D02*
X160914000Y-70656380D01*
X160818761Y-70704000D01*
X160771142Y-70751619D01*
X160675904Y-70894476D01*
X160628285Y-71084952D01*
X160628285Y-71465904D01*
X160675904Y-71561142D01*
X160723523Y-71608761D01*
X160818761Y-71656380D01*
X161009238Y-71656380D01*
X161104476Y-71608761D01*
X161152095Y-71561142D01*
X161199714Y-71465904D01*
X161199714Y-71227809D01*
X161152095Y-71132571D01*
X161104476Y-71084952D01*
X161009238Y-71037333D01*
X160818761Y-71037333D01*
X160723523Y-71084952D01*
X160675904Y-71132571D01*
X160628285Y-71227809D01*
X130529333Y-97977142D02*
X130481714Y-98024761D01*
X130338857Y-98072380D01*
X130243619Y-98072380D01*
X130100761Y-98024761D01*
X130005523Y-97929523D01*
X129957904Y-97834285D01*
X129910285Y-97643809D01*
X129910285Y-97500952D01*
X129957904Y-97310476D01*
X130005523Y-97215238D01*
X130100761Y-97120000D01*
X130243619Y-97072380D01*
X130338857Y-97072380D01*
X130481714Y-97120000D01*
X130529333Y-97167619D01*
X130862666Y-97072380D02*
X131529333Y-97072380D01*
X131100761Y-98072380D01*
X130529333Y-95691142D02*
X130481714Y-95738761D01*
X130338857Y-95786380D01*
X130243619Y-95786380D01*
X130100761Y-95738761D01*
X130005523Y-95643523D01*
X129957904Y-95548285D01*
X129910285Y-95357809D01*
X129910285Y-95214952D01*
X129957904Y-95024476D01*
X130005523Y-94929238D01*
X130100761Y-94834000D01*
X130243619Y-94786380D01*
X130338857Y-94786380D01*
X130481714Y-94834000D01*
X130529333Y-94881619D01*
X131100761Y-95214952D02*
X131005523Y-95167333D01*
X130957904Y-95119714D01*
X130910285Y-95024476D01*
X130910285Y-94976857D01*
X130957904Y-94881619D01*
X131005523Y-94834000D01*
X131100761Y-94786380D01*
X131291238Y-94786380D01*
X131386476Y-94834000D01*
X131434095Y-94881619D01*
X131481714Y-94976857D01*
X131481714Y-95024476D01*
X131434095Y-95119714D01*
X131386476Y-95167333D01*
X131291238Y-95214952D01*
X131100761Y-95214952D01*
X131005523Y-95262571D01*
X130957904Y-95310190D01*
X130910285Y-95405428D01*
X130910285Y-95595904D01*
X130957904Y-95691142D01*
X131005523Y-95738761D01*
X131100761Y-95786380D01*
X131291238Y-95786380D01*
X131386476Y-95738761D01*
X131434095Y-95691142D01*
X131481714Y-95595904D01*
X131481714Y-95405428D01*
X131434095Y-95310190D01*
X131386476Y-95262571D01*
X131291238Y-95214952D01*
X132942333Y-95564142D02*
X132894714Y-95611761D01*
X132751857Y-95659380D01*
X132656619Y-95659380D01*
X132513761Y-95611761D01*
X132418523Y-95516523D01*
X132370904Y-95421285D01*
X132323285Y-95230809D01*
X132323285Y-95087952D01*
X132370904Y-94897476D01*
X132418523Y-94802238D01*
X132513761Y-94707000D01*
X132656619Y-94659380D01*
X132751857Y-94659380D01*
X132894714Y-94707000D01*
X132942333Y-94754619D01*
X133418523Y-95659380D02*
X133609000Y-95659380D01*
X133704238Y-95611761D01*
X133751857Y-95564142D01*
X133847095Y-95421285D01*
X133894714Y-95230809D01*
X133894714Y-94849857D01*
X133847095Y-94754619D01*
X133799476Y-94707000D01*
X133704238Y-94659380D01*
X133513761Y-94659380D01*
X133418523Y-94707000D01*
X133370904Y-94754619D01*
X133323285Y-94849857D01*
X133323285Y-95087952D01*
X133370904Y-95183190D01*
X133418523Y-95230809D01*
X133513761Y-95278428D01*
X133704238Y-95278428D01*
X133799476Y-95230809D01*
X133847095Y-95183190D01*
X133894714Y-95087952D01*
X136763142Y-92674857D02*
X136810761Y-92722476D01*
X136858380Y-92865333D01*
X136858380Y-92960571D01*
X136810761Y-93103428D01*
X136715523Y-93198666D01*
X136620285Y-93246285D01*
X136429809Y-93293904D01*
X136286952Y-93293904D01*
X136096476Y-93246285D01*
X136001238Y-93198666D01*
X135906000Y-93103428D01*
X135858380Y-92960571D01*
X135858380Y-92865333D01*
X135906000Y-92722476D01*
X135953619Y-92674857D01*
X136858380Y-91722476D02*
X136858380Y-92293904D01*
X136858380Y-92008190D02*
X135858380Y-92008190D01*
X136001238Y-92103428D01*
X136096476Y-92198666D01*
X136144095Y-92293904D01*
X135858380Y-91103428D02*
X135858380Y-91008190D01*
X135906000Y-90912952D01*
X135953619Y-90865333D01*
X136048857Y-90817714D01*
X136239333Y-90770095D01*
X136477428Y-90770095D01*
X136667904Y-90817714D01*
X136763142Y-90865333D01*
X136810761Y-90912952D01*
X136858380Y-91008190D01*
X136858380Y-91103428D01*
X136810761Y-91198666D01*
X136763142Y-91246285D01*
X136667904Y-91293904D01*
X136477428Y-91341523D01*
X136239333Y-91341523D01*
X136048857Y-91293904D01*
X135953619Y-91246285D01*
X135906000Y-91198666D01*
X135858380Y-91103428D01*
X155961142Y-113979142D02*
X155913523Y-114026761D01*
X155770666Y-114074380D01*
X155675428Y-114074380D01*
X155532571Y-114026761D01*
X155437333Y-113931523D01*
X155389714Y-113836285D01*
X155342095Y-113645809D01*
X155342095Y-113502952D01*
X155389714Y-113312476D01*
X155437333Y-113217238D01*
X155532571Y-113122000D01*
X155675428Y-113074380D01*
X155770666Y-113074380D01*
X155913523Y-113122000D01*
X155961142Y-113169619D01*
X156913523Y-114074380D02*
X156342095Y-114074380D01*
X156627809Y-114074380D02*
X156627809Y-113074380D01*
X156532571Y-113217238D01*
X156437333Y-113312476D01*
X156342095Y-113360095D01*
X157865904Y-114074380D02*
X157294476Y-114074380D01*
X157580190Y-114074380D02*
X157580190Y-113074380D01*
X157484952Y-113217238D01*
X157389714Y-113312476D01*
X157294476Y-113360095D01*
X143769142Y-114301142D02*
X143721523Y-114348761D01*
X143578666Y-114396380D01*
X143483428Y-114396380D01*
X143340571Y-114348761D01*
X143245333Y-114253523D01*
X143197714Y-114158285D01*
X143150095Y-113967809D01*
X143150095Y-113824952D01*
X143197714Y-113634476D01*
X143245333Y-113539238D01*
X143340571Y-113444000D01*
X143483428Y-113396380D01*
X143578666Y-113396380D01*
X143721523Y-113444000D01*
X143769142Y-113491619D01*
X144721523Y-114396380D02*
X144150095Y-114396380D01*
X144435809Y-114396380D02*
X144435809Y-113396380D01*
X144340571Y-113539238D01*
X144245333Y-113634476D01*
X144150095Y-113682095D01*
X145102476Y-113491619D02*
X145150095Y-113444000D01*
X145245333Y-113396380D01*
X145483428Y-113396380D01*
X145578666Y-113444000D01*
X145626285Y-113491619D01*
X145673904Y-113586857D01*
X145673904Y-113682095D01*
X145626285Y-113824952D01*
X145054857Y-114396380D01*
X145673904Y-114396380D01*
X132085142Y-114301142D02*
X132037523Y-114348761D01*
X131894666Y-114396380D01*
X131799428Y-114396380D01*
X131656571Y-114348761D01*
X131561333Y-114253523D01*
X131513714Y-114158285D01*
X131466095Y-113967809D01*
X131466095Y-113824952D01*
X131513714Y-113634476D01*
X131561333Y-113539238D01*
X131656571Y-113444000D01*
X131799428Y-113396380D01*
X131894666Y-113396380D01*
X132037523Y-113444000D01*
X132085142Y-113491619D01*
X133037523Y-114396380D02*
X132466095Y-114396380D01*
X132751809Y-114396380D02*
X132751809Y-113396380D01*
X132656571Y-113539238D01*
X132561333Y-113634476D01*
X132466095Y-113682095D01*
X133894666Y-113729714D02*
X133894666Y-114396380D01*
X133656571Y-113348761D02*
X133418476Y-114063047D01*
X134037523Y-114063047D01*
X159437809Y-73878880D02*
X159437809Y-72878880D01*
X160485428Y-73783642D02*
X160437809Y-73831261D01*
X160294952Y-73878880D01*
X160199714Y-73878880D01*
X160056857Y-73831261D01*
X159961619Y-73736023D01*
X159914000Y-73640785D01*
X159866380Y-73450309D01*
X159866380Y-73307452D01*
X159914000Y-73116976D01*
X159961619Y-73021738D01*
X160056857Y-72926500D01*
X160199714Y-72878880D01*
X160294952Y-72878880D01*
X160437809Y-72926500D01*
X160485428Y-72974119D01*
X161437809Y-73878880D02*
X160866380Y-73878880D01*
X161152095Y-73878880D02*
X161152095Y-72878880D01*
X161056857Y-73021738D01*
X160961619Y-73116976D01*
X160866380Y-73164595D01*
X128687904Y-66449380D02*
X128687904Y-65449380D01*
X129068857Y-65449380D01*
X129164095Y-65497000D01*
X129211714Y-65544619D01*
X129259333Y-65639857D01*
X129259333Y-65782714D01*
X129211714Y-65877952D01*
X129164095Y-65925571D01*
X129068857Y-65973190D01*
X128687904Y-65973190D01*
X130211714Y-66449380D02*
X129640285Y-66449380D01*
X129926000Y-66449380D02*
X129926000Y-65449380D01*
X129830761Y-65592238D01*
X129735523Y-65687476D01*
X129640285Y-65735095D01*
X144804133Y-73078780D02*
X144470800Y-72602590D01*
X144232704Y-73078780D02*
X144232704Y-72078780D01*
X144613657Y-72078780D01*
X144708895Y-72126400D01*
X144756514Y-72174019D01*
X144804133Y-72269257D01*
X144804133Y-72412114D01*
X144756514Y-72507352D01*
X144708895Y-72554971D01*
X144613657Y-72602590D01*
X144232704Y-72602590D01*
X145756514Y-73078780D02*
X145185085Y-73078780D01*
X145470800Y-73078780D02*
X145470800Y-72078780D01*
X145375561Y-72221638D01*
X145280323Y-72316876D01*
X145185085Y-72364495D01*
D10*
X134897333Y-65932666D02*
X134664000Y-65599333D01*
X134497333Y-65932666D02*
X134497333Y-65232666D01*
X134764000Y-65232666D01*
X134830666Y-65266000D01*
X134864000Y-65299333D01*
X134897333Y-65366000D01*
X134897333Y-65466000D01*
X134864000Y-65532666D01*
X134830666Y-65566000D01*
X134764000Y-65599333D01*
X134497333Y-65599333D01*
X135164000Y-65299333D02*
X135197333Y-65266000D01*
X135264000Y-65232666D01*
X135430666Y-65232666D01*
X135497333Y-65266000D01*
X135530666Y-65299333D01*
X135564000Y-65366000D01*
X135564000Y-65432666D01*
X135530666Y-65532666D01*
X135130666Y-65932666D01*
X135564000Y-65932666D01*
D11*
X147801333Y-80678380D02*
X147468000Y-80202190D01*
X147229904Y-80678380D02*
X147229904Y-79678380D01*
X147610857Y-79678380D01*
X147706095Y-79726000D01*
X147753714Y-79773619D01*
X147801333Y-79868857D01*
X147801333Y-80011714D01*
X147753714Y-80106952D01*
X147706095Y-80154571D01*
X147610857Y-80202190D01*
X147229904Y-80202190D01*
X148134666Y-79678380D02*
X148753714Y-79678380D01*
X148420380Y-80059333D01*
X148563238Y-80059333D01*
X148658476Y-80106952D01*
X148706095Y-80154571D01*
X148753714Y-80249809D01*
X148753714Y-80487904D01*
X148706095Y-80583142D01*
X148658476Y-80630761D01*
X148563238Y-80678380D01*
X148277523Y-80678380D01*
X148182285Y-80630761D01*
X148134666Y-80583142D01*
X144245333Y-70259380D02*
X143912000Y-69783190D01*
X143673904Y-70259380D02*
X143673904Y-69259380D01*
X144054857Y-69259380D01*
X144150095Y-69307000D01*
X144197714Y-69354619D01*
X144245333Y-69449857D01*
X144245333Y-69592714D01*
X144197714Y-69687952D01*
X144150095Y-69735571D01*
X144054857Y-69783190D01*
X143673904Y-69783190D01*
X145150095Y-69259380D02*
X144673904Y-69259380D01*
X144626285Y-69735571D01*
X144673904Y-69687952D01*
X144769142Y-69640333D01*
X145007238Y-69640333D01*
X145102476Y-69687952D01*
X145150095Y-69735571D01*
X145197714Y-69830809D01*
X145197714Y-70068904D01*
X145150095Y-70164142D01*
X145102476Y-70211761D01*
X145007238Y-70259380D01*
X144769142Y-70259380D01*
X144673904Y-70211761D01*
X144626285Y-70164142D01*
X141197333Y-74323380D02*
X140864000Y-73847190D01*
X140625904Y-74323380D02*
X140625904Y-73323380D01*
X141006857Y-73323380D01*
X141102095Y-73371000D01*
X141149714Y-73418619D01*
X141197333Y-73513857D01*
X141197333Y-73656714D01*
X141149714Y-73751952D01*
X141102095Y-73799571D01*
X141006857Y-73847190D01*
X140625904Y-73847190D01*
X142054476Y-73323380D02*
X141864000Y-73323380D01*
X141768761Y-73371000D01*
X141721142Y-73418619D01*
X141625904Y-73561476D01*
X141578285Y-73751952D01*
X141578285Y-74132904D01*
X141625904Y-74228142D01*
X141673523Y-74275761D01*
X141768761Y-74323380D01*
X141959238Y-74323380D01*
X142054476Y-74275761D01*
X142102095Y-74228142D01*
X142149714Y-74132904D01*
X142149714Y-73894809D01*
X142102095Y-73799571D01*
X142054476Y-73751952D01*
X141959238Y-73704333D01*
X141768761Y-73704333D01*
X141673523Y-73751952D01*
X141625904Y-73799571D01*
X141578285Y-73894809D01*
X173264833Y-71910380D02*
X172931500Y-71434190D01*
X172693404Y-71910380D02*
X172693404Y-70910380D01*
X173074357Y-70910380D01*
X173169595Y-70958000D01*
X173217214Y-71005619D01*
X173264833Y-71100857D01*
X173264833Y-71243714D01*
X173217214Y-71338952D01*
X173169595Y-71386571D01*
X173074357Y-71434190D01*
X172693404Y-71434190D01*
X173598166Y-70910380D02*
X174264833Y-70910380D01*
X173836261Y-71910380D01*
X164120833Y-71529380D02*
X163787500Y-71053190D01*
X163549404Y-71529380D02*
X163549404Y-70529380D01*
X163930357Y-70529380D01*
X164025595Y-70577000D01*
X164073214Y-70624619D01*
X164120833Y-70719857D01*
X164120833Y-70862714D01*
X164073214Y-70957952D01*
X164025595Y-71005571D01*
X163930357Y-71053190D01*
X163549404Y-71053190D01*
X164692261Y-70957952D02*
X164597023Y-70910333D01*
X164549404Y-70862714D01*
X164501785Y-70767476D01*
X164501785Y-70719857D01*
X164549404Y-70624619D01*
X164597023Y-70577000D01*
X164692261Y-70529380D01*
X164882738Y-70529380D01*
X164977976Y-70577000D01*
X165025595Y-70624619D01*
X165073214Y-70719857D01*
X165073214Y-70767476D01*
X165025595Y-70862714D01*
X164977976Y-70910333D01*
X164882738Y-70957952D01*
X164692261Y-70957952D01*
X164597023Y-71005571D01*
X164549404Y-71053190D01*
X164501785Y-71148428D01*
X164501785Y-71338904D01*
X164549404Y-71434142D01*
X164597023Y-71481761D01*
X164692261Y-71529380D01*
X164882738Y-71529380D01*
X164977976Y-71481761D01*
X165025595Y-71434142D01*
X165073214Y-71338904D01*
X165073214Y-71148428D01*
X165025595Y-71053190D01*
X164977976Y-71005571D01*
X164882738Y-70957952D01*
X150706380Y-112232857D02*
X150230190Y-112566190D01*
X150706380Y-112804285D02*
X149706380Y-112804285D01*
X149706380Y-112423333D01*
X149754000Y-112328095D01*
X149801619Y-112280476D01*
X149896857Y-112232857D01*
X150039714Y-112232857D01*
X150134952Y-112280476D01*
X150182571Y-112328095D01*
X150230190Y-112423333D01*
X150230190Y-112804285D01*
X150706380Y-111280476D02*
X150706380Y-111851904D01*
X150706380Y-111566190D02*
X149706380Y-111566190D01*
X149849238Y-111661428D01*
X149944476Y-111756666D01*
X149992095Y-111851904D01*
X149706380Y-110661428D02*
X149706380Y-110566190D01*
X149754000Y-110470952D01*
X149801619Y-110423333D01*
X149896857Y-110375714D01*
X150087333Y-110328095D01*
X150325428Y-110328095D01*
X150515904Y-110375714D01*
X150611142Y-110423333D01*
X150658761Y-110470952D01*
X150706380Y-110566190D01*
X150706380Y-110661428D01*
X150658761Y-110756666D01*
X150611142Y-110804285D01*
X150515904Y-110851904D01*
X150325428Y-110899523D01*
X150087333Y-110899523D01*
X149896857Y-110851904D01*
X149801619Y-110804285D01*
X149754000Y-110756666D01*
X149706380Y-110661428D01*
X139022380Y-112232857D02*
X138546190Y-112566190D01*
X139022380Y-112804285D02*
X138022380Y-112804285D01*
X138022380Y-112423333D01*
X138070000Y-112328095D01*
X138117619Y-112280476D01*
X138212857Y-112232857D01*
X138355714Y-112232857D01*
X138450952Y-112280476D01*
X138498571Y-112328095D01*
X138546190Y-112423333D01*
X138546190Y-112804285D01*
X139022380Y-111280476D02*
X139022380Y-111851904D01*
X139022380Y-111566190D02*
X138022380Y-111566190D01*
X138165238Y-111661428D01*
X138260476Y-111756666D01*
X138308095Y-111851904D01*
X138117619Y-110899523D02*
X138070000Y-110851904D01*
X138022380Y-110756666D01*
X138022380Y-110518571D01*
X138070000Y-110423333D01*
X138117619Y-110375714D01*
X138212857Y-110328095D01*
X138308095Y-110328095D01*
X138450952Y-110375714D01*
X139022380Y-110947142D01*
X139022380Y-110328095D01*
X127338380Y-112232857D02*
X126862190Y-112566190D01*
X127338380Y-112804285D02*
X126338380Y-112804285D01*
X126338380Y-112423333D01*
X126386000Y-112328095D01*
X126433619Y-112280476D01*
X126528857Y-112232857D01*
X126671714Y-112232857D01*
X126766952Y-112280476D01*
X126814571Y-112328095D01*
X126862190Y-112423333D01*
X126862190Y-112804285D01*
X127338380Y-111280476D02*
X127338380Y-111851904D01*
X127338380Y-111566190D02*
X126338380Y-111566190D01*
X126481238Y-111661428D01*
X126576476Y-111756666D01*
X126624095Y-111851904D01*
X126671714Y-110423333D02*
X127338380Y-110423333D01*
X126290761Y-110661428D02*
X127005047Y-110899523D01*
X127005047Y-110280476D01*
X169169142Y-109756380D02*
X168835809Y-109280190D01*
X168597714Y-109756380D02*
X168597714Y-108756380D01*
X168978666Y-108756380D01*
X169073904Y-108804000D01*
X169121523Y-108851619D01*
X169169142Y-108946857D01*
X169169142Y-109089714D01*
X169121523Y-109184952D01*
X169073904Y-109232571D01*
X168978666Y-109280190D01*
X168597714Y-109280190D01*
X170121523Y-109756380D02*
X169550095Y-109756380D01*
X169835809Y-109756380D02*
X169835809Y-108756380D01*
X169740571Y-108899238D01*
X169645333Y-108994476D01*
X169550095Y-109042095D01*
X171026285Y-108756380D02*
X170550095Y-108756380D01*
X170502476Y-109232571D01*
X170550095Y-109184952D01*
X170645333Y-109137333D01*
X170883428Y-109137333D01*
X170978666Y-109184952D01*
X171026285Y-109232571D01*
X171073904Y-109327809D01*
X171073904Y-109565904D01*
X171026285Y-109661142D01*
X170978666Y-109708761D01*
X170883428Y-109756380D01*
X170645333Y-109756380D01*
X170550095Y-109708761D01*
X170502476Y-109661142D01*
X169169142Y-107216380D02*
X168835809Y-106740190D01*
X168597714Y-107216380D02*
X168597714Y-106216380D01*
X168978666Y-106216380D01*
X169073904Y-106264000D01*
X169121523Y-106311619D01*
X169169142Y-106406857D01*
X169169142Y-106549714D01*
X169121523Y-106644952D01*
X169073904Y-106692571D01*
X168978666Y-106740190D01*
X168597714Y-106740190D01*
X170121523Y-107216380D02*
X169550095Y-107216380D01*
X169835809Y-107216380D02*
X169835809Y-106216380D01*
X169740571Y-106359238D01*
X169645333Y-106454476D01*
X169550095Y-106502095D01*
X170978666Y-106216380D02*
X170788190Y-106216380D01*
X170692952Y-106264000D01*
X170645333Y-106311619D01*
X170550095Y-106454476D01*
X170502476Y-106644952D01*
X170502476Y-107025904D01*
X170550095Y-107121142D01*
X170597714Y-107168761D01*
X170692952Y-107216380D01*
X170883428Y-107216380D01*
X170978666Y-107168761D01*
X171026285Y-107121142D01*
X171073904Y-107025904D01*
X171073904Y-106787809D01*
X171026285Y-106692571D01*
X170978666Y-106644952D01*
X170883428Y-106597333D01*
X170692952Y-106597333D01*
X170597714Y-106644952D01*
X170550095Y-106692571D01*
X170502476Y-106787809D01*
X128918095Y-76033380D02*
X128918095Y-76842904D01*
X128965714Y-76938142D01*
X129013333Y-76985761D01*
X129108571Y-77033380D01*
X129299047Y-77033380D01*
X129394285Y-76985761D01*
X129441904Y-76938142D01*
X129489523Y-76842904D01*
X129489523Y-76033380D01*
X130489523Y-77033380D02*
X129918095Y-77033380D01*
X130203809Y-77033380D02*
X130203809Y-76033380D01*
X130108571Y-76176238D01*
X130013333Y-76271476D01*
X129918095Y-76319095D01*
X168327642Y-104866857D02*
X168375261Y-104914476D01*
X168422880Y-105057333D01*
X168422880Y-105152571D01*
X168375261Y-105295428D01*
X168280023Y-105390666D01*
X168184785Y-105438285D01*
X167994309Y-105485904D01*
X167851452Y-105485904D01*
X167660976Y-105438285D01*
X167565738Y-105390666D01*
X167470500Y-105295428D01*
X167422880Y-105152571D01*
X167422880Y-105057333D01*
X167470500Y-104914476D01*
X167518119Y-104866857D01*
X168422880Y-103914476D02*
X168422880Y-104485904D01*
X168422880Y-104200190D02*
X167422880Y-104200190D01*
X167565738Y-104295428D01*
X167660976Y-104390666D01*
X167708595Y-104485904D01*
X167422880Y-103581142D02*
X167422880Y-102962095D01*
X167803833Y-103295428D01*
X167803833Y-103152571D01*
X167851452Y-103057333D01*
X167899071Y-103009714D01*
X167994309Y-102962095D01*
X168232404Y-102962095D01*
X168327642Y-103009714D01*
X168375261Y-103057333D01*
X168422880Y-103152571D01*
X168422880Y-103438285D01*
X168375261Y-103533523D01*
X168327642Y-103581142D01*
X142562666Y-65068380D02*
X142562666Y-65782666D01*
X142515047Y-65925523D01*
X142419809Y-66020761D01*
X142276952Y-66068380D01*
X142181714Y-66068380D01*
X143038857Y-66068380D02*
X143038857Y-65068380D01*
X143419809Y-65068380D01*
X143515047Y-65116000D01*
X143562666Y-65163619D01*
X143610285Y-65258857D01*
X143610285Y-65401714D01*
X143562666Y-65496952D01*
X143515047Y-65544571D01*
X143419809Y-65592190D01*
X143038857Y-65592190D01*
X144562666Y-66068380D02*
X143991238Y-66068380D01*
X144276952Y-66068380D02*
X144276952Y-65068380D01*
X144181714Y-65211238D01*
X144086476Y-65306476D01*
X143991238Y-65354095D01*
X172121904Y-93246380D02*
X172121904Y-92246380D01*
X172502857Y-92246380D01*
X172598095Y-92294000D01*
X172645714Y-92341619D01*
X172693333Y-92436857D01*
X172693333Y-92579714D01*
X172645714Y-92674952D01*
X172598095Y-92722571D01*
X172502857Y-92770190D01*
X172121904Y-92770190D01*
X173026666Y-92246380D02*
X173645714Y-92246380D01*
X173312380Y-92627333D01*
X173455238Y-92627333D01*
X173550476Y-92674952D01*
X173598095Y-92722571D01*
X173645714Y-92817809D01*
X173645714Y-93055904D01*
X173598095Y-93151142D01*
X173550476Y-93198761D01*
X173455238Y-93246380D01*
X173169523Y-93246380D01*
X173074285Y-93198761D01*
X173026666Y-93151142D01*
X164374904Y-68798880D02*
X164374904Y-67798880D01*
X164755857Y-67798880D01*
X164851095Y-67846500D01*
X164898714Y-67894119D01*
X164946333Y-67989357D01*
X164946333Y-68132214D01*
X164898714Y-68227452D01*
X164851095Y-68275071D01*
X164755857Y-68322690D01*
X164374904Y-68322690D01*
X165803476Y-68132214D02*
X165803476Y-68798880D01*
X165565380Y-67751261D02*
X165327285Y-68465547D01*
X165946333Y-68465547D01*
X171026380Y-113344095D02*
X170026380Y-113344095D01*
X170026380Y-112963142D01*
X170074000Y-112867904D01*
X170121619Y-112820285D01*
X170216857Y-112772666D01*
X170359714Y-112772666D01*
X170454952Y-112820285D01*
X170502571Y-112867904D01*
X170550190Y-112963142D01*
X170550190Y-113344095D01*
X170026380Y-111867904D02*
X170026380Y-112344095D01*
X170502571Y-112391714D01*
X170454952Y-112344095D01*
X170407333Y-112248857D01*
X170407333Y-112010761D01*
X170454952Y-111915523D01*
X170502571Y-111867904D01*
X170597809Y-111820285D01*
X170835904Y-111820285D01*
X170931142Y-111867904D01*
X170978761Y-111915523D01*
X171026380Y-112010761D01*
X171026380Y-112248857D01*
X170978761Y-112344095D01*
X170931142Y-112391714D01*
X151214380Y-102612666D02*
X150738190Y-102946000D01*
X151214380Y-103184095D02*
X150214380Y-103184095D01*
X150214380Y-102803142D01*
X150262000Y-102707904D01*
X150309619Y-102660285D01*
X150404857Y-102612666D01*
X150547714Y-102612666D01*
X150642952Y-102660285D01*
X150690571Y-102707904D01*
X150738190Y-102803142D01*
X150738190Y-103184095D01*
X151214380Y-102136476D02*
X151214380Y-101946000D01*
X151166761Y-101850761D01*
X151119142Y-101803142D01*
X150976285Y-101707904D01*
X150785809Y-101660285D01*
X150404857Y-101660285D01*
X150309619Y-101707904D01*
X150262000Y-101755523D01*
X150214380Y-101850761D01*
X150214380Y-102041238D01*
X150262000Y-102136476D01*
X150309619Y-102184095D01*
X150404857Y-102231714D01*
X150642952Y-102231714D01*
X150738190Y-102184095D01*
X150785809Y-102136476D01*
X150833428Y-102041238D01*
X150833428Y-101850761D01*
X150785809Y-101755523D01*
X150738190Y-101707904D01*
X150642952Y-101660285D01*
X141054380Y-101818857D02*
X140578190Y-102152190D01*
X141054380Y-102390285D02*
X140054380Y-102390285D01*
X140054380Y-102009333D01*
X140102000Y-101914095D01*
X140149619Y-101866476D01*
X140244857Y-101818857D01*
X140387714Y-101818857D01*
X140482952Y-101866476D01*
X140530571Y-101914095D01*
X140578190Y-102009333D01*
X140578190Y-102390285D01*
X141054380Y-100866476D02*
X141054380Y-101437904D01*
X141054380Y-101152190D02*
X140054380Y-101152190D01*
X140197238Y-101247428D01*
X140292476Y-101342666D01*
X140340095Y-101437904D01*
X141054380Y-99914095D02*
X141054380Y-100485523D01*
X141054380Y-100199809D02*
X140054380Y-100199809D01*
X140197238Y-100295047D01*
X140292476Y-100390285D01*
X140340095Y-100485523D01*
X127592380Y-105374857D02*
X127116190Y-105708190D01*
X127592380Y-105946285D02*
X126592380Y-105946285D01*
X126592380Y-105565333D01*
X126640000Y-105470095D01*
X126687619Y-105422476D01*
X126782857Y-105374857D01*
X126925714Y-105374857D01*
X127020952Y-105422476D01*
X127068571Y-105470095D01*
X127116190Y-105565333D01*
X127116190Y-105946285D01*
X127592380Y-104422476D02*
X127592380Y-104993904D01*
X127592380Y-104708190D02*
X126592380Y-104708190D01*
X126735238Y-104803428D01*
X126830476Y-104898666D01*
X126878095Y-104993904D01*
X126592380Y-104089142D02*
X126592380Y-103470095D01*
X126973333Y-103803428D01*
X126973333Y-103660571D01*
X127020952Y-103565333D01*
X127068571Y-103517714D01*
X127163809Y-103470095D01*
X127401904Y-103470095D01*
X127497142Y-103517714D01*
X127544761Y-103565333D01*
X127592380Y-103660571D01*
X127592380Y-103946285D01*
X127544761Y-104041523D01*
X127497142Y-104089142D01*
X156350095Y-100882380D02*
X156350095Y-101691904D01*
X156397714Y-101787142D01*
X156445333Y-101834761D01*
X156540571Y-101882380D01*
X156731047Y-101882380D01*
X156826285Y-101834761D01*
X156873904Y-101787142D01*
X156921523Y-101691904D01*
X156921523Y-100882380D01*
X157350095Y-100977619D02*
X157397714Y-100930000D01*
X157492952Y-100882380D01*
X157731047Y-100882380D01*
X157826285Y-100930000D01*
X157873904Y-100977619D01*
X157921523Y-101072857D01*
X157921523Y-101168095D01*
X157873904Y-101310952D01*
X157302476Y-101882380D01*
X157921523Y-101882380D01*
X146444095Y-101644380D02*
X146444095Y-102453904D01*
X146491714Y-102549142D01*
X146539333Y-102596761D01*
X146634571Y-102644380D01*
X146825047Y-102644380D01*
X146920285Y-102596761D01*
X146967904Y-102549142D01*
X147015523Y-102453904D01*
X147015523Y-101644380D01*
X147396476Y-101644380D02*
X148015523Y-101644380D01*
X147682190Y-102025333D01*
X147825047Y-102025333D01*
X147920285Y-102072952D01*
X147967904Y-102120571D01*
X148015523Y-102215809D01*
X148015523Y-102453904D01*
X147967904Y-102549142D01*
X147920285Y-102596761D01*
X147825047Y-102644380D01*
X147539333Y-102644380D01*
X147444095Y-102596761D01*
X147396476Y-102549142D01*
X163716095Y-96183380D02*
X163716095Y-96992904D01*
X163763714Y-97088142D01*
X163811333Y-97135761D01*
X163906571Y-97183380D01*
X164097047Y-97183380D01*
X164192285Y-97135761D01*
X164239904Y-97088142D01*
X164287523Y-96992904D01*
X164287523Y-96183380D01*
X165192285Y-96516714D02*
X165192285Y-97183380D01*
X164954190Y-96135761D02*
X164716095Y-96850047D01*
X165335142Y-96850047D01*
X131458095Y-101136380D02*
X131458095Y-101945904D01*
X131505714Y-102041142D01*
X131553333Y-102088761D01*
X131648571Y-102136380D01*
X131839047Y-102136380D01*
X131934285Y-102088761D01*
X131981904Y-102041142D01*
X132029523Y-101945904D01*
X132029523Y-101136380D01*
X132981904Y-101136380D02*
X132505714Y-101136380D01*
X132458095Y-101612571D01*
X132505714Y-101564952D01*
X132600952Y-101517333D01*
X132839047Y-101517333D01*
X132934285Y-101564952D01*
X132981904Y-101612571D01*
X133029523Y-101707809D01*
X133029523Y-101945904D01*
X132981904Y-102041142D01*
X132934285Y-102088761D01*
X132839047Y-102136380D01*
X132600952Y-102136380D01*
X132505714Y-102088761D01*
X132458095Y-102041142D01*
X166954666Y-93262261D02*
X167097523Y-93309880D01*
X167335619Y-93309880D01*
X167430857Y-93262261D01*
X167478476Y-93214642D01*
X167526095Y-93119404D01*
X167526095Y-93024166D01*
X167478476Y-92928928D01*
X167430857Y-92881309D01*
X167335619Y-92833690D01*
X167145142Y-92786071D01*
X167049904Y-92738452D01*
X167002285Y-92690833D01*
X166954666Y-92595595D01*
X166954666Y-92500357D01*
X167002285Y-92405119D01*
X167049904Y-92357500D01*
X167145142Y-92309880D01*
X167383238Y-92309880D01*
X167526095Y-92357500D01*
X167859428Y-92309880D02*
X168097523Y-93309880D01*
X168288000Y-92595595D01*
X168478476Y-93309880D01*
X168716571Y-92309880D01*
X169621333Y-93309880D02*
X169049904Y-93309880D01*
X169335619Y-93309880D02*
X169335619Y-92309880D01*
X169240380Y-92452738D01*
X169145142Y-92547976D01*
X169049904Y-92595595D01*
X135466380Y-77149095D02*
X134466380Y-77149095D01*
X134466380Y-76911000D01*
X134514000Y-76768142D01*
X134609238Y-76672904D01*
X134704476Y-76625285D01*
X134894952Y-76577666D01*
X135037809Y-76577666D01*
X135228285Y-76625285D01*
X135323523Y-76672904D01*
X135418761Y-76768142D01*
X135466380Y-76911000D01*
X135466380Y-77149095D01*
X135466380Y-75625285D02*
X135466380Y-76196714D01*
X135466380Y-75911000D02*
X134466380Y-75911000D01*
X134609238Y-76006238D01*
X134704476Y-76101476D01*
X134752095Y-76196714D01*
X138638904Y-69624380D02*
X138638904Y-68624380D01*
X138877000Y-68624380D01*
X139019857Y-68672000D01*
X139115095Y-68767238D01*
X139162714Y-68862476D01*
X139210333Y-69052952D01*
X139210333Y-69195809D01*
X139162714Y-69386285D01*
X139115095Y-69481523D01*
X139019857Y-69576761D01*
X138877000Y-69624380D01*
X138638904Y-69624380D01*
X139591285Y-68719619D02*
X139638904Y-68672000D01*
X139734142Y-68624380D01*
X139972238Y-68624380D01*
X140067476Y-68672000D01*
X140115095Y-68719619D01*
X140162714Y-68814857D01*
X140162714Y-68910095D01*
X140115095Y-69052952D01*
X139543666Y-69624380D01*
X140162714Y-69624380D01*
X133513904Y-89690380D02*
X133513904Y-88690380D01*
X133752000Y-88690380D01*
X133894857Y-88738000D01*
X133990095Y-88833238D01*
X134037714Y-88928476D01*
X134085333Y-89118952D01*
X134085333Y-89261809D01*
X134037714Y-89452285D01*
X133990095Y-89547523D01*
X133894857Y-89642761D01*
X133752000Y-89690380D01*
X133513904Y-89690380D01*
X134418666Y-88690380D02*
X135037714Y-88690380D01*
X134704380Y-89071333D01*
X134847238Y-89071333D01*
X134942476Y-89118952D01*
X134990095Y-89166571D01*
X135037714Y-89261809D01*
X135037714Y-89499904D01*
X134990095Y-89595142D01*
X134942476Y-89642761D01*
X134847238Y-89690380D01*
X134561523Y-89690380D01*
X134466285Y-89642761D01*
X134418666Y-89595142D01*
X160358380Y-111566095D02*
X159358380Y-111566095D01*
X159358380Y-111328000D01*
X159406000Y-111185142D01*
X159501238Y-111089904D01*
X159596476Y-111042285D01*
X159786952Y-110994666D01*
X159929809Y-110994666D01*
X160120285Y-111042285D01*
X160215523Y-111089904D01*
X160310761Y-111185142D01*
X160358380Y-111328000D01*
X160358380Y-111566095D01*
X159691714Y-110137523D02*
X160358380Y-110137523D01*
X159310761Y-110375619D02*
X160025047Y-110613714D01*
X160025047Y-109994666D01*
X147912380Y-111566095D02*
X146912380Y-111566095D01*
X146912380Y-111328000D01*
X146960000Y-111185142D01*
X147055238Y-111089904D01*
X147150476Y-111042285D01*
X147340952Y-110994666D01*
X147483809Y-110994666D01*
X147674285Y-111042285D01*
X147769523Y-111089904D01*
X147864761Y-111185142D01*
X147912380Y-111328000D01*
X147912380Y-111566095D01*
X146912380Y-110089904D02*
X146912380Y-110566095D01*
X147388571Y-110613714D01*
X147340952Y-110566095D01*
X147293333Y-110470857D01*
X147293333Y-110232761D01*
X147340952Y-110137523D01*
X147388571Y-110089904D01*
X147483809Y-110042285D01*
X147721904Y-110042285D01*
X147817142Y-110089904D01*
X147864761Y-110137523D01*
X147912380Y-110232761D01*
X147912380Y-110470857D01*
X147864761Y-110566095D01*
X147817142Y-110613714D01*
X159040904Y-113312380D02*
X159040904Y-112312380D01*
X159279000Y-112312380D01*
X159421857Y-112360000D01*
X159517095Y-112455238D01*
X159564714Y-112550476D01*
X159612333Y-112740952D01*
X159612333Y-112883809D01*
X159564714Y-113074285D01*
X159517095Y-113169523D01*
X159421857Y-113264761D01*
X159279000Y-113312380D01*
X159040904Y-113312380D01*
X159945666Y-112312380D02*
X160612333Y-112312380D01*
X160183761Y-113312380D01*
X136228380Y-111566095D02*
X135228380Y-111566095D01*
X135228380Y-111328000D01*
X135276000Y-111185142D01*
X135371238Y-111089904D01*
X135466476Y-111042285D01*
X135656952Y-110994666D01*
X135799809Y-110994666D01*
X135990285Y-111042285D01*
X136085523Y-111089904D01*
X136180761Y-111185142D01*
X136228380Y-111328000D01*
X136228380Y-111566095D01*
X135656952Y-110423238D02*
X135609333Y-110518476D01*
X135561714Y-110566095D01*
X135466476Y-110613714D01*
X135418857Y-110613714D01*
X135323619Y-110566095D01*
X135276000Y-110518476D01*
X135228380Y-110423238D01*
X135228380Y-110232761D01*
X135276000Y-110137523D01*
X135323619Y-110089904D01*
X135418857Y-110042285D01*
X135466476Y-110042285D01*
X135561714Y-110089904D01*
X135609333Y-110137523D01*
X135656952Y-110232761D01*
X135656952Y-110423238D01*
X135704571Y-110518476D01*
X135752190Y-110566095D01*
X135847428Y-110613714D01*
X136037904Y-110613714D01*
X136133142Y-110566095D01*
X136180761Y-110518476D01*
X136228380Y-110423238D01*
X136228380Y-110232761D01*
X136180761Y-110137523D01*
X136133142Y-110089904D01*
X136037904Y-110042285D01*
X135847428Y-110042285D01*
X135752190Y-110089904D01*
X135704571Y-110137523D01*
X135656952Y-110232761D01*
X148473380Y-76196666D02*
X147997190Y-76530000D01*
X148473380Y-76768095D02*
X147473380Y-76768095D01*
X147473380Y-76387142D01*
X147521000Y-76291904D01*
X147568619Y-76244285D01*
X147663857Y-76196666D01*
X147806714Y-76196666D01*
X147901952Y-76244285D01*
X147949571Y-76291904D01*
X147997190Y-76387142D01*
X147997190Y-76768095D01*
X147806714Y-75339523D02*
X148473380Y-75339523D01*
X147425761Y-75577619D02*
X148140047Y-75815714D01*
X148140047Y-75196666D01*
M02*
