G04 #@! TF.GenerationSoftware,KiCad,Pcbnew,(2017-05-08 revision d4e41c4f9)-makepkg*
G04 #@! TF.CreationDate,2017-05-10T17:18:05+02:00*
G04 #@! TF.ProjectId,led_pixel,6C65645F706978656C2E6B696361645F,1.0*
G04 #@! TF.FileFunction,Copper,L2,Bot,Signal*
G04 #@! TF.FilePolarity,Positive*
%FSLAX46Y46*%
G04 Gerber Fmt 4.6, Leading zero omitted, Abs format (unit mm)*
G04 Created by KiCad (PCBNEW (2017-05-08 revision d4e41c4f9)-makepkg) date 05/10/17 17:18:05*
%MOMM*%
%LPD*%
G01*
G04 APERTURE LIST*
%ADD10C,0.100000*%
%ADD11C,0.300000*%
%ADD12C,0.010000*%
%ADD13O,2.032000X2.032000*%
%ADD14R,2.032000X2.032000*%
%ADD15O,2.032000X1.727200*%
%ADD16R,2.032000X1.727200*%
%ADD17R,1.727200X2.032000*%
%ADD18O,1.727200X2.032000*%
%ADD19C,0.800000*%
%ADD20C,1.000000*%
%ADD21C,0.500000*%
%ADD22C,0.254000*%
G04 APERTURE END LIST*
D10*
D11*
X160880171Y-67131371D02*
X160737314Y-67131371D01*
X160594457Y-67202800D01*
X160523028Y-67274228D01*
X160451600Y-67417085D01*
X160380171Y-67702800D01*
X160380171Y-68059942D01*
X160451600Y-68345657D01*
X160523028Y-68488514D01*
X160594457Y-68559942D01*
X160737314Y-68631371D01*
X160880171Y-68631371D01*
X161023028Y-68559942D01*
X161094457Y-68488514D01*
X161165885Y-68345657D01*
X161237314Y-68059942D01*
X161237314Y-67702800D01*
X161165885Y-67417085D01*
X161094457Y-67274228D01*
X161023028Y-67202800D01*
X160880171Y-67131371D01*
X159094457Y-67631371D02*
X159094457Y-68631371D01*
X159451600Y-67059942D02*
X159808742Y-68131371D01*
X158880171Y-68131371D01*
X157237314Y-67059942D02*
X158523028Y-68988514D01*
X156808742Y-67274228D02*
X156737314Y-67202800D01*
X156594457Y-67131371D01*
X156237314Y-67131371D01*
X156094457Y-67202800D01*
X156023028Y-67274228D01*
X155951600Y-67417085D01*
X155951600Y-67559942D01*
X156023028Y-67774228D01*
X156880171Y-68631371D01*
X155951600Y-68631371D01*
X155023028Y-67131371D02*
X154880171Y-67131371D01*
X154737314Y-67202800D01*
X154665885Y-67274228D01*
X154594457Y-67417085D01*
X154523028Y-67702800D01*
X154523028Y-68059942D01*
X154594457Y-68345657D01*
X154665885Y-68488514D01*
X154737314Y-68559942D01*
X154880171Y-68631371D01*
X155023028Y-68631371D01*
X155165885Y-68559942D01*
X155237314Y-68488514D01*
X155308742Y-68345657D01*
X155380171Y-68059942D01*
X155380171Y-67702800D01*
X155308742Y-67417085D01*
X155237314Y-67274228D01*
X155165885Y-67202800D01*
X155023028Y-67131371D01*
X153094457Y-68631371D02*
X153951600Y-68631371D01*
X153523028Y-68631371D02*
X153523028Y-67131371D01*
X153665885Y-67345657D01*
X153808742Y-67488514D01*
X153951600Y-67559942D01*
X152594457Y-67131371D02*
X151594457Y-67131371D01*
X152237314Y-68631371D01*
D12*
G36*
X171450256Y-91919918D02*
X171394799Y-91947568D01*
X171345852Y-91998480D01*
X171332371Y-92017338D01*
X171317686Y-92042015D01*
X171308158Y-92068816D01*
X171302707Y-92104587D01*
X171300253Y-92156169D01*
X171299714Y-92224267D01*
X171302148Y-92317588D01*
X171310606Y-92387657D01*
X171326826Y-92439931D01*
X171352546Y-92479869D01*
X171389503Y-92512929D01*
X171392218Y-92514886D01*
X171428640Y-92534908D01*
X171472498Y-92544815D01*
X171528276Y-92547257D01*
X171618952Y-92547257D01*
X171618990Y-92635283D01*
X171619834Y-92684308D01*
X171624976Y-92713065D01*
X171638413Y-92730311D01*
X171664142Y-92744808D01*
X171670321Y-92747769D01*
X171699236Y-92761648D01*
X171721624Y-92770414D01*
X171738271Y-92771171D01*
X171749964Y-92761023D01*
X171757490Y-92737073D01*
X171761634Y-92696426D01*
X171763185Y-92636186D01*
X171762929Y-92553455D01*
X171761651Y-92445339D01*
X171761252Y-92413000D01*
X171759815Y-92301524D01*
X171758528Y-92228603D01*
X171619029Y-92228603D01*
X171618245Y-92290499D01*
X171614760Y-92330997D01*
X171606876Y-92357708D01*
X171592895Y-92378244D01*
X171583403Y-92388260D01*
X171544596Y-92417567D01*
X171510237Y-92419952D01*
X171474784Y-92395750D01*
X171473886Y-92394857D01*
X171459461Y-92376153D01*
X171450687Y-92350732D01*
X171446261Y-92311584D01*
X171444882Y-92251697D01*
X171444857Y-92238430D01*
X171448188Y-92155901D01*
X171459031Y-92098691D01*
X171478660Y-92063766D01*
X171508350Y-92048094D01*
X171525509Y-92046514D01*
X171566234Y-92053926D01*
X171594168Y-92078330D01*
X171610983Y-92122980D01*
X171618350Y-92191130D01*
X171619029Y-92228603D01*
X171758528Y-92228603D01*
X171758292Y-92215245D01*
X171756323Y-92150333D01*
X171753550Y-92102958D01*
X171749612Y-92069290D01*
X171744151Y-92045498D01*
X171736808Y-92027753D01*
X171727223Y-92012224D01*
X171723113Y-92006381D01*
X171668595Y-91951185D01*
X171599664Y-91919890D01*
X171519928Y-91911165D01*
X171450256Y-91919918D01*
X171450256Y-91919918D01*
G37*
X171450256Y-91919918D02*
X171394799Y-91947568D01*
X171345852Y-91998480D01*
X171332371Y-92017338D01*
X171317686Y-92042015D01*
X171308158Y-92068816D01*
X171302707Y-92104587D01*
X171300253Y-92156169D01*
X171299714Y-92224267D01*
X171302148Y-92317588D01*
X171310606Y-92387657D01*
X171326826Y-92439931D01*
X171352546Y-92479869D01*
X171389503Y-92512929D01*
X171392218Y-92514886D01*
X171428640Y-92534908D01*
X171472498Y-92544815D01*
X171528276Y-92547257D01*
X171618952Y-92547257D01*
X171618990Y-92635283D01*
X171619834Y-92684308D01*
X171624976Y-92713065D01*
X171638413Y-92730311D01*
X171664142Y-92744808D01*
X171670321Y-92747769D01*
X171699236Y-92761648D01*
X171721624Y-92770414D01*
X171738271Y-92771171D01*
X171749964Y-92761023D01*
X171757490Y-92737073D01*
X171761634Y-92696426D01*
X171763185Y-92636186D01*
X171762929Y-92553455D01*
X171761651Y-92445339D01*
X171761252Y-92413000D01*
X171759815Y-92301524D01*
X171758528Y-92228603D01*
X171619029Y-92228603D01*
X171618245Y-92290499D01*
X171614760Y-92330997D01*
X171606876Y-92357708D01*
X171592895Y-92378244D01*
X171583403Y-92388260D01*
X171544596Y-92417567D01*
X171510237Y-92419952D01*
X171474784Y-92395750D01*
X171473886Y-92394857D01*
X171459461Y-92376153D01*
X171450687Y-92350732D01*
X171446261Y-92311584D01*
X171444882Y-92251697D01*
X171444857Y-92238430D01*
X171448188Y-92155901D01*
X171459031Y-92098691D01*
X171478660Y-92063766D01*
X171508350Y-92048094D01*
X171525509Y-92046514D01*
X171566234Y-92053926D01*
X171594168Y-92078330D01*
X171610983Y-92122980D01*
X171618350Y-92191130D01*
X171619029Y-92228603D01*
X171758528Y-92228603D01*
X171758292Y-92215245D01*
X171756323Y-92150333D01*
X171753550Y-92102958D01*
X171749612Y-92069290D01*
X171744151Y-92045498D01*
X171736808Y-92027753D01*
X171727223Y-92012224D01*
X171723113Y-92006381D01*
X171668595Y-91951185D01*
X171599664Y-91919890D01*
X171519928Y-91911165D01*
X171450256Y-91919918D01*
G36*
X170333907Y-91927780D02*
X170287328Y-91954723D01*
X170254943Y-91981466D01*
X170231258Y-92009484D01*
X170214941Y-92043748D01*
X170204661Y-92089227D01*
X170199086Y-92150892D01*
X170196884Y-92233711D01*
X170196629Y-92293246D01*
X170196629Y-92512391D01*
X170258314Y-92540044D01*
X170320000Y-92567697D01*
X170327257Y-92327670D01*
X170330256Y-92238028D01*
X170333402Y-92172962D01*
X170337299Y-92128026D01*
X170342553Y-92098770D01*
X170349769Y-92080748D01*
X170359550Y-92069511D01*
X170362688Y-92067079D01*
X170410239Y-92048083D01*
X170458303Y-92055600D01*
X170486914Y-92075543D01*
X170498553Y-92089675D01*
X170506609Y-92108220D01*
X170511729Y-92136334D01*
X170514559Y-92179173D01*
X170515744Y-92241895D01*
X170515943Y-92307261D01*
X170515982Y-92389268D01*
X170517386Y-92447316D01*
X170522086Y-92486465D01*
X170532013Y-92511780D01*
X170549097Y-92528323D01*
X170575268Y-92541156D01*
X170610225Y-92554491D01*
X170648404Y-92569007D01*
X170643859Y-92311389D01*
X170642029Y-92218519D01*
X170639888Y-92149889D01*
X170636819Y-92100711D01*
X170632206Y-92066198D01*
X170625432Y-92041562D01*
X170615881Y-92022016D01*
X170604366Y-92004770D01*
X170548810Y-91949680D01*
X170481020Y-91917822D01*
X170407287Y-91910191D01*
X170333907Y-91927780D01*
X170333907Y-91927780D01*
G37*
X170333907Y-91927780D02*
X170287328Y-91954723D01*
X170254943Y-91981466D01*
X170231258Y-92009484D01*
X170214941Y-92043748D01*
X170204661Y-92089227D01*
X170199086Y-92150892D01*
X170196884Y-92233711D01*
X170196629Y-92293246D01*
X170196629Y-92512391D01*
X170258314Y-92540044D01*
X170320000Y-92567697D01*
X170327257Y-92327670D01*
X170330256Y-92238028D01*
X170333402Y-92172962D01*
X170337299Y-92128026D01*
X170342553Y-92098770D01*
X170349769Y-92080748D01*
X170359550Y-92069511D01*
X170362688Y-92067079D01*
X170410239Y-92048083D01*
X170458303Y-92055600D01*
X170486914Y-92075543D01*
X170498553Y-92089675D01*
X170506609Y-92108220D01*
X170511729Y-92136334D01*
X170514559Y-92179173D01*
X170515744Y-92241895D01*
X170515943Y-92307261D01*
X170515982Y-92389268D01*
X170517386Y-92447316D01*
X170522086Y-92486465D01*
X170532013Y-92511780D01*
X170549097Y-92528323D01*
X170575268Y-92541156D01*
X170610225Y-92554491D01*
X170648404Y-92569007D01*
X170643859Y-92311389D01*
X170642029Y-92218519D01*
X170639888Y-92149889D01*
X170636819Y-92100711D01*
X170632206Y-92066198D01*
X170625432Y-92041562D01*
X170615881Y-92022016D01*
X170604366Y-92004770D01*
X170548810Y-91949680D01*
X170481020Y-91917822D01*
X170407287Y-91910191D01*
X170333907Y-91927780D01*
G36*
X172008885Y-91921962D02*
X171940855Y-91957733D01*
X171890649Y-92015301D01*
X171872815Y-92052312D01*
X171858937Y-92107882D01*
X171851833Y-92178096D01*
X171851160Y-92254727D01*
X171856573Y-92329552D01*
X171867730Y-92394342D01*
X171884286Y-92440873D01*
X171889374Y-92448887D01*
X171949645Y-92508707D01*
X172021231Y-92544535D01*
X172098908Y-92555020D01*
X172177452Y-92538810D01*
X172199311Y-92529092D01*
X172241878Y-92499143D01*
X172279237Y-92459433D01*
X172282768Y-92454397D01*
X172297119Y-92430124D01*
X172306606Y-92404178D01*
X172312210Y-92370022D01*
X172314914Y-92321119D01*
X172315701Y-92250935D01*
X172315714Y-92235200D01*
X172315678Y-92230192D01*
X172170571Y-92230192D01*
X172169727Y-92296430D01*
X172166404Y-92340386D01*
X172159417Y-92368779D01*
X172147584Y-92388325D01*
X172141543Y-92394857D01*
X172106814Y-92419680D01*
X172073097Y-92418548D01*
X172039005Y-92397016D01*
X172018671Y-92374029D01*
X172006629Y-92340478D01*
X171999866Y-92287569D01*
X171999402Y-92281399D01*
X171998248Y-92185513D01*
X172010312Y-92114299D01*
X172035430Y-92068194D01*
X172073440Y-92047635D01*
X172087008Y-92046514D01*
X172122636Y-92052152D01*
X172147006Y-92071686D01*
X172161907Y-92109042D01*
X172169125Y-92168150D01*
X172170571Y-92230192D01*
X172315678Y-92230192D01*
X172315174Y-92160413D01*
X172312904Y-92108159D01*
X172307932Y-92071949D01*
X172299287Y-92045299D01*
X172285995Y-92021722D01*
X172283057Y-92017338D01*
X172233687Y-91958249D01*
X172179891Y-91923947D01*
X172114398Y-91910331D01*
X172092158Y-91909665D01*
X172008885Y-91921962D01*
X172008885Y-91921962D01*
G37*
X172008885Y-91921962D02*
X171940855Y-91957733D01*
X171890649Y-92015301D01*
X171872815Y-92052312D01*
X171858937Y-92107882D01*
X171851833Y-92178096D01*
X171851160Y-92254727D01*
X171856573Y-92329552D01*
X171867730Y-92394342D01*
X171884286Y-92440873D01*
X171889374Y-92448887D01*
X171949645Y-92508707D01*
X172021231Y-92544535D01*
X172098908Y-92555020D01*
X172177452Y-92538810D01*
X172199311Y-92529092D01*
X172241878Y-92499143D01*
X172279237Y-92459433D01*
X172282768Y-92454397D01*
X172297119Y-92430124D01*
X172306606Y-92404178D01*
X172312210Y-92370022D01*
X172314914Y-92321119D01*
X172315701Y-92250935D01*
X172315714Y-92235200D01*
X172315678Y-92230192D01*
X172170571Y-92230192D01*
X172169727Y-92296430D01*
X172166404Y-92340386D01*
X172159417Y-92368779D01*
X172147584Y-92388325D01*
X172141543Y-92394857D01*
X172106814Y-92419680D01*
X172073097Y-92418548D01*
X172039005Y-92397016D01*
X172018671Y-92374029D01*
X172006629Y-92340478D01*
X171999866Y-92287569D01*
X171999402Y-92281399D01*
X171998248Y-92185513D01*
X172010312Y-92114299D01*
X172035430Y-92068194D01*
X172073440Y-92047635D01*
X172087008Y-92046514D01*
X172122636Y-92052152D01*
X172147006Y-92071686D01*
X172161907Y-92109042D01*
X172169125Y-92168150D01*
X172170571Y-92230192D01*
X172315678Y-92230192D01*
X172315174Y-92160413D01*
X172312904Y-92108159D01*
X172307932Y-92071949D01*
X172299287Y-92045299D01*
X172285995Y-92021722D01*
X172283057Y-92017338D01*
X172233687Y-91958249D01*
X172179891Y-91923947D01*
X172114398Y-91910331D01*
X172092158Y-91909665D01*
X172008885Y-91921962D01*
G36*
X170881697Y-91931239D02*
X170824473Y-91969735D01*
X170780251Y-92025335D01*
X170753833Y-92096086D01*
X170748490Y-92148162D01*
X170749097Y-92169893D01*
X170754178Y-92186531D01*
X170768145Y-92201437D01*
X170795411Y-92217973D01*
X170840388Y-92239498D01*
X170907489Y-92269374D01*
X170907829Y-92269524D01*
X170969593Y-92297813D01*
X171020241Y-92322933D01*
X171054596Y-92342179D01*
X171067482Y-92352848D01*
X171067486Y-92352934D01*
X171056128Y-92376166D01*
X171029569Y-92401774D01*
X170999077Y-92420221D01*
X170983630Y-92423886D01*
X170941485Y-92411212D01*
X170905192Y-92379471D01*
X170887483Y-92344572D01*
X170870448Y-92318845D01*
X170837078Y-92289546D01*
X170797851Y-92264235D01*
X170763244Y-92250471D01*
X170756007Y-92249714D01*
X170747861Y-92262160D01*
X170747370Y-92293972D01*
X170753357Y-92336866D01*
X170764643Y-92382558D01*
X170780050Y-92422761D01*
X170780829Y-92424322D01*
X170827196Y-92489062D01*
X170887289Y-92533097D01*
X170955535Y-92554711D01*
X171026362Y-92552185D01*
X171094196Y-92523804D01*
X171097212Y-92521808D01*
X171150573Y-92473448D01*
X171185660Y-92410352D01*
X171205078Y-92327387D01*
X171207684Y-92304078D01*
X171212299Y-92194055D01*
X171206767Y-92142748D01*
X171067486Y-92142748D01*
X171065676Y-92174753D01*
X171055778Y-92184093D01*
X171031102Y-92177105D01*
X170992205Y-92160587D01*
X170948725Y-92139881D01*
X170947644Y-92139333D01*
X170910791Y-92119949D01*
X170896000Y-92107013D01*
X170899647Y-92093451D01*
X170915005Y-92075632D01*
X170954077Y-92049845D01*
X170996154Y-92047950D01*
X171033897Y-92066717D01*
X171059966Y-92102915D01*
X171067486Y-92142748D01*
X171206767Y-92142748D01*
X171202806Y-92106027D01*
X171178450Y-92036212D01*
X171144544Y-91987302D01*
X171083347Y-91937878D01*
X171015937Y-91913359D01*
X170947120Y-91911797D01*
X170881697Y-91931239D01*
X170881697Y-91931239D01*
G37*
X170881697Y-91931239D02*
X170824473Y-91969735D01*
X170780251Y-92025335D01*
X170753833Y-92096086D01*
X170748490Y-92148162D01*
X170749097Y-92169893D01*
X170754178Y-92186531D01*
X170768145Y-92201437D01*
X170795411Y-92217973D01*
X170840388Y-92239498D01*
X170907489Y-92269374D01*
X170907829Y-92269524D01*
X170969593Y-92297813D01*
X171020241Y-92322933D01*
X171054596Y-92342179D01*
X171067482Y-92352848D01*
X171067486Y-92352934D01*
X171056128Y-92376166D01*
X171029569Y-92401774D01*
X170999077Y-92420221D01*
X170983630Y-92423886D01*
X170941485Y-92411212D01*
X170905192Y-92379471D01*
X170887483Y-92344572D01*
X170870448Y-92318845D01*
X170837078Y-92289546D01*
X170797851Y-92264235D01*
X170763244Y-92250471D01*
X170756007Y-92249714D01*
X170747861Y-92262160D01*
X170747370Y-92293972D01*
X170753357Y-92336866D01*
X170764643Y-92382558D01*
X170780050Y-92422761D01*
X170780829Y-92424322D01*
X170827196Y-92489062D01*
X170887289Y-92533097D01*
X170955535Y-92554711D01*
X171026362Y-92552185D01*
X171094196Y-92523804D01*
X171097212Y-92521808D01*
X171150573Y-92473448D01*
X171185660Y-92410352D01*
X171205078Y-92327387D01*
X171207684Y-92304078D01*
X171212299Y-92194055D01*
X171206767Y-92142748D01*
X171067486Y-92142748D01*
X171065676Y-92174753D01*
X171055778Y-92184093D01*
X171031102Y-92177105D01*
X170992205Y-92160587D01*
X170948725Y-92139881D01*
X170947644Y-92139333D01*
X170910791Y-92119949D01*
X170896000Y-92107013D01*
X170899647Y-92093451D01*
X170915005Y-92075632D01*
X170954077Y-92049845D01*
X170996154Y-92047950D01*
X171033897Y-92066717D01*
X171059966Y-92102915D01*
X171067486Y-92142748D01*
X171206767Y-92142748D01*
X171202806Y-92106027D01*
X171178450Y-92036212D01*
X171144544Y-91987302D01*
X171083347Y-91937878D01*
X171015937Y-91913359D01*
X170947120Y-91911797D01*
X170881697Y-91931239D01*
G36*
X169674114Y-91851289D02*
X169669861Y-91910613D01*
X169664975Y-91945572D01*
X169658205Y-91960820D01*
X169648298Y-91961015D01*
X169645086Y-91959195D01*
X169602356Y-91946015D01*
X169546773Y-91946785D01*
X169490263Y-91960333D01*
X169454918Y-91977861D01*
X169418679Y-92005861D01*
X169392187Y-92037549D01*
X169374001Y-92077813D01*
X169362678Y-92131543D01*
X169356778Y-92203626D01*
X169354857Y-92298951D01*
X169354823Y-92317237D01*
X169354800Y-92522646D01*
X169400509Y-92538580D01*
X169432973Y-92549420D01*
X169450785Y-92554468D01*
X169451309Y-92554514D01*
X169453063Y-92540828D01*
X169454556Y-92503076D01*
X169455674Y-92446224D01*
X169456303Y-92375234D01*
X169456400Y-92332073D01*
X169456602Y-92246973D01*
X169457642Y-92185981D01*
X169460169Y-92144177D01*
X169464836Y-92116642D01*
X169472293Y-92098456D01*
X169483189Y-92084698D01*
X169489993Y-92078073D01*
X169536728Y-92051375D01*
X169587728Y-92049375D01*
X169633999Y-92071955D01*
X169642556Y-92080107D01*
X169655107Y-92095436D01*
X169663812Y-92113618D01*
X169669369Y-92139909D01*
X169672474Y-92179562D01*
X169673824Y-92237832D01*
X169674114Y-92318173D01*
X169674114Y-92522646D01*
X169719823Y-92538580D01*
X169752287Y-92549420D01*
X169770099Y-92554468D01*
X169770623Y-92554514D01*
X169771963Y-92540623D01*
X169773172Y-92501439D01*
X169774199Y-92440700D01*
X169774998Y-92362141D01*
X169775519Y-92269498D01*
X169775714Y-92166509D01*
X169775714Y-91769342D01*
X169728543Y-91749444D01*
X169681371Y-91729547D01*
X169674114Y-91851289D01*
X169674114Y-91851289D01*
G37*
X169674114Y-91851289D02*
X169669861Y-91910613D01*
X169664975Y-91945572D01*
X169658205Y-91960820D01*
X169648298Y-91961015D01*
X169645086Y-91959195D01*
X169602356Y-91946015D01*
X169546773Y-91946785D01*
X169490263Y-91960333D01*
X169454918Y-91977861D01*
X169418679Y-92005861D01*
X169392187Y-92037549D01*
X169374001Y-92077813D01*
X169362678Y-92131543D01*
X169356778Y-92203626D01*
X169354857Y-92298951D01*
X169354823Y-92317237D01*
X169354800Y-92522646D01*
X169400509Y-92538580D01*
X169432973Y-92549420D01*
X169450785Y-92554468D01*
X169451309Y-92554514D01*
X169453063Y-92540828D01*
X169454556Y-92503076D01*
X169455674Y-92446224D01*
X169456303Y-92375234D01*
X169456400Y-92332073D01*
X169456602Y-92246973D01*
X169457642Y-92185981D01*
X169460169Y-92144177D01*
X169464836Y-92116642D01*
X169472293Y-92098456D01*
X169483189Y-92084698D01*
X169489993Y-92078073D01*
X169536728Y-92051375D01*
X169587728Y-92049375D01*
X169633999Y-92071955D01*
X169642556Y-92080107D01*
X169655107Y-92095436D01*
X169663812Y-92113618D01*
X169669369Y-92139909D01*
X169672474Y-92179562D01*
X169673824Y-92237832D01*
X169674114Y-92318173D01*
X169674114Y-92522646D01*
X169719823Y-92538580D01*
X169752287Y-92549420D01*
X169770099Y-92554468D01*
X169770623Y-92554514D01*
X169771963Y-92540623D01*
X169773172Y-92501439D01*
X169774199Y-92440700D01*
X169774998Y-92362141D01*
X169775519Y-92269498D01*
X169775714Y-92166509D01*
X169775714Y-91769342D01*
X169728543Y-91749444D01*
X169681371Y-91729547D01*
X169674114Y-91851289D01*
G36*
X169010256Y-91950968D02*
X168953384Y-91972087D01*
X168952733Y-91972493D01*
X168917560Y-91998380D01*
X168891593Y-92028633D01*
X168873330Y-92068058D01*
X168861268Y-92121462D01*
X168853904Y-92193651D01*
X168849736Y-92289432D01*
X168849371Y-92303078D01*
X168844124Y-92508842D01*
X168888284Y-92531678D01*
X168920237Y-92547110D01*
X168939530Y-92554423D01*
X168940422Y-92554514D01*
X168943761Y-92541022D01*
X168946413Y-92504626D01*
X168948044Y-92451452D01*
X168948400Y-92408393D01*
X168948408Y-92338641D01*
X168951597Y-92294837D01*
X168962712Y-92273944D01*
X168986499Y-92272925D01*
X169027704Y-92288741D01*
X169089914Y-92317815D01*
X169135659Y-92341963D01*
X169159187Y-92362913D01*
X169166104Y-92385747D01*
X169166114Y-92386877D01*
X169154701Y-92426212D01*
X169120908Y-92447462D01*
X169069191Y-92450539D01*
X169031939Y-92450006D01*
X169012297Y-92460735D01*
X169000048Y-92486505D01*
X168992998Y-92519337D01*
X169003158Y-92537966D01*
X169006983Y-92540632D01*
X169042999Y-92551340D01*
X169093434Y-92552856D01*
X169145374Y-92545759D01*
X169182178Y-92532788D01*
X169233062Y-92489585D01*
X169261986Y-92429446D01*
X169267714Y-92382462D01*
X169263343Y-92340082D01*
X169247525Y-92305488D01*
X169216203Y-92274763D01*
X169165322Y-92243990D01*
X169090824Y-92209252D01*
X169086286Y-92207288D01*
X169019179Y-92176287D01*
X168977768Y-92150862D01*
X168960019Y-92128014D01*
X168963893Y-92104745D01*
X168987357Y-92078056D01*
X168994373Y-92071914D01*
X169041370Y-92048100D01*
X169090067Y-92049103D01*
X169132478Y-92072451D01*
X169160616Y-92115675D01*
X169163231Y-92124160D01*
X169188692Y-92165308D01*
X169220999Y-92185128D01*
X169267714Y-92204770D01*
X169267714Y-92153950D01*
X169253504Y-92080082D01*
X169211325Y-92012327D01*
X169189376Y-91989661D01*
X169139483Y-91960569D01*
X169076033Y-91947400D01*
X169010256Y-91950968D01*
X169010256Y-91950968D01*
G37*
X169010256Y-91950968D02*
X168953384Y-91972087D01*
X168952733Y-91972493D01*
X168917560Y-91998380D01*
X168891593Y-92028633D01*
X168873330Y-92068058D01*
X168861268Y-92121462D01*
X168853904Y-92193651D01*
X168849736Y-92289432D01*
X168849371Y-92303078D01*
X168844124Y-92508842D01*
X168888284Y-92531678D01*
X168920237Y-92547110D01*
X168939530Y-92554423D01*
X168940422Y-92554514D01*
X168943761Y-92541022D01*
X168946413Y-92504626D01*
X168948044Y-92451452D01*
X168948400Y-92408393D01*
X168948408Y-92338641D01*
X168951597Y-92294837D01*
X168962712Y-92273944D01*
X168986499Y-92272925D01*
X169027704Y-92288741D01*
X169089914Y-92317815D01*
X169135659Y-92341963D01*
X169159187Y-92362913D01*
X169166104Y-92385747D01*
X169166114Y-92386877D01*
X169154701Y-92426212D01*
X169120908Y-92447462D01*
X169069191Y-92450539D01*
X169031939Y-92450006D01*
X169012297Y-92460735D01*
X169000048Y-92486505D01*
X168992998Y-92519337D01*
X169003158Y-92537966D01*
X169006983Y-92540632D01*
X169042999Y-92551340D01*
X169093434Y-92552856D01*
X169145374Y-92545759D01*
X169182178Y-92532788D01*
X169233062Y-92489585D01*
X169261986Y-92429446D01*
X169267714Y-92382462D01*
X169263343Y-92340082D01*
X169247525Y-92305488D01*
X169216203Y-92274763D01*
X169165322Y-92243990D01*
X169090824Y-92209252D01*
X169086286Y-92207288D01*
X169019179Y-92176287D01*
X168977768Y-92150862D01*
X168960019Y-92128014D01*
X168963893Y-92104745D01*
X168987357Y-92078056D01*
X168994373Y-92071914D01*
X169041370Y-92048100D01*
X169090067Y-92049103D01*
X169132478Y-92072451D01*
X169160616Y-92115675D01*
X169163231Y-92124160D01*
X169188692Y-92165308D01*
X169220999Y-92185128D01*
X169267714Y-92204770D01*
X169267714Y-92153950D01*
X169253504Y-92080082D01*
X169211325Y-92012327D01*
X169189376Y-91989661D01*
X169139483Y-91960569D01*
X169076033Y-91947400D01*
X169010256Y-91950968D01*
G36*
X168520074Y-91949755D02*
X168454142Y-91974084D01*
X168400727Y-92017117D01*
X168379836Y-92047409D01*
X168357061Y-92102994D01*
X168357534Y-92143186D01*
X168381438Y-92170217D01*
X168390283Y-92174813D01*
X168428470Y-92189144D01*
X168447972Y-92185472D01*
X168454578Y-92161407D01*
X168454914Y-92148114D01*
X168467008Y-92099210D01*
X168498529Y-92064999D01*
X168542341Y-92048476D01*
X168591305Y-92052634D01*
X168631106Y-92074227D01*
X168644550Y-92086544D01*
X168654079Y-92101487D01*
X168660515Y-92124075D01*
X168664683Y-92159328D01*
X168667403Y-92212266D01*
X168669498Y-92287907D01*
X168670040Y-92311857D01*
X168672019Y-92393790D01*
X168674269Y-92451455D01*
X168677643Y-92489608D01*
X168682994Y-92513004D01*
X168691176Y-92526398D01*
X168703041Y-92534545D01*
X168710638Y-92538144D01*
X168742898Y-92550452D01*
X168761889Y-92554514D01*
X168768164Y-92540948D01*
X168771994Y-92499934D01*
X168773400Y-92430999D01*
X168772402Y-92333669D01*
X168772092Y-92318657D01*
X168769899Y-92229859D01*
X168767307Y-92165019D01*
X168763618Y-92119067D01*
X168758136Y-92086935D01*
X168750165Y-92063553D01*
X168739007Y-92043852D01*
X168733170Y-92035410D01*
X168699704Y-91998057D01*
X168662273Y-91969003D01*
X168657691Y-91966467D01*
X168590574Y-91946443D01*
X168520074Y-91949755D01*
X168520074Y-91949755D01*
G37*
X168520074Y-91949755D02*
X168454142Y-91974084D01*
X168400727Y-92017117D01*
X168379836Y-92047409D01*
X168357061Y-92102994D01*
X168357534Y-92143186D01*
X168381438Y-92170217D01*
X168390283Y-92174813D01*
X168428470Y-92189144D01*
X168447972Y-92185472D01*
X168454578Y-92161407D01*
X168454914Y-92148114D01*
X168467008Y-92099210D01*
X168498529Y-92064999D01*
X168542341Y-92048476D01*
X168591305Y-92052634D01*
X168631106Y-92074227D01*
X168644550Y-92086544D01*
X168654079Y-92101487D01*
X168660515Y-92124075D01*
X168664683Y-92159328D01*
X168667403Y-92212266D01*
X168669498Y-92287907D01*
X168670040Y-92311857D01*
X168672019Y-92393790D01*
X168674269Y-92451455D01*
X168677643Y-92489608D01*
X168682994Y-92513004D01*
X168691176Y-92526398D01*
X168703041Y-92534545D01*
X168710638Y-92538144D01*
X168742898Y-92550452D01*
X168761889Y-92554514D01*
X168768164Y-92540948D01*
X168771994Y-92499934D01*
X168773400Y-92430999D01*
X168772402Y-92333669D01*
X168772092Y-92318657D01*
X168769899Y-92229859D01*
X168767307Y-92165019D01*
X168763618Y-92119067D01*
X168758136Y-92086935D01*
X168750165Y-92063553D01*
X168739007Y-92043852D01*
X168733170Y-92035410D01*
X168699704Y-91998057D01*
X168662273Y-91969003D01*
X168657691Y-91966467D01*
X168590574Y-91946443D01*
X168520074Y-91949755D01*
G36*
X167859883Y-92065358D02*
X167860067Y-92173837D01*
X167860781Y-92257287D01*
X167862325Y-92319704D01*
X167864999Y-92365085D01*
X167869106Y-92397429D01*
X167874945Y-92420733D01*
X167882818Y-92438995D01*
X167888779Y-92449418D01*
X167938145Y-92505945D01*
X168000736Y-92541377D01*
X168069987Y-92554090D01*
X168139332Y-92542463D01*
X168180625Y-92521568D01*
X168223975Y-92485422D01*
X168253519Y-92441276D01*
X168271345Y-92383462D01*
X168279537Y-92306313D01*
X168280698Y-92249714D01*
X168280542Y-92245647D01*
X168179143Y-92245647D01*
X168178524Y-92310550D01*
X168175686Y-92353514D01*
X168169160Y-92381622D01*
X168157477Y-92401953D01*
X168143517Y-92417288D01*
X168096635Y-92446890D01*
X168046299Y-92449419D01*
X167998724Y-92424705D01*
X167995021Y-92421356D01*
X167979217Y-92403935D01*
X167969307Y-92383209D01*
X167963942Y-92352362D01*
X167961772Y-92304577D01*
X167961429Y-92251748D01*
X167962173Y-92185381D01*
X167965252Y-92141106D01*
X167971939Y-92112009D01*
X167983504Y-92091173D01*
X167992987Y-92080107D01*
X168037040Y-92052198D01*
X168087776Y-92048843D01*
X168136204Y-92070159D01*
X168145550Y-92078073D01*
X168161460Y-92095647D01*
X168171390Y-92116587D01*
X168176722Y-92147782D01*
X168178837Y-92196122D01*
X168179143Y-92245647D01*
X168280542Y-92245647D01*
X168277190Y-92158568D01*
X168265274Y-92090086D01*
X168242865Y-92038600D01*
X168207876Y-91998443D01*
X168180625Y-91977861D01*
X168131093Y-91955625D01*
X168073684Y-91945304D01*
X168020318Y-91948067D01*
X167990457Y-91959212D01*
X167978739Y-91962383D01*
X167970963Y-91950557D01*
X167965535Y-91918866D01*
X167961429Y-91870593D01*
X167956933Y-91816829D01*
X167950687Y-91784482D01*
X167939324Y-91765985D01*
X167919472Y-91753770D01*
X167907000Y-91748362D01*
X167859829Y-91728601D01*
X167859883Y-92065358D01*
X167859883Y-92065358D01*
G37*
X167859883Y-92065358D02*
X167860067Y-92173837D01*
X167860781Y-92257287D01*
X167862325Y-92319704D01*
X167864999Y-92365085D01*
X167869106Y-92397429D01*
X167874945Y-92420733D01*
X167882818Y-92438995D01*
X167888779Y-92449418D01*
X167938145Y-92505945D01*
X168000736Y-92541377D01*
X168069987Y-92554090D01*
X168139332Y-92542463D01*
X168180625Y-92521568D01*
X168223975Y-92485422D01*
X168253519Y-92441276D01*
X168271345Y-92383462D01*
X168279537Y-92306313D01*
X168280698Y-92249714D01*
X168280542Y-92245647D01*
X168179143Y-92245647D01*
X168178524Y-92310550D01*
X168175686Y-92353514D01*
X168169160Y-92381622D01*
X168157477Y-92401953D01*
X168143517Y-92417288D01*
X168096635Y-92446890D01*
X168046299Y-92449419D01*
X167998724Y-92424705D01*
X167995021Y-92421356D01*
X167979217Y-92403935D01*
X167969307Y-92383209D01*
X167963942Y-92352362D01*
X167961772Y-92304577D01*
X167961429Y-92251748D01*
X167962173Y-92185381D01*
X167965252Y-92141106D01*
X167971939Y-92112009D01*
X167983504Y-92091173D01*
X167992987Y-92080107D01*
X168037040Y-92052198D01*
X168087776Y-92048843D01*
X168136204Y-92070159D01*
X168145550Y-92078073D01*
X168161460Y-92095647D01*
X168171390Y-92116587D01*
X168176722Y-92147782D01*
X168178837Y-92196122D01*
X168179143Y-92245647D01*
X168280542Y-92245647D01*
X168277190Y-92158568D01*
X168265274Y-92090086D01*
X168242865Y-92038600D01*
X168207876Y-91998443D01*
X168180625Y-91977861D01*
X168131093Y-91955625D01*
X168073684Y-91945304D01*
X168020318Y-91948067D01*
X167990457Y-91959212D01*
X167978739Y-91962383D01*
X167970963Y-91950557D01*
X167965535Y-91918866D01*
X167961429Y-91870593D01*
X167956933Y-91816829D01*
X167950687Y-91784482D01*
X167939324Y-91765985D01*
X167919472Y-91753770D01*
X167907000Y-91748362D01*
X167859829Y-91728601D01*
X167859883Y-92065358D01*
G36*
X167270167Y-91958663D02*
X167267952Y-91996850D01*
X167266216Y-92054886D01*
X167265101Y-92128180D01*
X167264743Y-92205055D01*
X167264743Y-92465196D01*
X167310674Y-92511127D01*
X167342325Y-92539429D01*
X167370110Y-92550893D01*
X167408085Y-92550168D01*
X167423160Y-92548321D01*
X167470274Y-92542948D01*
X167509244Y-92539869D01*
X167518743Y-92539585D01*
X167550767Y-92541445D01*
X167596568Y-92546114D01*
X167614326Y-92548321D01*
X167657943Y-92551735D01*
X167687255Y-92544320D01*
X167716320Y-92521427D01*
X167726812Y-92511127D01*
X167772743Y-92465196D01*
X167772743Y-91978602D01*
X167735774Y-91961758D01*
X167703941Y-91949282D01*
X167685317Y-91944914D01*
X167680542Y-91958718D01*
X167676079Y-91997286D01*
X167672225Y-92056356D01*
X167669278Y-92131663D01*
X167667857Y-92195286D01*
X167663886Y-92445657D01*
X167629241Y-92450556D01*
X167597732Y-92447131D01*
X167582292Y-92436041D01*
X167577977Y-92415308D01*
X167574292Y-92371145D01*
X167571531Y-92309146D01*
X167569988Y-92234909D01*
X167569765Y-92196706D01*
X167569543Y-91976783D01*
X167523834Y-91960849D01*
X167491482Y-91950015D01*
X167473885Y-91944962D01*
X167473377Y-91944914D01*
X167471612Y-91958648D01*
X167469671Y-91996730D01*
X167467718Y-92054482D01*
X167465916Y-92127227D01*
X167464657Y-92195286D01*
X167460686Y-92445657D01*
X167373600Y-92445657D01*
X167369604Y-92217240D01*
X167365608Y-91988822D01*
X167323153Y-91966868D01*
X167291808Y-91951793D01*
X167273256Y-91944951D01*
X167272721Y-91944914D01*
X167270167Y-91958663D01*
X167270167Y-91958663D01*
G37*
X167270167Y-91958663D02*
X167267952Y-91996850D01*
X167266216Y-92054886D01*
X167265101Y-92128180D01*
X167264743Y-92205055D01*
X167264743Y-92465196D01*
X167310674Y-92511127D01*
X167342325Y-92539429D01*
X167370110Y-92550893D01*
X167408085Y-92550168D01*
X167423160Y-92548321D01*
X167470274Y-92542948D01*
X167509244Y-92539869D01*
X167518743Y-92539585D01*
X167550767Y-92541445D01*
X167596568Y-92546114D01*
X167614326Y-92548321D01*
X167657943Y-92551735D01*
X167687255Y-92544320D01*
X167716320Y-92521427D01*
X167726812Y-92511127D01*
X167772743Y-92465196D01*
X167772743Y-91978602D01*
X167735774Y-91961758D01*
X167703941Y-91949282D01*
X167685317Y-91944914D01*
X167680542Y-91958718D01*
X167676079Y-91997286D01*
X167672225Y-92056356D01*
X167669278Y-92131663D01*
X167667857Y-92195286D01*
X167663886Y-92445657D01*
X167629241Y-92450556D01*
X167597732Y-92447131D01*
X167582292Y-92436041D01*
X167577977Y-92415308D01*
X167574292Y-92371145D01*
X167571531Y-92309146D01*
X167569988Y-92234909D01*
X167569765Y-92196706D01*
X167569543Y-91976783D01*
X167523834Y-91960849D01*
X167491482Y-91950015D01*
X167473885Y-91944962D01*
X167473377Y-91944914D01*
X167471612Y-91958648D01*
X167469671Y-91996730D01*
X167467718Y-92054482D01*
X167465916Y-92127227D01*
X167464657Y-92195286D01*
X167460686Y-92445657D01*
X167373600Y-92445657D01*
X167369604Y-92217240D01*
X167365608Y-91988822D01*
X167323153Y-91966868D01*
X167291808Y-91951793D01*
X167273256Y-91944951D01*
X167272721Y-91944914D01*
X167270167Y-91958663D01*
G36*
X166905124Y-91956335D02*
X166863333Y-91975344D01*
X166830531Y-91998378D01*
X166806497Y-92024133D01*
X166789903Y-92057358D01*
X166779423Y-92102800D01*
X166773729Y-92165207D01*
X166771493Y-92249327D01*
X166771257Y-92304721D01*
X166771257Y-92520826D01*
X166808226Y-92537670D01*
X166837344Y-92549981D01*
X166851769Y-92554514D01*
X166854528Y-92541025D01*
X166856718Y-92504653D01*
X166858058Y-92451542D01*
X166858343Y-92409372D01*
X166859566Y-92348447D01*
X166862864Y-92300115D01*
X166867679Y-92270518D01*
X166871504Y-92264229D01*
X166897217Y-92270652D01*
X166937582Y-92287125D01*
X166984321Y-92309458D01*
X167029155Y-92333457D01*
X167063807Y-92354930D01*
X167079998Y-92369685D01*
X167080062Y-92369845D01*
X167078670Y-92397152D01*
X167066182Y-92423219D01*
X167044257Y-92444392D01*
X167012257Y-92451474D01*
X166984908Y-92450649D01*
X166946174Y-92450042D01*
X166925842Y-92459116D01*
X166913631Y-92483092D01*
X166912091Y-92487613D01*
X166906797Y-92521806D01*
X166920953Y-92542568D01*
X166957852Y-92552462D01*
X166997711Y-92554292D01*
X167069438Y-92540727D01*
X167106568Y-92521355D01*
X167152424Y-92475845D01*
X167176744Y-92419983D01*
X167178927Y-92360957D01*
X167158371Y-92305953D01*
X167127451Y-92271486D01*
X167096580Y-92252189D01*
X167048058Y-92227759D01*
X166991515Y-92202985D01*
X166982090Y-92199199D01*
X166919981Y-92171791D01*
X166884178Y-92147634D01*
X166872663Y-92123619D01*
X166883420Y-92096635D01*
X166901886Y-92075543D01*
X166945531Y-92049572D01*
X166993554Y-92047624D01*
X167037594Y-92067637D01*
X167069291Y-92107551D01*
X167073451Y-92117848D01*
X167097673Y-92155724D01*
X167133035Y-92183842D01*
X167177657Y-92206917D01*
X167177657Y-92141485D01*
X167175031Y-92101506D01*
X167163770Y-92069997D01*
X167138801Y-92036378D01*
X167114831Y-92010484D01*
X167077559Y-91973817D01*
X167048599Y-91954121D01*
X167017495Y-91946220D01*
X166982287Y-91944914D01*
X166905124Y-91956335D01*
X166905124Y-91956335D01*
G37*
X166905124Y-91956335D02*
X166863333Y-91975344D01*
X166830531Y-91998378D01*
X166806497Y-92024133D01*
X166789903Y-92057358D01*
X166779423Y-92102800D01*
X166773729Y-92165207D01*
X166771493Y-92249327D01*
X166771257Y-92304721D01*
X166771257Y-92520826D01*
X166808226Y-92537670D01*
X166837344Y-92549981D01*
X166851769Y-92554514D01*
X166854528Y-92541025D01*
X166856718Y-92504653D01*
X166858058Y-92451542D01*
X166858343Y-92409372D01*
X166859566Y-92348447D01*
X166862864Y-92300115D01*
X166867679Y-92270518D01*
X166871504Y-92264229D01*
X166897217Y-92270652D01*
X166937582Y-92287125D01*
X166984321Y-92309458D01*
X167029155Y-92333457D01*
X167063807Y-92354930D01*
X167079998Y-92369685D01*
X167080062Y-92369845D01*
X167078670Y-92397152D01*
X167066182Y-92423219D01*
X167044257Y-92444392D01*
X167012257Y-92451474D01*
X166984908Y-92450649D01*
X166946174Y-92450042D01*
X166925842Y-92459116D01*
X166913631Y-92483092D01*
X166912091Y-92487613D01*
X166906797Y-92521806D01*
X166920953Y-92542568D01*
X166957852Y-92552462D01*
X166997711Y-92554292D01*
X167069438Y-92540727D01*
X167106568Y-92521355D01*
X167152424Y-92475845D01*
X167176744Y-92419983D01*
X167178927Y-92360957D01*
X167158371Y-92305953D01*
X167127451Y-92271486D01*
X167096580Y-92252189D01*
X167048058Y-92227759D01*
X166991515Y-92202985D01*
X166982090Y-92199199D01*
X166919981Y-92171791D01*
X166884178Y-92147634D01*
X166872663Y-92123619D01*
X166883420Y-92096635D01*
X166901886Y-92075543D01*
X166945531Y-92049572D01*
X166993554Y-92047624D01*
X167037594Y-92067637D01*
X167069291Y-92107551D01*
X167073451Y-92117848D01*
X167097673Y-92155724D01*
X167133035Y-92183842D01*
X167177657Y-92206917D01*
X167177657Y-92141485D01*
X167175031Y-92101506D01*
X167163770Y-92069997D01*
X167138801Y-92036378D01*
X167114831Y-92010484D01*
X167077559Y-91973817D01*
X167048599Y-91954121D01*
X167017495Y-91946220D01*
X166982287Y-91944914D01*
X166905124Y-91956335D01*
G36*
X166397400Y-91958752D02*
X166380052Y-91966334D01*
X166338644Y-91999128D01*
X166303235Y-92046547D01*
X166281336Y-92097151D01*
X166277771Y-92122098D01*
X166289721Y-92156927D01*
X166315933Y-92175357D01*
X166344036Y-92186516D01*
X166356905Y-92188572D01*
X166363171Y-92173649D01*
X166375544Y-92141175D01*
X166380972Y-92126502D01*
X166411410Y-92075744D01*
X166455480Y-92050427D01*
X166511990Y-92051206D01*
X166516175Y-92052203D01*
X166546345Y-92066507D01*
X166568524Y-92094393D01*
X166583673Y-92139287D01*
X166592750Y-92204615D01*
X166596714Y-92293804D01*
X166597086Y-92341261D01*
X166597270Y-92416071D01*
X166598478Y-92467069D01*
X166601691Y-92499471D01*
X166607891Y-92518495D01*
X166618060Y-92529356D01*
X166633181Y-92537272D01*
X166634054Y-92537670D01*
X166663172Y-92549981D01*
X166677597Y-92554514D01*
X166679814Y-92540809D01*
X166681711Y-92502925D01*
X166683153Y-92445715D01*
X166684002Y-92374027D01*
X166684171Y-92321565D01*
X166683308Y-92220047D01*
X166679930Y-92143032D01*
X166672858Y-92086023D01*
X166660912Y-92044526D01*
X166642910Y-92014043D01*
X166617673Y-91990080D01*
X166592753Y-91973355D01*
X166532829Y-91951097D01*
X166463089Y-91946076D01*
X166397400Y-91958752D01*
X166397400Y-91958752D01*
G37*
X166397400Y-91958752D02*
X166380052Y-91966334D01*
X166338644Y-91999128D01*
X166303235Y-92046547D01*
X166281336Y-92097151D01*
X166277771Y-92122098D01*
X166289721Y-92156927D01*
X166315933Y-92175357D01*
X166344036Y-92186516D01*
X166356905Y-92188572D01*
X166363171Y-92173649D01*
X166375544Y-92141175D01*
X166380972Y-92126502D01*
X166411410Y-92075744D01*
X166455480Y-92050427D01*
X166511990Y-92051206D01*
X166516175Y-92052203D01*
X166546345Y-92066507D01*
X166568524Y-92094393D01*
X166583673Y-92139287D01*
X166592750Y-92204615D01*
X166596714Y-92293804D01*
X166597086Y-92341261D01*
X166597270Y-92416071D01*
X166598478Y-92467069D01*
X166601691Y-92499471D01*
X166607891Y-92518495D01*
X166618060Y-92529356D01*
X166633181Y-92537272D01*
X166634054Y-92537670D01*
X166663172Y-92549981D01*
X166677597Y-92554514D01*
X166679814Y-92540809D01*
X166681711Y-92502925D01*
X166683153Y-92445715D01*
X166684002Y-92374027D01*
X166684171Y-92321565D01*
X166683308Y-92220047D01*
X166679930Y-92143032D01*
X166672858Y-92086023D01*
X166660912Y-92044526D01*
X166642910Y-92014043D01*
X166617673Y-91990080D01*
X166592753Y-91973355D01*
X166532829Y-91951097D01*
X166463089Y-91946076D01*
X166397400Y-91958752D01*
G36*
X165896405Y-91966966D02*
X165838979Y-92004497D01*
X165811281Y-92038096D01*
X165789338Y-92099064D01*
X165787595Y-92147308D01*
X165791543Y-92211816D01*
X165940314Y-92276934D01*
X166012651Y-92310202D01*
X166059916Y-92336964D01*
X166084493Y-92360144D01*
X166088763Y-92382667D01*
X166075111Y-92407455D01*
X166060057Y-92423886D01*
X166016254Y-92450235D01*
X165968611Y-92452081D01*
X165924855Y-92431546D01*
X165892711Y-92390752D01*
X165886962Y-92376347D01*
X165859424Y-92331356D01*
X165827742Y-92312182D01*
X165784286Y-92295779D01*
X165784286Y-92357966D01*
X165788128Y-92400283D01*
X165803177Y-92435969D01*
X165834720Y-92476943D01*
X165839408Y-92482267D01*
X165874494Y-92518720D01*
X165904653Y-92538283D01*
X165942385Y-92547283D01*
X165973665Y-92550230D01*
X166029615Y-92550965D01*
X166069445Y-92541660D01*
X166094292Y-92527846D01*
X166133344Y-92497467D01*
X166160375Y-92464613D01*
X166177483Y-92423294D01*
X166186762Y-92367521D01*
X166190307Y-92291305D01*
X166190590Y-92252622D01*
X166189628Y-92206247D01*
X166101993Y-92206247D01*
X166100977Y-92231126D01*
X166098444Y-92235200D01*
X166081726Y-92229665D01*
X166045751Y-92215017D01*
X165997669Y-92194190D01*
X165987614Y-92189714D01*
X165926848Y-92158814D01*
X165893368Y-92131657D01*
X165886010Y-92106220D01*
X165903609Y-92080481D01*
X165918144Y-92069109D01*
X165970590Y-92046364D01*
X166019678Y-92050122D01*
X166060773Y-92077884D01*
X166089242Y-92127152D01*
X166098369Y-92166257D01*
X166101993Y-92206247D01*
X166189628Y-92206247D01*
X166188715Y-92162249D01*
X166181804Y-92095384D01*
X166168116Y-92046695D01*
X166145904Y-92010849D01*
X166113426Y-91982513D01*
X166099267Y-91973355D01*
X166034947Y-91949507D01*
X165964527Y-91948006D01*
X165896405Y-91966966D01*
X165896405Y-91966966D01*
G37*
X165896405Y-91966966D02*
X165838979Y-92004497D01*
X165811281Y-92038096D01*
X165789338Y-92099064D01*
X165787595Y-92147308D01*
X165791543Y-92211816D01*
X165940314Y-92276934D01*
X166012651Y-92310202D01*
X166059916Y-92336964D01*
X166084493Y-92360144D01*
X166088763Y-92382667D01*
X166075111Y-92407455D01*
X166060057Y-92423886D01*
X166016254Y-92450235D01*
X165968611Y-92452081D01*
X165924855Y-92431546D01*
X165892711Y-92390752D01*
X165886962Y-92376347D01*
X165859424Y-92331356D01*
X165827742Y-92312182D01*
X165784286Y-92295779D01*
X165784286Y-92357966D01*
X165788128Y-92400283D01*
X165803177Y-92435969D01*
X165834720Y-92476943D01*
X165839408Y-92482267D01*
X165874494Y-92518720D01*
X165904653Y-92538283D01*
X165942385Y-92547283D01*
X165973665Y-92550230D01*
X166029615Y-92550965D01*
X166069445Y-92541660D01*
X166094292Y-92527846D01*
X166133344Y-92497467D01*
X166160375Y-92464613D01*
X166177483Y-92423294D01*
X166186762Y-92367521D01*
X166190307Y-92291305D01*
X166190590Y-92252622D01*
X166189628Y-92206247D01*
X166101993Y-92206247D01*
X166100977Y-92231126D01*
X166098444Y-92235200D01*
X166081726Y-92229665D01*
X166045751Y-92215017D01*
X165997669Y-92194190D01*
X165987614Y-92189714D01*
X165926848Y-92158814D01*
X165893368Y-92131657D01*
X165886010Y-92106220D01*
X165903609Y-92080481D01*
X165918144Y-92069109D01*
X165970590Y-92046364D01*
X166019678Y-92050122D01*
X166060773Y-92077884D01*
X166089242Y-92127152D01*
X166098369Y-92166257D01*
X166101993Y-92206247D01*
X166189628Y-92206247D01*
X166188715Y-92162249D01*
X166181804Y-92095384D01*
X166168116Y-92046695D01*
X166145904Y-92010849D01*
X166113426Y-91982513D01*
X166099267Y-91973355D01*
X166034947Y-91949507D01*
X165964527Y-91948006D01*
X165896405Y-91966966D01*
G36*
X168946090Y-87242348D02*
X168867546Y-87242778D01*
X168810702Y-87243942D01*
X168771895Y-87246207D01*
X168747462Y-87249940D01*
X168733738Y-87255506D01*
X168727060Y-87263273D01*
X168723764Y-87273605D01*
X168723444Y-87274943D01*
X168718438Y-87299079D01*
X168709171Y-87346701D01*
X168696608Y-87412741D01*
X168681713Y-87492128D01*
X168665449Y-87579796D01*
X168664881Y-87582875D01*
X168648590Y-87668789D01*
X168633348Y-87744696D01*
X168620139Y-87806045D01*
X168609946Y-87848282D01*
X168603752Y-87866855D01*
X168603457Y-87867184D01*
X168585212Y-87876253D01*
X168547595Y-87891367D01*
X168498729Y-87909262D01*
X168498457Y-87909358D01*
X168436907Y-87932493D01*
X168364343Y-87961965D01*
X168295943Y-87991597D01*
X168292706Y-87993062D01*
X168181298Y-88043626D01*
X167934601Y-87875160D01*
X167858923Y-87823803D01*
X167790369Y-87777889D01*
X167732912Y-87740030D01*
X167690524Y-87712837D01*
X167667175Y-87698921D01*
X167664958Y-87697889D01*
X167647990Y-87702484D01*
X167616299Y-87724655D01*
X167568648Y-87765447D01*
X167503802Y-87825905D01*
X167437603Y-87890227D01*
X167373786Y-87953612D01*
X167316671Y-88011451D01*
X167269695Y-88060175D01*
X167236297Y-88096210D01*
X167219915Y-88115984D01*
X167219306Y-88117002D01*
X167217495Y-88130572D01*
X167224317Y-88152733D01*
X167241460Y-88186478D01*
X167270607Y-88234800D01*
X167313445Y-88300692D01*
X167370552Y-88385517D01*
X167421234Y-88460177D01*
X167466539Y-88527140D01*
X167503850Y-88582516D01*
X167530548Y-88622420D01*
X167544015Y-88642962D01*
X167544863Y-88644356D01*
X167543219Y-88664038D01*
X167530755Y-88702293D01*
X167509952Y-88751889D01*
X167502538Y-88767728D01*
X167470186Y-88838290D01*
X167435672Y-88918353D01*
X167407635Y-88987629D01*
X167387432Y-89039045D01*
X167371385Y-89078119D01*
X167362112Y-89098541D01*
X167360959Y-89100114D01*
X167343904Y-89102721D01*
X167303702Y-89109863D01*
X167245698Y-89120523D01*
X167175237Y-89133685D01*
X167097665Y-89148333D01*
X167018328Y-89163449D01*
X166942569Y-89178018D01*
X166875736Y-89191022D01*
X166823172Y-89201445D01*
X166790224Y-89208270D01*
X166782143Y-89210199D01*
X166773795Y-89214962D01*
X166767494Y-89225718D01*
X166762955Y-89246098D01*
X166759896Y-89279734D01*
X166758033Y-89330255D01*
X166757082Y-89401292D01*
X166756760Y-89496476D01*
X166756743Y-89535492D01*
X166756743Y-89852799D01*
X166832943Y-89867839D01*
X166875337Y-89875995D01*
X166938600Y-89887899D01*
X167015038Y-89902116D01*
X167096957Y-89917210D01*
X167119600Y-89921355D01*
X167195194Y-89936053D01*
X167261047Y-89950505D01*
X167311634Y-89963375D01*
X167341426Y-89973322D01*
X167346388Y-89976287D01*
X167358574Y-89997283D01*
X167376047Y-90037967D01*
X167395423Y-90090322D01*
X167399266Y-90101600D01*
X167424661Y-90171523D01*
X167456183Y-90250418D01*
X167487031Y-90321266D01*
X167487183Y-90321595D01*
X167538553Y-90432733D01*
X167369601Y-90681253D01*
X167200648Y-90929772D01*
X167417571Y-91147058D01*
X167483181Y-91211726D01*
X167543021Y-91268733D01*
X167593733Y-91315033D01*
X167631954Y-91347584D01*
X167654325Y-91363343D01*
X167657534Y-91364343D01*
X167676374Y-91356469D01*
X167714820Y-91334578D01*
X167768670Y-91301267D01*
X167833724Y-91259131D01*
X167904060Y-91211943D01*
X167975445Y-91163810D01*
X168039092Y-91121928D01*
X168090959Y-91088871D01*
X168127005Y-91067218D01*
X168143133Y-91059543D01*
X168162811Y-91066037D01*
X168200125Y-91083150D01*
X168247379Y-91107326D01*
X168252388Y-91110013D01*
X168316023Y-91141927D01*
X168359659Y-91157579D01*
X168386798Y-91157745D01*
X168400943Y-91143204D01*
X168401025Y-91143000D01*
X168408095Y-91125779D01*
X168424958Y-91084899D01*
X168450305Y-91023525D01*
X168482829Y-90944819D01*
X168521222Y-90851947D01*
X168564178Y-90748072D01*
X168605778Y-90647502D01*
X168651496Y-90536516D01*
X168693474Y-90433703D01*
X168730452Y-90342215D01*
X168761173Y-90265201D01*
X168784378Y-90205815D01*
X168798810Y-90167209D01*
X168803257Y-90152800D01*
X168792104Y-90136272D01*
X168762931Y-90109930D01*
X168724029Y-90080887D01*
X168613243Y-89989039D01*
X168526649Y-89883759D01*
X168465284Y-89767266D01*
X168430185Y-89641776D01*
X168422392Y-89509507D01*
X168428057Y-89448457D01*
X168458922Y-89321795D01*
X168512080Y-89209941D01*
X168584233Y-89114001D01*
X168672083Y-89035076D01*
X168772335Y-88974270D01*
X168881690Y-88932687D01*
X168996853Y-88911428D01*
X169114525Y-88911599D01*
X169231410Y-88934301D01*
X169344211Y-88980638D01*
X169449631Y-89051713D01*
X169493632Y-89091911D01*
X169578021Y-89195129D01*
X169636778Y-89307925D01*
X169670296Y-89427010D01*
X169678965Y-89549095D01*
X169663177Y-89670893D01*
X169623322Y-89789116D01*
X169559793Y-89900475D01*
X169472979Y-90001684D01*
X169375971Y-90080887D01*
X169335563Y-90111162D01*
X169307018Y-90137219D01*
X169296743Y-90152825D01*
X169302123Y-90169843D01*
X169317425Y-90210500D01*
X169341388Y-90271642D01*
X169372756Y-90350119D01*
X169410268Y-90442780D01*
X169452667Y-90546472D01*
X169494337Y-90647526D01*
X169540310Y-90758607D01*
X169582893Y-90861541D01*
X169620779Y-90953165D01*
X169652660Y-91030316D01*
X169677229Y-91089831D01*
X169693180Y-91128544D01*
X169699090Y-91143000D01*
X169713052Y-91157685D01*
X169740060Y-91157642D01*
X169783587Y-91142099D01*
X169847110Y-91110284D01*
X169847612Y-91110013D01*
X169895440Y-91085323D01*
X169934103Y-91067338D01*
X169955905Y-91059614D01*
X169956867Y-91059543D01*
X169973279Y-91067378D01*
X170009513Y-91089165D01*
X170061526Y-91122328D01*
X170125275Y-91164291D01*
X170195940Y-91211943D01*
X170267884Y-91260191D01*
X170332726Y-91302151D01*
X170386265Y-91335227D01*
X170424303Y-91356821D01*
X170442467Y-91364343D01*
X170459192Y-91354457D01*
X170492820Y-91326826D01*
X170539990Y-91284495D01*
X170597342Y-91230505D01*
X170661516Y-91167899D01*
X170682503Y-91146983D01*
X170899501Y-90929623D01*
X170734332Y-90687220D01*
X170684136Y-90612781D01*
X170640081Y-90545972D01*
X170604638Y-90490665D01*
X170580281Y-90450729D01*
X170569478Y-90430036D01*
X170569162Y-90428563D01*
X170574857Y-90409058D01*
X170590174Y-90369822D01*
X170612463Y-90317430D01*
X170628107Y-90282355D01*
X170657359Y-90215201D01*
X170684906Y-90147358D01*
X170706263Y-90090034D01*
X170712065Y-90072572D01*
X170728548Y-90025938D01*
X170744660Y-89989905D01*
X170753510Y-89976287D01*
X170773040Y-89967952D01*
X170815666Y-89956137D01*
X170875855Y-89942181D01*
X170948078Y-89927422D01*
X170980400Y-89921355D01*
X171062478Y-89906273D01*
X171141205Y-89891669D01*
X171208891Y-89878980D01*
X171257840Y-89869642D01*
X171267057Y-89867839D01*
X171343257Y-89852799D01*
X171343257Y-89535492D01*
X171343086Y-89431154D01*
X171342384Y-89352213D01*
X171340866Y-89295038D01*
X171338251Y-89255999D01*
X171334254Y-89231465D01*
X171328591Y-89217805D01*
X171320980Y-89211389D01*
X171317857Y-89210199D01*
X171299022Y-89205980D01*
X171257412Y-89197562D01*
X171198370Y-89185961D01*
X171127243Y-89172195D01*
X171049375Y-89157280D01*
X170970113Y-89142232D01*
X170894802Y-89128069D01*
X170828787Y-89115806D01*
X170777413Y-89106461D01*
X170746025Y-89101050D01*
X170739041Y-89100114D01*
X170732715Y-89087596D01*
X170718710Y-89054246D01*
X170699645Y-89006377D01*
X170692366Y-88987629D01*
X170663004Y-88915195D01*
X170628429Y-88835170D01*
X170597463Y-88767728D01*
X170574677Y-88716159D01*
X170559518Y-88673785D01*
X170554458Y-88647834D01*
X170555264Y-88644356D01*
X170565959Y-88627936D01*
X170590380Y-88591417D01*
X170625905Y-88538687D01*
X170669913Y-88473635D01*
X170719783Y-88400151D01*
X170729644Y-88385645D01*
X170787508Y-88299704D01*
X170830044Y-88234261D01*
X170858946Y-88186304D01*
X170875910Y-88152820D01*
X170882633Y-88130795D01*
X170880810Y-88117217D01*
X170880764Y-88117131D01*
X170866414Y-88099297D01*
X170834677Y-88064817D01*
X170788990Y-88017268D01*
X170732796Y-87960222D01*
X170669532Y-87897255D01*
X170662398Y-87890227D01*
X170582670Y-87813020D01*
X170521143Y-87756330D01*
X170476579Y-87719110D01*
X170447743Y-87700315D01*
X170435042Y-87697889D01*
X170416506Y-87708471D01*
X170378039Y-87732916D01*
X170323614Y-87768612D01*
X170257202Y-87812947D01*
X170182775Y-87863311D01*
X170165399Y-87875160D01*
X169918703Y-88043626D01*
X169807294Y-87993062D01*
X169739543Y-87963595D01*
X169666817Y-87933959D01*
X169604297Y-87910330D01*
X169601543Y-87909358D01*
X169552640Y-87891457D01*
X169514943Y-87876320D01*
X169496575Y-87867210D01*
X169496544Y-87867184D01*
X169490715Y-87850717D01*
X169480808Y-87810219D01*
X169467805Y-87750242D01*
X169452691Y-87675340D01*
X169436448Y-87590064D01*
X169435119Y-87582875D01*
X169418825Y-87495014D01*
X169403867Y-87415260D01*
X169391209Y-87348681D01*
X169381814Y-87300347D01*
X169376646Y-87275325D01*
X169376556Y-87274943D01*
X169373411Y-87264299D01*
X169367296Y-87256262D01*
X169354547Y-87250467D01*
X169331500Y-87246547D01*
X169294491Y-87244135D01*
X169239856Y-87242865D01*
X169163933Y-87242371D01*
X169063056Y-87242286D01*
X169050000Y-87242286D01*
X168946090Y-87242348D01*
X168946090Y-87242348D01*
G37*
X168946090Y-87242348D02*
X168867546Y-87242778D01*
X168810702Y-87243942D01*
X168771895Y-87246207D01*
X168747462Y-87249940D01*
X168733738Y-87255506D01*
X168727060Y-87263273D01*
X168723764Y-87273605D01*
X168723444Y-87274943D01*
X168718438Y-87299079D01*
X168709171Y-87346701D01*
X168696608Y-87412741D01*
X168681713Y-87492128D01*
X168665449Y-87579796D01*
X168664881Y-87582875D01*
X168648590Y-87668789D01*
X168633348Y-87744696D01*
X168620139Y-87806045D01*
X168609946Y-87848282D01*
X168603752Y-87866855D01*
X168603457Y-87867184D01*
X168585212Y-87876253D01*
X168547595Y-87891367D01*
X168498729Y-87909262D01*
X168498457Y-87909358D01*
X168436907Y-87932493D01*
X168364343Y-87961965D01*
X168295943Y-87991597D01*
X168292706Y-87993062D01*
X168181298Y-88043626D01*
X167934601Y-87875160D01*
X167858923Y-87823803D01*
X167790369Y-87777889D01*
X167732912Y-87740030D01*
X167690524Y-87712837D01*
X167667175Y-87698921D01*
X167664958Y-87697889D01*
X167647990Y-87702484D01*
X167616299Y-87724655D01*
X167568648Y-87765447D01*
X167503802Y-87825905D01*
X167437603Y-87890227D01*
X167373786Y-87953612D01*
X167316671Y-88011451D01*
X167269695Y-88060175D01*
X167236297Y-88096210D01*
X167219915Y-88115984D01*
X167219306Y-88117002D01*
X167217495Y-88130572D01*
X167224317Y-88152733D01*
X167241460Y-88186478D01*
X167270607Y-88234800D01*
X167313445Y-88300692D01*
X167370552Y-88385517D01*
X167421234Y-88460177D01*
X167466539Y-88527140D01*
X167503850Y-88582516D01*
X167530548Y-88622420D01*
X167544015Y-88642962D01*
X167544863Y-88644356D01*
X167543219Y-88664038D01*
X167530755Y-88702293D01*
X167509952Y-88751889D01*
X167502538Y-88767728D01*
X167470186Y-88838290D01*
X167435672Y-88918353D01*
X167407635Y-88987629D01*
X167387432Y-89039045D01*
X167371385Y-89078119D01*
X167362112Y-89098541D01*
X167360959Y-89100114D01*
X167343904Y-89102721D01*
X167303702Y-89109863D01*
X167245698Y-89120523D01*
X167175237Y-89133685D01*
X167097665Y-89148333D01*
X167018328Y-89163449D01*
X166942569Y-89178018D01*
X166875736Y-89191022D01*
X166823172Y-89201445D01*
X166790224Y-89208270D01*
X166782143Y-89210199D01*
X166773795Y-89214962D01*
X166767494Y-89225718D01*
X166762955Y-89246098D01*
X166759896Y-89279734D01*
X166758033Y-89330255D01*
X166757082Y-89401292D01*
X166756760Y-89496476D01*
X166756743Y-89535492D01*
X166756743Y-89852799D01*
X166832943Y-89867839D01*
X166875337Y-89875995D01*
X166938600Y-89887899D01*
X167015038Y-89902116D01*
X167096957Y-89917210D01*
X167119600Y-89921355D01*
X167195194Y-89936053D01*
X167261047Y-89950505D01*
X167311634Y-89963375D01*
X167341426Y-89973322D01*
X167346388Y-89976287D01*
X167358574Y-89997283D01*
X167376047Y-90037967D01*
X167395423Y-90090322D01*
X167399266Y-90101600D01*
X167424661Y-90171523D01*
X167456183Y-90250418D01*
X167487031Y-90321266D01*
X167487183Y-90321595D01*
X167538553Y-90432733D01*
X167369601Y-90681253D01*
X167200648Y-90929772D01*
X167417571Y-91147058D01*
X167483181Y-91211726D01*
X167543021Y-91268733D01*
X167593733Y-91315033D01*
X167631954Y-91347584D01*
X167654325Y-91363343D01*
X167657534Y-91364343D01*
X167676374Y-91356469D01*
X167714820Y-91334578D01*
X167768670Y-91301267D01*
X167833724Y-91259131D01*
X167904060Y-91211943D01*
X167975445Y-91163810D01*
X168039092Y-91121928D01*
X168090959Y-91088871D01*
X168127005Y-91067218D01*
X168143133Y-91059543D01*
X168162811Y-91066037D01*
X168200125Y-91083150D01*
X168247379Y-91107326D01*
X168252388Y-91110013D01*
X168316023Y-91141927D01*
X168359659Y-91157579D01*
X168386798Y-91157745D01*
X168400943Y-91143204D01*
X168401025Y-91143000D01*
X168408095Y-91125779D01*
X168424958Y-91084899D01*
X168450305Y-91023525D01*
X168482829Y-90944819D01*
X168521222Y-90851947D01*
X168564178Y-90748072D01*
X168605778Y-90647502D01*
X168651496Y-90536516D01*
X168693474Y-90433703D01*
X168730452Y-90342215D01*
X168761173Y-90265201D01*
X168784378Y-90205815D01*
X168798810Y-90167209D01*
X168803257Y-90152800D01*
X168792104Y-90136272D01*
X168762931Y-90109930D01*
X168724029Y-90080887D01*
X168613243Y-89989039D01*
X168526649Y-89883759D01*
X168465284Y-89767266D01*
X168430185Y-89641776D01*
X168422392Y-89509507D01*
X168428057Y-89448457D01*
X168458922Y-89321795D01*
X168512080Y-89209941D01*
X168584233Y-89114001D01*
X168672083Y-89035076D01*
X168772335Y-88974270D01*
X168881690Y-88932687D01*
X168996853Y-88911428D01*
X169114525Y-88911599D01*
X169231410Y-88934301D01*
X169344211Y-88980638D01*
X169449631Y-89051713D01*
X169493632Y-89091911D01*
X169578021Y-89195129D01*
X169636778Y-89307925D01*
X169670296Y-89427010D01*
X169678965Y-89549095D01*
X169663177Y-89670893D01*
X169623322Y-89789116D01*
X169559793Y-89900475D01*
X169472979Y-90001684D01*
X169375971Y-90080887D01*
X169335563Y-90111162D01*
X169307018Y-90137219D01*
X169296743Y-90152825D01*
X169302123Y-90169843D01*
X169317425Y-90210500D01*
X169341388Y-90271642D01*
X169372756Y-90350119D01*
X169410268Y-90442780D01*
X169452667Y-90546472D01*
X169494337Y-90647526D01*
X169540310Y-90758607D01*
X169582893Y-90861541D01*
X169620779Y-90953165D01*
X169652660Y-91030316D01*
X169677229Y-91089831D01*
X169693180Y-91128544D01*
X169699090Y-91143000D01*
X169713052Y-91157685D01*
X169740060Y-91157642D01*
X169783587Y-91142099D01*
X169847110Y-91110284D01*
X169847612Y-91110013D01*
X169895440Y-91085323D01*
X169934103Y-91067338D01*
X169955905Y-91059614D01*
X169956867Y-91059543D01*
X169973279Y-91067378D01*
X170009513Y-91089165D01*
X170061526Y-91122328D01*
X170125275Y-91164291D01*
X170195940Y-91211943D01*
X170267884Y-91260191D01*
X170332726Y-91302151D01*
X170386265Y-91335227D01*
X170424303Y-91356821D01*
X170442467Y-91364343D01*
X170459192Y-91354457D01*
X170492820Y-91326826D01*
X170539990Y-91284495D01*
X170597342Y-91230505D01*
X170661516Y-91167899D01*
X170682503Y-91146983D01*
X170899501Y-90929623D01*
X170734332Y-90687220D01*
X170684136Y-90612781D01*
X170640081Y-90545972D01*
X170604638Y-90490665D01*
X170580281Y-90450729D01*
X170569478Y-90430036D01*
X170569162Y-90428563D01*
X170574857Y-90409058D01*
X170590174Y-90369822D01*
X170612463Y-90317430D01*
X170628107Y-90282355D01*
X170657359Y-90215201D01*
X170684906Y-90147358D01*
X170706263Y-90090034D01*
X170712065Y-90072572D01*
X170728548Y-90025938D01*
X170744660Y-89989905D01*
X170753510Y-89976287D01*
X170773040Y-89967952D01*
X170815666Y-89956137D01*
X170875855Y-89942181D01*
X170948078Y-89927422D01*
X170980400Y-89921355D01*
X171062478Y-89906273D01*
X171141205Y-89891669D01*
X171208891Y-89878980D01*
X171257840Y-89869642D01*
X171267057Y-89867839D01*
X171343257Y-89852799D01*
X171343257Y-89535492D01*
X171343086Y-89431154D01*
X171342384Y-89352213D01*
X171340866Y-89295038D01*
X171338251Y-89255999D01*
X171334254Y-89231465D01*
X171328591Y-89217805D01*
X171320980Y-89211389D01*
X171317857Y-89210199D01*
X171299022Y-89205980D01*
X171257412Y-89197562D01*
X171198370Y-89185961D01*
X171127243Y-89172195D01*
X171049375Y-89157280D01*
X170970113Y-89142232D01*
X170894802Y-89128069D01*
X170828787Y-89115806D01*
X170777413Y-89106461D01*
X170746025Y-89101050D01*
X170739041Y-89100114D01*
X170732715Y-89087596D01*
X170718710Y-89054246D01*
X170699645Y-89006377D01*
X170692366Y-88987629D01*
X170663004Y-88915195D01*
X170628429Y-88835170D01*
X170597463Y-88767728D01*
X170574677Y-88716159D01*
X170559518Y-88673785D01*
X170554458Y-88647834D01*
X170555264Y-88644356D01*
X170565959Y-88627936D01*
X170590380Y-88591417D01*
X170625905Y-88538687D01*
X170669913Y-88473635D01*
X170719783Y-88400151D01*
X170729644Y-88385645D01*
X170787508Y-88299704D01*
X170830044Y-88234261D01*
X170858946Y-88186304D01*
X170875910Y-88152820D01*
X170882633Y-88130795D01*
X170880810Y-88117217D01*
X170880764Y-88117131D01*
X170866414Y-88099297D01*
X170834677Y-88064817D01*
X170788990Y-88017268D01*
X170732796Y-87960222D01*
X170669532Y-87897255D01*
X170662398Y-87890227D01*
X170582670Y-87813020D01*
X170521143Y-87756330D01*
X170476579Y-87719110D01*
X170447743Y-87700315D01*
X170435042Y-87697889D01*
X170416506Y-87708471D01*
X170378039Y-87732916D01*
X170323614Y-87768612D01*
X170257202Y-87812947D01*
X170182775Y-87863311D01*
X170165399Y-87875160D01*
X169918703Y-88043626D01*
X169807294Y-87993062D01*
X169739543Y-87963595D01*
X169666817Y-87933959D01*
X169604297Y-87910330D01*
X169601543Y-87909358D01*
X169552640Y-87891457D01*
X169514943Y-87876320D01*
X169496575Y-87867210D01*
X169496544Y-87867184D01*
X169490715Y-87850717D01*
X169480808Y-87810219D01*
X169467805Y-87750242D01*
X169452691Y-87675340D01*
X169436448Y-87590064D01*
X169435119Y-87582875D01*
X169418825Y-87495014D01*
X169403867Y-87415260D01*
X169391209Y-87348681D01*
X169381814Y-87300347D01*
X169376646Y-87275325D01*
X169376556Y-87274943D01*
X169373411Y-87264299D01*
X169367296Y-87256262D01*
X169354547Y-87250467D01*
X169331500Y-87246547D01*
X169294491Y-87244135D01*
X169239856Y-87242865D01*
X169163933Y-87242371D01*
X169063056Y-87242286D01*
X169050000Y-87242286D01*
X168946090Y-87242348D01*
D13*
X137808000Y-66886000D03*
D14*
X140348000Y-66886000D03*
D15*
X172860000Y-100160000D03*
X172860000Y-97620000D03*
D16*
X172860000Y-95080000D03*
D17*
X167710000Y-67250000D03*
D18*
X170250000Y-67250000D03*
X172790000Y-67250000D03*
D15*
X172860000Y-104224000D03*
X172860000Y-106764000D03*
X172860000Y-109304000D03*
D16*
X172860000Y-111844000D03*
D19*
X161557000Y-93810000D03*
X162192000Y-94445000D03*
X162827000Y-95080000D03*
X163462000Y-95715000D03*
X163462000Y-96604000D03*
X163462000Y-97493000D03*
X170447000Y-78062000D03*
X138062000Y-90127000D03*
X138697000Y-89492000D03*
X139332000Y-88857000D03*
X139967000Y-88222000D03*
X140602000Y-87587000D03*
X141237000Y-86952000D03*
X142126000Y-86952000D03*
X143015000Y-86952000D03*
X143904000Y-86952000D03*
X144793000Y-86952000D03*
X145682000Y-86952000D03*
X146317000Y-86317000D03*
X146952000Y-85682000D03*
X147587000Y-85047000D03*
X139967000Y-75014000D03*
X147333000Y-90635000D03*
X147714000Y-91270000D03*
X148095000Y-91905000D03*
X148476000Y-92540000D03*
X149238000Y-92540000D03*
X150000000Y-92540000D03*
X150762000Y-92540000D03*
X151524000Y-92540000D03*
X151905000Y-91905000D03*
X152286000Y-91270000D03*
X152667000Y-90635000D03*
X153048000Y-90000000D03*
X152667000Y-89365000D03*
X152286000Y-88730000D03*
X151905000Y-88095000D03*
X151524000Y-87460000D03*
X150762000Y-87460000D03*
X150000000Y-87460000D03*
X149238000Y-87460000D03*
X148476000Y-87460000D03*
X148095000Y-88095000D03*
X147714000Y-88730000D03*
X147333000Y-89365000D03*
X146952000Y-90000000D03*
X151524000Y-88730000D03*
X151905000Y-89365000D03*
X152286000Y-90000000D03*
X151905000Y-90635000D03*
X151524000Y-91270000D03*
X151143000Y-91905000D03*
X150381000Y-91905000D03*
X149619000Y-91905000D03*
X148857000Y-91905000D03*
X148476000Y-91270000D03*
X148095000Y-90635000D03*
X147714000Y-90000000D03*
X148095000Y-89365000D03*
X148476000Y-88730000D03*
X148857000Y-88095000D03*
X151143000Y-88095000D03*
X150381000Y-88095000D03*
X149619000Y-88095000D03*
X151524000Y-90000000D03*
X148476000Y-90000000D03*
X149238000Y-91270000D03*
X150762000Y-91270000D03*
X151143000Y-90635000D03*
X149238000Y-88730000D03*
X150000000Y-88730000D03*
X150762000Y-88730000D03*
X151143000Y-89365000D03*
X148857000Y-89365000D03*
X148857000Y-90635000D03*
X150000000Y-91270000D03*
X149619000Y-90635000D03*
X150381000Y-90635000D03*
X150381000Y-89365000D03*
X149619000Y-89365000D03*
X149238000Y-90000000D03*
X150762000Y-90000000D03*
X150000000Y-90000000D03*
X129934000Y-96731000D03*
X129934000Y-97620000D03*
X137427000Y-92159000D03*
X130823000Y-95207000D03*
X131712000Y-95207000D03*
X137427000Y-93048000D03*
X133490000Y-95207000D03*
X132601000Y-95207000D03*
X130188000Y-95842000D03*
X134379000Y-95207000D03*
X136157000Y-95207000D03*
X135268000Y-95207000D03*
X137427000Y-93937000D03*
X136792000Y-94572000D03*
X129299000Y-98255000D03*
X127394000Y-101049000D03*
X128029000Y-99525000D03*
X127394000Y-100160000D03*
X128664000Y-98890000D03*
X158128000Y-85174000D03*
X158382000Y-86940000D03*
X157493000Y-86952000D03*
X156604000Y-86952000D03*
X155715000Y-86952000D03*
X154826000Y-86952000D03*
X153937000Y-86952000D03*
X153302000Y-86317000D03*
X152667000Y-85682000D03*
X152032000Y-85047000D03*
X151143000Y-85047000D03*
X150254000Y-85047000D03*
X149365000Y-85047000D03*
X148476000Y-85047000D03*
X164097000Y-114130000D03*
X164097000Y-113241000D03*
X164097000Y-112352000D03*
X164097000Y-111463000D03*
X163462000Y-110828000D03*
X163462000Y-109939000D03*
X163462000Y-109050000D03*
X163462000Y-108161000D03*
X163462000Y-107272000D03*
X163462000Y-106383000D03*
X163462000Y-105494000D03*
X163462000Y-104605000D03*
X163462000Y-103716000D03*
X163462000Y-102827000D03*
X163462000Y-101938000D03*
X163462000Y-98382000D03*
X163462000Y-99271000D03*
X163462000Y-100159996D03*
X163462000Y-101049000D03*
X145808994Y-83904000D03*
X159652000Y-71204000D03*
D20*
X130696000Y-106256000D03*
X133744000Y-106256000D03*
X142380000Y-106256000D03*
X145428000Y-106256000D03*
X157620000Y-106256000D03*
X154572000Y-106256000D03*
X156096000Y-106256000D03*
X143904000Y-106256000D03*
X132220000Y-106256000D03*
X128410000Y-82126000D03*
X128410000Y-80856000D03*
X128410000Y-79586000D03*
X127140000Y-82126000D03*
X127140000Y-80856000D03*
X127140000Y-79586000D03*
X130950000Y-82126000D03*
X130950000Y-80856000D03*
X130950000Y-79586000D03*
X132220000Y-82126000D03*
X132220000Y-80856000D03*
X132220000Y-79586000D03*
X129680000Y-82126000D03*
X129680000Y-80856000D03*
X129680000Y-79586000D03*
X132220000Y-78316000D03*
X130950000Y-78316000D03*
X127140000Y-78316000D03*
X128410000Y-78316000D03*
X129680000Y-78316000D03*
D19*
X155994400Y-80551200D03*
X155994400Y-75369600D03*
X151778000Y-71204000D03*
X169304000Y-106510000D03*
X166256000Y-102446000D03*
X129299000Y-75141000D03*
X128410000Y-75141000D03*
X129299000Y-66251000D03*
X128410000Y-66251000D03*
X132016800Y-76842800D03*
X141150422Y-74486294D03*
X140602000Y-80221000D03*
X143834999Y-65743000D03*
X142634000Y-65743000D03*
X142380000Y-68029006D03*
X171209000Y-102192000D03*
X154445000Y-75141000D03*
X142888004Y-95842000D03*
X139967000Y-92971800D03*
X140601988Y-98509000D03*
X138655245Y-95692039D03*
X166002000Y-77554000D03*
X161430000Y-75776000D03*
X147968000Y-74505990D03*
X145301000Y-73871000D03*
X135395000Y-78189000D03*
X141110000Y-76157000D03*
X128664000Y-100668000D03*
X128664000Y-102446000D03*
X141491000Y-96477000D03*
X148984000Y-78951000D03*
X146952000Y-79967000D03*
X139116990Y-93937000D03*
X159502669Y-87609331D03*
X158382000Y-80475000D03*
X158382000Y-75776000D03*
X167272000Y-77554000D03*
X167526000Y-74252000D03*
X165887000Y-74252000D03*
X162318992Y-70569000D03*
X159398000Y-73558000D03*
X144030996Y-84031000D03*
X145809000Y-80856000D03*
X146571000Y-78443000D03*
X152921000Y-77808000D03*
X161563656Y-72986995D03*
X157213600Y-75369600D03*
D11*
X162192000Y-94445000D02*
X161557000Y-93810000D01*
X163462000Y-95715000D02*
X162827000Y-95080000D01*
X163462000Y-97493000D02*
X163462000Y-96604000D01*
X138697000Y-89492000D02*
X138062000Y-90127000D01*
X139967000Y-88222000D02*
X139332000Y-88857000D01*
X141237000Y-86952000D02*
X140602000Y-87587000D01*
X143015000Y-86952000D02*
X142126000Y-86952000D01*
X144793000Y-86952000D02*
X143904000Y-86952000D01*
X146317000Y-86317000D02*
X145682000Y-86952000D01*
X147587000Y-85047000D02*
X146952000Y-85682000D01*
X148095000Y-91905000D02*
X148095000Y-91651000D01*
X148095000Y-91651000D02*
X147714000Y-91270000D01*
X149238000Y-92540000D02*
X148476000Y-92540000D01*
X150762000Y-92540000D02*
X150000000Y-92540000D01*
X151905000Y-91905000D02*
X151905000Y-92159000D01*
X151905000Y-92159000D02*
X151524000Y-92540000D01*
X152667000Y-90635000D02*
X152667000Y-90889000D01*
X152667000Y-90889000D02*
X152286000Y-91270000D01*
X152667000Y-89365000D02*
X152667000Y-89619000D01*
X152667000Y-89619000D02*
X153048000Y-90000000D01*
X151905000Y-88095000D02*
X151905000Y-88349000D01*
X151905000Y-88349000D02*
X152286000Y-88730000D01*
X150762000Y-87460000D02*
X151524000Y-87460000D01*
X149238000Y-87460000D02*
X150000000Y-87460000D01*
X148095000Y-88095000D02*
X148095000Y-87841000D01*
X148095000Y-87841000D02*
X148476000Y-87460000D01*
X147333000Y-89365000D02*
X147333000Y-89111000D01*
X147333000Y-89111000D02*
X147714000Y-88730000D01*
X147714000Y-90000000D02*
X146952000Y-90000000D01*
X152286000Y-90000000D02*
X152286000Y-89746000D01*
X152286000Y-89746000D02*
X151905000Y-89365000D01*
X151524000Y-91270000D02*
X151524000Y-91016000D01*
X151524000Y-91016000D02*
X151905000Y-90635000D01*
X150381000Y-91905000D02*
X151143000Y-91905000D01*
X148857000Y-91905000D02*
X149619000Y-91905000D01*
X148095000Y-90635000D02*
X148095000Y-90889000D01*
X148095000Y-90889000D02*
X148476000Y-91270000D01*
X148095000Y-89365000D02*
X148095000Y-89619000D01*
X148095000Y-89619000D02*
X147714000Y-90000000D01*
X148857000Y-88095000D02*
X148857000Y-88349000D01*
X148857000Y-88349000D02*
X148476000Y-88730000D01*
X150381000Y-88095000D02*
X151143000Y-88095000D01*
X149238000Y-88730000D02*
X149238000Y-88476000D01*
X149238000Y-88476000D02*
X149619000Y-88095000D01*
X149238000Y-91270000D02*
X149238000Y-90762000D01*
X149238000Y-90762000D02*
X148476000Y-90000000D01*
X151143000Y-90635000D02*
X151143000Y-90889000D01*
X151143000Y-90889000D02*
X150762000Y-91270000D01*
X150000000Y-88730000D02*
X149238000Y-88730000D01*
X151143000Y-89365000D02*
X151143000Y-89111000D01*
X151143000Y-89111000D02*
X150762000Y-88730000D01*
X148857000Y-90635000D02*
X148857000Y-89365000D01*
X150381000Y-90635000D02*
X150381000Y-90889000D01*
X150381000Y-90889000D02*
X150000000Y-91270000D01*
X150381000Y-89365000D02*
X150381000Y-90635000D01*
X149238000Y-90000000D02*
X149238000Y-89746000D01*
X149238000Y-89746000D02*
X149619000Y-89365000D01*
X150000000Y-90000000D02*
X150762000Y-90000000D01*
X133490000Y-95207000D02*
X132601000Y-95207000D01*
X131712000Y-95207000D02*
X130823000Y-95207000D01*
X137427000Y-93937000D02*
X137427000Y-93048000D01*
X136157000Y-95207000D02*
X136792000Y-94572000D01*
X134379000Y-95207000D02*
X135268000Y-95207000D01*
X129934000Y-97620000D02*
X129299000Y-98255000D01*
X128664000Y-98890000D02*
X128029000Y-99525000D01*
X127394000Y-100160000D02*
X127394000Y-101049000D01*
X158128000Y-86686000D02*
X158382000Y-86940000D01*
X158128000Y-85174000D02*
X158128000Y-86686000D01*
X157493000Y-86952000D02*
X156604000Y-86952000D01*
X155715000Y-86952000D02*
X154826000Y-86952000D01*
X153937000Y-86952000D02*
X153302000Y-86317000D01*
X152667000Y-85682000D02*
X152032000Y-85047000D01*
X151143000Y-85047000D02*
X150254000Y-85047000D01*
X149365000Y-85047000D02*
X148476000Y-85047000D01*
X164097000Y-113241000D02*
X164097000Y-114130000D01*
X164097000Y-111463000D02*
X164097000Y-112352000D01*
X163462000Y-109939000D02*
X163462000Y-110828000D01*
X163462000Y-108161000D02*
X163462000Y-109050000D01*
X163462000Y-106383000D02*
X163462000Y-107272000D01*
X163462000Y-104605000D02*
X163462000Y-105494000D01*
X163462000Y-102827000D02*
X163462000Y-103716000D01*
X163462000Y-101049000D02*
X163462000Y-101938000D01*
X163462000Y-100159996D02*
X163462000Y-99271000D01*
X166256000Y-102446000D02*
X164859000Y-102446000D01*
X164859000Y-102446000D02*
X163462000Y-101049000D01*
D21*
X128410000Y-75141000D02*
X129299000Y-75141000D01*
X128410000Y-66251000D02*
X129299000Y-66251000D01*
D11*
X141872000Y-76792000D02*
X141872000Y-75207872D01*
X141872000Y-75207872D02*
X141150422Y-74486294D01*
X140602000Y-78062000D02*
X141872000Y-76792000D01*
X140602000Y-80221000D02*
X140602000Y-78062000D01*
D21*
X144031000Y-65546999D02*
X143834999Y-65743000D01*
X143834999Y-65743000D02*
X142380000Y-67197999D01*
X142380000Y-67463321D02*
X142380000Y-68029006D01*
X142380000Y-67197999D02*
X142380000Y-67463321D01*
X144031000Y-65546999D02*
X150127000Y-65546999D01*
X151581999Y-65546999D02*
X173552999Y-65546999D01*
X150127000Y-65546999D02*
X150889000Y-65546999D01*
X150127000Y-66308999D02*
X150127000Y-65546999D01*
X154445000Y-75141000D02*
X154045001Y-74741001D01*
X154045001Y-74741001D02*
X153410001Y-74741001D01*
X150127000Y-71458000D02*
X150127000Y-66308999D01*
X153410001Y-74741001D02*
X150127000Y-71458000D01*
X150889000Y-65546999D02*
X151581999Y-65546999D01*
X173495000Y-102192000D02*
X171209000Y-102192000D01*
X173552999Y-65546999D02*
X174103610Y-66097610D01*
X174511000Y-92973780D02*
X174511000Y-101176000D01*
X174103610Y-66097610D02*
X174103610Y-92566390D01*
X174103610Y-92566390D02*
X174511000Y-92973780D01*
X174511000Y-101176000D02*
X173495000Y-102192000D01*
X142837200Y-95842000D02*
X142888004Y-95842000D01*
X139967000Y-92971800D02*
X142837200Y-95842000D01*
X140601988Y-98509000D02*
X140601988Y-96857988D01*
X140601988Y-96857988D02*
X140348000Y-96604000D01*
X140348000Y-96604000D02*
X138824000Y-96604000D01*
X138824000Y-96604000D02*
X138655245Y-96435245D01*
X138655245Y-96435245D02*
X138655245Y-95692039D01*
D11*
X164224000Y-75776000D02*
X165602001Y-77154001D01*
X161430000Y-75776000D02*
X164224000Y-75776000D01*
X165602001Y-77154001D02*
X166002000Y-77554000D01*
X147402315Y-74505990D02*
X147968000Y-74505990D01*
X145935990Y-74505990D02*
X147402315Y-74505990D01*
X145301000Y-73871000D02*
X145935990Y-74505990D01*
X135794999Y-77789001D02*
X135395000Y-78189000D01*
X136143499Y-77440501D02*
X135794999Y-77789001D01*
X139826499Y-77440501D02*
X136143499Y-77440501D01*
X141110000Y-76157000D02*
X139826499Y-77440501D01*
X128664000Y-102446000D02*
X128664000Y-100668000D01*
X141491000Y-96311010D02*
X141491000Y-96477000D01*
X139116990Y-93937000D02*
X141491000Y-96311010D01*
X148984000Y-78951000D02*
X147968000Y-78951000D01*
X147968000Y-78951000D02*
X146952000Y-79967000D01*
X159502669Y-87609331D02*
X159502669Y-81595669D01*
X159502669Y-81595669D02*
X158382000Y-80475000D01*
X167272000Y-77554000D02*
X164743999Y-75025999D01*
X164743999Y-75025999D02*
X160402001Y-75025999D01*
X160402001Y-75025999D02*
X159652000Y-75776000D01*
X159652000Y-75776000D02*
X158382000Y-75776000D01*
X165887000Y-74252000D02*
X167526000Y-74252000D01*
X159398000Y-73558000D02*
X162318992Y-70637008D01*
X162318992Y-70637008D02*
X162318992Y-70569000D01*
X144430995Y-83631001D02*
X144030996Y-84031000D01*
X145809000Y-82252996D02*
X144430995Y-83631001D01*
X145809000Y-80856000D02*
X145809000Y-82252996D01*
X152921000Y-77808000D02*
X149746000Y-77808000D01*
X146571000Y-78443000D02*
X147206000Y-77808000D01*
X147206000Y-77808000D02*
X149746000Y-77808000D01*
X157213600Y-75369600D02*
X157696200Y-74887000D01*
X157696200Y-74887000D02*
X159663651Y-74887000D01*
X159663651Y-74887000D02*
X161563656Y-72986995D01*
D22*
G36*
X136401615Y-66021182D02*
X136202025Y-66503056D01*
X136321164Y-66759000D01*
X137681000Y-66759000D01*
X137681000Y-66739000D01*
X137935000Y-66739000D01*
X137935000Y-66759000D01*
X137955000Y-66759000D01*
X137955000Y-67013000D01*
X137935000Y-67013000D01*
X137935000Y-68373367D01*
X138190946Y-68491983D01*
X138776379Y-68223188D01*
X138780171Y-68219099D01*
X138874191Y-68359809D01*
X139084235Y-68500157D01*
X139332000Y-68549440D01*
X141364000Y-68549440D01*
X141466724Y-68529007D01*
X141502058Y-68614521D01*
X141792954Y-68905925D01*
X142173223Y-69063826D01*
X142584971Y-69064185D01*
X142965515Y-68906948D01*
X143256919Y-68616052D01*
X143414820Y-68235783D01*
X143415179Y-67824035D01*
X143295409Y-67534169D01*
X144059447Y-66770131D01*
X144420514Y-66620942D01*
X144609787Y-66431999D01*
X149242000Y-66431999D01*
X149242000Y-71457995D01*
X149241999Y-71458000D01*
X149298190Y-71740484D01*
X149309367Y-71796675D01*
X149413268Y-71952175D01*
X149501210Y-72083790D01*
X152784209Y-75366788D01*
X152784211Y-75366791D01*
X152947046Y-75475593D01*
X153071327Y-75558635D01*
X153410001Y-75626002D01*
X153410006Y-75626001D01*
X153525527Y-75626001D01*
X153567058Y-75726515D01*
X153857954Y-76017919D01*
X154238223Y-76175820D01*
X154649971Y-76176179D01*
X155030515Y-76018942D01*
X155321919Y-75728046D01*
X155479820Y-75347777D01*
X155480179Y-74936029D01*
X155322942Y-74555485D01*
X155032046Y-74264081D01*
X154666301Y-74112211D01*
X154612064Y-74075971D01*
X154383676Y-73923368D01*
X154327485Y-73912191D01*
X154045001Y-73856000D01*
X154044996Y-73856001D01*
X153776580Y-73856001D01*
X151012000Y-71091420D01*
X151012000Y-69982800D01*
X161441722Y-69982800D01*
X161284172Y-70362223D01*
X161283998Y-70561845D01*
X159322908Y-72522934D01*
X159193029Y-72522821D01*
X158812485Y-72680058D01*
X158521081Y-72970954D01*
X158363180Y-73351223D01*
X158362821Y-73762971D01*
X158502904Y-74102000D01*
X157696200Y-74102000D01*
X157395794Y-74161755D01*
X157141121Y-74331921D01*
X157141119Y-74331924D01*
X157138509Y-74334534D01*
X157008629Y-74334421D01*
X156628085Y-74491658D01*
X156336681Y-74782554D01*
X156178780Y-75162823D01*
X156178421Y-75574571D01*
X156335658Y-75955115D01*
X156626554Y-76246519D01*
X157006823Y-76404420D01*
X157418571Y-76404779D01*
X157509671Y-76367138D01*
X157794954Y-76652919D01*
X158175223Y-76810820D01*
X158586971Y-76811179D01*
X158967515Y-76653942D01*
X159060619Y-76561000D01*
X159652000Y-76561000D01*
X159952407Y-76501245D01*
X160207079Y-76331079D01*
X160442294Y-76095864D01*
X160552058Y-76361515D01*
X160842954Y-76652919D01*
X161223223Y-76810820D01*
X161634971Y-76811179D01*
X162015515Y-76653942D01*
X162108619Y-76561000D01*
X163898842Y-76561000D01*
X164966934Y-77629092D01*
X164966821Y-77758971D01*
X165124058Y-78139515D01*
X165414954Y-78430919D01*
X165795223Y-78588820D01*
X166206971Y-78589179D01*
X166587515Y-78431942D01*
X166636831Y-78382712D01*
X166684954Y-78430919D01*
X167065223Y-78588820D01*
X167476971Y-78589179D01*
X167857515Y-78431942D01*
X168148919Y-78141046D01*
X168306820Y-77760777D01*
X168307179Y-77349029D01*
X168149942Y-76968485D01*
X167859046Y-76677081D01*
X167478777Y-76519180D01*
X167347223Y-76519065D01*
X166108505Y-75280347D01*
X166472515Y-75129942D01*
X166565619Y-75037000D01*
X166847195Y-75037000D01*
X166938954Y-75128919D01*
X167319223Y-75286820D01*
X167730971Y-75287179D01*
X168111515Y-75129942D01*
X168402919Y-74839046D01*
X168560820Y-74458777D01*
X168561179Y-74047029D01*
X168403942Y-73666485D01*
X168113046Y-73375081D01*
X167732777Y-73217180D01*
X167321029Y-73216821D01*
X166940485Y-73374058D01*
X166847381Y-73467000D01*
X166565805Y-73467000D01*
X166474046Y-73375081D01*
X166093777Y-73217180D01*
X165682029Y-73216821D01*
X165301485Y-73374058D01*
X165010081Y-73664954D01*
X164852180Y-74045223D01*
X164851991Y-74262480D01*
X164743999Y-74240999D01*
X161419810Y-74240999D01*
X161638748Y-74022061D01*
X161768627Y-74022174D01*
X162149171Y-73864937D01*
X162440575Y-73574041D01*
X162598476Y-73193772D01*
X162598835Y-72782024D01*
X162441598Y-72401480D01*
X162150702Y-72110076D01*
X162013184Y-72052974D01*
X162462032Y-71604125D01*
X162523963Y-71604179D01*
X162904507Y-71446942D01*
X163195911Y-71156046D01*
X163353812Y-70775777D01*
X163354171Y-70364029D01*
X163196934Y-69983485D01*
X162906038Y-69692081D01*
X162827000Y-69659262D01*
X162827000Y-66431999D01*
X166198960Y-66431999D01*
X166198960Y-68266000D01*
X166248243Y-68513765D01*
X166388591Y-68723809D01*
X166598635Y-68864157D01*
X166846400Y-68913440D01*
X168573600Y-68913440D01*
X168821365Y-68864157D01*
X169031409Y-68723809D01*
X169171757Y-68513765D01*
X169178984Y-68477434D01*
X169190330Y-68494415D01*
X169676511Y-68819271D01*
X170250000Y-68933345D01*
X170823489Y-68819271D01*
X171309670Y-68494415D01*
X171516461Y-68184931D01*
X171887964Y-68600732D01*
X172415209Y-68854709D01*
X172430974Y-68857358D01*
X172663000Y-68736217D01*
X172663000Y-67377000D01*
X172643000Y-67377000D01*
X172643000Y-67123000D01*
X172663000Y-67123000D01*
X172663000Y-67103000D01*
X172917000Y-67103000D01*
X172917000Y-67123000D01*
X172937000Y-67123000D01*
X172937000Y-67377000D01*
X172917000Y-67377000D01*
X172917000Y-68736217D01*
X173149026Y-68857358D01*
X173164791Y-68854709D01*
X173218610Y-68828784D01*
X173218610Y-92566385D01*
X173218609Y-92566390D01*
X173273439Y-92842031D01*
X173285977Y-92905065D01*
X173464426Y-93172134D01*
X173477820Y-93192180D01*
X173626000Y-93340360D01*
X173626000Y-93568960D01*
X171844000Y-93568960D01*
X171596235Y-93618243D01*
X171386191Y-93758591D01*
X171245843Y-93968635D01*
X171196560Y-94216400D01*
X171196560Y-95943600D01*
X171245843Y-96191365D01*
X171386191Y-96401409D01*
X171596235Y-96541757D01*
X171632566Y-96548984D01*
X171615585Y-96560330D01*
X171290729Y-97046511D01*
X171176655Y-97620000D01*
X171290729Y-98193489D01*
X171615585Y-98679670D01*
X171930366Y-98890000D01*
X171615585Y-99100330D01*
X171290729Y-99586511D01*
X171176655Y-100160000D01*
X171290729Y-100733489D01*
X171615585Y-101219670D01*
X171696541Y-101273763D01*
X171415777Y-101157180D01*
X171004029Y-101156821D01*
X170623485Y-101314058D01*
X170332081Y-101604954D01*
X170174180Y-101985223D01*
X170173821Y-102396971D01*
X170331058Y-102777515D01*
X170621954Y-103068919D01*
X171002223Y-103226820D01*
X171413971Y-103227179D01*
X171777433Y-103077000D01*
X171783442Y-103077000D01*
X171509268Y-103321964D01*
X171255291Y-103849209D01*
X171252642Y-103864974D01*
X171373783Y-104097000D01*
X172733000Y-104097000D01*
X172733000Y-104077000D01*
X172987000Y-104077000D01*
X172987000Y-104097000D01*
X173007000Y-104097000D01*
X173007000Y-104351000D01*
X172987000Y-104351000D01*
X172987000Y-104371000D01*
X172733000Y-104371000D01*
X172733000Y-104351000D01*
X171373783Y-104351000D01*
X171252642Y-104583026D01*
X171255291Y-104598791D01*
X171509268Y-105126036D01*
X171925069Y-105497539D01*
X171615585Y-105704330D01*
X171290729Y-106190511D01*
X171176655Y-106764000D01*
X171290729Y-107337489D01*
X171615585Y-107823670D01*
X171930366Y-108034000D01*
X171615585Y-108244330D01*
X171290729Y-108730511D01*
X171176655Y-109304000D01*
X171290729Y-109877489D01*
X171615585Y-110363670D01*
X171632566Y-110375016D01*
X171596235Y-110382243D01*
X171386191Y-110522591D01*
X171245843Y-110732635D01*
X171196560Y-110980400D01*
X171196560Y-112707600D01*
X171245843Y-112955365D01*
X171386191Y-113165409D01*
X171596235Y-113305757D01*
X171844000Y-113355040D01*
X173876000Y-113355040D01*
X174123765Y-113305757D01*
X174290000Y-113194681D01*
X174290000Y-114290000D01*
X125710000Y-114290000D01*
X125710000Y-100872971D01*
X127628821Y-100872971D01*
X127786058Y-101253515D01*
X127879000Y-101346619D01*
X127879000Y-101767195D01*
X127787081Y-101858954D01*
X127629180Y-102239223D01*
X127628821Y-102650971D01*
X127786058Y-103031515D01*
X128076954Y-103322919D01*
X128457223Y-103480820D01*
X128868971Y-103481179D01*
X129249515Y-103323942D01*
X129540919Y-103033046D01*
X129698820Y-102652777D01*
X129699179Y-102241029D01*
X129541942Y-101860485D01*
X129449000Y-101767381D01*
X129449000Y-101346805D01*
X129540919Y-101255046D01*
X129698820Y-100874777D01*
X129699179Y-100463029D01*
X129541942Y-100082485D01*
X129251046Y-99791081D01*
X128870777Y-99633180D01*
X128459029Y-99632821D01*
X128078485Y-99790058D01*
X127787081Y-100080954D01*
X127629180Y-100461223D01*
X127628821Y-100872971D01*
X125710000Y-100872971D01*
X125710000Y-97006214D01*
X133490000Y-97006214D01*
X133490000Y-101324214D01*
X133499667Y-101372815D01*
X133527197Y-101414017D01*
X133568399Y-101441547D01*
X133617000Y-101451214D01*
X139967000Y-101451214D01*
X140015601Y-101441547D01*
X140056803Y-101414017D01*
X140084333Y-101372815D01*
X140094000Y-101324214D01*
X140094000Y-99418747D01*
X140395211Y-99543820D01*
X140806959Y-99544179D01*
X141187503Y-99386942D01*
X141478907Y-99096046D01*
X141491000Y-99066923D01*
X141491000Y-101283317D01*
X141500667Y-101331918D01*
X141528197Y-101373120D01*
X141569399Y-101400650D01*
X141618000Y-101410317D01*
X147968000Y-101410317D01*
X148016601Y-101400650D01*
X148057803Y-101373120D01*
X148085333Y-101331918D01*
X148095000Y-101283317D01*
X148095000Y-96985000D01*
X149619000Y-96985000D01*
X149619000Y-101303000D01*
X149628667Y-101351601D01*
X149656197Y-101392803D01*
X149697399Y-101420333D01*
X149746000Y-101430000D01*
X156096000Y-101430000D01*
X156144601Y-101420333D01*
X156185803Y-101392803D01*
X156213333Y-101351601D01*
X156223000Y-101303000D01*
X156223000Y-98442619D01*
X157764613Y-98442619D01*
X158104155Y-99264372D01*
X158732321Y-99893636D01*
X159553481Y-100234611D01*
X160442619Y-100235387D01*
X161264372Y-99895845D01*
X161893636Y-99267679D01*
X162234611Y-98446519D01*
X162235387Y-97557381D01*
X161895845Y-96735628D01*
X161267679Y-96106364D01*
X160446519Y-95765389D01*
X159557381Y-95764613D01*
X158735628Y-96104155D01*
X158106364Y-96732321D01*
X157765389Y-97553481D01*
X157764613Y-98442619D01*
X156223000Y-98442619D01*
X156223000Y-96985000D01*
X156213333Y-96936399D01*
X156185803Y-96895197D01*
X156144601Y-96867667D01*
X156096000Y-96858000D01*
X149746000Y-96858000D01*
X149697399Y-96867667D01*
X149656197Y-96895197D01*
X149628667Y-96936399D01*
X149619000Y-96985000D01*
X148095000Y-96985000D01*
X148095000Y-96965317D01*
X148085333Y-96916716D01*
X148057803Y-96875514D01*
X148016601Y-96847984D01*
X147968000Y-96838317D01*
X143187029Y-96838317D01*
X143473519Y-96719942D01*
X143764923Y-96429046D01*
X143922824Y-96048777D01*
X143923183Y-95637029D01*
X143765946Y-95256485D01*
X143475050Y-94965081D01*
X143094781Y-94807180D01*
X143053924Y-94807144D01*
X140994131Y-92747351D01*
X140844942Y-92386285D01*
X140754594Y-92295779D01*
X165144286Y-92295779D01*
X165144286Y-92357966D01*
X165150002Y-92386702D01*
X165146908Y-92415834D01*
X165150750Y-92458151D01*
X165178601Y-92552551D01*
X165183481Y-92576295D01*
X165185246Y-92602586D01*
X165191469Y-92615155D01*
X165198419Y-92648967D01*
X165213468Y-92684652D01*
X165220742Y-92695390D01*
X165221412Y-92697660D01*
X165226785Y-92704310D01*
X165259570Y-92752704D01*
X165296044Y-92826375D01*
X165327587Y-92867349D01*
X165343673Y-92881412D01*
X165354392Y-92899891D01*
X165359080Y-92905215D01*
X165370524Y-92913960D01*
X165378296Y-92926087D01*
X165413382Y-92962540D01*
X165473614Y-93004472D01*
X165526207Y-93055652D01*
X165556365Y-93075215D01*
X165600465Y-93092782D01*
X165618325Y-93105216D01*
X165639134Y-93109770D01*
X165643087Y-93112986D01*
X165668596Y-93120606D01*
X165756163Y-93160819D01*
X165793896Y-93169819D01*
X165839056Y-93171527D01*
X165882354Y-93184461D01*
X165913635Y-93187408D01*
X165939662Y-93184733D01*
X165965258Y-93190175D01*
X166021208Y-93190910D01*
X166097582Y-93176758D01*
X166123638Y-93175894D01*
X166142699Y-93177454D01*
X166150301Y-93175010D01*
X166175210Y-93174184D01*
X166215040Y-93164879D01*
X166251880Y-93148168D01*
X166266744Y-93145414D01*
X166279235Y-93137303D01*
X166300051Y-93126866D01*
X166351240Y-93110408D01*
X166353829Y-93112264D01*
X166359251Y-93113529D01*
X166367694Y-93119609D01*
X166368567Y-93120007D01*
X166377354Y-93122077D01*
X166384824Y-93127148D01*
X166413943Y-93139459D01*
X166444201Y-93145708D01*
X166471305Y-93160544D01*
X166485730Y-93165077D01*
X166531889Y-93170088D01*
X166575395Y-93186301D01*
X166631060Y-93184298D01*
X166658497Y-93189964D01*
X166678949Y-93186051D01*
X166733986Y-93192025D01*
X166769014Y-93181779D01*
X166793680Y-93181912D01*
X166832669Y-93189964D01*
X166853121Y-93186051D01*
X166908158Y-93192025D01*
X166917910Y-93189173D01*
X166928499Y-93191789D01*
X166968358Y-93193619D01*
X167020859Y-93185659D01*
X167041277Y-93187001D01*
X167054375Y-93182557D01*
X167116640Y-93183145D01*
X167188366Y-93169580D01*
X167211634Y-93160198D01*
X167230363Y-93163553D01*
X167236893Y-93166847D01*
X167256720Y-93168326D01*
X167370993Y-93190892D01*
X167376649Y-93189759D01*
X167382326Y-93190776D01*
X167420301Y-93190051D01*
X167452768Y-93182946D01*
X167485916Y-93185418D01*
X167498411Y-93183887D01*
X167519074Y-93181531D01*
X167524621Y-93182096D01*
X167535393Y-93183435D01*
X167550148Y-93182360D01*
X167564385Y-93186369D01*
X167608001Y-93189783D01*
X167711159Y-93177529D01*
X167814898Y-93172190D01*
X167844210Y-93164776D01*
X167852056Y-93161043D01*
X167859070Y-93160494D01*
X167885177Y-93170858D01*
X167954428Y-93183571D01*
X168065143Y-93181933D01*
X168175818Y-93185279D01*
X168245163Y-93173652D01*
X168335365Y-93139445D01*
X168353280Y-93134446D01*
X168371179Y-93132542D01*
X168382816Y-93126205D01*
X168428295Y-93113515D01*
X168429257Y-93113028D01*
X168436636Y-93116524D01*
X168461124Y-93122674D01*
X168482502Y-93136102D01*
X168514762Y-93148410D01*
X168559496Y-93156003D01*
X168570249Y-93160617D01*
X168572743Y-93160649D01*
X168609036Y-93176296D01*
X168628027Y-93180358D01*
X168682749Y-93181144D01*
X168735947Y-93193988D01*
X168760536Y-93190126D01*
X168760956Y-93190197D01*
X168762882Y-93189757D01*
X168806401Y-93182921D01*
X168849927Y-93183547D01*
X168874576Y-93191118D01*
X168875468Y-93191209D01*
X168917641Y-93187204D01*
X168958971Y-93194127D01*
X168996443Y-93185482D01*
X169000387Y-93185665D01*
X169023770Y-93191051D01*
X169074205Y-93192567D01*
X169104587Y-93187467D01*
X169109254Y-93187901D01*
X169117851Y-93185241D01*
X169126823Y-93183735D01*
X169180078Y-93186964D01*
X169232018Y-93179867D01*
X169267339Y-93167684D01*
X169276278Y-93170217D01*
X169324528Y-93174076D01*
X169369952Y-93189322D01*
X169382595Y-93188450D01*
X169394817Y-93192016D01*
X169395341Y-93192062D01*
X169457655Y-93185256D01*
X169478011Y-93187833D01*
X169482201Y-93186688D01*
X169525199Y-93190127D01*
X169570446Y-93175489D01*
X169619075Y-93172134D01*
X169619142Y-93172101D01*
X169653759Y-93174869D01*
X169709170Y-93191557D01*
X169711690Y-93191304D01*
X169714131Y-93192016D01*
X169714655Y-93192062D01*
X169776969Y-93185256D01*
X169797325Y-93187833D01*
X169801515Y-93186688D01*
X169844513Y-93190127D01*
X169899108Y-93172465D01*
X169957634Y-93166582D01*
X169960106Y-93165255D01*
X169962894Y-93164950D01*
X170019062Y-93134157D01*
X170058199Y-93151701D01*
X170179629Y-93179503D01*
X170300659Y-93207405D01*
X170301141Y-93207324D01*
X170301616Y-93207433D01*
X170424300Y-93186674D01*
X170480462Y-93177257D01*
X170540479Y-93187373D01*
X170659693Y-93208907D01*
X170663427Y-93208096D01*
X170667197Y-93208731D01*
X170785259Y-93181620D01*
X170828634Y-93172194D01*
X170870701Y-93176855D01*
X170978346Y-93194304D01*
X171049173Y-93191778D01*
X171160870Y-93165389D01*
X171177613Y-93161997D01*
X171185963Y-93169167D01*
X171187754Y-93172189D01*
X171201374Y-93182398D01*
X171224900Y-93202598D01*
X171259150Y-93238203D01*
X171273289Y-93244384D01*
X171322518Y-93286917D01*
X171323477Y-93287235D01*
X171324244Y-93287893D01*
X171349973Y-93302390D01*
X171370382Y-93309080D01*
X171387568Y-93321962D01*
X171393376Y-93324745D01*
X171422291Y-93338624D01*
X171441336Y-93343511D01*
X171450100Y-93349961D01*
X171456400Y-93351515D01*
X171465894Y-93357594D01*
X171488282Y-93366360D01*
X171591123Y-93384739D01*
X171692551Y-93409753D01*
X171709198Y-93410510D01*
X171723312Y-93408364D01*
X171734102Y-93410292D01*
X171787212Y-93398647D01*
X171795624Y-93397368D01*
X171806359Y-93398533D01*
X171826052Y-93392772D01*
X171940856Y-93378262D01*
X171947975Y-93374201D01*
X171956075Y-93372969D01*
X172014542Y-93337635D01*
X172046031Y-93328424D01*
X172089513Y-93293456D01*
X172157759Y-93254524D01*
X172169452Y-93244376D01*
X172200788Y-93203972D01*
X172228373Y-93181789D01*
X172306810Y-93165601D01*
X172334944Y-93153710D01*
X172339241Y-93153607D01*
X172375282Y-93137651D01*
X172437445Y-93123621D01*
X172459304Y-93113903D01*
X172502957Y-93083088D01*
X172504711Y-93082683D01*
X172507203Y-93080906D01*
X172536825Y-93068386D01*
X172540761Y-93064393D01*
X172567581Y-93052520D01*
X172610148Y-93022571D01*
X172654264Y-92976279D01*
X172663311Y-92969892D01*
X172663686Y-92969299D01*
X172708015Y-92937682D01*
X172745373Y-92897973D01*
X172766068Y-92864857D01*
X172768338Y-92863198D01*
X172772642Y-92856129D01*
X172803262Y-92826854D01*
X172806793Y-92821817D01*
X172816924Y-92798831D01*
X172833683Y-92780116D01*
X172848034Y-92755843D01*
X172865771Y-92705316D01*
X172877712Y-92686208D01*
X172878325Y-92682546D01*
X172898198Y-92649905D01*
X172907685Y-92623959D01*
X172916955Y-92564314D01*
X172938162Y-92507798D01*
X172943766Y-92473642D01*
X172942596Y-92438963D01*
X172951234Y-92405356D01*
X172953938Y-92356452D01*
X172951926Y-92342291D01*
X172954874Y-92328295D01*
X172955661Y-92258112D01*
X172955038Y-92254784D01*
X172955701Y-92251464D01*
X172955714Y-92235729D01*
X172955206Y-92233164D01*
X172955697Y-92230599D01*
X172955661Y-92225591D01*
X172955659Y-92225581D01*
X172955661Y-92225570D01*
X172955157Y-92155791D01*
X172952778Y-92144267D01*
X172954571Y-92132636D01*
X172952301Y-92080383D01*
X172945153Y-92051145D01*
X172946955Y-92021098D01*
X172941983Y-91984887D01*
X172923372Y-91931044D01*
X172916703Y-91874470D01*
X172908058Y-91847820D01*
X172876771Y-91791890D01*
X172856793Y-91730994D01*
X172843501Y-91707417D01*
X172827232Y-91688478D01*
X172817647Y-91665427D01*
X172814709Y-91661044D01*
X172790544Y-91636945D01*
X172774190Y-91606986D01*
X172724820Y-91547898D01*
X172648532Y-91486406D01*
X172577774Y-91418616D01*
X172523978Y-91384314D01*
X172416425Y-91342440D01*
X172310161Y-91297345D01*
X172244669Y-91283729D01*
X172188393Y-91283243D01*
X172133555Y-91270618D01*
X172111315Y-91269952D01*
X172055347Y-91279353D01*
X171998662Y-91276531D01*
X171915390Y-91288828D01*
X171814130Y-91324985D01*
X171813321Y-91325225D01*
X171765755Y-91314096D01*
X171669280Y-91283687D01*
X171589544Y-91274962D01*
X171514893Y-91281500D01*
X171440151Y-91276157D01*
X171436343Y-91276635D01*
X171457459Y-91224318D01*
X171490988Y-91174048D01*
X171503742Y-91109651D01*
X171528310Y-91048781D01*
X171527762Y-90988363D01*
X171539501Y-90929089D01*
X171526640Y-90864714D01*
X171526045Y-90799075D01*
X171502418Y-90743466D01*
X171490580Y-90684212D01*
X171454063Y-90629659D01*
X171428394Y-90569245D01*
X171379668Y-90497734D01*
X171380706Y-90497737D01*
X171389923Y-90495934D01*
X171390432Y-90495725D01*
X171390986Y-90495726D01*
X171467186Y-90480686D01*
X171525892Y-90456471D01*
X171588174Y-90444082D01*
X171640195Y-90409323D01*
X171698034Y-90385465D01*
X171743004Y-90340627D01*
X171795805Y-90305347D01*
X171830565Y-90253325D01*
X171874871Y-90209150D01*
X171899259Y-90150518D01*
X171934540Y-90097716D01*
X171946746Y-90036351D01*
X171970774Y-89978585D01*
X171970868Y-89915084D01*
X171983257Y-89852799D01*
X171983257Y-89535492D01*
X171983153Y-89534967D01*
X171983256Y-89534443D01*
X171983085Y-89430105D01*
X171982620Y-89427788D01*
X171983061Y-89425463D01*
X171982359Y-89346522D01*
X171981187Y-89340894D01*
X171982159Y-89335227D01*
X171980641Y-89278052D01*
X171977742Y-89265264D01*
X171979435Y-89252263D01*
X171976820Y-89213225D01*
X171968857Y-89183675D01*
X171969923Y-89153089D01*
X171965926Y-89128555D01*
X171939953Y-89059098D01*
X171925463Y-88986368D01*
X171919800Y-88972709D01*
X171905334Y-88951073D01*
X171905006Y-88949640D01*
X171904122Y-88948395D01*
X171896950Y-88923580D01*
X171882522Y-88905519D01*
X171878461Y-88894659D01*
X171862085Y-88877100D01*
X171858381Y-88867513D01*
X171828508Y-88836170D01*
X171781003Y-88765120D01*
X171767525Y-88756120D01*
X171760383Y-88746067D01*
X171749879Y-88739475D01*
X171741092Y-88728476D01*
X171733480Y-88722059D01*
X171704530Y-88706091D01*
X171686095Y-88686748D01*
X171619468Y-88657257D01*
X171573329Y-88626448D01*
X171568110Y-88625411D01*
X171548865Y-88613335D01*
X171545742Y-88612145D01*
X171529107Y-88609329D01*
X171514823Y-88601450D01*
X171486143Y-88598243D01*
X171457749Y-88585675D01*
X171438914Y-88581456D01*
X171432161Y-88581294D01*
X171425928Y-88578688D01*
X171384318Y-88570270D01*
X171382492Y-88570264D01*
X171380805Y-88569570D01*
X171374760Y-88568382D01*
X171378194Y-88564612D01*
X171407096Y-88516655D01*
X171415168Y-88494267D01*
X171429857Y-88475545D01*
X171446821Y-88442061D01*
X171461770Y-88388586D01*
X171488028Y-88339665D01*
X171494751Y-88317641D01*
X171495952Y-88305664D01*
X171501248Y-88294854D01*
X171505108Y-88233556D01*
X171514051Y-88201566D01*
X171513527Y-88197221D01*
X171517046Y-88186010D01*
X171512773Y-88137862D01*
X171519659Y-88069171D01*
X171517088Y-88060641D01*
X171517710Y-88054302D01*
X171516622Y-88050718D01*
X171516942Y-88045632D01*
X171515118Y-88032054D01*
X171499275Y-87985773D01*
X171494971Y-87937272D01*
X171468501Y-87886579D01*
X171467327Y-87879062D01*
X171461689Y-87869817D01*
X171445152Y-87815360D01*
X171445106Y-87815274D01*
X171437912Y-87806513D01*
X171434244Y-87795798D01*
X171401999Y-87759220D01*
X171379388Y-87715916D01*
X171365039Y-87698082D01*
X171348520Y-87684256D01*
X171337305Y-87665867D01*
X171305568Y-87631387D01*
X171299931Y-87627273D01*
X171296171Y-87621395D01*
X171250484Y-87573846D01*
X171247158Y-87571526D01*
X171244930Y-87568137D01*
X171188736Y-87511091D01*
X171186073Y-87509282D01*
X171184278Y-87506610D01*
X171121014Y-87443643D01*
X171119620Y-87442716D01*
X171118680Y-87441332D01*
X171111547Y-87434304D01*
X171109209Y-87432767D01*
X171107619Y-87430468D01*
X171027891Y-87353261D01*
X171021100Y-87348879D01*
X171016339Y-87342349D01*
X170954812Y-87285659D01*
X170941323Y-87277423D01*
X170931403Y-87265121D01*
X170886839Y-87227900D01*
X170853335Y-87209619D01*
X170826045Y-87182945D01*
X170797210Y-87164150D01*
X170694647Y-87123032D01*
X170667632Y-87108292D01*
X170657076Y-87107160D01*
X170603688Y-87080509D01*
X170586638Y-87079308D01*
X170567818Y-87071680D01*
X170555117Y-87069254D01*
X170454726Y-87070018D01*
X170354589Y-87062966D01*
X170330649Y-87070963D01*
X170305409Y-87071155D01*
X170212963Y-87110275D01*
X170117739Y-87142084D01*
X170099203Y-87152666D01*
X170087587Y-87162754D01*
X170073246Y-87168312D01*
X170034779Y-87192757D01*
X170031389Y-87195994D01*
X170027039Y-87197753D01*
X170015342Y-87205425D01*
X170010056Y-87178231D01*
X170008613Y-87174704D01*
X170008585Y-87170895D01*
X170003417Y-87145873D01*
X169999906Y-87137569D01*
X169999590Y-87128558D01*
X169999500Y-87128176D01*
X169993066Y-87114064D01*
X169992275Y-87101182D01*
X169990728Y-87098013D01*
X169990325Y-87093592D01*
X169987179Y-87082948D01*
X169969433Y-87049163D01*
X169966546Y-87031543D01*
X169930502Y-86973423D01*
X169906168Y-86915872D01*
X169899898Y-86909694D01*
X169895916Y-86900958D01*
X169893411Y-86898622D01*
X169882745Y-86876770D01*
X169876630Y-86868732D01*
X169872954Y-86865481D01*
X169871059Y-86861874D01*
X169850921Y-86845102D01*
X169834935Y-86819325D01*
X169759312Y-86764996D01*
X169689558Y-86703318D01*
X169658665Y-86692690D01*
X169632130Y-86673627D01*
X169619381Y-86667832D01*
X169538993Y-86648986D01*
X169461862Y-86619528D01*
X169438815Y-86615608D01*
X169405406Y-86616540D01*
X169373123Y-86607902D01*
X169336114Y-86605490D01*
X169322634Y-86607270D01*
X169309364Y-86604308D01*
X169254729Y-86603038D01*
X169249359Y-86603977D01*
X169244021Y-86602879D01*
X169168097Y-86602385D01*
X169166285Y-86602733D01*
X169164472Y-86602371D01*
X169063595Y-86602286D01*
X169063325Y-86602339D01*
X169063056Y-86602286D01*
X169050000Y-86602286D01*
X169049809Y-86602324D01*
X169049618Y-86602286D01*
X168945708Y-86602348D01*
X168944147Y-86602660D01*
X168942586Y-86602358D01*
X168864042Y-86602788D01*
X168859256Y-86603767D01*
X168854443Y-86602912D01*
X168797599Y-86604076D01*
X168785591Y-86606721D01*
X168773411Y-86605029D01*
X168734604Y-86607294D01*
X168705389Y-86614899D01*
X168675235Y-86613549D01*
X168650801Y-86617282D01*
X168580444Y-86642802D01*
X168506929Y-86656860D01*
X168493204Y-86662426D01*
X168470841Y-86677130D01*
X168445063Y-86684309D01*
X168426985Y-86698465D01*
X168416052Y-86702430D01*
X168381057Y-86734426D01*
X168375977Y-86738404D01*
X168372233Y-86739919D01*
X168365953Y-86746097D01*
X168284553Y-86799620D01*
X168269522Y-86821759D01*
X168248449Y-86838259D01*
X168241771Y-86846026D01*
X168240385Y-86848483D01*
X168238181Y-86850239D01*
X168218318Y-86886156D01*
X168205667Y-86897871D01*
X168200696Y-86908679D01*
X168194222Y-86915048D01*
X168174352Y-86961933D01*
X168144285Y-87006218D01*
X168140195Y-87026011D01*
X168119039Y-87063499D01*
X168118699Y-87066295D01*
X168117333Y-87068765D01*
X168114037Y-87079097D01*
X168111344Y-87102940D01*
X168101318Y-87124739D01*
X168100998Y-87126077D01*
X168100620Y-87135909D01*
X168096781Y-87144968D01*
X168091775Y-87169104D01*
X168091742Y-87173118D01*
X168090222Y-87176832D01*
X168084653Y-87205452D01*
X168081357Y-87204112D01*
X168078490Y-87201350D01*
X168036101Y-87174157D01*
X168026135Y-87170245D01*
X168018182Y-87163073D01*
X167994834Y-87149158D01*
X167988014Y-87146737D01*
X167983481Y-87142783D01*
X167958813Y-87134482D01*
X167937262Y-87118703D01*
X167935046Y-87117671D01*
X167842609Y-87095118D01*
X167759507Y-87065616D01*
X167754864Y-87065856D01*
X167746805Y-87063144D01*
X167719263Y-87065023D01*
X167692447Y-87058480D01*
X167595524Y-87073464D01*
X167558347Y-87076001D01*
X167539930Y-87076951D01*
X167509724Y-87077598D01*
X167505093Y-87079634D01*
X167497669Y-87080140D01*
X167480701Y-87084735D01*
X167461742Y-87094147D01*
X167445663Y-87096633D01*
X167396264Y-87126654D01*
X167381994Y-87133739D01*
X167281116Y-87178077D01*
X167249424Y-87200248D01*
X167227603Y-87223024D01*
X167200096Y-87238470D01*
X167152446Y-87279262D01*
X167143930Y-87290090D01*
X167132215Y-87297338D01*
X167067369Y-87357796D01*
X167063445Y-87363246D01*
X167057808Y-87366896D01*
X166991609Y-87431218D01*
X166989578Y-87434165D01*
X166986594Y-87436144D01*
X166922777Y-87499529D01*
X166921012Y-87502151D01*
X166918396Y-87503923D01*
X166861281Y-87561762D01*
X166859135Y-87565018D01*
X166855933Y-87567243D01*
X166808958Y-87615967D01*
X166805492Y-87621364D01*
X166800298Y-87625128D01*
X166766900Y-87661163D01*
X166757455Y-87676530D01*
X166743456Y-87687911D01*
X166727075Y-87707685D01*
X166703692Y-87750949D01*
X166670691Y-87787421D01*
X166670083Y-87788439D01*
X166668577Y-87792659D01*
X166665618Y-87796021D01*
X166654891Y-87827439D01*
X166651831Y-87831199D01*
X166641832Y-87864657D01*
X166636145Y-87873909D01*
X166635688Y-87876768D01*
X166608341Y-87927366D01*
X166603394Y-87975319D01*
X166586154Y-88023628D01*
X166586378Y-88028101D01*
X166584930Y-88032341D01*
X166583119Y-88045911D01*
X166583918Y-88058434D01*
X166580324Y-88070458D01*
X166586934Y-88134853D01*
X166582713Y-88175764D01*
X166587479Y-88191740D01*
X166586230Y-88202182D01*
X166595098Y-88233770D01*
X166599010Y-88295120D01*
X166604541Y-88306386D01*
X166605822Y-88318868D01*
X166612643Y-88341029D01*
X166638827Y-88389535D01*
X166653725Y-88442603D01*
X166670868Y-88476348D01*
X166685435Y-88494872D01*
X166693436Y-88517037D01*
X166722583Y-88565359D01*
X166725340Y-88568383D01*
X166698689Y-88573668D01*
X166696128Y-88574727D01*
X166693355Y-88574749D01*
X166660407Y-88581574D01*
X166651400Y-88585389D01*
X166641626Y-88585760D01*
X166633545Y-88587689D01*
X166616619Y-88595465D01*
X166612063Y-88595735D01*
X166549447Y-88626123D01*
X166464980Y-88654315D01*
X166456632Y-88659078D01*
X166436841Y-88676256D01*
X166430463Y-88678957D01*
X166426806Y-88682672D01*
X166406632Y-88691941D01*
X166400753Y-88698285D01*
X166387406Y-88704762D01*
X166331556Y-88767641D01*
X166268047Y-88822764D01*
X166256587Y-88845706D01*
X166243595Y-88858119D01*
X166236100Y-88875108D01*
X166221573Y-88891463D01*
X166215272Y-88902220D01*
X166201368Y-88942345D01*
X166196284Y-88948635D01*
X166183441Y-88992143D01*
X166156458Y-89046161D01*
X166155661Y-89057436D01*
X166142800Y-89086588D01*
X166138261Y-89106967D01*
X166137834Y-89125691D01*
X166133510Y-89138170D01*
X166134650Y-89157425D01*
X166125585Y-89188133D01*
X166122526Y-89221769D01*
X166124369Y-89239149D01*
X166120331Y-89256150D01*
X166118468Y-89306671D01*
X166119681Y-89314213D01*
X166118090Y-89321688D01*
X166117139Y-89392725D01*
X166117732Y-89395932D01*
X166117086Y-89399126D01*
X166116764Y-89494311D01*
X166116948Y-89495253D01*
X166116760Y-89496197D01*
X166116743Y-89535213D01*
X166116771Y-89535353D01*
X166116743Y-89535492D01*
X166116743Y-89852799D01*
X166129132Y-89915082D01*
X166129226Y-89978585D01*
X166153254Y-90036351D01*
X166165460Y-90097716D01*
X166200741Y-90150518D01*
X166225129Y-90209150D01*
X166269435Y-90253325D01*
X166304195Y-90305347D01*
X166356996Y-90340627D01*
X166401966Y-90385465D01*
X166459805Y-90409323D01*
X166511826Y-90444082D01*
X166574108Y-90456471D01*
X166632814Y-90480686D01*
X166709014Y-90495726D01*
X166710582Y-90495724D01*
X166712033Y-90496314D01*
X166720350Y-90497914D01*
X166671376Y-90569952D01*
X166645902Y-90630084D01*
X166609570Y-90684360D01*
X166597667Y-90743942D01*
X166573967Y-90799885D01*
X166573443Y-90865194D01*
X166560649Y-90929237D01*
X166572452Y-90988836D01*
X166571965Y-91049593D01*
X166596473Y-91110130D01*
X166609161Y-91174195D01*
X166642874Y-91224742D01*
X166665674Y-91281059D01*
X166711481Y-91327606D01*
X166723762Y-91346020D01*
X166666188Y-91336770D01*
X166578788Y-91312749D01*
X166509047Y-91307728D01*
X166425760Y-91318149D01*
X166341826Y-91317669D01*
X166276136Y-91330345D01*
X166237246Y-91346194D01*
X166152427Y-91332618D01*
X166048585Y-91309652D01*
X165978165Y-91308151D01*
X165886122Y-91324429D01*
X165792922Y-91331442D01*
X165724800Y-91350401D01*
X165637258Y-91394628D01*
X165546275Y-91431234D01*
X165488849Y-91468765D01*
X165419905Y-91536320D01*
X165345147Y-91597397D01*
X165317449Y-91630996D01*
X165310963Y-91643067D01*
X165310486Y-91643534D01*
X165309620Y-91645566D01*
X165265594Y-91727499D01*
X165209096Y-91821363D01*
X165187153Y-91882331D01*
X165172491Y-91979919D01*
X165149755Y-92075957D01*
X165148012Y-92124201D01*
X165153029Y-92155245D01*
X165148790Y-92186404D01*
X165152738Y-92250912D01*
X165153007Y-92251934D01*
X165144286Y-92295779D01*
X140754594Y-92295779D01*
X140554046Y-92094881D01*
X140173777Y-91936980D01*
X139762029Y-91936621D01*
X139381485Y-92093858D01*
X139090081Y-92384754D01*
X138932180Y-92765023D01*
X138932061Y-92901838D01*
X138912019Y-92901821D01*
X138531475Y-93059058D01*
X138240071Y-93349954D01*
X138082170Y-93730223D01*
X138081811Y-94141971D01*
X138239048Y-94522515D01*
X138395678Y-94679419D01*
X138069730Y-94814097D01*
X137778326Y-95104993D01*
X137620425Y-95485262D01*
X137620066Y-95897010D01*
X137770245Y-96260472D01*
X137770245Y-96435240D01*
X137770244Y-96435245D01*
X137814879Y-96659633D01*
X137837612Y-96773920D01*
X137907967Y-96879214D01*
X133617000Y-96879214D01*
X133568399Y-96888881D01*
X133527197Y-96916411D01*
X133499667Y-96957613D01*
X133490000Y-97006214D01*
X125710000Y-97006214D01*
X125710000Y-86442619D01*
X136264613Y-86442619D01*
X136604155Y-87264372D01*
X137232321Y-87893636D01*
X138053481Y-88234611D01*
X138942619Y-88235387D01*
X139764372Y-87895845D01*
X140393636Y-87267679D01*
X140734611Y-86446519D01*
X140735387Y-85557381D01*
X140395845Y-84735628D01*
X139767679Y-84106364D01*
X138946519Y-83765389D01*
X138057381Y-83764613D01*
X137235628Y-84104155D01*
X136606364Y-84732321D01*
X136265389Y-85553481D01*
X136264613Y-86442619D01*
X125710000Y-86442619D01*
X125710000Y-78393971D01*
X134359821Y-78393971D01*
X134517058Y-78774515D01*
X134807954Y-79065919D01*
X135188223Y-79223820D01*
X135599971Y-79224179D01*
X135980515Y-79066942D01*
X136271919Y-78776046D01*
X136429820Y-78395777D01*
X136429935Y-78264223D01*
X136468657Y-78225501D01*
X136931890Y-78225501D01*
X136931504Y-78666844D01*
X137103219Y-79082427D01*
X137332759Y-79312368D01*
X137030985Y-79437059D01*
X136517861Y-79949289D01*
X136239817Y-80618892D01*
X136239184Y-81343927D01*
X136516059Y-82014015D01*
X137028289Y-82527139D01*
X137697892Y-82805183D01*
X138422927Y-82805816D01*
X139093015Y-82528941D01*
X139606139Y-82016711D01*
X139884183Y-81347108D01*
X139884515Y-80967252D01*
X140014954Y-81097919D01*
X140395223Y-81255820D01*
X140806971Y-81256179D01*
X141187515Y-81098942D01*
X141478919Y-80808046D01*
X141636820Y-80427777D01*
X141637179Y-80016029D01*
X141479942Y-79635485D01*
X141387000Y-79542381D01*
X141387000Y-78387158D01*
X142427079Y-77347079D01*
X142513817Y-77217266D01*
X142743289Y-77447139D01*
X143412892Y-77725183D01*
X144137927Y-77725816D01*
X144551589Y-77554894D01*
X144551504Y-77651844D01*
X144723219Y-78067427D01*
X145040900Y-78385663D01*
X145178809Y-78442928D01*
X145042573Y-78499219D01*
X144724337Y-78816900D01*
X144551897Y-79232183D01*
X144551810Y-79331356D01*
X144141108Y-79160817D01*
X143416073Y-79160184D01*
X142745985Y-79437059D01*
X142232861Y-79949289D01*
X141954817Y-80618892D01*
X141954184Y-81343927D01*
X142231059Y-82014015D01*
X142743289Y-82527139D01*
X143412892Y-82805183D01*
X144137927Y-82805816D01*
X144151722Y-82800116D01*
X143955904Y-82995934D01*
X143826025Y-82995821D01*
X143445481Y-83153058D01*
X143154077Y-83443954D01*
X142996176Y-83824223D01*
X142995817Y-84235971D01*
X143153054Y-84616515D01*
X143443950Y-84907919D01*
X143824219Y-85065820D01*
X144235967Y-85066179D01*
X144616511Y-84908942D01*
X144907915Y-84618046D01*
X145065816Y-84237777D01*
X145065931Y-84106223D01*
X146364079Y-82808075D01*
X146534245Y-82553403D01*
X146594000Y-82252996D01*
X146594000Y-81534805D01*
X146685919Y-81443046D01*
X146843820Y-81062777D01*
X146843873Y-81001906D01*
X147156971Y-81002179D01*
X147537515Y-80844942D01*
X147702774Y-80679971D01*
X157346821Y-80679971D01*
X157504058Y-81060515D01*
X157794954Y-81351919D01*
X158175223Y-81509820D01*
X158306777Y-81509935D01*
X158717669Y-81920827D01*
X158717669Y-86930526D01*
X158625750Y-87022285D01*
X158467849Y-87402554D01*
X158467490Y-87814302D01*
X158624727Y-88194846D01*
X158915623Y-88486250D01*
X159295892Y-88644151D01*
X159707640Y-88644510D01*
X160088184Y-88487273D01*
X160379588Y-88196377D01*
X160537489Y-87816108D01*
X160537848Y-87404360D01*
X160380611Y-87023816D01*
X160287669Y-86930712D01*
X160287669Y-81595669D01*
X160227914Y-81295263D01*
X160227914Y-81295262D01*
X160057748Y-81040590D01*
X159417066Y-80399908D01*
X159417179Y-80270029D01*
X159259942Y-79889485D01*
X158969046Y-79598081D01*
X158588777Y-79440180D01*
X158177029Y-79439821D01*
X157796485Y-79597058D01*
X157505081Y-79887954D01*
X157347180Y-80268223D01*
X157346821Y-80679971D01*
X147702774Y-80679971D01*
X147828919Y-80554046D01*
X147986820Y-80173777D01*
X147986935Y-80042223D01*
X148293158Y-79736000D01*
X148305195Y-79736000D01*
X148396954Y-79827919D01*
X148777223Y-79985820D01*
X149188971Y-79986179D01*
X149569515Y-79828942D01*
X149860919Y-79538046D01*
X150018820Y-79157777D01*
X150019179Y-78746029D01*
X149955949Y-78593000D01*
X152242195Y-78593000D01*
X152333954Y-78684919D01*
X152714223Y-78842820D01*
X153125971Y-78843179D01*
X153506515Y-78685942D01*
X153797919Y-78395046D01*
X153955820Y-78014777D01*
X153956179Y-77603029D01*
X153798942Y-77222485D01*
X153508046Y-76931081D01*
X153127777Y-76773180D01*
X152716029Y-76772821D01*
X152335485Y-76930058D01*
X152242381Y-77023000D01*
X147206005Y-77023000D01*
X147206000Y-77022999D01*
X146905594Y-77082755D01*
X146793329Y-77157768D01*
X146640781Y-76788573D01*
X146323100Y-76470337D01*
X145907817Y-76297897D01*
X145586515Y-76297616D01*
X145599183Y-76267108D01*
X145599816Y-75542073D01*
X145408757Y-75079675D01*
X145635584Y-75231235D01*
X145935990Y-75290990D01*
X147289195Y-75290990D01*
X147380954Y-75382909D01*
X147761223Y-75540810D01*
X148172971Y-75541169D01*
X148553515Y-75383932D01*
X148844919Y-75093036D01*
X149002820Y-74712767D01*
X149003179Y-74301019D01*
X148845942Y-73920475D01*
X148555046Y-73629071D01*
X148174777Y-73471170D01*
X147763029Y-73470811D01*
X147382485Y-73628048D01*
X147289381Y-73720990D01*
X146336131Y-73720990D01*
X146336179Y-73666029D01*
X146178942Y-73285485D01*
X145888046Y-72994081D01*
X145507777Y-72836180D01*
X145096029Y-72835821D01*
X144715485Y-72993058D01*
X144424081Y-73283954D01*
X144266180Y-73664223D01*
X144265821Y-74075971D01*
X144294067Y-74144331D01*
X144141108Y-74080817D01*
X143416073Y-74080184D01*
X142745985Y-74357059D01*
X142436144Y-74666360D01*
X142427079Y-74652793D01*
X142185488Y-74411202D01*
X142185601Y-74281323D01*
X142028364Y-73900779D01*
X141737468Y-73609375D01*
X141357199Y-73451474D01*
X140945451Y-73451115D01*
X140564907Y-73608352D01*
X140273503Y-73899248D01*
X140115602Y-74279517D01*
X140115243Y-74691265D01*
X140272480Y-75071809D01*
X140501887Y-75301617D01*
X140233081Y-75569954D01*
X140075180Y-75950223D01*
X140075065Y-76081777D01*
X139880241Y-76276602D01*
X139884183Y-76267108D01*
X139884816Y-75542073D01*
X139607941Y-74871985D01*
X139095711Y-74358861D01*
X138426108Y-74080817D01*
X137701073Y-74080184D01*
X137030985Y-74357059D01*
X136517861Y-74869289D01*
X136239817Y-75538892D01*
X136239184Y-76263927D01*
X136400979Y-76655501D01*
X136143499Y-76655501D01*
X135843093Y-76715256D01*
X135699533Y-76811179D01*
X135588420Y-76885422D01*
X135319908Y-77153934D01*
X135190029Y-77153821D01*
X134809485Y-77311058D01*
X134518081Y-77601954D01*
X134360180Y-77982223D01*
X134359821Y-78393971D01*
X125710000Y-78393971D01*
X125710000Y-73110430D01*
X128430132Y-73110430D01*
X128594902Y-73509203D01*
X128899733Y-73814566D01*
X129298217Y-73980031D01*
X129729690Y-73980408D01*
X130128463Y-73815638D01*
X130433826Y-73510807D01*
X130599291Y-73112323D01*
X130599668Y-72680850D01*
X130434898Y-72282077D01*
X130130067Y-71976714D01*
X129731583Y-71811249D01*
X129300110Y-71810872D01*
X128901337Y-71975642D01*
X128595974Y-72280473D01*
X128430509Y-72678957D01*
X128430132Y-73110430D01*
X125710000Y-73110430D01*
X125710000Y-68711150D01*
X128430132Y-68711150D01*
X128594902Y-69109923D01*
X128899733Y-69415286D01*
X129298217Y-69580751D01*
X129729690Y-69581128D01*
X130128463Y-69416358D01*
X130433826Y-69111527D01*
X130599291Y-68713043D01*
X130599668Y-68281570D01*
X130434898Y-67882797D01*
X130130067Y-67577434D01*
X129731583Y-67411969D01*
X129300110Y-67411592D01*
X128901337Y-67576362D01*
X128595974Y-67881193D01*
X128430509Y-68279677D01*
X128430132Y-68711150D01*
X125710000Y-68711150D01*
X125710000Y-67268944D01*
X136202025Y-67268944D01*
X136401615Y-67750818D01*
X136839621Y-68223188D01*
X137425054Y-68491983D01*
X137681000Y-68373367D01*
X137681000Y-67013000D01*
X136321164Y-67013000D01*
X136202025Y-67268944D01*
X125710000Y-67268944D01*
X125710000Y-65710000D01*
X136690159Y-65710000D01*
X136401615Y-66021182D01*
X136401615Y-66021182D01*
G37*
X136401615Y-66021182D02*
X136202025Y-66503056D01*
X136321164Y-66759000D01*
X137681000Y-66759000D01*
X137681000Y-66739000D01*
X137935000Y-66739000D01*
X137935000Y-66759000D01*
X137955000Y-66759000D01*
X137955000Y-67013000D01*
X137935000Y-67013000D01*
X137935000Y-68373367D01*
X138190946Y-68491983D01*
X138776379Y-68223188D01*
X138780171Y-68219099D01*
X138874191Y-68359809D01*
X139084235Y-68500157D01*
X139332000Y-68549440D01*
X141364000Y-68549440D01*
X141466724Y-68529007D01*
X141502058Y-68614521D01*
X141792954Y-68905925D01*
X142173223Y-69063826D01*
X142584971Y-69064185D01*
X142965515Y-68906948D01*
X143256919Y-68616052D01*
X143414820Y-68235783D01*
X143415179Y-67824035D01*
X143295409Y-67534169D01*
X144059447Y-66770131D01*
X144420514Y-66620942D01*
X144609787Y-66431999D01*
X149242000Y-66431999D01*
X149242000Y-71457995D01*
X149241999Y-71458000D01*
X149298190Y-71740484D01*
X149309367Y-71796675D01*
X149413268Y-71952175D01*
X149501210Y-72083790D01*
X152784209Y-75366788D01*
X152784211Y-75366791D01*
X152947046Y-75475593D01*
X153071327Y-75558635D01*
X153410001Y-75626002D01*
X153410006Y-75626001D01*
X153525527Y-75626001D01*
X153567058Y-75726515D01*
X153857954Y-76017919D01*
X154238223Y-76175820D01*
X154649971Y-76176179D01*
X155030515Y-76018942D01*
X155321919Y-75728046D01*
X155479820Y-75347777D01*
X155480179Y-74936029D01*
X155322942Y-74555485D01*
X155032046Y-74264081D01*
X154666301Y-74112211D01*
X154612064Y-74075971D01*
X154383676Y-73923368D01*
X154327485Y-73912191D01*
X154045001Y-73856000D01*
X154044996Y-73856001D01*
X153776580Y-73856001D01*
X151012000Y-71091420D01*
X151012000Y-69982800D01*
X161441722Y-69982800D01*
X161284172Y-70362223D01*
X161283998Y-70561845D01*
X159322908Y-72522934D01*
X159193029Y-72522821D01*
X158812485Y-72680058D01*
X158521081Y-72970954D01*
X158363180Y-73351223D01*
X158362821Y-73762971D01*
X158502904Y-74102000D01*
X157696200Y-74102000D01*
X157395794Y-74161755D01*
X157141121Y-74331921D01*
X157141119Y-74331924D01*
X157138509Y-74334534D01*
X157008629Y-74334421D01*
X156628085Y-74491658D01*
X156336681Y-74782554D01*
X156178780Y-75162823D01*
X156178421Y-75574571D01*
X156335658Y-75955115D01*
X156626554Y-76246519D01*
X157006823Y-76404420D01*
X157418571Y-76404779D01*
X157509671Y-76367138D01*
X157794954Y-76652919D01*
X158175223Y-76810820D01*
X158586971Y-76811179D01*
X158967515Y-76653942D01*
X159060619Y-76561000D01*
X159652000Y-76561000D01*
X159952407Y-76501245D01*
X160207079Y-76331079D01*
X160442294Y-76095864D01*
X160552058Y-76361515D01*
X160842954Y-76652919D01*
X161223223Y-76810820D01*
X161634971Y-76811179D01*
X162015515Y-76653942D01*
X162108619Y-76561000D01*
X163898842Y-76561000D01*
X164966934Y-77629092D01*
X164966821Y-77758971D01*
X165124058Y-78139515D01*
X165414954Y-78430919D01*
X165795223Y-78588820D01*
X166206971Y-78589179D01*
X166587515Y-78431942D01*
X166636831Y-78382712D01*
X166684954Y-78430919D01*
X167065223Y-78588820D01*
X167476971Y-78589179D01*
X167857515Y-78431942D01*
X168148919Y-78141046D01*
X168306820Y-77760777D01*
X168307179Y-77349029D01*
X168149942Y-76968485D01*
X167859046Y-76677081D01*
X167478777Y-76519180D01*
X167347223Y-76519065D01*
X166108505Y-75280347D01*
X166472515Y-75129942D01*
X166565619Y-75037000D01*
X166847195Y-75037000D01*
X166938954Y-75128919D01*
X167319223Y-75286820D01*
X167730971Y-75287179D01*
X168111515Y-75129942D01*
X168402919Y-74839046D01*
X168560820Y-74458777D01*
X168561179Y-74047029D01*
X168403942Y-73666485D01*
X168113046Y-73375081D01*
X167732777Y-73217180D01*
X167321029Y-73216821D01*
X166940485Y-73374058D01*
X166847381Y-73467000D01*
X166565805Y-73467000D01*
X166474046Y-73375081D01*
X166093777Y-73217180D01*
X165682029Y-73216821D01*
X165301485Y-73374058D01*
X165010081Y-73664954D01*
X164852180Y-74045223D01*
X164851991Y-74262480D01*
X164743999Y-74240999D01*
X161419810Y-74240999D01*
X161638748Y-74022061D01*
X161768627Y-74022174D01*
X162149171Y-73864937D01*
X162440575Y-73574041D01*
X162598476Y-73193772D01*
X162598835Y-72782024D01*
X162441598Y-72401480D01*
X162150702Y-72110076D01*
X162013184Y-72052974D01*
X162462032Y-71604125D01*
X162523963Y-71604179D01*
X162904507Y-71446942D01*
X163195911Y-71156046D01*
X163353812Y-70775777D01*
X163354171Y-70364029D01*
X163196934Y-69983485D01*
X162906038Y-69692081D01*
X162827000Y-69659262D01*
X162827000Y-66431999D01*
X166198960Y-66431999D01*
X166198960Y-68266000D01*
X166248243Y-68513765D01*
X166388591Y-68723809D01*
X166598635Y-68864157D01*
X166846400Y-68913440D01*
X168573600Y-68913440D01*
X168821365Y-68864157D01*
X169031409Y-68723809D01*
X169171757Y-68513765D01*
X169178984Y-68477434D01*
X169190330Y-68494415D01*
X169676511Y-68819271D01*
X170250000Y-68933345D01*
X170823489Y-68819271D01*
X171309670Y-68494415D01*
X171516461Y-68184931D01*
X171887964Y-68600732D01*
X172415209Y-68854709D01*
X172430974Y-68857358D01*
X172663000Y-68736217D01*
X172663000Y-67377000D01*
X172643000Y-67377000D01*
X172643000Y-67123000D01*
X172663000Y-67123000D01*
X172663000Y-67103000D01*
X172917000Y-67103000D01*
X172917000Y-67123000D01*
X172937000Y-67123000D01*
X172937000Y-67377000D01*
X172917000Y-67377000D01*
X172917000Y-68736217D01*
X173149026Y-68857358D01*
X173164791Y-68854709D01*
X173218610Y-68828784D01*
X173218610Y-92566385D01*
X173218609Y-92566390D01*
X173273439Y-92842031D01*
X173285977Y-92905065D01*
X173464426Y-93172134D01*
X173477820Y-93192180D01*
X173626000Y-93340360D01*
X173626000Y-93568960D01*
X171844000Y-93568960D01*
X171596235Y-93618243D01*
X171386191Y-93758591D01*
X171245843Y-93968635D01*
X171196560Y-94216400D01*
X171196560Y-95943600D01*
X171245843Y-96191365D01*
X171386191Y-96401409D01*
X171596235Y-96541757D01*
X171632566Y-96548984D01*
X171615585Y-96560330D01*
X171290729Y-97046511D01*
X171176655Y-97620000D01*
X171290729Y-98193489D01*
X171615585Y-98679670D01*
X171930366Y-98890000D01*
X171615585Y-99100330D01*
X171290729Y-99586511D01*
X171176655Y-100160000D01*
X171290729Y-100733489D01*
X171615585Y-101219670D01*
X171696541Y-101273763D01*
X171415777Y-101157180D01*
X171004029Y-101156821D01*
X170623485Y-101314058D01*
X170332081Y-101604954D01*
X170174180Y-101985223D01*
X170173821Y-102396971D01*
X170331058Y-102777515D01*
X170621954Y-103068919D01*
X171002223Y-103226820D01*
X171413971Y-103227179D01*
X171777433Y-103077000D01*
X171783442Y-103077000D01*
X171509268Y-103321964D01*
X171255291Y-103849209D01*
X171252642Y-103864974D01*
X171373783Y-104097000D01*
X172733000Y-104097000D01*
X172733000Y-104077000D01*
X172987000Y-104077000D01*
X172987000Y-104097000D01*
X173007000Y-104097000D01*
X173007000Y-104351000D01*
X172987000Y-104351000D01*
X172987000Y-104371000D01*
X172733000Y-104371000D01*
X172733000Y-104351000D01*
X171373783Y-104351000D01*
X171252642Y-104583026D01*
X171255291Y-104598791D01*
X171509268Y-105126036D01*
X171925069Y-105497539D01*
X171615585Y-105704330D01*
X171290729Y-106190511D01*
X171176655Y-106764000D01*
X171290729Y-107337489D01*
X171615585Y-107823670D01*
X171930366Y-108034000D01*
X171615585Y-108244330D01*
X171290729Y-108730511D01*
X171176655Y-109304000D01*
X171290729Y-109877489D01*
X171615585Y-110363670D01*
X171632566Y-110375016D01*
X171596235Y-110382243D01*
X171386191Y-110522591D01*
X171245843Y-110732635D01*
X171196560Y-110980400D01*
X171196560Y-112707600D01*
X171245843Y-112955365D01*
X171386191Y-113165409D01*
X171596235Y-113305757D01*
X171844000Y-113355040D01*
X173876000Y-113355040D01*
X174123765Y-113305757D01*
X174290000Y-113194681D01*
X174290000Y-114290000D01*
X125710000Y-114290000D01*
X125710000Y-100872971D01*
X127628821Y-100872971D01*
X127786058Y-101253515D01*
X127879000Y-101346619D01*
X127879000Y-101767195D01*
X127787081Y-101858954D01*
X127629180Y-102239223D01*
X127628821Y-102650971D01*
X127786058Y-103031515D01*
X128076954Y-103322919D01*
X128457223Y-103480820D01*
X128868971Y-103481179D01*
X129249515Y-103323942D01*
X129540919Y-103033046D01*
X129698820Y-102652777D01*
X129699179Y-102241029D01*
X129541942Y-101860485D01*
X129449000Y-101767381D01*
X129449000Y-101346805D01*
X129540919Y-101255046D01*
X129698820Y-100874777D01*
X129699179Y-100463029D01*
X129541942Y-100082485D01*
X129251046Y-99791081D01*
X128870777Y-99633180D01*
X128459029Y-99632821D01*
X128078485Y-99790058D01*
X127787081Y-100080954D01*
X127629180Y-100461223D01*
X127628821Y-100872971D01*
X125710000Y-100872971D01*
X125710000Y-97006214D01*
X133490000Y-97006214D01*
X133490000Y-101324214D01*
X133499667Y-101372815D01*
X133527197Y-101414017D01*
X133568399Y-101441547D01*
X133617000Y-101451214D01*
X139967000Y-101451214D01*
X140015601Y-101441547D01*
X140056803Y-101414017D01*
X140084333Y-101372815D01*
X140094000Y-101324214D01*
X140094000Y-99418747D01*
X140395211Y-99543820D01*
X140806959Y-99544179D01*
X141187503Y-99386942D01*
X141478907Y-99096046D01*
X141491000Y-99066923D01*
X141491000Y-101283317D01*
X141500667Y-101331918D01*
X141528197Y-101373120D01*
X141569399Y-101400650D01*
X141618000Y-101410317D01*
X147968000Y-101410317D01*
X148016601Y-101400650D01*
X148057803Y-101373120D01*
X148085333Y-101331918D01*
X148095000Y-101283317D01*
X148095000Y-96985000D01*
X149619000Y-96985000D01*
X149619000Y-101303000D01*
X149628667Y-101351601D01*
X149656197Y-101392803D01*
X149697399Y-101420333D01*
X149746000Y-101430000D01*
X156096000Y-101430000D01*
X156144601Y-101420333D01*
X156185803Y-101392803D01*
X156213333Y-101351601D01*
X156223000Y-101303000D01*
X156223000Y-98442619D01*
X157764613Y-98442619D01*
X158104155Y-99264372D01*
X158732321Y-99893636D01*
X159553481Y-100234611D01*
X160442619Y-100235387D01*
X161264372Y-99895845D01*
X161893636Y-99267679D01*
X162234611Y-98446519D01*
X162235387Y-97557381D01*
X161895845Y-96735628D01*
X161267679Y-96106364D01*
X160446519Y-95765389D01*
X159557381Y-95764613D01*
X158735628Y-96104155D01*
X158106364Y-96732321D01*
X157765389Y-97553481D01*
X157764613Y-98442619D01*
X156223000Y-98442619D01*
X156223000Y-96985000D01*
X156213333Y-96936399D01*
X156185803Y-96895197D01*
X156144601Y-96867667D01*
X156096000Y-96858000D01*
X149746000Y-96858000D01*
X149697399Y-96867667D01*
X149656197Y-96895197D01*
X149628667Y-96936399D01*
X149619000Y-96985000D01*
X148095000Y-96985000D01*
X148095000Y-96965317D01*
X148085333Y-96916716D01*
X148057803Y-96875514D01*
X148016601Y-96847984D01*
X147968000Y-96838317D01*
X143187029Y-96838317D01*
X143473519Y-96719942D01*
X143764923Y-96429046D01*
X143922824Y-96048777D01*
X143923183Y-95637029D01*
X143765946Y-95256485D01*
X143475050Y-94965081D01*
X143094781Y-94807180D01*
X143053924Y-94807144D01*
X140994131Y-92747351D01*
X140844942Y-92386285D01*
X140754594Y-92295779D01*
X165144286Y-92295779D01*
X165144286Y-92357966D01*
X165150002Y-92386702D01*
X165146908Y-92415834D01*
X165150750Y-92458151D01*
X165178601Y-92552551D01*
X165183481Y-92576295D01*
X165185246Y-92602586D01*
X165191469Y-92615155D01*
X165198419Y-92648967D01*
X165213468Y-92684652D01*
X165220742Y-92695390D01*
X165221412Y-92697660D01*
X165226785Y-92704310D01*
X165259570Y-92752704D01*
X165296044Y-92826375D01*
X165327587Y-92867349D01*
X165343673Y-92881412D01*
X165354392Y-92899891D01*
X165359080Y-92905215D01*
X165370524Y-92913960D01*
X165378296Y-92926087D01*
X165413382Y-92962540D01*
X165473614Y-93004472D01*
X165526207Y-93055652D01*
X165556365Y-93075215D01*
X165600465Y-93092782D01*
X165618325Y-93105216D01*
X165639134Y-93109770D01*
X165643087Y-93112986D01*
X165668596Y-93120606D01*
X165756163Y-93160819D01*
X165793896Y-93169819D01*
X165839056Y-93171527D01*
X165882354Y-93184461D01*
X165913635Y-93187408D01*
X165939662Y-93184733D01*
X165965258Y-93190175D01*
X166021208Y-93190910D01*
X166097582Y-93176758D01*
X166123638Y-93175894D01*
X166142699Y-93177454D01*
X166150301Y-93175010D01*
X166175210Y-93174184D01*
X166215040Y-93164879D01*
X166251880Y-93148168D01*
X166266744Y-93145414D01*
X166279235Y-93137303D01*
X166300051Y-93126866D01*
X166351240Y-93110408D01*
X166353829Y-93112264D01*
X166359251Y-93113529D01*
X166367694Y-93119609D01*
X166368567Y-93120007D01*
X166377354Y-93122077D01*
X166384824Y-93127148D01*
X166413943Y-93139459D01*
X166444201Y-93145708D01*
X166471305Y-93160544D01*
X166485730Y-93165077D01*
X166531889Y-93170088D01*
X166575395Y-93186301D01*
X166631060Y-93184298D01*
X166658497Y-93189964D01*
X166678949Y-93186051D01*
X166733986Y-93192025D01*
X166769014Y-93181779D01*
X166793680Y-93181912D01*
X166832669Y-93189964D01*
X166853121Y-93186051D01*
X166908158Y-93192025D01*
X166917910Y-93189173D01*
X166928499Y-93191789D01*
X166968358Y-93193619D01*
X167020859Y-93185659D01*
X167041277Y-93187001D01*
X167054375Y-93182557D01*
X167116640Y-93183145D01*
X167188366Y-93169580D01*
X167211634Y-93160198D01*
X167230363Y-93163553D01*
X167236893Y-93166847D01*
X167256720Y-93168326D01*
X167370993Y-93190892D01*
X167376649Y-93189759D01*
X167382326Y-93190776D01*
X167420301Y-93190051D01*
X167452768Y-93182946D01*
X167485916Y-93185418D01*
X167498411Y-93183887D01*
X167519074Y-93181531D01*
X167524621Y-93182096D01*
X167535393Y-93183435D01*
X167550148Y-93182360D01*
X167564385Y-93186369D01*
X167608001Y-93189783D01*
X167711159Y-93177529D01*
X167814898Y-93172190D01*
X167844210Y-93164776D01*
X167852056Y-93161043D01*
X167859070Y-93160494D01*
X167885177Y-93170858D01*
X167954428Y-93183571D01*
X168065143Y-93181933D01*
X168175818Y-93185279D01*
X168245163Y-93173652D01*
X168335365Y-93139445D01*
X168353280Y-93134446D01*
X168371179Y-93132542D01*
X168382816Y-93126205D01*
X168428295Y-93113515D01*
X168429257Y-93113028D01*
X168436636Y-93116524D01*
X168461124Y-93122674D01*
X168482502Y-93136102D01*
X168514762Y-93148410D01*
X168559496Y-93156003D01*
X168570249Y-93160617D01*
X168572743Y-93160649D01*
X168609036Y-93176296D01*
X168628027Y-93180358D01*
X168682749Y-93181144D01*
X168735947Y-93193988D01*
X168760536Y-93190126D01*
X168760956Y-93190197D01*
X168762882Y-93189757D01*
X168806401Y-93182921D01*
X168849927Y-93183547D01*
X168874576Y-93191118D01*
X168875468Y-93191209D01*
X168917641Y-93187204D01*
X168958971Y-93194127D01*
X168996443Y-93185482D01*
X169000387Y-93185665D01*
X169023770Y-93191051D01*
X169074205Y-93192567D01*
X169104587Y-93187467D01*
X169109254Y-93187901D01*
X169117851Y-93185241D01*
X169126823Y-93183735D01*
X169180078Y-93186964D01*
X169232018Y-93179867D01*
X169267339Y-93167684D01*
X169276278Y-93170217D01*
X169324528Y-93174076D01*
X169369952Y-93189322D01*
X169382595Y-93188450D01*
X169394817Y-93192016D01*
X169395341Y-93192062D01*
X169457655Y-93185256D01*
X169478011Y-93187833D01*
X169482201Y-93186688D01*
X169525199Y-93190127D01*
X169570446Y-93175489D01*
X169619075Y-93172134D01*
X169619142Y-93172101D01*
X169653759Y-93174869D01*
X169709170Y-93191557D01*
X169711690Y-93191304D01*
X169714131Y-93192016D01*
X169714655Y-93192062D01*
X169776969Y-93185256D01*
X169797325Y-93187833D01*
X169801515Y-93186688D01*
X169844513Y-93190127D01*
X169899108Y-93172465D01*
X169957634Y-93166582D01*
X169960106Y-93165255D01*
X169962894Y-93164950D01*
X170019062Y-93134157D01*
X170058199Y-93151701D01*
X170179629Y-93179503D01*
X170300659Y-93207405D01*
X170301141Y-93207324D01*
X170301616Y-93207433D01*
X170424300Y-93186674D01*
X170480462Y-93177257D01*
X170540479Y-93187373D01*
X170659693Y-93208907D01*
X170663427Y-93208096D01*
X170667197Y-93208731D01*
X170785259Y-93181620D01*
X170828634Y-93172194D01*
X170870701Y-93176855D01*
X170978346Y-93194304D01*
X171049173Y-93191778D01*
X171160870Y-93165389D01*
X171177613Y-93161997D01*
X171185963Y-93169167D01*
X171187754Y-93172189D01*
X171201374Y-93182398D01*
X171224900Y-93202598D01*
X171259150Y-93238203D01*
X171273289Y-93244384D01*
X171322518Y-93286917D01*
X171323477Y-93287235D01*
X171324244Y-93287893D01*
X171349973Y-93302390D01*
X171370382Y-93309080D01*
X171387568Y-93321962D01*
X171393376Y-93324745D01*
X171422291Y-93338624D01*
X171441336Y-93343511D01*
X171450100Y-93349961D01*
X171456400Y-93351515D01*
X171465894Y-93357594D01*
X171488282Y-93366360D01*
X171591123Y-93384739D01*
X171692551Y-93409753D01*
X171709198Y-93410510D01*
X171723312Y-93408364D01*
X171734102Y-93410292D01*
X171787212Y-93398647D01*
X171795624Y-93397368D01*
X171806359Y-93398533D01*
X171826052Y-93392772D01*
X171940856Y-93378262D01*
X171947975Y-93374201D01*
X171956075Y-93372969D01*
X172014542Y-93337635D01*
X172046031Y-93328424D01*
X172089513Y-93293456D01*
X172157759Y-93254524D01*
X172169452Y-93244376D01*
X172200788Y-93203972D01*
X172228373Y-93181789D01*
X172306810Y-93165601D01*
X172334944Y-93153710D01*
X172339241Y-93153607D01*
X172375282Y-93137651D01*
X172437445Y-93123621D01*
X172459304Y-93113903D01*
X172502957Y-93083088D01*
X172504711Y-93082683D01*
X172507203Y-93080906D01*
X172536825Y-93068386D01*
X172540761Y-93064393D01*
X172567581Y-93052520D01*
X172610148Y-93022571D01*
X172654264Y-92976279D01*
X172663311Y-92969892D01*
X172663686Y-92969299D01*
X172708015Y-92937682D01*
X172745373Y-92897973D01*
X172766068Y-92864857D01*
X172768338Y-92863198D01*
X172772642Y-92856129D01*
X172803262Y-92826854D01*
X172806793Y-92821817D01*
X172816924Y-92798831D01*
X172833683Y-92780116D01*
X172848034Y-92755843D01*
X172865771Y-92705316D01*
X172877712Y-92686208D01*
X172878325Y-92682546D01*
X172898198Y-92649905D01*
X172907685Y-92623959D01*
X172916955Y-92564314D01*
X172938162Y-92507798D01*
X172943766Y-92473642D01*
X172942596Y-92438963D01*
X172951234Y-92405356D01*
X172953938Y-92356452D01*
X172951926Y-92342291D01*
X172954874Y-92328295D01*
X172955661Y-92258112D01*
X172955038Y-92254784D01*
X172955701Y-92251464D01*
X172955714Y-92235729D01*
X172955206Y-92233164D01*
X172955697Y-92230599D01*
X172955661Y-92225591D01*
X172955659Y-92225581D01*
X172955661Y-92225570D01*
X172955157Y-92155791D01*
X172952778Y-92144267D01*
X172954571Y-92132636D01*
X172952301Y-92080383D01*
X172945153Y-92051145D01*
X172946955Y-92021098D01*
X172941983Y-91984887D01*
X172923372Y-91931044D01*
X172916703Y-91874470D01*
X172908058Y-91847820D01*
X172876771Y-91791890D01*
X172856793Y-91730994D01*
X172843501Y-91707417D01*
X172827232Y-91688478D01*
X172817647Y-91665427D01*
X172814709Y-91661044D01*
X172790544Y-91636945D01*
X172774190Y-91606986D01*
X172724820Y-91547898D01*
X172648532Y-91486406D01*
X172577774Y-91418616D01*
X172523978Y-91384314D01*
X172416425Y-91342440D01*
X172310161Y-91297345D01*
X172244669Y-91283729D01*
X172188393Y-91283243D01*
X172133555Y-91270618D01*
X172111315Y-91269952D01*
X172055347Y-91279353D01*
X171998662Y-91276531D01*
X171915390Y-91288828D01*
X171814130Y-91324985D01*
X171813321Y-91325225D01*
X171765755Y-91314096D01*
X171669280Y-91283687D01*
X171589544Y-91274962D01*
X171514893Y-91281500D01*
X171440151Y-91276157D01*
X171436343Y-91276635D01*
X171457459Y-91224318D01*
X171490988Y-91174048D01*
X171503742Y-91109651D01*
X171528310Y-91048781D01*
X171527762Y-90988363D01*
X171539501Y-90929089D01*
X171526640Y-90864714D01*
X171526045Y-90799075D01*
X171502418Y-90743466D01*
X171490580Y-90684212D01*
X171454063Y-90629659D01*
X171428394Y-90569245D01*
X171379668Y-90497734D01*
X171380706Y-90497737D01*
X171389923Y-90495934D01*
X171390432Y-90495725D01*
X171390986Y-90495726D01*
X171467186Y-90480686D01*
X171525892Y-90456471D01*
X171588174Y-90444082D01*
X171640195Y-90409323D01*
X171698034Y-90385465D01*
X171743004Y-90340627D01*
X171795805Y-90305347D01*
X171830565Y-90253325D01*
X171874871Y-90209150D01*
X171899259Y-90150518D01*
X171934540Y-90097716D01*
X171946746Y-90036351D01*
X171970774Y-89978585D01*
X171970868Y-89915084D01*
X171983257Y-89852799D01*
X171983257Y-89535492D01*
X171983153Y-89534967D01*
X171983256Y-89534443D01*
X171983085Y-89430105D01*
X171982620Y-89427788D01*
X171983061Y-89425463D01*
X171982359Y-89346522D01*
X171981187Y-89340894D01*
X171982159Y-89335227D01*
X171980641Y-89278052D01*
X171977742Y-89265264D01*
X171979435Y-89252263D01*
X171976820Y-89213225D01*
X171968857Y-89183675D01*
X171969923Y-89153089D01*
X171965926Y-89128555D01*
X171939953Y-89059098D01*
X171925463Y-88986368D01*
X171919800Y-88972709D01*
X171905334Y-88951073D01*
X171905006Y-88949640D01*
X171904122Y-88948395D01*
X171896950Y-88923580D01*
X171882522Y-88905519D01*
X171878461Y-88894659D01*
X171862085Y-88877100D01*
X171858381Y-88867513D01*
X171828508Y-88836170D01*
X171781003Y-88765120D01*
X171767525Y-88756120D01*
X171760383Y-88746067D01*
X171749879Y-88739475D01*
X171741092Y-88728476D01*
X171733480Y-88722059D01*
X171704530Y-88706091D01*
X171686095Y-88686748D01*
X171619468Y-88657257D01*
X171573329Y-88626448D01*
X171568110Y-88625411D01*
X171548865Y-88613335D01*
X171545742Y-88612145D01*
X171529107Y-88609329D01*
X171514823Y-88601450D01*
X171486143Y-88598243D01*
X171457749Y-88585675D01*
X171438914Y-88581456D01*
X171432161Y-88581294D01*
X171425928Y-88578688D01*
X171384318Y-88570270D01*
X171382492Y-88570264D01*
X171380805Y-88569570D01*
X171374760Y-88568382D01*
X171378194Y-88564612D01*
X171407096Y-88516655D01*
X171415168Y-88494267D01*
X171429857Y-88475545D01*
X171446821Y-88442061D01*
X171461770Y-88388586D01*
X171488028Y-88339665D01*
X171494751Y-88317641D01*
X171495952Y-88305664D01*
X171501248Y-88294854D01*
X171505108Y-88233556D01*
X171514051Y-88201566D01*
X171513527Y-88197221D01*
X171517046Y-88186010D01*
X171512773Y-88137862D01*
X171519659Y-88069171D01*
X171517088Y-88060641D01*
X171517710Y-88054302D01*
X171516622Y-88050718D01*
X171516942Y-88045632D01*
X171515118Y-88032054D01*
X171499275Y-87985773D01*
X171494971Y-87937272D01*
X171468501Y-87886579D01*
X171467327Y-87879062D01*
X171461689Y-87869817D01*
X171445152Y-87815360D01*
X171445106Y-87815274D01*
X171437912Y-87806513D01*
X171434244Y-87795798D01*
X171401999Y-87759220D01*
X171379388Y-87715916D01*
X171365039Y-87698082D01*
X171348520Y-87684256D01*
X171337305Y-87665867D01*
X171305568Y-87631387D01*
X171299931Y-87627273D01*
X171296171Y-87621395D01*
X171250484Y-87573846D01*
X171247158Y-87571526D01*
X171244930Y-87568137D01*
X171188736Y-87511091D01*
X171186073Y-87509282D01*
X171184278Y-87506610D01*
X171121014Y-87443643D01*
X171119620Y-87442716D01*
X171118680Y-87441332D01*
X171111547Y-87434304D01*
X171109209Y-87432767D01*
X171107619Y-87430468D01*
X171027891Y-87353261D01*
X171021100Y-87348879D01*
X171016339Y-87342349D01*
X170954812Y-87285659D01*
X170941323Y-87277423D01*
X170931403Y-87265121D01*
X170886839Y-87227900D01*
X170853335Y-87209619D01*
X170826045Y-87182945D01*
X170797210Y-87164150D01*
X170694647Y-87123032D01*
X170667632Y-87108292D01*
X170657076Y-87107160D01*
X170603688Y-87080509D01*
X170586638Y-87079308D01*
X170567818Y-87071680D01*
X170555117Y-87069254D01*
X170454726Y-87070018D01*
X170354589Y-87062966D01*
X170330649Y-87070963D01*
X170305409Y-87071155D01*
X170212963Y-87110275D01*
X170117739Y-87142084D01*
X170099203Y-87152666D01*
X170087587Y-87162754D01*
X170073246Y-87168312D01*
X170034779Y-87192757D01*
X170031389Y-87195994D01*
X170027039Y-87197753D01*
X170015342Y-87205425D01*
X170010056Y-87178231D01*
X170008613Y-87174704D01*
X170008585Y-87170895D01*
X170003417Y-87145873D01*
X169999906Y-87137569D01*
X169999590Y-87128558D01*
X169999500Y-87128176D01*
X169993066Y-87114064D01*
X169992275Y-87101182D01*
X169990728Y-87098013D01*
X169990325Y-87093592D01*
X169987179Y-87082948D01*
X169969433Y-87049163D01*
X169966546Y-87031543D01*
X169930502Y-86973423D01*
X169906168Y-86915872D01*
X169899898Y-86909694D01*
X169895916Y-86900958D01*
X169893411Y-86898622D01*
X169882745Y-86876770D01*
X169876630Y-86868732D01*
X169872954Y-86865481D01*
X169871059Y-86861874D01*
X169850921Y-86845102D01*
X169834935Y-86819325D01*
X169759312Y-86764996D01*
X169689558Y-86703318D01*
X169658665Y-86692690D01*
X169632130Y-86673627D01*
X169619381Y-86667832D01*
X169538993Y-86648986D01*
X169461862Y-86619528D01*
X169438815Y-86615608D01*
X169405406Y-86616540D01*
X169373123Y-86607902D01*
X169336114Y-86605490D01*
X169322634Y-86607270D01*
X169309364Y-86604308D01*
X169254729Y-86603038D01*
X169249359Y-86603977D01*
X169244021Y-86602879D01*
X169168097Y-86602385D01*
X169166285Y-86602733D01*
X169164472Y-86602371D01*
X169063595Y-86602286D01*
X169063325Y-86602339D01*
X169063056Y-86602286D01*
X169050000Y-86602286D01*
X169049809Y-86602324D01*
X169049618Y-86602286D01*
X168945708Y-86602348D01*
X168944147Y-86602660D01*
X168942586Y-86602358D01*
X168864042Y-86602788D01*
X168859256Y-86603767D01*
X168854443Y-86602912D01*
X168797599Y-86604076D01*
X168785591Y-86606721D01*
X168773411Y-86605029D01*
X168734604Y-86607294D01*
X168705389Y-86614899D01*
X168675235Y-86613549D01*
X168650801Y-86617282D01*
X168580444Y-86642802D01*
X168506929Y-86656860D01*
X168493204Y-86662426D01*
X168470841Y-86677130D01*
X168445063Y-86684309D01*
X168426985Y-86698465D01*
X168416052Y-86702430D01*
X168381057Y-86734426D01*
X168375977Y-86738404D01*
X168372233Y-86739919D01*
X168365953Y-86746097D01*
X168284553Y-86799620D01*
X168269522Y-86821759D01*
X168248449Y-86838259D01*
X168241771Y-86846026D01*
X168240385Y-86848483D01*
X168238181Y-86850239D01*
X168218318Y-86886156D01*
X168205667Y-86897871D01*
X168200696Y-86908679D01*
X168194222Y-86915048D01*
X168174352Y-86961933D01*
X168144285Y-87006218D01*
X168140195Y-87026011D01*
X168119039Y-87063499D01*
X168118699Y-87066295D01*
X168117333Y-87068765D01*
X168114037Y-87079097D01*
X168111344Y-87102940D01*
X168101318Y-87124739D01*
X168100998Y-87126077D01*
X168100620Y-87135909D01*
X168096781Y-87144968D01*
X168091775Y-87169104D01*
X168091742Y-87173118D01*
X168090222Y-87176832D01*
X168084653Y-87205452D01*
X168081357Y-87204112D01*
X168078490Y-87201350D01*
X168036101Y-87174157D01*
X168026135Y-87170245D01*
X168018182Y-87163073D01*
X167994834Y-87149158D01*
X167988014Y-87146737D01*
X167983481Y-87142783D01*
X167958813Y-87134482D01*
X167937262Y-87118703D01*
X167935046Y-87117671D01*
X167842609Y-87095118D01*
X167759507Y-87065616D01*
X167754864Y-87065856D01*
X167746805Y-87063144D01*
X167719263Y-87065023D01*
X167692447Y-87058480D01*
X167595524Y-87073464D01*
X167558347Y-87076001D01*
X167539930Y-87076951D01*
X167509724Y-87077598D01*
X167505093Y-87079634D01*
X167497669Y-87080140D01*
X167480701Y-87084735D01*
X167461742Y-87094147D01*
X167445663Y-87096633D01*
X167396264Y-87126654D01*
X167381994Y-87133739D01*
X167281116Y-87178077D01*
X167249424Y-87200248D01*
X167227603Y-87223024D01*
X167200096Y-87238470D01*
X167152446Y-87279262D01*
X167143930Y-87290090D01*
X167132215Y-87297338D01*
X167067369Y-87357796D01*
X167063445Y-87363246D01*
X167057808Y-87366896D01*
X166991609Y-87431218D01*
X166989578Y-87434165D01*
X166986594Y-87436144D01*
X166922777Y-87499529D01*
X166921012Y-87502151D01*
X166918396Y-87503923D01*
X166861281Y-87561762D01*
X166859135Y-87565018D01*
X166855933Y-87567243D01*
X166808958Y-87615967D01*
X166805492Y-87621364D01*
X166800298Y-87625128D01*
X166766900Y-87661163D01*
X166757455Y-87676530D01*
X166743456Y-87687911D01*
X166727075Y-87707685D01*
X166703692Y-87750949D01*
X166670691Y-87787421D01*
X166670083Y-87788439D01*
X166668577Y-87792659D01*
X166665618Y-87796021D01*
X166654891Y-87827439D01*
X166651831Y-87831199D01*
X166641832Y-87864657D01*
X166636145Y-87873909D01*
X166635688Y-87876768D01*
X166608341Y-87927366D01*
X166603394Y-87975319D01*
X166586154Y-88023628D01*
X166586378Y-88028101D01*
X166584930Y-88032341D01*
X166583119Y-88045911D01*
X166583918Y-88058434D01*
X166580324Y-88070458D01*
X166586934Y-88134853D01*
X166582713Y-88175764D01*
X166587479Y-88191740D01*
X166586230Y-88202182D01*
X166595098Y-88233770D01*
X166599010Y-88295120D01*
X166604541Y-88306386D01*
X166605822Y-88318868D01*
X166612643Y-88341029D01*
X166638827Y-88389535D01*
X166653725Y-88442603D01*
X166670868Y-88476348D01*
X166685435Y-88494872D01*
X166693436Y-88517037D01*
X166722583Y-88565359D01*
X166725340Y-88568383D01*
X166698689Y-88573668D01*
X166696128Y-88574727D01*
X166693355Y-88574749D01*
X166660407Y-88581574D01*
X166651400Y-88585389D01*
X166641626Y-88585760D01*
X166633545Y-88587689D01*
X166616619Y-88595465D01*
X166612063Y-88595735D01*
X166549447Y-88626123D01*
X166464980Y-88654315D01*
X166456632Y-88659078D01*
X166436841Y-88676256D01*
X166430463Y-88678957D01*
X166426806Y-88682672D01*
X166406632Y-88691941D01*
X166400753Y-88698285D01*
X166387406Y-88704762D01*
X166331556Y-88767641D01*
X166268047Y-88822764D01*
X166256587Y-88845706D01*
X166243595Y-88858119D01*
X166236100Y-88875108D01*
X166221573Y-88891463D01*
X166215272Y-88902220D01*
X166201368Y-88942345D01*
X166196284Y-88948635D01*
X166183441Y-88992143D01*
X166156458Y-89046161D01*
X166155661Y-89057436D01*
X166142800Y-89086588D01*
X166138261Y-89106967D01*
X166137834Y-89125691D01*
X166133510Y-89138170D01*
X166134650Y-89157425D01*
X166125585Y-89188133D01*
X166122526Y-89221769D01*
X166124369Y-89239149D01*
X166120331Y-89256150D01*
X166118468Y-89306671D01*
X166119681Y-89314213D01*
X166118090Y-89321688D01*
X166117139Y-89392725D01*
X166117732Y-89395932D01*
X166117086Y-89399126D01*
X166116764Y-89494311D01*
X166116948Y-89495253D01*
X166116760Y-89496197D01*
X166116743Y-89535213D01*
X166116771Y-89535353D01*
X166116743Y-89535492D01*
X166116743Y-89852799D01*
X166129132Y-89915082D01*
X166129226Y-89978585D01*
X166153254Y-90036351D01*
X166165460Y-90097716D01*
X166200741Y-90150518D01*
X166225129Y-90209150D01*
X166269435Y-90253325D01*
X166304195Y-90305347D01*
X166356996Y-90340627D01*
X166401966Y-90385465D01*
X166459805Y-90409323D01*
X166511826Y-90444082D01*
X166574108Y-90456471D01*
X166632814Y-90480686D01*
X166709014Y-90495726D01*
X166710582Y-90495724D01*
X166712033Y-90496314D01*
X166720350Y-90497914D01*
X166671376Y-90569952D01*
X166645902Y-90630084D01*
X166609570Y-90684360D01*
X166597667Y-90743942D01*
X166573967Y-90799885D01*
X166573443Y-90865194D01*
X166560649Y-90929237D01*
X166572452Y-90988836D01*
X166571965Y-91049593D01*
X166596473Y-91110130D01*
X166609161Y-91174195D01*
X166642874Y-91224742D01*
X166665674Y-91281059D01*
X166711481Y-91327606D01*
X166723762Y-91346020D01*
X166666188Y-91336770D01*
X166578788Y-91312749D01*
X166509047Y-91307728D01*
X166425760Y-91318149D01*
X166341826Y-91317669D01*
X166276136Y-91330345D01*
X166237246Y-91346194D01*
X166152427Y-91332618D01*
X166048585Y-91309652D01*
X165978165Y-91308151D01*
X165886122Y-91324429D01*
X165792922Y-91331442D01*
X165724800Y-91350401D01*
X165637258Y-91394628D01*
X165546275Y-91431234D01*
X165488849Y-91468765D01*
X165419905Y-91536320D01*
X165345147Y-91597397D01*
X165317449Y-91630996D01*
X165310963Y-91643067D01*
X165310486Y-91643534D01*
X165309620Y-91645566D01*
X165265594Y-91727499D01*
X165209096Y-91821363D01*
X165187153Y-91882331D01*
X165172491Y-91979919D01*
X165149755Y-92075957D01*
X165148012Y-92124201D01*
X165153029Y-92155245D01*
X165148790Y-92186404D01*
X165152738Y-92250912D01*
X165153007Y-92251934D01*
X165144286Y-92295779D01*
X140754594Y-92295779D01*
X140554046Y-92094881D01*
X140173777Y-91936980D01*
X139762029Y-91936621D01*
X139381485Y-92093858D01*
X139090081Y-92384754D01*
X138932180Y-92765023D01*
X138932061Y-92901838D01*
X138912019Y-92901821D01*
X138531475Y-93059058D01*
X138240071Y-93349954D01*
X138082170Y-93730223D01*
X138081811Y-94141971D01*
X138239048Y-94522515D01*
X138395678Y-94679419D01*
X138069730Y-94814097D01*
X137778326Y-95104993D01*
X137620425Y-95485262D01*
X137620066Y-95897010D01*
X137770245Y-96260472D01*
X137770245Y-96435240D01*
X137770244Y-96435245D01*
X137814879Y-96659633D01*
X137837612Y-96773920D01*
X137907967Y-96879214D01*
X133617000Y-96879214D01*
X133568399Y-96888881D01*
X133527197Y-96916411D01*
X133499667Y-96957613D01*
X133490000Y-97006214D01*
X125710000Y-97006214D01*
X125710000Y-86442619D01*
X136264613Y-86442619D01*
X136604155Y-87264372D01*
X137232321Y-87893636D01*
X138053481Y-88234611D01*
X138942619Y-88235387D01*
X139764372Y-87895845D01*
X140393636Y-87267679D01*
X140734611Y-86446519D01*
X140735387Y-85557381D01*
X140395845Y-84735628D01*
X139767679Y-84106364D01*
X138946519Y-83765389D01*
X138057381Y-83764613D01*
X137235628Y-84104155D01*
X136606364Y-84732321D01*
X136265389Y-85553481D01*
X136264613Y-86442619D01*
X125710000Y-86442619D01*
X125710000Y-78393971D01*
X134359821Y-78393971D01*
X134517058Y-78774515D01*
X134807954Y-79065919D01*
X135188223Y-79223820D01*
X135599971Y-79224179D01*
X135980515Y-79066942D01*
X136271919Y-78776046D01*
X136429820Y-78395777D01*
X136429935Y-78264223D01*
X136468657Y-78225501D01*
X136931890Y-78225501D01*
X136931504Y-78666844D01*
X137103219Y-79082427D01*
X137332759Y-79312368D01*
X137030985Y-79437059D01*
X136517861Y-79949289D01*
X136239817Y-80618892D01*
X136239184Y-81343927D01*
X136516059Y-82014015D01*
X137028289Y-82527139D01*
X137697892Y-82805183D01*
X138422927Y-82805816D01*
X139093015Y-82528941D01*
X139606139Y-82016711D01*
X139884183Y-81347108D01*
X139884515Y-80967252D01*
X140014954Y-81097919D01*
X140395223Y-81255820D01*
X140806971Y-81256179D01*
X141187515Y-81098942D01*
X141478919Y-80808046D01*
X141636820Y-80427777D01*
X141637179Y-80016029D01*
X141479942Y-79635485D01*
X141387000Y-79542381D01*
X141387000Y-78387158D01*
X142427079Y-77347079D01*
X142513817Y-77217266D01*
X142743289Y-77447139D01*
X143412892Y-77725183D01*
X144137927Y-77725816D01*
X144551589Y-77554894D01*
X144551504Y-77651844D01*
X144723219Y-78067427D01*
X145040900Y-78385663D01*
X145178809Y-78442928D01*
X145042573Y-78499219D01*
X144724337Y-78816900D01*
X144551897Y-79232183D01*
X144551810Y-79331356D01*
X144141108Y-79160817D01*
X143416073Y-79160184D01*
X142745985Y-79437059D01*
X142232861Y-79949289D01*
X141954817Y-80618892D01*
X141954184Y-81343927D01*
X142231059Y-82014015D01*
X142743289Y-82527139D01*
X143412892Y-82805183D01*
X144137927Y-82805816D01*
X144151722Y-82800116D01*
X143955904Y-82995934D01*
X143826025Y-82995821D01*
X143445481Y-83153058D01*
X143154077Y-83443954D01*
X142996176Y-83824223D01*
X142995817Y-84235971D01*
X143153054Y-84616515D01*
X143443950Y-84907919D01*
X143824219Y-85065820D01*
X144235967Y-85066179D01*
X144616511Y-84908942D01*
X144907915Y-84618046D01*
X145065816Y-84237777D01*
X145065931Y-84106223D01*
X146364079Y-82808075D01*
X146534245Y-82553403D01*
X146594000Y-82252996D01*
X146594000Y-81534805D01*
X146685919Y-81443046D01*
X146843820Y-81062777D01*
X146843873Y-81001906D01*
X147156971Y-81002179D01*
X147537515Y-80844942D01*
X147702774Y-80679971D01*
X157346821Y-80679971D01*
X157504058Y-81060515D01*
X157794954Y-81351919D01*
X158175223Y-81509820D01*
X158306777Y-81509935D01*
X158717669Y-81920827D01*
X158717669Y-86930526D01*
X158625750Y-87022285D01*
X158467849Y-87402554D01*
X158467490Y-87814302D01*
X158624727Y-88194846D01*
X158915623Y-88486250D01*
X159295892Y-88644151D01*
X159707640Y-88644510D01*
X160088184Y-88487273D01*
X160379588Y-88196377D01*
X160537489Y-87816108D01*
X160537848Y-87404360D01*
X160380611Y-87023816D01*
X160287669Y-86930712D01*
X160287669Y-81595669D01*
X160227914Y-81295263D01*
X160227914Y-81295262D01*
X160057748Y-81040590D01*
X159417066Y-80399908D01*
X159417179Y-80270029D01*
X159259942Y-79889485D01*
X158969046Y-79598081D01*
X158588777Y-79440180D01*
X158177029Y-79439821D01*
X157796485Y-79597058D01*
X157505081Y-79887954D01*
X157347180Y-80268223D01*
X157346821Y-80679971D01*
X147702774Y-80679971D01*
X147828919Y-80554046D01*
X147986820Y-80173777D01*
X147986935Y-80042223D01*
X148293158Y-79736000D01*
X148305195Y-79736000D01*
X148396954Y-79827919D01*
X148777223Y-79985820D01*
X149188971Y-79986179D01*
X149569515Y-79828942D01*
X149860919Y-79538046D01*
X150018820Y-79157777D01*
X150019179Y-78746029D01*
X149955949Y-78593000D01*
X152242195Y-78593000D01*
X152333954Y-78684919D01*
X152714223Y-78842820D01*
X153125971Y-78843179D01*
X153506515Y-78685942D01*
X153797919Y-78395046D01*
X153955820Y-78014777D01*
X153956179Y-77603029D01*
X153798942Y-77222485D01*
X153508046Y-76931081D01*
X153127777Y-76773180D01*
X152716029Y-76772821D01*
X152335485Y-76930058D01*
X152242381Y-77023000D01*
X147206005Y-77023000D01*
X147206000Y-77022999D01*
X146905594Y-77082755D01*
X146793329Y-77157768D01*
X146640781Y-76788573D01*
X146323100Y-76470337D01*
X145907817Y-76297897D01*
X145586515Y-76297616D01*
X145599183Y-76267108D01*
X145599816Y-75542073D01*
X145408757Y-75079675D01*
X145635584Y-75231235D01*
X145935990Y-75290990D01*
X147289195Y-75290990D01*
X147380954Y-75382909D01*
X147761223Y-75540810D01*
X148172971Y-75541169D01*
X148553515Y-75383932D01*
X148844919Y-75093036D01*
X149002820Y-74712767D01*
X149003179Y-74301019D01*
X148845942Y-73920475D01*
X148555046Y-73629071D01*
X148174777Y-73471170D01*
X147763029Y-73470811D01*
X147382485Y-73628048D01*
X147289381Y-73720990D01*
X146336131Y-73720990D01*
X146336179Y-73666029D01*
X146178942Y-73285485D01*
X145888046Y-72994081D01*
X145507777Y-72836180D01*
X145096029Y-72835821D01*
X144715485Y-72993058D01*
X144424081Y-73283954D01*
X144266180Y-73664223D01*
X144265821Y-74075971D01*
X144294067Y-74144331D01*
X144141108Y-74080817D01*
X143416073Y-74080184D01*
X142745985Y-74357059D01*
X142436144Y-74666360D01*
X142427079Y-74652793D01*
X142185488Y-74411202D01*
X142185601Y-74281323D01*
X142028364Y-73900779D01*
X141737468Y-73609375D01*
X141357199Y-73451474D01*
X140945451Y-73451115D01*
X140564907Y-73608352D01*
X140273503Y-73899248D01*
X140115602Y-74279517D01*
X140115243Y-74691265D01*
X140272480Y-75071809D01*
X140501887Y-75301617D01*
X140233081Y-75569954D01*
X140075180Y-75950223D01*
X140075065Y-76081777D01*
X139880241Y-76276602D01*
X139884183Y-76267108D01*
X139884816Y-75542073D01*
X139607941Y-74871985D01*
X139095711Y-74358861D01*
X138426108Y-74080817D01*
X137701073Y-74080184D01*
X137030985Y-74357059D01*
X136517861Y-74869289D01*
X136239817Y-75538892D01*
X136239184Y-76263927D01*
X136400979Y-76655501D01*
X136143499Y-76655501D01*
X135843093Y-76715256D01*
X135699533Y-76811179D01*
X135588420Y-76885422D01*
X135319908Y-77153934D01*
X135190029Y-77153821D01*
X134809485Y-77311058D01*
X134518081Y-77601954D01*
X134360180Y-77982223D01*
X134359821Y-78393971D01*
X125710000Y-78393971D01*
X125710000Y-73110430D01*
X128430132Y-73110430D01*
X128594902Y-73509203D01*
X128899733Y-73814566D01*
X129298217Y-73980031D01*
X129729690Y-73980408D01*
X130128463Y-73815638D01*
X130433826Y-73510807D01*
X130599291Y-73112323D01*
X130599668Y-72680850D01*
X130434898Y-72282077D01*
X130130067Y-71976714D01*
X129731583Y-71811249D01*
X129300110Y-71810872D01*
X128901337Y-71975642D01*
X128595974Y-72280473D01*
X128430509Y-72678957D01*
X128430132Y-73110430D01*
X125710000Y-73110430D01*
X125710000Y-68711150D01*
X128430132Y-68711150D01*
X128594902Y-69109923D01*
X128899733Y-69415286D01*
X129298217Y-69580751D01*
X129729690Y-69581128D01*
X130128463Y-69416358D01*
X130433826Y-69111527D01*
X130599291Y-68713043D01*
X130599668Y-68281570D01*
X130434898Y-67882797D01*
X130130067Y-67577434D01*
X129731583Y-67411969D01*
X129300110Y-67411592D01*
X128901337Y-67576362D01*
X128595974Y-67881193D01*
X128430509Y-68279677D01*
X128430132Y-68711150D01*
X125710000Y-68711150D01*
X125710000Y-67268944D01*
X136202025Y-67268944D01*
X136401615Y-67750818D01*
X136839621Y-68223188D01*
X137425054Y-68491983D01*
X137681000Y-68373367D01*
X137681000Y-67013000D01*
X136321164Y-67013000D01*
X136202025Y-67268944D01*
X125710000Y-67268944D01*
X125710000Y-65710000D01*
X136690159Y-65710000D01*
X136401615Y-66021182D01*
M02*
