%FSLAX45Y45*%
G04 Gerber Fmt 4.5, Leading zero omitted, Abs format (unit mm)*
G04 Created by KiCad (PCBNEW (2017-04-15 revision 60310b3d3)-makepkg) date 04/16/17 22:45:53*
%MOMM*%
%LPD*%
G01*
G04 APERTURE LIST*
%ADD10C,0.127000*%
%ADD11C,0.150000*%
%ADD12C,0.200000*%
%ADD13C,0.300000*%
G04 APERTURE END LIST*
D10*
D11*
X17500000Y-6500000D02*
X12500000Y-6500000D01*
X17500000Y-11500000D02*
X17500000Y-6500000D01*
X12500000Y-11500000D02*
X17500000Y-11500000D01*
X12500000Y-6500000D02*
X12500000Y-11500000D01*
D12*
X12906532Y-6804678D02*
X12996448Y-6894594D01*
X12996448Y-6804678D02*
X12906532Y-6894594D01*
X12906532Y-7244606D02*
X12996448Y-7334522D01*
X12996448Y-7244606D02*
X12906532Y-7334522D01*
X13855730Y-7844300D02*
G75*
G03X13855730Y-7844300I-49530J0D01*
G01*
X14617730Y-7742800D02*
G75*
G03X14617730Y-7742800I-49530J0D01*
G01*
X14617730Y-7945800D02*
G75*
G03X14617730Y-7945800I-49530J0D01*
G01*
X13806200Y-7471550D02*
X13806200Y-7709050D01*
X13687450Y-7590300D02*
X13924950Y-7590300D01*
X13806200Y-7979550D02*
X13806200Y-8217050D01*
X13687450Y-8098300D02*
X13924950Y-8098300D01*
X14377700Y-7471550D02*
X14377700Y-7709050D01*
X14258950Y-7590300D02*
X14496450Y-7590300D01*
X14377700Y-7979550D02*
X14377700Y-8217050D01*
X14258950Y-8098300D02*
X14496450Y-8098300D01*
X13963138Y-8713138D02*
X13963138Y-8486862D01*
X13736862Y-8486862D01*
X13736862Y-8713138D01*
X13963138Y-8713138D01*
X16113138Y-9913138D02*
X16113138Y-9686862D01*
X15886862Y-9686862D01*
X15886862Y-9913138D01*
X16113138Y-9913138D01*
D13*
X12778928Y-11973214D02*
X12778928Y-11673214D01*
X12850357Y-11673214D01*
X12893214Y-11687500D01*
X12921786Y-11716071D01*
X12936071Y-11744643D01*
X12950357Y-11801786D01*
X12950357Y-11844643D01*
X12936071Y-11901786D01*
X12921786Y-11930357D01*
X12893214Y-11958929D01*
X12850357Y-11973214D01*
X12778928Y-11973214D01*
X13078928Y-11973214D02*
X13078928Y-11773214D01*
X13078928Y-11830357D02*
X13093214Y-11801786D01*
X13107500Y-11787500D01*
X13136071Y-11773214D01*
X13164643Y-11773214D01*
X13264643Y-11973214D02*
X13264643Y-11773214D01*
X13264643Y-11673214D02*
X13250357Y-11687500D01*
X13264643Y-11701786D01*
X13278928Y-11687500D01*
X13264643Y-11673214D01*
X13264643Y-11701786D01*
X13450357Y-11973214D02*
X13421786Y-11958929D01*
X13407500Y-11930357D01*
X13407500Y-11673214D01*
X13607500Y-11973214D02*
X13578928Y-11958929D01*
X13564643Y-11930357D01*
X13564643Y-11673214D01*
X13950357Y-11973214D02*
X13950357Y-11673214D01*
X14050357Y-11887500D01*
X14150357Y-11673214D01*
X14150357Y-11973214D01*
X14421786Y-11973214D02*
X14421786Y-11816071D01*
X14407500Y-11787500D01*
X14378928Y-11773214D01*
X14321786Y-11773214D01*
X14293214Y-11787500D01*
X14421786Y-11958929D02*
X14393214Y-11973214D01*
X14321786Y-11973214D01*
X14293214Y-11958929D01*
X14278928Y-11930357D01*
X14278928Y-11901786D01*
X14293214Y-11873214D01*
X14321786Y-11858929D01*
X14393214Y-11858929D01*
X14421786Y-11844643D01*
X14564643Y-11773214D02*
X14564643Y-12073214D01*
X14564643Y-11787500D02*
X14593214Y-11773214D01*
X14650357Y-11773214D01*
X14678928Y-11787500D01*
X14693214Y-11801786D01*
X14707500Y-11830357D01*
X14707500Y-11916071D01*
X14693214Y-11944643D01*
X14678928Y-11958929D01*
X14650357Y-11973214D01*
X14593214Y-11973214D01*
X14564643Y-11958929D01*
X14836071Y-11944643D02*
X14850357Y-11958929D01*
X14836071Y-11973214D01*
X14821786Y-11958929D01*
X14836071Y-11944643D01*
X14836071Y-11973214D01*
X14836071Y-11787500D02*
X14850357Y-11801786D01*
X14836071Y-11816071D01*
X14821786Y-11801786D01*
X14836071Y-11787500D01*
X14836071Y-11816071D01*
X12402584Y-12422542D02*
X12492500Y-12512458D01*
X12492500Y-12422542D02*
X12402584Y-12512458D01*
X12836071Y-12303214D02*
X12864643Y-12303214D01*
X12893214Y-12317500D01*
X12907500Y-12331786D01*
X12921786Y-12360357D01*
X12936071Y-12417500D01*
X12936071Y-12488929D01*
X12921786Y-12546071D01*
X12907500Y-12574643D01*
X12893214Y-12588929D01*
X12864643Y-12603214D01*
X12836071Y-12603214D01*
X12807500Y-12588929D01*
X12793214Y-12574643D01*
X12778928Y-12546071D01*
X12764643Y-12488929D01*
X12764643Y-12417500D01*
X12778928Y-12360357D01*
X12793214Y-12331786D01*
X12807500Y-12317500D01*
X12836071Y-12303214D01*
X13064643Y-12574643D02*
X13078928Y-12588929D01*
X13064643Y-12603214D01*
X13050357Y-12588929D01*
X13064643Y-12574643D01*
X13064643Y-12603214D01*
X13221786Y-12603214D02*
X13278928Y-12603214D01*
X13307500Y-12588929D01*
X13321786Y-12574643D01*
X13350357Y-12531786D01*
X13364643Y-12474643D01*
X13364643Y-12360357D01*
X13350357Y-12331786D01*
X13336071Y-12317500D01*
X13307500Y-12303214D01*
X13250357Y-12303214D01*
X13221786Y-12317500D01*
X13207500Y-12331786D01*
X13193214Y-12360357D01*
X13193214Y-12431786D01*
X13207500Y-12460357D01*
X13221786Y-12474643D01*
X13250357Y-12488929D01*
X13307500Y-12488929D01*
X13336071Y-12474643D01*
X13350357Y-12460357D01*
X13364643Y-12431786D01*
X13550357Y-12303214D02*
X13578928Y-12303214D01*
X13607500Y-12317500D01*
X13621786Y-12331786D01*
X13636071Y-12360357D01*
X13650357Y-12417500D01*
X13650357Y-12488929D01*
X13636071Y-12546071D01*
X13621786Y-12574643D01*
X13607500Y-12588929D01*
X13578928Y-12603214D01*
X13550357Y-12603214D01*
X13521786Y-12588929D01*
X13507500Y-12574643D01*
X13493214Y-12546071D01*
X13478928Y-12488929D01*
X13478928Y-12417500D01*
X13493214Y-12360357D01*
X13507500Y-12331786D01*
X13521786Y-12317500D01*
X13550357Y-12303214D01*
X13778928Y-12603214D02*
X13778928Y-12403214D01*
X13778928Y-12431786D02*
X13793214Y-12417500D01*
X13821786Y-12403214D01*
X13864643Y-12403214D01*
X13893214Y-12417500D01*
X13907500Y-12446071D01*
X13907500Y-12603214D01*
X13907500Y-12446071D02*
X13921786Y-12417500D01*
X13950357Y-12403214D01*
X13993214Y-12403214D01*
X14021786Y-12417500D01*
X14036071Y-12446071D01*
X14036071Y-12603214D01*
X14178928Y-12603214D02*
X14178928Y-12403214D01*
X14178928Y-12431786D02*
X14193214Y-12417500D01*
X14221786Y-12403214D01*
X14264643Y-12403214D01*
X14293214Y-12417500D01*
X14307500Y-12446071D01*
X14307500Y-12603214D01*
X14307500Y-12446071D02*
X14321786Y-12417500D01*
X14350357Y-12403214D01*
X14393214Y-12403214D01*
X14421786Y-12417500D01*
X14436071Y-12446071D01*
X14436071Y-12603214D01*
X15021786Y-12288929D02*
X14764643Y-12674643D01*
X15407500Y-12303214D02*
X15436071Y-12303214D01*
X15464643Y-12317500D01*
X15478928Y-12331786D01*
X15493214Y-12360357D01*
X15507500Y-12417500D01*
X15507500Y-12488929D01*
X15493214Y-12546071D01*
X15478928Y-12574643D01*
X15464643Y-12588929D01*
X15436071Y-12603214D01*
X15407500Y-12603214D01*
X15378928Y-12588929D01*
X15364643Y-12574643D01*
X15350357Y-12546071D01*
X15336071Y-12488929D01*
X15336071Y-12417500D01*
X15350357Y-12360357D01*
X15364643Y-12331786D01*
X15378928Y-12317500D01*
X15407500Y-12303214D01*
X15636071Y-12574643D02*
X15650357Y-12588929D01*
X15636071Y-12603214D01*
X15621786Y-12588929D01*
X15636071Y-12574643D01*
X15636071Y-12603214D01*
X15836071Y-12303214D02*
X15864643Y-12303214D01*
X15893214Y-12317500D01*
X15907500Y-12331786D01*
X15921786Y-12360357D01*
X15936071Y-12417500D01*
X15936071Y-12488929D01*
X15921786Y-12546071D01*
X15907500Y-12574643D01*
X15893214Y-12588929D01*
X15864643Y-12603214D01*
X15836071Y-12603214D01*
X15807500Y-12588929D01*
X15793214Y-12574643D01*
X15778928Y-12546071D01*
X15764643Y-12488929D01*
X15764643Y-12417500D01*
X15778928Y-12360357D01*
X15793214Y-12331786D01*
X15807500Y-12317500D01*
X15836071Y-12303214D01*
X16036071Y-12303214D02*
X16221786Y-12303214D01*
X16121786Y-12417500D01*
X16164643Y-12417500D01*
X16193214Y-12431786D01*
X16207500Y-12446071D01*
X16221786Y-12474643D01*
X16221786Y-12546071D01*
X16207500Y-12574643D01*
X16193214Y-12588929D01*
X16164643Y-12603214D01*
X16078928Y-12603214D01*
X16050357Y-12588929D01*
X16036071Y-12574643D01*
X16493214Y-12303214D02*
X16350357Y-12303214D01*
X16336071Y-12446071D01*
X16350357Y-12431786D01*
X16378928Y-12417500D01*
X16450357Y-12417500D01*
X16478928Y-12431786D01*
X16493214Y-12446071D01*
X16507500Y-12474643D01*
X16507500Y-12546071D01*
X16493214Y-12574643D01*
X16478928Y-12588929D01*
X16450357Y-12603214D01*
X16378928Y-12603214D01*
X16350357Y-12588929D01*
X16336071Y-12574643D01*
X16621786Y-12303214D02*
X16621786Y-12360357D01*
X16736071Y-12303214D02*
X16736071Y-12360357D01*
X17178928Y-12717500D02*
X17164643Y-12703214D01*
X17136071Y-12660357D01*
X17121786Y-12631786D01*
X17107500Y-12588929D01*
X17093214Y-12517500D01*
X17093214Y-12460357D01*
X17107500Y-12388929D01*
X17121786Y-12346071D01*
X17136071Y-12317500D01*
X17164643Y-12274643D01*
X17178928Y-12260357D01*
X17278928Y-12331786D02*
X17293214Y-12317500D01*
X17321786Y-12303214D01*
X17393214Y-12303214D01*
X17421786Y-12317500D01*
X17436071Y-12331786D01*
X17450357Y-12360357D01*
X17450357Y-12388929D01*
X17436071Y-12431786D01*
X17264643Y-12603214D01*
X17450357Y-12603214D01*
X17807500Y-12603214D02*
X17807500Y-12303214D01*
X17936071Y-12603214D02*
X17936071Y-12446071D01*
X17921786Y-12417500D01*
X17893214Y-12403214D01*
X17850357Y-12403214D01*
X17821786Y-12417500D01*
X17807500Y-12431786D01*
X18121786Y-12603214D02*
X18093214Y-12588929D01*
X18078928Y-12574643D01*
X18064643Y-12546071D01*
X18064643Y-12460357D01*
X18078928Y-12431786D01*
X18093214Y-12417500D01*
X18121786Y-12403214D01*
X18164643Y-12403214D01*
X18193214Y-12417500D01*
X18207500Y-12431786D01*
X18221786Y-12460357D01*
X18221786Y-12546071D01*
X18207500Y-12574643D01*
X18193214Y-12588929D01*
X18164643Y-12603214D01*
X18121786Y-12603214D01*
X18393214Y-12603214D02*
X18364643Y-12588929D01*
X18350357Y-12560357D01*
X18350357Y-12303214D01*
X18621786Y-12588929D02*
X18593214Y-12603214D01*
X18536071Y-12603214D01*
X18507500Y-12588929D01*
X18493214Y-12560357D01*
X18493214Y-12446071D01*
X18507500Y-12417500D01*
X18536071Y-12403214D01*
X18593214Y-12403214D01*
X18621786Y-12417500D01*
X18636071Y-12446071D01*
X18636071Y-12474643D01*
X18493214Y-12503214D01*
X18750357Y-12588929D02*
X18778928Y-12603214D01*
X18836071Y-12603214D01*
X18864643Y-12588929D01*
X18878928Y-12560357D01*
X18878928Y-12546071D01*
X18864643Y-12517500D01*
X18836071Y-12503214D01*
X18793214Y-12503214D01*
X18764643Y-12488929D01*
X18750357Y-12460357D01*
X18750357Y-12446071D01*
X18764643Y-12417500D01*
X18793214Y-12403214D01*
X18836071Y-12403214D01*
X18864643Y-12417500D01*
X18978928Y-12717500D02*
X18993214Y-12703214D01*
X19021786Y-12660357D01*
X19036071Y-12631786D01*
X19050357Y-12588929D01*
X19064643Y-12517500D01*
X19064643Y-12460357D01*
X19050357Y-12388929D01*
X19036071Y-12346071D01*
X19021786Y-12317500D01*
X18993214Y-12274643D01*
X18978928Y-12260357D01*
X19521786Y-12717500D02*
X19507500Y-12703214D01*
X19478928Y-12660357D01*
X19464643Y-12631786D01*
X19450357Y-12588929D01*
X19436071Y-12517500D01*
X19436071Y-12460357D01*
X19450357Y-12388929D01*
X19464643Y-12346071D01*
X19478928Y-12317500D01*
X19507500Y-12274643D01*
X19521786Y-12260357D01*
X19636071Y-12403214D02*
X19636071Y-12603214D01*
X19636071Y-12431786D02*
X19650357Y-12417500D01*
X19678928Y-12403214D01*
X19721786Y-12403214D01*
X19750357Y-12417500D01*
X19764643Y-12446071D01*
X19764643Y-12603214D01*
X19950357Y-12603214D02*
X19921786Y-12588929D01*
X19907500Y-12574643D01*
X19893214Y-12546071D01*
X19893214Y-12460357D01*
X19907500Y-12431786D01*
X19921786Y-12417500D01*
X19950357Y-12403214D01*
X19993214Y-12403214D01*
X20021786Y-12417500D01*
X20036071Y-12431786D01*
X20050357Y-12460357D01*
X20050357Y-12546071D01*
X20036071Y-12574643D01*
X20021786Y-12588929D01*
X19993214Y-12603214D01*
X19950357Y-12603214D01*
X20136071Y-12403214D02*
X20250357Y-12403214D01*
X20178928Y-12303214D02*
X20178928Y-12560357D01*
X20193214Y-12588929D01*
X20221786Y-12603214D01*
X20250357Y-12603214D01*
X20578928Y-12403214D02*
X20578928Y-12703214D01*
X20578928Y-12417500D02*
X20607500Y-12403214D01*
X20664643Y-12403214D01*
X20693214Y-12417500D01*
X20707500Y-12431786D01*
X20721786Y-12460357D01*
X20721786Y-12546071D01*
X20707500Y-12574643D01*
X20693214Y-12588929D01*
X20664643Y-12603214D01*
X20607500Y-12603214D01*
X20578928Y-12588929D01*
X20893214Y-12603214D02*
X20864643Y-12588929D01*
X20850357Y-12560357D01*
X20850357Y-12303214D01*
X21136071Y-12603214D02*
X21136071Y-12446071D01*
X21121786Y-12417500D01*
X21093214Y-12403214D01*
X21036071Y-12403214D01*
X21007500Y-12417500D01*
X21136071Y-12588929D02*
X21107500Y-12603214D01*
X21036071Y-12603214D01*
X21007500Y-12588929D01*
X20993214Y-12560357D01*
X20993214Y-12531786D01*
X21007500Y-12503214D01*
X21036071Y-12488929D01*
X21107500Y-12488929D01*
X21136071Y-12474643D01*
X21236071Y-12403214D02*
X21350357Y-12403214D01*
X21278928Y-12303214D02*
X21278928Y-12560357D01*
X21293214Y-12588929D01*
X21321786Y-12603214D01*
X21350357Y-12603214D01*
X21564643Y-12588929D02*
X21536071Y-12603214D01*
X21478928Y-12603214D01*
X21450357Y-12588929D01*
X21436071Y-12560357D01*
X21436071Y-12446071D01*
X21450357Y-12417500D01*
X21478928Y-12403214D01*
X21536071Y-12403214D01*
X21564643Y-12417500D01*
X21578928Y-12446071D01*
X21578928Y-12474643D01*
X21436071Y-12503214D01*
X21836071Y-12603214D02*
X21836071Y-12303214D01*
X21836071Y-12588929D02*
X21807500Y-12603214D01*
X21750357Y-12603214D01*
X21721786Y-12588929D01*
X21707500Y-12574643D01*
X21693214Y-12546071D01*
X21693214Y-12460357D01*
X21707500Y-12431786D01*
X21721786Y-12417500D01*
X21750357Y-12403214D01*
X21807500Y-12403214D01*
X21836071Y-12417500D01*
X21950357Y-12717500D02*
X21964643Y-12703214D01*
X21993214Y-12660357D01*
X22007500Y-12631786D01*
X22021786Y-12588929D01*
X22036071Y-12517500D01*
X22036071Y-12460357D01*
X22021786Y-12388929D01*
X22007500Y-12346071D01*
X21993214Y-12317500D01*
X21964643Y-12274643D01*
X21950357Y-12260357D01*
X12492500Y-12863500D02*
G75*
G03X12492500Y-12863500I-49530J0D01*
G01*
X12836071Y-12699214D02*
X12864643Y-12699214D01*
X12893214Y-12713500D01*
X12907500Y-12727786D01*
X12921786Y-12756357D01*
X12936071Y-12813500D01*
X12936071Y-12884929D01*
X12921786Y-12942071D01*
X12907500Y-12970643D01*
X12893214Y-12984929D01*
X12864643Y-12999214D01*
X12836071Y-12999214D01*
X12807500Y-12984929D01*
X12793214Y-12970643D01*
X12778928Y-12942071D01*
X12764643Y-12884929D01*
X12764643Y-12813500D01*
X12778928Y-12756357D01*
X12793214Y-12727786D01*
X12807500Y-12713500D01*
X12836071Y-12699214D01*
X13064643Y-12970643D02*
X13078928Y-12984929D01*
X13064643Y-12999214D01*
X13050357Y-12984929D01*
X13064643Y-12970643D01*
X13064643Y-12999214D01*
X13221786Y-12999214D02*
X13278928Y-12999214D01*
X13307500Y-12984929D01*
X13321786Y-12970643D01*
X13350357Y-12927786D01*
X13364643Y-12870643D01*
X13364643Y-12756357D01*
X13350357Y-12727786D01*
X13336071Y-12713500D01*
X13307500Y-12699214D01*
X13250357Y-12699214D01*
X13221786Y-12713500D01*
X13207500Y-12727786D01*
X13193214Y-12756357D01*
X13193214Y-12827786D01*
X13207500Y-12856357D01*
X13221786Y-12870643D01*
X13250357Y-12884929D01*
X13307500Y-12884929D01*
X13336071Y-12870643D01*
X13350357Y-12856357D01*
X13364643Y-12827786D01*
X13507500Y-12999214D02*
X13564643Y-12999214D01*
X13593214Y-12984929D01*
X13607500Y-12970643D01*
X13636071Y-12927786D01*
X13650357Y-12870643D01*
X13650357Y-12756357D01*
X13636071Y-12727786D01*
X13621786Y-12713500D01*
X13593214Y-12699214D01*
X13536071Y-12699214D01*
X13507500Y-12713500D01*
X13493214Y-12727786D01*
X13478928Y-12756357D01*
X13478928Y-12827786D01*
X13493214Y-12856357D01*
X13507500Y-12870643D01*
X13536071Y-12884929D01*
X13593214Y-12884929D01*
X13621786Y-12870643D01*
X13636071Y-12856357D01*
X13650357Y-12827786D01*
X13778928Y-12999214D02*
X13778928Y-12799214D01*
X13778928Y-12827786D02*
X13793214Y-12813500D01*
X13821786Y-12799214D01*
X13864643Y-12799214D01*
X13893214Y-12813500D01*
X13907500Y-12842071D01*
X13907500Y-12999214D01*
X13907500Y-12842071D02*
X13921786Y-12813500D01*
X13950357Y-12799214D01*
X13993214Y-12799214D01*
X14021786Y-12813500D01*
X14036071Y-12842071D01*
X14036071Y-12999214D01*
X14178928Y-12999214D02*
X14178928Y-12799214D01*
X14178928Y-12827786D02*
X14193214Y-12813500D01*
X14221786Y-12799214D01*
X14264643Y-12799214D01*
X14293214Y-12813500D01*
X14307500Y-12842071D01*
X14307500Y-12999214D01*
X14307500Y-12842071D02*
X14321786Y-12813500D01*
X14350357Y-12799214D01*
X14393214Y-12799214D01*
X14421786Y-12813500D01*
X14436071Y-12842071D01*
X14436071Y-12999214D01*
X15021786Y-12684929D02*
X14764643Y-13070643D01*
X15407500Y-12699214D02*
X15436071Y-12699214D01*
X15464643Y-12713500D01*
X15478928Y-12727786D01*
X15493214Y-12756357D01*
X15507500Y-12813500D01*
X15507500Y-12884929D01*
X15493214Y-12942071D01*
X15478928Y-12970643D01*
X15464643Y-12984929D01*
X15436071Y-12999214D01*
X15407500Y-12999214D01*
X15378928Y-12984929D01*
X15364643Y-12970643D01*
X15350357Y-12942071D01*
X15336071Y-12884929D01*
X15336071Y-12813500D01*
X15350357Y-12756357D01*
X15364643Y-12727786D01*
X15378928Y-12713500D01*
X15407500Y-12699214D01*
X15636071Y-12970643D02*
X15650357Y-12984929D01*
X15636071Y-12999214D01*
X15621786Y-12984929D01*
X15636071Y-12970643D01*
X15636071Y-12999214D01*
X15836071Y-12699214D02*
X15864643Y-12699214D01*
X15893214Y-12713500D01*
X15907500Y-12727786D01*
X15921786Y-12756357D01*
X15936071Y-12813500D01*
X15936071Y-12884929D01*
X15921786Y-12942071D01*
X15907500Y-12970643D01*
X15893214Y-12984929D01*
X15864643Y-12999214D01*
X15836071Y-12999214D01*
X15807500Y-12984929D01*
X15793214Y-12970643D01*
X15778928Y-12942071D01*
X15764643Y-12884929D01*
X15764643Y-12813500D01*
X15778928Y-12756357D01*
X15793214Y-12727786D01*
X15807500Y-12713500D01*
X15836071Y-12699214D01*
X16036071Y-12699214D02*
X16221786Y-12699214D01*
X16121786Y-12813500D01*
X16164643Y-12813500D01*
X16193214Y-12827786D01*
X16207500Y-12842071D01*
X16221786Y-12870643D01*
X16221786Y-12942071D01*
X16207500Y-12970643D01*
X16193214Y-12984929D01*
X16164643Y-12999214D01*
X16078928Y-12999214D01*
X16050357Y-12984929D01*
X16036071Y-12970643D01*
X16364643Y-12999214D02*
X16421786Y-12999214D01*
X16450357Y-12984929D01*
X16464643Y-12970643D01*
X16493214Y-12927786D01*
X16507500Y-12870643D01*
X16507500Y-12756357D01*
X16493214Y-12727786D01*
X16478928Y-12713500D01*
X16450357Y-12699214D01*
X16393214Y-12699214D01*
X16364643Y-12713500D01*
X16350357Y-12727786D01*
X16336071Y-12756357D01*
X16336071Y-12827786D01*
X16350357Y-12856357D01*
X16364643Y-12870643D01*
X16393214Y-12884929D01*
X16450357Y-12884929D01*
X16478928Y-12870643D01*
X16493214Y-12856357D01*
X16507500Y-12827786D01*
X16621786Y-12699214D02*
X16621786Y-12756357D01*
X16736071Y-12699214D02*
X16736071Y-12756357D01*
X17178928Y-13113500D02*
X17164643Y-13099214D01*
X17136071Y-13056357D01*
X17121786Y-13027786D01*
X17107500Y-12984929D01*
X17093214Y-12913500D01*
X17093214Y-12856357D01*
X17107500Y-12784929D01*
X17121786Y-12742071D01*
X17136071Y-12713500D01*
X17164643Y-12670643D01*
X17178928Y-12656357D01*
X17264643Y-12699214D02*
X17450357Y-12699214D01*
X17350357Y-12813500D01*
X17393214Y-12813500D01*
X17421786Y-12827786D01*
X17436071Y-12842071D01*
X17450357Y-12870643D01*
X17450357Y-12942071D01*
X17436071Y-12970643D01*
X17421786Y-12984929D01*
X17393214Y-12999214D01*
X17307500Y-12999214D01*
X17278928Y-12984929D01*
X17264643Y-12970643D01*
X17807500Y-12999214D02*
X17807500Y-12699214D01*
X17936071Y-12999214D02*
X17936071Y-12842071D01*
X17921786Y-12813500D01*
X17893214Y-12799214D01*
X17850357Y-12799214D01*
X17821786Y-12813500D01*
X17807500Y-12827786D01*
X18121786Y-12999214D02*
X18093214Y-12984929D01*
X18078928Y-12970643D01*
X18064643Y-12942071D01*
X18064643Y-12856357D01*
X18078928Y-12827786D01*
X18093214Y-12813500D01*
X18121786Y-12799214D01*
X18164643Y-12799214D01*
X18193214Y-12813500D01*
X18207500Y-12827786D01*
X18221786Y-12856357D01*
X18221786Y-12942071D01*
X18207500Y-12970643D01*
X18193214Y-12984929D01*
X18164643Y-12999214D01*
X18121786Y-12999214D01*
X18393214Y-12999214D02*
X18364643Y-12984929D01*
X18350357Y-12956357D01*
X18350357Y-12699214D01*
X18621786Y-12984929D02*
X18593214Y-12999214D01*
X18536071Y-12999214D01*
X18507500Y-12984929D01*
X18493214Y-12956357D01*
X18493214Y-12842071D01*
X18507500Y-12813500D01*
X18536071Y-12799214D01*
X18593214Y-12799214D01*
X18621786Y-12813500D01*
X18636071Y-12842071D01*
X18636071Y-12870643D01*
X18493214Y-12899214D01*
X18750357Y-12984929D02*
X18778928Y-12999214D01*
X18836071Y-12999214D01*
X18864643Y-12984929D01*
X18878928Y-12956357D01*
X18878928Y-12942071D01*
X18864643Y-12913500D01*
X18836071Y-12899214D01*
X18793214Y-12899214D01*
X18764643Y-12884929D01*
X18750357Y-12856357D01*
X18750357Y-12842071D01*
X18764643Y-12813500D01*
X18793214Y-12799214D01*
X18836071Y-12799214D01*
X18864643Y-12813500D01*
X18978928Y-13113500D02*
X18993214Y-13099214D01*
X19021786Y-13056357D01*
X19036071Y-13027786D01*
X19050357Y-12984929D01*
X19064643Y-12913500D01*
X19064643Y-12856357D01*
X19050357Y-12784929D01*
X19036071Y-12742071D01*
X19021786Y-12713500D01*
X18993214Y-12670643D01*
X18978928Y-12656357D01*
X19521786Y-13113500D02*
X19507500Y-13099214D01*
X19478928Y-13056357D01*
X19464643Y-13027786D01*
X19450357Y-12984929D01*
X19436071Y-12913500D01*
X19436071Y-12856357D01*
X19450357Y-12784929D01*
X19464643Y-12742071D01*
X19478928Y-12713500D01*
X19507500Y-12670643D01*
X19521786Y-12656357D01*
X19636071Y-12799214D02*
X19636071Y-12999214D01*
X19636071Y-12827786D02*
X19650357Y-12813500D01*
X19678928Y-12799214D01*
X19721786Y-12799214D01*
X19750357Y-12813500D01*
X19764643Y-12842071D01*
X19764643Y-12999214D01*
X19950357Y-12999214D02*
X19921786Y-12984929D01*
X19907500Y-12970643D01*
X19893214Y-12942071D01*
X19893214Y-12856357D01*
X19907500Y-12827786D01*
X19921786Y-12813500D01*
X19950357Y-12799214D01*
X19993214Y-12799214D01*
X20021786Y-12813500D01*
X20036071Y-12827786D01*
X20050357Y-12856357D01*
X20050357Y-12942071D01*
X20036071Y-12970643D01*
X20021786Y-12984929D01*
X19993214Y-12999214D01*
X19950357Y-12999214D01*
X20136071Y-12799214D02*
X20250357Y-12799214D01*
X20178928Y-12699214D02*
X20178928Y-12956357D01*
X20193214Y-12984929D01*
X20221786Y-12999214D01*
X20250357Y-12999214D01*
X20578928Y-12799214D02*
X20578928Y-13099214D01*
X20578928Y-12813500D02*
X20607500Y-12799214D01*
X20664643Y-12799214D01*
X20693214Y-12813500D01*
X20707500Y-12827786D01*
X20721786Y-12856357D01*
X20721786Y-12942071D01*
X20707500Y-12970643D01*
X20693214Y-12984929D01*
X20664643Y-12999214D01*
X20607500Y-12999214D01*
X20578928Y-12984929D01*
X20893214Y-12999214D02*
X20864643Y-12984929D01*
X20850357Y-12956357D01*
X20850357Y-12699214D01*
X21136071Y-12999214D02*
X21136071Y-12842071D01*
X21121786Y-12813500D01*
X21093214Y-12799214D01*
X21036071Y-12799214D01*
X21007500Y-12813500D01*
X21136071Y-12984929D02*
X21107500Y-12999214D01*
X21036071Y-12999214D01*
X21007500Y-12984929D01*
X20993214Y-12956357D01*
X20993214Y-12927786D01*
X21007500Y-12899214D01*
X21036071Y-12884929D01*
X21107500Y-12884929D01*
X21136071Y-12870643D01*
X21236071Y-12799214D02*
X21350357Y-12799214D01*
X21278928Y-12699214D02*
X21278928Y-12956357D01*
X21293214Y-12984929D01*
X21321786Y-12999214D01*
X21350357Y-12999214D01*
X21564643Y-12984929D02*
X21536071Y-12999214D01*
X21478928Y-12999214D01*
X21450357Y-12984929D01*
X21436071Y-12956357D01*
X21436071Y-12842071D01*
X21450357Y-12813500D01*
X21478928Y-12799214D01*
X21536071Y-12799214D01*
X21564643Y-12813500D01*
X21578928Y-12842071D01*
X21578928Y-12870643D01*
X21436071Y-12899214D01*
X21836071Y-12999214D02*
X21836071Y-12699214D01*
X21836071Y-12984929D02*
X21807500Y-12999214D01*
X21750357Y-12999214D01*
X21721786Y-12984929D01*
X21707500Y-12970643D01*
X21693214Y-12942071D01*
X21693214Y-12856357D01*
X21707500Y-12827786D01*
X21721786Y-12813500D01*
X21750357Y-12799214D01*
X21807500Y-12799214D01*
X21836071Y-12813500D01*
X21950357Y-13113500D02*
X21964643Y-13099214D01*
X21993214Y-13056357D01*
X22007500Y-13027786D01*
X22021786Y-12984929D01*
X22036071Y-12913500D01*
X22036071Y-12856357D01*
X22021786Y-12784929D01*
X22007500Y-12742071D01*
X21993214Y-12713500D01*
X21964643Y-12670643D01*
X21950357Y-12656357D01*
X12373750Y-13140750D02*
X12373750Y-13378250D01*
X12255000Y-13259500D02*
X12492500Y-13259500D01*
X12764643Y-13123786D02*
X12778928Y-13109500D01*
X12807500Y-13095214D01*
X12878928Y-13095214D01*
X12907500Y-13109500D01*
X12921786Y-13123786D01*
X12936071Y-13152357D01*
X12936071Y-13180929D01*
X12921786Y-13223786D01*
X12750357Y-13395214D01*
X12936071Y-13395214D01*
X13064643Y-13366643D02*
X13078928Y-13380929D01*
X13064643Y-13395214D01*
X13050357Y-13380929D01*
X13064643Y-13366643D01*
X13064643Y-13395214D01*
X13178928Y-13095214D02*
X13364643Y-13095214D01*
X13264643Y-13209500D01*
X13307500Y-13209500D01*
X13336071Y-13223786D01*
X13350357Y-13238071D01*
X13364643Y-13266643D01*
X13364643Y-13338071D01*
X13350357Y-13366643D01*
X13336071Y-13380929D01*
X13307500Y-13395214D01*
X13221786Y-13395214D01*
X13193214Y-13380929D01*
X13178928Y-13366643D01*
X13536071Y-13223786D02*
X13507500Y-13209500D01*
X13493214Y-13195214D01*
X13478928Y-13166643D01*
X13478928Y-13152357D01*
X13493214Y-13123786D01*
X13507500Y-13109500D01*
X13536071Y-13095214D01*
X13593214Y-13095214D01*
X13621786Y-13109500D01*
X13636071Y-13123786D01*
X13650357Y-13152357D01*
X13650357Y-13166643D01*
X13636071Y-13195214D01*
X13621786Y-13209500D01*
X13593214Y-13223786D01*
X13536071Y-13223786D01*
X13507500Y-13238071D01*
X13493214Y-13252357D01*
X13478928Y-13280929D01*
X13478928Y-13338071D01*
X13493214Y-13366643D01*
X13507500Y-13380929D01*
X13536071Y-13395214D01*
X13593214Y-13395214D01*
X13621786Y-13380929D01*
X13636071Y-13366643D01*
X13650357Y-13338071D01*
X13650357Y-13280929D01*
X13636071Y-13252357D01*
X13621786Y-13238071D01*
X13593214Y-13223786D01*
X13778928Y-13395214D02*
X13778928Y-13195214D01*
X13778928Y-13223786D02*
X13793214Y-13209500D01*
X13821786Y-13195214D01*
X13864643Y-13195214D01*
X13893214Y-13209500D01*
X13907500Y-13238071D01*
X13907500Y-13395214D01*
X13907500Y-13238071D02*
X13921786Y-13209500D01*
X13950357Y-13195214D01*
X13993214Y-13195214D01*
X14021786Y-13209500D01*
X14036071Y-13238071D01*
X14036071Y-13395214D01*
X14178928Y-13395214D02*
X14178928Y-13195214D01*
X14178928Y-13223786D02*
X14193214Y-13209500D01*
X14221786Y-13195214D01*
X14264643Y-13195214D01*
X14293214Y-13209500D01*
X14307500Y-13238071D01*
X14307500Y-13395214D01*
X14307500Y-13238071D02*
X14321786Y-13209500D01*
X14350357Y-13195214D01*
X14393214Y-13195214D01*
X14421786Y-13209500D01*
X14436071Y-13238071D01*
X14436071Y-13395214D01*
X15021786Y-13080929D02*
X14764643Y-13466643D01*
X15407500Y-13095214D02*
X15436071Y-13095214D01*
X15464643Y-13109500D01*
X15478928Y-13123786D01*
X15493214Y-13152357D01*
X15507500Y-13209500D01*
X15507500Y-13280929D01*
X15493214Y-13338071D01*
X15478928Y-13366643D01*
X15464643Y-13380929D01*
X15436071Y-13395214D01*
X15407500Y-13395214D01*
X15378928Y-13380929D01*
X15364643Y-13366643D01*
X15350357Y-13338071D01*
X15336071Y-13280929D01*
X15336071Y-13209500D01*
X15350357Y-13152357D01*
X15364643Y-13123786D01*
X15378928Y-13109500D01*
X15407500Y-13095214D01*
X15636071Y-13366643D02*
X15650357Y-13380929D01*
X15636071Y-13395214D01*
X15621786Y-13380929D01*
X15636071Y-13366643D01*
X15636071Y-13395214D01*
X15836071Y-13095214D02*
X15864643Y-13095214D01*
X15893214Y-13109500D01*
X15907500Y-13123786D01*
X15921786Y-13152357D01*
X15936071Y-13209500D01*
X15936071Y-13280929D01*
X15921786Y-13338071D01*
X15907500Y-13366643D01*
X15893214Y-13380929D01*
X15864643Y-13395214D01*
X15836071Y-13395214D01*
X15807500Y-13380929D01*
X15793214Y-13366643D01*
X15778928Y-13338071D01*
X15764643Y-13280929D01*
X15764643Y-13209500D01*
X15778928Y-13152357D01*
X15793214Y-13123786D01*
X15807500Y-13109500D01*
X15836071Y-13095214D01*
X16078928Y-13395214D02*
X16136071Y-13395214D01*
X16164643Y-13380929D01*
X16178928Y-13366643D01*
X16207500Y-13323786D01*
X16221786Y-13266643D01*
X16221786Y-13152357D01*
X16207500Y-13123786D01*
X16193214Y-13109500D01*
X16164643Y-13095214D01*
X16107500Y-13095214D01*
X16078928Y-13109500D01*
X16064643Y-13123786D01*
X16050357Y-13152357D01*
X16050357Y-13223786D01*
X16064643Y-13252357D01*
X16078928Y-13266643D01*
X16107500Y-13280929D01*
X16164643Y-13280929D01*
X16193214Y-13266643D01*
X16207500Y-13252357D01*
X16221786Y-13223786D01*
X16478928Y-13195214D02*
X16478928Y-13395214D01*
X16407500Y-13080929D02*
X16336071Y-13295214D01*
X16521786Y-13295214D01*
X16621786Y-13095214D02*
X16621786Y-13152357D01*
X16736071Y-13095214D02*
X16736071Y-13152357D01*
X17178928Y-13509500D02*
X17164643Y-13495214D01*
X17136071Y-13452357D01*
X17121786Y-13423786D01*
X17107500Y-13380929D01*
X17093214Y-13309500D01*
X17093214Y-13252357D01*
X17107500Y-13180929D01*
X17121786Y-13138071D01*
X17136071Y-13109500D01*
X17164643Y-13066643D01*
X17178928Y-13052357D01*
X17421786Y-13195214D02*
X17421786Y-13395214D01*
X17350357Y-13080929D02*
X17278928Y-13295214D01*
X17464643Y-13295214D01*
X17807500Y-13395214D02*
X17807500Y-13095214D01*
X17936071Y-13395214D02*
X17936071Y-13238071D01*
X17921786Y-13209500D01*
X17893214Y-13195214D01*
X17850357Y-13195214D01*
X17821786Y-13209500D01*
X17807500Y-13223786D01*
X18121786Y-13395214D02*
X18093214Y-13380929D01*
X18078928Y-13366643D01*
X18064643Y-13338071D01*
X18064643Y-13252357D01*
X18078928Y-13223786D01*
X18093214Y-13209500D01*
X18121786Y-13195214D01*
X18164643Y-13195214D01*
X18193214Y-13209500D01*
X18207500Y-13223786D01*
X18221786Y-13252357D01*
X18221786Y-13338071D01*
X18207500Y-13366643D01*
X18193214Y-13380929D01*
X18164643Y-13395214D01*
X18121786Y-13395214D01*
X18393214Y-13395214D02*
X18364643Y-13380929D01*
X18350357Y-13352357D01*
X18350357Y-13095214D01*
X18621786Y-13380929D02*
X18593214Y-13395214D01*
X18536071Y-13395214D01*
X18507500Y-13380929D01*
X18493214Y-13352357D01*
X18493214Y-13238071D01*
X18507500Y-13209500D01*
X18536071Y-13195214D01*
X18593214Y-13195214D01*
X18621786Y-13209500D01*
X18636071Y-13238071D01*
X18636071Y-13266643D01*
X18493214Y-13295214D01*
X18750357Y-13380929D02*
X18778928Y-13395214D01*
X18836071Y-13395214D01*
X18864643Y-13380929D01*
X18878928Y-13352357D01*
X18878928Y-13338071D01*
X18864643Y-13309500D01*
X18836071Y-13295214D01*
X18793214Y-13295214D01*
X18764643Y-13280929D01*
X18750357Y-13252357D01*
X18750357Y-13238071D01*
X18764643Y-13209500D01*
X18793214Y-13195214D01*
X18836071Y-13195214D01*
X18864643Y-13209500D01*
X18978928Y-13509500D02*
X18993214Y-13495214D01*
X19021786Y-13452357D01*
X19036071Y-13423786D01*
X19050357Y-13380929D01*
X19064643Y-13309500D01*
X19064643Y-13252357D01*
X19050357Y-13180929D01*
X19036071Y-13138071D01*
X19021786Y-13109500D01*
X18993214Y-13066643D01*
X18978928Y-13052357D01*
X19521786Y-13509500D02*
X19507500Y-13495214D01*
X19478928Y-13452357D01*
X19464643Y-13423786D01*
X19450357Y-13380929D01*
X19436071Y-13309500D01*
X19436071Y-13252357D01*
X19450357Y-13180929D01*
X19464643Y-13138071D01*
X19478928Y-13109500D01*
X19507500Y-13066643D01*
X19521786Y-13052357D01*
X19636071Y-13195214D02*
X19636071Y-13395214D01*
X19636071Y-13223786D02*
X19650357Y-13209500D01*
X19678928Y-13195214D01*
X19721786Y-13195214D01*
X19750357Y-13209500D01*
X19764643Y-13238071D01*
X19764643Y-13395214D01*
X19950357Y-13395214D02*
X19921786Y-13380929D01*
X19907500Y-13366643D01*
X19893214Y-13338071D01*
X19893214Y-13252357D01*
X19907500Y-13223786D01*
X19921786Y-13209500D01*
X19950357Y-13195214D01*
X19993214Y-13195214D01*
X20021786Y-13209500D01*
X20036071Y-13223786D01*
X20050357Y-13252357D01*
X20050357Y-13338071D01*
X20036071Y-13366643D01*
X20021786Y-13380929D01*
X19993214Y-13395214D01*
X19950357Y-13395214D01*
X20136071Y-13195214D02*
X20250357Y-13195214D01*
X20178928Y-13095214D02*
X20178928Y-13352357D01*
X20193214Y-13380929D01*
X20221786Y-13395214D01*
X20250357Y-13395214D01*
X20578928Y-13195214D02*
X20578928Y-13495214D01*
X20578928Y-13209500D02*
X20607500Y-13195214D01*
X20664643Y-13195214D01*
X20693214Y-13209500D01*
X20707500Y-13223786D01*
X20721786Y-13252357D01*
X20721786Y-13338071D01*
X20707500Y-13366643D01*
X20693214Y-13380929D01*
X20664643Y-13395214D01*
X20607500Y-13395214D01*
X20578928Y-13380929D01*
X20893214Y-13395214D02*
X20864643Y-13380929D01*
X20850357Y-13352357D01*
X20850357Y-13095214D01*
X21136071Y-13395214D02*
X21136071Y-13238071D01*
X21121786Y-13209500D01*
X21093214Y-13195214D01*
X21036071Y-13195214D01*
X21007500Y-13209500D01*
X21136071Y-13380929D02*
X21107500Y-13395214D01*
X21036071Y-13395214D01*
X21007500Y-13380929D01*
X20993214Y-13352357D01*
X20993214Y-13323786D01*
X21007500Y-13295214D01*
X21036071Y-13280929D01*
X21107500Y-13280929D01*
X21136071Y-13266643D01*
X21236071Y-13195214D02*
X21350357Y-13195214D01*
X21278928Y-13095214D02*
X21278928Y-13352357D01*
X21293214Y-13380929D01*
X21321786Y-13395214D01*
X21350357Y-13395214D01*
X21564643Y-13380929D02*
X21536071Y-13395214D01*
X21478928Y-13395214D01*
X21450357Y-13380929D01*
X21436071Y-13352357D01*
X21436071Y-13238071D01*
X21450357Y-13209500D01*
X21478928Y-13195214D01*
X21536071Y-13195214D01*
X21564643Y-13209500D01*
X21578928Y-13238071D01*
X21578928Y-13266643D01*
X21436071Y-13295214D01*
X21836071Y-13395214D02*
X21836071Y-13095214D01*
X21836071Y-13380929D02*
X21807500Y-13395214D01*
X21750357Y-13395214D01*
X21721786Y-13380929D01*
X21707500Y-13366643D01*
X21693214Y-13338071D01*
X21693214Y-13252357D01*
X21707500Y-13223786D01*
X21721786Y-13209500D01*
X21750357Y-13195214D01*
X21807500Y-13195214D01*
X21836071Y-13209500D01*
X21950357Y-13509500D02*
X21964643Y-13495214D01*
X21993214Y-13452357D01*
X22007500Y-13423786D01*
X22021786Y-13380929D01*
X22036071Y-13309500D01*
X22036071Y-13252357D01*
X22021786Y-13180929D01*
X22007500Y-13138071D01*
X21993214Y-13109500D01*
X21964643Y-13066643D01*
X21950357Y-13052357D01*
X12445638Y-13768638D02*
X12445638Y-13542362D01*
X12219362Y-13542362D01*
X12219362Y-13768638D01*
X12445638Y-13768638D01*
X12750357Y-13491214D02*
X12936071Y-13491214D01*
X12836071Y-13605500D01*
X12878928Y-13605500D01*
X12907500Y-13619786D01*
X12921786Y-13634071D01*
X12936071Y-13662643D01*
X12936071Y-13734071D01*
X12921786Y-13762643D01*
X12907500Y-13776929D01*
X12878928Y-13791214D01*
X12793214Y-13791214D01*
X12764643Y-13776929D01*
X12750357Y-13762643D01*
X13064643Y-13762643D02*
X13078928Y-13776929D01*
X13064643Y-13791214D01*
X13050357Y-13776929D01*
X13064643Y-13762643D01*
X13064643Y-13791214D01*
X13193214Y-13519786D02*
X13207500Y-13505500D01*
X13236071Y-13491214D01*
X13307500Y-13491214D01*
X13336071Y-13505500D01*
X13350357Y-13519786D01*
X13364643Y-13548357D01*
X13364643Y-13576929D01*
X13350357Y-13619786D01*
X13178928Y-13791214D01*
X13364643Y-13791214D01*
X13550357Y-13491214D02*
X13578928Y-13491214D01*
X13607500Y-13505500D01*
X13621786Y-13519786D01*
X13636071Y-13548357D01*
X13650357Y-13605500D01*
X13650357Y-13676929D01*
X13636071Y-13734071D01*
X13621786Y-13762643D01*
X13607500Y-13776929D01*
X13578928Y-13791214D01*
X13550357Y-13791214D01*
X13521786Y-13776929D01*
X13507500Y-13762643D01*
X13493214Y-13734071D01*
X13478928Y-13676929D01*
X13478928Y-13605500D01*
X13493214Y-13548357D01*
X13507500Y-13519786D01*
X13521786Y-13505500D01*
X13550357Y-13491214D01*
X13778928Y-13791214D02*
X13778928Y-13591214D01*
X13778928Y-13619786D02*
X13793214Y-13605500D01*
X13821786Y-13591214D01*
X13864643Y-13591214D01*
X13893214Y-13605500D01*
X13907500Y-13634071D01*
X13907500Y-13791214D01*
X13907500Y-13634071D02*
X13921786Y-13605500D01*
X13950357Y-13591214D01*
X13993214Y-13591214D01*
X14021786Y-13605500D01*
X14036071Y-13634071D01*
X14036071Y-13791214D01*
X14178928Y-13791214D02*
X14178928Y-13591214D01*
X14178928Y-13619786D02*
X14193214Y-13605500D01*
X14221786Y-13591214D01*
X14264643Y-13591214D01*
X14293214Y-13605500D01*
X14307500Y-13634071D01*
X14307500Y-13791214D01*
X14307500Y-13634071D02*
X14321786Y-13605500D01*
X14350357Y-13591214D01*
X14393214Y-13591214D01*
X14421786Y-13605500D01*
X14436071Y-13634071D01*
X14436071Y-13791214D01*
X15021786Y-13476929D02*
X14764643Y-13862643D01*
X15407500Y-13491214D02*
X15436071Y-13491214D01*
X15464643Y-13505500D01*
X15478928Y-13519786D01*
X15493214Y-13548357D01*
X15507500Y-13605500D01*
X15507500Y-13676929D01*
X15493214Y-13734071D01*
X15478928Y-13762643D01*
X15464643Y-13776929D01*
X15436071Y-13791214D01*
X15407500Y-13791214D01*
X15378928Y-13776929D01*
X15364643Y-13762643D01*
X15350357Y-13734071D01*
X15336071Y-13676929D01*
X15336071Y-13605500D01*
X15350357Y-13548357D01*
X15364643Y-13519786D01*
X15378928Y-13505500D01*
X15407500Y-13491214D01*
X15636071Y-13762643D02*
X15650357Y-13776929D01*
X15636071Y-13791214D01*
X15621786Y-13776929D01*
X15636071Y-13762643D01*
X15636071Y-13791214D01*
X15936071Y-13791214D02*
X15764643Y-13791214D01*
X15850357Y-13791214D02*
X15850357Y-13491214D01*
X15821786Y-13534071D01*
X15793214Y-13562643D01*
X15764643Y-13576929D01*
X16050357Y-13519786D02*
X16064643Y-13505500D01*
X16093214Y-13491214D01*
X16164643Y-13491214D01*
X16193214Y-13505500D01*
X16207500Y-13519786D01*
X16221786Y-13548357D01*
X16221786Y-13576929D01*
X16207500Y-13619786D01*
X16036071Y-13791214D01*
X16221786Y-13791214D01*
X16478928Y-13491214D02*
X16421786Y-13491214D01*
X16393214Y-13505500D01*
X16378928Y-13519786D01*
X16350357Y-13562643D01*
X16336071Y-13619786D01*
X16336071Y-13734071D01*
X16350357Y-13762643D01*
X16364643Y-13776929D01*
X16393214Y-13791214D01*
X16450357Y-13791214D01*
X16478928Y-13776929D01*
X16493214Y-13762643D01*
X16507500Y-13734071D01*
X16507500Y-13662643D01*
X16493214Y-13634071D01*
X16478928Y-13619786D01*
X16450357Y-13605500D01*
X16393214Y-13605500D01*
X16364643Y-13619786D01*
X16350357Y-13634071D01*
X16336071Y-13662643D01*
X16621786Y-13491214D02*
X16621786Y-13548357D01*
X16736071Y-13491214D02*
X16736071Y-13548357D01*
X17178928Y-13905500D02*
X17164643Y-13891214D01*
X17136071Y-13848357D01*
X17121786Y-13819786D01*
X17107500Y-13776929D01*
X17093214Y-13705500D01*
X17093214Y-13648357D01*
X17107500Y-13576929D01*
X17121786Y-13534071D01*
X17136071Y-13505500D01*
X17164643Y-13462643D01*
X17178928Y-13448357D01*
X17278928Y-13519786D02*
X17293214Y-13505500D01*
X17321786Y-13491214D01*
X17393214Y-13491214D01*
X17421786Y-13505500D01*
X17436071Y-13519786D01*
X17450357Y-13548357D01*
X17450357Y-13576929D01*
X17436071Y-13619786D01*
X17264643Y-13791214D01*
X17450357Y-13791214D01*
X17807500Y-13791214D02*
X17807500Y-13491214D01*
X17936071Y-13791214D02*
X17936071Y-13634071D01*
X17921786Y-13605500D01*
X17893214Y-13591214D01*
X17850357Y-13591214D01*
X17821786Y-13605500D01*
X17807500Y-13619786D01*
X18121786Y-13791214D02*
X18093214Y-13776929D01*
X18078928Y-13762643D01*
X18064643Y-13734071D01*
X18064643Y-13648357D01*
X18078928Y-13619786D01*
X18093214Y-13605500D01*
X18121786Y-13591214D01*
X18164643Y-13591214D01*
X18193214Y-13605500D01*
X18207500Y-13619786D01*
X18221786Y-13648357D01*
X18221786Y-13734071D01*
X18207500Y-13762643D01*
X18193214Y-13776929D01*
X18164643Y-13791214D01*
X18121786Y-13791214D01*
X18393214Y-13791214D02*
X18364643Y-13776929D01*
X18350357Y-13748357D01*
X18350357Y-13491214D01*
X18621786Y-13776929D02*
X18593214Y-13791214D01*
X18536071Y-13791214D01*
X18507500Y-13776929D01*
X18493214Y-13748357D01*
X18493214Y-13634071D01*
X18507500Y-13605500D01*
X18536071Y-13591214D01*
X18593214Y-13591214D01*
X18621786Y-13605500D01*
X18636071Y-13634071D01*
X18636071Y-13662643D01*
X18493214Y-13691214D01*
X18750357Y-13776929D02*
X18778928Y-13791214D01*
X18836071Y-13791214D01*
X18864643Y-13776929D01*
X18878928Y-13748357D01*
X18878928Y-13734071D01*
X18864643Y-13705500D01*
X18836071Y-13691214D01*
X18793214Y-13691214D01*
X18764643Y-13676929D01*
X18750357Y-13648357D01*
X18750357Y-13634071D01*
X18764643Y-13605500D01*
X18793214Y-13591214D01*
X18836071Y-13591214D01*
X18864643Y-13605500D01*
X18978928Y-13905500D02*
X18993214Y-13891214D01*
X19021786Y-13848357D01*
X19036071Y-13819786D01*
X19050357Y-13776929D01*
X19064643Y-13705500D01*
X19064643Y-13648357D01*
X19050357Y-13576929D01*
X19036071Y-13534071D01*
X19021786Y-13505500D01*
X18993214Y-13462643D01*
X18978928Y-13448357D01*
X19521786Y-13905500D02*
X19507500Y-13891214D01*
X19478928Y-13848357D01*
X19464643Y-13819786D01*
X19450357Y-13776929D01*
X19436071Y-13705500D01*
X19436071Y-13648357D01*
X19450357Y-13576929D01*
X19464643Y-13534071D01*
X19478928Y-13505500D01*
X19507500Y-13462643D01*
X19521786Y-13448357D01*
X19636071Y-13591214D02*
X19636071Y-13791214D01*
X19636071Y-13619786D02*
X19650357Y-13605500D01*
X19678928Y-13591214D01*
X19721786Y-13591214D01*
X19750357Y-13605500D01*
X19764643Y-13634071D01*
X19764643Y-13791214D01*
X19950357Y-13791214D02*
X19921786Y-13776929D01*
X19907500Y-13762643D01*
X19893214Y-13734071D01*
X19893214Y-13648357D01*
X19907500Y-13619786D01*
X19921786Y-13605500D01*
X19950357Y-13591214D01*
X19993214Y-13591214D01*
X20021786Y-13605500D01*
X20036071Y-13619786D01*
X20050357Y-13648357D01*
X20050357Y-13734071D01*
X20036071Y-13762643D01*
X20021786Y-13776929D01*
X19993214Y-13791214D01*
X19950357Y-13791214D01*
X20136071Y-13591214D02*
X20250357Y-13591214D01*
X20178928Y-13491214D02*
X20178928Y-13748357D01*
X20193214Y-13776929D01*
X20221786Y-13791214D01*
X20250357Y-13791214D01*
X20578928Y-13591214D02*
X20578928Y-13891214D01*
X20578928Y-13605500D02*
X20607500Y-13591214D01*
X20664643Y-13591214D01*
X20693214Y-13605500D01*
X20707500Y-13619786D01*
X20721786Y-13648357D01*
X20721786Y-13734071D01*
X20707500Y-13762643D01*
X20693214Y-13776929D01*
X20664643Y-13791214D01*
X20607500Y-13791214D01*
X20578928Y-13776929D01*
X20893214Y-13791214D02*
X20864643Y-13776929D01*
X20850357Y-13748357D01*
X20850357Y-13491214D01*
X21136071Y-13791214D02*
X21136071Y-13634071D01*
X21121786Y-13605500D01*
X21093214Y-13591214D01*
X21036071Y-13591214D01*
X21007500Y-13605500D01*
X21136071Y-13776929D02*
X21107500Y-13791214D01*
X21036071Y-13791214D01*
X21007500Y-13776929D01*
X20993214Y-13748357D01*
X20993214Y-13719786D01*
X21007500Y-13691214D01*
X21036071Y-13676929D01*
X21107500Y-13676929D01*
X21136071Y-13662643D01*
X21236071Y-13591214D02*
X21350357Y-13591214D01*
X21278928Y-13491214D02*
X21278928Y-13748357D01*
X21293214Y-13776929D01*
X21321786Y-13791214D01*
X21350357Y-13791214D01*
X21564643Y-13776929D02*
X21536071Y-13791214D01*
X21478928Y-13791214D01*
X21450357Y-13776929D01*
X21436071Y-13748357D01*
X21436071Y-13634071D01*
X21450357Y-13605500D01*
X21478928Y-13591214D01*
X21536071Y-13591214D01*
X21564643Y-13605500D01*
X21578928Y-13634071D01*
X21578928Y-13662643D01*
X21436071Y-13691214D01*
X21836071Y-13791214D02*
X21836071Y-13491214D01*
X21836071Y-13776929D02*
X21807500Y-13791214D01*
X21750357Y-13791214D01*
X21721786Y-13776929D01*
X21707500Y-13762643D01*
X21693214Y-13734071D01*
X21693214Y-13648357D01*
X21707500Y-13619786D01*
X21721786Y-13605500D01*
X21750357Y-13591214D01*
X21807500Y-13591214D01*
X21836071Y-13605500D01*
X21950357Y-13905500D02*
X21964643Y-13891214D01*
X21993214Y-13848357D01*
X22007500Y-13819786D01*
X22021786Y-13776929D01*
X22036071Y-13705500D01*
X22036071Y-13648357D01*
X22021786Y-13576929D01*
X22007500Y-13534071D01*
X21993214Y-13505500D01*
X21964643Y-13462643D01*
X21950357Y-13448357D01*
M02*
