G04 #@! TF.GenerationSoftware,KiCad,Pcbnew,(2017-05-12 revision b823d0b78)-makepkg*
G04 #@! TF.CreationDate,2017-05-13T14:15:10+02:00*
G04 #@! TF.ProjectId,led_pixel,6C65645F706978656C2E6B696361645F,1.0*
G04 #@! TF.FileFunction,Copper,L1,Top,Signal*
G04 #@! TF.FilePolarity,Positive*
%FSLAX46Y46*%
G04 Gerber Fmt 4.6, Leading zero omitted, Abs format (unit mm)*
G04 Created by KiCad (PCBNEW (2017-05-12 revision b823d0b78)-makepkg) date 05/13/17 14:15:10*
%MOMM*%
%LPD*%
G01*
G04 APERTURE LIST*
%ADD10C,0.100000*%
%ADD11C,0.787400*%
%ADD12R,3.000000X1.000000*%
%ADD13R,7.875000X2.000000*%
%ADD14R,2.000000X4.000000*%
%ADD15R,1.200000X0.750000*%
%ADD16R,1.500000X1.250000*%
%ADD17R,0.750000X1.200000*%
%ADD18R,1.600000X0.550000*%
%ADD19R,0.550000X1.600000*%
%ADD20R,2.499360X1.998980*%
%ADD21R,2.301240X0.500380*%
%ADD22R,1.200000X0.900000*%
%ADD23R,0.900000X1.200000*%
%ADD24R,1.700000X2.000000*%
%ADD25R,1.651000X3.048000*%
%ADD26R,6.096000X6.096000*%
%ADD27O,2.032000X2.032000*%
%ADD28R,2.032000X2.032000*%
%ADD29O,2.032000X1.727200*%
%ADD30R,2.032000X1.727200*%
%ADD31R,1.727200X2.032000*%
%ADD32O,1.727200X2.032000*%
%ADD33C,0.750000*%
%ADD34R,0.700000X2.500000*%
%ADD35R,1.000000X2.500000*%
%ADD36R,2.000000X0.800000*%
%ADD37O,0.609600X1.473200*%
%ADD38R,3.000000X1.500000*%
%ADD39R,1.700000X1.300000*%
%ADD40R,2.500000X1.800000*%
%ADD41R,1.800000X2.500000*%
%ADD42C,0.800000*%
%ADD43C,1.000000*%
%ADD44C,0.300000*%
%ADD45C,0.700000*%
%ADD46C,0.500000*%
%ADD47C,1.000000*%
%ADD48C,0.254000*%
G04 APERTURE END LIST*
D10*
D11*
X141872000Y-79078000D03*
X141872000Y-77808000D03*
X140602000Y-77808000D03*
X140602000Y-79078000D03*
X139332000Y-77808000D03*
X139332000Y-79078000D03*
X143142000Y-77808000D03*
X144412000Y-77808000D03*
X144412000Y-79078000D03*
X143142000Y-79078000D03*
D12*
X156500000Y-88200000D03*
X156500000Y-90000000D03*
X156500000Y-91800000D03*
X143500000Y-91800000D03*
X143500000Y-90000000D03*
X143500000Y-88200000D03*
D13*
X159687500Y-67750000D03*
X147812500Y-67750000D03*
D14*
X138792000Y-99144000D03*
X134792000Y-99144000D03*
X146920000Y-99144000D03*
X142920000Y-99144000D03*
X151048000Y-99144000D03*
X155048000Y-99144000D03*
D15*
X152860000Y-71204000D03*
X154760000Y-71204000D03*
X150700000Y-71204000D03*
X148800000Y-71204000D03*
X147018000Y-83904000D03*
X148918000Y-83904000D03*
X144915000Y-85428000D03*
X143015000Y-85428000D03*
X154892000Y-85174000D03*
X156792000Y-85174000D03*
X156670000Y-71204000D03*
X158570000Y-71204000D03*
D16*
X128644000Y-96604000D03*
X126144000Y-96604000D03*
X126144000Y-94318000D03*
X128644000Y-94318000D03*
D15*
X131016000Y-93810000D03*
X132916000Y-93810000D03*
D17*
X134506000Y-91082000D03*
X134506000Y-92982000D03*
D16*
X155354000Y-111844000D03*
X157854000Y-111844000D03*
X145662000Y-111844000D03*
X143162000Y-111844000D03*
X131478000Y-111844000D03*
X133978000Y-111844000D03*
D18*
X159838000Y-75008000D03*
X159838000Y-75808000D03*
X159838000Y-76608000D03*
X159838000Y-77408000D03*
X159838000Y-78208000D03*
X159838000Y-79008000D03*
X159838000Y-79808000D03*
X159838000Y-80608000D03*
D19*
X158388000Y-82058000D03*
X157588000Y-82058000D03*
X156788000Y-82058000D03*
X155988000Y-82058000D03*
X155188000Y-82058000D03*
X154388000Y-82058000D03*
X153588000Y-82058000D03*
X152788000Y-82058000D03*
D18*
X151338000Y-80608000D03*
X151338000Y-79808000D03*
X151338000Y-79008000D03*
X151338000Y-78208000D03*
X151338000Y-77408000D03*
X151338000Y-76608000D03*
X151338000Y-75808000D03*
X151338000Y-75008000D03*
D19*
X152788000Y-73558000D03*
X153588000Y-73558000D03*
X154388000Y-73558000D03*
X155188000Y-73558000D03*
X155988000Y-73558000D03*
X156788000Y-73558000D03*
X157588000Y-73558000D03*
X158388000Y-73558000D03*
D20*
X126515160Y-75146080D03*
X132014260Y-75146080D03*
X126515160Y-66245920D03*
X132014260Y-66245920D03*
D21*
X132113320Y-72296200D03*
X132113320Y-71496100D03*
X132113320Y-70696000D03*
X132113320Y-69895900D03*
X132113320Y-69095800D03*
D22*
X144455000Y-71204000D03*
X146655000Y-71204000D03*
D23*
X135014000Y-69002000D03*
X135014000Y-66802000D03*
D22*
X149068000Y-82126000D03*
X146868000Y-82126000D03*
X142464000Y-70569000D03*
X140264000Y-70569000D03*
X140264000Y-72347000D03*
X142464000Y-72347000D03*
X170400000Y-70000000D03*
X172600000Y-70000000D03*
X168350000Y-70000000D03*
X166150000Y-70000000D03*
D24*
X152032000Y-112828000D03*
X152032000Y-108828000D03*
X140348000Y-112828000D03*
X140348000Y-108828000D03*
X128664000Y-108828000D03*
X128664000Y-112828000D03*
D22*
X165156000Y-109304000D03*
X167356000Y-109304000D03*
X167356000Y-106764000D03*
X165156000Y-106764000D03*
D25*
X131966000Y-86995000D03*
D26*
X129680000Y-80645000D03*
D25*
X127394000Y-86995000D03*
D17*
X169304000Y-105174000D03*
X169304000Y-103274000D03*
D27*
X137808000Y-66886000D03*
D28*
X140348000Y-66886000D03*
D29*
X172860000Y-100160000D03*
X172860000Y-97620000D03*
D30*
X172860000Y-95080000D03*
D31*
X167710000Y-67250000D03*
D32*
X170250000Y-67250000D03*
X172790000Y-67250000D03*
D29*
X172860000Y-104224000D03*
X172860000Y-106764000D03*
X172860000Y-109304000D03*
D30*
X172860000Y-111844000D03*
D23*
X152032000Y-105832000D03*
X152032000Y-103632000D03*
X140348000Y-105832000D03*
X140348000Y-103632000D03*
X128664000Y-103632000D03*
X128664000Y-105832000D03*
D33*
X156096000Y-107036000D03*
D10*
G36*
X157096000Y-106661000D02*
X156596000Y-107411000D01*
X155596000Y-107411000D01*
X155096000Y-106661000D01*
X157096000Y-106661000D01*
X157096000Y-106661000D01*
G37*
D34*
X157596000Y-108606000D03*
X154596000Y-108606000D03*
X157596000Y-103906000D03*
D35*
X156096000Y-103906000D03*
D34*
X154596000Y-103906000D03*
D35*
X156096000Y-108606000D03*
D33*
X156096000Y-105476000D03*
D10*
G36*
X155096000Y-105851000D02*
X155596000Y-105101000D01*
X156596000Y-105101000D01*
X157096000Y-105851000D01*
X155096000Y-105851000D01*
X155096000Y-105851000D01*
G37*
D36*
X156096000Y-106256000D03*
X143904000Y-106256000D03*
D33*
X143904000Y-105476000D03*
D10*
G36*
X142904000Y-105851000D02*
X143404000Y-105101000D01*
X144404000Y-105101000D01*
X144904000Y-105851000D01*
X142904000Y-105851000D01*
X142904000Y-105851000D01*
G37*
D35*
X143904000Y-108606000D03*
D34*
X142404000Y-103906000D03*
D35*
X143904000Y-103906000D03*
D34*
X145404000Y-103906000D03*
X142404000Y-108606000D03*
X145404000Y-108606000D03*
D33*
X143904000Y-107036000D03*
D10*
G36*
X144904000Y-106661000D02*
X144404000Y-107411000D01*
X143404000Y-107411000D01*
X142904000Y-106661000D01*
X144904000Y-106661000D01*
X144904000Y-106661000D01*
G37*
D37*
X170066000Y-100922000D03*
X168796000Y-100922000D03*
X167526000Y-100922000D03*
X166256000Y-100922000D03*
X166256000Y-95334000D03*
X167526000Y-95334000D03*
X168796000Y-95334000D03*
X170066000Y-95334000D03*
D36*
X132220000Y-106256000D03*
D33*
X132220000Y-105476000D03*
D10*
G36*
X131220000Y-105851000D02*
X131720000Y-105101000D01*
X132720000Y-105101000D01*
X133220000Y-105851000D01*
X131220000Y-105851000D01*
X131220000Y-105851000D01*
G37*
D35*
X132220000Y-108606000D03*
D34*
X130720000Y-103906000D03*
D35*
X132220000Y-103906000D03*
D34*
X133720000Y-103906000D03*
X130720000Y-108606000D03*
X133720000Y-108606000D03*
D33*
X132220000Y-107036000D03*
D10*
G36*
X133220000Y-106661000D02*
X132720000Y-107411000D01*
X131720000Y-107411000D01*
X131220000Y-106661000D01*
X133220000Y-106661000D01*
X133220000Y-106661000D01*
G37*
D38*
X172788000Y-90762000D03*
X163788000Y-90762000D03*
X163788000Y-88222000D03*
X163788000Y-85682000D03*
X163788000Y-83142000D03*
X163788000Y-80602000D03*
X163788000Y-78062000D03*
X163788000Y-75522000D03*
X163788000Y-72982000D03*
X172788000Y-88222000D03*
X172788000Y-85682000D03*
X172788000Y-83142000D03*
X172788000Y-80602000D03*
X172788000Y-78062000D03*
X172788000Y-75522000D03*
X172788000Y-72982000D03*
D39*
X135014000Y-70978000D03*
X135014000Y-74478000D03*
X137427000Y-72827000D03*
X137427000Y-69327000D03*
D40*
X131680000Y-91016000D03*
X127680000Y-91016000D03*
D41*
X160668000Y-108256000D03*
X160668000Y-104256000D03*
X148476000Y-104256000D03*
X148476000Y-108256000D03*
D40*
X166224000Y-112860000D03*
X162224000Y-112860000D03*
D41*
X136792000Y-108256000D03*
X136792000Y-104256000D03*
D23*
X146571000Y-75860000D03*
X146571000Y-73660000D03*
D42*
X161557000Y-93810000D03*
X162192000Y-94445000D03*
X162827000Y-95080000D03*
X163462000Y-95715000D03*
X163462000Y-96604000D03*
X163462000Y-97493000D03*
X170447000Y-78062000D03*
X138062000Y-90127000D03*
X138697000Y-89492000D03*
X139332000Y-88857000D03*
X139967000Y-88222000D03*
X140602000Y-87587000D03*
X141237000Y-86952000D03*
X142126000Y-86952000D03*
X143015000Y-86952000D03*
X143904000Y-86952000D03*
X144793000Y-86952000D03*
X145682000Y-86952000D03*
X146317000Y-86317000D03*
X146952000Y-85682000D03*
X147587000Y-85047000D03*
X139967000Y-75014000D03*
X147333000Y-90635000D03*
X147714000Y-91270000D03*
X148095000Y-91905000D03*
X148476000Y-92540000D03*
X149238000Y-92540000D03*
X150000000Y-92540000D03*
X150762000Y-92540000D03*
X151524000Y-92540000D03*
X151905000Y-91905000D03*
X152286000Y-91270000D03*
X152667000Y-90635000D03*
X153048000Y-90000000D03*
X152667000Y-89365000D03*
X152286000Y-88730000D03*
X151905000Y-88095000D03*
X151524000Y-87460000D03*
X150762000Y-87460000D03*
X150000000Y-87460000D03*
X149238000Y-87460000D03*
X148476000Y-87460000D03*
X148095000Y-88095000D03*
X147714000Y-88730000D03*
X147333000Y-89365000D03*
X146952000Y-90000000D03*
X151524000Y-88730000D03*
X151905000Y-89365000D03*
X152286000Y-90000000D03*
X151905000Y-90635000D03*
X151524000Y-91270000D03*
X151143000Y-91905000D03*
X150381000Y-91905000D03*
X149619000Y-91905000D03*
X148857000Y-91905000D03*
X148476000Y-91270000D03*
X148095000Y-90635000D03*
X147714000Y-90000000D03*
X148095000Y-89365000D03*
X148476000Y-88730000D03*
X148857000Y-88095000D03*
X151143000Y-88095000D03*
X150381000Y-88095000D03*
X149619000Y-88095000D03*
X151524000Y-90000000D03*
X148476000Y-90000000D03*
X149238000Y-91270000D03*
X150762000Y-91270000D03*
X151143000Y-90635000D03*
X149238000Y-88730000D03*
X150000000Y-88730000D03*
X150762000Y-88730000D03*
X151143000Y-89365000D03*
X148857000Y-89365000D03*
X148857000Y-90635000D03*
X150000000Y-91270000D03*
X149619000Y-90635000D03*
X150381000Y-90635000D03*
X150381000Y-89365000D03*
X149619000Y-89365000D03*
X149238000Y-90000000D03*
X150762000Y-90000000D03*
X150000000Y-90000000D03*
X129934000Y-96731000D03*
X129934000Y-97620000D03*
X137427000Y-92159000D03*
X130823000Y-95207000D03*
X131712000Y-95207000D03*
X137427000Y-93048000D03*
X133490000Y-95207000D03*
X132601000Y-95207000D03*
X130188000Y-95842000D03*
X134379000Y-95207000D03*
X136157000Y-95207000D03*
X135268000Y-95207000D03*
X137427000Y-93937000D03*
X136792000Y-94572000D03*
X129299000Y-98255000D03*
X127394000Y-101049000D03*
X128029000Y-99525000D03*
X127394000Y-100160000D03*
X128664000Y-98890000D03*
X158128000Y-85174000D03*
X158382000Y-86940000D03*
X157493000Y-86952000D03*
X156604000Y-86952000D03*
X155715000Y-86952000D03*
X154826000Y-86952000D03*
X153937000Y-86952000D03*
X153302000Y-86317000D03*
X152667000Y-85682000D03*
X152032000Y-85047000D03*
X151143000Y-85047000D03*
X150254000Y-85047000D03*
X149365000Y-85047000D03*
X148476000Y-85047000D03*
X164097000Y-114130000D03*
X164097000Y-113241000D03*
X164097000Y-112352000D03*
X164097000Y-111463000D03*
X163462000Y-110828000D03*
X163462000Y-109939000D03*
X163462000Y-109050000D03*
X163462000Y-108161000D03*
X163462000Y-107272000D03*
X163462000Y-106383000D03*
X163462000Y-105494000D03*
X163462000Y-104605000D03*
X163462000Y-103716000D03*
X163462000Y-102827000D03*
X163462000Y-101938000D03*
X163462000Y-98382000D03*
X163462000Y-99271000D03*
X163462000Y-100159996D03*
X163462000Y-101049000D03*
X145808994Y-83904000D03*
X159652000Y-71204000D03*
D43*
X130696000Y-106256000D03*
X133744000Y-106256000D03*
X142380000Y-106256000D03*
X145428000Y-106256000D03*
X157620000Y-106256000D03*
X154572000Y-106256000D03*
X156096000Y-106256000D03*
X143904000Y-106256000D03*
X132220000Y-106256000D03*
X128410000Y-82126000D03*
X128410000Y-80856000D03*
X128410000Y-79586000D03*
X127140000Y-82126000D03*
X127140000Y-80856000D03*
X127140000Y-79586000D03*
X130950000Y-82126000D03*
X130950000Y-80856000D03*
X130950000Y-79586000D03*
X132220000Y-82126000D03*
X132220000Y-80856000D03*
X132220000Y-79586000D03*
X129680000Y-82126000D03*
X129680000Y-80856000D03*
X129680000Y-79586000D03*
X132220000Y-78316000D03*
X130950000Y-78316000D03*
X127140000Y-78316000D03*
X128410000Y-78316000D03*
X129680000Y-78316000D03*
D42*
X155994400Y-80551200D03*
X155994400Y-75369600D03*
X151778000Y-71204000D03*
X169304000Y-106510000D03*
X166256000Y-102446000D03*
X129299000Y-75141000D03*
X128410000Y-75141000D03*
X129299000Y-66251000D03*
X128410000Y-66251000D03*
X132016800Y-76842800D03*
X141150422Y-74486294D03*
X140602000Y-80221000D03*
X143834999Y-65743000D03*
X142634000Y-65743000D03*
X142380000Y-68029006D03*
X171209000Y-102192000D03*
X154445000Y-75141000D03*
X142888004Y-95842000D03*
X139967000Y-92971800D03*
X140601988Y-98509000D03*
X138655245Y-95692039D03*
X166002000Y-77554000D03*
X161430000Y-75776000D03*
X147968000Y-74505990D03*
X145301000Y-73871000D03*
X135395000Y-78189000D03*
X141110000Y-76157000D03*
X128664000Y-100668000D03*
X128664000Y-102446000D03*
X141491000Y-96477000D03*
X148984000Y-78951000D03*
X146952000Y-79967000D03*
X139116990Y-93937000D03*
X159502669Y-87609331D03*
X158382000Y-80475000D03*
X158382000Y-75776000D03*
X167272000Y-77554000D03*
X167526000Y-74252000D03*
X165887000Y-74252000D03*
X162318992Y-70569000D03*
X159398000Y-73558000D03*
X144030996Y-84031000D03*
X145809000Y-80856000D03*
X146571000Y-78443000D03*
X152921000Y-77808000D03*
X161563656Y-72986995D03*
X157213600Y-75369600D03*
D44*
X162827000Y-95080000D02*
X162192000Y-94445000D01*
X163462000Y-96604000D02*
X163462000Y-95715000D01*
X163462000Y-98382000D02*
X163462000Y-97493000D01*
X172788000Y-78062000D02*
X170447000Y-78062000D01*
X139332000Y-88857000D02*
X138697000Y-89492000D01*
X140602000Y-87587000D02*
X139967000Y-88222000D01*
X142126000Y-86952000D02*
X141237000Y-86952000D01*
X143904000Y-86952000D02*
X143015000Y-86952000D01*
X145682000Y-86952000D02*
X144793000Y-86952000D01*
X146952000Y-85682000D02*
X146317000Y-86317000D01*
X148476000Y-85047000D02*
X147587000Y-85047000D01*
X139967000Y-76616225D02*
X139967000Y-75014000D01*
X139332000Y-77808000D02*
X139332000Y-77251225D01*
X139332000Y-77251225D02*
X139967000Y-76616225D01*
X147714000Y-91270000D02*
X147714000Y-91016000D01*
X147714000Y-91016000D02*
X147333000Y-90635000D01*
X148476000Y-92540000D02*
X148476000Y-92286000D01*
X148476000Y-92286000D02*
X148095000Y-91905000D01*
X150000000Y-92540000D02*
X149238000Y-92540000D01*
X151524000Y-92540000D02*
X150762000Y-92540000D01*
X152286000Y-91270000D02*
X152286000Y-91524000D01*
X152286000Y-91524000D02*
X151905000Y-91905000D01*
X153048000Y-90000000D02*
X153048000Y-90254000D01*
X153048000Y-90254000D02*
X152667000Y-90635000D01*
X152286000Y-88730000D02*
X152286000Y-88984000D01*
X152286000Y-88984000D02*
X152667000Y-89365000D01*
X151524000Y-87460000D02*
X151524000Y-87714000D01*
X151524000Y-87714000D02*
X151905000Y-88095000D01*
X150000000Y-87460000D02*
X150762000Y-87460000D01*
X148476000Y-87460000D02*
X149238000Y-87460000D01*
X147714000Y-88730000D02*
X147714000Y-88476000D01*
X147714000Y-88476000D02*
X148095000Y-88095000D01*
X146952000Y-90000000D02*
X146952000Y-89746000D01*
X146952000Y-89746000D02*
X147333000Y-89365000D01*
X151905000Y-89365000D02*
X151905000Y-89111000D01*
X151905000Y-89111000D02*
X151524000Y-88730000D01*
X151905000Y-90635000D02*
X151905000Y-90381000D01*
X151905000Y-90381000D02*
X152286000Y-90000000D01*
X151143000Y-91905000D02*
X151143000Y-91651000D01*
X151143000Y-91651000D02*
X151524000Y-91270000D01*
X149619000Y-91905000D02*
X150381000Y-91905000D01*
X148476000Y-91270000D02*
X148476000Y-91524000D01*
X148476000Y-91524000D02*
X148857000Y-91905000D01*
X147714000Y-90000000D02*
X147714000Y-90254000D01*
X147714000Y-90254000D02*
X148095000Y-90635000D01*
X148476000Y-88730000D02*
X148476000Y-88984000D01*
X148476000Y-88984000D02*
X148095000Y-89365000D01*
X149619000Y-88095000D02*
X148857000Y-88095000D01*
X149619000Y-88095000D02*
X150381000Y-88095000D01*
X150762000Y-90000000D02*
X151524000Y-90000000D01*
X150762000Y-91270000D02*
X149238000Y-91270000D01*
X151143000Y-89365000D02*
X151143000Y-90635000D01*
X150000000Y-88095000D02*
X150000000Y-88730000D01*
X150000000Y-88730000D02*
X150000000Y-90000000D01*
X150762000Y-88730000D02*
X150000000Y-88730000D01*
X148857000Y-89365000D02*
X151143000Y-89365000D01*
X150000000Y-91270000D02*
X149492000Y-91270000D01*
X149492000Y-91270000D02*
X148857000Y-90635000D01*
X150381000Y-90635000D02*
X149619000Y-90635000D01*
X149619000Y-89365000D02*
X150381000Y-89365000D01*
X150000000Y-90000000D02*
X149238000Y-90000000D01*
X153302000Y-86317000D02*
X151778000Y-86317000D01*
X151778000Y-86317000D02*
X150000000Y-88095000D01*
X128644000Y-96604000D02*
X129807000Y-96604000D01*
X129807000Y-96604000D02*
X129934000Y-96731000D01*
X129934000Y-96731000D02*
X129934000Y-96096000D01*
X129934000Y-96096000D02*
X130188000Y-95842000D01*
X129934000Y-97620000D02*
X129934000Y-96731000D01*
X137427000Y-93048000D02*
X137427000Y-92159000D01*
X132601000Y-95207000D02*
X131712000Y-95207000D01*
X130823000Y-95207000D02*
X130188000Y-95842000D01*
X136792000Y-94572000D02*
X137427000Y-93937000D01*
X135268000Y-95207000D02*
X136157000Y-95207000D01*
X133490000Y-95207000D02*
X134379000Y-95207000D01*
X128029000Y-99525000D02*
X127394000Y-100160000D01*
X129299000Y-98255000D02*
X128664000Y-98890000D01*
X156792000Y-85174000D02*
X158128000Y-85174000D01*
X157505000Y-86940000D02*
X157493000Y-86952000D01*
X158382000Y-86940000D02*
X157505000Y-86940000D01*
X156604000Y-86952000D02*
X155715000Y-86952000D01*
X154826000Y-86952000D02*
X153937000Y-86952000D01*
X153302000Y-86317000D02*
X152667000Y-85682000D01*
X152032000Y-85047000D02*
X151143000Y-85047000D01*
X150254000Y-85047000D02*
X149365000Y-85047000D01*
X164097000Y-112352000D02*
X164097000Y-113241000D01*
X163462000Y-110828000D02*
X164097000Y-111463000D01*
X163462000Y-109050000D02*
X163462000Y-109939000D01*
X163462000Y-107272000D02*
X163462000Y-108161000D01*
X163462000Y-105494000D02*
X163462000Y-106383000D01*
X163462000Y-103716000D02*
X163462000Y-104605000D01*
X163462000Y-101938000D02*
X163462000Y-102827000D01*
X163462000Y-99271000D02*
X163462000Y-98382000D01*
X163462000Y-101049000D02*
X163462000Y-100159996D01*
X145936000Y-83904000D02*
X145808994Y-83904000D01*
X147018000Y-83904000D02*
X145936000Y-83904000D01*
D45*
X143904000Y-106256000D02*
X143904000Y-108606000D01*
X132220000Y-106256000D02*
X130696000Y-106256000D01*
X132220000Y-106256000D02*
X133744000Y-106256000D01*
X156096000Y-106256000D02*
X157620000Y-106256000D01*
X156096000Y-106256000D02*
X154572000Y-106256000D01*
X143904000Y-106256000D02*
X145428000Y-106256000D01*
X143904000Y-106256000D02*
X142380000Y-106256000D01*
D44*
X158570000Y-71204000D02*
X159652000Y-71204000D01*
D46*
X128644000Y-94318000D02*
X129553000Y-94318000D01*
X129553000Y-94318000D02*
X130061000Y-93810000D01*
X130061000Y-93810000D02*
X131016000Y-93810000D01*
X128644000Y-96604000D02*
X128644000Y-94318000D01*
D44*
X155988000Y-82058000D02*
X155988000Y-80557600D01*
X155988000Y-80557600D02*
X155994400Y-80551200D01*
X156788000Y-73558000D02*
X156788000Y-74576000D01*
X156788000Y-74576000D02*
X155994400Y-75369600D01*
X155188000Y-73558000D02*
X155188000Y-74563200D01*
X155188000Y-74563200D02*
X155994400Y-75369600D01*
X156792000Y-85174000D02*
X156792000Y-84499000D01*
X156792000Y-84499000D02*
X155988000Y-83695000D01*
X155988000Y-83695000D02*
X155988000Y-83158000D01*
X155988000Y-83158000D02*
X155988000Y-82058000D01*
X152860000Y-71204000D02*
X151778000Y-71204000D01*
X150700000Y-71204000D02*
X151778000Y-71204000D01*
X166256000Y-102446000D02*
X166256000Y-100922000D01*
X169304000Y-106510000D02*
X169304000Y-105174000D01*
D45*
X156096000Y-105476000D02*
X156096000Y-103906000D01*
X156096000Y-106256000D02*
X156096000Y-105476000D01*
X156096000Y-107036000D02*
X156096000Y-106256000D01*
X156096000Y-108606000D02*
X156096000Y-107036000D01*
X155354000Y-111844000D02*
X155354000Y-110935000D01*
X155354000Y-110935000D02*
X156096000Y-110193000D01*
X156096000Y-110193000D02*
X156096000Y-108606000D01*
X143162000Y-111844000D02*
X143162000Y-110808000D01*
X143904000Y-110066000D02*
X143904000Y-108606000D01*
X143162000Y-110808000D02*
X143904000Y-110066000D01*
X131478000Y-111844000D02*
X131478000Y-110935000D01*
X131478000Y-110935000D02*
X132220000Y-110193000D01*
X132220000Y-110193000D02*
X132220000Y-108606000D01*
D46*
X132113320Y-73850680D02*
X132014260Y-73949740D01*
X132014260Y-73949740D02*
X132014260Y-75146080D01*
X132113320Y-72296200D02*
X132113320Y-73850680D01*
X126515160Y-75146080D02*
X128404920Y-75146080D01*
X128404920Y-75146080D02*
X128410000Y-75141000D01*
X126515160Y-66245920D02*
X128404920Y-66245920D01*
X128404920Y-66245920D02*
X128410000Y-66251000D01*
D44*
X132014260Y-75146080D02*
X132014260Y-76840260D01*
X132014260Y-76840260D02*
X132016800Y-76842800D01*
D46*
X142634000Y-65743000D02*
X142310999Y-65419999D01*
X142310999Y-65419999D02*
X136480001Y-65419999D01*
X136480001Y-65419999D02*
X136030000Y-65870000D01*
X136030000Y-65870000D02*
X136030000Y-66736000D01*
X136030000Y-66736000D02*
X135964000Y-66802000D01*
X135964000Y-66802000D02*
X135014000Y-66802000D01*
X132113320Y-69095800D02*
X133490000Y-69095800D01*
X133490000Y-69095800D02*
X133871000Y-68714800D01*
X133871000Y-67013000D02*
X134082000Y-66802000D01*
X133871000Y-68714800D02*
X133871000Y-67013000D01*
X134082000Y-66802000D02*
X135014000Y-66802000D01*
X131966000Y-86285336D02*
X131966000Y-86995000D01*
X133532978Y-78666018D02*
X133532978Y-84718358D01*
X136314001Y-75884995D02*
X133532978Y-78666018D01*
X136314001Y-74856999D02*
X136314001Y-75884995D01*
X140475000Y-74125000D02*
X137046000Y-74125000D01*
X137046000Y-74125000D02*
X136314001Y-74856999D01*
X133532978Y-84718358D02*
X131966000Y-86285336D01*
D44*
X146571000Y-73660000D02*
X146020000Y-73109000D01*
X146020000Y-73109000D02*
X143254011Y-73109000D01*
X143254011Y-73109000D02*
X143127011Y-73236000D01*
X143127011Y-73236000D02*
X141364000Y-73236000D01*
X145460000Y-82634000D02*
X143015000Y-82634000D01*
X143015000Y-82634000D02*
X141001999Y-80620999D01*
X141001999Y-80620999D02*
X140602000Y-80221000D01*
X146868000Y-82126000D02*
X145968000Y-82126000D01*
X145968000Y-82126000D02*
X145460000Y-82634000D01*
X140475000Y-74125000D02*
X140513705Y-74086295D01*
X140513705Y-74086295D02*
X140750423Y-74086295D01*
X140750423Y-74086295D02*
X141150422Y-74486294D01*
X140602000Y-79078000D02*
X140602000Y-80221000D01*
D46*
X141364000Y-73236000D02*
X140475000Y-74125000D01*
X133490000Y-91016000D02*
X133556000Y-91082000D01*
X133556000Y-91082000D02*
X134506000Y-91082000D01*
X131680000Y-91016000D02*
X133490000Y-91016000D01*
X141364000Y-69045006D02*
X141364000Y-73236000D01*
X143834999Y-65743000D02*
X142634000Y-65743000D01*
D44*
X144455000Y-71204000D02*
X144305000Y-71204000D01*
X144305000Y-71204000D02*
X143555000Y-70454000D01*
X143555000Y-70454000D02*
X143555000Y-69979998D01*
X143555000Y-69979998D02*
X142620008Y-69045006D01*
X142620008Y-69045006D02*
X141364000Y-69045006D01*
D46*
X141980001Y-68429005D02*
X142380000Y-68029006D01*
X141364000Y-69045006D02*
X141980001Y-68429005D01*
D44*
X170066000Y-101958600D02*
X170299400Y-102192000D01*
X170299400Y-102192000D02*
X171209000Y-102192000D01*
X154445000Y-75141000D02*
X154445000Y-73615000D01*
X154445000Y-73615000D02*
X154388000Y-73558000D01*
D46*
X132179360Y-91016000D02*
X132179360Y-92372360D01*
X132179360Y-92372360D02*
X132916000Y-93109000D01*
X132916000Y-93109000D02*
X132916000Y-93810000D01*
X131966000Y-86995000D02*
X131966000Y-89019000D01*
X131966000Y-89019000D02*
X132179360Y-89232360D01*
X132179360Y-89232360D02*
X132179360Y-91016000D01*
D44*
X132113320Y-69095800D02*
X132550200Y-69095800D01*
X135000000Y-66646000D02*
X135000000Y-66548000D01*
X155734000Y-72220000D02*
X155734000Y-72140000D01*
X155734000Y-72140000D02*
X155988000Y-71886000D01*
X155988000Y-73558000D02*
X155988000Y-72474000D01*
X154626000Y-72220000D02*
X155734000Y-72220000D01*
X155734000Y-72220000D02*
X155988000Y-72474000D01*
X154388000Y-73558000D02*
X154388000Y-72458000D01*
X154388000Y-72458000D02*
X154626000Y-72220000D01*
X155988000Y-71886000D02*
X156670000Y-71204000D01*
X169558000Y-102120000D02*
X169904600Y-102120000D01*
X169904600Y-102120000D02*
X170066000Y-101958600D01*
X170066000Y-101958600D02*
X170066000Y-100922000D01*
X169304000Y-103274000D02*
X169304000Y-102374000D01*
X169304000Y-102374000D02*
X169558000Y-102120000D01*
D45*
X160668000Y-108755360D02*
X158795360Y-108755360D01*
X126144000Y-96604000D02*
X126144000Y-111858000D01*
X126144000Y-111858000D02*
X127114000Y-112828000D01*
X127114000Y-112828000D02*
X128664000Y-112828000D01*
D46*
X127180640Y-91016000D02*
X127180640Y-92245360D01*
X127180640Y-92245360D02*
X126124000Y-93302000D01*
X126124000Y-93302000D02*
X126124000Y-94298000D01*
X126124000Y-94298000D02*
X126144000Y-94318000D01*
X126144000Y-94318000D02*
X126144000Y-96604000D01*
X127394000Y-89111000D02*
X127180640Y-89324360D01*
X127180640Y-89324360D02*
X127180640Y-91016000D01*
X127394000Y-86995000D02*
X127394000Y-89111000D01*
D45*
X158795360Y-108755360D02*
X158646000Y-108606000D01*
X157596000Y-108606000D02*
X158646000Y-108606000D01*
X136792000Y-108755360D02*
X134973360Y-108755360D01*
X134973360Y-108755360D02*
X134824000Y-108606000D01*
X133720000Y-108606000D02*
X134824000Y-108606000D01*
X146762000Y-108606000D02*
X146762000Y-108641790D01*
X146762000Y-108641790D02*
X146875570Y-108755360D01*
X146875570Y-108755360D02*
X148476000Y-108755360D01*
X145404000Y-108606000D02*
X146762000Y-108606000D01*
X133992000Y-110828000D02*
X133992000Y-111830000D01*
X133992000Y-111830000D02*
X133978000Y-111844000D01*
X133720000Y-108606000D02*
X133720000Y-110556000D01*
X133720000Y-110556000D02*
X133992000Y-110828000D01*
X145676000Y-110828000D02*
X145676000Y-111830000D01*
X145676000Y-111830000D02*
X145662000Y-111844000D01*
X145404000Y-108606000D02*
X145404000Y-110556000D01*
X145404000Y-110556000D02*
X145676000Y-110828000D01*
X157868000Y-110828000D02*
X157868000Y-111830000D01*
X157868000Y-111830000D02*
X157854000Y-111844000D01*
X157596000Y-108606000D02*
X157596000Y-110556000D01*
X157596000Y-110556000D02*
X157868000Y-110828000D01*
D46*
X139967000Y-92971800D02*
X139967000Y-90088002D01*
X139967000Y-90088002D02*
X141855002Y-88200000D01*
X141855002Y-88200000D02*
X143500000Y-88200000D01*
X142888004Y-95842000D02*
X143288003Y-96241999D01*
X143288003Y-96241999D02*
X143828001Y-96241999D01*
X143828001Y-96241999D02*
X144920000Y-97333998D01*
X144920000Y-97333998D02*
X144920000Y-100948037D01*
X144920000Y-100948037D02*
X145909963Y-101938000D01*
X150682000Y-102620000D02*
X150682000Y-107328000D01*
X145909963Y-101938000D02*
X150000000Y-101938000D01*
X150682000Y-107328000D02*
X152032000Y-108678000D01*
X152032000Y-108678000D02*
X152032000Y-108828000D01*
X150000000Y-101938000D02*
X150682000Y-102620000D01*
X154596000Y-108606000D02*
X152254000Y-108606000D01*
X152254000Y-108606000D02*
X152032000Y-108828000D01*
X138998000Y-107328000D02*
X138998000Y-102907000D01*
X140348000Y-108678000D02*
X138998000Y-107328000D01*
X140601988Y-99074685D02*
X140601988Y-98509000D01*
X140348000Y-108828000D02*
X140348000Y-108678000D01*
X140601988Y-101303012D02*
X140601988Y-99074685D01*
X138998000Y-102907000D02*
X140601988Y-101303012D01*
X143500000Y-90000000D02*
X141440200Y-90000000D01*
X141440200Y-90000000D02*
X140817001Y-90623199D01*
X140817001Y-90623199D02*
X140817001Y-93530283D01*
X140817001Y-93530283D02*
X139673684Y-94673600D01*
X139673684Y-94673600D02*
X139055244Y-95292040D01*
X139055244Y-95292040D02*
X138655245Y-95692039D01*
X139638392Y-94673600D02*
X139409792Y-94902200D01*
X139673684Y-94673600D02*
X139638392Y-94673600D01*
X142404000Y-108606000D02*
X140570000Y-108606000D01*
X140570000Y-108606000D02*
X140348000Y-108828000D01*
X131579531Y-96569011D02*
X131309999Y-96838543D01*
X143500000Y-92220031D02*
X139151020Y-96569011D01*
X139151020Y-96569011D02*
X131579531Y-96569011D01*
X131309999Y-99877999D02*
X129591999Y-101595999D01*
X143500000Y-91800000D02*
X143500000Y-92220031D01*
X129591999Y-101595999D02*
X128255999Y-101595999D01*
X128255999Y-101595999D02*
X127314000Y-102537998D01*
X131309999Y-96838543D02*
X131309999Y-99877999D01*
X127314000Y-107328000D02*
X128664000Y-108678000D01*
X127314000Y-102537998D02*
X127314000Y-107328000D01*
X128664000Y-108678000D02*
X128664000Y-108828000D01*
X130720000Y-108606000D02*
X128886000Y-108606000D01*
X128886000Y-108606000D02*
X128664000Y-108828000D01*
X141883996Y-94826000D02*
X140292000Y-96417996D01*
X140292000Y-96417996D02*
X140292000Y-96644000D01*
X140292000Y-96644000D02*
X138792000Y-98144000D01*
X138792000Y-98144000D02*
X138792000Y-99144000D01*
X152474000Y-94826000D02*
X155500000Y-91800000D01*
X141883996Y-94826000D02*
X152474000Y-94826000D01*
X155500000Y-91800000D02*
X156500000Y-91800000D01*
X156500000Y-90000000D02*
X157500000Y-90000000D01*
X157500000Y-90000000D02*
X158890000Y-91390000D01*
X158890000Y-91390000D02*
X158890000Y-92733494D01*
X158890000Y-92733494D02*
X158351516Y-93271978D01*
X155110022Y-93271978D02*
X152794000Y-95588000D01*
X158351516Y-93271978D02*
X155110022Y-93271978D01*
X152794000Y-95588000D02*
X147714000Y-95588000D01*
X146920000Y-96382000D02*
X146920000Y-99144000D01*
X147714000Y-95588000D02*
X146920000Y-96382000D01*
X146158000Y-99144000D02*
X146158000Y-99847965D01*
X156500000Y-88200000D02*
X157500000Y-88200000D01*
X157500000Y-88200000D02*
X159590011Y-90290011D01*
X159590011Y-90290011D02*
X159590011Y-93023447D01*
X159590011Y-93023447D02*
X158641469Y-93971989D01*
X158641469Y-93971989D02*
X155487466Y-93971989D01*
X155487466Y-93971989D02*
X153109455Y-96350000D01*
X151048000Y-96826000D02*
X151048000Y-99144000D01*
X153109455Y-96350000D02*
X151524000Y-96350000D01*
X151524000Y-96350000D02*
X151048000Y-96826000D01*
D44*
X166256000Y-77808000D02*
X166002000Y-77554000D01*
X166256000Y-95334000D02*
X166256000Y-77808000D01*
X159838000Y-75808000D02*
X161398000Y-75808000D01*
X161398000Y-75808000D02*
X161430000Y-75776000D01*
X159838000Y-76608000D02*
X160938000Y-76608000D01*
X160938000Y-76608000D02*
X161122000Y-76792000D01*
X167526000Y-76792000D02*
X167537999Y-76803999D01*
X168034000Y-77205998D02*
X168034000Y-78064805D01*
X170066000Y-94902200D02*
X170066000Y-95334000D01*
X161122000Y-76792000D02*
X167526000Y-76792000D01*
X167537999Y-76803999D02*
X167632001Y-76803999D01*
X169411190Y-94247390D02*
X170066000Y-94902200D01*
X167632001Y-76803999D02*
X168034000Y-77205998D01*
X168034000Y-78064805D02*
X167272000Y-78826805D01*
X167272000Y-78826805D02*
X167272000Y-93937000D01*
X167272000Y-93937000D02*
X167582390Y-94247390D01*
X167582390Y-94247390D02*
X169411190Y-94247390D01*
X148367999Y-74905989D02*
X147968000Y-74505990D01*
X148233998Y-75649000D02*
X148367999Y-75514999D01*
X148233998Y-79565002D02*
X148233998Y-75649000D01*
X148623998Y-79955002D02*
X148233998Y-79565002D01*
X149226002Y-79955002D02*
X148623998Y-79955002D01*
X149879000Y-80608000D02*
X149226002Y-79955002D01*
X148367999Y-75514999D02*
X148367999Y-74905989D01*
X151338000Y-80608000D02*
X149879000Y-80608000D01*
X129063999Y-100268001D02*
X128664000Y-100668000D01*
X138177001Y-91799001D02*
X138177001Y-94964999D01*
X130709988Y-98622012D02*
X129063999Y-100268001D01*
X134132989Y-84966889D02*
X133497989Y-85601889D01*
X138177001Y-94964999D02*
X137173000Y-95969000D01*
X137173000Y-95969000D02*
X131276455Y-95969000D01*
X130709988Y-96535467D02*
X130709988Y-98622012D01*
X131276455Y-95969000D02*
X130709988Y-96535467D01*
X136592878Y-91397000D02*
X137775000Y-91397000D01*
X133497990Y-88302112D02*
X136592878Y-91397000D01*
X133497989Y-85601889D02*
X133497990Y-88302112D01*
X135395000Y-78189000D02*
X134132989Y-79451011D01*
X134132989Y-79451011D02*
X134132989Y-84966889D01*
X137775000Y-91397000D02*
X138177001Y-91799001D01*
X144793000Y-73871000D02*
X145301000Y-73871000D01*
X141110000Y-76157000D02*
X141509999Y-75757001D01*
X141509999Y-75187379D02*
X142953378Y-73744000D01*
X142953378Y-73744000D02*
X144666000Y-73744000D01*
X144666000Y-73744000D02*
X144793000Y-73871000D01*
X141509999Y-75757001D02*
X141509999Y-75187379D01*
X140602000Y-77808000D02*
X140602000Y-76665000D01*
X140602000Y-76665000D02*
X141110000Y-76157000D01*
X128664000Y-103632000D02*
X128664000Y-102446000D01*
D46*
X130720000Y-103906000D02*
X130061000Y-103906000D01*
X128664000Y-103632000D02*
X129614000Y-103632000D01*
X129614000Y-103632000D02*
X129888000Y-103906000D01*
X129888000Y-103906000D02*
X130061000Y-103906000D01*
D44*
X146952000Y-79967000D02*
X146952000Y-80602000D01*
X146952000Y-80602000D02*
X147333000Y-80983000D01*
X147968000Y-82706002D02*
X147539992Y-83134010D01*
X142372010Y-83134010D02*
X139332000Y-80094000D01*
X147333000Y-80983000D02*
X147841000Y-80983000D01*
X147841000Y-80983000D02*
X147968000Y-81110000D01*
X147968000Y-81110000D02*
X147968000Y-82706002D01*
X147539992Y-83134010D02*
X142372010Y-83134010D01*
X139332000Y-80094000D02*
X139332000Y-79078000D01*
X134633000Y-79840000D02*
X134633000Y-85174000D01*
X138521225Y-79332000D02*
X135141000Y-79332000D01*
X135141000Y-79332000D02*
X134633000Y-79840000D01*
X139332000Y-79078000D02*
X138775225Y-79078000D01*
X137974122Y-90889000D02*
X139116990Y-92031868D01*
X138775225Y-79078000D02*
X138521225Y-79332000D01*
X134633000Y-85174000D02*
X133998000Y-85809000D01*
X133998000Y-85809000D02*
X133998000Y-88095000D01*
X139116990Y-92031868D02*
X139116990Y-93937000D01*
X133998000Y-88095000D02*
X136792000Y-90889000D01*
X136792000Y-90889000D02*
X137974122Y-90889000D01*
X140348000Y-103632000D02*
X140348000Y-102700000D01*
X141491000Y-97042685D02*
X141491000Y-96477000D01*
X140348000Y-102700000D02*
X141364000Y-101684000D01*
X141364000Y-101684000D02*
X141364000Y-97169685D01*
X141364000Y-97169685D02*
X141491000Y-97042685D01*
X149383999Y-79350999D02*
X148984000Y-78951000D01*
X149841000Y-79808000D02*
X149383999Y-79350999D01*
X151338000Y-79808000D02*
X149841000Y-79808000D01*
D46*
X142404000Y-103906000D02*
X141554000Y-103906000D01*
X141554000Y-103906000D02*
X141298000Y-103650000D01*
X141298000Y-103650000D02*
X141298000Y-103632000D01*
X140348000Y-103632000D02*
X141298000Y-103632000D01*
D44*
X159502669Y-87609331D02*
X160190022Y-88296684D01*
X158890000Y-94572000D02*
X155735998Y-94572000D01*
X160190022Y-88296684D02*
X160190022Y-93271978D01*
X160190022Y-93271978D02*
X158890000Y-94572000D01*
X155735998Y-94572000D02*
X153048000Y-97259998D01*
X153048000Y-97259998D02*
X153048000Y-101716000D01*
X153048000Y-101716000D02*
X152032000Y-102732000D01*
X152032000Y-102732000D02*
X152032000Y-103632000D01*
X156915000Y-79008000D02*
X158382000Y-80475000D01*
X151338000Y-79008000D02*
X156915000Y-79008000D01*
D45*
X154596000Y-103906000D02*
X153546000Y-103906000D01*
X153546000Y-103906000D02*
X153272000Y-103632000D01*
X153272000Y-103632000D02*
X152032000Y-103632000D01*
D44*
X167272000Y-77554000D02*
X167272000Y-78119685D01*
X167272000Y-78119685D02*
X166764000Y-78627685D01*
X166764000Y-78627685D02*
X166764000Y-94140200D01*
X166764000Y-94140200D02*
X167526000Y-94902200D01*
X167526000Y-94902200D02*
X167526000Y-95334000D01*
X152461611Y-76631611D02*
X152438000Y-76608000D01*
X157526389Y-76631611D02*
X152461611Y-76631611D01*
X158382000Y-75776000D02*
X157526389Y-76631611D01*
X152438000Y-76608000D02*
X151338000Y-76608000D01*
X168796000Y-95334000D02*
X167526000Y-95334000D01*
X149992011Y-75562011D02*
X150238000Y-75808000D01*
X147849999Y-71809820D02*
X149992011Y-73951832D01*
X147849999Y-71204000D02*
X147849999Y-71809820D01*
X150238000Y-75808000D02*
X151338000Y-75808000D01*
X149992011Y-73951832D02*
X149992011Y-75562011D01*
X147849999Y-70069999D02*
X147849999Y-71204000D01*
X146655000Y-71204000D02*
X147555000Y-71204000D01*
X147555000Y-71204000D02*
X147849999Y-71204000D01*
X143142000Y-68664000D02*
X143650000Y-69172000D01*
X140348000Y-66886000D02*
X142507000Y-66886000D01*
X142507000Y-66886000D02*
X143142000Y-67521000D01*
X143142000Y-67521000D02*
X143142000Y-68664000D01*
X146952000Y-69172000D02*
X147849999Y-70069999D01*
X143650000Y-69172000D02*
X146952000Y-69172000D01*
X143367889Y-72504011D02*
X143210878Y-72347000D01*
X143210878Y-72347000D02*
X142464000Y-72347000D01*
X147095013Y-72504011D02*
X143367889Y-72504011D01*
X151338000Y-78208000D02*
X150238000Y-78208000D01*
X150238000Y-78208000D02*
X148968021Y-76938021D01*
X148968021Y-76938021D02*
X148968021Y-74377019D01*
X148968021Y-74377019D02*
X147095013Y-72504011D01*
X143504999Y-71459999D02*
X143504999Y-71934001D01*
X143574999Y-72004001D02*
X147337058Y-72004001D01*
X149492000Y-76662000D02*
X150238000Y-77408000D01*
X142614000Y-70569000D02*
X143504999Y-71459999D01*
X142464000Y-70569000D02*
X142614000Y-70569000D01*
X143504999Y-71934001D02*
X143574999Y-72004001D01*
X147337058Y-72004001D02*
X149492000Y-74158943D01*
X149492000Y-74158943D02*
X149492000Y-76662000D01*
X150238000Y-77408000D02*
X151338000Y-77408000D01*
X154760000Y-71204000D02*
X154760000Y-70762000D01*
X158890000Y-69934000D02*
X159687500Y-69136500D01*
X154760000Y-70762000D02*
X155588000Y-69934000D01*
X155588000Y-69934000D02*
X158890000Y-69934000D01*
X159687500Y-69136500D02*
X159687500Y-67750000D01*
X153588000Y-73558000D02*
X153588000Y-72376000D01*
X153588000Y-72376000D02*
X154760000Y-71204000D01*
X147812500Y-67750000D02*
X147812500Y-69270500D01*
X147812500Y-69270500D02*
X148730000Y-70188000D01*
X148730000Y-70188000D02*
X148730000Y-71134000D01*
X148730000Y-71134000D02*
X148800000Y-71204000D01*
X152788000Y-73558000D02*
X150479000Y-73558000D01*
X150479000Y-73558000D02*
X148800000Y-71879000D01*
X148800000Y-71879000D02*
X148800000Y-71204000D01*
X153588000Y-82058000D02*
X153588000Y-83158000D01*
X153588000Y-83158000D02*
X152842000Y-83904000D01*
X152842000Y-83904000D02*
X149818000Y-83904000D01*
X149818000Y-83904000D02*
X148918000Y-83904000D01*
X148918000Y-83904000D02*
X148918000Y-83026000D01*
X148918000Y-83026000D02*
X149068000Y-82876000D01*
X149068000Y-82126000D02*
X149068000Y-82876000D01*
X154892000Y-85174000D02*
X154892000Y-84499000D01*
X154892000Y-84499000D02*
X155188000Y-84203000D01*
X155188000Y-84203000D02*
X155188000Y-83158000D01*
X155188000Y-83158000D02*
X155188000Y-82058000D01*
X140264000Y-72347000D02*
X139364000Y-72347000D01*
X139364000Y-72347000D02*
X137995000Y-70978000D01*
X137995000Y-70978000D02*
X136164000Y-70978000D01*
X136164000Y-70978000D02*
X135014000Y-70978000D01*
X133617000Y-70696000D02*
X133617000Y-70731000D01*
X133617000Y-70731000D02*
X133864000Y-70978000D01*
X133864000Y-70978000D02*
X135014000Y-70978000D01*
X132113320Y-70696000D02*
X133617000Y-70696000D01*
X137427000Y-69327000D02*
X136277000Y-69327000D01*
X136277000Y-69327000D02*
X135952000Y-69002000D01*
X135952000Y-69002000D02*
X135014000Y-69002000D01*
X132113320Y-69895900D02*
X133274100Y-69895900D01*
X133274100Y-69895900D02*
X133280200Y-69902000D01*
X133280200Y-69902000D02*
X134264000Y-69902000D01*
X134264000Y-69902000D02*
X135014000Y-69152000D01*
X135014000Y-69152000D02*
X135014000Y-69002000D01*
X137427000Y-69327000D02*
X138471000Y-69327000D01*
X138471000Y-69327000D02*
X139713000Y-70569000D01*
X139713000Y-70569000D02*
X140264000Y-70569000D01*
X135000000Y-68898000D02*
X135000000Y-68748000D01*
D46*
X155048000Y-99144000D02*
X155969000Y-99144000D01*
X155969000Y-99144000D02*
X157596000Y-100771000D01*
X157596000Y-100771000D02*
X157596000Y-103906000D01*
D45*
X158446000Y-103906000D02*
X158595360Y-103756640D01*
X158595360Y-103756640D02*
X160668000Y-103756640D01*
X157596000Y-103906000D02*
X158446000Y-103906000D01*
D47*
X166723360Y-112860000D02*
X169500000Y-112860000D01*
X172860000Y-111844000D02*
X170516000Y-111844000D01*
X170516000Y-111844000D02*
X169500000Y-112860000D01*
D46*
X134792000Y-99144000D02*
X134792000Y-101525000D01*
X134792000Y-101525000D02*
X134506000Y-101811000D01*
X134506000Y-101811000D02*
X133974000Y-101811000D01*
X133974000Y-101811000D02*
X133720000Y-102065000D01*
X133720000Y-102065000D02*
X133720000Y-103906000D01*
D45*
X134570000Y-103906000D02*
X134719360Y-103756640D01*
X134719360Y-103756640D02*
X136792000Y-103756640D01*
X133720000Y-103906000D02*
X134570000Y-103906000D01*
D44*
X170400000Y-70696000D02*
X170400000Y-70000000D01*
X168415000Y-71077000D02*
X170019000Y-71077000D01*
X170019000Y-71077000D02*
X170400000Y-70696000D01*
X167526000Y-71966000D02*
X168415000Y-71077000D01*
X167526000Y-74252000D02*
X167526000Y-71966000D01*
X161694000Y-74252000D02*
X165887000Y-74252000D01*
X159838000Y-75008000D02*
X160938000Y-75008000D01*
X160938000Y-75008000D02*
X161694000Y-74252000D01*
X171544000Y-97620000D02*
X172860000Y-97620000D01*
X159159978Y-84769222D02*
X159159978Y-85443978D01*
X163589000Y-92032000D02*
X164978011Y-93421009D01*
X161938002Y-92032000D02*
X163589000Y-92032000D01*
X166201122Y-97620000D02*
X171544000Y-97620000D01*
X158042000Y-84412000D02*
X158802756Y-84412000D01*
X164978011Y-93421009D02*
X164978011Y-96396889D01*
X156788000Y-83158000D02*
X158042000Y-84412000D01*
X161422011Y-91516009D02*
X161938002Y-92032000D01*
X161422011Y-87706011D02*
X161422011Y-91516009D01*
X159159978Y-85443978D02*
X161422011Y-87706011D01*
X158802756Y-84412000D02*
X159159978Y-84769222D01*
X164978011Y-96396889D02*
X166201122Y-97620000D01*
X156788000Y-82058000D02*
X156788000Y-83158000D01*
X164478000Y-93628120D02*
X164478000Y-96604000D01*
X160922000Y-91723120D02*
X161738880Y-92540000D01*
X161738880Y-92540000D02*
X163389880Y-92540000D01*
X171544000Y-100160000D02*
X172860000Y-100160000D01*
X164478000Y-96604000D02*
X166002000Y-98128000D01*
X159017000Y-86063000D02*
X160922000Y-87968000D01*
X153810000Y-85682000D02*
X154191000Y-86063000D01*
X154191000Y-86063000D02*
X159017000Y-86063000D01*
X154388000Y-84088000D02*
X153810000Y-84666000D01*
X154388000Y-82058000D02*
X154388000Y-84088000D01*
X153810000Y-84666000D02*
X153810000Y-85682000D01*
X160922000Y-87968000D02*
X160922000Y-91723120D01*
X163389880Y-92540000D02*
X164478000Y-93628120D01*
X166002000Y-98128000D02*
X169512000Y-98128000D01*
X169512000Y-98128000D02*
X171544000Y-100160000D01*
X162887992Y-70000000D02*
X162718991Y-70169001D01*
X166150000Y-70000000D02*
X162887992Y-70000000D01*
X162718991Y-70169001D02*
X162318992Y-70569000D01*
X158388000Y-73558000D02*
X159398000Y-73558000D01*
X168796000Y-100922000D02*
X168796000Y-101958600D01*
X166256000Y-104498600D02*
X166256000Y-107454000D01*
X168796000Y-101958600D02*
X166256000Y-104498600D01*
X166256000Y-107454000D02*
X165156000Y-108554000D01*
X165156000Y-108554000D02*
X165156000Y-109304000D01*
X167526000Y-100922000D02*
X167526000Y-102506836D01*
X167526000Y-102506836D02*
X165156000Y-104876836D01*
X165156000Y-104876836D02*
X165156000Y-106014000D01*
X165156000Y-106014000D02*
X165156000Y-106764000D01*
X167526000Y-100922000D02*
X167526000Y-101353800D01*
X144412000Y-79078000D02*
X144805699Y-79471699D01*
X144805699Y-79471699D02*
X144805699Y-79832745D01*
X145409001Y-80456001D02*
X145809000Y-80856000D01*
X144805699Y-79832745D02*
X145409001Y-80436047D01*
X145409001Y-80436047D02*
X145409001Y-80456001D01*
X143015000Y-85428000D02*
X143015000Y-84412000D01*
X143396000Y-84031000D02*
X144030996Y-84031000D01*
X143015000Y-84412000D02*
X143396000Y-84031000D01*
X146571000Y-78443000D02*
X146571000Y-75860000D01*
X144412000Y-79078000D02*
X145047000Y-78443000D01*
X145047000Y-78443000D02*
X146571000Y-78443000D01*
X159838000Y-77408000D02*
X153321000Y-77408000D01*
X153321000Y-77408000D02*
X152921000Y-77808000D01*
D46*
X142920000Y-99144000D02*
X142920000Y-101644000D01*
X142920000Y-101644000D02*
X143214000Y-101938000D01*
X143214000Y-101938000D02*
X144920000Y-101938000D01*
X144920000Y-101938000D02*
X145404000Y-102422000D01*
X145404000Y-102422000D02*
X145404000Y-103906000D01*
D45*
X146254000Y-103906000D02*
X146403360Y-103756640D01*
X146403360Y-103756640D02*
X148476000Y-103756640D01*
X145404000Y-103906000D02*
X146254000Y-103906000D01*
D44*
X165748000Y-79272000D02*
X164538000Y-78062000D01*
X165748000Y-92286000D02*
X165748000Y-79272000D01*
X165478022Y-92555978D02*
X165748000Y-92286000D01*
X172860000Y-95080000D02*
X172707600Y-95080000D01*
X166400244Y-97112000D02*
X165478022Y-96189778D01*
X165478022Y-96189778D02*
X165478022Y-92555978D01*
X164538000Y-78062000D02*
X163788000Y-78062000D01*
X172707600Y-95080000D02*
X170675600Y-97112000D01*
X170675600Y-97112000D02*
X166400244Y-97112000D01*
X161284000Y-78208000D02*
X161430000Y-78062000D01*
X161430000Y-78062000D02*
X163788000Y-78062000D01*
X159838000Y-78208000D02*
X161284000Y-78208000D01*
X159838000Y-79008000D02*
X161444000Y-79008000D01*
X163038000Y-80602000D02*
X163788000Y-80602000D01*
X161444000Y-79008000D02*
X163038000Y-80602000D01*
X159838000Y-79808000D02*
X161144000Y-79808000D01*
X161144000Y-79808000D02*
X161684000Y-80348000D01*
X161684000Y-80348000D02*
X161684000Y-82888000D01*
X161684000Y-82888000D02*
X161938000Y-83142000D01*
X161938000Y-83142000D02*
X163788000Y-83142000D01*
X159838000Y-80608000D02*
X160938000Y-80608000D01*
X161176000Y-80846000D02*
X161176000Y-85047000D01*
X160938000Y-80608000D02*
X161176000Y-80846000D01*
X161176000Y-85047000D02*
X161811000Y-85682000D01*
X161811000Y-85682000D02*
X163788000Y-85682000D01*
X160160000Y-84934002D02*
X162177998Y-86952000D01*
X158626000Y-83396000D02*
X159201000Y-83396000D01*
X159201000Y-83396000D02*
X160160000Y-84355000D01*
X158388000Y-82058000D02*
X158388000Y-83158000D01*
X158388000Y-83158000D02*
X158626000Y-83396000D01*
X163788000Y-87172000D02*
X163788000Y-88222000D01*
X160160000Y-84355000D02*
X160160000Y-84934002D01*
X162177998Y-86952000D02*
X163568000Y-86952000D01*
X163568000Y-86952000D02*
X163788000Y-87172000D01*
X158334000Y-83904000D02*
X157588000Y-83158000D01*
X157588000Y-83158000D02*
X157588000Y-82058000D01*
X159001878Y-83904000D02*
X158334000Y-83904000D01*
X159659989Y-84562111D02*
X159001878Y-83904000D01*
X163788000Y-90762000D02*
X163038000Y-90762000D01*
X159659989Y-85141113D02*
X159659989Y-84562111D01*
X161922022Y-87403146D02*
X159659989Y-85141113D01*
X161922022Y-89646021D02*
X161922022Y-87403146D01*
X163038000Y-90762000D02*
X161922022Y-89646021D01*
X143152498Y-74252000D02*
X142126000Y-75278498D01*
X142126000Y-75278498D02*
X142126000Y-76792000D01*
X147733987Y-75381991D02*
X147111996Y-74760000D01*
X144952998Y-74760000D02*
X144444998Y-74252000D01*
X142748301Y-77414301D02*
X143142000Y-77808000D01*
X144444998Y-74252000D02*
X143152498Y-74252000D01*
X149018890Y-80455012D02*
X148416886Y-80455012D01*
X150621878Y-82058000D02*
X149018890Y-80455012D01*
X142126000Y-76792000D02*
X142748301Y-77414301D01*
X147111996Y-74760000D02*
X144952998Y-74760000D01*
X148416886Y-80455012D02*
X147733987Y-79772113D01*
X152788000Y-82058000D02*
X150621878Y-82058000D01*
X147733987Y-79772113D02*
X147733987Y-75381991D01*
X152788000Y-75008000D02*
X153911600Y-76131600D01*
X151338000Y-75008000D02*
X152788000Y-75008000D01*
X153911600Y-76131600D02*
X156451600Y-76131600D01*
X156451600Y-76131600D02*
X157213600Y-75369600D01*
X161563656Y-72986995D02*
X163783005Y-72986995D01*
X163783005Y-72986995D02*
X163788000Y-72982000D01*
X157588000Y-73558000D02*
X157588000Y-72458000D01*
X157588000Y-72458000D02*
X157826000Y-72220000D01*
X157826000Y-72220000D02*
X159736000Y-72220000D01*
X159736000Y-72220000D02*
X160498000Y-71458000D01*
X160498000Y-71458000D02*
X165144002Y-71458000D01*
X165144002Y-71458000D02*
X166764000Y-73077998D01*
X166383000Y-75522000D02*
X163788000Y-75522000D01*
X166764000Y-73077998D02*
X166764000Y-75141000D01*
X166764000Y-75141000D02*
X166383000Y-75522000D01*
X167710000Y-68594000D02*
X168350000Y-69234000D01*
X168350000Y-69234000D02*
X168350000Y-70000000D01*
X167710000Y-67250000D02*
X167710000Y-68594000D01*
X170250000Y-67250000D02*
X170250000Y-67402400D01*
X170250000Y-67402400D02*
X172600000Y-69752400D01*
X172600000Y-69752400D02*
X172600000Y-70000000D01*
X167356000Y-106764000D02*
X168447998Y-106764000D01*
X168447998Y-106764000D02*
X169183998Y-107500000D01*
X169183998Y-107500000D02*
X170808000Y-107500000D01*
X170808000Y-107500000D02*
X171544000Y-106764000D01*
X171544000Y-106764000D02*
X172860000Y-106764000D01*
X172860000Y-109304000D02*
X171544000Y-109304000D01*
X171544000Y-109304000D02*
X167356000Y-109304000D01*
D48*
G36*
X161183801Y-93095079D02*
X161438474Y-93265245D01*
X161738880Y-93325000D01*
X163064722Y-93325000D01*
X163693000Y-93953278D01*
X163693000Y-96604000D01*
X163752755Y-96904407D01*
X163922921Y-97159079D01*
X165446919Y-98683076D01*
X165446921Y-98683079D01*
X165701594Y-98853245D01*
X166002000Y-98913000D01*
X169186842Y-98913000D01*
X169841939Y-99568097D01*
X169706354Y-99595067D01*
X169431000Y-99779053D01*
X169155646Y-99595067D01*
X168796000Y-99523529D01*
X168436354Y-99595067D01*
X168161000Y-99779053D01*
X167885646Y-99595067D01*
X167526000Y-99523529D01*
X167166354Y-99595067D01*
X166877088Y-99788349D01*
X166830736Y-99735858D01*
X166527105Y-99590353D01*
X166383000Y-99719544D01*
X166383000Y-100795000D01*
X166403000Y-100795000D01*
X166403000Y-101049000D01*
X166383000Y-101049000D01*
X166383000Y-102124456D01*
X166527105Y-102253647D01*
X166741000Y-102151145D01*
X166741000Y-102181678D01*
X164600921Y-104321757D01*
X164430755Y-104576429D01*
X164430755Y-104576430D01*
X164371000Y-104876836D01*
X164371000Y-105703358D01*
X164308235Y-105715843D01*
X164098191Y-105856191D01*
X163957843Y-106066235D01*
X163908560Y-106314000D01*
X163908560Y-107214000D01*
X163957843Y-107461765D01*
X164098191Y-107671809D01*
X164308235Y-107812157D01*
X164556000Y-107861440D01*
X164738402Y-107861440D01*
X164600921Y-107998921D01*
X164447801Y-108228082D01*
X164308235Y-108255843D01*
X164098191Y-108396191D01*
X163957843Y-108606235D01*
X163908560Y-108854000D01*
X163908560Y-109754000D01*
X163957843Y-110001765D01*
X164098191Y-110211809D01*
X164308235Y-110352157D01*
X164556000Y-110401440D01*
X165756000Y-110401440D01*
X166003765Y-110352157D01*
X166213809Y-110211809D01*
X166256000Y-110148666D01*
X166298191Y-110211809D01*
X166508235Y-110352157D01*
X166756000Y-110401440D01*
X167956000Y-110401440D01*
X168203765Y-110352157D01*
X168413809Y-110211809D01*
X168495868Y-110089000D01*
X171432056Y-110089000D01*
X171615585Y-110363670D01*
X171632566Y-110375016D01*
X171596235Y-110382243D01*
X171386191Y-110522591D01*
X171261636Y-110709000D01*
X170516000Y-110709000D01*
X170081654Y-110795397D01*
X169818494Y-110971235D01*
X169713434Y-111041434D01*
X169029868Y-111725000D01*
X168074696Y-111725000D01*
X168072157Y-111712235D01*
X167931809Y-111502191D01*
X167721765Y-111361843D01*
X167474000Y-111312560D01*
X164974000Y-111312560D01*
X164726235Y-111361843D01*
X164516191Y-111502191D01*
X164375843Y-111712235D01*
X164326560Y-111960000D01*
X164326560Y-113760000D01*
X164375843Y-114007765D01*
X164516191Y-114217809D01*
X164624232Y-114290000D01*
X164135000Y-114290000D01*
X164135000Y-111000000D01*
X164086664Y-110756996D01*
X163949013Y-110550987D01*
X162215440Y-108817414D01*
X162215440Y-107006000D01*
X162166157Y-106758235D01*
X162025809Y-106548191D01*
X161815765Y-106407843D01*
X161568000Y-106358560D01*
X159768000Y-106358560D01*
X159520235Y-106407843D01*
X159310191Y-106548191D01*
X159169843Y-106758235D01*
X159120560Y-107006000D01*
X159120560Y-107365000D01*
X158593440Y-107365000D01*
X158593440Y-107356000D01*
X158544157Y-107108235D01*
X158403809Y-106898191D01*
X158193765Y-106757843D01*
X157946000Y-106708560D01*
X157731000Y-106708560D01*
X157731000Y-106702087D01*
X157743440Y-106661000D01*
X157731000Y-106598459D01*
X157731000Y-106541750D01*
X157716919Y-106527669D01*
X157694157Y-106413235D01*
X157589104Y-106256013D01*
X157633950Y-106211261D01*
X157730867Y-105977973D01*
X157730875Y-105970375D01*
X157731000Y-105970250D01*
X157731000Y-105850707D01*
X157731049Y-105803440D01*
X157946000Y-105803440D01*
X158193765Y-105754157D01*
X158403809Y-105613809D01*
X158544157Y-105403765D01*
X158593440Y-105156000D01*
X158593440Y-104861672D01*
X158822943Y-104816021D01*
X158934262Y-104741640D01*
X159120560Y-104741640D01*
X159120560Y-105506000D01*
X159169843Y-105753765D01*
X159310191Y-105963809D01*
X159520235Y-106104157D01*
X159768000Y-106153440D01*
X161568000Y-106153440D01*
X161815765Y-106104157D01*
X162025809Y-105963809D01*
X162166157Y-105753765D01*
X162215440Y-105506000D01*
X162215440Y-103006000D01*
X162166157Y-102758235D01*
X162025809Y-102548191D01*
X161815765Y-102407843D01*
X161568000Y-102358560D01*
X159768000Y-102358560D01*
X159520235Y-102407843D01*
X159310191Y-102548191D01*
X159169843Y-102758235D01*
X159167177Y-102771640D01*
X158595360Y-102771640D01*
X158593440Y-102772022D01*
X158593440Y-102656000D01*
X158544157Y-102408235D01*
X158481000Y-102313715D01*
X158481000Y-101049000D01*
X165316200Y-101049000D01*
X165316200Y-101480800D01*
X165436339Y-101830779D01*
X165681264Y-102108142D01*
X165984895Y-102253647D01*
X166129000Y-102124456D01*
X166129000Y-101049000D01*
X165316200Y-101049000D01*
X158481000Y-101049000D01*
X158481000Y-100771000D01*
X158413633Y-100432325D01*
X158367446Y-100363200D01*
X165316200Y-100363200D01*
X165316200Y-100795000D01*
X166129000Y-100795000D01*
X166129000Y-99719544D01*
X165984895Y-99590353D01*
X165681264Y-99735858D01*
X165436339Y-100013221D01*
X165316200Y-100363200D01*
X158367446Y-100363200D01*
X158221790Y-100145210D01*
X158221787Y-100145208D01*
X156695440Y-98618860D01*
X156695440Y-98442619D01*
X157764613Y-98442619D01*
X158104155Y-99264372D01*
X158732321Y-99893636D01*
X159553481Y-100234611D01*
X160442619Y-100235387D01*
X161264372Y-99895845D01*
X161893636Y-99267679D01*
X162234611Y-98446519D01*
X162235387Y-97557381D01*
X161895845Y-96735628D01*
X161267679Y-96106364D01*
X160446519Y-95765389D01*
X159557381Y-95764613D01*
X158735628Y-96104155D01*
X158106364Y-96732321D01*
X157765389Y-97553481D01*
X157764613Y-98442619D01*
X156695440Y-98442619D01*
X156695440Y-97144000D01*
X156646157Y-96896235D01*
X156505809Y-96686191D01*
X156295765Y-96545843D01*
X156048000Y-96496560D01*
X154921596Y-96496560D01*
X156061156Y-95357000D01*
X158890000Y-95357000D01*
X159190407Y-95297245D01*
X159445079Y-95127079D01*
X160745101Y-93827057D01*
X160915267Y-93572384D01*
X160975022Y-93271978D01*
X160975022Y-92886300D01*
X161183801Y-93095079D01*
X161183801Y-93095079D01*
G37*
X161183801Y-93095079D02*
X161438474Y-93265245D01*
X161738880Y-93325000D01*
X163064722Y-93325000D01*
X163693000Y-93953278D01*
X163693000Y-96604000D01*
X163752755Y-96904407D01*
X163922921Y-97159079D01*
X165446919Y-98683076D01*
X165446921Y-98683079D01*
X165701594Y-98853245D01*
X166002000Y-98913000D01*
X169186842Y-98913000D01*
X169841939Y-99568097D01*
X169706354Y-99595067D01*
X169431000Y-99779053D01*
X169155646Y-99595067D01*
X168796000Y-99523529D01*
X168436354Y-99595067D01*
X168161000Y-99779053D01*
X167885646Y-99595067D01*
X167526000Y-99523529D01*
X167166354Y-99595067D01*
X166877088Y-99788349D01*
X166830736Y-99735858D01*
X166527105Y-99590353D01*
X166383000Y-99719544D01*
X166383000Y-100795000D01*
X166403000Y-100795000D01*
X166403000Y-101049000D01*
X166383000Y-101049000D01*
X166383000Y-102124456D01*
X166527105Y-102253647D01*
X166741000Y-102151145D01*
X166741000Y-102181678D01*
X164600921Y-104321757D01*
X164430755Y-104576429D01*
X164430755Y-104576430D01*
X164371000Y-104876836D01*
X164371000Y-105703358D01*
X164308235Y-105715843D01*
X164098191Y-105856191D01*
X163957843Y-106066235D01*
X163908560Y-106314000D01*
X163908560Y-107214000D01*
X163957843Y-107461765D01*
X164098191Y-107671809D01*
X164308235Y-107812157D01*
X164556000Y-107861440D01*
X164738402Y-107861440D01*
X164600921Y-107998921D01*
X164447801Y-108228082D01*
X164308235Y-108255843D01*
X164098191Y-108396191D01*
X163957843Y-108606235D01*
X163908560Y-108854000D01*
X163908560Y-109754000D01*
X163957843Y-110001765D01*
X164098191Y-110211809D01*
X164308235Y-110352157D01*
X164556000Y-110401440D01*
X165756000Y-110401440D01*
X166003765Y-110352157D01*
X166213809Y-110211809D01*
X166256000Y-110148666D01*
X166298191Y-110211809D01*
X166508235Y-110352157D01*
X166756000Y-110401440D01*
X167956000Y-110401440D01*
X168203765Y-110352157D01*
X168413809Y-110211809D01*
X168495868Y-110089000D01*
X171432056Y-110089000D01*
X171615585Y-110363670D01*
X171632566Y-110375016D01*
X171596235Y-110382243D01*
X171386191Y-110522591D01*
X171261636Y-110709000D01*
X170516000Y-110709000D01*
X170081654Y-110795397D01*
X169818494Y-110971235D01*
X169713434Y-111041434D01*
X169029868Y-111725000D01*
X168074696Y-111725000D01*
X168072157Y-111712235D01*
X167931809Y-111502191D01*
X167721765Y-111361843D01*
X167474000Y-111312560D01*
X164974000Y-111312560D01*
X164726235Y-111361843D01*
X164516191Y-111502191D01*
X164375843Y-111712235D01*
X164326560Y-111960000D01*
X164326560Y-113760000D01*
X164375843Y-114007765D01*
X164516191Y-114217809D01*
X164624232Y-114290000D01*
X164135000Y-114290000D01*
X164135000Y-111000000D01*
X164086664Y-110756996D01*
X163949013Y-110550987D01*
X162215440Y-108817414D01*
X162215440Y-107006000D01*
X162166157Y-106758235D01*
X162025809Y-106548191D01*
X161815765Y-106407843D01*
X161568000Y-106358560D01*
X159768000Y-106358560D01*
X159520235Y-106407843D01*
X159310191Y-106548191D01*
X159169843Y-106758235D01*
X159120560Y-107006000D01*
X159120560Y-107365000D01*
X158593440Y-107365000D01*
X158593440Y-107356000D01*
X158544157Y-107108235D01*
X158403809Y-106898191D01*
X158193765Y-106757843D01*
X157946000Y-106708560D01*
X157731000Y-106708560D01*
X157731000Y-106702087D01*
X157743440Y-106661000D01*
X157731000Y-106598459D01*
X157731000Y-106541750D01*
X157716919Y-106527669D01*
X157694157Y-106413235D01*
X157589104Y-106256013D01*
X157633950Y-106211261D01*
X157730867Y-105977973D01*
X157730875Y-105970375D01*
X157731000Y-105970250D01*
X157731000Y-105850707D01*
X157731049Y-105803440D01*
X157946000Y-105803440D01*
X158193765Y-105754157D01*
X158403809Y-105613809D01*
X158544157Y-105403765D01*
X158593440Y-105156000D01*
X158593440Y-104861672D01*
X158822943Y-104816021D01*
X158934262Y-104741640D01*
X159120560Y-104741640D01*
X159120560Y-105506000D01*
X159169843Y-105753765D01*
X159310191Y-105963809D01*
X159520235Y-106104157D01*
X159768000Y-106153440D01*
X161568000Y-106153440D01*
X161815765Y-106104157D01*
X162025809Y-105963809D01*
X162166157Y-105753765D01*
X162215440Y-105506000D01*
X162215440Y-103006000D01*
X162166157Y-102758235D01*
X162025809Y-102548191D01*
X161815765Y-102407843D01*
X161568000Y-102358560D01*
X159768000Y-102358560D01*
X159520235Y-102407843D01*
X159310191Y-102548191D01*
X159169843Y-102758235D01*
X159167177Y-102771640D01*
X158595360Y-102771640D01*
X158593440Y-102772022D01*
X158593440Y-102656000D01*
X158544157Y-102408235D01*
X158481000Y-102313715D01*
X158481000Y-101049000D01*
X165316200Y-101049000D01*
X165316200Y-101480800D01*
X165436339Y-101830779D01*
X165681264Y-102108142D01*
X165984895Y-102253647D01*
X166129000Y-102124456D01*
X166129000Y-101049000D01*
X165316200Y-101049000D01*
X158481000Y-101049000D01*
X158481000Y-100771000D01*
X158413633Y-100432325D01*
X158367446Y-100363200D01*
X165316200Y-100363200D01*
X165316200Y-100795000D01*
X166129000Y-100795000D01*
X166129000Y-99719544D01*
X165984895Y-99590353D01*
X165681264Y-99735858D01*
X165436339Y-100013221D01*
X165316200Y-100363200D01*
X158367446Y-100363200D01*
X158221790Y-100145210D01*
X158221787Y-100145208D01*
X156695440Y-98618860D01*
X156695440Y-98442619D01*
X157764613Y-98442619D01*
X158104155Y-99264372D01*
X158732321Y-99893636D01*
X159553481Y-100234611D01*
X160442619Y-100235387D01*
X161264372Y-99895845D01*
X161893636Y-99267679D01*
X162234611Y-98446519D01*
X162235387Y-97557381D01*
X161895845Y-96735628D01*
X161267679Y-96106364D01*
X160446519Y-95765389D01*
X159557381Y-95764613D01*
X158735628Y-96104155D01*
X158106364Y-96732321D01*
X157765389Y-97553481D01*
X157764613Y-98442619D01*
X156695440Y-98442619D01*
X156695440Y-97144000D01*
X156646157Y-96896235D01*
X156505809Y-96686191D01*
X156295765Y-96545843D01*
X156048000Y-96496560D01*
X154921596Y-96496560D01*
X156061156Y-95357000D01*
X158890000Y-95357000D01*
X159190407Y-95297245D01*
X159445079Y-95127079D01*
X160745101Y-93827057D01*
X160915267Y-93572384D01*
X160975022Y-93271978D01*
X160975022Y-92886300D01*
X161183801Y-93095079D01*
G36*
X156711000Y-101137579D02*
X156711000Y-102021000D01*
X156381750Y-102021000D01*
X156223000Y-102179750D01*
X156223000Y-103779000D01*
X156243000Y-103779000D01*
X156243000Y-104033000D01*
X156223000Y-104033000D01*
X156223000Y-108479000D01*
X156243000Y-108479000D01*
X156243000Y-108733000D01*
X156223000Y-108733000D01*
X156223000Y-108753000D01*
X155969000Y-108753000D01*
X155969000Y-108733000D01*
X155949000Y-108733000D01*
X155949000Y-108479000D01*
X155969000Y-108479000D01*
X155969000Y-104033000D01*
X155949000Y-104033000D01*
X155949000Y-103779000D01*
X155969000Y-103779000D01*
X155969000Y-102179750D01*
X155810250Y-102021000D01*
X155469691Y-102021000D01*
X155265319Y-102105654D01*
X155193765Y-102057843D01*
X154946000Y-102008560D01*
X154246000Y-102008560D01*
X153998235Y-102057843D01*
X153788191Y-102198191D01*
X153647843Y-102408235D01*
X153598560Y-102656000D01*
X153598560Y-102711957D01*
X153272000Y-102647000D01*
X153227158Y-102647000D01*
X153603079Y-102271079D01*
X153773245Y-102016407D01*
X153826748Y-101747431D01*
X154048000Y-101791440D01*
X156048000Y-101791440D01*
X156295765Y-101742157D01*
X156505809Y-101601809D01*
X156646157Y-101391765D01*
X156695440Y-101144000D01*
X156695440Y-101122019D01*
X156711000Y-101137579D01*
X156711000Y-101137579D01*
G37*
X156711000Y-101137579D02*
X156711000Y-102021000D01*
X156381750Y-102021000D01*
X156223000Y-102179750D01*
X156223000Y-103779000D01*
X156243000Y-103779000D01*
X156243000Y-104033000D01*
X156223000Y-104033000D01*
X156223000Y-108479000D01*
X156243000Y-108479000D01*
X156243000Y-108733000D01*
X156223000Y-108733000D01*
X156223000Y-108753000D01*
X155969000Y-108753000D01*
X155969000Y-108733000D01*
X155949000Y-108733000D01*
X155949000Y-108479000D01*
X155969000Y-108479000D01*
X155969000Y-104033000D01*
X155949000Y-104033000D01*
X155949000Y-103779000D01*
X155969000Y-103779000D01*
X155969000Y-102179750D01*
X155810250Y-102021000D01*
X155469691Y-102021000D01*
X155265319Y-102105654D01*
X155193765Y-102057843D01*
X154946000Y-102008560D01*
X154246000Y-102008560D01*
X153998235Y-102057843D01*
X153788191Y-102198191D01*
X153647843Y-102408235D01*
X153598560Y-102656000D01*
X153598560Y-102711957D01*
X153272000Y-102647000D01*
X153227158Y-102647000D01*
X153603079Y-102271079D01*
X153773245Y-102016407D01*
X153826748Y-101747431D01*
X154048000Y-101791440D01*
X156048000Y-101791440D01*
X156295765Y-101742157D01*
X156505809Y-101601809D01*
X156646157Y-101391765D01*
X156695440Y-101144000D01*
X156695440Y-101122019D01*
X156711000Y-101137579D01*
G36*
X133144560Y-101144000D02*
X133185185Y-101348236D01*
X133094210Y-101439210D01*
X132902367Y-101726325D01*
X132899584Y-101740317D01*
X132843751Y-102021000D01*
X132505750Y-102021000D01*
X132347000Y-102179750D01*
X132347000Y-103779000D01*
X132367000Y-103779000D01*
X132367000Y-104033000D01*
X132347000Y-104033000D01*
X132347000Y-108479000D01*
X132365000Y-108479000D01*
X132365000Y-108733000D01*
X132347000Y-108733000D01*
X132347000Y-108753000D01*
X132093000Y-108753000D01*
X132093000Y-108733000D01*
X132073000Y-108733000D01*
X132073000Y-108479000D01*
X132093000Y-108479000D01*
X132093000Y-104033000D01*
X132073000Y-104033000D01*
X132073000Y-103779000D01*
X132093000Y-103779000D01*
X132093000Y-102179750D01*
X131934250Y-102021000D01*
X131593691Y-102021000D01*
X131389319Y-102105654D01*
X131317765Y-102057843D01*
X131070000Y-102008560D01*
X130431018Y-102008560D01*
X131935786Y-100503791D01*
X131935789Y-100503789D01*
X132127632Y-100216674D01*
X132148270Y-100112921D01*
X132195000Y-99877999D01*
X132194999Y-99877994D01*
X132194999Y-97454011D01*
X133144560Y-97454011D01*
X133144560Y-101144000D01*
X133144560Y-101144000D01*
G37*
X133144560Y-101144000D02*
X133185185Y-101348236D01*
X133094210Y-101439210D01*
X132902367Y-101726325D01*
X132899584Y-101740317D01*
X132843751Y-102021000D01*
X132505750Y-102021000D01*
X132347000Y-102179750D01*
X132347000Y-103779000D01*
X132367000Y-103779000D01*
X132367000Y-104033000D01*
X132347000Y-104033000D01*
X132347000Y-108479000D01*
X132365000Y-108479000D01*
X132365000Y-108733000D01*
X132347000Y-108733000D01*
X132347000Y-108753000D01*
X132093000Y-108753000D01*
X132093000Y-108733000D01*
X132073000Y-108733000D01*
X132073000Y-108479000D01*
X132093000Y-108479000D01*
X132093000Y-104033000D01*
X132073000Y-104033000D01*
X132073000Y-103779000D01*
X132093000Y-103779000D01*
X132093000Y-102179750D01*
X131934250Y-102021000D01*
X131593691Y-102021000D01*
X131389319Y-102105654D01*
X131317765Y-102057843D01*
X131070000Y-102008560D01*
X130431018Y-102008560D01*
X131935786Y-100503791D01*
X131935789Y-100503789D01*
X132127632Y-100216674D01*
X132148270Y-100112921D01*
X132195000Y-99877999D01*
X132194999Y-99877994D01*
X132194999Y-97454011D01*
X133144560Y-97454011D01*
X133144560Y-101144000D01*
G36*
X153169057Y-104816021D02*
X153546000Y-104891000D01*
X153598560Y-104891000D01*
X153598560Y-105156000D01*
X153647843Y-105403765D01*
X153788191Y-105613809D01*
X153998235Y-105754157D01*
X154246000Y-105803440D01*
X154461000Y-105803440D01*
X154461000Y-105809913D01*
X154448560Y-105851000D01*
X154461000Y-105913541D01*
X154461000Y-105970250D01*
X154475081Y-105984331D01*
X154497843Y-106098765D01*
X154602896Y-106255987D01*
X154558050Y-106300739D01*
X154461133Y-106534027D01*
X154461125Y-106541625D01*
X154461000Y-106541750D01*
X154461000Y-106661000D01*
X154460951Y-106708560D01*
X154246000Y-106708560D01*
X153998235Y-106757843D01*
X153788191Y-106898191D01*
X153647843Y-107108235D01*
X153598560Y-107356000D01*
X153598560Y-107721000D01*
X153508157Y-107721000D01*
X153480157Y-107580235D01*
X153339809Y-107370191D01*
X153129765Y-107229843D01*
X152882000Y-107180560D01*
X151786140Y-107180560D01*
X151672580Y-107067000D01*
X151746250Y-107067000D01*
X151905000Y-106908250D01*
X151905000Y-105959000D01*
X152159000Y-105959000D01*
X152159000Y-106908250D01*
X152317750Y-107067000D01*
X152608310Y-107067000D01*
X152841699Y-106970327D01*
X153020327Y-106791698D01*
X153117000Y-106558309D01*
X153117000Y-106117750D01*
X152958250Y-105959000D01*
X152159000Y-105959000D01*
X151905000Y-105959000D01*
X151885000Y-105959000D01*
X151885000Y-105705000D01*
X151905000Y-105705000D01*
X151905000Y-105685000D01*
X152159000Y-105685000D01*
X152159000Y-105705000D01*
X152958250Y-105705000D01*
X153117000Y-105546250D01*
X153117000Y-105105691D01*
X153020327Y-104872302D01*
X152878680Y-104730654D01*
X152939809Y-104689809D01*
X152952266Y-104671166D01*
X153169057Y-104816021D01*
X153169057Y-104816021D01*
G37*
X153169057Y-104816021D02*
X153546000Y-104891000D01*
X153598560Y-104891000D01*
X153598560Y-105156000D01*
X153647843Y-105403765D01*
X153788191Y-105613809D01*
X153998235Y-105754157D01*
X154246000Y-105803440D01*
X154461000Y-105803440D01*
X154461000Y-105809913D01*
X154448560Y-105851000D01*
X154461000Y-105913541D01*
X154461000Y-105970250D01*
X154475081Y-105984331D01*
X154497843Y-106098765D01*
X154602896Y-106255987D01*
X154558050Y-106300739D01*
X154461133Y-106534027D01*
X154461125Y-106541625D01*
X154461000Y-106541750D01*
X154461000Y-106661000D01*
X154460951Y-106708560D01*
X154246000Y-106708560D01*
X153998235Y-106757843D01*
X153788191Y-106898191D01*
X153647843Y-107108235D01*
X153598560Y-107356000D01*
X153598560Y-107721000D01*
X153508157Y-107721000D01*
X153480157Y-107580235D01*
X153339809Y-107370191D01*
X153129765Y-107229843D01*
X152882000Y-107180560D01*
X151786140Y-107180560D01*
X151672580Y-107067000D01*
X151746250Y-107067000D01*
X151905000Y-106908250D01*
X151905000Y-105959000D01*
X152159000Y-105959000D01*
X152159000Y-106908250D01*
X152317750Y-107067000D01*
X152608310Y-107067000D01*
X152841699Y-106970327D01*
X153020327Y-106791698D01*
X153117000Y-106558309D01*
X153117000Y-106117750D01*
X152958250Y-105959000D01*
X152159000Y-105959000D01*
X151905000Y-105959000D01*
X151885000Y-105959000D01*
X151885000Y-105705000D01*
X151905000Y-105705000D01*
X151905000Y-105685000D01*
X152159000Y-105685000D01*
X152159000Y-105705000D01*
X152958250Y-105705000D01*
X153117000Y-105546250D01*
X153117000Y-105105691D01*
X153020327Y-104872302D01*
X152878680Y-104730654D01*
X152939809Y-104689809D01*
X152952266Y-104671166D01*
X153169057Y-104816021D01*
G36*
X146928560Y-105506000D02*
X146977843Y-105753765D01*
X147118191Y-105963809D01*
X147328235Y-106104157D01*
X147576000Y-106153440D01*
X149376000Y-106153440D01*
X149623765Y-106104157D01*
X149797000Y-105988404D01*
X149797000Y-106523596D01*
X149623765Y-106407843D01*
X149376000Y-106358560D01*
X147576000Y-106358560D01*
X147328235Y-106407843D01*
X147118191Y-106548191D01*
X146977843Y-106758235D01*
X146928560Y-107006000D01*
X146928560Y-107365000D01*
X146401440Y-107365000D01*
X146401440Y-107356000D01*
X146352157Y-107108235D01*
X146211809Y-106898191D01*
X146001765Y-106757843D01*
X145754000Y-106708560D01*
X145539000Y-106708560D01*
X145539000Y-106702087D01*
X145551440Y-106661000D01*
X145539000Y-106598459D01*
X145539000Y-106541750D01*
X145524919Y-106527669D01*
X145502157Y-106413235D01*
X145397104Y-106256013D01*
X145441950Y-106211261D01*
X145538867Y-105977973D01*
X145538875Y-105970375D01*
X145539000Y-105970250D01*
X145539000Y-105850707D01*
X145539049Y-105803440D01*
X145754000Y-105803440D01*
X146001765Y-105754157D01*
X146211809Y-105613809D01*
X146352157Y-105403765D01*
X146401440Y-105156000D01*
X146401440Y-104861672D01*
X146630943Y-104816021D01*
X146742262Y-104741640D01*
X146928560Y-104741640D01*
X146928560Y-105506000D01*
X146928560Y-105506000D01*
G37*
X146928560Y-105506000D02*
X146977843Y-105753765D01*
X147118191Y-105963809D01*
X147328235Y-106104157D01*
X147576000Y-106153440D01*
X149376000Y-106153440D01*
X149623765Y-106104157D01*
X149797000Y-105988404D01*
X149797000Y-106523596D01*
X149623765Y-106407843D01*
X149376000Y-106358560D01*
X147576000Y-106358560D01*
X147328235Y-106407843D01*
X147118191Y-106548191D01*
X146977843Y-106758235D01*
X146928560Y-107006000D01*
X146928560Y-107365000D01*
X146401440Y-107365000D01*
X146401440Y-107356000D01*
X146352157Y-107108235D01*
X146211809Y-106898191D01*
X146001765Y-106757843D01*
X145754000Y-106708560D01*
X145539000Y-106708560D01*
X145539000Y-106702087D01*
X145551440Y-106661000D01*
X145539000Y-106598459D01*
X145539000Y-106541750D01*
X145524919Y-106527669D01*
X145502157Y-106413235D01*
X145397104Y-106256013D01*
X145441950Y-106211261D01*
X145538867Y-105977973D01*
X145538875Y-105970375D01*
X145539000Y-105970250D01*
X145539000Y-105850707D01*
X145539049Y-105803440D01*
X145754000Y-105803440D01*
X146001765Y-105754157D01*
X146211809Y-105613809D01*
X146352157Y-105403765D01*
X146401440Y-105156000D01*
X146401440Y-104861672D01*
X146630943Y-104816021D01*
X146742262Y-104741640D01*
X146928560Y-104741640D01*
X146928560Y-105506000D01*
G36*
X135244560Y-105506000D02*
X135293843Y-105753765D01*
X135434191Y-105963809D01*
X135644235Y-106104157D01*
X135892000Y-106153440D01*
X137692000Y-106153440D01*
X137939765Y-106104157D01*
X138113000Y-105988404D01*
X138113000Y-106523596D01*
X137939765Y-106407843D01*
X137692000Y-106358560D01*
X135892000Y-106358560D01*
X135644235Y-106407843D01*
X135434191Y-106548191D01*
X135293843Y-106758235D01*
X135244560Y-107006000D01*
X135244560Y-107365000D01*
X134717440Y-107365000D01*
X134717440Y-107356000D01*
X134668157Y-107108235D01*
X134527809Y-106898191D01*
X134317765Y-106757843D01*
X134070000Y-106708560D01*
X133855000Y-106708560D01*
X133855000Y-106702087D01*
X133867440Y-106661000D01*
X133855000Y-106598459D01*
X133855000Y-106541750D01*
X133840919Y-106527669D01*
X133818157Y-106413235D01*
X133713104Y-106256013D01*
X133757950Y-106211261D01*
X133854867Y-105977973D01*
X133854875Y-105970375D01*
X133855000Y-105970250D01*
X133855000Y-105850707D01*
X133855049Y-105803440D01*
X134070000Y-105803440D01*
X134317765Y-105754157D01*
X134527809Y-105613809D01*
X134668157Y-105403765D01*
X134717440Y-105156000D01*
X134717440Y-104861672D01*
X134946943Y-104816021D01*
X135058262Y-104741640D01*
X135244560Y-104741640D01*
X135244560Y-105506000D01*
X135244560Y-105506000D01*
G37*
X135244560Y-105506000D02*
X135293843Y-105753765D01*
X135434191Y-105963809D01*
X135644235Y-106104157D01*
X135892000Y-106153440D01*
X137692000Y-106153440D01*
X137939765Y-106104157D01*
X138113000Y-105988404D01*
X138113000Y-106523596D01*
X137939765Y-106407843D01*
X137692000Y-106358560D01*
X135892000Y-106358560D01*
X135644235Y-106407843D01*
X135434191Y-106548191D01*
X135293843Y-106758235D01*
X135244560Y-107006000D01*
X135244560Y-107365000D01*
X134717440Y-107365000D01*
X134717440Y-107356000D01*
X134668157Y-107108235D01*
X134527809Y-106898191D01*
X134317765Y-106757843D01*
X134070000Y-106708560D01*
X133855000Y-106708560D01*
X133855000Y-106702087D01*
X133867440Y-106661000D01*
X133855000Y-106598459D01*
X133855000Y-106541750D01*
X133840919Y-106527669D01*
X133818157Y-106413235D01*
X133713104Y-106256013D01*
X133757950Y-106211261D01*
X133854867Y-105977973D01*
X133854875Y-105970375D01*
X133855000Y-105970250D01*
X133855000Y-105850707D01*
X133855049Y-105803440D01*
X134070000Y-105803440D01*
X134317765Y-105754157D01*
X134527809Y-105613809D01*
X134668157Y-105403765D01*
X134717440Y-105156000D01*
X134717440Y-104861672D01*
X134946943Y-104816021D01*
X135058262Y-104741640D01*
X135244560Y-104741640D01*
X135244560Y-105506000D01*
G36*
X129771843Y-105403765D02*
X129912191Y-105613809D01*
X130122235Y-105754157D01*
X130370000Y-105803440D01*
X130585000Y-105803440D01*
X130585000Y-105809913D01*
X130572560Y-105851000D01*
X130585000Y-105913541D01*
X130585000Y-105970250D01*
X130599081Y-105984331D01*
X130621843Y-106098765D01*
X130726896Y-106255987D01*
X130682050Y-106300739D01*
X130585133Y-106534027D01*
X130585125Y-106541625D01*
X130585000Y-106541750D01*
X130585000Y-106661000D01*
X130584951Y-106708560D01*
X130370000Y-106708560D01*
X130122235Y-106757843D01*
X129912191Y-106898191D01*
X129771843Y-107108235D01*
X129748191Y-107227143D01*
X129514000Y-107180560D01*
X128418140Y-107180560D01*
X128304580Y-107067000D01*
X128378250Y-107067000D01*
X128537000Y-106908250D01*
X128537000Y-105959000D01*
X128791000Y-105959000D01*
X128791000Y-106908250D01*
X128949750Y-107067000D01*
X129240310Y-107067000D01*
X129473699Y-106970327D01*
X129652327Y-106791698D01*
X129749000Y-106558309D01*
X129749000Y-106117750D01*
X129590250Y-105959000D01*
X128791000Y-105959000D01*
X128537000Y-105959000D01*
X128517000Y-105959000D01*
X128517000Y-105705000D01*
X128537000Y-105705000D01*
X128537000Y-105685000D01*
X128791000Y-105685000D01*
X128791000Y-105705000D01*
X129590250Y-105705000D01*
X129749000Y-105546250D01*
X129749000Y-105288924D01*
X129771843Y-105403765D01*
X129771843Y-105403765D01*
G37*
X129771843Y-105403765D02*
X129912191Y-105613809D01*
X130122235Y-105754157D01*
X130370000Y-105803440D01*
X130585000Y-105803440D01*
X130585000Y-105809913D01*
X130572560Y-105851000D01*
X130585000Y-105913541D01*
X130585000Y-105970250D01*
X130599081Y-105984331D01*
X130621843Y-106098765D01*
X130726896Y-106255987D01*
X130682050Y-106300739D01*
X130585133Y-106534027D01*
X130585125Y-106541625D01*
X130585000Y-106541750D01*
X130585000Y-106661000D01*
X130584951Y-106708560D01*
X130370000Y-106708560D01*
X130122235Y-106757843D01*
X129912191Y-106898191D01*
X129771843Y-107108235D01*
X129748191Y-107227143D01*
X129514000Y-107180560D01*
X128418140Y-107180560D01*
X128304580Y-107067000D01*
X128378250Y-107067000D01*
X128537000Y-106908250D01*
X128537000Y-105959000D01*
X128791000Y-105959000D01*
X128791000Y-106908250D01*
X128949750Y-107067000D01*
X129240310Y-107067000D01*
X129473699Y-106970327D01*
X129652327Y-106791698D01*
X129749000Y-106558309D01*
X129749000Y-106117750D01*
X129590250Y-105959000D01*
X128791000Y-105959000D01*
X128537000Y-105959000D01*
X128517000Y-105959000D01*
X128517000Y-105705000D01*
X128537000Y-105705000D01*
X128537000Y-105685000D01*
X128791000Y-105685000D01*
X128791000Y-105705000D01*
X129590250Y-105705000D01*
X129749000Y-105546250D01*
X129749000Y-105288924D01*
X129771843Y-105403765D01*
G36*
X141455843Y-105403765D02*
X141596191Y-105613809D01*
X141806235Y-105754157D01*
X142054000Y-105803440D01*
X142269000Y-105803440D01*
X142269000Y-105809913D01*
X142256560Y-105851000D01*
X142269000Y-105913541D01*
X142269000Y-105970250D01*
X142283081Y-105984331D01*
X142305843Y-106098765D01*
X142410896Y-106255987D01*
X142366050Y-106300739D01*
X142269133Y-106534027D01*
X142269125Y-106541625D01*
X142269000Y-106541750D01*
X142269000Y-106661000D01*
X142268951Y-106708560D01*
X142054000Y-106708560D01*
X141806235Y-106757843D01*
X141596191Y-106898191D01*
X141455843Y-107108235D01*
X141432191Y-107227143D01*
X141198000Y-107180560D01*
X140102140Y-107180560D01*
X139988580Y-107067000D01*
X140062250Y-107067000D01*
X140221000Y-106908250D01*
X140221000Y-105959000D01*
X140475000Y-105959000D01*
X140475000Y-106908250D01*
X140633750Y-107067000D01*
X140924310Y-107067000D01*
X141157699Y-106970327D01*
X141336327Y-106791698D01*
X141433000Y-106558309D01*
X141433000Y-106117750D01*
X141274250Y-105959000D01*
X140475000Y-105959000D01*
X140221000Y-105959000D01*
X140201000Y-105959000D01*
X140201000Y-105705000D01*
X140221000Y-105705000D01*
X140221000Y-105685000D01*
X140475000Y-105685000D01*
X140475000Y-105705000D01*
X141274250Y-105705000D01*
X141433000Y-105546250D01*
X141433000Y-105288924D01*
X141455843Y-105403765D01*
X141455843Y-105403765D01*
G37*
X141455843Y-105403765D02*
X141596191Y-105613809D01*
X141806235Y-105754157D01*
X142054000Y-105803440D01*
X142269000Y-105803440D01*
X142269000Y-105809913D01*
X142256560Y-105851000D01*
X142269000Y-105913541D01*
X142269000Y-105970250D01*
X142283081Y-105984331D01*
X142305843Y-106098765D01*
X142410896Y-106255987D01*
X142366050Y-106300739D01*
X142269133Y-106534027D01*
X142269125Y-106541625D01*
X142269000Y-106541750D01*
X142269000Y-106661000D01*
X142268951Y-106708560D01*
X142054000Y-106708560D01*
X141806235Y-106757843D01*
X141596191Y-106898191D01*
X141455843Y-107108235D01*
X141432191Y-107227143D01*
X141198000Y-107180560D01*
X140102140Y-107180560D01*
X139988580Y-107067000D01*
X140062250Y-107067000D01*
X140221000Y-106908250D01*
X140221000Y-105959000D01*
X140475000Y-105959000D01*
X140475000Y-106908250D01*
X140633750Y-107067000D01*
X140924310Y-107067000D01*
X141157699Y-106970327D01*
X141336327Y-106791698D01*
X141433000Y-106558309D01*
X141433000Y-106117750D01*
X141274250Y-105959000D01*
X140475000Y-105959000D01*
X140221000Y-105959000D01*
X140201000Y-105959000D01*
X140201000Y-105705000D01*
X140221000Y-105705000D01*
X140221000Y-105685000D01*
X140475000Y-105685000D01*
X140475000Y-105705000D01*
X141274250Y-105705000D01*
X141433000Y-105546250D01*
X141433000Y-105288924D01*
X141455843Y-105403765D01*
G36*
X144031000Y-103779000D02*
X144051000Y-103779000D01*
X144051000Y-104033000D01*
X144031000Y-104033000D01*
X144031000Y-107183000D01*
X143777000Y-107183000D01*
X143777000Y-104033000D01*
X143757000Y-104033000D01*
X143757000Y-103779000D01*
X143777000Y-103779000D01*
X143777000Y-103759000D01*
X144031000Y-103759000D01*
X144031000Y-103779000D01*
X144031000Y-103779000D01*
G37*
X144031000Y-103779000D02*
X144051000Y-103779000D01*
X144051000Y-104033000D01*
X144031000Y-104033000D01*
X144031000Y-107183000D01*
X143777000Y-107183000D01*
X143777000Y-104033000D01*
X143757000Y-104033000D01*
X143757000Y-103779000D01*
X143777000Y-103779000D01*
X143777000Y-103759000D01*
X144031000Y-103759000D01*
X144031000Y-103779000D01*
G36*
X174290000Y-103486521D02*
X174210732Y-103321964D01*
X173774320Y-102932046D01*
X173221913Y-102738816D01*
X172987000Y-102883076D01*
X172987000Y-104097000D01*
X173007000Y-104097000D01*
X173007000Y-104351000D01*
X172987000Y-104351000D01*
X172987000Y-104371000D01*
X172733000Y-104371000D01*
X172733000Y-104351000D01*
X171373783Y-104351000D01*
X171252642Y-104583026D01*
X171255291Y-104598791D01*
X171509268Y-105126036D01*
X171925069Y-105497539D01*
X171615585Y-105704330D01*
X171414897Y-106004680D01*
X171243593Y-106038755D01*
X170988921Y-106208921D01*
X170482842Y-106715000D01*
X169509156Y-106715000D01*
X169110703Y-106316547D01*
X169177000Y-106250250D01*
X169177000Y-105301000D01*
X169431000Y-105301000D01*
X169431000Y-106250250D01*
X169589750Y-106409000D01*
X169805310Y-106409000D01*
X170038699Y-106312327D01*
X170217327Y-106133698D01*
X170314000Y-105900309D01*
X170314000Y-105459750D01*
X170155250Y-105301000D01*
X169431000Y-105301000D01*
X169177000Y-105301000D01*
X168452750Y-105301000D01*
X168294000Y-105459750D01*
X168294000Y-105776137D01*
X168203765Y-105715843D01*
X167956000Y-105666560D01*
X167041000Y-105666560D01*
X167041000Y-104823758D01*
X168281560Y-103583198D01*
X168281560Y-103874000D01*
X168330843Y-104121765D01*
X168391873Y-104213102D01*
X168390673Y-104214302D01*
X168294000Y-104447691D01*
X168294000Y-104888250D01*
X168452750Y-105047000D01*
X169177000Y-105047000D01*
X169177000Y-105027000D01*
X169431000Y-105027000D01*
X169431000Y-105047000D01*
X170155250Y-105047000D01*
X170314000Y-104888250D01*
X170314000Y-104447691D01*
X170217327Y-104214302D01*
X170216127Y-104213102D01*
X170277157Y-104121765D01*
X170326440Y-103874000D01*
X170326440Y-102977000D01*
X170530195Y-102977000D01*
X170621954Y-103068919D01*
X171002223Y-103226820D01*
X171413971Y-103227179D01*
X171788611Y-103072382D01*
X171509268Y-103321964D01*
X171255291Y-103849209D01*
X171252642Y-103864974D01*
X171373783Y-104097000D01*
X172733000Y-104097000D01*
X172733000Y-102883076D01*
X172498087Y-102738816D01*
X171945680Y-102932046D01*
X171821574Y-103042930D01*
X172085919Y-102779046D01*
X172243820Y-102398777D01*
X172244179Y-101987029D01*
X172086942Y-101606485D01*
X171871501Y-101390668D01*
X172101766Y-101544526D01*
X172675255Y-101658600D01*
X173044745Y-101658600D01*
X173618234Y-101544526D01*
X174104415Y-101219670D01*
X174290000Y-100941923D01*
X174290000Y-103486521D01*
X174290000Y-103486521D01*
G37*
X174290000Y-103486521D02*
X174210732Y-103321964D01*
X173774320Y-102932046D01*
X173221913Y-102738816D01*
X172987000Y-102883076D01*
X172987000Y-104097000D01*
X173007000Y-104097000D01*
X173007000Y-104351000D01*
X172987000Y-104351000D01*
X172987000Y-104371000D01*
X172733000Y-104371000D01*
X172733000Y-104351000D01*
X171373783Y-104351000D01*
X171252642Y-104583026D01*
X171255291Y-104598791D01*
X171509268Y-105126036D01*
X171925069Y-105497539D01*
X171615585Y-105704330D01*
X171414897Y-106004680D01*
X171243593Y-106038755D01*
X170988921Y-106208921D01*
X170482842Y-106715000D01*
X169509156Y-106715000D01*
X169110703Y-106316547D01*
X169177000Y-106250250D01*
X169177000Y-105301000D01*
X169431000Y-105301000D01*
X169431000Y-106250250D01*
X169589750Y-106409000D01*
X169805310Y-106409000D01*
X170038699Y-106312327D01*
X170217327Y-106133698D01*
X170314000Y-105900309D01*
X170314000Y-105459750D01*
X170155250Y-105301000D01*
X169431000Y-105301000D01*
X169177000Y-105301000D01*
X168452750Y-105301000D01*
X168294000Y-105459750D01*
X168294000Y-105776137D01*
X168203765Y-105715843D01*
X167956000Y-105666560D01*
X167041000Y-105666560D01*
X167041000Y-104823758D01*
X168281560Y-103583198D01*
X168281560Y-103874000D01*
X168330843Y-104121765D01*
X168391873Y-104213102D01*
X168390673Y-104214302D01*
X168294000Y-104447691D01*
X168294000Y-104888250D01*
X168452750Y-105047000D01*
X169177000Y-105047000D01*
X169177000Y-105027000D01*
X169431000Y-105027000D01*
X169431000Y-105047000D01*
X170155250Y-105047000D01*
X170314000Y-104888250D01*
X170314000Y-104447691D01*
X170217327Y-104214302D01*
X170216127Y-104213102D01*
X170277157Y-104121765D01*
X170326440Y-103874000D01*
X170326440Y-102977000D01*
X170530195Y-102977000D01*
X170621954Y-103068919D01*
X171002223Y-103226820D01*
X171413971Y-103227179D01*
X171788611Y-103072382D01*
X171509268Y-103321964D01*
X171255291Y-103849209D01*
X171252642Y-103864974D01*
X171373783Y-104097000D01*
X172733000Y-104097000D01*
X172733000Y-102883076D01*
X172498087Y-102738816D01*
X171945680Y-102932046D01*
X171821574Y-103042930D01*
X172085919Y-102779046D01*
X172243820Y-102398777D01*
X172244179Y-101987029D01*
X172086942Y-101606485D01*
X171871501Y-101390668D01*
X172101766Y-101544526D01*
X172675255Y-101658600D01*
X173044745Y-101658600D01*
X173618234Y-101544526D01*
X174104415Y-101219670D01*
X174290000Y-100941923D01*
X174290000Y-103486521D01*
G36*
X130129580Y-65960170D02*
X130288330Y-66118920D01*
X131887260Y-66118920D01*
X131887260Y-66098920D01*
X132141260Y-66098920D01*
X132141260Y-66118920D01*
X132161260Y-66118920D01*
X132161260Y-66372920D01*
X132141260Y-66372920D01*
X132141260Y-67721660D01*
X132300010Y-67880410D01*
X132986000Y-67880410D01*
X132986000Y-68198170D01*
X130962700Y-68198170D01*
X130714935Y-68247453D01*
X130599630Y-68324498D01*
X130599668Y-68281570D01*
X130434898Y-67882797D01*
X130130067Y-67577434D01*
X129731583Y-67411969D01*
X129300110Y-67411592D01*
X128901337Y-67576362D01*
X128595974Y-67881193D01*
X128430509Y-68279677D01*
X128430132Y-68711150D01*
X128594902Y-69109923D01*
X128899733Y-69415286D01*
X129298217Y-69580751D01*
X129729690Y-69581128D01*
X130128463Y-69416358D01*
X130315260Y-69229886D01*
X130315260Y-69345990D01*
X130345069Y-69495850D01*
X130315260Y-69645710D01*
X130315260Y-70146090D01*
X130345069Y-70295950D01*
X130315260Y-70445810D01*
X130315260Y-70946190D01*
X130345069Y-71096050D01*
X130315260Y-71245910D01*
X130315260Y-71746290D01*
X130342599Y-71883732D01*
X130327700Y-71919700D01*
X130327700Y-72012355D01*
X130475585Y-72160240D01*
X130481571Y-72169198D01*
X130327700Y-72169198D01*
X130327700Y-72174692D01*
X130130067Y-71976714D01*
X129731583Y-71811249D01*
X129300110Y-71810872D01*
X128901337Y-71975642D01*
X128595974Y-72280473D01*
X128430509Y-72678957D01*
X128430132Y-73110430D01*
X128594902Y-73509203D01*
X128899733Y-73814566D01*
X129298217Y-73980031D01*
X129729690Y-73980408D01*
X130128463Y-73815638D01*
X130433826Y-73510807D01*
X130599291Y-73112323D01*
X130599318Y-73081033D01*
X130603002Y-73084717D01*
X130836391Y-73181390D01*
X131827570Y-73181390D01*
X131986320Y-73022640D01*
X131986320Y-72421295D01*
X132240320Y-72421295D01*
X132240320Y-73022640D01*
X132399070Y-73181390D01*
X133390249Y-73181390D01*
X133623638Y-73084717D01*
X133802267Y-72906089D01*
X133898940Y-72672700D01*
X133898940Y-72580045D01*
X133740190Y-72421295D01*
X132240320Y-72421295D01*
X131986320Y-72421295D01*
X131966320Y-72421295D01*
X131966320Y-72393730D01*
X133263940Y-72393730D01*
X133511705Y-72344447D01*
X133721749Y-72204099D01*
X133751055Y-72160240D01*
X133777703Y-72133592D01*
X133916235Y-72226157D01*
X134164000Y-72275440D01*
X135864000Y-72275440D01*
X135942000Y-72259925D01*
X135942000Y-72541250D01*
X136100750Y-72700000D01*
X137300000Y-72700000D01*
X137300000Y-72680000D01*
X137554000Y-72680000D01*
X137554000Y-72700000D01*
X137574000Y-72700000D01*
X137574000Y-72954000D01*
X137554000Y-72954000D01*
X137554000Y-72974000D01*
X137300000Y-72974000D01*
X137300000Y-72954000D01*
X136100750Y-72954000D01*
X135942000Y-73112750D01*
X135942000Y-73193000D01*
X135299750Y-73193000D01*
X135141000Y-73351750D01*
X135141000Y-74351000D01*
X135161000Y-74351000D01*
X135161000Y-74605000D01*
X135141000Y-74605000D01*
X135141000Y-75604250D01*
X135242083Y-75705333D01*
X133363000Y-77584416D01*
X133363000Y-77470690D01*
X133266327Y-77237301D01*
X133087698Y-77058673D01*
X132854309Y-76962000D01*
X129965750Y-76962000D01*
X129807000Y-77120750D01*
X129807000Y-80518000D01*
X129827000Y-80518000D01*
X129827000Y-80772000D01*
X129807000Y-80772000D01*
X129807000Y-84169250D01*
X129965750Y-84328000D01*
X132647978Y-84328000D01*
X132647978Y-84351779D01*
X132176197Y-84823560D01*
X131140500Y-84823560D01*
X130892735Y-84872843D01*
X130682691Y-85013191D01*
X130542343Y-85223235D01*
X130493060Y-85471000D01*
X130493060Y-88519000D01*
X130542343Y-88766765D01*
X130682691Y-88976809D01*
X130892735Y-89117157D01*
X131109084Y-89160191D01*
X131131001Y-89270369D01*
X131148367Y-89357675D01*
X131222458Y-89468560D01*
X130430000Y-89468560D01*
X130182235Y-89517843D01*
X129972191Y-89658191D01*
X129831843Y-89868235D01*
X129782560Y-90116000D01*
X129782560Y-91916000D01*
X129831843Y-92163765D01*
X129972191Y-92373809D01*
X130182235Y-92514157D01*
X130430000Y-92563440D01*
X131332368Y-92563440D01*
X131337044Y-92586947D01*
X131361727Y-92711035D01*
X131421171Y-92800000D01*
X131301750Y-92800000D01*
X131143000Y-92958750D01*
X131143000Y-93683000D01*
X131163000Y-93683000D01*
X131163000Y-93937000D01*
X131143000Y-93937000D01*
X131143000Y-94661250D01*
X131301750Y-94820000D01*
X131742309Y-94820000D01*
X131975698Y-94723327D01*
X131976898Y-94722127D01*
X132068235Y-94783157D01*
X132316000Y-94832440D01*
X133516000Y-94832440D01*
X133763765Y-94783157D01*
X133973809Y-94642809D01*
X134114157Y-94432765D01*
X134157075Y-94217000D01*
X134220250Y-94217000D01*
X134379000Y-94058250D01*
X134379000Y-93109000D01*
X134633000Y-93109000D01*
X134633000Y-94058250D01*
X134791750Y-94217000D01*
X135007310Y-94217000D01*
X135240699Y-94120327D01*
X135419327Y-93941698D01*
X135516000Y-93708309D01*
X135516000Y-93267750D01*
X135357250Y-93109000D01*
X134633000Y-93109000D01*
X134379000Y-93109000D01*
X134359000Y-93109000D01*
X134359000Y-92855000D01*
X134379000Y-92855000D01*
X134379000Y-92835000D01*
X134633000Y-92835000D01*
X134633000Y-92855000D01*
X135357250Y-92855000D01*
X135516000Y-92696250D01*
X135516000Y-92255691D01*
X135419327Y-92022302D01*
X135418127Y-92021102D01*
X135479157Y-91929765D01*
X135528440Y-91682000D01*
X135528440Y-91442720D01*
X136037799Y-91952079D01*
X136292472Y-92122245D01*
X136592878Y-92182001D01*
X136592883Y-92182000D01*
X137392001Y-92182000D01*
X137392001Y-94639841D01*
X136847842Y-95184000D01*
X131276455Y-95184000D01*
X130976048Y-95243755D01*
X130721376Y-95413921D01*
X130154909Y-95980388D01*
X130029000Y-96168825D01*
X130029000Y-95852690D01*
X129932327Y-95619301D01*
X129774025Y-95461000D01*
X129932327Y-95302699D01*
X130029000Y-95069310D01*
X130029000Y-94696025D01*
X130056302Y-94723327D01*
X130289691Y-94820000D01*
X130730250Y-94820000D01*
X130889000Y-94661250D01*
X130889000Y-93937000D01*
X130869000Y-93937000D01*
X130869000Y-93683000D01*
X130889000Y-93683000D01*
X130889000Y-92958750D01*
X130730250Y-92800000D01*
X130289691Y-92800000D01*
X130056302Y-92896673D01*
X129877673Y-93075301D01*
X129818114Y-93219089D01*
X129753698Y-93154673D01*
X129520309Y-93058000D01*
X128929750Y-93058000D01*
X128771000Y-93216750D01*
X128771000Y-94191000D01*
X128791000Y-94191000D01*
X128791000Y-94445000D01*
X128771000Y-94445000D01*
X128771000Y-95419250D01*
X128812750Y-95461000D01*
X128771000Y-95502750D01*
X128771000Y-96477000D01*
X128791000Y-96477000D01*
X128791000Y-96731000D01*
X128771000Y-96731000D01*
X128771000Y-97705250D01*
X128929750Y-97864000D01*
X129520309Y-97864000D01*
X129753698Y-97767327D01*
X129924988Y-97596038D01*
X129924988Y-98296854D01*
X128588908Y-99632934D01*
X128459029Y-99632821D01*
X128078485Y-99790058D01*
X127787081Y-100080954D01*
X127629180Y-100461223D01*
X127628821Y-100872971D01*
X127660607Y-100949898D01*
X127630209Y-100970209D01*
X127630207Y-100970212D01*
X127129000Y-101471418D01*
X127129000Y-97829696D01*
X127141765Y-97827157D01*
X127351809Y-97686809D01*
X127392654Y-97625680D01*
X127534302Y-97767327D01*
X127767691Y-97864000D01*
X128358250Y-97864000D01*
X128517000Y-97705250D01*
X128517000Y-96731000D01*
X128497000Y-96731000D01*
X128497000Y-96477000D01*
X128517000Y-96477000D01*
X128517000Y-95502750D01*
X128475250Y-95461000D01*
X128517000Y-95419250D01*
X128517000Y-94445000D01*
X128497000Y-94445000D01*
X128497000Y-94191000D01*
X128517000Y-94191000D01*
X128517000Y-93216750D01*
X128358250Y-93058000D01*
X127767691Y-93058000D01*
X127534302Y-93154673D01*
X127392654Y-93296320D01*
X127388090Y-93289489D01*
X127806427Y-92871152D01*
X127806430Y-92871150D01*
X127998273Y-92584035D01*
X128002370Y-92563440D01*
X128930000Y-92563440D01*
X129177765Y-92514157D01*
X129387809Y-92373809D01*
X129528157Y-92163765D01*
X129577440Y-91916000D01*
X129577440Y-90116000D01*
X129528157Y-89868235D01*
X129387809Y-89658191D01*
X129177765Y-89517843D01*
X128930000Y-89468560D01*
X128199015Y-89468560D01*
X128211634Y-89449674D01*
X128269970Y-89156401D01*
X128467265Y-89117157D01*
X128677309Y-88976809D01*
X128817657Y-88766765D01*
X128866940Y-88519000D01*
X128866940Y-85471000D01*
X128817657Y-85223235D01*
X128677309Y-85013191D01*
X128467265Y-84872843D01*
X128219500Y-84823560D01*
X126568500Y-84823560D01*
X126320735Y-84872843D01*
X126110691Y-85013191D01*
X125970343Y-85223235D01*
X125921060Y-85471000D01*
X125921060Y-88519000D01*
X125970343Y-88766765D01*
X126110691Y-88976809D01*
X126320735Y-89117157D01*
X126336242Y-89120241D01*
X126295639Y-89324360D01*
X126295640Y-89324365D01*
X126295640Y-89495286D01*
X126182235Y-89517843D01*
X125972191Y-89658191D01*
X125831843Y-89868235D01*
X125782560Y-90116000D01*
X125782560Y-91916000D01*
X125831843Y-92163765D01*
X125903466Y-92270955D01*
X125710000Y-92464420D01*
X125710000Y-80930750D01*
X125997000Y-80930750D01*
X125997000Y-83819310D01*
X126093673Y-84052699D01*
X126272302Y-84231327D01*
X126505691Y-84328000D01*
X129394250Y-84328000D01*
X129553000Y-84169250D01*
X129553000Y-80772000D01*
X126155750Y-80772000D01*
X125997000Y-80930750D01*
X125710000Y-80930750D01*
X125710000Y-77470690D01*
X125997000Y-77470690D01*
X125997000Y-80359250D01*
X126155750Y-80518000D01*
X129553000Y-80518000D01*
X129553000Y-77120750D01*
X129394250Y-76962000D01*
X126505691Y-76962000D01*
X126272302Y-77058673D01*
X126093673Y-77237301D01*
X125997000Y-77470690D01*
X125710000Y-77470690D01*
X125710000Y-76780570D01*
X126229410Y-76780570D01*
X126388160Y-76621820D01*
X126388160Y-75273080D01*
X126642160Y-75273080D01*
X126642160Y-76621820D01*
X126800910Y-76780570D01*
X127891149Y-76780570D01*
X128124538Y-76683897D01*
X128303167Y-76505269D01*
X128399840Y-76271880D01*
X128399840Y-75431830D01*
X130129580Y-75431830D01*
X130129580Y-76271880D01*
X130226253Y-76505269D01*
X130404882Y-76683897D01*
X130638271Y-76780570D01*
X131728510Y-76780570D01*
X131887260Y-76621820D01*
X131887260Y-75273080D01*
X130288330Y-75273080D01*
X130129580Y-75431830D01*
X128399840Y-75431830D01*
X128241090Y-75273080D01*
X126642160Y-75273080D01*
X126388160Y-75273080D01*
X126368160Y-75273080D01*
X126368160Y-75019080D01*
X126388160Y-75019080D01*
X126388160Y-73670340D01*
X126642160Y-73670340D01*
X126642160Y-75019080D01*
X128241090Y-75019080D01*
X128399840Y-74860330D01*
X128399840Y-74020280D01*
X130129580Y-74020280D01*
X130129580Y-74860330D01*
X130288330Y-75019080D01*
X131887260Y-75019080D01*
X131887260Y-73670340D01*
X132141260Y-73670340D01*
X132141260Y-75019080D01*
X132161260Y-75019080D01*
X132161260Y-75273080D01*
X132141260Y-75273080D01*
X132141260Y-76621820D01*
X132300010Y-76780570D01*
X133390249Y-76780570D01*
X133623638Y-76683897D01*
X133802267Y-76505269D01*
X133898940Y-76271880D01*
X133898940Y-75705528D01*
X134037690Y-75763000D01*
X134728250Y-75763000D01*
X134887000Y-75604250D01*
X134887000Y-74605000D01*
X134867000Y-74605000D01*
X134867000Y-74351000D01*
X134887000Y-74351000D01*
X134887000Y-73351750D01*
X134728250Y-73193000D01*
X134037690Y-73193000D01*
X133804301Y-73289673D01*
X133625673Y-73468302D01*
X133575891Y-73588486D01*
X133390249Y-73511590D01*
X132300010Y-73511590D01*
X132141260Y-73670340D01*
X131887260Y-73670340D01*
X131728510Y-73511590D01*
X130638271Y-73511590D01*
X130404882Y-73608263D01*
X130226253Y-73786891D01*
X130129580Y-74020280D01*
X128399840Y-74020280D01*
X128303167Y-73786891D01*
X128124538Y-73608263D01*
X127891149Y-73511590D01*
X126800910Y-73511590D01*
X126642160Y-73670340D01*
X126388160Y-73670340D01*
X126229410Y-73511590D01*
X125710000Y-73511590D01*
X125710000Y-67880410D01*
X126229410Y-67880410D01*
X126388160Y-67721660D01*
X126388160Y-66372920D01*
X126642160Y-66372920D01*
X126642160Y-67721660D01*
X126800910Y-67880410D01*
X127891149Y-67880410D01*
X128124538Y-67783737D01*
X128303167Y-67605109D01*
X128399840Y-67371720D01*
X128399840Y-66531670D01*
X130129580Y-66531670D01*
X130129580Y-67371720D01*
X130226253Y-67605109D01*
X130404882Y-67783737D01*
X130638271Y-67880410D01*
X131728510Y-67880410D01*
X131887260Y-67721660D01*
X131887260Y-66372920D01*
X130288330Y-66372920D01*
X130129580Y-66531670D01*
X128399840Y-66531670D01*
X128241090Y-66372920D01*
X126642160Y-66372920D01*
X126388160Y-66372920D01*
X126368160Y-66372920D01*
X126368160Y-66118920D01*
X126388160Y-66118920D01*
X126388160Y-66098920D01*
X126642160Y-66098920D01*
X126642160Y-66118920D01*
X128241090Y-66118920D01*
X128399840Y-65960170D01*
X128399840Y-65710000D01*
X130129580Y-65710000D01*
X130129580Y-65960170D01*
X130129580Y-65960170D01*
G37*
X130129580Y-65960170D02*
X130288330Y-66118920D01*
X131887260Y-66118920D01*
X131887260Y-66098920D01*
X132141260Y-66098920D01*
X132141260Y-66118920D01*
X132161260Y-66118920D01*
X132161260Y-66372920D01*
X132141260Y-66372920D01*
X132141260Y-67721660D01*
X132300010Y-67880410D01*
X132986000Y-67880410D01*
X132986000Y-68198170D01*
X130962700Y-68198170D01*
X130714935Y-68247453D01*
X130599630Y-68324498D01*
X130599668Y-68281570D01*
X130434898Y-67882797D01*
X130130067Y-67577434D01*
X129731583Y-67411969D01*
X129300110Y-67411592D01*
X128901337Y-67576362D01*
X128595974Y-67881193D01*
X128430509Y-68279677D01*
X128430132Y-68711150D01*
X128594902Y-69109923D01*
X128899733Y-69415286D01*
X129298217Y-69580751D01*
X129729690Y-69581128D01*
X130128463Y-69416358D01*
X130315260Y-69229886D01*
X130315260Y-69345990D01*
X130345069Y-69495850D01*
X130315260Y-69645710D01*
X130315260Y-70146090D01*
X130345069Y-70295950D01*
X130315260Y-70445810D01*
X130315260Y-70946190D01*
X130345069Y-71096050D01*
X130315260Y-71245910D01*
X130315260Y-71746290D01*
X130342599Y-71883732D01*
X130327700Y-71919700D01*
X130327700Y-72012355D01*
X130475585Y-72160240D01*
X130481571Y-72169198D01*
X130327700Y-72169198D01*
X130327700Y-72174692D01*
X130130067Y-71976714D01*
X129731583Y-71811249D01*
X129300110Y-71810872D01*
X128901337Y-71975642D01*
X128595974Y-72280473D01*
X128430509Y-72678957D01*
X128430132Y-73110430D01*
X128594902Y-73509203D01*
X128899733Y-73814566D01*
X129298217Y-73980031D01*
X129729690Y-73980408D01*
X130128463Y-73815638D01*
X130433826Y-73510807D01*
X130599291Y-73112323D01*
X130599318Y-73081033D01*
X130603002Y-73084717D01*
X130836391Y-73181390D01*
X131827570Y-73181390D01*
X131986320Y-73022640D01*
X131986320Y-72421295D01*
X132240320Y-72421295D01*
X132240320Y-73022640D01*
X132399070Y-73181390D01*
X133390249Y-73181390D01*
X133623638Y-73084717D01*
X133802267Y-72906089D01*
X133898940Y-72672700D01*
X133898940Y-72580045D01*
X133740190Y-72421295D01*
X132240320Y-72421295D01*
X131986320Y-72421295D01*
X131966320Y-72421295D01*
X131966320Y-72393730D01*
X133263940Y-72393730D01*
X133511705Y-72344447D01*
X133721749Y-72204099D01*
X133751055Y-72160240D01*
X133777703Y-72133592D01*
X133916235Y-72226157D01*
X134164000Y-72275440D01*
X135864000Y-72275440D01*
X135942000Y-72259925D01*
X135942000Y-72541250D01*
X136100750Y-72700000D01*
X137300000Y-72700000D01*
X137300000Y-72680000D01*
X137554000Y-72680000D01*
X137554000Y-72700000D01*
X137574000Y-72700000D01*
X137574000Y-72954000D01*
X137554000Y-72954000D01*
X137554000Y-72974000D01*
X137300000Y-72974000D01*
X137300000Y-72954000D01*
X136100750Y-72954000D01*
X135942000Y-73112750D01*
X135942000Y-73193000D01*
X135299750Y-73193000D01*
X135141000Y-73351750D01*
X135141000Y-74351000D01*
X135161000Y-74351000D01*
X135161000Y-74605000D01*
X135141000Y-74605000D01*
X135141000Y-75604250D01*
X135242083Y-75705333D01*
X133363000Y-77584416D01*
X133363000Y-77470690D01*
X133266327Y-77237301D01*
X133087698Y-77058673D01*
X132854309Y-76962000D01*
X129965750Y-76962000D01*
X129807000Y-77120750D01*
X129807000Y-80518000D01*
X129827000Y-80518000D01*
X129827000Y-80772000D01*
X129807000Y-80772000D01*
X129807000Y-84169250D01*
X129965750Y-84328000D01*
X132647978Y-84328000D01*
X132647978Y-84351779D01*
X132176197Y-84823560D01*
X131140500Y-84823560D01*
X130892735Y-84872843D01*
X130682691Y-85013191D01*
X130542343Y-85223235D01*
X130493060Y-85471000D01*
X130493060Y-88519000D01*
X130542343Y-88766765D01*
X130682691Y-88976809D01*
X130892735Y-89117157D01*
X131109084Y-89160191D01*
X131131001Y-89270369D01*
X131148367Y-89357675D01*
X131222458Y-89468560D01*
X130430000Y-89468560D01*
X130182235Y-89517843D01*
X129972191Y-89658191D01*
X129831843Y-89868235D01*
X129782560Y-90116000D01*
X129782560Y-91916000D01*
X129831843Y-92163765D01*
X129972191Y-92373809D01*
X130182235Y-92514157D01*
X130430000Y-92563440D01*
X131332368Y-92563440D01*
X131337044Y-92586947D01*
X131361727Y-92711035D01*
X131421171Y-92800000D01*
X131301750Y-92800000D01*
X131143000Y-92958750D01*
X131143000Y-93683000D01*
X131163000Y-93683000D01*
X131163000Y-93937000D01*
X131143000Y-93937000D01*
X131143000Y-94661250D01*
X131301750Y-94820000D01*
X131742309Y-94820000D01*
X131975698Y-94723327D01*
X131976898Y-94722127D01*
X132068235Y-94783157D01*
X132316000Y-94832440D01*
X133516000Y-94832440D01*
X133763765Y-94783157D01*
X133973809Y-94642809D01*
X134114157Y-94432765D01*
X134157075Y-94217000D01*
X134220250Y-94217000D01*
X134379000Y-94058250D01*
X134379000Y-93109000D01*
X134633000Y-93109000D01*
X134633000Y-94058250D01*
X134791750Y-94217000D01*
X135007310Y-94217000D01*
X135240699Y-94120327D01*
X135419327Y-93941698D01*
X135516000Y-93708309D01*
X135516000Y-93267750D01*
X135357250Y-93109000D01*
X134633000Y-93109000D01*
X134379000Y-93109000D01*
X134359000Y-93109000D01*
X134359000Y-92855000D01*
X134379000Y-92855000D01*
X134379000Y-92835000D01*
X134633000Y-92835000D01*
X134633000Y-92855000D01*
X135357250Y-92855000D01*
X135516000Y-92696250D01*
X135516000Y-92255691D01*
X135419327Y-92022302D01*
X135418127Y-92021102D01*
X135479157Y-91929765D01*
X135528440Y-91682000D01*
X135528440Y-91442720D01*
X136037799Y-91952079D01*
X136292472Y-92122245D01*
X136592878Y-92182001D01*
X136592883Y-92182000D01*
X137392001Y-92182000D01*
X137392001Y-94639841D01*
X136847842Y-95184000D01*
X131276455Y-95184000D01*
X130976048Y-95243755D01*
X130721376Y-95413921D01*
X130154909Y-95980388D01*
X130029000Y-96168825D01*
X130029000Y-95852690D01*
X129932327Y-95619301D01*
X129774025Y-95461000D01*
X129932327Y-95302699D01*
X130029000Y-95069310D01*
X130029000Y-94696025D01*
X130056302Y-94723327D01*
X130289691Y-94820000D01*
X130730250Y-94820000D01*
X130889000Y-94661250D01*
X130889000Y-93937000D01*
X130869000Y-93937000D01*
X130869000Y-93683000D01*
X130889000Y-93683000D01*
X130889000Y-92958750D01*
X130730250Y-92800000D01*
X130289691Y-92800000D01*
X130056302Y-92896673D01*
X129877673Y-93075301D01*
X129818114Y-93219089D01*
X129753698Y-93154673D01*
X129520309Y-93058000D01*
X128929750Y-93058000D01*
X128771000Y-93216750D01*
X128771000Y-94191000D01*
X128791000Y-94191000D01*
X128791000Y-94445000D01*
X128771000Y-94445000D01*
X128771000Y-95419250D01*
X128812750Y-95461000D01*
X128771000Y-95502750D01*
X128771000Y-96477000D01*
X128791000Y-96477000D01*
X128791000Y-96731000D01*
X128771000Y-96731000D01*
X128771000Y-97705250D01*
X128929750Y-97864000D01*
X129520309Y-97864000D01*
X129753698Y-97767327D01*
X129924988Y-97596038D01*
X129924988Y-98296854D01*
X128588908Y-99632934D01*
X128459029Y-99632821D01*
X128078485Y-99790058D01*
X127787081Y-100080954D01*
X127629180Y-100461223D01*
X127628821Y-100872971D01*
X127660607Y-100949898D01*
X127630209Y-100970209D01*
X127630207Y-100970212D01*
X127129000Y-101471418D01*
X127129000Y-97829696D01*
X127141765Y-97827157D01*
X127351809Y-97686809D01*
X127392654Y-97625680D01*
X127534302Y-97767327D01*
X127767691Y-97864000D01*
X128358250Y-97864000D01*
X128517000Y-97705250D01*
X128517000Y-96731000D01*
X128497000Y-96731000D01*
X128497000Y-96477000D01*
X128517000Y-96477000D01*
X128517000Y-95502750D01*
X128475250Y-95461000D01*
X128517000Y-95419250D01*
X128517000Y-94445000D01*
X128497000Y-94445000D01*
X128497000Y-94191000D01*
X128517000Y-94191000D01*
X128517000Y-93216750D01*
X128358250Y-93058000D01*
X127767691Y-93058000D01*
X127534302Y-93154673D01*
X127392654Y-93296320D01*
X127388090Y-93289489D01*
X127806427Y-92871152D01*
X127806430Y-92871150D01*
X127998273Y-92584035D01*
X128002370Y-92563440D01*
X128930000Y-92563440D01*
X129177765Y-92514157D01*
X129387809Y-92373809D01*
X129528157Y-92163765D01*
X129577440Y-91916000D01*
X129577440Y-90116000D01*
X129528157Y-89868235D01*
X129387809Y-89658191D01*
X129177765Y-89517843D01*
X128930000Y-89468560D01*
X128199015Y-89468560D01*
X128211634Y-89449674D01*
X128269970Y-89156401D01*
X128467265Y-89117157D01*
X128677309Y-88976809D01*
X128817657Y-88766765D01*
X128866940Y-88519000D01*
X128866940Y-85471000D01*
X128817657Y-85223235D01*
X128677309Y-85013191D01*
X128467265Y-84872843D01*
X128219500Y-84823560D01*
X126568500Y-84823560D01*
X126320735Y-84872843D01*
X126110691Y-85013191D01*
X125970343Y-85223235D01*
X125921060Y-85471000D01*
X125921060Y-88519000D01*
X125970343Y-88766765D01*
X126110691Y-88976809D01*
X126320735Y-89117157D01*
X126336242Y-89120241D01*
X126295639Y-89324360D01*
X126295640Y-89324365D01*
X126295640Y-89495286D01*
X126182235Y-89517843D01*
X125972191Y-89658191D01*
X125831843Y-89868235D01*
X125782560Y-90116000D01*
X125782560Y-91916000D01*
X125831843Y-92163765D01*
X125903466Y-92270955D01*
X125710000Y-92464420D01*
X125710000Y-80930750D01*
X125997000Y-80930750D01*
X125997000Y-83819310D01*
X126093673Y-84052699D01*
X126272302Y-84231327D01*
X126505691Y-84328000D01*
X129394250Y-84328000D01*
X129553000Y-84169250D01*
X129553000Y-80772000D01*
X126155750Y-80772000D01*
X125997000Y-80930750D01*
X125710000Y-80930750D01*
X125710000Y-77470690D01*
X125997000Y-77470690D01*
X125997000Y-80359250D01*
X126155750Y-80518000D01*
X129553000Y-80518000D01*
X129553000Y-77120750D01*
X129394250Y-76962000D01*
X126505691Y-76962000D01*
X126272302Y-77058673D01*
X126093673Y-77237301D01*
X125997000Y-77470690D01*
X125710000Y-77470690D01*
X125710000Y-76780570D01*
X126229410Y-76780570D01*
X126388160Y-76621820D01*
X126388160Y-75273080D01*
X126642160Y-75273080D01*
X126642160Y-76621820D01*
X126800910Y-76780570D01*
X127891149Y-76780570D01*
X128124538Y-76683897D01*
X128303167Y-76505269D01*
X128399840Y-76271880D01*
X128399840Y-75431830D01*
X130129580Y-75431830D01*
X130129580Y-76271880D01*
X130226253Y-76505269D01*
X130404882Y-76683897D01*
X130638271Y-76780570D01*
X131728510Y-76780570D01*
X131887260Y-76621820D01*
X131887260Y-75273080D01*
X130288330Y-75273080D01*
X130129580Y-75431830D01*
X128399840Y-75431830D01*
X128241090Y-75273080D01*
X126642160Y-75273080D01*
X126388160Y-75273080D01*
X126368160Y-75273080D01*
X126368160Y-75019080D01*
X126388160Y-75019080D01*
X126388160Y-73670340D01*
X126642160Y-73670340D01*
X126642160Y-75019080D01*
X128241090Y-75019080D01*
X128399840Y-74860330D01*
X128399840Y-74020280D01*
X130129580Y-74020280D01*
X130129580Y-74860330D01*
X130288330Y-75019080D01*
X131887260Y-75019080D01*
X131887260Y-73670340D01*
X132141260Y-73670340D01*
X132141260Y-75019080D01*
X132161260Y-75019080D01*
X132161260Y-75273080D01*
X132141260Y-75273080D01*
X132141260Y-76621820D01*
X132300010Y-76780570D01*
X133390249Y-76780570D01*
X133623638Y-76683897D01*
X133802267Y-76505269D01*
X133898940Y-76271880D01*
X133898940Y-75705528D01*
X134037690Y-75763000D01*
X134728250Y-75763000D01*
X134887000Y-75604250D01*
X134887000Y-74605000D01*
X134867000Y-74605000D01*
X134867000Y-74351000D01*
X134887000Y-74351000D01*
X134887000Y-73351750D01*
X134728250Y-73193000D01*
X134037690Y-73193000D01*
X133804301Y-73289673D01*
X133625673Y-73468302D01*
X133575891Y-73588486D01*
X133390249Y-73511590D01*
X132300010Y-73511590D01*
X132141260Y-73670340D01*
X131887260Y-73670340D01*
X131728510Y-73511590D01*
X130638271Y-73511590D01*
X130404882Y-73608263D01*
X130226253Y-73786891D01*
X130129580Y-74020280D01*
X128399840Y-74020280D01*
X128303167Y-73786891D01*
X128124538Y-73608263D01*
X127891149Y-73511590D01*
X126800910Y-73511590D01*
X126642160Y-73670340D01*
X126388160Y-73670340D01*
X126229410Y-73511590D01*
X125710000Y-73511590D01*
X125710000Y-67880410D01*
X126229410Y-67880410D01*
X126388160Y-67721660D01*
X126388160Y-66372920D01*
X126642160Y-66372920D01*
X126642160Y-67721660D01*
X126800910Y-67880410D01*
X127891149Y-67880410D01*
X128124538Y-67783737D01*
X128303167Y-67605109D01*
X128399840Y-67371720D01*
X128399840Y-66531670D01*
X130129580Y-66531670D01*
X130129580Y-67371720D01*
X130226253Y-67605109D01*
X130404882Y-67783737D01*
X130638271Y-67880410D01*
X131728510Y-67880410D01*
X131887260Y-67721660D01*
X131887260Y-66372920D01*
X130288330Y-66372920D01*
X130129580Y-66531670D01*
X128399840Y-66531670D01*
X128241090Y-66372920D01*
X126642160Y-66372920D01*
X126388160Y-66372920D01*
X126368160Y-66372920D01*
X126368160Y-66118920D01*
X126388160Y-66118920D01*
X126388160Y-66098920D01*
X126642160Y-66098920D01*
X126642160Y-66118920D01*
X128241090Y-66118920D01*
X128399840Y-65960170D01*
X128399840Y-65710000D01*
X130129580Y-65710000D01*
X130129580Y-65960170D01*
G36*
X174290000Y-71597000D02*
X173073750Y-71597000D01*
X172915000Y-71755750D01*
X172915000Y-72855000D01*
X172935000Y-72855000D01*
X172935000Y-73109000D01*
X172915000Y-73109000D01*
X172915000Y-74208250D01*
X172958750Y-74252000D01*
X172915000Y-74295750D01*
X172915000Y-75395000D01*
X172935000Y-75395000D01*
X172935000Y-75649000D01*
X172915000Y-75649000D01*
X172915000Y-76748250D01*
X172958750Y-76792000D01*
X172915000Y-76835750D01*
X172915000Y-77935000D01*
X172935000Y-77935000D01*
X172935000Y-78189000D01*
X172915000Y-78189000D01*
X172915000Y-79288250D01*
X172958750Y-79332000D01*
X172915000Y-79375750D01*
X172915000Y-80475000D01*
X172935000Y-80475000D01*
X172935000Y-80729000D01*
X172915000Y-80729000D01*
X172915000Y-81828250D01*
X172958750Y-81872000D01*
X172915000Y-81915750D01*
X172915000Y-83015000D01*
X172935000Y-83015000D01*
X172935000Y-83269000D01*
X172915000Y-83269000D01*
X172915000Y-84368250D01*
X172958750Y-84412000D01*
X172915000Y-84455750D01*
X172915000Y-85555000D01*
X172935000Y-85555000D01*
X172935000Y-85809000D01*
X172915000Y-85809000D01*
X172915000Y-86908250D01*
X172958750Y-86952000D01*
X172915000Y-86995750D01*
X172915000Y-88095000D01*
X172935000Y-88095000D01*
X172935000Y-88349000D01*
X172915000Y-88349000D01*
X172915000Y-89448250D01*
X172958750Y-89492000D01*
X172915000Y-89535750D01*
X172915000Y-90635000D01*
X172935000Y-90635000D01*
X172935000Y-90889000D01*
X172915000Y-90889000D01*
X172915000Y-91988250D01*
X173073750Y-92147000D01*
X174290000Y-92147000D01*
X174290000Y-93729319D01*
X174123765Y-93618243D01*
X173876000Y-93568960D01*
X171844000Y-93568960D01*
X171596235Y-93618243D01*
X171386191Y-93758591D01*
X171245843Y-93968635D01*
X171196560Y-94216400D01*
X171196560Y-95480882D01*
X171005800Y-95671642D01*
X171005800Y-94875329D01*
X170934262Y-94515683D01*
X170730539Y-94210790D01*
X170425646Y-94007067D01*
X170245115Y-93971157D01*
X169966269Y-93692311D01*
X169711597Y-93522145D01*
X169411190Y-93462390D01*
X168057000Y-93462390D01*
X168057000Y-91047750D01*
X170653000Y-91047750D01*
X170653000Y-91638310D01*
X170749673Y-91871699D01*
X170928302Y-92050327D01*
X171161691Y-92147000D01*
X172502250Y-92147000D01*
X172661000Y-91988250D01*
X172661000Y-90889000D01*
X170811750Y-90889000D01*
X170653000Y-91047750D01*
X168057000Y-91047750D01*
X168057000Y-88507750D01*
X170653000Y-88507750D01*
X170653000Y-89098310D01*
X170749673Y-89331699D01*
X170909975Y-89492000D01*
X170749673Y-89652301D01*
X170653000Y-89885690D01*
X170653000Y-90476250D01*
X170811750Y-90635000D01*
X172661000Y-90635000D01*
X172661000Y-89535750D01*
X172617250Y-89492000D01*
X172661000Y-89448250D01*
X172661000Y-88349000D01*
X170811750Y-88349000D01*
X170653000Y-88507750D01*
X168057000Y-88507750D01*
X168057000Y-85967750D01*
X170653000Y-85967750D01*
X170653000Y-86558310D01*
X170749673Y-86791699D01*
X170909975Y-86952000D01*
X170749673Y-87112301D01*
X170653000Y-87345690D01*
X170653000Y-87936250D01*
X170811750Y-88095000D01*
X172661000Y-88095000D01*
X172661000Y-86995750D01*
X172617250Y-86952000D01*
X172661000Y-86908250D01*
X172661000Y-85809000D01*
X170811750Y-85809000D01*
X170653000Y-85967750D01*
X168057000Y-85967750D01*
X168057000Y-83427750D01*
X170653000Y-83427750D01*
X170653000Y-84018310D01*
X170749673Y-84251699D01*
X170909975Y-84412000D01*
X170749673Y-84572301D01*
X170653000Y-84805690D01*
X170653000Y-85396250D01*
X170811750Y-85555000D01*
X172661000Y-85555000D01*
X172661000Y-84455750D01*
X172617250Y-84412000D01*
X172661000Y-84368250D01*
X172661000Y-83269000D01*
X170811750Y-83269000D01*
X170653000Y-83427750D01*
X168057000Y-83427750D01*
X168057000Y-80887750D01*
X170653000Y-80887750D01*
X170653000Y-81478310D01*
X170749673Y-81711699D01*
X170909975Y-81872000D01*
X170749673Y-82032301D01*
X170653000Y-82265690D01*
X170653000Y-82856250D01*
X170811750Y-83015000D01*
X172661000Y-83015000D01*
X172661000Y-81915750D01*
X172617250Y-81872000D01*
X172661000Y-81828250D01*
X172661000Y-80729000D01*
X170811750Y-80729000D01*
X170653000Y-80887750D01*
X168057000Y-80887750D01*
X168057000Y-79151963D01*
X168589079Y-78619884D01*
X168759245Y-78365211D01*
X168762718Y-78347750D01*
X170653000Y-78347750D01*
X170653000Y-78938310D01*
X170749673Y-79171699D01*
X170909975Y-79332000D01*
X170749673Y-79492301D01*
X170653000Y-79725690D01*
X170653000Y-80316250D01*
X170811750Y-80475000D01*
X172661000Y-80475000D01*
X172661000Y-79375750D01*
X172617250Y-79332000D01*
X172661000Y-79288250D01*
X172661000Y-78189000D01*
X170811750Y-78189000D01*
X170653000Y-78347750D01*
X168762718Y-78347750D01*
X168819000Y-78064805D01*
X168819000Y-77205998D01*
X168759245Y-76905592D01*
X168589079Y-76650919D01*
X168187080Y-76248920D01*
X167932408Y-76078754D01*
X167632001Y-76018999D01*
X167586323Y-76018999D01*
X167526000Y-76007000D01*
X167008158Y-76007000D01*
X167207408Y-75807750D01*
X170653000Y-75807750D01*
X170653000Y-76398310D01*
X170749673Y-76631699D01*
X170909975Y-76792000D01*
X170749673Y-76952301D01*
X170653000Y-77185690D01*
X170653000Y-77776250D01*
X170811750Y-77935000D01*
X172661000Y-77935000D01*
X172661000Y-76835750D01*
X172617250Y-76792000D01*
X172661000Y-76748250D01*
X172661000Y-75649000D01*
X170811750Y-75649000D01*
X170653000Y-75807750D01*
X167207408Y-75807750D01*
X167319079Y-75696079D01*
X167489245Y-75441407D01*
X167519960Y-75286995D01*
X167730971Y-75287179D01*
X168111515Y-75129942D01*
X168402919Y-74839046D01*
X168560820Y-74458777D01*
X168561179Y-74047029D01*
X168403942Y-73666485D01*
X168311000Y-73573381D01*
X168311000Y-73267750D01*
X170653000Y-73267750D01*
X170653000Y-73858310D01*
X170749673Y-74091699D01*
X170909975Y-74252000D01*
X170749673Y-74412301D01*
X170653000Y-74645690D01*
X170653000Y-75236250D01*
X170811750Y-75395000D01*
X172661000Y-75395000D01*
X172661000Y-74295750D01*
X172617250Y-74252000D01*
X172661000Y-74208250D01*
X172661000Y-73109000D01*
X170811750Y-73109000D01*
X170653000Y-73267750D01*
X168311000Y-73267750D01*
X168311000Y-72291158D01*
X168496468Y-72105690D01*
X170653000Y-72105690D01*
X170653000Y-72696250D01*
X170811750Y-72855000D01*
X172661000Y-72855000D01*
X172661000Y-71755750D01*
X172502250Y-71597000D01*
X171161691Y-71597000D01*
X170928302Y-71693673D01*
X170749673Y-71872301D01*
X170653000Y-72105690D01*
X168496468Y-72105690D01*
X168740158Y-71862000D01*
X170019000Y-71862000D01*
X170319407Y-71802245D01*
X170574079Y-71632079D01*
X170955079Y-71251079D01*
X171066587Y-71084195D01*
X171247765Y-71048157D01*
X171457809Y-70907809D01*
X171500000Y-70844666D01*
X171542191Y-70907809D01*
X171752235Y-71048157D01*
X172000000Y-71097440D01*
X173200000Y-71097440D01*
X173447765Y-71048157D01*
X173657809Y-70907809D01*
X173798157Y-70697765D01*
X173847440Y-70450000D01*
X173847440Y-69550000D01*
X173798157Y-69302235D01*
X173657809Y-69092191D01*
X173447765Y-68951843D01*
X173200000Y-68902560D01*
X172860318Y-68902560D01*
X172858758Y-68901000D01*
X172917002Y-68901000D01*
X172917002Y-68736218D01*
X173149026Y-68857358D01*
X173164791Y-68854709D01*
X173692036Y-68600732D01*
X174081954Y-68164320D01*
X174275184Y-67611913D01*
X174130924Y-67377000D01*
X172917000Y-67377000D01*
X172917000Y-67397000D01*
X172663000Y-67397000D01*
X172663000Y-67377000D01*
X172643000Y-67377000D01*
X172643000Y-67123000D01*
X172663000Y-67123000D01*
X172663000Y-67103000D01*
X172917000Y-67103000D01*
X172917000Y-67123000D01*
X174130924Y-67123000D01*
X174275184Y-66888087D01*
X174081954Y-66335680D01*
X173692036Y-65899268D01*
X173299124Y-65710000D01*
X174290000Y-65710000D01*
X174290000Y-71597000D01*
X174290000Y-71597000D01*
G37*
X174290000Y-71597000D02*
X173073750Y-71597000D01*
X172915000Y-71755750D01*
X172915000Y-72855000D01*
X172935000Y-72855000D01*
X172935000Y-73109000D01*
X172915000Y-73109000D01*
X172915000Y-74208250D01*
X172958750Y-74252000D01*
X172915000Y-74295750D01*
X172915000Y-75395000D01*
X172935000Y-75395000D01*
X172935000Y-75649000D01*
X172915000Y-75649000D01*
X172915000Y-76748250D01*
X172958750Y-76792000D01*
X172915000Y-76835750D01*
X172915000Y-77935000D01*
X172935000Y-77935000D01*
X172935000Y-78189000D01*
X172915000Y-78189000D01*
X172915000Y-79288250D01*
X172958750Y-79332000D01*
X172915000Y-79375750D01*
X172915000Y-80475000D01*
X172935000Y-80475000D01*
X172935000Y-80729000D01*
X172915000Y-80729000D01*
X172915000Y-81828250D01*
X172958750Y-81872000D01*
X172915000Y-81915750D01*
X172915000Y-83015000D01*
X172935000Y-83015000D01*
X172935000Y-83269000D01*
X172915000Y-83269000D01*
X172915000Y-84368250D01*
X172958750Y-84412000D01*
X172915000Y-84455750D01*
X172915000Y-85555000D01*
X172935000Y-85555000D01*
X172935000Y-85809000D01*
X172915000Y-85809000D01*
X172915000Y-86908250D01*
X172958750Y-86952000D01*
X172915000Y-86995750D01*
X172915000Y-88095000D01*
X172935000Y-88095000D01*
X172935000Y-88349000D01*
X172915000Y-88349000D01*
X172915000Y-89448250D01*
X172958750Y-89492000D01*
X172915000Y-89535750D01*
X172915000Y-90635000D01*
X172935000Y-90635000D01*
X172935000Y-90889000D01*
X172915000Y-90889000D01*
X172915000Y-91988250D01*
X173073750Y-92147000D01*
X174290000Y-92147000D01*
X174290000Y-93729319D01*
X174123765Y-93618243D01*
X173876000Y-93568960D01*
X171844000Y-93568960D01*
X171596235Y-93618243D01*
X171386191Y-93758591D01*
X171245843Y-93968635D01*
X171196560Y-94216400D01*
X171196560Y-95480882D01*
X171005800Y-95671642D01*
X171005800Y-94875329D01*
X170934262Y-94515683D01*
X170730539Y-94210790D01*
X170425646Y-94007067D01*
X170245115Y-93971157D01*
X169966269Y-93692311D01*
X169711597Y-93522145D01*
X169411190Y-93462390D01*
X168057000Y-93462390D01*
X168057000Y-91047750D01*
X170653000Y-91047750D01*
X170653000Y-91638310D01*
X170749673Y-91871699D01*
X170928302Y-92050327D01*
X171161691Y-92147000D01*
X172502250Y-92147000D01*
X172661000Y-91988250D01*
X172661000Y-90889000D01*
X170811750Y-90889000D01*
X170653000Y-91047750D01*
X168057000Y-91047750D01*
X168057000Y-88507750D01*
X170653000Y-88507750D01*
X170653000Y-89098310D01*
X170749673Y-89331699D01*
X170909975Y-89492000D01*
X170749673Y-89652301D01*
X170653000Y-89885690D01*
X170653000Y-90476250D01*
X170811750Y-90635000D01*
X172661000Y-90635000D01*
X172661000Y-89535750D01*
X172617250Y-89492000D01*
X172661000Y-89448250D01*
X172661000Y-88349000D01*
X170811750Y-88349000D01*
X170653000Y-88507750D01*
X168057000Y-88507750D01*
X168057000Y-85967750D01*
X170653000Y-85967750D01*
X170653000Y-86558310D01*
X170749673Y-86791699D01*
X170909975Y-86952000D01*
X170749673Y-87112301D01*
X170653000Y-87345690D01*
X170653000Y-87936250D01*
X170811750Y-88095000D01*
X172661000Y-88095000D01*
X172661000Y-86995750D01*
X172617250Y-86952000D01*
X172661000Y-86908250D01*
X172661000Y-85809000D01*
X170811750Y-85809000D01*
X170653000Y-85967750D01*
X168057000Y-85967750D01*
X168057000Y-83427750D01*
X170653000Y-83427750D01*
X170653000Y-84018310D01*
X170749673Y-84251699D01*
X170909975Y-84412000D01*
X170749673Y-84572301D01*
X170653000Y-84805690D01*
X170653000Y-85396250D01*
X170811750Y-85555000D01*
X172661000Y-85555000D01*
X172661000Y-84455750D01*
X172617250Y-84412000D01*
X172661000Y-84368250D01*
X172661000Y-83269000D01*
X170811750Y-83269000D01*
X170653000Y-83427750D01*
X168057000Y-83427750D01*
X168057000Y-80887750D01*
X170653000Y-80887750D01*
X170653000Y-81478310D01*
X170749673Y-81711699D01*
X170909975Y-81872000D01*
X170749673Y-82032301D01*
X170653000Y-82265690D01*
X170653000Y-82856250D01*
X170811750Y-83015000D01*
X172661000Y-83015000D01*
X172661000Y-81915750D01*
X172617250Y-81872000D01*
X172661000Y-81828250D01*
X172661000Y-80729000D01*
X170811750Y-80729000D01*
X170653000Y-80887750D01*
X168057000Y-80887750D01*
X168057000Y-79151963D01*
X168589079Y-78619884D01*
X168759245Y-78365211D01*
X168762718Y-78347750D01*
X170653000Y-78347750D01*
X170653000Y-78938310D01*
X170749673Y-79171699D01*
X170909975Y-79332000D01*
X170749673Y-79492301D01*
X170653000Y-79725690D01*
X170653000Y-80316250D01*
X170811750Y-80475000D01*
X172661000Y-80475000D01*
X172661000Y-79375750D01*
X172617250Y-79332000D01*
X172661000Y-79288250D01*
X172661000Y-78189000D01*
X170811750Y-78189000D01*
X170653000Y-78347750D01*
X168762718Y-78347750D01*
X168819000Y-78064805D01*
X168819000Y-77205998D01*
X168759245Y-76905592D01*
X168589079Y-76650919D01*
X168187080Y-76248920D01*
X167932408Y-76078754D01*
X167632001Y-76018999D01*
X167586323Y-76018999D01*
X167526000Y-76007000D01*
X167008158Y-76007000D01*
X167207408Y-75807750D01*
X170653000Y-75807750D01*
X170653000Y-76398310D01*
X170749673Y-76631699D01*
X170909975Y-76792000D01*
X170749673Y-76952301D01*
X170653000Y-77185690D01*
X170653000Y-77776250D01*
X170811750Y-77935000D01*
X172661000Y-77935000D01*
X172661000Y-76835750D01*
X172617250Y-76792000D01*
X172661000Y-76748250D01*
X172661000Y-75649000D01*
X170811750Y-75649000D01*
X170653000Y-75807750D01*
X167207408Y-75807750D01*
X167319079Y-75696079D01*
X167489245Y-75441407D01*
X167519960Y-75286995D01*
X167730971Y-75287179D01*
X168111515Y-75129942D01*
X168402919Y-74839046D01*
X168560820Y-74458777D01*
X168561179Y-74047029D01*
X168403942Y-73666485D01*
X168311000Y-73573381D01*
X168311000Y-73267750D01*
X170653000Y-73267750D01*
X170653000Y-73858310D01*
X170749673Y-74091699D01*
X170909975Y-74252000D01*
X170749673Y-74412301D01*
X170653000Y-74645690D01*
X170653000Y-75236250D01*
X170811750Y-75395000D01*
X172661000Y-75395000D01*
X172661000Y-74295750D01*
X172617250Y-74252000D01*
X172661000Y-74208250D01*
X172661000Y-73109000D01*
X170811750Y-73109000D01*
X170653000Y-73267750D01*
X168311000Y-73267750D01*
X168311000Y-72291158D01*
X168496468Y-72105690D01*
X170653000Y-72105690D01*
X170653000Y-72696250D01*
X170811750Y-72855000D01*
X172661000Y-72855000D01*
X172661000Y-71755750D01*
X172502250Y-71597000D01*
X171161691Y-71597000D01*
X170928302Y-71693673D01*
X170749673Y-71872301D01*
X170653000Y-72105690D01*
X168496468Y-72105690D01*
X168740158Y-71862000D01*
X170019000Y-71862000D01*
X170319407Y-71802245D01*
X170574079Y-71632079D01*
X170955079Y-71251079D01*
X171066587Y-71084195D01*
X171247765Y-71048157D01*
X171457809Y-70907809D01*
X171500000Y-70844666D01*
X171542191Y-70907809D01*
X171752235Y-71048157D01*
X172000000Y-71097440D01*
X173200000Y-71097440D01*
X173447765Y-71048157D01*
X173657809Y-70907809D01*
X173798157Y-70697765D01*
X173847440Y-70450000D01*
X173847440Y-69550000D01*
X173798157Y-69302235D01*
X173657809Y-69092191D01*
X173447765Y-68951843D01*
X173200000Y-68902560D01*
X172860318Y-68902560D01*
X172858758Y-68901000D01*
X172917002Y-68901000D01*
X172917002Y-68736218D01*
X173149026Y-68857358D01*
X173164791Y-68854709D01*
X173692036Y-68600732D01*
X174081954Y-68164320D01*
X174275184Y-67611913D01*
X174130924Y-67377000D01*
X172917000Y-67377000D01*
X172917000Y-67397000D01*
X172663000Y-67397000D01*
X172663000Y-67377000D01*
X172643000Y-67377000D01*
X172643000Y-67123000D01*
X172663000Y-67123000D01*
X172663000Y-67103000D01*
X172917000Y-67103000D01*
X172917000Y-67123000D01*
X174130924Y-67123000D01*
X174275184Y-66888087D01*
X174081954Y-66335680D01*
X173692036Y-65899268D01*
X173299124Y-65710000D01*
X174290000Y-65710000D01*
X174290000Y-71597000D01*
G36*
X136239817Y-80618892D02*
X136239184Y-81343927D01*
X136516059Y-82014015D01*
X137028289Y-82527139D01*
X137697892Y-82805183D01*
X138422927Y-82805816D01*
X139093015Y-82528941D01*
X139606139Y-82016711D01*
X139764112Y-81636270D01*
X141816931Y-83689089D01*
X142071603Y-83859255D01*
X142372010Y-83919010D01*
X142418435Y-83919010D01*
X142289755Y-84111593D01*
X142244085Y-84341191D01*
X142230000Y-84412000D01*
X142230000Y-84442358D01*
X142167235Y-84454843D01*
X141957191Y-84595191D01*
X141816843Y-84805235D01*
X141767560Y-85053000D01*
X141767560Y-85803000D01*
X141816843Y-86050765D01*
X141957191Y-86260809D01*
X142167235Y-86401157D01*
X142415000Y-86450440D01*
X143615000Y-86450440D01*
X143862765Y-86401157D01*
X143954102Y-86340127D01*
X143955302Y-86341327D01*
X144188691Y-86438000D01*
X144629250Y-86438000D01*
X144788000Y-86279250D01*
X144788000Y-85555000D01*
X145042000Y-85555000D01*
X145042000Y-86279250D01*
X145200750Y-86438000D01*
X145641309Y-86438000D01*
X145874698Y-86341327D01*
X146053327Y-86162699D01*
X146150000Y-85929310D01*
X146150000Y-85713750D01*
X145991250Y-85555000D01*
X145042000Y-85555000D01*
X144788000Y-85555000D01*
X144768000Y-85555000D01*
X144768000Y-85301000D01*
X144788000Y-85301000D01*
X144788000Y-85281000D01*
X145042000Y-85281000D01*
X145042000Y-85301000D01*
X145991250Y-85301000D01*
X146150000Y-85142250D01*
X146150000Y-84926690D01*
X146114310Y-84840526D01*
X146291691Y-84914000D01*
X146732250Y-84914000D01*
X146891000Y-84755250D01*
X146891000Y-84031000D01*
X146871000Y-84031000D01*
X146871000Y-83919010D01*
X147165000Y-83919010D01*
X147165000Y-84031000D01*
X147145000Y-84031000D01*
X147145000Y-84755250D01*
X147303750Y-84914000D01*
X147744309Y-84914000D01*
X147977698Y-84817327D01*
X147978898Y-84816127D01*
X148070235Y-84877157D01*
X148318000Y-84926440D01*
X149518000Y-84926440D01*
X149765765Y-84877157D01*
X149975809Y-84736809D01*
X150007754Y-84689000D01*
X152842000Y-84689000D01*
X153027775Y-84652047D01*
X153025000Y-84666000D01*
X153025000Y-85682000D01*
X153084755Y-85982407D01*
X153254921Y-86237079D01*
X153635921Y-86618079D01*
X153890593Y-86788245D01*
X154191000Y-86848000D01*
X158691842Y-86848000D01*
X158746043Y-86902201D01*
X158625750Y-87022285D01*
X158505068Y-87312919D01*
X158457809Y-87242191D01*
X158247765Y-87101843D01*
X158000000Y-87052560D01*
X155000000Y-87052560D01*
X154752235Y-87101843D01*
X154542191Y-87242191D01*
X154401843Y-87452235D01*
X154352560Y-87700000D01*
X154352560Y-88700000D01*
X154401843Y-88947765D01*
X154503564Y-89100000D01*
X154401843Y-89252235D01*
X154352560Y-89500000D01*
X154352560Y-90500000D01*
X154401843Y-90747765D01*
X154503564Y-90900000D01*
X154401843Y-91052235D01*
X154352560Y-91300000D01*
X154352560Y-91695861D01*
X152107420Y-93941000D01*
X143030610Y-93941000D01*
X144024170Y-92947440D01*
X145000000Y-92947440D01*
X145247765Y-92898157D01*
X145457809Y-92757809D01*
X145598157Y-92547765D01*
X145647440Y-92300000D01*
X145647440Y-91300000D01*
X145598157Y-91052235D01*
X145496436Y-90900000D01*
X145598157Y-90747765D01*
X145647440Y-90500000D01*
X145647440Y-89500000D01*
X145598157Y-89252235D01*
X145496436Y-89100000D01*
X145598157Y-88947765D01*
X145647440Y-88700000D01*
X145647440Y-87700000D01*
X145598157Y-87452235D01*
X145457809Y-87242191D01*
X145247765Y-87101843D01*
X145000000Y-87052560D01*
X142000000Y-87052560D01*
X141752235Y-87101843D01*
X141542191Y-87242191D01*
X141401843Y-87452235D01*
X141400323Y-87459878D01*
X141229212Y-87574210D01*
X141229210Y-87574213D01*
X139341210Y-89462212D01*
X139149367Y-89749327D01*
X139149367Y-89749328D01*
X139081999Y-90088002D01*
X139082000Y-90088007D01*
X139082000Y-90886720D01*
X138529201Y-90333921D01*
X138274529Y-90163755D01*
X137974122Y-90104000D01*
X137117158Y-90104000D01*
X134783000Y-87769842D01*
X134783000Y-86442619D01*
X136264613Y-86442619D01*
X136604155Y-87264372D01*
X137232321Y-87893636D01*
X138053481Y-88234611D01*
X138942619Y-88235387D01*
X139764372Y-87895845D01*
X140393636Y-87267679D01*
X140734611Y-86446519D01*
X140735387Y-85557381D01*
X140395845Y-84735628D01*
X139767679Y-84106364D01*
X138946519Y-83765389D01*
X138057381Y-83764613D01*
X137235628Y-84104155D01*
X136606364Y-84732321D01*
X136265389Y-85553481D01*
X136264613Y-86442619D01*
X134783000Y-86442619D01*
X134783000Y-86134158D01*
X135188079Y-85729079D01*
X135358245Y-85474406D01*
X135418001Y-85174000D01*
X135418000Y-85173995D01*
X135418000Y-80165158D01*
X135466157Y-80117000D01*
X136448221Y-80117000D01*
X136239817Y-80618892D01*
X136239817Y-80618892D01*
G37*
X136239817Y-80618892D02*
X136239184Y-81343927D01*
X136516059Y-82014015D01*
X137028289Y-82527139D01*
X137697892Y-82805183D01*
X138422927Y-82805816D01*
X139093015Y-82528941D01*
X139606139Y-82016711D01*
X139764112Y-81636270D01*
X141816931Y-83689089D01*
X142071603Y-83859255D01*
X142372010Y-83919010D01*
X142418435Y-83919010D01*
X142289755Y-84111593D01*
X142244085Y-84341191D01*
X142230000Y-84412000D01*
X142230000Y-84442358D01*
X142167235Y-84454843D01*
X141957191Y-84595191D01*
X141816843Y-84805235D01*
X141767560Y-85053000D01*
X141767560Y-85803000D01*
X141816843Y-86050765D01*
X141957191Y-86260809D01*
X142167235Y-86401157D01*
X142415000Y-86450440D01*
X143615000Y-86450440D01*
X143862765Y-86401157D01*
X143954102Y-86340127D01*
X143955302Y-86341327D01*
X144188691Y-86438000D01*
X144629250Y-86438000D01*
X144788000Y-86279250D01*
X144788000Y-85555000D01*
X145042000Y-85555000D01*
X145042000Y-86279250D01*
X145200750Y-86438000D01*
X145641309Y-86438000D01*
X145874698Y-86341327D01*
X146053327Y-86162699D01*
X146150000Y-85929310D01*
X146150000Y-85713750D01*
X145991250Y-85555000D01*
X145042000Y-85555000D01*
X144788000Y-85555000D01*
X144768000Y-85555000D01*
X144768000Y-85301000D01*
X144788000Y-85301000D01*
X144788000Y-85281000D01*
X145042000Y-85281000D01*
X145042000Y-85301000D01*
X145991250Y-85301000D01*
X146150000Y-85142250D01*
X146150000Y-84926690D01*
X146114310Y-84840526D01*
X146291691Y-84914000D01*
X146732250Y-84914000D01*
X146891000Y-84755250D01*
X146891000Y-84031000D01*
X146871000Y-84031000D01*
X146871000Y-83919010D01*
X147165000Y-83919010D01*
X147165000Y-84031000D01*
X147145000Y-84031000D01*
X147145000Y-84755250D01*
X147303750Y-84914000D01*
X147744309Y-84914000D01*
X147977698Y-84817327D01*
X147978898Y-84816127D01*
X148070235Y-84877157D01*
X148318000Y-84926440D01*
X149518000Y-84926440D01*
X149765765Y-84877157D01*
X149975809Y-84736809D01*
X150007754Y-84689000D01*
X152842000Y-84689000D01*
X153027775Y-84652047D01*
X153025000Y-84666000D01*
X153025000Y-85682000D01*
X153084755Y-85982407D01*
X153254921Y-86237079D01*
X153635921Y-86618079D01*
X153890593Y-86788245D01*
X154191000Y-86848000D01*
X158691842Y-86848000D01*
X158746043Y-86902201D01*
X158625750Y-87022285D01*
X158505068Y-87312919D01*
X158457809Y-87242191D01*
X158247765Y-87101843D01*
X158000000Y-87052560D01*
X155000000Y-87052560D01*
X154752235Y-87101843D01*
X154542191Y-87242191D01*
X154401843Y-87452235D01*
X154352560Y-87700000D01*
X154352560Y-88700000D01*
X154401843Y-88947765D01*
X154503564Y-89100000D01*
X154401843Y-89252235D01*
X154352560Y-89500000D01*
X154352560Y-90500000D01*
X154401843Y-90747765D01*
X154503564Y-90900000D01*
X154401843Y-91052235D01*
X154352560Y-91300000D01*
X154352560Y-91695861D01*
X152107420Y-93941000D01*
X143030610Y-93941000D01*
X144024170Y-92947440D01*
X145000000Y-92947440D01*
X145247765Y-92898157D01*
X145457809Y-92757809D01*
X145598157Y-92547765D01*
X145647440Y-92300000D01*
X145647440Y-91300000D01*
X145598157Y-91052235D01*
X145496436Y-90900000D01*
X145598157Y-90747765D01*
X145647440Y-90500000D01*
X145647440Y-89500000D01*
X145598157Y-89252235D01*
X145496436Y-89100000D01*
X145598157Y-88947765D01*
X145647440Y-88700000D01*
X145647440Y-87700000D01*
X145598157Y-87452235D01*
X145457809Y-87242191D01*
X145247765Y-87101843D01*
X145000000Y-87052560D01*
X142000000Y-87052560D01*
X141752235Y-87101843D01*
X141542191Y-87242191D01*
X141401843Y-87452235D01*
X141400323Y-87459878D01*
X141229212Y-87574210D01*
X141229210Y-87574213D01*
X139341210Y-89462212D01*
X139149367Y-89749327D01*
X139149367Y-89749328D01*
X139081999Y-90088002D01*
X139082000Y-90088007D01*
X139082000Y-90886720D01*
X138529201Y-90333921D01*
X138274529Y-90163755D01*
X137974122Y-90104000D01*
X137117158Y-90104000D01*
X134783000Y-87769842D01*
X134783000Y-86442619D01*
X136264613Y-86442619D01*
X136604155Y-87264372D01*
X137232321Y-87893636D01*
X138053481Y-88234611D01*
X138942619Y-88235387D01*
X139764372Y-87895845D01*
X140393636Y-87267679D01*
X140734611Y-86446519D01*
X140735387Y-85557381D01*
X140395845Y-84735628D01*
X139767679Y-84106364D01*
X138946519Y-83765389D01*
X138057381Y-83764613D01*
X137235628Y-84104155D01*
X136606364Y-84732321D01*
X136265389Y-85553481D01*
X136264613Y-86442619D01*
X134783000Y-86442619D01*
X134783000Y-86134158D01*
X135188079Y-85729079D01*
X135358245Y-85474406D01*
X135418001Y-85174000D01*
X135418000Y-85173995D01*
X135418000Y-80165158D01*
X135466157Y-80117000D01*
X136448221Y-80117000D01*
X136239817Y-80618892D01*
G36*
X156919000Y-85047000D02*
X156939000Y-85047000D01*
X156939000Y-85278000D01*
X156645000Y-85278000D01*
X156645000Y-85047000D01*
X156665000Y-85047000D01*
X156665000Y-85027000D01*
X156919000Y-85027000D01*
X156919000Y-85047000D01*
X156919000Y-85047000D01*
G37*
X156919000Y-85047000D02*
X156939000Y-85047000D01*
X156939000Y-85278000D01*
X156645000Y-85278000D01*
X156645000Y-85047000D01*
X156665000Y-85047000D01*
X156665000Y-85027000D01*
X156919000Y-85027000D01*
X156919000Y-85047000D01*
G36*
X156025573Y-83271483D02*
X156062755Y-83458407D01*
X156232921Y-83713079D01*
X156683842Y-84164000D01*
X156664998Y-84164000D01*
X156664998Y-84322748D01*
X156506250Y-84164000D01*
X156065691Y-84164000D01*
X155973000Y-84202394D01*
X155973000Y-83237700D01*
X155988000Y-83215251D01*
X156025573Y-83271483D01*
X156025573Y-83271483D01*
G37*
X156025573Y-83271483D02*
X156062755Y-83458407D01*
X156232921Y-83713079D01*
X156683842Y-84164000D01*
X156664998Y-84164000D01*
X156664998Y-84322748D01*
X156506250Y-84164000D01*
X156065691Y-84164000D01*
X155973000Y-84202394D01*
X155973000Y-83237700D01*
X155988000Y-83215251D01*
X156025573Y-83271483D01*
G36*
X157346934Y-80550092D02*
X157346882Y-80610560D01*
X157313000Y-80610560D01*
X157188000Y-80635424D01*
X157063000Y-80610560D01*
X156513000Y-80610560D01*
X156409148Y-80631217D01*
X156389310Y-80623000D01*
X156273750Y-80623000D01*
X156179862Y-80716888D01*
X156055191Y-80800191D01*
X155988000Y-80900749D01*
X155920809Y-80800191D01*
X155796138Y-80716888D01*
X155702250Y-80623000D01*
X155586690Y-80623000D01*
X155566852Y-80631217D01*
X155463000Y-80610560D01*
X154913000Y-80610560D01*
X154788000Y-80635424D01*
X154663000Y-80610560D01*
X154113000Y-80610560D01*
X153988000Y-80635424D01*
X153863000Y-80610560D01*
X153313000Y-80610560D01*
X153188000Y-80635424D01*
X153063000Y-80610560D01*
X152785440Y-80610560D01*
X152785440Y-80333000D01*
X152760576Y-80208000D01*
X152785440Y-80083000D01*
X152785440Y-79793000D01*
X156589842Y-79793000D01*
X157346934Y-80550092D01*
X157346934Y-80550092D01*
G37*
X157346934Y-80550092D02*
X157346882Y-80610560D01*
X157313000Y-80610560D01*
X157188000Y-80635424D01*
X157063000Y-80610560D01*
X156513000Y-80610560D01*
X156409148Y-80631217D01*
X156389310Y-80623000D01*
X156273750Y-80623000D01*
X156179862Y-80716888D01*
X156055191Y-80800191D01*
X155988000Y-80900749D01*
X155920809Y-80800191D01*
X155796138Y-80716888D01*
X155702250Y-80623000D01*
X155586690Y-80623000D01*
X155566852Y-80631217D01*
X155463000Y-80610560D01*
X154913000Y-80610560D01*
X154788000Y-80635424D01*
X154663000Y-80610560D01*
X154113000Y-80610560D01*
X153988000Y-80635424D01*
X153863000Y-80610560D01*
X153313000Y-80610560D01*
X153188000Y-80635424D01*
X153063000Y-80610560D01*
X152785440Y-80610560D01*
X152785440Y-80333000D01*
X152760576Y-80208000D01*
X152785440Y-80083000D01*
X152785440Y-79793000D01*
X156589842Y-79793000D01*
X157346934Y-80550092D01*
G36*
X139525748Y-77793858D02*
X139511605Y-77808000D01*
X139525748Y-77822143D01*
X139346143Y-78001748D01*
X139332000Y-77987605D01*
X139317858Y-78001748D01*
X139138253Y-77822143D01*
X139152395Y-77808000D01*
X139138253Y-77793858D01*
X139317858Y-77614253D01*
X139332000Y-77628395D01*
X139346143Y-77614253D01*
X139525748Y-77793858D01*
X139525748Y-77793858D01*
G37*
X139525748Y-77793858D02*
X139511605Y-77808000D01*
X139525748Y-77822143D01*
X139346143Y-78001748D01*
X139332000Y-77987605D01*
X139317858Y-78001748D01*
X139138253Y-77822143D01*
X139152395Y-77808000D01*
X139138253Y-77793858D01*
X139317858Y-77614253D01*
X139332000Y-77628395D01*
X139346143Y-77614253D01*
X139525748Y-77793858D01*
G36*
X140272480Y-75071809D02*
X140501887Y-75301617D01*
X140233081Y-75569954D01*
X140075180Y-75950223D01*
X140075065Y-76081777D01*
X140046921Y-76109921D01*
X139876755Y-76364593D01*
X139846077Y-76518821D01*
X139817000Y-76665000D01*
X139817000Y-76883280D01*
X139650515Y-76829843D01*
X139884183Y-76267108D01*
X139884816Y-75542073D01*
X139664968Y-75010000D01*
X140246941Y-75010000D01*
X140272480Y-75071809D01*
X140272480Y-75071809D01*
G37*
X140272480Y-75071809D02*
X140501887Y-75301617D01*
X140233081Y-75569954D01*
X140075180Y-75950223D01*
X140075065Y-76081777D01*
X140046921Y-76109921D01*
X139876755Y-76364593D01*
X139846077Y-76518821D01*
X139817000Y-76665000D01*
X139817000Y-76883280D01*
X139650515Y-76829843D01*
X139884183Y-76267108D01*
X139884816Y-75542073D01*
X139664968Y-75010000D01*
X140246941Y-75010000D01*
X140272480Y-75071809D01*
G36*
X166388591Y-65776191D02*
X166248243Y-65986235D01*
X166198960Y-66234000D01*
X166198960Y-68266000D01*
X166248243Y-68513765D01*
X166388591Y-68723809D01*
X166598635Y-68864157D01*
X166846400Y-68913440D01*
X166997472Y-68913440D01*
X167043593Y-68982465D01*
X166997765Y-68951843D01*
X166750000Y-68902560D01*
X165550000Y-68902560D01*
X165302235Y-68951843D01*
X165092191Y-69092191D01*
X165010132Y-69215000D01*
X164072047Y-69215000D01*
X164082809Y-69207809D01*
X164223157Y-68997765D01*
X164272440Y-68750000D01*
X164272440Y-66750000D01*
X164223157Y-66502235D01*
X164082809Y-66292191D01*
X163872765Y-66151843D01*
X163625000Y-66102560D01*
X155750000Y-66102560D01*
X155502235Y-66151843D01*
X155292191Y-66292191D01*
X155151843Y-66502235D01*
X155102560Y-66750000D01*
X155102560Y-68750000D01*
X155151843Y-68997765D01*
X155292191Y-69207809D01*
X155292227Y-69207833D01*
X155287594Y-69208755D01*
X155032921Y-69378921D01*
X154230282Y-70181560D01*
X154160000Y-70181560D01*
X153912235Y-70230843D01*
X153820898Y-70291873D01*
X153819698Y-70290673D01*
X153586309Y-70194000D01*
X153145750Y-70194000D01*
X152987000Y-70352750D01*
X152987000Y-71077000D01*
X153007000Y-71077000D01*
X153007000Y-71331000D01*
X152987000Y-71331000D01*
X152987000Y-71351000D01*
X152733000Y-71351000D01*
X152733000Y-71331000D01*
X151783750Y-71331000D01*
X151780000Y-71334750D01*
X151776250Y-71331000D01*
X150827000Y-71331000D01*
X150827000Y-72055250D01*
X150985750Y-72214000D01*
X151426309Y-72214000D01*
X151659698Y-72117327D01*
X151780000Y-71997026D01*
X151900302Y-72117327D01*
X152133691Y-72214000D01*
X152184184Y-72214000D01*
X152055191Y-72300191D01*
X151914843Y-72510235D01*
X151865560Y-72758000D01*
X151865560Y-72773000D01*
X150804158Y-72773000D01*
X150245158Y-72214000D01*
X150414250Y-72214000D01*
X150573000Y-72055250D01*
X150573000Y-71331000D01*
X150553000Y-71331000D01*
X150553000Y-71077000D01*
X150573000Y-71077000D01*
X150573000Y-70352750D01*
X150827000Y-70352750D01*
X150827000Y-71077000D01*
X151776250Y-71077000D01*
X151780000Y-71073250D01*
X151783750Y-71077000D01*
X152733000Y-71077000D01*
X152733000Y-70352750D01*
X152574250Y-70194000D01*
X152133691Y-70194000D01*
X151900302Y-70290673D01*
X151780000Y-70410974D01*
X151659698Y-70290673D01*
X151426309Y-70194000D01*
X150985750Y-70194000D01*
X150827000Y-70352750D01*
X150573000Y-70352750D01*
X150414250Y-70194000D01*
X149973691Y-70194000D01*
X149740302Y-70290673D01*
X149739102Y-70291873D01*
X149647765Y-70230843D01*
X149515000Y-70204435D01*
X149515000Y-70188000D01*
X149455245Y-69887594D01*
X149285079Y-69632921D01*
X149049598Y-69397440D01*
X151750000Y-69397440D01*
X151997765Y-69348157D01*
X152207809Y-69207809D01*
X152348157Y-68997765D01*
X152397440Y-68750000D01*
X152397440Y-66750000D01*
X152348157Y-66502235D01*
X152207809Y-66292191D01*
X151997765Y-66151843D01*
X151750000Y-66102560D01*
X144806378Y-66102560D01*
X144869819Y-65949777D01*
X144870028Y-65710000D01*
X166487652Y-65710000D01*
X166388591Y-65776191D01*
X166388591Y-65776191D01*
G37*
X166388591Y-65776191D02*
X166248243Y-65986235D01*
X166198960Y-66234000D01*
X166198960Y-68266000D01*
X166248243Y-68513765D01*
X166388591Y-68723809D01*
X166598635Y-68864157D01*
X166846400Y-68913440D01*
X166997472Y-68913440D01*
X167043593Y-68982465D01*
X166997765Y-68951843D01*
X166750000Y-68902560D01*
X165550000Y-68902560D01*
X165302235Y-68951843D01*
X165092191Y-69092191D01*
X165010132Y-69215000D01*
X164072047Y-69215000D01*
X164082809Y-69207809D01*
X164223157Y-68997765D01*
X164272440Y-68750000D01*
X164272440Y-66750000D01*
X164223157Y-66502235D01*
X164082809Y-66292191D01*
X163872765Y-66151843D01*
X163625000Y-66102560D01*
X155750000Y-66102560D01*
X155502235Y-66151843D01*
X155292191Y-66292191D01*
X155151843Y-66502235D01*
X155102560Y-66750000D01*
X155102560Y-68750000D01*
X155151843Y-68997765D01*
X155292191Y-69207809D01*
X155292227Y-69207833D01*
X155287594Y-69208755D01*
X155032921Y-69378921D01*
X154230282Y-70181560D01*
X154160000Y-70181560D01*
X153912235Y-70230843D01*
X153820898Y-70291873D01*
X153819698Y-70290673D01*
X153586309Y-70194000D01*
X153145750Y-70194000D01*
X152987000Y-70352750D01*
X152987000Y-71077000D01*
X153007000Y-71077000D01*
X153007000Y-71331000D01*
X152987000Y-71331000D01*
X152987000Y-71351000D01*
X152733000Y-71351000D01*
X152733000Y-71331000D01*
X151783750Y-71331000D01*
X151780000Y-71334750D01*
X151776250Y-71331000D01*
X150827000Y-71331000D01*
X150827000Y-72055250D01*
X150985750Y-72214000D01*
X151426309Y-72214000D01*
X151659698Y-72117327D01*
X151780000Y-71997026D01*
X151900302Y-72117327D01*
X152133691Y-72214000D01*
X152184184Y-72214000D01*
X152055191Y-72300191D01*
X151914843Y-72510235D01*
X151865560Y-72758000D01*
X151865560Y-72773000D01*
X150804158Y-72773000D01*
X150245158Y-72214000D01*
X150414250Y-72214000D01*
X150573000Y-72055250D01*
X150573000Y-71331000D01*
X150553000Y-71331000D01*
X150553000Y-71077000D01*
X150573000Y-71077000D01*
X150573000Y-70352750D01*
X150827000Y-70352750D01*
X150827000Y-71077000D01*
X151776250Y-71077000D01*
X151780000Y-71073250D01*
X151783750Y-71077000D01*
X152733000Y-71077000D01*
X152733000Y-70352750D01*
X152574250Y-70194000D01*
X152133691Y-70194000D01*
X151900302Y-70290673D01*
X151780000Y-70410974D01*
X151659698Y-70290673D01*
X151426309Y-70194000D01*
X150985750Y-70194000D01*
X150827000Y-70352750D01*
X150573000Y-70352750D01*
X150414250Y-70194000D01*
X149973691Y-70194000D01*
X149740302Y-70290673D01*
X149739102Y-70291873D01*
X149647765Y-70230843D01*
X149515000Y-70204435D01*
X149515000Y-70188000D01*
X149455245Y-69887594D01*
X149285079Y-69632921D01*
X149049598Y-69397440D01*
X151750000Y-69397440D01*
X151997765Y-69348157D01*
X152207809Y-69207809D01*
X152348157Y-68997765D01*
X152397440Y-68750000D01*
X152397440Y-66750000D01*
X152348157Y-66502235D01*
X152207809Y-66292191D01*
X151997765Y-66151843D01*
X151750000Y-66102560D01*
X144806378Y-66102560D01*
X144869819Y-65949777D01*
X144870028Y-65710000D01*
X166487652Y-65710000D01*
X166388591Y-65776191D01*
G36*
X158697000Y-71077000D02*
X158717000Y-71077000D01*
X158717000Y-71331000D01*
X158697000Y-71331000D01*
X158697000Y-71351000D01*
X158443000Y-71351000D01*
X158443000Y-71331000D01*
X158423000Y-71331000D01*
X158423000Y-71077000D01*
X158443000Y-71077000D01*
X158443000Y-71057000D01*
X158697000Y-71057000D01*
X158697000Y-71077000D01*
X158697000Y-71077000D01*
G37*
X158697000Y-71077000D02*
X158717000Y-71077000D01*
X158717000Y-71331000D01*
X158697000Y-71331000D01*
X158697000Y-71351000D01*
X158443000Y-71351000D01*
X158443000Y-71331000D01*
X158423000Y-71331000D01*
X158423000Y-71077000D01*
X158443000Y-71077000D01*
X158443000Y-71057000D01*
X158697000Y-71057000D01*
X158697000Y-71077000D01*
G36*
X137935000Y-66759000D02*
X137955000Y-66759000D01*
X137955000Y-67013000D01*
X137935000Y-67013000D01*
X137935000Y-67033000D01*
X137681000Y-67033000D01*
X137681000Y-67013000D01*
X137661000Y-67013000D01*
X137661000Y-66759000D01*
X137681000Y-66759000D01*
X137681000Y-66739000D01*
X137935000Y-66739000D01*
X137935000Y-66759000D01*
X137935000Y-66759000D01*
G37*
X137935000Y-66759000D02*
X137955000Y-66759000D01*
X137955000Y-67013000D01*
X137935000Y-67013000D01*
X137935000Y-67033000D01*
X137681000Y-67033000D01*
X137681000Y-67013000D01*
X137661000Y-67013000D01*
X137661000Y-66759000D01*
X137681000Y-66759000D01*
X137681000Y-66739000D01*
X137935000Y-66739000D01*
X137935000Y-66759000D01*
G36*
X135415750Y-108129000D02*
X136665000Y-108129000D01*
X136665000Y-108127000D01*
X136919000Y-108127000D01*
X136919000Y-108129000D01*
X138168250Y-108129000D01*
X138170250Y-108127000D01*
X138545420Y-108127000D01*
X138850560Y-108432140D01*
X138850560Y-109828000D01*
X138873000Y-109940815D01*
X138873000Y-111000000D01*
X138882667Y-111048601D01*
X138910197Y-111089803D01*
X138951399Y-111117333D01*
X139000000Y-111127000D01*
X141782860Y-111127000D01*
X141764560Y-111219000D01*
X141764560Y-111536462D01*
X141736327Y-111468302D01*
X141557699Y-111289673D01*
X141324310Y-111193000D01*
X140633750Y-111193000D01*
X140475000Y-111351750D01*
X140475000Y-112701000D01*
X141674250Y-112701000D01*
X141788068Y-112587182D01*
X141813843Y-112716765D01*
X141954191Y-112926809D01*
X142164235Y-113067157D01*
X142412000Y-113116440D01*
X143912000Y-113116440D01*
X144159765Y-113067157D01*
X144369809Y-112926809D01*
X144410654Y-112865680D01*
X144552302Y-113007327D01*
X144785691Y-113104000D01*
X145376250Y-113104000D01*
X145535000Y-112945250D01*
X145535000Y-111971000D01*
X145789000Y-111971000D01*
X145789000Y-112945250D01*
X145947750Y-113104000D01*
X146538309Y-113104000D01*
X146771698Y-113007327D01*
X146950327Y-112828699D01*
X147047000Y-112595310D01*
X147047000Y-112129750D01*
X146888250Y-111971000D01*
X145789000Y-111971000D01*
X145535000Y-111971000D01*
X145515000Y-111971000D01*
X145515000Y-111717000D01*
X145535000Y-111717000D01*
X145535000Y-110742750D01*
X145789000Y-110742750D01*
X145789000Y-111717000D01*
X146888250Y-111717000D01*
X146903559Y-111701691D01*
X150547000Y-111701691D01*
X150547000Y-112542250D01*
X150705750Y-112701000D01*
X151905000Y-112701000D01*
X151905000Y-111351750D01*
X152159000Y-111351750D01*
X152159000Y-112701000D01*
X153358250Y-112701000D01*
X153517000Y-112542250D01*
X153517000Y-111701691D01*
X153420327Y-111468302D01*
X153241699Y-111289673D01*
X153008310Y-111193000D01*
X152317750Y-111193000D01*
X152159000Y-111351750D01*
X151905000Y-111351750D01*
X151746250Y-111193000D01*
X151055690Y-111193000D01*
X150822301Y-111289673D01*
X150643673Y-111468302D01*
X150547000Y-111701691D01*
X146903559Y-111701691D01*
X147047000Y-111558250D01*
X147047000Y-111092690D01*
X146950327Y-110859301D01*
X146771698Y-110680673D01*
X146538309Y-110584000D01*
X145947750Y-110584000D01*
X145789000Y-110742750D01*
X145535000Y-110742750D01*
X145376250Y-110584000D01*
X144785691Y-110584000D01*
X144694543Y-110621755D01*
X144813512Y-110443705D01*
X144927691Y-110491000D01*
X145118250Y-110491000D01*
X145277000Y-110332250D01*
X145277000Y-108733000D01*
X145531000Y-108733000D01*
X145531000Y-110332250D01*
X145689750Y-110491000D01*
X145880309Y-110491000D01*
X146113698Y-110394327D01*
X146292327Y-110215699D01*
X146389000Y-109982310D01*
X146389000Y-108891750D01*
X146230250Y-108733000D01*
X145531000Y-108733000D01*
X145277000Y-108733000D01*
X145257000Y-108733000D01*
X145257000Y-108541750D01*
X146941000Y-108541750D01*
X146941000Y-109632309D01*
X147037673Y-109865698D01*
X147216301Y-110044327D01*
X147449690Y-110141000D01*
X148190250Y-110141000D01*
X148349000Y-109982250D01*
X148349000Y-108383000D01*
X148603000Y-108383000D01*
X148603000Y-109982250D01*
X148761750Y-110141000D01*
X149502310Y-110141000D01*
X149735699Y-110044327D01*
X149914327Y-109865698D01*
X150011000Y-109632309D01*
X150011000Y-108541750D01*
X149852250Y-108383000D01*
X148603000Y-108383000D01*
X148349000Y-108383000D01*
X147099750Y-108383000D01*
X146941000Y-108541750D01*
X145257000Y-108541750D01*
X145257000Y-108479000D01*
X145277000Y-108479000D01*
X145277000Y-108459000D01*
X145531000Y-108459000D01*
X145531000Y-108479000D01*
X146230250Y-108479000D01*
X146389000Y-108320250D01*
X146389000Y-108127000D01*
X147097750Y-108127000D01*
X147099750Y-108129000D01*
X148349000Y-108129000D01*
X148349000Y-108127000D01*
X148603000Y-108127000D01*
X148603000Y-108129000D01*
X149852250Y-108129000D01*
X149854250Y-108127000D01*
X150229420Y-108127000D01*
X150373000Y-108270580D01*
X150373000Y-111000000D01*
X150382667Y-111048601D01*
X150410197Y-111089803D01*
X150451399Y-111117333D01*
X150500000Y-111127000D01*
X153974860Y-111127000D01*
X153956560Y-111219000D01*
X153956560Y-112469000D01*
X154005843Y-112716765D01*
X154146191Y-112926809D01*
X154356235Y-113067157D01*
X154604000Y-113116440D01*
X156104000Y-113116440D01*
X156351765Y-113067157D01*
X156561809Y-112926809D01*
X156602654Y-112865680D01*
X156744302Y-113007327D01*
X156977691Y-113104000D01*
X157568250Y-113104000D01*
X157727000Y-112945250D01*
X157727000Y-111971000D01*
X157981000Y-111971000D01*
X157981000Y-112945250D01*
X158139750Y-113104000D01*
X158730309Y-113104000D01*
X158963698Y-113007327D01*
X159142327Y-112828699D01*
X159239000Y-112595310D01*
X159239000Y-112129750D01*
X159080250Y-111971000D01*
X157981000Y-111971000D01*
X157727000Y-111971000D01*
X157707000Y-111971000D01*
X157707000Y-111833690D01*
X160339000Y-111833690D01*
X160339000Y-112574250D01*
X160497750Y-112733000D01*
X162097000Y-112733000D01*
X162097000Y-111483750D01*
X161938250Y-111325000D01*
X160847691Y-111325000D01*
X160614302Y-111421673D01*
X160435673Y-111600301D01*
X160339000Y-111833690D01*
X157707000Y-111833690D01*
X157707000Y-111717000D01*
X157727000Y-111717000D01*
X157727000Y-110742750D01*
X157981000Y-110742750D01*
X157981000Y-111717000D01*
X159080250Y-111717000D01*
X159239000Y-111558250D01*
X159239000Y-111092690D01*
X159142327Y-110859301D01*
X158963698Y-110680673D01*
X158730309Y-110584000D01*
X158139750Y-110584000D01*
X157981000Y-110742750D01*
X157727000Y-110742750D01*
X157568250Y-110584000D01*
X157127000Y-110584000D01*
X157127000Y-110491000D01*
X157310250Y-110491000D01*
X157469000Y-110332250D01*
X157469000Y-108733000D01*
X157723000Y-108733000D01*
X157723000Y-110332250D01*
X157881750Y-110491000D01*
X158072309Y-110491000D01*
X158305698Y-110394327D01*
X158484327Y-110215699D01*
X158581000Y-109982310D01*
X158581000Y-108891750D01*
X158422250Y-108733000D01*
X157723000Y-108733000D01*
X157469000Y-108733000D01*
X157449000Y-108733000D01*
X157449000Y-108541750D01*
X159133000Y-108541750D01*
X159133000Y-109632309D01*
X159229673Y-109865698D01*
X159408301Y-110044327D01*
X159641690Y-110141000D01*
X160382250Y-110141000D01*
X160541000Y-109982250D01*
X160541000Y-108383000D01*
X159291750Y-108383000D01*
X159133000Y-108541750D01*
X157449000Y-108541750D01*
X157449000Y-108479000D01*
X157469000Y-108479000D01*
X157469000Y-108459000D01*
X157723000Y-108459000D01*
X157723000Y-108479000D01*
X158422250Y-108479000D01*
X158581000Y-108320250D01*
X158581000Y-108127000D01*
X159289750Y-108127000D01*
X159291750Y-108129000D01*
X160541000Y-108129000D01*
X160541000Y-108127000D01*
X160795000Y-108127000D01*
X160795000Y-108129000D01*
X160815000Y-108129000D01*
X160815000Y-108383000D01*
X160795000Y-108383000D01*
X160795000Y-109982250D01*
X160953750Y-110141000D01*
X161694310Y-110141000D01*
X161927699Y-110044327D01*
X162106327Y-109865698D01*
X162129690Y-109809296D01*
X162426854Y-110106460D01*
X162426821Y-110143971D01*
X162525841Y-110383619D01*
X162427180Y-110621223D01*
X162426821Y-111032971D01*
X162547484Y-111325000D01*
X162509750Y-111325000D01*
X162351000Y-111483750D01*
X162351000Y-112733000D01*
X162371000Y-112733000D01*
X162371000Y-112987000D01*
X162351000Y-112987000D01*
X162351000Y-113007000D01*
X162097000Y-113007000D01*
X162097000Y-112987000D01*
X160497750Y-112987000D01*
X160339000Y-113145750D01*
X160339000Y-113886310D01*
X160435673Y-114119699D01*
X160605975Y-114290000D01*
X153318026Y-114290000D01*
X153420327Y-114187698D01*
X153517000Y-113954309D01*
X153517000Y-113113750D01*
X153358250Y-112955000D01*
X152159000Y-112955000D01*
X152159000Y-112975000D01*
X151905000Y-112975000D01*
X151905000Y-112955000D01*
X150705750Y-112955000D01*
X150547000Y-113113750D01*
X150547000Y-113954309D01*
X150643673Y-114187698D01*
X150745974Y-114290000D01*
X141634026Y-114290000D01*
X141736327Y-114187698D01*
X141833000Y-113954309D01*
X141833000Y-113113750D01*
X141674250Y-112955000D01*
X140475000Y-112955000D01*
X140475000Y-112975000D01*
X140221000Y-112975000D01*
X140221000Y-112955000D01*
X139021750Y-112955000D01*
X138863000Y-113113750D01*
X138863000Y-113954309D01*
X138959673Y-114187698D01*
X139061974Y-114290000D01*
X129950026Y-114290000D01*
X130052327Y-114187698D01*
X130149000Y-113954309D01*
X130149000Y-113113750D01*
X129990250Y-112955000D01*
X128791000Y-112955000D01*
X128791000Y-112975000D01*
X128537000Y-112975000D01*
X128537000Y-112955000D01*
X127337750Y-112955000D01*
X127179000Y-113113750D01*
X127179000Y-113954309D01*
X127275673Y-114187698D01*
X127377974Y-114290000D01*
X125710000Y-114290000D01*
X125710000Y-111701691D01*
X127179000Y-111701691D01*
X127179000Y-112542250D01*
X127337750Y-112701000D01*
X128537000Y-112701000D01*
X128537000Y-111351750D01*
X128378250Y-111193000D01*
X127687690Y-111193000D01*
X127454301Y-111289673D01*
X127275673Y-111468302D01*
X127179000Y-111701691D01*
X125710000Y-111701691D01*
X125710000Y-110627000D01*
X130471020Y-110627000D01*
X130270191Y-110761191D01*
X130129843Y-110971235D01*
X130080560Y-111219000D01*
X130080560Y-111536462D01*
X130052327Y-111468302D01*
X129873699Y-111289673D01*
X129640310Y-111193000D01*
X128949750Y-111193000D01*
X128791000Y-111351750D01*
X128791000Y-112701000D01*
X129990250Y-112701000D01*
X130104068Y-112587182D01*
X130129843Y-112716765D01*
X130270191Y-112926809D01*
X130480235Y-113067157D01*
X130728000Y-113116440D01*
X132228000Y-113116440D01*
X132475765Y-113067157D01*
X132685809Y-112926809D01*
X132726654Y-112865680D01*
X132868302Y-113007327D01*
X133101691Y-113104000D01*
X133692250Y-113104000D01*
X133851000Y-112945250D01*
X133851000Y-111971000D01*
X134105000Y-111971000D01*
X134105000Y-112945250D01*
X134263750Y-113104000D01*
X134854309Y-113104000D01*
X135087698Y-113007327D01*
X135266327Y-112828699D01*
X135363000Y-112595310D01*
X135363000Y-112129750D01*
X135204250Y-111971000D01*
X134105000Y-111971000D01*
X133851000Y-111971000D01*
X133831000Y-111971000D01*
X133831000Y-111717000D01*
X133851000Y-111717000D01*
X133851000Y-110742750D01*
X134105000Y-110742750D01*
X134105000Y-111717000D01*
X135204250Y-111717000D01*
X135219559Y-111701691D01*
X138863000Y-111701691D01*
X138863000Y-112542250D01*
X139021750Y-112701000D01*
X140221000Y-112701000D01*
X140221000Y-111351750D01*
X140062250Y-111193000D01*
X139371690Y-111193000D01*
X139138301Y-111289673D01*
X138959673Y-111468302D01*
X138863000Y-111701691D01*
X135219559Y-111701691D01*
X135363000Y-111558250D01*
X135363000Y-111092690D01*
X135266327Y-110859301D01*
X135087698Y-110680673D01*
X134854309Y-110584000D01*
X134263750Y-110584000D01*
X134105000Y-110742750D01*
X133851000Y-110742750D01*
X133692250Y-110584000D01*
X133120628Y-110584000D01*
X133130021Y-110569943D01*
X133153181Y-110453509D01*
X133243691Y-110491000D01*
X133434250Y-110491000D01*
X133593000Y-110332250D01*
X133593000Y-108733000D01*
X133847000Y-108733000D01*
X133847000Y-110332250D01*
X134005750Y-110491000D01*
X134196309Y-110491000D01*
X134429698Y-110394327D01*
X134608327Y-110215699D01*
X134705000Y-109982310D01*
X134705000Y-108891750D01*
X134546250Y-108733000D01*
X133847000Y-108733000D01*
X133593000Y-108733000D01*
X133573000Y-108733000D01*
X133573000Y-108541750D01*
X135257000Y-108541750D01*
X135257000Y-109632309D01*
X135353673Y-109865698D01*
X135532301Y-110044327D01*
X135765690Y-110141000D01*
X136506250Y-110141000D01*
X136665000Y-109982250D01*
X136665000Y-108383000D01*
X136919000Y-108383000D01*
X136919000Y-109982250D01*
X137077750Y-110141000D01*
X137818310Y-110141000D01*
X138051699Y-110044327D01*
X138230327Y-109865698D01*
X138327000Y-109632309D01*
X138327000Y-108541750D01*
X138168250Y-108383000D01*
X136919000Y-108383000D01*
X136665000Y-108383000D01*
X135415750Y-108383000D01*
X135257000Y-108541750D01*
X133573000Y-108541750D01*
X133573000Y-108479000D01*
X133593000Y-108479000D01*
X133593000Y-108459000D01*
X133847000Y-108459000D01*
X133847000Y-108479000D01*
X134546250Y-108479000D01*
X134705000Y-108320250D01*
X134705000Y-108127000D01*
X135413750Y-108127000D01*
X135415750Y-108129000D01*
X135415750Y-108129000D01*
G37*
X135415750Y-108129000D02*
X136665000Y-108129000D01*
X136665000Y-108127000D01*
X136919000Y-108127000D01*
X136919000Y-108129000D01*
X138168250Y-108129000D01*
X138170250Y-108127000D01*
X138545420Y-108127000D01*
X138850560Y-108432140D01*
X138850560Y-109828000D01*
X138873000Y-109940815D01*
X138873000Y-111000000D01*
X138882667Y-111048601D01*
X138910197Y-111089803D01*
X138951399Y-111117333D01*
X139000000Y-111127000D01*
X141782860Y-111127000D01*
X141764560Y-111219000D01*
X141764560Y-111536462D01*
X141736327Y-111468302D01*
X141557699Y-111289673D01*
X141324310Y-111193000D01*
X140633750Y-111193000D01*
X140475000Y-111351750D01*
X140475000Y-112701000D01*
X141674250Y-112701000D01*
X141788068Y-112587182D01*
X141813843Y-112716765D01*
X141954191Y-112926809D01*
X142164235Y-113067157D01*
X142412000Y-113116440D01*
X143912000Y-113116440D01*
X144159765Y-113067157D01*
X144369809Y-112926809D01*
X144410654Y-112865680D01*
X144552302Y-113007327D01*
X144785691Y-113104000D01*
X145376250Y-113104000D01*
X145535000Y-112945250D01*
X145535000Y-111971000D01*
X145789000Y-111971000D01*
X145789000Y-112945250D01*
X145947750Y-113104000D01*
X146538309Y-113104000D01*
X146771698Y-113007327D01*
X146950327Y-112828699D01*
X147047000Y-112595310D01*
X147047000Y-112129750D01*
X146888250Y-111971000D01*
X145789000Y-111971000D01*
X145535000Y-111971000D01*
X145515000Y-111971000D01*
X145515000Y-111717000D01*
X145535000Y-111717000D01*
X145535000Y-110742750D01*
X145789000Y-110742750D01*
X145789000Y-111717000D01*
X146888250Y-111717000D01*
X146903559Y-111701691D01*
X150547000Y-111701691D01*
X150547000Y-112542250D01*
X150705750Y-112701000D01*
X151905000Y-112701000D01*
X151905000Y-111351750D01*
X152159000Y-111351750D01*
X152159000Y-112701000D01*
X153358250Y-112701000D01*
X153517000Y-112542250D01*
X153517000Y-111701691D01*
X153420327Y-111468302D01*
X153241699Y-111289673D01*
X153008310Y-111193000D01*
X152317750Y-111193000D01*
X152159000Y-111351750D01*
X151905000Y-111351750D01*
X151746250Y-111193000D01*
X151055690Y-111193000D01*
X150822301Y-111289673D01*
X150643673Y-111468302D01*
X150547000Y-111701691D01*
X146903559Y-111701691D01*
X147047000Y-111558250D01*
X147047000Y-111092690D01*
X146950327Y-110859301D01*
X146771698Y-110680673D01*
X146538309Y-110584000D01*
X145947750Y-110584000D01*
X145789000Y-110742750D01*
X145535000Y-110742750D01*
X145376250Y-110584000D01*
X144785691Y-110584000D01*
X144694543Y-110621755D01*
X144813512Y-110443705D01*
X144927691Y-110491000D01*
X145118250Y-110491000D01*
X145277000Y-110332250D01*
X145277000Y-108733000D01*
X145531000Y-108733000D01*
X145531000Y-110332250D01*
X145689750Y-110491000D01*
X145880309Y-110491000D01*
X146113698Y-110394327D01*
X146292327Y-110215699D01*
X146389000Y-109982310D01*
X146389000Y-108891750D01*
X146230250Y-108733000D01*
X145531000Y-108733000D01*
X145277000Y-108733000D01*
X145257000Y-108733000D01*
X145257000Y-108541750D01*
X146941000Y-108541750D01*
X146941000Y-109632309D01*
X147037673Y-109865698D01*
X147216301Y-110044327D01*
X147449690Y-110141000D01*
X148190250Y-110141000D01*
X148349000Y-109982250D01*
X148349000Y-108383000D01*
X148603000Y-108383000D01*
X148603000Y-109982250D01*
X148761750Y-110141000D01*
X149502310Y-110141000D01*
X149735699Y-110044327D01*
X149914327Y-109865698D01*
X150011000Y-109632309D01*
X150011000Y-108541750D01*
X149852250Y-108383000D01*
X148603000Y-108383000D01*
X148349000Y-108383000D01*
X147099750Y-108383000D01*
X146941000Y-108541750D01*
X145257000Y-108541750D01*
X145257000Y-108479000D01*
X145277000Y-108479000D01*
X145277000Y-108459000D01*
X145531000Y-108459000D01*
X145531000Y-108479000D01*
X146230250Y-108479000D01*
X146389000Y-108320250D01*
X146389000Y-108127000D01*
X147097750Y-108127000D01*
X147099750Y-108129000D01*
X148349000Y-108129000D01*
X148349000Y-108127000D01*
X148603000Y-108127000D01*
X148603000Y-108129000D01*
X149852250Y-108129000D01*
X149854250Y-108127000D01*
X150229420Y-108127000D01*
X150373000Y-108270580D01*
X150373000Y-111000000D01*
X150382667Y-111048601D01*
X150410197Y-111089803D01*
X150451399Y-111117333D01*
X150500000Y-111127000D01*
X153974860Y-111127000D01*
X153956560Y-111219000D01*
X153956560Y-112469000D01*
X154005843Y-112716765D01*
X154146191Y-112926809D01*
X154356235Y-113067157D01*
X154604000Y-113116440D01*
X156104000Y-113116440D01*
X156351765Y-113067157D01*
X156561809Y-112926809D01*
X156602654Y-112865680D01*
X156744302Y-113007327D01*
X156977691Y-113104000D01*
X157568250Y-113104000D01*
X157727000Y-112945250D01*
X157727000Y-111971000D01*
X157981000Y-111971000D01*
X157981000Y-112945250D01*
X158139750Y-113104000D01*
X158730309Y-113104000D01*
X158963698Y-113007327D01*
X159142327Y-112828699D01*
X159239000Y-112595310D01*
X159239000Y-112129750D01*
X159080250Y-111971000D01*
X157981000Y-111971000D01*
X157727000Y-111971000D01*
X157707000Y-111971000D01*
X157707000Y-111833690D01*
X160339000Y-111833690D01*
X160339000Y-112574250D01*
X160497750Y-112733000D01*
X162097000Y-112733000D01*
X162097000Y-111483750D01*
X161938250Y-111325000D01*
X160847691Y-111325000D01*
X160614302Y-111421673D01*
X160435673Y-111600301D01*
X160339000Y-111833690D01*
X157707000Y-111833690D01*
X157707000Y-111717000D01*
X157727000Y-111717000D01*
X157727000Y-110742750D01*
X157981000Y-110742750D01*
X157981000Y-111717000D01*
X159080250Y-111717000D01*
X159239000Y-111558250D01*
X159239000Y-111092690D01*
X159142327Y-110859301D01*
X158963698Y-110680673D01*
X158730309Y-110584000D01*
X158139750Y-110584000D01*
X157981000Y-110742750D01*
X157727000Y-110742750D01*
X157568250Y-110584000D01*
X157127000Y-110584000D01*
X157127000Y-110491000D01*
X157310250Y-110491000D01*
X157469000Y-110332250D01*
X157469000Y-108733000D01*
X157723000Y-108733000D01*
X157723000Y-110332250D01*
X157881750Y-110491000D01*
X158072309Y-110491000D01*
X158305698Y-110394327D01*
X158484327Y-110215699D01*
X158581000Y-109982310D01*
X158581000Y-108891750D01*
X158422250Y-108733000D01*
X157723000Y-108733000D01*
X157469000Y-108733000D01*
X157449000Y-108733000D01*
X157449000Y-108541750D01*
X159133000Y-108541750D01*
X159133000Y-109632309D01*
X159229673Y-109865698D01*
X159408301Y-110044327D01*
X159641690Y-110141000D01*
X160382250Y-110141000D01*
X160541000Y-109982250D01*
X160541000Y-108383000D01*
X159291750Y-108383000D01*
X159133000Y-108541750D01*
X157449000Y-108541750D01*
X157449000Y-108479000D01*
X157469000Y-108479000D01*
X157469000Y-108459000D01*
X157723000Y-108459000D01*
X157723000Y-108479000D01*
X158422250Y-108479000D01*
X158581000Y-108320250D01*
X158581000Y-108127000D01*
X159289750Y-108127000D01*
X159291750Y-108129000D01*
X160541000Y-108129000D01*
X160541000Y-108127000D01*
X160795000Y-108127000D01*
X160795000Y-108129000D01*
X160815000Y-108129000D01*
X160815000Y-108383000D01*
X160795000Y-108383000D01*
X160795000Y-109982250D01*
X160953750Y-110141000D01*
X161694310Y-110141000D01*
X161927699Y-110044327D01*
X162106327Y-109865698D01*
X162129690Y-109809296D01*
X162426854Y-110106460D01*
X162426821Y-110143971D01*
X162525841Y-110383619D01*
X162427180Y-110621223D01*
X162426821Y-111032971D01*
X162547484Y-111325000D01*
X162509750Y-111325000D01*
X162351000Y-111483750D01*
X162351000Y-112733000D01*
X162371000Y-112733000D01*
X162371000Y-112987000D01*
X162351000Y-112987000D01*
X162351000Y-113007000D01*
X162097000Y-113007000D01*
X162097000Y-112987000D01*
X160497750Y-112987000D01*
X160339000Y-113145750D01*
X160339000Y-113886310D01*
X160435673Y-114119699D01*
X160605975Y-114290000D01*
X153318026Y-114290000D01*
X153420327Y-114187698D01*
X153517000Y-113954309D01*
X153517000Y-113113750D01*
X153358250Y-112955000D01*
X152159000Y-112955000D01*
X152159000Y-112975000D01*
X151905000Y-112975000D01*
X151905000Y-112955000D01*
X150705750Y-112955000D01*
X150547000Y-113113750D01*
X150547000Y-113954309D01*
X150643673Y-114187698D01*
X150745974Y-114290000D01*
X141634026Y-114290000D01*
X141736327Y-114187698D01*
X141833000Y-113954309D01*
X141833000Y-113113750D01*
X141674250Y-112955000D01*
X140475000Y-112955000D01*
X140475000Y-112975000D01*
X140221000Y-112975000D01*
X140221000Y-112955000D01*
X139021750Y-112955000D01*
X138863000Y-113113750D01*
X138863000Y-113954309D01*
X138959673Y-114187698D01*
X139061974Y-114290000D01*
X129950026Y-114290000D01*
X130052327Y-114187698D01*
X130149000Y-113954309D01*
X130149000Y-113113750D01*
X129990250Y-112955000D01*
X128791000Y-112955000D01*
X128791000Y-112975000D01*
X128537000Y-112975000D01*
X128537000Y-112955000D01*
X127337750Y-112955000D01*
X127179000Y-113113750D01*
X127179000Y-113954309D01*
X127275673Y-114187698D01*
X127377974Y-114290000D01*
X125710000Y-114290000D01*
X125710000Y-111701691D01*
X127179000Y-111701691D01*
X127179000Y-112542250D01*
X127337750Y-112701000D01*
X128537000Y-112701000D01*
X128537000Y-111351750D01*
X128378250Y-111193000D01*
X127687690Y-111193000D01*
X127454301Y-111289673D01*
X127275673Y-111468302D01*
X127179000Y-111701691D01*
X125710000Y-111701691D01*
X125710000Y-110627000D01*
X130471020Y-110627000D01*
X130270191Y-110761191D01*
X130129843Y-110971235D01*
X130080560Y-111219000D01*
X130080560Y-111536462D01*
X130052327Y-111468302D01*
X129873699Y-111289673D01*
X129640310Y-111193000D01*
X128949750Y-111193000D01*
X128791000Y-111351750D01*
X128791000Y-112701000D01*
X129990250Y-112701000D01*
X130104068Y-112587182D01*
X130129843Y-112716765D01*
X130270191Y-112926809D01*
X130480235Y-113067157D01*
X130728000Y-113116440D01*
X132228000Y-113116440D01*
X132475765Y-113067157D01*
X132685809Y-112926809D01*
X132726654Y-112865680D01*
X132868302Y-113007327D01*
X133101691Y-113104000D01*
X133692250Y-113104000D01*
X133851000Y-112945250D01*
X133851000Y-111971000D01*
X134105000Y-111971000D01*
X134105000Y-112945250D01*
X134263750Y-113104000D01*
X134854309Y-113104000D01*
X135087698Y-113007327D01*
X135266327Y-112828699D01*
X135363000Y-112595310D01*
X135363000Y-112129750D01*
X135204250Y-111971000D01*
X134105000Y-111971000D01*
X133851000Y-111971000D01*
X133831000Y-111971000D01*
X133831000Y-111717000D01*
X133851000Y-111717000D01*
X133851000Y-110742750D01*
X134105000Y-110742750D01*
X134105000Y-111717000D01*
X135204250Y-111717000D01*
X135219559Y-111701691D01*
X138863000Y-111701691D01*
X138863000Y-112542250D01*
X139021750Y-112701000D01*
X140221000Y-112701000D01*
X140221000Y-111351750D01*
X140062250Y-111193000D01*
X139371690Y-111193000D01*
X139138301Y-111289673D01*
X138959673Y-111468302D01*
X138863000Y-111701691D01*
X135219559Y-111701691D01*
X135363000Y-111558250D01*
X135363000Y-111092690D01*
X135266327Y-110859301D01*
X135087698Y-110680673D01*
X134854309Y-110584000D01*
X134263750Y-110584000D01*
X134105000Y-110742750D01*
X133851000Y-110742750D01*
X133692250Y-110584000D01*
X133120628Y-110584000D01*
X133130021Y-110569943D01*
X133153181Y-110453509D01*
X133243691Y-110491000D01*
X133434250Y-110491000D01*
X133593000Y-110332250D01*
X133593000Y-108733000D01*
X133847000Y-108733000D01*
X133847000Y-110332250D01*
X134005750Y-110491000D01*
X134196309Y-110491000D01*
X134429698Y-110394327D01*
X134608327Y-110215699D01*
X134705000Y-109982310D01*
X134705000Y-108891750D01*
X134546250Y-108733000D01*
X133847000Y-108733000D01*
X133593000Y-108733000D01*
X133573000Y-108733000D01*
X133573000Y-108541750D01*
X135257000Y-108541750D01*
X135257000Y-109632309D01*
X135353673Y-109865698D01*
X135532301Y-110044327D01*
X135765690Y-110141000D01*
X136506250Y-110141000D01*
X136665000Y-109982250D01*
X136665000Y-108383000D01*
X136919000Y-108383000D01*
X136919000Y-109982250D01*
X137077750Y-110141000D01*
X137818310Y-110141000D01*
X138051699Y-110044327D01*
X138230327Y-109865698D01*
X138327000Y-109632309D01*
X138327000Y-108541750D01*
X138168250Y-108383000D01*
X136919000Y-108383000D01*
X136665000Y-108383000D01*
X135415750Y-108383000D01*
X135257000Y-108541750D01*
X133573000Y-108541750D01*
X133573000Y-108479000D01*
X133593000Y-108479000D01*
X133593000Y-108459000D01*
X133847000Y-108459000D01*
X133847000Y-108479000D01*
X134546250Y-108479000D01*
X134705000Y-108320250D01*
X134705000Y-108127000D01*
X135413750Y-108127000D01*
X135415750Y-108129000D01*
M02*
