M48
; DRILL file {KiCad 5.1.4} date Tue 27 Aug 2019 09:41:44 PM CEST
; FORMAT={-:-/ absolute / inch / decimal}
; #@! TF.CreationDate,2019-08-27T21:41:44+02:00
; #@! TF.GenerationSoftware,Kicad,Pcbnew,5.1.4
FMAT,2
INCH
T1C0.0157
T2C0.0197
T3C0.0394
T4C0.0520
T5C0.1260
T6C0.0390
T7C0.0935
%
G90
G05
T1
X2.3346Y-3.6096
X2.3346Y-3.6696
X2.3346Y-3.7296
X2.3346Y-3.7896
X2.3346Y-5.5781
X2.3346Y-5.6381
X2.3346Y-5.6981
X2.3346Y-5.7581
X2.3576Y-3.9936
X2.3576Y-5.9621
X2.4141Y-3.4606
X2.4141Y-5.4291
X2.4496Y-3.2696
X2.4496Y-5.2381
X2.4846Y-3.2696
X2.4846Y-5.2381
X2.5196Y-3.2696
X2.5196Y-5.2381
X2.5491Y-2.8056
X2.5491Y-4.7741
X2.5546Y-3.2696
X2.5546Y-5.2381
X2.5601Y-3.8846
X2.5601Y-5.8531
X2.5896Y-3.2696
X2.5896Y-5.2381
X2.6246Y-3.2696
X2.6246Y-5.2381
X2.6531Y-2.8056
X2.6531Y-4.7741
X2.6596Y-3.2696
X2.6596Y-5.2381
X2.6946Y-3.2696
X2.6946Y-5.2381
X2.7296Y-3.2696
X2.7296Y-5.2381
X2.7546Y-3.2946
X2.7546Y-5.2631
X2.7796Y-3.3196
X2.7796Y-5.2881
X2.8046Y-3.3446
X2.8046Y-5.3131
X2.8296Y-3.3696
X2.8296Y-5.3381
X2.8511Y-3.4656
X2.8511Y-5.4341
X2.8546Y-3.3946
X2.8546Y-5.3631
X2.9356Y-3.5623
X2.9356Y-5.5308
X3.0856Y-3.8966
X3.0856Y-5.8651
X3.0996Y-4.0346
X3.0996Y-6.0031
X3.1121Y-3.6786
X3.1121Y-5.6471
X3.1366Y-4.0176
X3.1366Y-5.9861
X3.1626Y-3.9383
X3.1626Y-5.9068
X3.1626Y-3.8964
X3.1626Y-5.8649
X3.3257Y-3.6327
X3.3257Y-5.6012
X3.3636Y-3.5046
X3.3636Y-5.4731
X3.4036Y-3.6906
X3.4036Y-5.6591
X3.4396Y-3.8621
X3.4396Y-5.8306
X3.4621Y-3.6046
X3.4621Y-5.5731
X3.4997Y-3.1126
X3.4997Y-5.0811
X3.5146Y-3.3746
X3.5146Y-5.3431
X3.5171Y-3.8421
X3.5171Y-5.8106
X3.5391Y-3.1126
X3.5391Y-5.0811
X3.5446Y-3.3546
X3.5446Y-5.3231
X3.5561Y-3.6753
X3.5561Y-5.6438
X3.5696Y-3.3296
X3.5696Y-5.2981
X3.5734Y-3.4833
X3.5734Y-5.4519
X3.5946Y-3.3046
X3.5946Y-5.2731
X3.6196Y-3.2796
X3.6196Y-5.2481
X3.6431Y-3.4136
X3.6431Y-5.3821
X3.6524Y-2.8109
X3.6524Y-4.7794
X3.6822Y-3.4086
X3.6822Y-5.3771
X3.7073Y-3.1826
X3.7073Y-5.1511
X3.7096Y-3.5311
X3.7096Y-5.4996
X3.7141Y-2.7686
X3.7141Y-4.7371
X3.7221Y-3.6596
X3.7221Y-5.6281
X3.7551Y-3.3686
X3.7551Y-5.3371
X3.7596Y-3.5311
X3.7596Y-5.4996
X3.7646Y-3.2746
X3.7646Y-5.2431
X3.8046Y-3.2746
X3.8046Y-5.2431
X3.8156Y-3.5866
X3.8156Y-5.5551
X3.8571Y-3.4096
X3.8571Y-5.3781
X3.8671Y-3.7896
X3.8671Y-5.7581
X3.9741Y-3.4206
X3.9741Y-5.3891
X3.9741Y-3.5308
X3.9741Y-5.4993
X3.9946Y-3.8596
X3.9946Y-5.8281
X4.0696Y-2.8776
X4.0696Y-4.8461
X4.0701Y-2.8086
X4.0701Y-4.7771
X4.3031Y-3.6096
X4.3031Y-3.6696
X4.3031Y-3.7296
X4.3031Y-3.7896
X4.3031Y-5.5781
X4.3031Y-5.6381
X4.3031Y-5.6981
X4.3031Y-5.7581
X4.3261Y-3.9936
X4.3261Y-5.9621
X4.3826Y-3.4606
X4.3826Y-5.4291
X4.4181Y-3.2696
X4.4181Y-5.2381
X4.4531Y-3.2696
X4.4531Y-5.2381
X4.4881Y-3.2696
X4.4881Y-5.2381
X4.5176Y-2.8056
X4.5176Y-4.7741
X4.5231Y-3.2696
X4.5231Y-5.2381
X4.5286Y-3.8846
X4.5286Y-5.8531
X4.5581Y-3.2696
X4.5581Y-5.2381
X4.5931Y-3.2696
X4.5931Y-5.2381
X4.6216Y-2.8056
X4.6216Y-4.7741
X4.6281Y-3.2696
X4.6281Y-5.2381
X4.6631Y-3.2696
X4.6631Y-5.2381
X4.6981Y-3.2696
X4.6981Y-5.2381
X4.7231Y-3.2946
X4.7231Y-5.2631
X4.7481Y-3.3196
X4.7481Y-5.2881
X4.7731Y-3.3446
X4.7731Y-5.3131
X4.7981Y-3.3696
X4.7981Y-5.3381
X4.8196Y-3.4656
X4.8196Y-5.4341
X4.8231Y-3.3946
X4.8231Y-5.3631
X4.9041Y-3.5623
X4.9041Y-5.5308
X5.0541Y-3.8966
X5.0541Y-5.8651
X5.0681Y-4.0346
X5.0681Y-6.0031
X5.0806Y-3.6786
X5.0806Y-5.6471
X5.1051Y-4.0176
X5.1051Y-5.9861
X5.1311Y-3.9383
X5.1311Y-5.9068
X5.1311Y-3.8964
X5.1311Y-5.8649
X5.2942Y-3.6327
X5.2942Y-5.6012
X5.3321Y-3.5046
X5.3321Y-5.4731
X5.3721Y-3.6906
X5.3721Y-5.6591
X5.4081Y-3.8621
X5.4081Y-5.8306
X5.4306Y-3.6046
X5.4306Y-5.5731
X5.4682Y-3.1126
X5.4682Y-5.0811
X5.4831Y-3.3746
X5.4831Y-5.3431
X5.4856Y-3.8421
X5.4856Y-5.8106
X5.5076Y-3.1126
X5.5076Y-5.0811
X5.5131Y-3.3546
X5.5131Y-5.3231
X5.5246Y-3.6753
X5.5246Y-5.6438
X5.5381Y-3.3296
X5.5381Y-5.2981
X5.5419Y-3.4833
X5.5419Y-5.4519
X5.5631Y-3.3046
X5.5631Y-5.2731
X5.5881Y-3.2796
X5.5881Y-5.2481
X5.6116Y-3.4136
X5.6116Y-5.3821
X5.6209Y-2.8109
X5.6209Y-4.7794
X5.6507Y-3.4086
X5.6507Y-5.3771
X5.6758Y-3.1826
X5.6758Y-5.1511
X5.6781Y-3.5311
X5.6781Y-5.4996
X5.6826Y-2.7686
X5.6826Y-4.7371
X5.6906Y-3.6596
X5.6906Y-5.6281
X5.7236Y-3.3686
X5.7236Y-5.3371
X5.7281Y-3.5311
X5.7281Y-5.4996
X5.7331Y-3.2746
X5.7331Y-5.2431
X5.7731Y-3.2746
X5.7731Y-5.2431
X5.7841Y-3.5866
X5.7841Y-5.5551
X5.8256Y-3.4096
X5.8256Y-5.3781
X5.8356Y-3.7896
X5.8356Y-5.7581
X5.9426Y-3.4206
X5.9426Y-5.3891
X5.9426Y-3.5308
X5.9426Y-5.4993
X5.9631Y-3.8596
X5.9631Y-5.8281
X6.0381Y-2.8776
X6.0381Y-4.8461
X6.0386Y-2.8086
X6.0386Y-4.7771
T2
X2.2096Y-2.2596
X2.2096Y-4.2281
X2.2496Y-2.2596
X2.2496Y-4.2281
X2.2896Y-2.2596
X2.2896Y-4.2281
X2.3396Y-2.2096
X2.3396Y-4.1781
X2.3496Y-2.6096
X2.3496Y-4.5781
X2.4096Y-2.6096
X2.4096Y-4.5781
X2.4696Y-2.6096
X2.4696Y-4.5781
X2.5196Y-2.2096
X2.5196Y-4.1781
X2.6146Y-3.6096
X2.6146Y-5.5781
X2.6996Y-2.2096
X2.6996Y-4.1781
X2.7071Y-3.1946
X2.7071Y-5.1631
X2.7546Y-3.0796
X2.7546Y-5.0481
X2.7896Y-2.6096
X2.7896Y-4.5781
X2.8496Y-2.6096
X2.8496Y-4.5781
X2.8556Y-2.9876
X2.8556Y-4.9561
X2.8796Y-2.2096
X2.8796Y-4.1781
X2.8941Y-2.8436
X2.8941Y-4.8121
X2.9096Y-2.6096
X2.9096Y-4.5781
X3.0496Y-2.2106
X3.0496Y-4.1791
X3.0896Y-2.2106
X3.0896Y-4.1791
X3.1296Y-2.2106
X3.1296Y-4.1791
X3.1696Y-2.2106
X3.1696Y-4.1791
X3.2096Y-2.2106
X3.2096Y-4.1791
X3.2496Y-2.2106
X3.2496Y-4.1791
X3.4196Y-2.2096
X3.4196Y-4.1781
X3.4296Y-2.6096
X3.4296Y-4.5781
X3.4896Y-2.6096
X3.4896Y-4.5781
X3.5161Y-3.1846
X3.5161Y-5.1531
X3.5496Y-2.6096
X3.5496Y-4.5781
X3.5996Y-2.2096
X3.5996Y-4.1781
X3.6286Y-3.1895
X3.6286Y-5.158
X3.7796Y-2.2096
X3.7796Y-4.1781
X3.8696Y-2.6096
X3.8696Y-4.5781
X3.9296Y-2.6096
X3.9296Y-4.5781
X3.9596Y-2.2096
X3.9596Y-4.1781
X3.9896Y-2.6096
X3.9896Y-4.5781
X4.0096Y-2.2596
X4.0096Y-4.2281
X4.0496Y-2.2596
X4.0496Y-4.2281
X4.0896Y-2.2596
X4.0896Y-4.2281
X4.1781Y-2.2596
X4.1781Y-4.2281
X4.2181Y-2.2596
X4.2181Y-4.2281
X4.2581Y-2.2596
X4.2581Y-4.2281
X4.3081Y-2.2096
X4.3081Y-4.1781
X4.3181Y-2.6096
X4.3181Y-4.5781
X4.3781Y-2.6096
X4.3781Y-4.5781
X4.4381Y-2.6096
X4.4381Y-4.5781
X4.4881Y-2.2096
X4.4881Y-4.1781
X4.5831Y-3.6096
X4.5831Y-5.5781
X4.6681Y-2.2096
X4.6681Y-4.1781
X4.6756Y-3.1946
X4.6756Y-5.1631
X4.7231Y-3.0796
X4.7231Y-5.0481
X4.7581Y-2.6096
X4.7581Y-4.5781
X4.8181Y-2.6096
X4.8181Y-4.5781
X4.8241Y-2.9876
X4.8241Y-4.9561
X4.8481Y-2.2096
X4.8481Y-4.1781
X4.8626Y-2.8436
X4.8626Y-4.8121
X4.8781Y-2.6096
X4.8781Y-4.5781
X5.0181Y-2.2106
X5.0181Y-4.1791
X5.0581Y-2.2106
X5.0581Y-4.1791
X5.0981Y-2.2106
X5.0981Y-4.1791
X5.1381Y-2.2106
X5.1381Y-4.1791
X5.1781Y-2.2106
X5.1781Y-4.1791
X5.2181Y-2.2106
X5.2181Y-4.1791
X5.3881Y-2.2096
X5.3881Y-4.1781
X5.3981Y-2.6096
X5.3981Y-4.5781
X5.4581Y-2.6096
X5.4581Y-4.5781
X5.4846Y-3.1846
X5.4846Y-5.1531
X5.5181Y-2.6096
X5.5181Y-4.5781
X5.5681Y-2.2096
X5.5681Y-4.1781
X5.5971Y-3.1895
X5.5971Y-5.158
X5.7481Y-2.2096
X5.7481Y-4.1781
X5.8381Y-2.6096
X5.8381Y-4.5781
X5.8981Y-2.6096
X5.8981Y-4.5781
X5.9281Y-2.2096
X5.9281Y-4.1781
X5.9581Y-2.6096
X5.9581Y-4.5781
X5.9781Y-2.2596
X5.9781Y-4.2281
X6.0181Y-2.2596
X6.0181Y-4.2281
X6.0581Y-2.2596
X6.0581Y-4.2281
X5.8504Y-3.1496
X5.8781Y-3.0828
X5.8781Y-3.2164
X5.9449Y-3.0551
X5.9449Y-3.2441
X6.0117Y-3.0828
X6.0117Y-3.2164
X6.0394Y-3.1496
X2.2283Y-3.1496
X2.256Y-3.0828
X2.256Y-3.2164
X2.3228Y-3.0551
X2.3228Y-3.2441
X2.3896Y-3.0828
X2.3896Y-3.2164
X2.4173Y-3.1496
X5.8504Y-5.1181
X5.8781Y-5.0513
X5.8781Y-5.1849
X5.9449Y-5.0236
X5.9449Y-5.2126
X6.0117Y-5.0513
X6.0117Y-5.1849
X6.0394Y-5.1181
X4.9606Y-3.0315
X4.9606Y-3.0709
X4.9606Y-3.1102
X4.9606Y-3.1496
X4.9606Y-3.189
X4.9606Y-3.2283
X4.9606Y-3.2677
X5.0Y-3.0118
X5.0Y-3.0512
X5.0Y-3.0906
X5.0Y-3.1299
X5.0Y-3.1693
X5.0Y-3.2087
X5.0Y-3.248
X5.0Y-3.2874
X5.0394Y-2.9921
X5.0394Y-3.0315
X5.0394Y-3.0709
X5.0394Y-3.1102
X5.0394Y-3.1496
X5.0394Y-3.189
X5.0394Y-3.2283
X5.0394Y-3.2677
X5.0394Y-3.3071
X5.0787Y-2.9724
X5.0787Y-3.0118
X5.0787Y-3.0512
X5.0787Y-3.0906
X5.0787Y-3.1299
X5.0787Y-3.1693
X5.0787Y-3.2087
X5.0787Y-3.248
X5.0787Y-3.2874
X5.0787Y-3.3268
X5.1181Y-2.9528
X5.1181Y-2.9921
X5.1181Y-3.0315
X5.1181Y-3.0709
X5.1181Y-3.1102
X5.1181Y-3.1496
X5.1181Y-3.189
X5.1181Y-3.2283
X5.1181Y-3.2677
X5.1181Y-3.3071
X5.1181Y-3.3465
X5.1575Y-2.9724
X5.1575Y-3.0118
X5.1575Y-3.0512
X5.1575Y-3.0906
X5.1575Y-3.1299
X5.1575Y-3.1693
X5.1575Y-3.2087
X5.1575Y-3.248
X5.1575Y-3.2874
X5.1575Y-3.3268
X5.1969Y-2.9921
X5.1969Y-3.0315
X5.1969Y-3.0709
X5.1969Y-3.1102
X5.1969Y-3.1496
X5.1969Y-3.189
X5.1969Y-3.2283
X5.1969Y-3.2677
X5.1969Y-3.3071
X5.2362Y-3.0118
X5.2362Y-3.0512
X5.2362Y-3.0906
X5.2362Y-3.1299
X5.2362Y-3.1693
X5.2362Y-3.2087
X5.2362Y-3.248
X5.2362Y-3.2874
X5.2756Y-3.0315
X5.2756Y-3.0709
X5.2756Y-3.1102
X5.2756Y-3.1496
X5.2756Y-3.189
X5.2756Y-3.2283
X5.2756Y-3.2677
X2.9921Y-3.0315
X2.9921Y-3.0709
X2.9921Y-3.1102
X2.9921Y-3.1496
X2.9921Y-3.189
X2.9921Y-3.2283
X2.9921Y-3.2677
X3.0315Y-3.0118
X3.0315Y-3.0512
X3.0315Y-3.0906
X3.0315Y-3.1299
X3.0315Y-3.1693
X3.0315Y-3.2087
X3.0315Y-3.248
X3.0315Y-3.2874
X3.0709Y-2.9921
X3.0709Y-3.0315
X3.0709Y-3.0709
X3.0709Y-3.1102
X3.0709Y-3.1496
X3.0709Y-3.189
X3.0709Y-3.2283
X3.0709Y-3.2677
X3.0709Y-3.3071
X3.1102Y-2.9724
X3.1102Y-3.0118
X3.1102Y-3.0512
X3.1102Y-3.0906
X3.1102Y-3.1299
X3.1102Y-3.1693
X3.1102Y-3.2087
X3.1102Y-3.248
X3.1102Y-3.2874
X3.1102Y-3.3268
X3.1496Y-2.9528
X3.1496Y-2.9921
X3.1496Y-3.0315
X3.1496Y-3.0709
X3.1496Y-3.1102
X3.1496Y-3.1496
X3.1496Y-3.189
X3.1496Y-3.2283
X3.1496Y-3.2677
X3.1496Y-3.3071
X3.1496Y-3.3465
X3.189Y-2.9724
X3.189Y-3.0118
X3.189Y-3.0512
X3.189Y-3.0906
X3.189Y-3.1299
X3.189Y-3.1693
X3.189Y-3.2087
X3.189Y-3.248
X3.189Y-3.2874
X3.189Y-3.3268
X3.2283Y-2.9921
X3.2283Y-3.0315
X3.2283Y-3.0709
X3.2283Y-3.1102
X3.2283Y-3.1496
X3.2283Y-3.189
X3.2283Y-3.2283
X3.2283Y-3.2677
X3.2283Y-3.3071
X3.2677Y-3.0118
X3.2677Y-3.0512
X3.2677Y-3.0906
X3.2677Y-3.1299
X3.2677Y-3.1693
X3.2677Y-3.2087
X3.2677Y-3.248
X3.2677Y-3.2874
X3.3071Y-3.0315
X3.3071Y-3.0709
X3.3071Y-3.1102
X3.3071Y-3.1496
X3.3071Y-3.189
X3.3071Y-3.2283
X3.3071Y-3.2677
X3.8819Y-3.1496
X3.9096Y-3.0828
X3.9096Y-3.2164
X3.9764Y-3.0551
X3.9764Y-3.2441
X4.0432Y-3.0828
X4.0432Y-3.2164
X4.0709Y-3.1496
X4.1969Y-5.1181
X4.2245Y-5.0513
X4.2245Y-5.1849
X4.2913Y-5.0236
X4.2913Y-5.2126
X4.3582Y-5.0513
X4.3582Y-5.1849
X4.3858Y-5.1181
X4.9606Y-5.0
X4.9606Y-5.0394
X4.9606Y-5.0787
X4.9606Y-5.1181
X4.9606Y-5.1575
X4.9606Y-5.1969
X4.9606Y-5.2362
X5.0Y-4.9803
X5.0Y-5.0197
X5.0Y-5.0591
X5.0Y-5.0984
X5.0Y-5.1378
X5.0Y-5.1772
X5.0Y-5.2165
X5.0Y-5.2559
X5.0394Y-4.9606
X5.0394Y-5.0
X5.0394Y-5.0394
X5.0394Y-5.0787
X5.0394Y-5.1181
X5.0394Y-5.1575
X5.0394Y-5.1969
X5.0394Y-5.2362
X5.0394Y-5.2756
X5.0787Y-4.9409
X5.0787Y-4.9803
X5.0787Y-5.0197
X5.0787Y-5.0591
X5.0787Y-5.0984
X5.0787Y-5.1378
X5.0787Y-5.1772
X5.0787Y-5.2165
X5.0787Y-5.2559
X5.0787Y-5.2953
X5.1181Y-4.9213
X5.1181Y-4.9606
X5.1181Y-5.0
X5.1181Y-5.0394
X5.1181Y-5.0787
X5.1181Y-5.1181
X5.1181Y-5.1575
X5.1181Y-5.1969
X5.1181Y-5.2362
X5.1181Y-5.2756
X5.1181Y-5.315
X5.1575Y-4.9409
X5.1575Y-4.9803
X5.1575Y-5.0197
X5.1575Y-5.0591
X5.1575Y-5.0984
X5.1575Y-5.1378
X5.1575Y-5.1772
X5.1575Y-5.2165
X5.1575Y-5.2559
X5.1575Y-5.2953
X5.1969Y-4.9606
X5.1969Y-5.0
X5.1969Y-5.0394
X5.1969Y-5.0787
X5.1969Y-5.1181
X5.1969Y-5.1575
X5.1969Y-5.1969
X5.1969Y-5.2362
X5.1969Y-5.2756
X5.2362Y-4.9803
X5.2362Y-5.0197
X5.2362Y-5.0591
X5.2362Y-5.0984
X5.2362Y-5.1378
X5.2362Y-5.1772
X5.2362Y-5.2165
X5.2362Y-5.2559
X5.2756Y-5.0
X5.2756Y-5.0394
X5.2756Y-5.0787
X5.2756Y-5.1181
X5.2756Y-5.1575
X5.2756Y-5.1969
X5.2756Y-5.2362
X2.9921Y-5.0
X2.9921Y-5.0394
X2.9921Y-5.0787
X2.9921Y-5.1181
X2.9921Y-5.1575
X2.9921Y-5.1969
X2.9921Y-5.2362
X3.0315Y-4.9803
X3.0315Y-5.0197
X3.0315Y-5.0591
X3.0315Y-5.0984
X3.0315Y-5.1378
X3.0315Y-5.1772
X3.0315Y-5.2165
X3.0315Y-5.2559
X3.0709Y-4.9606
X3.0709Y-5.0
X3.0709Y-5.0394
X3.0709Y-5.0787
X3.0709Y-5.1181
X3.0709Y-5.1575
X3.0709Y-5.1969
X3.0709Y-5.2362
X3.0709Y-5.2756
X3.1102Y-4.9409
X3.1102Y-4.9803
X3.1102Y-5.0197
X3.1102Y-5.0591
X3.1102Y-5.0984
X3.1102Y-5.1378
X3.1102Y-5.1772
X3.1102Y-5.2165
X3.1102Y-5.2559
X3.1102Y-5.2953
X3.1496Y-4.9213
X3.1496Y-4.9606
X3.1496Y-5.0
X3.1496Y-5.0394
X3.1496Y-5.0787
X3.1496Y-5.1181
X3.1496Y-5.1575
X3.1496Y-5.1969
X3.1496Y-5.2362
X3.1496Y-5.2756
X3.1496Y-5.315
X3.189Y-4.9409
X3.189Y-4.9803
X3.189Y-5.0197
X3.189Y-5.0591
X3.189Y-5.0984
X3.189Y-5.1378
X3.189Y-5.1772
X3.189Y-5.2165
X3.189Y-5.2559
X3.189Y-5.2953
X3.2283Y-4.9606
X3.2283Y-5.0
X3.2283Y-5.0394
X3.2283Y-5.0787
X3.2283Y-5.1181
X3.2283Y-5.1575
X3.2283Y-5.1969
X3.2283Y-5.2362
X3.2283Y-5.2756
X3.2677Y-4.9803
X3.2677Y-5.0197
X3.2677Y-5.0591
X3.2677Y-5.0984
X3.2677Y-5.1378
X3.2677Y-5.1772
X3.2677Y-5.2165
X3.2677Y-5.2559
X3.3071Y-5.0
X3.3071Y-5.0394
X3.3071Y-5.0787
X3.3071Y-5.1181
X3.3071Y-5.1575
X3.3071Y-5.1969
X3.3071Y-5.2362
X2.2283Y-5.1181
X2.256Y-5.0513
X2.256Y-5.1849
X2.3228Y-5.0236
X2.3228Y-5.2126
X2.3896Y-5.0513
X2.3896Y-5.1849
X2.4173Y-5.1181
X4.1969Y-3.1496
X4.2245Y-3.0828
X4.2245Y-3.2164
X4.2913Y-3.0551
X4.2913Y-3.2441
X4.3582Y-3.0828
X4.3582Y-3.2164
X4.3858Y-3.1496
X3.8819Y-5.1181
X3.9096Y-5.0513
X3.9096Y-5.1849
X3.9764Y-5.0236
X3.9764Y-5.2126
X4.0432Y-5.0513
X4.0432Y-5.1849
X4.0709Y-5.1181
T3
X2.2154Y-5.3281
X2.2154Y-5.4281
X2.2154Y-5.5281
X2.2154Y-5.6281
X2.2154Y-5.7281
X2.2154Y-5.8281
X2.2154Y-5.9281
X2.2154Y-6.0281
X4.1839Y-3.3596
X4.1839Y-3.4596
X4.1839Y-3.5596
X4.1839Y-3.6596
X4.1839Y-3.7596
X4.1839Y-3.8596
X4.1839Y-3.9596
X4.1839Y-4.0596
X4.1839Y-5.3281
X4.1839Y-5.4281
X4.1839Y-5.5281
X4.1839Y-5.6281
X4.1839Y-5.7281
X4.1839Y-5.8281
X4.1839Y-5.9281
X4.1839Y-6.0281
X6.0524Y-5.3281
X6.0524Y-5.4281
X6.0524Y-5.5281
X6.0524Y-5.6281
X6.0524Y-5.7281
X6.0524Y-5.8281
X6.0524Y-5.9281
X6.0524Y-6.0281
X2.2154Y-3.3596
X2.2154Y-3.4596
X2.2154Y-3.5596
X2.2154Y-3.6596
X2.2154Y-3.7596
X2.2154Y-3.8596
X2.2154Y-3.9596
X2.2154Y-4.0596
X4.0839Y-5.3281
X4.0839Y-5.4281
X4.0839Y-5.5281
X4.0839Y-5.6281
X4.0839Y-5.7281
X4.0839Y-5.8281
X4.0839Y-5.9281
X4.0839Y-6.0281
X4.0839Y-3.3596
X4.0839Y-3.4596
X4.0839Y-3.5596
X4.0839Y-3.6596
X4.0839Y-3.7596
X4.0839Y-3.8596
X4.0839Y-3.9596
X4.0839Y-4.0596
X6.0524Y-3.3596
X6.0524Y-3.4596
X6.0524Y-3.5596
X6.0524Y-3.6596
X6.0524Y-3.7596
X6.0524Y-3.8596
X6.0524Y-3.9596
X6.0524Y-4.0596
T4
X3.1496Y-2.2896
X3.1496Y-2.4865
X3.1496Y-4.2581
X3.1496Y-4.455
X5.1181Y-4.2581
X5.1181Y-4.455
X5.1181Y-2.2896
X5.1181Y-2.4865
T5
X3.9764Y-5.1181
X5.9449Y-3.1496
X2.3228Y-3.1496
X5.9449Y-5.1181
X3.9764Y-3.1496
X4.2913Y-5.1181
X2.3228Y-5.1181
X4.2913Y-3.1496
T6
X4.9026Y-5.6811
X4.9026Y-5.7611
X5.2026Y-5.7211
X4.9026Y-3.7126
X4.9026Y-3.7926
X5.2026Y-3.7526
X2.9341Y-3.7126
X2.9341Y-3.7926
X3.2341Y-3.7526
X2.9341Y-5.6811
X2.9341Y-5.7611
X3.2341Y-5.7211
T7
X4.9776Y-5.6211
X4.9776Y-5.8211
X5.2026Y-5.6211
X5.2026Y-5.8211
X4.9776Y-3.6526
X4.9776Y-3.8526
X5.2026Y-3.6526
X5.2026Y-3.8526
X3.0091Y-3.6526
X3.0091Y-3.8526
X3.2341Y-3.6526
X3.2341Y-3.8526
X3.0091Y-5.6211
X3.0091Y-5.8211
X3.2341Y-5.6211
X3.2341Y-5.8211
T0
M30
