G04 #@! TF.GenerationSoftware,KiCad,Pcbnew,5.1.4*
G04 #@! TF.CreationDate,2019-08-27T21:41:19+02:00*
G04 #@! TF.ProjectId,led_pixel_stm32f030_x4,6c65645f-7069-4786-956c-5f73746d3332,1.1*
G04 #@! TF.SameCoordinates,Original*
G04 #@! TF.FileFunction,Paste,Top*
G04 #@! TF.FilePolarity,Positive*
%FSLAX46Y46*%
G04 Gerber Fmt 4.6, Leading zero omitted, Abs format (unit mm)*
G04 Created by KiCad (PCBNEW 5.1.4) date 2019-08-27 21:41:19*
%MOMM*%
%LPD*%
G04 APERTURE LIST*
%ADD10R,2.500000X1.000000*%
%ADD11R,3.000000X1.000000*%
%ADD12R,1.500000X1.250000*%
%ADD13R,0.900000X0.800000*%
%ADD14R,1.200000X0.750000*%
%ADD15R,0.900000X1.200000*%
%ADD16R,1.800000X2.500000*%
%ADD17R,4.000000X2.000000*%
%ADD18R,1.700000X2.000000*%
%ADD19R,2.000000X3.800000*%
%ADD20R,2.000000X1.500000*%
%ADD21R,0.450000X1.450000*%
%ADD22R,2.000000X4.000000*%
%ADD23R,2.000000X0.800000*%
%ADD24C,0.750000*%
%ADD25C,0.100000*%
%ADD26R,1.000000X2.500000*%
%ADD27R,0.700000X2.500000*%
%ADD28R,1.200000X0.900000*%
%ADD29R,4.500000X2.000000*%
%ADD30R,0.750000X1.200000*%
%ADD31O,1.473200X0.609600*%
G04 APERTURE END LIST*
D10*
X134572000Y-106148000D03*
X134572000Y-109148000D03*
X125428000Y-109148000D03*
X125428000Y-106148000D03*
X120856000Y-109148000D03*
X120856000Y-106148000D03*
X116284000Y-109148000D03*
X116284000Y-106148000D03*
X111712000Y-109148000D03*
X111712000Y-106148000D03*
X107140000Y-106148000D03*
X107140000Y-109148000D03*
D11*
X123500000Y-127300000D03*
X123500000Y-130900000D03*
X123500000Y-132700000D03*
X136500000Y-132700000D03*
X136500000Y-130900000D03*
X136500000Y-127300000D03*
X123500000Y-129100000D03*
X136500000Y-129100000D03*
D12*
X119860000Y-111458000D03*
X122360000Y-111458000D03*
D13*
X114166400Y-135857200D03*
X114166400Y-137757200D03*
X116166400Y-136807200D03*
D12*
X147292000Y-111458000D03*
X149792000Y-111458000D03*
D14*
X110508000Y-141684000D03*
X112408000Y-141684000D03*
D10*
X152860000Y-109148000D03*
X152860000Y-106148000D03*
X148288000Y-106148000D03*
X148288000Y-109148000D03*
X143716000Y-106148000D03*
X143716000Y-109148000D03*
X139144000Y-106148000D03*
X139144000Y-109148000D03*
D15*
X125936000Y-119924000D03*
X125936000Y-117724000D03*
D16*
X145494000Y-118284000D03*
X145494000Y-114284000D03*
D17*
X141938000Y-127174000D03*
X141938000Y-123174000D03*
D12*
X138616000Y-111458000D03*
X136116000Y-111458000D03*
D18*
X115014000Y-111236000D03*
X115014000Y-115236000D03*
D15*
X112626400Y-137907200D03*
X112626400Y-135707200D03*
D14*
X146761200Y-136603800D03*
X144861200Y-136603800D03*
D15*
X114760000Y-117724000D03*
X114760000Y-119924000D03*
D19*
X120958000Y-143970000D03*
D20*
X114658000Y-143970000D03*
X114658000Y-146270000D03*
X114658000Y-141670000D03*
D21*
X141934000Y-144253000D03*
X142584000Y-144253000D03*
X143234000Y-144253000D03*
X143884000Y-144253000D03*
X144534000Y-144253000D03*
X145184000Y-144253000D03*
X145834000Y-144253000D03*
X146484000Y-144253000D03*
X147134000Y-144253000D03*
X147784000Y-144253000D03*
X147784000Y-138353000D03*
X147134000Y-138353000D03*
X146484000Y-138353000D03*
X145834000Y-138353000D03*
X145184000Y-138353000D03*
X144534000Y-138353000D03*
X143884000Y-138353000D03*
X143234000Y-138353000D03*
X142584000Y-138353000D03*
X141934000Y-138353000D03*
D22*
X150669000Y-122507000D03*
X146669000Y-122507000D03*
D23*
X149812000Y-116284000D03*
D24*
X149812000Y-117064000D03*
D25*
G36*
X150812000Y-116689000D02*
G01*
X150312000Y-117439000D01*
X149312000Y-117439000D01*
X148812000Y-116689000D01*
X150812000Y-116689000D01*
X150812000Y-116689000D01*
G37*
D26*
X149812000Y-113934000D03*
D27*
X151312000Y-118634000D03*
D26*
X149812000Y-118634000D03*
D27*
X148312000Y-118634000D03*
X151312000Y-113934000D03*
X148312000Y-113934000D03*
D24*
X149812000Y-115504000D03*
D25*
G36*
X148812000Y-115879000D02*
G01*
X149312000Y-115129000D01*
X150312000Y-115129000D01*
X150812000Y-115879000D01*
X148812000Y-115879000D01*
X148812000Y-115879000D01*
G37*
D28*
X121407000Y-152479000D03*
X123607000Y-152479000D03*
D14*
X145054500Y-146256000D03*
X146954500Y-146256000D03*
D16*
X118062000Y-114284000D03*
X118062000Y-118284000D03*
D14*
X112408000Y-143208000D03*
X110508000Y-143208000D03*
D29*
X139593000Y-151209000D03*
X148093000Y-151209000D03*
D23*
X138636000Y-116284000D03*
D24*
X138636000Y-117064000D03*
D25*
G36*
X139636000Y-116689000D02*
G01*
X139136000Y-117439000D01*
X138136000Y-117439000D01*
X137636000Y-116689000D01*
X139636000Y-116689000D01*
X139636000Y-116689000D01*
G37*
D26*
X138636000Y-113934000D03*
D27*
X140136000Y-118634000D03*
D26*
X138636000Y-118634000D03*
D27*
X137136000Y-118634000D03*
X140136000Y-113934000D03*
X137136000Y-113934000D03*
D24*
X138636000Y-115504000D03*
D25*
G36*
X137636000Y-115879000D02*
G01*
X138136000Y-115129000D01*
X139136000Y-115129000D01*
X139636000Y-115879000D01*
X137636000Y-115879000D01*
X137636000Y-115879000D01*
G37*
D28*
X141514000Y-146256000D03*
X139314000Y-146256000D03*
D18*
X153622000Y-111236000D03*
X153622000Y-115236000D03*
D30*
X136223000Y-151270000D03*
X136223000Y-149370000D03*
D28*
X108732400Y-135791200D03*
X110932400Y-135791200D03*
D14*
X112408000Y-146256000D03*
X110508000Y-146256000D03*
D28*
X111034000Y-150066000D03*
X108834000Y-150066000D03*
X127544000Y-152479000D03*
X125344000Y-152479000D03*
D16*
X134318000Y-114258600D03*
X134318000Y-118258600D03*
D30*
X151463000Y-149370000D03*
X151463000Y-151270000D03*
D15*
X142192000Y-117724000D03*
X142192000Y-119924000D03*
D31*
X119205000Y-152479000D03*
X119205000Y-151209000D03*
X119205000Y-149939000D03*
X119205000Y-148669000D03*
X113617000Y-148669000D03*
X113617000Y-149939000D03*
X113617000Y-151209000D03*
X113617000Y-152479000D03*
D28*
X147102000Y-147780000D03*
X144902000Y-147780000D03*
D15*
X153368000Y-119924000D03*
X153368000Y-117724000D03*
D16*
X106886000Y-118284000D03*
X106886000Y-114284000D03*
D14*
X110508000Y-144732000D03*
X112408000Y-144732000D03*
D18*
X126190000Y-115236000D03*
X126190000Y-111236000D03*
D17*
X117046000Y-123682000D03*
X117046000Y-127682000D03*
D23*
X122380000Y-116284000D03*
D24*
X122380000Y-117064000D03*
D25*
G36*
X123380000Y-116689000D02*
G01*
X122880000Y-117439000D01*
X121880000Y-117439000D01*
X121380000Y-116689000D01*
X123380000Y-116689000D01*
X123380000Y-116689000D01*
G37*
D26*
X122380000Y-113934000D03*
D27*
X123880000Y-118634000D03*
D26*
X122380000Y-118634000D03*
D27*
X120880000Y-118634000D03*
X123880000Y-113934000D03*
X120880000Y-113934000D03*
D24*
X122380000Y-115504000D03*
D25*
G36*
X121380000Y-115879000D02*
G01*
X121880000Y-115129000D01*
X122880000Y-115129000D01*
X123380000Y-115879000D01*
X121380000Y-115879000D01*
X121380000Y-115879000D01*
G37*
D14*
X111773000Y-152479000D03*
X109873000Y-152479000D03*
D28*
X111034000Y-148542000D03*
X108834000Y-148542000D03*
D12*
X108684000Y-111458000D03*
X111184000Y-111458000D03*
D23*
X111204000Y-116284000D03*
D24*
X111204000Y-117064000D03*
D25*
G36*
X112204000Y-116689000D02*
G01*
X111704000Y-117439000D01*
X110704000Y-117439000D01*
X110204000Y-116689000D01*
X112204000Y-116689000D01*
X112204000Y-116689000D01*
G37*
D26*
X111204000Y-113934000D03*
D27*
X112704000Y-118634000D03*
D26*
X111204000Y-118634000D03*
D27*
X109704000Y-118634000D03*
X112704000Y-113934000D03*
X109704000Y-113934000D03*
D24*
X111204000Y-115504000D03*
D25*
G36*
X110204000Y-115879000D02*
G01*
X110704000Y-115129000D01*
X111704000Y-115129000D01*
X112204000Y-115879000D01*
X110204000Y-115879000D01*
X110204000Y-115879000D01*
G37*
D28*
X123607000Y-150193000D03*
X121407000Y-150193000D03*
D18*
X142446000Y-115236000D03*
X142446000Y-111236000D03*
D22*
X106918000Y-123142000D03*
X110918000Y-123142000D03*
D10*
X84572000Y-106148000D03*
X84572000Y-109148000D03*
X75428000Y-109148000D03*
X75428000Y-106148000D03*
X70856000Y-109148000D03*
X70856000Y-106148000D03*
X66284000Y-109148000D03*
X66284000Y-106148000D03*
X61712000Y-109148000D03*
X61712000Y-106148000D03*
X57140000Y-106148000D03*
X57140000Y-109148000D03*
D11*
X73500000Y-127300000D03*
X73500000Y-130900000D03*
X73500000Y-132700000D03*
X86500000Y-132700000D03*
X86500000Y-130900000D03*
X86500000Y-127300000D03*
X73500000Y-129100000D03*
X86500000Y-129100000D03*
D12*
X69860000Y-111458000D03*
X72360000Y-111458000D03*
D13*
X64166400Y-135857200D03*
X64166400Y-137757200D03*
X66166400Y-136807200D03*
D12*
X97292000Y-111458000D03*
X99792000Y-111458000D03*
D14*
X60508000Y-141684000D03*
X62408000Y-141684000D03*
D10*
X102860000Y-109148000D03*
X102860000Y-106148000D03*
X98288000Y-106148000D03*
X98288000Y-109148000D03*
X93716000Y-106148000D03*
X93716000Y-109148000D03*
X89144000Y-106148000D03*
X89144000Y-109148000D03*
D15*
X75936000Y-119924000D03*
X75936000Y-117724000D03*
D16*
X95494000Y-118284000D03*
X95494000Y-114284000D03*
D17*
X91938000Y-127174000D03*
X91938000Y-123174000D03*
D12*
X88616000Y-111458000D03*
X86116000Y-111458000D03*
D18*
X65014000Y-111236000D03*
X65014000Y-115236000D03*
D15*
X62626400Y-137907200D03*
X62626400Y-135707200D03*
D14*
X96761200Y-136603800D03*
X94861200Y-136603800D03*
D15*
X64760000Y-117724000D03*
X64760000Y-119924000D03*
D19*
X70958000Y-143970000D03*
D20*
X64658000Y-143970000D03*
X64658000Y-146270000D03*
X64658000Y-141670000D03*
D21*
X91934000Y-144253000D03*
X92584000Y-144253000D03*
X93234000Y-144253000D03*
X93884000Y-144253000D03*
X94534000Y-144253000D03*
X95184000Y-144253000D03*
X95834000Y-144253000D03*
X96484000Y-144253000D03*
X97134000Y-144253000D03*
X97784000Y-144253000D03*
X97784000Y-138353000D03*
X97134000Y-138353000D03*
X96484000Y-138353000D03*
X95834000Y-138353000D03*
X95184000Y-138353000D03*
X94534000Y-138353000D03*
X93884000Y-138353000D03*
X93234000Y-138353000D03*
X92584000Y-138353000D03*
X91934000Y-138353000D03*
D22*
X100669000Y-122507000D03*
X96669000Y-122507000D03*
D23*
X99812000Y-116284000D03*
D24*
X99812000Y-117064000D03*
D25*
G36*
X100812000Y-116689000D02*
G01*
X100312000Y-117439000D01*
X99312000Y-117439000D01*
X98812000Y-116689000D01*
X100812000Y-116689000D01*
X100812000Y-116689000D01*
G37*
D26*
X99812000Y-113934000D03*
D27*
X101312000Y-118634000D03*
D26*
X99812000Y-118634000D03*
D27*
X98312000Y-118634000D03*
X101312000Y-113934000D03*
X98312000Y-113934000D03*
D24*
X99812000Y-115504000D03*
D25*
G36*
X98812000Y-115879000D02*
G01*
X99312000Y-115129000D01*
X100312000Y-115129000D01*
X100812000Y-115879000D01*
X98812000Y-115879000D01*
X98812000Y-115879000D01*
G37*
D28*
X71407000Y-152479000D03*
X73607000Y-152479000D03*
D14*
X95054500Y-146256000D03*
X96954500Y-146256000D03*
D16*
X68062000Y-114284000D03*
X68062000Y-118284000D03*
D14*
X62408000Y-143208000D03*
X60508000Y-143208000D03*
D29*
X89593000Y-151209000D03*
X98093000Y-151209000D03*
D23*
X88636000Y-116284000D03*
D24*
X88636000Y-117064000D03*
D25*
G36*
X89636000Y-116689000D02*
G01*
X89136000Y-117439000D01*
X88136000Y-117439000D01*
X87636000Y-116689000D01*
X89636000Y-116689000D01*
X89636000Y-116689000D01*
G37*
D26*
X88636000Y-113934000D03*
D27*
X90136000Y-118634000D03*
D26*
X88636000Y-118634000D03*
D27*
X87136000Y-118634000D03*
X90136000Y-113934000D03*
X87136000Y-113934000D03*
D24*
X88636000Y-115504000D03*
D25*
G36*
X87636000Y-115879000D02*
G01*
X88136000Y-115129000D01*
X89136000Y-115129000D01*
X89636000Y-115879000D01*
X87636000Y-115879000D01*
X87636000Y-115879000D01*
G37*
D28*
X91514000Y-146256000D03*
X89314000Y-146256000D03*
D18*
X103622000Y-111236000D03*
X103622000Y-115236000D03*
D30*
X86223000Y-151270000D03*
X86223000Y-149370000D03*
D28*
X58732400Y-135791200D03*
X60932400Y-135791200D03*
D14*
X62408000Y-146256000D03*
X60508000Y-146256000D03*
D28*
X61034000Y-150066000D03*
X58834000Y-150066000D03*
X77544000Y-152479000D03*
X75344000Y-152479000D03*
D16*
X84318000Y-114258600D03*
X84318000Y-118258600D03*
D30*
X101463000Y-149370000D03*
X101463000Y-151270000D03*
D15*
X92192000Y-117724000D03*
X92192000Y-119924000D03*
D31*
X69205000Y-152479000D03*
X69205000Y-151209000D03*
X69205000Y-149939000D03*
X69205000Y-148669000D03*
X63617000Y-148669000D03*
X63617000Y-149939000D03*
X63617000Y-151209000D03*
X63617000Y-152479000D03*
D28*
X97102000Y-147780000D03*
X94902000Y-147780000D03*
D15*
X103368000Y-119924000D03*
X103368000Y-117724000D03*
D16*
X56886000Y-118284000D03*
X56886000Y-114284000D03*
D14*
X60508000Y-144732000D03*
X62408000Y-144732000D03*
D18*
X76190000Y-115236000D03*
X76190000Y-111236000D03*
D17*
X67046000Y-123682000D03*
X67046000Y-127682000D03*
D23*
X72380000Y-116284000D03*
D24*
X72380000Y-117064000D03*
D25*
G36*
X73380000Y-116689000D02*
G01*
X72880000Y-117439000D01*
X71880000Y-117439000D01*
X71380000Y-116689000D01*
X73380000Y-116689000D01*
X73380000Y-116689000D01*
G37*
D26*
X72380000Y-113934000D03*
D27*
X73880000Y-118634000D03*
D26*
X72380000Y-118634000D03*
D27*
X70880000Y-118634000D03*
X73880000Y-113934000D03*
X70880000Y-113934000D03*
D24*
X72380000Y-115504000D03*
D25*
G36*
X71380000Y-115879000D02*
G01*
X71880000Y-115129000D01*
X72880000Y-115129000D01*
X73380000Y-115879000D01*
X71380000Y-115879000D01*
X71380000Y-115879000D01*
G37*
D14*
X61773000Y-152479000D03*
X59873000Y-152479000D03*
D28*
X61034000Y-148542000D03*
X58834000Y-148542000D03*
D12*
X58684000Y-111458000D03*
X61184000Y-111458000D03*
D23*
X61204000Y-116284000D03*
D24*
X61204000Y-117064000D03*
D25*
G36*
X62204000Y-116689000D02*
G01*
X61704000Y-117439000D01*
X60704000Y-117439000D01*
X60204000Y-116689000D01*
X62204000Y-116689000D01*
X62204000Y-116689000D01*
G37*
D26*
X61204000Y-113934000D03*
D27*
X62704000Y-118634000D03*
D26*
X61204000Y-118634000D03*
D27*
X59704000Y-118634000D03*
X62704000Y-113934000D03*
X59704000Y-113934000D03*
D24*
X61204000Y-115504000D03*
D25*
G36*
X60204000Y-115879000D02*
G01*
X60704000Y-115129000D01*
X61704000Y-115129000D01*
X62204000Y-115879000D01*
X60204000Y-115879000D01*
X60204000Y-115879000D01*
G37*
D28*
X73607000Y-150193000D03*
X71407000Y-150193000D03*
D18*
X92446000Y-115236000D03*
X92446000Y-111236000D03*
D22*
X56918000Y-123142000D03*
X60918000Y-123142000D03*
D10*
X134572000Y-56148000D03*
X134572000Y-59148000D03*
X125428000Y-59148000D03*
X125428000Y-56148000D03*
X120856000Y-59148000D03*
X120856000Y-56148000D03*
X116284000Y-59148000D03*
X116284000Y-56148000D03*
X111712000Y-59148000D03*
X111712000Y-56148000D03*
X107140000Y-56148000D03*
X107140000Y-59148000D03*
D11*
X123500000Y-77300000D03*
X123500000Y-80900000D03*
X123500000Y-82700000D03*
X136500000Y-82700000D03*
X136500000Y-80900000D03*
X136500000Y-77300000D03*
X123500000Y-79100000D03*
X136500000Y-79100000D03*
D12*
X119860000Y-61458000D03*
X122360000Y-61458000D03*
D13*
X114166400Y-85857200D03*
X114166400Y-87757200D03*
X116166400Y-86807200D03*
D12*
X147292000Y-61458000D03*
X149792000Y-61458000D03*
D14*
X110508000Y-91684000D03*
X112408000Y-91684000D03*
D10*
X152860000Y-59148000D03*
X152860000Y-56148000D03*
X148288000Y-56148000D03*
X148288000Y-59148000D03*
X143716000Y-56148000D03*
X143716000Y-59148000D03*
X139144000Y-56148000D03*
X139144000Y-59148000D03*
D15*
X125936000Y-69924000D03*
X125936000Y-67724000D03*
D16*
X145494000Y-68284000D03*
X145494000Y-64284000D03*
D17*
X141938000Y-77174000D03*
X141938000Y-73174000D03*
D12*
X138616000Y-61458000D03*
X136116000Y-61458000D03*
D18*
X115014000Y-61236000D03*
X115014000Y-65236000D03*
D15*
X112626400Y-87907200D03*
X112626400Y-85707200D03*
D14*
X146761200Y-86603800D03*
X144861200Y-86603800D03*
D15*
X114760000Y-67724000D03*
X114760000Y-69924000D03*
D19*
X120958000Y-93970000D03*
D20*
X114658000Y-93970000D03*
X114658000Y-96270000D03*
X114658000Y-91670000D03*
D21*
X141934000Y-94253000D03*
X142584000Y-94253000D03*
X143234000Y-94253000D03*
X143884000Y-94253000D03*
X144534000Y-94253000D03*
X145184000Y-94253000D03*
X145834000Y-94253000D03*
X146484000Y-94253000D03*
X147134000Y-94253000D03*
X147784000Y-94253000D03*
X147784000Y-88353000D03*
X147134000Y-88353000D03*
X146484000Y-88353000D03*
X145834000Y-88353000D03*
X145184000Y-88353000D03*
X144534000Y-88353000D03*
X143884000Y-88353000D03*
X143234000Y-88353000D03*
X142584000Y-88353000D03*
X141934000Y-88353000D03*
D22*
X150669000Y-72507000D03*
X146669000Y-72507000D03*
D23*
X149812000Y-66284000D03*
D24*
X149812000Y-67064000D03*
D25*
G36*
X150812000Y-66689000D02*
G01*
X150312000Y-67439000D01*
X149312000Y-67439000D01*
X148812000Y-66689000D01*
X150812000Y-66689000D01*
X150812000Y-66689000D01*
G37*
D26*
X149812000Y-63934000D03*
D27*
X151312000Y-68634000D03*
D26*
X149812000Y-68634000D03*
D27*
X148312000Y-68634000D03*
X151312000Y-63934000D03*
X148312000Y-63934000D03*
D24*
X149812000Y-65504000D03*
D25*
G36*
X148812000Y-65879000D02*
G01*
X149312000Y-65129000D01*
X150312000Y-65129000D01*
X150812000Y-65879000D01*
X148812000Y-65879000D01*
X148812000Y-65879000D01*
G37*
D28*
X121407000Y-102479000D03*
X123607000Y-102479000D03*
D14*
X145054500Y-96256000D03*
X146954500Y-96256000D03*
D16*
X118062000Y-64284000D03*
X118062000Y-68284000D03*
D14*
X112408000Y-93208000D03*
X110508000Y-93208000D03*
D29*
X139593000Y-101209000D03*
X148093000Y-101209000D03*
D23*
X138636000Y-66284000D03*
D24*
X138636000Y-67064000D03*
D25*
G36*
X139636000Y-66689000D02*
G01*
X139136000Y-67439000D01*
X138136000Y-67439000D01*
X137636000Y-66689000D01*
X139636000Y-66689000D01*
X139636000Y-66689000D01*
G37*
D26*
X138636000Y-63934000D03*
D27*
X140136000Y-68634000D03*
D26*
X138636000Y-68634000D03*
D27*
X137136000Y-68634000D03*
X140136000Y-63934000D03*
X137136000Y-63934000D03*
D24*
X138636000Y-65504000D03*
D25*
G36*
X137636000Y-65879000D02*
G01*
X138136000Y-65129000D01*
X139136000Y-65129000D01*
X139636000Y-65879000D01*
X137636000Y-65879000D01*
X137636000Y-65879000D01*
G37*
D28*
X141514000Y-96256000D03*
X139314000Y-96256000D03*
D18*
X153622000Y-61236000D03*
X153622000Y-65236000D03*
D30*
X136223000Y-101270000D03*
X136223000Y-99370000D03*
D28*
X108732400Y-85791200D03*
X110932400Y-85791200D03*
D14*
X112408000Y-96256000D03*
X110508000Y-96256000D03*
D28*
X111034000Y-100066000D03*
X108834000Y-100066000D03*
X127544000Y-102479000D03*
X125344000Y-102479000D03*
D16*
X134318000Y-64258600D03*
X134318000Y-68258600D03*
D30*
X151463000Y-99370000D03*
X151463000Y-101270000D03*
D15*
X142192000Y-67724000D03*
X142192000Y-69924000D03*
D31*
X119205000Y-102479000D03*
X119205000Y-101209000D03*
X119205000Y-99939000D03*
X119205000Y-98669000D03*
X113617000Y-98669000D03*
X113617000Y-99939000D03*
X113617000Y-101209000D03*
X113617000Y-102479000D03*
D28*
X147102000Y-97780000D03*
X144902000Y-97780000D03*
D15*
X153368000Y-69924000D03*
X153368000Y-67724000D03*
D16*
X106886000Y-68284000D03*
X106886000Y-64284000D03*
D14*
X110508000Y-94732000D03*
X112408000Y-94732000D03*
D18*
X126190000Y-65236000D03*
X126190000Y-61236000D03*
D17*
X117046000Y-73682000D03*
X117046000Y-77682000D03*
D23*
X122380000Y-66284000D03*
D24*
X122380000Y-67064000D03*
D25*
G36*
X123380000Y-66689000D02*
G01*
X122880000Y-67439000D01*
X121880000Y-67439000D01*
X121380000Y-66689000D01*
X123380000Y-66689000D01*
X123380000Y-66689000D01*
G37*
D26*
X122380000Y-63934000D03*
D27*
X123880000Y-68634000D03*
D26*
X122380000Y-68634000D03*
D27*
X120880000Y-68634000D03*
X123880000Y-63934000D03*
X120880000Y-63934000D03*
D24*
X122380000Y-65504000D03*
D25*
G36*
X121380000Y-65879000D02*
G01*
X121880000Y-65129000D01*
X122880000Y-65129000D01*
X123380000Y-65879000D01*
X121380000Y-65879000D01*
X121380000Y-65879000D01*
G37*
D14*
X111773000Y-102479000D03*
X109873000Y-102479000D03*
D28*
X111034000Y-98542000D03*
X108834000Y-98542000D03*
D12*
X108684000Y-61458000D03*
X111184000Y-61458000D03*
D23*
X111204000Y-66284000D03*
D24*
X111204000Y-67064000D03*
D25*
G36*
X112204000Y-66689000D02*
G01*
X111704000Y-67439000D01*
X110704000Y-67439000D01*
X110204000Y-66689000D01*
X112204000Y-66689000D01*
X112204000Y-66689000D01*
G37*
D26*
X111204000Y-63934000D03*
D27*
X112704000Y-68634000D03*
D26*
X111204000Y-68634000D03*
D27*
X109704000Y-68634000D03*
X112704000Y-63934000D03*
X109704000Y-63934000D03*
D24*
X111204000Y-65504000D03*
D25*
G36*
X110204000Y-65879000D02*
G01*
X110704000Y-65129000D01*
X111704000Y-65129000D01*
X112204000Y-65879000D01*
X110204000Y-65879000D01*
X110204000Y-65879000D01*
G37*
D28*
X123607000Y-100193000D03*
X121407000Y-100193000D03*
D18*
X142446000Y-65236000D03*
X142446000Y-61236000D03*
D22*
X106918000Y-73142000D03*
X110918000Y-73142000D03*
D11*
X86500000Y-79100000D03*
X73500000Y-79100000D03*
X86500000Y-77300000D03*
X86500000Y-80900000D03*
X86500000Y-82700000D03*
X73500000Y-82700000D03*
X73500000Y-80900000D03*
X73500000Y-77300000D03*
D22*
X60918000Y-73142000D03*
X56918000Y-73142000D03*
D13*
X66166400Y-86807200D03*
X64166400Y-87757200D03*
X64166400Y-85857200D03*
D14*
X59873000Y-102479000D03*
X61773000Y-102479000D03*
X94861200Y-86603800D03*
X96761200Y-86603800D03*
X96954500Y-96256000D03*
X95054500Y-96256000D03*
D30*
X86223000Y-99370000D03*
X86223000Y-101270000D03*
X101463000Y-101270000D03*
X101463000Y-99370000D03*
D14*
X62408000Y-94732000D03*
X60508000Y-94732000D03*
X60508000Y-96256000D03*
X62408000Y-96256000D03*
X60508000Y-93208000D03*
X62408000Y-93208000D03*
X62408000Y-91684000D03*
X60508000Y-91684000D03*
D12*
X99792000Y-61458000D03*
X97292000Y-61458000D03*
X72360000Y-61458000D03*
X69860000Y-61458000D03*
X86116000Y-61458000D03*
X88616000Y-61458000D03*
X61184000Y-61458000D03*
X58684000Y-61458000D03*
D16*
X95494000Y-64284000D03*
X95494000Y-68284000D03*
X68062000Y-68284000D03*
X68062000Y-64284000D03*
X84318000Y-68258600D03*
X84318000Y-64258600D03*
X56886000Y-64284000D03*
X56886000Y-68284000D03*
D22*
X96669000Y-72507000D03*
X100669000Y-72507000D03*
D17*
X67046000Y-77682000D03*
X67046000Y-73682000D03*
X91938000Y-73174000D03*
X91938000Y-77174000D03*
D28*
X89314000Y-96256000D03*
X91514000Y-96256000D03*
X71407000Y-100193000D03*
X73607000Y-100193000D03*
X60932400Y-85791200D03*
X58732400Y-85791200D03*
D15*
X62626400Y-85707200D03*
X62626400Y-87907200D03*
D28*
X73607000Y-102479000D03*
X71407000Y-102479000D03*
X58834000Y-100066000D03*
X61034000Y-100066000D03*
X75344000Y-102479000D03*
X77544000Y-102479000D03*
X58834000Y-98542000D03*
X61034000Y-98542000D03*
D18*
X103622000Y-65236000D03*
X103622000Y-61236000D03*
X76190000Y-61236000D03*
X76190000Y-65236000D03*
X92446000Y-61236000D03*
X92446000Y-65236000D03*
X65014000Y-65236000D03*
X65014000Y-61236000D03*
D15*
X103368000Y-67724000D03*
X103368000Y-69924000D03*
X75936000Y-67724000D03*
X75936000Y-69924000D03*
X92192000Y-69924000D03*
X92192000Y-67724000D03*
X64760000Y-69924000D03*
X64760000Y-67724000D03*
D21*
X91934000Y-88353000D03*
X92584000Y-88353000D03*
X93234000Y-88353000D03*
X93884000Y-88353000D03*
X94534000Y-88353000D03*
X95184000Y-88353000D03*
X95834000Y-88353000D03*
X96484000Y-88353000D03*
X97134000Y-88353000D03*
X97784000Y-88353000D03*
X97784000Y-94253000D03*
X97134000Y-94253000D03*
X96484000Y-94253000D03*
X95834000Y-94253000D03*
X95184000Y-94253000D03*
X94534000Y-94253000D03*
X93884000Y-94253000D03*
X93234000Y-94253000D03*
X92584000Y-94253000D03*
X91934000Y-94253000D03*
D31*
X63617000Y-102479000D03*
X63617000Y-101209000D03*
X63617000Y-99939000D03*
X63617000Y-98669000D03*
X69205000Y-98669000D03*
X69205000Y-99939000D03*
X69205000Y-101209000D03*
X69205000Y-102479000D03*
D20*
X64658000Y-91670000D03*
X64658000Y-96270000D03*
X64658000Y-93970000D03*
D19*
X70958000Y-93970000D03*
D24*
X99812000Y-65504000D03*
D25*
G36*
X98812000Y-65879000D02*
G01*
X99312000Y-65129000D01*
X100312000Y-65129000D01*
X100812000Y-65879000D01*
X98812000Y-65879000D01*
X98812000Y-65879000D01*
G37*
D27*
X98312000Y-63934000D03*
X101312000Y-63934000D03*
X98312000Y-68634000D03*
D26*
X99812000Y-68634000D03*
D27*
X101312000Y-68634000D03*
D26*
X99812000Y-63934000D03*
D24*
X99812000Y-67064000D03*
D25*
G36*
X100812000Y-66689000D02*
G01*
X100312000Y-67439000D01*
X99312000Y-67439000D01*
X98812000Y-66689000D01*
X100812000Y-66689000D01*
X100812000Y-66689000D01*
G37*
D23*
X99812000Y-66284000D03*
D24*
X72380000Y-65504000D03*
D25*
G36*
X71380000Y-65879000D02*
G01*
X71880000Y-65129000D01*
X72880000Y-65129000D01*
X73380000Y-65879000D01*
X71380000Y-65879000D01*
X71380000Y-65879000D01*
G37*
D27*
X70880000Y-63934000D03*
X73880000Y-63934000D03*
X70880000Y-68634000D03*
D26*
X72380000Y-68634000D03*
D27*
X73880000Y-68634000D03*
D26*
X72380000Y-63934000D03*
D24*
X72380000Y-67064000D03*
D25*
G36*
X73380000Y-66689000D02*
G01*
X72880000Y-67439000D01*
X71880000Y-67439000D01*
X71380000Y-66689000D01*
X73380000Y-66689000D01*
X73380000Y-66689000D01*
G37*
D23*
X72380000Y-66284000D03*
D24*
X88636000Y-65504000D03*
D25*
G36*
X87636000Y-65879000D02*
G01*
X88136000Y-65129000D01*
X89136000Y-65129000D01*
X89636000Y-65879000D01*
X87636000Y-65879000D01*
X87636000Y-65879000D01*
G37*
D27*
X87136000Y-63934000D03*
X90136000Y-63934000D03*
X87136000Y-68634000D03*
D26*
X88636000Y-68634000D03*
D27*
X90136000Y-68634000D03*
D26*
X88636000Y-63934000D03*
D24*
X88636000Y-67064000D03*
D25*
G36*
X89636000Y-66689000D02*
G01*
X89136000Y-67439000D01*
X88136000Y-67439000D01*
X87636000Y-66689000D01*
X89636000Y-66689000D01*
X89636000Y-66689000D01*
G37*
D23*
X88636000Y-66284000D03*
D24*
X61204000Y-65504000D03*
D25*
G36*
X60204000Y-65879000D02*
G01*
X60704000Y-65129000D01*
X61704000Y-65129000D01*
X62204000Y-65879000D01*
X60204000Y-65879000D01*
X60204000Y-65879000D01*
G37*
D27*
X59704000Y-63934000D03*
X62704000Y-63934000D03*
X59704000Y-68634000D03*
D26*
X61204000Y-68634000D03*
D27*
X62704000Y-68634000D03*
D26*
X61204000Y-63934000D03*
D24*
X61204000Y-67064000D03*
D25*
G36*
X62204000Y-66689000D02*
G01*
X61704000Y-67439000D01*
X60704000Y-67439000D01*
X60204000Y-66689000D01*
X62204000Y-66689000D01*
X62204000Y-66689000D01*
G37*
D23*
X61204000Y-66284000D03*
D29*
X98093000Y-101209000D03*
X89593000Y-101209000D03*
D28*
X94902000Y-97780000D03*
X97102000Y-97780000D03*
D10*
X57140000Y-59148000D03*
X57140000Y-56148000D03*
X61712000Y-56148000D03*
X61712000Y-59148000D03*
X66284000Y-56148000D03*
X66284000Y-59148000D03*
X70856000Y-56148000D03*
X70856000Y-59148000D03*
X75428000Y-56148000D03*
X75428000Y-59148000D03*
X84572000Y-59148000D03*
X84572000Y-56148000D03*
X89144000Y-59148000D03*
X89144000Y-56148000D03*
X93716000Y-59148000D03*
X93716000Y-56148000D03*
X98288000Y-59148000D03*
X98288000Y-56148000D03*
X102860000Y-56148000D03*
X102860000Y-59148000D03*
M02*
