G04 #@! TF.GenerationSoftware,KiCad,Pcbnew,5.1.4*
G04 #@! TF.CreationDate,2019-08-27T21:41:19+02:00*
G04 #@! TF.ProjectId,led_pixel_stm32f030_x4,6c65645f-7069-4786-956c-5f73746d3332,1.1*
G04 #@! TF.SameCoordinates,Original*
G04 #@! TF.FileFunction,Soldermask,Top*
G04 #@! TF.FilePolarity,Negative*
%FSLAX46Y46*%
G04 Gerber Fmt 4.6, Leading zero omitted, Abs format (unit mm)*
G04 Created by KiCad (PCBNEW 5.1.4) date 2019-08-27 21:41:19*
%MOMM*%
%LPD*%
G04 APERTURE LIST*
%ADD10R,2.900000X1.400000*%
%ADD11R,3.400000X1.400000*%
%ADD12C,7.400000*%
%ADD13C,0.100000*%
%ADD14C,2.420524*%
%ADD15R,1.900000X1.650000*%
%ADD16R,1.300000X1.200000*%
%ADD17R,1.600000X1.150000*%
%ADD18C,6.800000*%
%ADD19C,1.000000*%
%ADD20R,1.300000X1.600000*%
%ADD21R,2.200000X2.900000*%
%ADD22R,4.400000X2.400000*%
%ADD23R,2.100000X2.400000*%
%ADD24R,2.400000X4.200000*%
%ADD25R,2.400000X1.900000*%
%ADD26R,0.850000X1.850000*%
%ADD27R,2.400000X4.400000*%
%ADD28R,2.400000X1.200000*%
%ADD29C,1.150000*%
%ADD30R,1.400000X2.900000*%
%ADD31R,1.100000X2.900000*%
%ADD32R,1.600000X1.300000*%
%ADD33R,4.900000X2.400000*%
%ADD34R,1.150000X1.600000*%
%ADD35R,2.100000X2.100000*%
%ADD36O,2.100000X2.100000*%
%ADD37O,1.873200X1.009600*%
%ADD38R,4.360000X2.380000*%
%ADD39O,4.360000X2.380000*%
%ADD40C,1.187400*%
%ADD41C,2.775000*%
%ADD42C,1.390600*%
G04 APERTURE END LIST*
D10*
X134572000Y-106148000D03*
X134572000Y-109148000D03*
X125428000Y-109148000D03*
X125428000Y-106148000D03*
X120856000Y-109148000D03*
X120856000Y-106148000D03*
X116284000Y-109148000D03*
X116284000Y-106148000D03*
X111712000Y-109148000D03*
X111712000Y-106148000D03*
X107140000Y-106148000D03*
X107140000Y-109148000D03*
D11*
X123500000Y-127300000D03*
X123500000Y-130900000D03*
X123500000Y-132700000D03*
X136500000Y-132700000D03*
X136500000Y-130900000D03*
X136500000Y-127300000D03*
D12*
X130000000Y-130000000D03*
D13*
G36*
X125300000Y-133700000D02*
G01*
X125300000Y-126300000D01*
X134700000Y-126300000D01*
X134700000Y-133700000D01*
X125300000Y-133700000D01*
X125300000Y-133700000D01*
G37*
D11*
X123500000Y-129100000D03*
X136500000Y-129100000D03*
D14*
X130000000Y-125375000D03*
D13*
G36*
X124654470Y-126700000D02*
G01*
X129942692Y-124050000D01*
X130057308Y-124050000D01*
X135345530Y-126700000D01*
X124654470Y-126700000D01*
X124654470Y-126700000D01*
G37*
D14*
X130000000Y-134625000D03*
D13*
G36*
X135345530Y-133300000D02*
G01*
X130057308Y-135950000D01*
X129942692Y-135950000D01*
X124654470Y-133300000D01*
X135345530Y-133300000D01*
X135345530Y-133300000D01*
G37*
D15*
X119860000Y-111458000D03*
X122360000Y-111458000D03*
D16*
X114166400Y-135857200D03*
X114166400Y-137757200D03*
X116166400Y-136807200D03*
D15*
X147292000Y-111458000D03*
X149792000Y-111458000D03*
D17*
X110508000Y-141684000D03*
X112408000Y-141684000D03*
D18*
X151000000Y-130000000D03*
D19*
X153400000Y-130000000D03*
X152697056Y-131697056D03*
X151000000Y-132400000D03*
X149302944Y-131697056D03*
X148600000Y-130000000D03*
X149302944Y-128302944D03*
X151000000Y-127600000D03*
X152697056Y-128302944D03*
X110697056Y-128302944D03*
X109000000Y-127600000D03*
X107302944Y-128302944D03*
X106600000Y-130000000D03*
X107302944Y-131697056D03*
X109000000Y-132400000D03*
X110697056Y-131697056D03*
X111400000Y-130000000D03*
D18*
X109000000Y-130000000D03*
D10*
X152860000Y-109148000D03*
X152860000Y-106148000D03*
X148288000Y-106148000D03*
X148288000Y-109148000D03*
X143716000Y-106148000D03*
X143716000Y-109148000D03*
X139144000Y-106148000D03*
X139144000Y-109148000D03*
D20*
X125936000Y-119924000D03*
X125936000Y-117724000D03*
D21*
X145494000Y-118284000D03*
X145494000Y-114284000D03*
D22*
X141938000Y-127174000D03*
X141938000Y-123174000D03*
D15*
X138616000Y-111458000D03*
X136116000Y-111458000D03*
D23*
X115014000Y-111236000D03*
X115014000Y-115236000D03*
D20*
X112626400Y-137907200D03*
X112626400Y-135707200D03*
D17*
X146761200Y-136603800D03*
X144861200Y-136603800D03*
D20*
X114760000Y-117724000D03*
X114760000Y-119924000D03*
D24*
X120958000Y-143970000D03*
D25*
X114658000Y-143970000D03*
X114658000Y-146270000D03*
X114658000Y-141670000D03*
D26*
X141934000Y-144253000D03*
X142584000Y-144253000D03*
X143234000Y-144253000D03*
X143884000Y-144253000D03*
X144534000Y-144253000D03*
X145184000Y-144253000D03*
X145834000Y-144253000D03*
X146484000Y-144253000D03*
X147134000Y-144253000D03*
X147784000Y-144253000D03*
X147784000Y-138353000D03*
X147134000Y-138353000D03*
X146484000Y-138353000D03*
X145834000Y-138353000D03*
X145184000Y-138353000D03*
X144534000Y-138353000D03*
X143884000Y-138353000D03*
X143234000Y-138353000D03*
X142584000Y-138353000D03*
X141934000Y-138353000D03*
D27*
X150669000Y-122507000D03*
X146669000Y-122507000D03*
D28*
X149812000Y-116284000D03*
D29*
X149812000Y-117064000D03*
D13*
G36*
X151185703Y-116489000D02*
G01*
X150419037Y-117639000D01*
X149204963Y-117639000D01*
X148438297Y-116489000D01*
X151185703Y-116489000D01*
X151185703Y-116489000D01*
G37*
D30*
X149812000Y-113934000D03*
D31*
X151312000Y-118634000D03*
D30*
X149812000Y-118634000D03*
D31*
X148312000Y-118634000D03*
X151312000Y-113934000D03*
X148312000Y-113934000D03*
D29*
X149812000Y-115504000D03*
D13*
G36*
X148438297Y-116079000D02*
G01*
X149204963Y-114929000D01*
X150419037Y-114929000D01*
X151185703Y-116079000D01*
X148438297Y-116079000D01*
X148438297Y-116079000D01*
G37*
D32*
X121407000Y-152479000D03*
X123607000Y-152479000D03*
D17*
X145054500Y-146256000D03*
X146954500Y-146256000D03*
D21*
X118062000Y-114284000D03*
X118062000Y-118284000D03*
D17*
X112408000Y-143208000D03*
X110508000Y-143208000D03*
D33*
X139593000Y-151209000D03*
X148093000Y-151209000D03*
D28*
X138636000Y-116284000D03*
D29*
X138636000Y-117064000D03*
D13*
G36*
X140009703Y-116489000D02*
G01*
X139243037Y-117639000D01*
X138028963Y-117639000D01*
X137262297Y-116489000D01*
X140009703Y-116489000D01*
X140009703Y-116489000D01*
G37*
D30*
X138636000Y-113934000D03*
D31*
X140136000Y-118634000D03*
D30*
X138636000Y-118634000D03*
D31*
X137136000Y-118634000D03*
X140136000Y-113934000D03*
X137136000Y-113934000D03*
D29*
X138636000Y-115504000D03*
D13*
G36*
X137262297Y-116079000D02*
G01*
X138028963Y-114929000D01*
X139243037Y-114929000D01*
X140009703Y-116079000D01*
X137262297Y-116079000D01*
X137262297Y-116079000D01*
G37*
D32*
X141514000Y-146256000D03*
X139314000Y-146256000D03*
D23*
X153622000Y-111236000D03*
X153622000Y-115236000D03*
D34*
X136223000Y-151270000D03*
X136223000Y-149370000D03*
D32*
X108732400Y-135791200D03*
X110932400Y-135791200D03*
D17*
X112408000Y-146256000D03*
X110508000Y-146256000D03*
D32*
X111034000Y-150066000D03*
X108834000Y-150066000D03*
X127544000Y-152479000D03*
X125344000Y-152479000D03*
D35*
X106270000Y-153114000D03*
D36*
X106270000Y-150574000D03*
X106270000Y-148034000D03*
X106270000Y-145494000D03*
X106270000Y-142954000D03*
X106270000Y-140414000D03*
X106270000Y-137874000D03*
X106270000Y-135334000D03*
D21*
X134318000Y-114258600D03*
X134318000Y-118258600D03*
D34*
X151463000Y-149370000D03*
X151463000Y-151270000D03*
D20*
X142192000Y-117724000D03*
X142192000Y-119924000D03*
D37*
X119205000Y-152479000D03*
X119205000Y-151209000D03*
X119205000Y-149939000D03*
X119205000Y-148669000D03*
X113617000Y-148669000D03*
X113617000Y-149939000D03*
X113617000Y-151209000D03*
X113617000Y-152479000D03*
D32*
X147102000Y-147780000D03*
X144902000Y-147780000D03*
D20*
X153368000Y-119924000D03*
X153368000Y-117724000D03*
D21*
X106886000Y-118284000D03*
X106886000Y-114284000D03*
D36*
X153730000Y-135334000D03*
X153730000Y-137874000D03*
X153730000Y-140414000D03*
X153730000Y-142954000D03*
X153730000Y-145494000D03*
X153730000Y-148034000D03*
X153730000Y-150574000D03*
D35*
X153730000Y-153114000D03*
D17*
X110508000Y-144732000D03*
X112408000Y-144732000D03*
D23*
X126190000Y-115236000D03*
X126190000Y-111236000D03*
D38*
X130000000Y-108156000D03*
D39*
X130000000Y-113156000D03*
D22*
X117046000Y-123682000D03*
X117046000Y-127682000D03*
D28*
X122380000Y-116284000D03*
D29*
X122380000Y-117064000D03*
D13*
G36*
X123753703Y-116489000D02*
G01*
X122987037Y-117639000D01*
X121772963Y-117639000D01*
X121006297Y-116489000D01*
X123753703Y-116489000D01*
X123753703Y-116489000D01*
G37*
D30*
X122380000Y-113934000D03*
D31*
X123880000Y-118634000D03*
D30*
X122380000Y-118634000D03*
D31*
X120880000Y-118634000D03*
X123880000Y-113934000D03*
X120880000Y-113934000D03*
D29*
X122380000Y-115504000D03*
D13*
G36*
X121006297Y-116079000D02*
G01*
X121772963Y-114929000D01*
X122987037Y-114929000D01*
X123753703Y-116079000D01*
X121006297Y-116079000D01*
X121006297Y-116079000D01*
G37*
D17*
X111773000Y-152479000D03*
X109873000Y-152479000D03*
D32*
X111034000Y-148542000D03*
X108834000Y-148542000D03*
D15*
X108684000Y-111458000D03*
X111184000Y-111458000D03*
D28*
X111204000Y-116284000D03*
D29*
X111204000Y-117064000D03*
D13*
G36*
X112577703Y-116489000D02*
G01*
X111811037Y-117639000D01*
X110596963Y-117639000D01*
X109830297Y-116489000D01*
X112577703Y-116489000D01*
X112577703Y-116489000D01*
G37*
D30*
X111204000Y-113934000D03*
D31*
X112704000Y-118634000D03*
D30*
X111204000Y-118634000D03*
D31*
X109704000Y-118634000D03*
X112704000Y-113934000D03*
X109704000Y-113934000D03*
D29*
X111204000Y-115504000D03*
D13*
G36*
X109830297Y-116079000D02*
G01*
X110596963Y-114929000D01*
X111811037Y-114929000D01*
X112577703Y-116079000D01*
X109830297Y-116079000D01*
X109830297Y-116079000D01*
G37*
D32*
X123607000Y-150193000D03*
X121407000Y-150193000D03*
D23*
X142446000Y-115236000D03*
X142446000Y-111236000D03*
D40*
X128336000Y-144681000D03*
X128336000Y-145951000D03*
X129606000Y-145951000D03*
X129606000Y-144681000D03*
X130876000Y-145951000D03*
X130876000Y-144681000D03*
X127066000Y-145951000D03*
X125796000Y-145951000D03*
X125796000Y-144681000D03*
X127066000Y-144681000D03*
D41*
X132146000Y-147856000D03*
D42*
X132146000Y-145316000D03*
X124526000Y-146331000D03*
X124526000Y-144301000D03*
D41*
X132146000Y-142776000D03*
X126431000Y-142776000D03*
X126431000Y-147856000D03*
D27*
X106918000Y-123142000D03*
X110918000Y-123142000D03*
D10*
X84572000Y-106148000D03*
X84572000Y-109148000D03*
X75428000Y-109148000D03*
X75428000Y-106148000D03*
X70856000Y-109148000D03*
X70856000Y-106148000D03*
X66284000Y-109148000D03*
X66284000Y-106148000D03*
X61712000Y-109148000D03*
X61712000Y-106148000D03*
X57140000Y-106148000D03*
X57140000Y-109148000D03*
D11*
X73500000Y-127300000D03*
X73500000Y-130900000D03*
X73500000Y-132700000D03*
X86500000Y-132700000D03*
X86500000Y-130900000D03*
X86500000Y-127300000D03*
D12*
X80000000Y-130000000D03*
D13*
G36*
X75300000Y-133700000D02*
G01*
X75300000Y-126300000D01*
X84700000Y-126300000D01*
X84700000Y-133700000D01*
X75300000Y-133700000D01*
X75300000Y-133700000D01*
G37*
D11*
X73500000Y-129100000D03*
X86500000Y-129100000D03*
D14*
X80000000Y-125375000D03*
D13*
G36*
X74654470Y-126700000D02*
G01*
X79942692Y-124050000D01*
X80057308Y-124050000D01*
X85345530Y-126700000D01*
X74654470Y-126700000D01*
X74654470Y-126700000D01*
G37*
D14*
X80000000Y-134625000D03*
D13*
G36*
X85345530Y-133300000D02*
G01*
X80057308Y-135950000D01*
X79942692Y-135950000D01*
X74654470Y-133300000D01*
X85345530Y-133300000D01*
X85345530Y-133300000D01*
G37*
D15*
X69860000Y-111458000D03*
X72360000Y-111458000D03*
D16*
X64166400Y-135857200D03*
X64166400Y-137757200D03*
X66166400Y-136807200D03*
D15*
X97292000Y-111458000D03*
X99792000Y-111458000D03*
D17*
X60508000Y-141684000D03*
X62408000Y-141684000D03*
D18*
X101000000Y-130000000D03*
D19*
X103400000Y-130000000D03*
X102697056Y-131697056D03*
X101000000Y-132400000D03*
X99302944Y-131697056D03*
X98600000Y-130000000D03*
X99302944Y-128302944D03*
X101000000Y-127600000D03*
X102697056Y-128302944D03*
X60697056Y-128302944D03*
X59000000Y-127600000D03*
X57302944Y-128302944D03*
X56600000Y-130000000D03*
X57302944Y-131697056D03*
X59000000Y-132400000D03*
X60697056Y-131697056D03*
X61400000Y-130000000D03*
D18*
X59000000Y-130000000D03*
D10*
X102860000Y-109148000D03*
X102860000Y-106148000D03*
X98288000Y-106148000D03*
X98288000Y-109148000D03*
X93716000Y-106148000D03*
X93716000Y-109148000D03*
X89144000Y-106148000D03*
X89144000Y-109148000D03*
D20*
X75936000Y-119924000D03*
X75936000Y-117724000D03*
D21*
X95494000Y-118284000D03*
X95494000Y-114284000D03*
D22*
X91938000Y-127174000D03*
X91938000Y-123174000D03*
D15*
X88616000Y-111458000D03*
X86116000Y-111458000D03*
D23*
X65014000Y-111236000D03*
X65014000Y-115236000D03*
D20*
X62626400Y-137907200D03*
X62626400Y-135707200D03*
D17*
X96761200Y-136603800D03*
X94861200Y-136603800D03*
D20*
X64760000Y-117724000D03*
X64760000Y-119924000D03*
D24*
X70958000Y-143970000D03*
D25*
X64658000Y-143970000D03*
X64658000Y-146270000D03*
X64658000Y-141670000D03*
D26*
X91934000Y-144253000D03*
X92584000Y-144253000D03*
X93234000Y-144253000D03*
X93884000Y-144253000D03*
X94534000Y-144253000D03*
X95184000Y-144253000D03*
X95834000Y-144253000D03*
X96484000Y-144253000D03*
X97134000Y-144253000D03*
X97784000Y-144253000D03*
X97784000Y-138353000D03*
X97134000Y-138353000D03*
X96484000Y-138353000D03*
X95834000Y-138353000D03*
X95184000Y-138353000D03*
X94534000Y-138353000D03*
X93884000Y-138353000D03*
X93234000Y-138353000D03*
X92584000Y-138353000D03*
X91934000Y-138353000D03*
D27*
X100669000Y-122507000D03*
X96669000Y-122507000D03*
D28*
X99812000Y-116284000D03*
D29*
X99812000Y-117064000D03*
D13*
G36*
X101185703Y-116489000D02*
G01*
X100419037Y-117639000D01*
X99204963Y-117639000D01*
X98438297Y-116489000D01*
X101185703Y-116489000D01*
X101185703Y-116489000D01*
G37*
D30*
X99812000Y-113934000D03*
D31*
X101312000Y-118634000D03*
D30*
X99812000Y-118634000D03*
D31*
X98312000Y-118634000D03*
X101312000Y-113934000D03*
X98312000Y-113934000D03*
D29*
X99812000Y-115504000D03*
D13*
G36*
X98438297Y-116079000D02*
G01*
X99204963Y-114929000D01*
X100419037Y-114929000D01*
X101185703Y-116079000D01*
X98438297Y-116079000D01*
X98438297Y-116079000D01*
G37*
D32*
X71407000Y-152479000D03*
X73607000Y-152479000D03*
D17*
X95054500Y-146256000D03*
X96954500Y-146256000D03*
D21*
X68062000Y-114284000D03*
X68062000Y-118284000D03*
D17*
X62408000Y-143208000D03*
X60508000Y-143208000D03*
D33*
X89593000Y-151209000D03*
X98093000Y-151209000D03*
D28*
X88636000Y-116284000D03*
D29*
X88636000Y-117064000D03*
D13*
G36*
X90009703Y-116489000D02*
G01*
X89243037Y-117639000D01*
X88028963Y-117639000D01*
X87262297Y-116489000D01*
X90009703Y-116489000D01*
X90009703Y-116489000D01*
G37*
D30*
X88636000Y-113934000D03*
D31*
X90136000Y-118634000D03*
D30*
X88636000Y-118634000D03*
D31*
X87136000Y-118634000D03*
X90136000Y-113934000D03*
X87136000Y-113934000D03*
D29*
X88636000Y-115504000D03*
D13*
G36*
X87262297Y-116079000D02*
G01*
X88028963Y-114929000D01*
X89243037Y-114929000D01*
X90009703Y-116079000D01*
X87262297Y-116079000D01*
X87262297Y-116079000D01*
G37*
D32*
X91514000Y-146256000D03*
X89314000Y-146256000D03*
D23*
X103622000Y-111236000D03*
X103622000Y-115236000D03*
D34*
X86223000Y-151270000D03*
X86223000Y-149370000D03*
D32*
X58732400Y-135791200D03*
X60932400Y-135791200D03*
D17*
X62408000Y-146256000D03*
X60508000Y-146256000D03*
D32*
X61034000Y-150066000D03*
X58834000Y-150066000D03*
X77544000Y-152479000D03*
X75344000Y-152479000D03*
D35*
X56270000Y-153114000D03*
D36*
X56270000Y-150574000D03*
X56270000Y-148034000D03*
X56270000Y-145494000D03*
X56270000Y-142954000D03*
X56270000Y-140414000D03*
X56270000Y-137874000D03*
X56270000Y-135334000D03*
D21*
X84318000Y-114258600D03*
X84318000Y-118258600D03*
D34*
X101463000Y-149370000D03*
X101463000Y-151270000D03*
D20*
X92192000Y-117724000D03*
X92192000Y-119924000D03*
D37*
X69205000Y-152479000D03*
X69205000Y-151209000D03*
X69205000Y-149939000D03*
X69205000Y-148669000D03*
X63617000Y-148669000D03*
X63617000Y-149939000D03*
X63617000Y-151209000D03*
X63617000Y-152479000D03*
D32*
X97102000Y-147780000D03*
X94902000Y-147780000D03*
D20*
X103368000Y-119924000D03*
X103368000Y-117724000D03*
D21*
X56886000Y-118284000D03*
X56886000Y-114284000D03*
D36*
X103730000Y-135334000D03*
X103730000Y-137874000D03*
X103730000Y-140414000D03*
X103730000Y-142954000D03*
X103730000Y-145494000D03*
X103730000Y-148034000D03*
X103730000Y-150574000D03*
D35*
X103730000Y-153114000D03*
D17*
X60508000Y-144732000D03*
X62408000Y-144732000D03*
D23*
X76190000Y-115236000D03*
X76190000Y-111236000D03*
D38*
X80000000Y-108156000D03*
D39*
X80000000Y-113156000D03*
D22*
X67046000Y-123682000D03*
X67046000Y-127682000D03*
D28*
X72380000Y-116284000D03*
D29*
X72380000Y-117064000D03*
D13*
G36*
X73753703Y-116489000D02*
G01*
X72987037Y-117639000D01*
X71772963Y-117639000D01*
X71006297Y-116489000D01*
X73753703Y-116489000D01*
X73753703Y-116489000D01*
G37*
D30*
X72380000Y-113934000D03*
D31*
X73880000Y-118634000D03*
D30*
X72380000Y-118634000D03*
D31*
X70880000Y-118634000D03*
X73880000Y-113934000D03*
X70880000Y-113934000D03*
D29*
X72380000Y-115504000D03*
D13*
G36*
X71006297Y-116079000D02*
G01*
X71772963Y-114929000D01*
X72987037Y-114929000D01*
X73753703Y-116079000D01*
X71006297Y-116079000D01*
X71006297Y-116079000D01*
G37*
D17*
X61773000Y-152479000D03*
X59873000Y-152479000D03*
D32*
X61034000Y-148542000D03*
X58834000Y-148542000D03*
D15*
X58684000Y-111458000D03*
X61184000Y-111458000D03*
D28*
X61204000Y-116284000D03*
D29*
X61204000Y-117064000D03*
D13*
G36*
X62577703Y-116489000D02*
G01*
X61811037Y-117639000D01*
X60596963Y-117639000D01*
X59830297Y-116489000D01*
X62577703Y-116489000D01*
X62577703Y-116489000D01*
G37*
D30*
X61204000Y-113934000D03*
D31*
X62704000Y-118634000D03*
D30*
X61204000Y-118634000D03*
D31*
X59704000Y-118634000D03*
X62704000Y-113934000D03*
X59704000Y-113934000D03*
D29*
X61204000Y-115504000D03*
D13*
G36*
X59830297Y-116079000D02*
G01*
X60596963Y-114929000D01*
X61811037Y-114929000D01*
X62577703Y-116079000D01*
X59830297Y-116079000D01*
X59830297Y-116079000D01*
G37*
D32*
X73607000Y-150193000D03*
X71407000Y-150193000D03*
D23*
X92446000Y-115236000D03*
X92446000Y-111236000D03*
D40*
X78336000Y-144681000D03*
X78336000Y-145951000D03*
X79606000Y-145951000D03*
X79606000Y-144681000D03*
X80876000Y-145951000D03*
X80876000Y-144681000D03*
X77066000Y-145951000D03*
X75796000Y-145951000D03*
X75796000Y-144681000D03*
X77066000Y-144681000D03*
D41*
X82146000Y-147856000D03*
D42*
X82146000Y-145316000D03*
X74526000Y-146331000D03*
X74526000Y-144301000D03*
D41*
X82146000Y-142776000D03*
X76431000Y-142776000D03*
X76431000Y-147856000D03*
D27*
X56918000Y-123142000D03*
X60918000Y-123142000D03*
D10*
X134572000Y-56148000D03*
X134572000Y-59148000D03*
X125428000Y-59148000D03*
X125428000Y-56148000D03*
X120856000Y-59148000D03*
X120856000Y-56148000D03*
X116284000Y-59148000D03*
X116284000Y-56148000D03*
X111712000Y-59148000D03*
X111712000Y-56148000D03*
X107140000Y-56148000D03*
X107140000Y-59148000D03*
D11*
X123500000Y-77300000D03*
X123500000Y-80900000D03*
X123500000Y-82700000D03*
X136500000Y-82700000D03*
X136500000Y-80900000D03*
X136500000Y-77300000D03*
D12*
X130000000Y-80000000D03*
D13*
G36*
X125300000Y-83700000D02*
G01*
X125300000Y-76300000D01*
X134700000Y-76300000D01*
X134700000Y-83700000D01*
X125300000Y-83700000D01*
X125300000Y-83700000D01*
G37*
D11*
X123500000Y-79100000D03*
X136500000Y-79100000D03*
D14*
X130000000Y-75375000D03*
D13*
G36*
X124654470Y-76700000D02*
G01*
X129942692Y-74050000D01*
X130057308Y-74050000D01*
X135345530Y-76700000D01*
X124654470Y-76700000D01*
X124654470Y-76700000D01*
G37*
D14*
X130000000Y-84625000D03*
D13*
G36*
X135345530Y-83300000D02*
G01*
X130057308Y-85950000D01*
X129942692Y-85950000D01*
X124654470Y-83300000D01*
X135345530Y-83300000D01*
X135345530Y-83300000D01*
G37*
D15*
X119860000Y-61458000D03*
X122360000Y-61458000D03*
D16*
X114166400Y-85857200D03*
X114166400Y-87757200D03*
X116166400Y-86807200D03*
D15*
X147292000Y-61458000D03*
X149792000Y-61458000D03*
D17*
X110508000Y-91684000D03*
X112408000Y-91684000D03*
D18*
X151000000Y-80000000D03*
D19*
X153400000Y-80000000D03*
X152697056Y-81697056D03*
X151000000Y-82400000D03*
X149302944Y-81697056D03*
X148600000Y-80000000D03*
X149302944Y-78302944D03*
X151000000Y-77600000D03*
X152697056Y-78302944D03*
X110697056Y-78302944D03*
X109000000Y-77600000D03*
X107302944Y-78302944D03*
X106600000Y-80000000D03*
X107302944Y-81697056D03*
X109000000Y-82400000D03*
X110697056Y-81697056D03*
X111400000Y-80000000D03*
D18*
X109000000Y-80000000D03*
D10*
X152860000Y-59148000D03*
X152860000Y-56148000D03*
X148288000Y-56148000D03*
X148288000Y-59148000D03*
X143716000Y-56148000D03*
X143716000Y-59148000D03*
X139144000Y-56148000D03*
X139144000Y-59148000D03*
D20*
X125936000Y-69924000D03*
X125936000Y-67724000D03*
D21*
X145494000Y-68284000D03*
X145494000Y-64284000D03*
D22*
X141938000Y-77174000D03*
X141938000Y-73174000D03*
D15*
X138616000Y-61458000D03*
X136116000Y-61458000D03*
D23*
X115014000Y-61236000D03*
X115014000Y-65236000D03*
D20*
X112626400Y-87907200D03*
X112626400Y-85707200D03*
D17*
X146761200Y-86603800D03*
X144861200Y-86603800D03*
D20*
X114760000Y-67724000D03*
X114760000Y-69924000D03*
D24*
X120958000Y-93970000D03*
D25*
X114658000Y-93970000D03*
X114658000Y-96270000D03*
X114658000Y-91670000D03*
D26*
X141934000Y-94253000D03*
X142584000Y-94253000D03*
X143234000Y-94253000D03*
X143884000Y-94253000D03*
X144534000Y-94253000D03*
X145184000Y-94253000D03*
X145834000Y-94253000D03*
X146484000Y-94253000D03*
X147134000Y-94253000D03*
X147784000Y-94253000D03*
X147784000Y-88353000D03*
X147134000Y-88353000D03*
X146484000Y-88353000D03*
X145834000Y-88353000D03*
X145184000Y-88353000D03*
X144534000Y-88353000D03*
X143884000Y-88353000D03*
X143234000Y-88353000D03*
X142584000Y-88353000D03*
X141934000Y-88353000D03*
D27*
X150669000Y-72507000D03*
X146669000Y-72507000D03*
D28*
X149812000Y-66284000D03*
D29*
X149812000Y-67064000D03*
D13*
G36*
X151185703Y-66489000D02*
G01*
X150419037Y-67639000D01*
X149204963Y-67639000D01*
X148438297Y-66489000D01*
X151185703Y-66489000D01*
X151185703Y-66489000D01*
G37*
D30*
X149812000Y-63934000D03*
D31*
X151312000Y-68634000D03*
D30*
X149812000Y-68634000D03*
D31*
X148312000Y-68634000D03*
X151312000Y-63934000D03*
X148312000Y-63934000D03*
D29*
X149812000Y-65504000D03*
D13*
G36*
X148438297Y-66079000D02*
G01*
X149204963Y-64929000D01*
X150419037Y-64929000D01*
X151185703Y-66079000D01*
X148438297Y-66079000D01*
X148438297Y-66079000D01*
G37*
D32*
X121407000Y-102479000D03*
X123607000Y-102479000D03*
D17*
X145054500Y-96256000D03*
X146954500Y-96256000D03*
D21*
X118062000Y-64284000D03*
X118062000Y-68284000D03*
D17*
X112408000Y-93208000D03*
X110508000Y-93208000D03*
D33*
X139593000Y-101209000D03*
X148093000Y-101209000D03*
D28*
X138636000Y-66284000D03*
D29*
X138636000Y-67064000D03*
D13*
G36*
X140009703Y-66489000D02*
G01*
X139243037Y-67639000D01*
X138028963Y-67639000D01*
X137262297Y-66489000D01*
X140009703Y-66489000D01*
X140009703Y-66489000D01*
G37*
D30*
X138636000Y-63934000D03*
D31*
X140136000Y-68634000D03*
D30*
X138636000Y-68634000D03*
D31*
X137136000Y-68634000D03*
X140136000Y-63934000D03*
X137136000Y-63934000D03*
D29*
X138636000Y-65504000D03*
D13*
G36*
X137262297Y-66079000D02*
G01*
X138028963Y-64929000D01*
X139243037Y-64929000D01*
X140009703Y-66079000D01*
X137262297Y-66079000D01*
X137262297Y-66079000D01*
G37*
D32*
X141514000Y-96256000D03*
X139314000Y-96256000D03*
D23*
X153622000Y-61236000D03*
X153622000Y-65236000D03*
D34*
X136223000Y-101270000D03*
X136223000Y-99370000D03*
D32*
X108732400Y-85791200D03*
X110932400Y-85791200D03*
D17*
X112408000Y-96256000D03*
X110508000Y-96256000D03*
D32*
X111034000Y-100066000D03*
X108834000Y-100066000D03*
X127544000Y-102479000D03*
X125344000Y-102479000D03*
D35*
X106270000Y-103114000D03*
D36*
X106270000Y-100574000D03*
X106270000Y-98034000D03*
X106270000Y-95494000D03*
X106270000Y-92954000D03*
X106270000Y-90414000D03*
X106270000Y-87874000D03*
X106270000Y-85334000D03*
D21*
X134318000Y-64258600D03*
X134318000Y-68258600D03*
D34*
X151463000Y-99370000D03*
X151463000Y-101270000D03*
D20*
X142192000Y-67724000D03*
X142192000Y-69924000D03*
D37*
X119205000Y-102479000D03*
X119205000Y-101209000D03*
X119205000Y-99939000D03*
X119205000Y-98669000D03*
X113617000Y-98669000D03*
X113617000Y-99939000D03*
X113617000Y-101209000D03*
X113617000Y-102479000D03*
D32*
X147102000Y-97780000D03*
X144902000Y-97780000D03*
D20*
X153368000Y-69924000D03*
X153368000Y-67724000D03*
D21*
X106886000Y-68284000D03*
X106886000Y-64284000D03*
D36*
X153730000Y-85334000D03*
X153730000Y-87874000D03*
X153730000Y-90414000D03*
X153730000Y-92954000D03*
X153730000Y-95494000D03*
X153730000Y-98034000D03*
X153730000Y-100574000D03*
D35*
X153730000Y-103114000D03*
D17*
X110508000Y-94732000D03*
X112408000Y-94732000D03*
D23*
X126190000Y-65236000D03*
X126190000Y-61236000D03*
D38*
X130000000Y-58156000D03*
D39*
X130000000Y-63156000D03*
D22*
X117046000Y-73682000D03*
X117046000Y-77682000D03*
D28*
X122380000Y-66284000D03*
D29*
X122380000Y-67064000D03*
D13*
G36*
X123753703Y-66489000D02*
G01*
X122987037Y-67639000D01*
X121772963Y-67639000D01*
X121006297Y-66489000D01*
X123753703Y-66489000D01*
X123753703Y-66489000D01*
G37*
D30*
X122380000Y-63934000D03*
D31*
X123880000Y-68634000D03*
D30*
X122380000Y-68634000D03*
D31*
X120880000Y-68634000D03*
X123880000Y-63934000D03*
X120880000Y-63934000D03*
D29*
X122380000Y-65504000D03*
D13*
G36*
X121006297Y-66079000D02*
G01*
X121772963Y-64929000D01*
X122987037Y-64929000D01*
X123753703Y-66079000D01*
X121006297Y-66079000D01*
X121006297Y-66079000D01*
G37*
D17*
X111773000Y-102479000D03*
X109873000Y-102479000D03*
D32*
X111034000Y-98542000D03*
X108834000Y-98542000D03*
D15*
X108684000Y-61458000D03*
X111184000Y-61458000D03*
D28*
X111204000Y-66284000D03*
D29*
X111204000Y-67064000D03*
D13*
G36*
X112577703Y-66489000D02*
G01*
X111811037Y-67639000D01*
X110596963Y-67639000D01*
X109830297Y-66489000D01*
X112577703Y-66489000D01*
X112577703Y-66489000D01*
G37*
D30*
X111204000Y-63934000D03*
D31*
X112704000Y-68634000D03*
D30*
X111204000Y-68634000D03*
D31*
X109704000Y-68634000D03*
X112704000Y-63934000D03*
X109704000Y-63934000D03*
D29*
X111204000Y-65504000D03*
D13*
G36*
X109830297Y-66079000D02*
G01*
X110596963Y-64929000D01*
X111811037Y-64929000D01*
X112577703Y-66079000D01*
X109830297Y-66079000D01*
X109830297Y-66079000D01*
G37*
D32*
X123607000Y-100193000D03*
X121407000Y-100193000D03*
D23*
X142446000Y-65236000D03*
X142446000Y-61236000D03*
D40*
X128336000Y-94681000D03*
X128336000Y-95951000D03*
X129606000Y-95951000D03*
X129606000Y-94681000D03*
X130876000Y-95951000D03*
X130876000Y-94681000D03*
X127066000Y-95951000D03*
X125796000Y-95951000D03*
X125796000Y-94681000D03*
X127066000Y-94681000D03*
D41*
X132146000Y-97856000D03*
D42*
X132146000Y-95316000D03*
X124526000Y-96331000D03*
X124526000Y-94301000D03*
D41*
X132146000Y-92776000D03*
X126431000Y-92776000D03*
X126431000Y-97856000D03*
D27*
X106918000Y-73142000D03*
X110918000Y-73142000D03*
D14*
X80000000Y-84625000D03*
D13*
G36*
X85345530Y-83300000D02*
G01*
X80057308Y-85950000D01*
X79942692Y-85950000D01*
X74654470Y-83300000D01*
X85345530Y-83300000D01*
X85345530Y-83300000D01*
G37*
D14*
X80000000Y-75375000D03*
D13*
G36*
X74654470Y-76700000D02*
G01*
X79942692Y-74050000D01*
X80057308Y-74050000D01*
X85345530Y-76700000D01*
X74654470Y-76700000D01*
X74654470Y-76700000D01*
G37*
D11*
X86500000Y-79100000D03*
X73500000Y-79100000D03*
D12*
X80000000Y-80000000D03*
D13*
G36*
X75300000Y-83700000D02*
G01*
X75300000Y-76300000D01*
X84700000Y-76300000D01*
X84700000Y-83700000D01*
X75300000Y-83700000D01*
X75300000Y-83700000D01*
G37*
D11*
X86500000Y-77300000D03*
X86500000Y-80900000D03*
X86500000Y-82700000D03*
X73500000Y-82700000D03*
X73500000Y-80900000D03*
X73500000Y-77300000D03*
D41*
X76431000Y-97856000D03*
X76431000Y-92776000D03*
X82146000Y-92776000D03*
D42*
X74526000Y-94301000D03*
X74526000Y-96331000D03*
X82146000Y-95316000D03*
D41*
X82146000Y-97856000D03*
D40*
X77066000Y-94681000D03*
X75796000Y-94681000D03*
X75796000Y-95951000D03*
X77066000Y-95951000D03*
X80876000Y-94681000D03*
X80876000Y-95951000D03*
X79606000Y-94681000D03*
X79606000Y-95951000D03*
X78336000Y-95951000D03*
X78336000Y-94681000D03*
D27*
X60918000Y-73142000D03*
X56918000Y-73142000D03*
D16*
X66166400Y-86807200D03*
X64166400Y-87757200D03*
X64166400Y-85857200D03*
D17*
X59873000Y-102479000D03*
X61773000Y-102479000D03*
X94861200Y-86603800D03*
X96761200Y-86603800D03*
X96954500Y-96256000D03*
X95054500Y-96256000D03*
D34*
X86223000Y-99370000D03*
X86223000Y-101270000D03*
X101463000Y-101270000D03*
X101463000Y-99370000D03*
D17*
X62408000Y-94732000D03*
X60508000Y-94732000D03*
X60508000Y-96256000D03*
X62408000Y-96256000D03*
X60508000Y-93208000D03*
X62408000Y-93208000D03*
X62408000Y-91684000D03*
X60508000Y-91684000D03*
D15*
X99792000Y-61458000D03*
X97292000Y-61458000D03*
X72360000Y-61458000D03*
X69860000Y-61458000D03*
X86116000Y-61458000D03*
X88616000Y-61458000D03*
X61184000Y-61458000D03*
X58684000Y-61458000D03*
D21*
X95494000Y-64284000D03*
X95494000Y-68284000D03*
X68062000Y-68284000D03*
X68062000Y-64284000D03*
X84318000Y-68258600D03*
X84318000Y-64258600D03*
X56886000Y-64284000D03*
X56886000Y-68284000D03*
D39*
X80000000Y-63156000D03*
D38*
X80000000Y-58156000D03*
D27*
X96669000Y-72507000D03*
X100669000Y-72507000D03*
D22*
X67046000Y-77682000D03*
X67046000Y-73682000D03*
X91938000Y-73174000D03*
X91938000Y-77174000D03*
D32*
X89314000Y-96256000D03*
X91514000Y-96256000D03*
X71407000Y-100193000D03*
X73607000Y-100193000D03*
X60932400Y-85791200D03*
X58732400Y-85791200D03*
D20*
X62626400Y-85707200D03*
X62626400Y-87907200D03*
D32*
X73607000Y-102479000D03*
X71407000Y-102479000D03*
X58834000Y-100066000D03*
X61034000Y-100066000D03*
X75344000Y-102479000D03*
X77544000Y-102479000D03*
X58834000Y-98542000D03*
X61034000Y-98542000D03*
D23*
X103622000Y-65236000D03*
X103622000Y-61236000D03*
X76190000Y-61236000D03*
X76190000Y-65236000D03*
X92446000Y-61236000D03*
X92446000Y-65236000D03*
X65014000Y-65236000D03*
X65014000Y-61236000D03*
D20*
X103368000Y-67724000D03*
X103368000Y-69924000D03*
X75936000Y-67724000D03*
X75936000Y-69924000D03*
X92192000Y-69924000D03*
X92192000Y-67724000D03*
X64760000Y-69924000D03*
X64760000Y-67724000D03*
D26*
X91934000Y-88353000D03*
X92584000Y-88353000D03*
X93234000Y-88353000D03*
X93884000Y-88353000D03*
X94534000Y-88353000D03*
X95184000Y-88353000D03*
X95834000Y-88353000D03*
X96484000Y-88353000D03*
X97134000Y-88353000D03*
X97784000Y-88353000D03*
X97784000Y-94253000D03*
X97134000Y-94253000D03*
X96484000Y-94253000D03*
X95834000Y-94253000D03*
X95184000Y-94253000D03*
X94534000Y-94253000D03*
X93884000Y-94253000D03*
X93234000Y-94253000D03*
X92584000Y-94253000D03*
X91934000Y-94253000D03*
D37*
X63617000Y-102479000D03*
X63617000Y-101209000D03*
X63617000Y-99939000D03*
X63617000Y-98669000D03*
X69205000Y-98669000D03*
X69205000Y-99939000D03*
X69205000Y-101209000D03*
X69205000Y-102479000D03*
D25*
X64658000Y-91670000D03*
X64658000Y-96270000D03*
X64658000Y-93970000D03*
D24*
X70958000Y-93970000D03*
D29*
X99812000Y-65504000D03*
D13*
G36*
X98438297Y-66079000D02*
G01*
X99204963Y-64929000D01*
X100419037Y-64929000D01*
X101185703Y-66079000D01*
X98438297Y-66079000D01*
X98438297Y-66079000D01*
G37*
D31*
X98312000Y-63934000D03*
X101312000Y-63934000D03*
X98312000Y-68634000D03*
D30*
X99812000Y-68634000D03*
D31*
X101312000Y-68634000D03*
D30*
X99812000Y-63934000D03*
D29*
X99812000Y-67064000D03*
D13*
G36*
X101185703Y-66489000D02*
G01*
X100419037Y-67639000D01*
X99204963Y-67639000D01*
X98438297Y-66489000D01*
X101185703Y-66489000D01*
X101185703Y-66489000D01*
G37*
D28*
X99812000Y-66284000D03*
D29*
X72380000Y-65504000D03*
D13*
G36*
X71006297Y-66079000D02*
G01*
X71772963Y-64929000D01*
X72987037Y-64929000D01*
X73753703Y-66079000D01*
X71006297Y-66079000D01*
X71006297Y-66079000D01*
G37*
D31*
X70880000Y-63934000D03*
X73880000Y-63934000D03*
X70880000Y-68634000D03*
D30*
X72380000Y-68634000D03*
D31*
X73880000Y-68634000D03*
D30*
X72380000Y-63934000D03*
D29*
X72380000Y-67064000D03*
D13*
G36*
X73753703Y-66489000D02*
G01*
X72987037Y-67639000D01*
X71772963Y-67639000D01*
X71006297Y-66489000D01*
X73753703Y-66489000D01*
X73753703Y-66489000D01*
G37*
D28*
X72380000Y-66284000D03*
D29*
X88636000Y-65504000D03*
D13*
G36*
X87262297Y-66079000D02*
G01*
X88028963Y-64929000D01*
X89243037Y-64929000D01*
X90009703Y-66079000D01*
X87262297Y-66079000D01*
X87262297Y-66079000D01*
G37*
D31*
X87136000Y-63934000D03*
X90136000Y-63934000D03*
X87136000Y-68634000D03*
D30*
X88636000Y-68634000D03*
D31*
X90136000Y-68634000D03*
D30*
X88636000Y-63934000D03*
D29*
X88636000Y-67064000D03*
D13*
G36*
X90009703Y-66489000D02*
G01*
X89243037Y-67639000D01*
X88028963Y-67639000D01*
X87262297Y-66489000D01*
X90009703Y-66489000D01*
X90009703Y-66489000D01*
G37*
D28*
X88636000Y-66284000D03*
D29*
X61204000Y-65504000D03*
D13*
G36*
X59830297Y-66079000D02*
G01*
X60596963Y-64929000D01*
X61811037Y-64929000D01*
X62577703Y-66079000D01*
X59830297Y-66079000D01*
X59830297Y-66079000D01*
G37*
D31*
X59704000Y-63934000D03*
X62704000Y-63934000D03*
X59704000Y-68634000D03*
D30*
X61204000Y-68634000D03*
D31*
X62704000Y-68634000D03*
D30*
X61204000Y-63934000D03*
D29*
X61204000Y-67064000D03*
D13*
G36*
X62577703Y-66489000D02*
G01*
X61811037Y-67639000D01*
X60596963Y-67639000D01*
X59830297Y-66489000D01*
X62577703Y-66489000D01*
X62577703Y-66489000D01*
G37*
D28*
X61204000Y-66284000D03*
D33*
X98093000Y-101209000D03*
X89593000Y-101209000D03*
D32*
X94902000Y-97780000D03*
X97102000Y-97780000D03*
D36*
X56270000Y-85334000D03*
X56270000Y-87874000D03*
X56270000Y-90414000D03*
X56270000Y-92954000D03*
X56270000Y-95494000D03*
X56270000Y-98034000D03*
X56270000Y-100574000D03*
D35*
X56270000Y-103114000D03*
X103730000Y-103114000D03*
D36*
X103730000Y-100574000D03*
X103730000Y-98034000D03*
X103730000Y-95494000D03*
X103730000Y-92954000D03*
X103730000Y-90414000D03*
X103730000Y-87874000D03*
X103730000Y-85334000D03*
D10*
X57140000Y-59148000D03*
X57140000Y-56148000D03*
X61712000Y-56148000D03*
X61712000Y-59148000D03*
X66284000Y-56148000D03*
X66284000Y-59148000D03*
X70856000Y-56148000D03*
X70856000Y-59148000D03*
X75428000Y-56148000D03*
X75428000Y-59148000D03*
X84572000Y-59148000D03*
X84572000Y-56148000D03*
X89144000Y-59148000D03*
X89144000Y-56148000D03*
X93716000Y-59148000D03*
X93716000Y-56148000D03*
X98288000Y-59148000D03*
X98288000Y-56148000D03*
X102860000Y-56148000D03*
X102860000Y-59148000D03*
D18*
X59000000Y-80000000D03*
D19*
X61400000Y-80000000D03*
X60697056Y-81697056D03*
X59000000Y-82400000D03*
X57302944Y-81697056D03*
X56600000Y-80000000D03*
X57302944Y-78302944D03*
X59000000Y-77600000D03*
X60697056Y-78302944D03*
X102697056Y-78302944D03*
X101000000Y-77600000D03*
X99302944Y-78302944D03*
X98600000Y-80000000D03*
X99302944Y-81697056D03*
X101000000Y-82400000D03*
X102697056Y-81697056D03*
X103400000Y-80000000D03*
D18*
X101000000Y-80000000D03*
M02*
